<svg width="17" height="16" viewBox="0 0 17 16" fill="none" xmlns="http://www.w3.org/2000/svg">
<mask id="mask0_1_169" style="mask-type:alpha" maskUnits="userSpaceOnUse" x="0" y="4" width="17" height="8">
<path fill-rule="evenodd" clip-rule="evenodd" d="M16.6699 5.2647L13.2571 9.31889C12.2036 10.5704 10.2916 10.5938 9.20807 9.36851C8.42474 8.48271 7.01324 8.60716 6.3953 9.61652L6.19937 9.93656C5.10585 11.7227 2.56578 11.8401 1.3139 10.1622L0.752396 9.40969L1.48924 8.85419L2.05074 9.60674C2.91281 10.7621 4.66193 10.6813 5.41494 9.45134L5.61087 9.13129C6.55238 7.59341 8.70299 7.40378 9.89647 8.75342C10.6076 9.55763 11.8625 9.54225 12.554 8.72085L15.9667 4.66666L16.6699 5.2647Z" fill="#48F197"/>
</mask>
<g mask="url(#mask0_1_169)">
<rect x="0.200119" y="4.96571" width="17.5001" height="3.70334" fill="#2187E5"/>
<rect x="0.200119" y="8.66904" width="17.5001" height="3.70334" fill="#F6B500"/>
</g>
</svg>
