<?xml version="1.0" encoding="UTF-8"?>
<svg version="1.1" viewBox="0 0 2048 2048" width="1280" height="1280" xmlns="http://www.w3.org/2000/svg">
<path transform="translate(252,452)" d="m0 0h1543l17 2 15 5 14 8 10 9 5 5 6 7 8 14 5 14 2 13v843l-2 12-5 12-6 10-11 12-11 7-11 5-13 3h-20l-15-4-11-6-9-7-7-7-9-14-5-14-1-6-1-771 1-15h-1434v783l-3 15-8 16-7 9-10 9-16 8-10 3-5 1h-20l-15-4-13-7-12-11-7-9-7-14-3-12-1-10v-830l2-17 6-18 8-13 9-11 13-11 15-8 13-4z" fill="#F8B503"/>
<path transform="translate(1019,1382)" d="m0 0 25 1 22 4 24 8 16 8 12 7 12 9 14 12 12 13 11 15 10 18 7 16 5 16 4 18 2 23-1 22-5 25-7 21-9 19-12 18-8 10-11 12-11 9-12 9-17 10-16 7-18 6-20 4-8 1h-34l-18-3-21-6-15-6-17-9-13-9-11-9-8-7-14-16-11-16-6-10-9-21-6-21-3-16-1-11v-20l2-17 4-18 5-16 8-18 9-15 12-16 11-12 12-11 17-12 16-9 19-8 22-6 14-2z" fill="#F8B503"/>
</svg>
