<svg width="15" height="14" viewBox="0 0 15 14" fill="none" xmlns="http://www.w3.org/2000/svg">
<path d="M13.4489 5.81043C12.6108 2.38168 9.81695 0.603814 6.87072 0.908592C6.81992 0.908592 6.74373 0.908592 6.66753 0.93399C6.56594 1.16257 6.21036 1.06098 5.32141 1.41655C4.35626 1.79753 4.25467 2.02611 4.02608 1.94992L3.94989 2.00071L3.87369 2.05151C1.28304 3.98177 0.622678 7.56291 2.34978 10.2551V10.2805C2.65456 10.3059 2.52757 10.7123 4.07688 11.9314C4.43246 12.1854 4.78804 12.4394 5.19442 12.6171C5.21981 12.6171 5.24521 12.6425 5.27061 12.6679C5.29601 12.6933 5.32141 12.6933 5.34681 12.6933H5.37221C5.90557 12.8965 6.48974 13.0235 7.09931 13.0489C7.2263 13.0489 7.35329 13.0743 7.45489 13.0743C7.86126 13.0743 8.29304 13.0235 8.67402 12.9473H8.69941C8.75021 12.9473 8.82641 12.9219 8.8772 12.8965C8.9026 12.8965 8.9026 12.8711 8.928 12.8711C9.23278 12.7695 9.41057 12.6425 9.71536 12.5409C9.81695 12.4901 10.1979 12.3886 10.5027 12.2362C10.5535 12.2108 10.6043 12.1854 10.6551 12.16C11.6456 11.5504 12.433 10.6615 12.941 9.62016C13.0934 9.31538 13.0172 9.28998 13.0934 9.18839C13.1188 8.9852 13.195 8.60423 13.2966 8.47724C13.4489 6.97875 13.4235 7.20733 13.3473 6.36919C13.3473 6.3184 13.3473 6.19141 13.3219 6.16601C13.2712 6.01362 13.3473 5.88663 13.4489 5.81043Z" fill="#D9D9DB"/>
<path d="M11.1377 2.10228C11.1123 2.10228 9.68995 2.55945 9.76615 2.53405L9.51216 2.61024L7.68347 3.1944L4.94042 4.33732L3.13713 5.20085C3.11173 5.20085 1.35923 6.06439 1.46083 6.0136C1.48622 5.9374 1.48622 5.83581 1.51162 5.75961C6.28655 3.39759 5.77858 3.82935 7.60727 3.01661L9.33437 2.45785C9.35977 2.45785 11.0361 1.92449 10.9345 1.94989C10.9853 1.97529 11.1123 2.07688 11.1377 2.10228Z" fill="white"/>
<path d="M13.5767 6.9534C12.9418 6.03907 13.145 5.65809 11.6464 4.1596C11.6464 4.1596 11.621 4.1342 11.5956 4.10881C11.4433 3.98181 10.9353 3.62624 10.3765 3.21987C10.0971 3.01669 9.81775 2.8135 9.53836 2.61031C9.46217 2.55952 9.41137 2.50872 9.33518 2.45793C8.878 2.12775 8.47163 1.82297 8.24304 1.67058C8.21764 1.64518 8.19224 1.61979 8.16684 1.61979C7.65887 1.26421 6.99851 1.16262 6.49054 1.06103V0.959434C6.59213 0.934036 6.74452 0.934036 6.87152 0.908638C7.2525 0.984832 7.86206 1.13722 8.26844 1.442C8.31923 1.4674 8.37003 1.51819 8.42083 1.54359C8.80181 1.82297 11.7226 3.95642 11.748 3.98181C12.9926 5.17553 13.2212 5.98827 13.5259 6.52163C13.5767 6.69942 13.5767 6.77561 13.5767 6.9534Z" fill="white"/>
<path d="M9.89192 12.5662C9.86652 12.5916 9.81573 12.5662 9.79033 12.5916C9.76493 12.617 9.73953 12.6424 9.71413 12.6424L9.30776 11.5757C9.25696 11.1947 9.18076 10.6106 9.18076 10.1026C9.15536 9.36607 9.20616 8.47713 9.40935 7.68979C9.86652 6.11511 9.79033 4.54042 9.79033 4.54042H9.99352C9.99352 4.56582 10.0697 6.1659 9.61254 7.76599C9.38395 8.57873 9.35855 9.46766 9.38395 10.255C9.46015 11.9567 9.61254 11.6265 9.89192 12.5662Z" fill="white"/>
<path d="M13.22 8.42654C13.1946 8.45193 12.2549 9.34087 10.8834 9.72184C9.66424 10.052 6.99739 11.2457 6.97199 11.2457C5.54967 11.9569 4.38134 11.8553 3.92417 11.9315C3.84797 11.8807 3.77178 11.8299 3.69558 11.7537C4.58453 11.5251 4.88931 11.8807 6.8704 11.0425C7.88634 10.5854 9.71503 9.79804 10.8072 9.49326C12.1025 9.13768 13.0422 8.24875 13.0422 8.24875L13.22 8.42654Z" fill="white"/>
<path d="M4.30557 1.77219C3.8738 2.33095 3.39123 3.57545 3.39123 3.62625C3.39123 3.67705 2.68007 7.58836 2.68007 7.66456C2.42608 9.23924 2.95945 10.2806 2.95945 10.3568L2.75626 10.433C2.42608 9.46783 2.29909 8.90907 2.47688 7.51217C3.21344 3.34687 3.11184 3.29608 3.8484 2.05157C3.8738 2.05157 4.00079 1.94997 4.00079 1.92458C4.07699 1.92458 4.25478 1.79758 4.30557 1.77219Z" fill="white"/>
<path d="M7.20107 9.16289C7.17567 9.13749 4.966 7.43582 4.12785 6.80086L4.25484 6.62308C5.09299 7.23263 7.30266 8.95971 7.32806 8.9851L7.20107 9.16289Z" fill="white"/>
<path d="M9.84065 12.4395C9.78985 12.4395 9.73906 12.4649 9.71366 12.4903C9.56127 12.5919 9.15489 12.8458 8.79931 12.922C8.77391 12.922 8.74851 12.9474 8.74851 12.9474L8.72311 12.9728C9.43427 12.8205 10.12 12.5411 10.7042 12.1855C10.628 12.1093 10.3994 12.3887 9.84065 12.4395Z" fill="#0038E0"/>
<path d="M12.9653 9.62031C13.5748 8.3758 13.7018 7.0043 13.4478 5.73439C13.2954 5.88678 13.1177 5.93758 13.1431 6.11536C13.1939 7.0043 12.9145 8.325 12.8637 8.47739C12.7875 8.68058 13.0669 8.98535 12.9653 9.62031Z" fill="#0038E0"/>
<path d="M9.66406 7.86789C9.56247 7.7409 9.38468 7.7155 9.25769 7.79169C8.74972 8.07107 7.53059 8.50284 7.02262 8.68063C6.89562 8.73142 6.79403 8.85841 6.79403 8.9854C6.92102 10.7125 6.66704 11.1696 7.09881 11.2712C7.78457 11.449 8.95291 11.5252 9.33388 11.5506C9.43548 11.5506 9.51167 11.5252 9.56247 11.4744C10.0196 11.0427 10.6292 10.1029 10.9086 9.69655C11.1372 9.36638 10.68 9.18859 9.66406 7.86789Z" fill="#0038E0"/>
<path d="M11.6449 3.85483C11.4671 3.32147 10.9591 2.28014 10.6544 2.12775C10.1464 1.84837 8.95265 1.64519 8.47008 1.56899C8.36848 1.5436 8.24149 1.61979 8.21609 1.72138L7.73352 2.9151C7.68272 3.01669 7.73352 3.14368 7.83511 3.21987C8.36848 3.55005 9.43522 4.43899 9.7908 4.71837C9.867 4.76916 9.94319 4.79456 10.0448 4.76916L11.5179 4.185C11.6195 4.10881 11.6957 3.98182 11.6449 3.85483Z" fill="#0038E0"/>
<path d="M4.71153 4.08352C3.69559 3.70255 3.4162 3.34698 3.13682 3.62636C2.47646 4.31211 1.86689 5.48042 1.89229 5.7344C1.94309 6.29316 2.22247 7.02971 2.40026 7.46148C2.47646 7.63927 2.67965 7.71546 2.83204 7.63927C3.23841 7.46148 3.94957 7.1821 4.30515 7.05511C4.43215 7.00431 4.50834 6.90272 4.50834 6.75033C4.53374 5.98839 4.76233 4.94706 4.86392 4.4645C4.94012 4.31211 4.86392 4.15972 4.71153 4.08352Z" fill="#0038E0"/>
<path d="M5.37085 12.6935H5.34545C5.32005 12.6681 5.26925 12.6681 5.24385 12.6681C4.68508 12.4395 4.15172 12.1347 3.71994 11.7792C2.78019 11.0426 2.32302 10.2553 2.32302 10.2299C2.42462 10.2299 2.7548 10.0267 2.98338 10.3061C3.21197 10.6109 3.79614 11.2204 4.65969 11.6776C5.06606 11.957 4.73588 11.83 5.37085 12.6935Z" fill="#0038E0"/>
<path d="M6.79367 0.934113C6.81907 1.03571 6.66668 1.03571 6.61588 1.0865C3.66965 2.22942 4.07603 2.10243 3.94903 2.00084C3.82204 1.89924 4.02523 1.95004 4.02523 1.95004C4.07603 1.92464 4.27922 1.79765 4.30461 1.77225C5.29516 1.1627 6.48889 0.908715 6.79367 0.934113Z" fill="#0038E0"/>
<path opacity="0.15" d="M8.80021 1.01003C9.79076 2.10215 10.4003 3.54984 10.4003 5.14992C10.4003 9.08664 6.74293 11.982 2.98395 11.1185C4.10148 12.3376 5.70159 13.1249 7.47949 13.1249C10.8321 13.1249 13.5751 10.3819 13.5751 7.00399C13.5751 4.0832 11.5433 1.61958 8.80021 1.01003Z" fill="#0038E0"/>
</svg>
