<?xml version="1.0" encoding="UTF-8"?>
<svg version="1.1" viewBox="0 0 2048 2048" width="1280" height="1280" xmlns="http://www.w3.org/2000/svg">
<path transform="translate(704,640)" d="m0 0h639l1 1v398l-5 1h-634l-1-1zm260 112-10 4-9 7-73 73-5 8-3 9v8l4 12 5 7 9 6 9 3h10l11-4 11-9 26-26v-2l4-2 40-40 6-10 2-7v-11l-4-10-6-8-10-6-7-2zm192 16-10 4-9 7-74 74-6 12-1 5v7l4 12 5 7 9 6 9 3h10l11-4 10-8 70-70 6-9 3-9v-11l-4-10-6-8-10-6-7-2z" fill="#34B977"/>
<path transform="translate(563,368)" d="m0 0h921l16 3 15 6 13 8 11 9 10 11 8 13 7 15 3 13 1 12v117l-2 1h-1086v-127l4-16 6-14 7-11 8-10 9-9 15-10 13-6 13-4z" fill="#51BF6C"/>
<path transform="translate(713,1584)" d="m0 0h631l3 5 15 53 16 56 3 13-2 1h-704l-6-1 1-5 12-34 12-36 13-37 5-14z" fill="#03B188"/>
<path transform="translate(1408,640)" d="m0 0h159l1 1v503l-4-1-25-14-24-14-27-15-24-14-25-14-29-17-2-2z" fill="#34B877"/>
<path transform="translate(481,640)" d="m0 0h158l1 1v412l-1 2-11 6-27 15-24 14-25 14-24 14-27 15-18 11h-3v-503z" fill="#34B877"/>
<path transform="translate(945,1104)" d="m0 0h158l1 1v414l-5 1h-154l-1-1v-414z" fill="#03B188"/>
<path transform="translate(945,1104)" d="m0 0h23l96 1 2 1h25l3 7 4 7 2 4h2v-5h1v112l-1 8h-4l-3-8-1 8v19l-1 9v11l-3 8h-2v5l-5 5-3 12-2-4v9l-1 2h-4v2l-2-1 1-2-9-2v5l-4 1-2-3h-2l-1 4h-1l-2-7-3-3 3-5-2-1 2-1 2-5-10 3-2 3-1-5h-2l2 7 1 2-5-1-4 3-1 3-7 1-3-3v-5h-4l1 5h2l-1 2-4 2-8-4-2-2h-3l-1-3-4-2-2-8h-2v-2h-2l-4-5-1-5 2-4-4-6v-3h-4v5 3l4 3-1 5h2v2l-4 3-3-3-2-7-1-11-1-1-1 4-3-1-3-9v-8l3-3-4-4-4-8-2-12-2-6-1-2h-2v-6-1l-2-6-2-32v-27l-2-1v-8l-1 7-1 51-1 153h-1z" fill="#34B977"/>
<path transform="translate(480,456)" d="m0 0h1l1 114 1-11 2 2v3h4l1 7-4 2-2-1v2h11l1-2h155l12-1 15 1h23l27-1 8 1v-2l-7 1-4-1h-49l-29-1 1-2 13-2h47l9 1h28l38 2v1l-9 1h547l4 1h48l10 1h24l6-1h26l1-1 9 1 4-1 48 1h17l14 1 6 2 1-2 4 1 15-3 4-5 2-4h2l1-75h1v89l-2 1h-1086z" fill="#35B976"/>
<path transform="translate(481,640)" d="m0 0h158v245l-1 37-1 14h-2l-1 2-1-13-1-39v-52l-2-24-1-18 1-7v-10l-1-3 1-4-1-8 1-8v-10l-1-2v-8l1-11 2-1-1-4 1-2h-3v-30l3-34 4-5h-2l1-2 2 1v-2h-55l1 2h-9l-5 1h-6l-5-1-13-1v2l-21 1-12-1-13 1h-5v2l-4 4v6l1 3-1 8v47h-2l-1-5v-11l-1-5-1-6-1-14v50l-1 188h-2z" fill="#40C97F"/>
<path transform="translate(480,456)" d="m0 0h1v119l91-1h193l137-1h271l255 1h110l1-2 4 1 15-3 4-5 2-4h2l1-75h1v89l-2 1h-1086z" fill="#04B188"/>
<path transform="translate(1342,990)" d="m0 0h1l1 49-5 1h-634v-1l52-2 5-1 108-1 79 2h208l16-1 48-1 18-1h71l6 1 20 2h6z" fill="#04B188"/>
<path transform="translate(1567,641)" d="m0 0h1v503l-4-1-25-14-24-14-27-15-43-25v-3l6 1 9 5 7 3 20 12 9 4 17 10 9 4 2 1v2l5 2 14 8 9 4 5 3 8 1v-43h-1l-1-15-1-6-1-3v-11l-2-8 3-4 3 1v-140z" fill="#03B188"/>
<path transform="translate(1524,640)" d="m0 0h43v136l-1 108-1 6-3-4-1-3v-64l-1-10v-7l-1-6-1-18v-104l3-16 1-5 3 1 1-13h-42z" fill="#41CA7F"/>
<path transform="translate(1436 1e3)" d="m0 0 2 4v8l8 19 5 6 3 1 5 5 11 8 4 5v2h2v2l3-1 6 4 4 1v2h4l1-2 5 2-3 3 5 4 11 4 8 2 13 2 6 3 2 6-6 1v-2l-5 2-5-2-6 4-7-1-5-2v-2l-4-1-2-5-4 1-3-2v-2l-11-3-6-2v-2h-2l-2-4v-3l-8-4-3-2h-6l-4-3-1-2-4-1 1-7-5-2-5-5v-2l-2-2-1-6h2l-2-4-1-9 1-2-2-1-2-6z" fill="#03B188"/>
<path transform="translate(704,640)" d="m0 0 9 1 4 2v2l-2 2-1 8 1 10v14l1 13-1 12 1 5h-2l1 10v12l-1 2v16l-1 10h-4l-1 33h-1l-1 11h-1z" fill="#44C87B"/>
<path transform="translate(1409,640)" d="m0 0h101v1l-72 1-1 2-14 2-5 6 1 9v9l-1 5 1 5v9l-1 8v20l-2 3-1-5 1-3-3-1 1-7-1-5-1 53v64l-1 74h-1l-1-42z" fill="#43C97D"/>
<path transform="translate(481,640)" d="m0 0h14v1l10 1-1 3-10 1v2l-4 4v6l1 3-1 8v47h-2l-1-5v-11l-1-5-1-6-1-14v50l-1 188h-2z" fill="#41CB80"/>
<path transform="translate(509,1018)" d="m0 0 2 1 2 9 5 5 1 12 4 12 3 3-2 4 1 2-1 2h2v2h9l5 2 5-1 6-1-2 3-10 3-5 5-4 2h-4v2l-6-2-4-3-4-1-3-5-3-9 1-6-2-6 1-7 1-9-2-11z" fill="#03B188"/>
<path transform="translate(1567,1030)" d="m0 0h1v114l-4-1-25-14-24-14-27-15-43-25v-3l6 1 9 5 7 3 20 12 9 4 17 10 9 4 2 1v2l5 2 14 8 9 4 5 3 8 1 1-3z" fill="#0CB386"/>
<path transform="translate(939,659)" d="m0 0h104l5 1h10l12 1 35 1v1l-5 1 5 1-2 2h-37l-27-1h-28l-4-1-10 1-4 1-8-1-16 1-7-1-5 1-2-2h-8l-6-1-4-1v-3z" fill="#51BF6C"/>
<path transform="translate(948,1024)" d="m0 0h6l2 2h9v-2l34 1h73l56-1h28l18 1 36 1 17 1-3 3h-16l-53-1h-49l-61-1-70 1-34-1 4-2z" fill="#03B189"/>
<path transform="translate(488,515)" d="m0 0 2 2 1 10 1 5h2l1-3 2 1v2l2 1-3 1 2 4 4 3 1 7 3 5 1 4 5 1v3l9 1-5 4 3 2h-9l-8 1-2 1v-2h-8v-2l-2-1 1-2-3-1 1-18-1-11-1-3-2-2v26l-2 4v-37h2l2-5z" fill="#35B976"/>
<path transform="translate(480,641)" d="m0 0h1l1 487 1-3 6-1 3 3 3 6-1 4-11 7h-3z" fill="#03B189"/>
<path transform="translate(1440,570)" d="m0 0 9 1 4-1 48 1h17l14 1 1 2-74 1h-48l-81-1v-1l18-1 3-1h22l10 1h24l6-1h26z" fill="#39B975"/>
<path transform="translate(483,559)" d="m0 0 2 2v3h4l1 7-4 2-2-1v2h11l1-2h155l12-1 15 1h21l29 1v1l-31 1h-216z" fill="#3DC57C"/>
<path transform="translate(1411,711)" d="m0 0h1v105l-1 74h-1l-1-42v-136z" fill="#44C87C"/>
<path transform="translate(495,640)" d="m0 0h136v1l-49 1 1 2h-9l-5 1h-6l-5-1-13-1v2l-21 1-12-1-8 1v-3l-12-1z" fill="#47BD6F"/>
<path transform="translate(480,449)" d="m0 0 2 1 1 71 1 2v1l2 4 2 2-1 2 2 1 1 11v8l-1 10 2 1-1 3-1-2h-4l-1-3-1 9-2 1z" fill="#4CC372"/>
<path transform="translate(1500,372)" d="m0 0 6 1 16 8 5 4v2l3 3v2l4 1v3l2 1-2 4-11-8-7-6-4-5-6-2-7-4z" fill="#35B977"/>
<path transform="translate(1567,486)" d="m0 0h1v89l-5 1-24-1v-3l4 1 15-3 4-5 2-4h2z" fill="#29BE81"/>
<path transform="translate(1131,782)" d="m0 0h2l-2 4-60 60h-2l2-5h2l2-4h2l2-4h2l2-4h2l2-4h2l2-4h2l2-4h2l2-4h2l2-4h2l2-4h2l2-4h2l2-4h2l2-4h2l1-3 5-4h2z" fill="#05B188"/>
<path transform="translate(1451,571)" d="m0 0h67l14 1 1 2-85 1 4-1z" fill="#39BE78"/>
<path transform="translate(939,766)" d="m0 0h2l-2 4-59 59h-2v-3l5-5h2l2-4h2l2-4h2l2-4h2l2-4h2l2-4h2l2-4h2l2-4h2l2-4h2l2-4h2l2-4h2l1-3h3l1-4h3l2-4h2z" fill="#08B388"/>
<path transform="translate(1353,565)" d="m0 0h25l14 1h18l4 2-4 1h-6-3l-2 2h-7l2-1-4-1v2h-2v-2l-8 1-18-1h-9-4l-6 1-1-4z" fill="#35B977"/>
<path transform="translate(505,642)" d="m0 0h77l1 2h-9l-5 1h-6l-5-1-13-1v2l-21 1-12-1-8 1z" fill="#52C06C"/>
<path transform="translate(486,1124)" d="m0 0 4 1 3 5 2 3-1 4-11 7h-3v-6h2v-10l1-3z" fill="#06B288"/>
<path transform="translate(551,565)" d="m0 0h28l2 1h8l4 2-8 1-29 1-22-1 1-3z" fill="#35B977"/>
<path transform="translate(878,1025)" d="m0 0h11l-2 1-1 3h-46l-33-1v-1l36-1z" fill="#03B189"/>
<path transform="translate(968,1104)" d="m0 0h135l-1 2h-20l-4 1h-12l-7-1-91-1z" fill="#03B189"/>
<path transform="translate(1336,658)" d="m0 0 3 1-1 12-1 45h-2l-1-17-1-9 1-19z" fill="#52C06C"/>
<path transform="translate(631,662)" d="m0 0h2l1 2v15l-1 14v3l-1 11v6l-3 1v-30z" fill="#51C06C"/>
<path transform="translate(1540,405)" d="m0 0h2v2l6-1 5 5 7 14-1 2h-2l-3-4v-2l-4-1-6-7-4-6z" fill="#41C97E"/>
<path transform="translate(1526,385)" d="m0 0 5 2 13 12 5 6-1 2-2-1-1 4v-3h-3v-2h-3l-4-5-1-4-2-4h-2l-1-4-3-1z" fill="#4DC06F"/>
<path transform="translate(1348,571)" d="m0 0h25l10 1h9l8 1v1h-70v-1l18-1z" fill="#3FC97F"/>
<path transform="translate(483,559)" d="m0 0 2 2v3h4l1 7-4 2-2-1v2h11l1-2 8 1 23 1v1h-46z" fill="#45C77A"/>
<path transform="translate(1518,565)" d="m0 0 4 1 9-1h14l9 1-1 2-9 1-7 2h-10v-1l-13-1-1-2z" fill="#35B976"/>
<path transform="translate(657,571)" d="m0 0 27 1h15l29 1v1l-31 1-48-1 2-2z" fill="#3EC67D"/>
<path transform="translate(1448,368)" d="m0 0h36l12 2 3 3-1 3h-7l-5-4-3-1-35-2z" fill="#37BA76"/>
<path transform="translate(932,1023)" d="m0 0 2 1 1 2 3 2-36 1-3-2v-2l13-1 4 2 4-2 7 1v-1z" fill="#03B189"/>
<path transform="translate(739,998)" d="m0 0 3 1 3 5 2 3v4l-3 2h-5l-2-4v-3h-2v-2l-2-1 5-1z" fill="#03B189"/>
<path transform="translate(1312,570)" d="m0 0h9l4 1h21l3 2-19 1h-33v-1l14-1z" fill="#43BC71"/>
<path transform="translate(1342,647)" d="m0 0h1v20h-3l-2-8-2-2 1-8z" fill="#41CB80"/>
<path transform="translate(726,571)" d="m0 0 9 1 20 1v2h-26l-1-1-27-1v-1z" fill="#3DBB74"/>
<path transform="translate(1252,642)" d="m0 0 5 1v2l4-1 2 2-3 4-6-1-2-1-3 1-4-2v-2h6l-1-2z" fill="#51BF6C"/>
<path transform="translate(1064,1104)" d="m0 0h39l-1 2h-20l-4 1h-12l-2-1z" fill="#13B483"/>
<path transform="translate(895,661)" d="m0 0h6 2 8l1 3-23 2-4-2-2-2z" fill="#51BF6C"/>
<path transform="translate(1425,1062)" d="m0 0h7l6 3 4 4 1 4-5-2-12-7z" fill="#0AB387"/>
<path transform="translate(1410,681)" d="m0 0h1l1 14v16l-1 6h-1l-1-5v-16z" fill="#46C779"/>
<path transform="translate(529,379)" d="m0 0 2 1-1 3-4-1zm-5 3 2 1-2 6-4 4-5-2 3-5z" fill="#4BC378"/>
<path transform="translate(1412,571)" d="m0 0 16 1-4 2-3 1h-10l-15-2v-1h11z" fill="#39BE78"/>
<path transform="translate(1559,666)" d="m0 0h2l1 7v6l-2 6-2-2v-9z" fill="#52C06C"/>
<path transform="translate(949,1105)" d="m0 0 4 1-1 5v3l-1 2h-2l-1 3-1-9z" fill="#03B189"/>
<path transform="translate(710,640)" d="m0 0h20v1h-7l-2 4-5-1-3-2z" fill="#4ABF6F"/>
<path transform="translate(924,769)" d="m0 0h2l-2 4-2 3h-2l-1 4-3 4-2-2 8-11h2z" fill="#51BF6C"/>
<path transform="translate(1430,571)" d="m0 0 14 2v1l-16 1-4-2z" fill="#44BC71"/>
<path transform="translate(1417,641)" d="m0 0h25v3l-4 1v-3h-21z" fill="#3ABA75"/>
<path transform="translate(1540,405)" d="m0 0h2v2h3l3 6 1 5-5-5-4-6z" fill="#35B977"/>
<path transform="translate(919,660)" d="m0 0h11l1 2-8 1v1h-5v-2l-2-1z" fill="#51BF6C"/>
<path transform="translate(524,385)" d="m0 0 1 2-5 6-5-2 1-3 4-1v2h2v-3z" fill="#37BA76"/>
<path transform="translate(1327,571)" d="m0 0h19l3 2-22 1z" fill="#38BB77"/>
<path transform="translate(945,1104)" d="m0 0h8l-4 1-2 6-2 1z" fill="#3AC07A"/>
</svg>
