<svg width="16" height="16" viewBox="0 0 16 16" fill="currentColor" xmlns="http://www.w3.org/2000/svg">
<g id="ChatDots">
<path id="Vector" d="M7.25002 8C7.25002 7.85166 7.294 7.70666 7.37641 7.58332C7.45883 7.45999 7.57596 7.36386 7.713 7.30709C7.85005 7.25032 8.00085 7.23547 8.14633 7.26441C8.29182 7.29335 8.42546 7.36478 8.53035 7.46967C8.63524 7.57456 8.70667 7.7082 8.73561 7.85368C8.76454 7.99917 8.74969 8.14997 8.69293 8.28701C8.63616 8.42406 8.54003 8.54119 8.41669 8.6236C8.29336 8.70601 8.14835 8.75 8.00002 8.75C7.8011 8.75 7.61034 8.67098 7.46969 8.53033C7.32903 8.38968 7.25002 8.19891 7.25002 8ZM5.25002 8.75C5.39835 8.75 5.54336 8.70601 5.66669 8.6236C5.79003 8.54119 5.88616 8.42406 5.94293 8.28701C5.99969 8.14997 6.01454 7.99917 5.98561 7.85368C5.95667 7.7082 5.88524 7.57456 5.78035 7.46967C5.67546 7.36478 5.54182 7.29335 5.39633 7.26441C5.25085 7.23547 5.10005 7.25032 4.963 7.30709C4.82596 7.36386 4.70883 7.45999 4.62641 7.58332C4.544 7.70666 4.50002 7.85166 4.50002 8C4.50002 8.19891 4.57903 8.38968 4.71969 8.53033C4.86034 8.67098 5.0511 8.75 5.25002 8.75ZM10.75 8.75C10.8984 8.75 11.0434 8.70601 11.1667 8.6236C11.29 8.54119 11.3862 8.42406 11.4429 8.28701C11.4997 8.14997 11.5145 7.99917 11.4856 7.85368C11.4567 7.7082 11.3852 7.57456 11.2803 7.46967C11.1755 7.36478 11.0418 7.29335 10.8963 7.26441C10.7508 7.23547 10.6 7.25032 10.463 7.30709C10.326 7.36386 10.2088 7.45999 10.1264 7.58332C10.044 7.70666 10 7.85166 10 8C10 8.19891 10.079 8.38968 10.2197 8.53033C10.3603 8.67098 10.5511 8.75 10.75 8.75ZM14.5 4V12C14.5 12.2652 14.3947 12.5196 14.2071 12.7071C14.0196 12.8946 13.7652 13 13.5 13H5.18752L3.15002 14.76L3.14439 14.7644C2.96441 14.917 2.73598 15.0005 2.50002 15C2.35312 14.9997 2.20807 14.9673 2.07502 14.905C1.90243 14.8252 1.75645 14.6975 1.65449 14.537C1.55253 14.3765 1.49891 14.1901 1.50002 14V4C1.50002 3.73478 1.60537 3.48043 1.79291 3.29289C1.98045 3.10536 2.2348 3 2.50002 3H13.5C13.7652 3 14.0196 3.10536 14.2071 3.29289C14.3947 3.48043 14.5 3.73478 14.5 4ZM13.5 4H2.50002V14L4.67314 12.125C4.76348 12.0453 4.87956 12.0009 5.00002 12H13.5V4Z" fill="currentColor"/>
</g>
</svg>
