<svg width="16" height="16" viewBox="0 0 16 16" fill="none" xmlns="http://www.w3.org/2000/svg">
<path d="M15.25 8C15.25 8.16576 15.1842 8.32473 15.0669 8.44194C14.9497 8.55915 14.7908 8.625 14.625 8.625H8.375V14.875C8.375 15.0408 8.30915 15.1997 8.19194 15.3169C8.07473 15.4342 7.91576 15.5 7.75 15.5C7.58424 15.5 7.42527 15.4342 7.30806 15.3169C7.19085 15.1997 7.125 15.0408 7.125 14.875V8.625H0.875C0.70924 8.625 0.550269 8.55915 0.433058 8.44194C0.315848 8.32473 0.25 8.16576 0.25 8C0.25 7.83424 0.315848 7.67527 0.433058 7.55806C0.550269 7.44085 0.70924 7.375 0.875 7.375H7.125V1.125C7.125 0.95924 7.19085 0.800269 7.30806 0.683058C7.42527 0.565848 7.58424 0.5 7.75 0.5C7.91576 0.5 8.07473 0.565848 8.19194 0.683058C8.30915 0.800269 8.375 0.95924 8.375 1.125V7.375H14.625C14.7908 7.375 14.9497 7.44085 15.0669 7.55806C15.1842 7.67527 15.25 7.83424 15.25 8Z" fill="#F0F0F0"/>
</svg>
