<svg width="24" height="24" viewBox="0 0 24 24" fill="none" xmlns="http://www.w3.org/2000/svg">
<path d="M7.51335 12.2309H6.70613C6.49436 12.2309 6.3032 12.3569 6.21943 12.5511L3.98481 17.7544L9.29176 15.0439C8.65647 14.1649 8.02792 13.1953 7.51335 12.2309Z" fill="#004FFF"/>
<path d="M17.7805 12.5511C17.6968 12.3569 17.5055 12.2309 17.2939 12.2309H16.4867C15.5149 14.0518 14.0992 15.9337 13.1986 16.969C12.5653 17.6955 11.4339 17.6946 10.8015 16.969C10.7369 16.8947 10.3992 16.5037 9.93403 15.9025L8.97726 16.3914L12.5964 20.0035L19.4541 16.4484L17.7805 12.5511Z" fill="#004FFF"/>
<path d="M3.33192 19.275L3.04326 19.9472C2.89384 20.2951 3.14982 20.6836 3.52981 20.6836H11.3011C11.3497 20.6475 11.3503 20.6497 11.6112 20.5144L7.98669 16.8974L3.33192 19.275Z" fill="#004FFF"/>
<path d="M20.9567 19.9472L19.8724 17.4223L13.5816 20.6836H20.4702C20.8494 20.6836 21.1064 20.2958 20.9567 19.9472Z" fill="#004FFF"/>
<path d="M12.5294 7.44109C12.5294 7.14968 12.2918 6.91279 12 6.91279C11.708 6.91279 11.4706 7.14968 11.4706 7.44109C11.4706 7.73237 11.708 7.9694 12 7.9694C12.2918 7.9694 12.5294 7.73237 12.5294 7.44109Z" fill="#004FFF"/>
<path d="M12.3995 16.2405C12.5778 16.0358 16.7645 11.1928 16.7645 7.86366C16.7645 0.998854 7.23553 0.915083 7.23553 7.86366C7.23553 11.1928 11.4223 16.0358 11.6005 16.2405C11.8116 16.4826 12.1889 16.4823 12.3995 16.2405ZM10.4118 7.4411C10.4118 6.56713 11.1243 5.85618 12 5.85618C12.8756 5.85618 13.5881 6.56713 13.5881 7.4411C13.5881 8.31492 12.8756 9.02587 12 9.02587C11.1243 9.02587 10.4118 8.31492 10.4118 7.4411Z" fill="#F6B500"/>
</svg>
