<svg width="25" height="24" viewBox="0 0 25 24" fill="none" xmlns="http://www.w3.org/2000/svg">
<path d="M4.8335 8.4V7.5C4.8335 6.0111 6.01266 4.8 7.4623 4.8H8.33857V3H10.0911V4.8H12.4278V3H14.1804V4.8H16.5171V3H18.2696V4.8H19.1459C20.5955 4.8 21.7747 6.0111 21.7747 7.5V8.4H13.3041H4.8335ZM21.7747 10.2V18.3C21.7747 19.7889 20.5955 21 19.1459 21H7.4623C6.01266 21 4.8335 19.7889 4.8335 18.3V10.2H21.7747ZM10.0911 16.2H8.33857V18H10.0911V16.2ZM10.0911 12.6H8.33857V14.4H10.0911V12.6ZM14.1804 16.2H12.4278V18H14.1804V16.2ZM14.1804 12.6H12.4278V14.4H14.1804V12.6ZM18.2696 16.2H16.5171V18H18.2696V16.2ZM18.2696 12.6H16.5171V14.4H18.2696V12.6Z" fill="#F6B500"/>
<path d="M4.8335 8.4V7.5C4.8335 6.0111 6.01266 4.8 7.4623 4.8H8.33857V3H10.0911V4.8H12.4278V3H14.1804V4.8H16.5171V3H18.2696V4.8H19.1459C20.5955 4.8 21.7747 6.0111 21.7747 7.5V8.4H13.3041H4.8335Z" fill="#0038E0"/>
</svg>
