<svg width="22" height="22" viewBox="0 0 22 22" fill="none" xmlns="http://www.w3.org/2000/svg">
<g clip-path="url(#clip0_684_67672)">
<path d="M19.7368 -0.449219C19.317 -0.449219 18.9783 -0.110548 18.9783 0.314014V10.6894H3.02647V0.314014C3.02647 -0.110548 2.68302 -0.449219 2.26323 -0.449219C1.84345 -0.449219 1.5 -0.110548 1.5 0.314014V11.4526C1.5 11.8724 1.84345 12.2111 2.26323 12.2111H10.282V15.2593H11.8038V12.2111H19.7368C20.1566 12.2111 20.5 11.8724 20.5 11.4526V0.314014C20.5 -0.110548 20.1566 -0.449219 19.7368 -0.449219Z" fill="currentColor"/>
<path d="M11.9753 15.7361H10.0242C9.60929 15.7361 9.27539 16.07 9.27539 16.485V20.2201H12.7243V16.485C12.7243 16.07 12.3903 15.7361 11.9753 15.7361Z" fill="currentColor"/>
<path d="M13.0077 20.6987H8.99279C8.50971 20.6987 8.11816 21.0903 8.11816 21.5733C8.11816 22.0563 8.50971 22.4478 8.99279 22.4478H13.0077C13.4908 22.4478 13.8823 22.0563 13.8823 21.5733C13.8823 21.0903 13.4908 20.6987 13.0077 20.6987Z" fill="currentColor"/>
</g>
<defs>
<clipPath id="clip0_684_67672">
<rect width="22" height="22" fill="currentColor"/>
</clipPath>
</defs>
</svg>
