<svg width="20" height="20" viewBox="0 0 20 20" fill="none" xmlns="http://www.w3.org/2000/svg">
<g clip-path="url(#clip0_684_69305)">
<g clip-path="url(#clip1_684_69305)">
<path d="M17.2808 0.45874C16.931 0.45874 16.6487 0.740966 16.6487 1.09477V9.7409H3.35555V1.09477C3.35555 0.740966 3.06935 0.45874 2.71952 0.45874C2.3697 0.45874 2.0835 0.740966 2.0835 1.09477V10.3769C2.0835 10.7267 2.3697 11.009 2.71952 11.009H9.40186V13.5492H10.67V11.009H17.2808C17.6306 11.009 17.9168 10.7267 17.9168 10.3769V1.09477C17.9168 0.740966 17.6306 0.45874 17.2808 0.45874Z" fill="currentColor"/>
<path d="M10.8129 13.9465H9.18703C8.84124 13.9465 8.56299 14.2248 8.56299 14.5706V17.6832H11.4371V14.5706C11.4371 14.2248 11.1588 13.9465 10.8129 13.9465Z" fill="currentColor"/>
<path d="M11.6732 18.082H8.32749C7.92492 18.082 7.59863 18.4083 7.59863 18.8108C7.59863 19.2133 7.92492 19.5396 8.32749 19.5396H11.6732C12.0758 19.5396 12.4021 19.2133 12.4021 18.8108C12.4021 18.4083 12.0758 18.082 11.6732 18.082Z" fill="currentColor"/>
<path d="M6.42529 6.48094C6.47095 6.51797 6.52283 6.55329 6.57048 6.58988V3.07349C6.52283 3.11007 6.47095 3.14543 6.42529 3.18245C5.71167 3.75523 5.23059 4.36257 5.01926 4.65494C4.94215 4.76126 4.94215 4.90213 5.01926 5.00845C5.23059 5.30082 5.71167 5.90814 6.42529 6.48094Z" fill="currentColor"/>
<path d="M14.7089 5.00873C14.7859 4.90241 14.7859 4.76151 14.7089 4.65522C14.5189 4.3934 14.1135 3.87909 13.5182 3.36213C13.4054 3.26437 13.2838 3.16698 13.1577 3.0708V6.59312C13.2838 6.49694 13.4054 6.39955 13.5182 6.30179C14.1135 5.78482 14.5189 5.27052 14.7089 5.00873Z" fill="currentColor"/>
<path d="M9.8636 7.78867C10.964 7.78867 11.9102 7.41524 12.6717 6.93415C12.7027 6.9144 12.7298 6.89283 12.7603 6.87277V2.79068C12.7298 2.77061 12.7027 2.74904 12.6717 2.72929C11.9102 2.24821 10.964 1.87476 9.8636 1.87476C8.86421 1.87476 7.99371 2.18309 7.27213 2.59905C7.16596 2.66027 7.06774 2.72638 6.96826 2.79167V6.87175C7.06774 6.93704 7.16596 7.00315 7.27213 7.06437C7.99371 7.48033 8.86421 7.78867 9.8636 7.78867ZM7.95392 4.63291H8.22799V4.4029C8.22799 4.29304 8.31689 4.20414 8.42675 4.20414C8.53661 4.20414 8.62551 4.29304 8.62551 4.4029V4.63291H9.18608V4.4029C9.18608 4.29304 9.27498 4.20414 9.38485 4.20414C9.49471 4.20414 9.58361 4.29304 9.58361 4.4029V4.63291H10.1446V4.4029C10.1446 4.29304 10.2335 4.20414 10.3433 4.20414C10.4532 4.20414 10.5421 4.29304 10.5421 4.4029V4.63291H11.1027V4.4029C11.1027 4.29304 11.1916 4.20414 11.3014 4.20414C11.4113 4.20414 11.5002 4.29304 11.5002 4.4029V4.63291H11.7743C11.8841 4.63291 11.973 4.72181 11.973 4.83167C11.973 4.94154 11.8841 5.03044 11.7743 5.03044H11.5002V5.26064C11.5002 5.3705 11.4113 5.4594 11.3014 5.4594C11.1916 5.4594 11.1027 5.3705 11.1027 5.26064V5.03044H10.5421V5.26064C10.5421 5.3705 10.4532 5.4594 10.3433 5.4594C10.2335 5.4594 10.1446 5.3705 10.1446 5.26064V5.03044H9.58361V5.26064C9.58361 5.3705 9.49471 5.4594 9.38485 5.4594C9.27498 5.4594 9.18608 5.3705 9.18608 5.26064V5.03044H8.62551V5.26064C8.62551 5.3705 8.53661 5.4594 8.42675 5.4594C8.31689 5.4594 8.22799 5.3705 8.22799 5.26064V5.03044H7.95392C7.84405 5.03044 7.75516 4.94154 7.75516 4.83167C7.75516 4.72181 7.84405 4.63291 7.95392 4.63291Z" fill="currentColor"/>
</g>
</g>
<defs>
<clipPath id="clip0_684_69305">
<rect width="20" height="20" fill="currentColor"/>
</clipPath>
<clipPath id="clip1_684_69305">
<rect width="18.3333" height="18.3333" fill="currentColor" transform="translate(0.833496 0.833252)"/>
</clipPath>
</defs>
</svg>
