<svg width="235" height="68" viewBox="0 0 235 68" fill="none" xmlns="http://www.w3.org/2000/svg">
<g opacity="0.8">
<path d="M225.887 1.59124C229.909 1.59124 233.183 4.7826 233.183 8.70456V59.5291C233.183 63.4511 229.909 66.6425 225.887 66.6425H8.68796C4.66543 66.6425 1.39225 63.4511 1.39225 59.5291V8.70456C1.39225 4.7826 4.66543 1.59124 8.68796 1.59124H225.887ZM225.887 0.2338H8.68796C3.91175 0.2338 0 4.04776 0 8.70456V59.5291C0 64.1859 3.91175 67.9999 8.68796 67.9999H225.887C230.663 67.9999 234.575 64.1859 234.575 59.5291V8.70456C234.575 4.04776 230.663 0.2338 225.887 0.2338Z" fill="#A6A6A6"/>
<path d="M52.3502 33.7509C52.2998 28.2906 56.9357 25.6342 57.1477 25.5105C54.5222 21.7783 50.4528 21.2684 49.0227 21.2277C45.6049 20.877 42.2896 23.2217 40.5485 23.2217C38.7727 23.2217 36.0916 21.2616 33.202 21.3192C29.4835 21.3751 26.0049 23.4742 24.097 26.7337C20.1596 33.3799 23.0961 43.1467 26.8684 48.5188C28.7555 51.1498 30.9605 54.0875 33.8466 53.9841C36.6702 53.8706 37.7249 52.229 41.1323 52.229C44.5085 52.229 45.4989 53.9841 48.4424 53.9181C51.4728 53.8706 53.3806 51.2752 55.2016 48.6205C57.3823 45.6049 58.2581 42.635 58.2928 42.4826C58.2216 42.4588 52.4076 40.2954 52.3502 33.7509Z" fill="white"/>
<path d="M46.7899 17.6937C48.3086 15.842 49.3477 13.3228 49.0592 10.7663C46.8612 10.8612 44.1123 12.2487 42.5294 14.0598C41.1289 15.6557 39.8778 18.2714 40.201 20.7313C42.6701 20.9109 45.2053 19.5166 46.7899 17.6937Z" fill="white"/>
<path d="M85.2288 17.1906C85.2288 19.1846 84.6155 20.6856 83.3904 21.6936C82.2558 22.6237 80.6433 23.0896 78.5547 23.0896C77.5191 23.0896 76.6329 23.0456 75.891 22.9575V12.0624C76.8588 11.9099 77.9014 11.832 79.0273 11.832C81.0169 11.832 82.5164 12.2538 83.5277 13.0975C84.6606 14.0513 85.2288 15.4151 85.2288 17.1906ZM83.3088 17.2397C83.3088 15.9471 82.9578 14.956 82.2558 14.2648C81.5538 13.5752 80.5286 13.2296 79.1785 13.2296C78.6051 13.2296 78.1168 13.2669 77.712 13.3448V21.6276C77.9361 21.6614 78.3462 21.6767 78.9422 21.6767C80.3358 21.6767 81.4113 21.2989 82.1689 20.5433C82.9265 19.7877 83.3088 18.6865 83.3088 17.2397Z" fill="white"/>
<path d="M95.4093 18.9322C95.4093 20.1604 95.0496 21.1667 94.3303 21.9562C93.5761 22.7677 92.577 23.1726 91.3294 23.1726C90.127 23.1726 89.1696 22.7847 88.4555 22.0053C87.7431 21.2277 87.3868 20.2468 87.3868 19.0643C87.3868 17.8276 87.7535 16.8128 88.4902 16.025C89.2269 15.2372 90.2174 14.8425 91.465 14.8425C92.6674 14.8425 93.6335 15.2304 94.365 16.008C95.0601 16.7636 95.4093 17.7395 95.4093 18.9322ZM93.5205 18.9898C93.5205 18.2528 93.3572 17.6209 93.0323 17.094C92.65 16.457 92.1061 16.1385 91.3989 16.1385C90.6674 16.1385 90.1114 16.457 89.7291 17.094C89.4024 17.6209 89.2409 18.263 89.2409 19.0219C89.2409 19.7589 89.4042 20.3908 89.7291 20.9177C90.1235 21.5547 90.6726 21.8732 91.3816 21.8732C92.0766 21.8732 92.6222 21.5496 93.0149 20.9008C93.352 20.3637 93.5205 19.7267 93.5205 18.9898Z" fill="white"/>
<path d="M109.06 15.0051L106.497 22.9913H104.829L103.767 19.5234C103.498 18.6577 103.279 17.7971 103.109 16.9432H103.076C102.917 17.8208 102.699 18.6797 102.417 19.5234L101.289 22.9913H99.6022L97.1921 15.0051H99.0635L99.9897 18.8017C100.214 19.6996 100.398 20.5551 100.546 21.365H100.579C100.714 20.6975 100.938 19.847 101.255 18.8186L102.417 15.0068H103.901L105.015 18.7373C105.284 19.6471 105.503 20.523 105.672 21.3666H105.722C105.845 20.545 106.031 19.6691 106.278 18.7373L107.272 15.0068H109.06V15.0051Z" fill="white"/>
<path d="M118.5 22.9914H116.679V18.4171C116.679 17.0076 116.13 16.3028 115.028 16.3028C114.488 16.3028 114.052 16.496 113.713 16.8839C113.378 17.2719 113.207 17.7293 113.207 18.2528V22.9897H111.386V17.2871C111.386 16.5858 111.364 15.8251 111.32 15.0017H112.921L113.006 16.2503H113.056C113.268 15.8624 113.585 15.5422 114 15.2863C114.493 14.9882 115.046 14.8374 115.65 14.8374C116.415 14.8374 117.051 15.078 117.557 15.5608C118.186 16.1521 118.5 17.0347 118.5 18.2071V22.9914Z" fill="white"/>
<path d="M123.522 22.9913H121.703V11.3407H123.522V22.9913Z" fill="white"/>
<path d="M134.243 18.9322C134.243 20.1604 133.883 21.1667 133.164 21.9562C132.41 22.7677 131.409 23.1726 130.163 23.1726C128.959 23.1726 128.001 22.7847 127.289 22.0053C126.577 21.2277 126.22 20.2468 126.22 19.0643C126.22 17.8276 126.587 16.8128 127.324 16.025C128.06 15.2372 129.051 14.8425 130.297 14.8425C131.501 14.8425 132.465 15.2304 133.199 16.008C133.894 16.7636 134.243 17.7395 134.243 18.9322ZM132.352 18.9898C132.352 18.2528 132.189 17.6209 131.864 17.094C131.484 16.457 130.938 16.1385 130.232 16.1385C129.499 16.1385 128.943 16.457 128.563 17.094C128.236 17.6209 128.074 18.263 128.074 19.0219C128.074 19.7589 128.238 20.3908 128.563 20.9177C128.957 21.5547 129.506 21.8732 130.215 21.8732C130.91 21.8732 131.454 21.5496 131.847 20.9008C132.185 20.3637 132.352 19.7267 132.352 18.9898Z" fill="white"/>
<path d="M143.056 22.9913H141.421L141.285 22.0714H141.235C140.675 22.805 139.878 23.1726 138.842 23.1726C138.069 23.1726 137.443 22.9304 136.973 22.4492C136.545 22.0121 136.331 21.4683 136.331 20.8228C136.331 19.847 136.748 19.1033 137.588 18.5882C138.425 18.0732 139.603 17.8208 141.12 17.8326V17.6836C141.12 16.6315 140.554 16.1063 139.419 16.1063C138.611 16.1063 137.899 16.3045 137.284 16.6976L136.914 15.532C137.675 15.0729 138.615 14.8425 139.723 14.8425C141.864 14.8425 142.938 15.9437 142.938 18.1461V21.0871C142.938 21.8851 142.978 22.5204 143.056 22.9913ZM141.165 20.2468V19.0152C139.157 18.9813 138.152 19.5183 138.152 20.6246C138.152 21.0414 138.267 21.3531 138.502 21.5615C138.736 21.7699 139.035 21.8732 139.391 21.8732C139.791 21.8732 140.165 21.7495 140.505 21.5039C140.847 21.2565 141.058 20.9431 141.136 20.5585C141.155 20.4721 141.165 20.3671 141.165 20.2468Z" fill="white"/>
<path d="M153.403 22.9913H151.787L151.702 21.7089H151.652C151.136 22.6847 150.256 23.1726 149.021 23.1726C148.034 23.1726 147.212 22.7948 146.561 22.0392C145.909 21.2836 145.584 20.3027 145.584 19.0982C145.584 17.8055 145.937 16.7586 146.646 15.9589C147.332 15.2135 148.173 14.8408 149.174 14.8408C150.274 14.8408 151.044 15.2016 151.481 15.925H151.516V11.3407H153.339V20.8398C153.339 21.6174 153.36 22.334 153.403 22.9913ZM151.516 19.6234V18.2918C151.516 18.0614 151.499 17.875 151.466 17.7327C151.363 17.3058 151.143 16.9466 150.807 16.6569C150.468 16.3672 150.06 16.2215 149.589 16.2215C148.91 16.2215 148.378 16.4841 147.987 17.011C147.6 17.5379 147.403 18.2104 147.403 19.0321C147.403 19.8216 147.589 20.462 147.963 20.955C148.357 21.4802 148.889 21.7427 149.554 21.7427C150.152 21.7427 150.63 21.5242 150.993 21.0854C151.344 20.6805 151.516 20.1926 151.516 19.6234Z" fill="white"/>
<path d="M168.977 18.9322C168.977 20.1604 168.618 21.1667 167.898 21.9562C167.144 22.7677 166.147 23.1726 164.897 23.1726C163.697 23.1726 162.739 22.7847 162.023 22.0053C161.311 21.2277 160.955 20.2468 160.955 19.0643C160.955 17.8276 161.321 16.8128 162.058 16.025C162.795 15.2372 163.785 14.8425 165.035 14.8425C166.235 14.8425 167.203 15.2304 167.933 16.008C168.628 16.7636 168.977 17.7395 168.977 18.9322ZM167.09 18.9898C167.09 18.2528 166.927 17.6209 166.602 17.094C166.218 16.457 165.676 16.1385 164.967 16.1385C164.237 16.1385 163.681 16.457 163.297 17.094C162.97 17.6209 162.809 18.263 162.809 19.0219C162.809 19.7589 162.972 20.3908 163.297 20.9177C163.692 21.5547 164.241 21.8732 164.95 21.8732C165.645 21.8732 166.192 21.5496 166.585 20.9008C166.92 20.3637 167.09 19.7267 167.09 18.9898Z" fill="white"/>
<path d="M178.769 22.9914H176.949V18.4171C176.949 17.0076 176.4 16.3028 175.297 16.3028C174.757 16.3028 174.32 16.496 173.983 16.8839C173.646 17.2719 173.478 17.7293 173.478 18.2528V22.9897H171.655V17.2871C171.655 16.5858 171.634 15.8251 171.591 15.0017H173.189L173.274 16.2503H173.325C173.539 15.8624 173.855 15.5422 174.268 15.2863C174.764 14.9882 175.314 14.8374 175.921 14.8374C176.684 14.8374 177.32 15.078 177.825 15.5608C178.456 16.1521 178.769 17.0347 178.769 18.2071V22.9914Z" fill="white"/>
<path d="M191.024 16.335H189.019V20.2146C189.019 21.2006 189.375 21.6936 190.08 21.6936C190.407 21.6936 190.678 21.6665 190.892 21.6106L190.939 22.9575C190.579 23.0896 190.106 23.1557 189.524 23.1557C188.805 23.1557 188.245 22.9422 187.841 22.5153C187.434 22.0884 187.232 21.37 187.232 20.362V16.335H186.035V15.0051H187.232V13.5414L189.017 13.0162V15.0034H191.022V16.335H191.024Z" fill="white"/>
<path d="M200.664 22.9913H198.841V18.451C198.841 17.0195 198.292 16.3028 197.192 16.3028C196.348 16.3028 195.771 16.7179 195.455 17.548C195.401 17.7225 195.37 17.936 195.37 18.1867V22.9896H193.55V11.3407H195.37V16.1537H195.404C195.978 15.2779 196.8 14.8408 197.865 14.8408C198.619 14.8408 199.243 15.0813 199.738 15.5642C200.355 16.1656 200.664 17.0601 200.664 18.2426V22.9913Z" fill="white"/>
<path d="M210.608 18.6204C210.608 18.9389 210.584 19.2066 210.54 19.4251H205.079C205.103 20.2146 205.364 20.816 205.87 21.2328C206.332 21.6055 206.928 21.7919 207.658 21.7919C208.466 21.7919 209.202 21.6665 209.866 21.4141L210.151 22.6474C209.374 22.9761 208.461 23.1404 207.402 23.1404C206.134 23.1404 205.135 22.7762 204.412 22.0477C203.686 21.3192 203.326 20.3417 203.326 19.1151C203.326 17.9106 203.661 16.9076 204.337 16.108C205.043 15.2541 205.997 14.8272 207.201 14.8272C208.379 14.8272 209.274 15.2541 209.878 16.108C210.367 16.7857 210.608 17.6243 210.608 18.6204ZM208.871 18.1613C208.884 17.6344 208.765 17.1804 208.518 16.7975C208.202 16.3045 207.72 16.0572 207.069 16.0572C206.474 16.0572 205.99 16.2977 205.62 16.7806C205.317 17.1651 205.138 17.6243 205.079 18.1613H208.871Z" fill="white"/>
<path d="M93.2131 53.6063H89.2671L87.1055 46.9839H79.5921L77.5331 53.6063H73.6913L81.1351 31.0606H85.7328L93.2131 53.6063ZM86.4539 44.2055L84.4991 38.3183C84.2923 37.7169 83.9048 36.3006 83.3332 34.0711H83.2637C83.036 35.03 82.6694 36.4463 82.1655 38.3183L80.2455 44.2055H86.4539Z" fill="white"/>
<path d="M112.356 45.2779C112.356 48.0428 111.59 50.2282 110.057 51.8326C108.685 53.2608 106.98 53.974 104.945 53.974C102.749 53.974 101.171 53.2049 100.21 51.6666H100.141V60.2305H96.4363V42.7011C96.4363 40.9629 96.3894 39.179 96.2991 37.3493H99.5571L99.7638 39.9261H99.8333C101.069 37.9846 102.944 37.0155 105.46 37.0155C107.427 37.0155 109.069 37.7728 110.382 39.2891C111.699 40.8071 112.356 42.8028 112.356 45.2779ZM108.582 45.4101C108.582 43.8277 108.217 42.5232 107.484 41.4966C106.683 40.4259 105.607 39.8905 104.259 39.8905C103.345 39.8905 102.514 40.1887 101.772 40.7766C101.029 41.3695 100.542 42.1437 100.315 43.1026C100.2 43.5499 100.143 43.9158 100.143 44.2038V46.9145C100.143 48.097 100.514 49.0948 101.258 49.9097C102.002 50.7246 102.968 51.1312 104.156 51.1312C105.552 51.1312 106.638 50.606 107.414 49.559C108.193 48.5104 108.582 47.1279 108.582 45.4101Z" fill="white"/>
<path d="M131.534 45.2779C131.534 48.0428 130.768 50.2282 129.233 51.8326C127.862 53.2608 126.158 53.974 124.123 53.974C121.927 53.974 120.349 53.2049 119.39 51.6666H119.32V60.2305H115.616V42.7011C115.616 40.9629 115.569 39.179 115.479 37.3493H118.737L118.943 39.9261H119.013C120.246 37.9846 122.121 37.0155 124.639 37.0155C126.604 37.0155 128.246 37.7728 129.563 39.2891C130.875 40.8071 131.534 42.8028 131.534 45.2779ZM127.76 45.4101C127.76 43.8277 127.393 42.5232 126.66 41.4966C125.859 40.4259 124.787 39.8905 123.437 39.8905C122.521 39.8905 121.692 40.1887 120.948 40.7766C120.205 41.3695 119.72 42.1437 119.492 43.1026C119.379 43.5499 119.32 43.9158 119.32 44.2038V46.9145C119.32 48.097 119.692 49.0948 120.432 49.9097C121.176 50.7229 122.142 51.1312 123.334 51.1312C124.729 51.1312 125.815 50.606 126.592 49.559C127.371 48.5104 127.76 47.1279 127.76 45.4101Z" fill="white"/>
<path d="M152.976 47.2838C152.976 49.2016 152.293 50.7619 150.922 51.9664C149.415 53.2828 147.318 53.9401 144.623 53.9401C142.135 53.9401 140.14 53.4725 138.63 52.5357L139.489 49.5252C141.115 50.484 142.9 50.9652 144.844 50.9652C146.239 50.9652 147.325 50.6568 148.105 50.0436C148.882 49.4303 149.27 48.6069 149.27 47.5803C149.27 46.6654 148.95 45.8946 148.309 45.2694C147.671 44.6443 146.606 44.0632 145.118 43.5262C141.07 42.0539 139.047 39.8973 139.047 37.0613C139.047 35.2079 139.756 33.6882 141.176 32.5057C142.59 31.3215 144.477 30.7302 146.837 30.7302C148.941 30.7302 150.689 31.0877 152.084 31.8009L151.158 34.7454C149.855 34.0542 148.382 33.7085 146.733 33.7085C145.429 33.7085 144.411 34.022 143.681 34.6454C143.065 35.2028 142.755 35.8821 142.755 36.6869C142.755 37.578 143.108 38.3149 143.817 38.8943C144.434 39.4297 145.555 40.0091 147.181 40.6342C149.17 41.4152 150.632 42.3284 151.572 43.3754C152.508 44.419 152.976 45.7252 152.976 47.2838Z" fill="white"/>
<path d="M165.224 40.0599H161.141V47.953C161.141 49.9605 161.86 50.9635 163.302 50.9635C163.964 50.9635 164.513 50.9076 164.948 50.7957L165.05 53.5386C164.321 53.8046 163.36 53.9384 162.169 53.9384C160.706 53.9384 159.563 53.503 158.738 52.6339C157.916 51.7631 157.502 50.3027 157.502 48.2511V40.0565H155.07V37.3459H157.502V34.3692L161.141 33.2985V37.3459H165.224V40.0599Z" fill="white"/>
<path d="M183.648 45.344C183.648 47.8429 182.915 49.8945 181.451 51.4988C179.917 53.1506 177.881 53.974 175.342 53.974C172.896 53.974 170.948 53.1828 169.495 51.6005C168.042 50.0181 167.316 48.0207 167.316 45.6133C167.316 43.0941 168.063 41.0307 169.563 39.4263C171.059 37.8202 173.078 37.0172 175.617 37.0172C178.063 37.0172 180.032 37.8084 181.517 39.3924C182.939 40.929 183.648 42.9129 183.648 45.344ZM179.804 45.4609C179.804 43.9615 179.476 42.6757 178.81 41.6033C178.034 40.3056 176.923 39.6584 175.485 39.6584C173.995 39.6584 172.864 40.3073 172.088 41.6033C171.422 42.6774 171.094 43.9836 171.094 45.5286C171.094 47.028 171.422 48.3138 172.088 49.3845C172.889 50.6823 174.008 51.3294 175.452 51.3294C176.866 51.3294 177.976 50.6687 178.777 49.3506C179.46 48.2579 179.804 46.9585 179.804 45.4609Z" fill="white"/>
<path d="M195.689 40.5258C195.323 40.4598 194.932 40.4259 194.522 40.4259C193.218 40.4259 192.211 40.9053 191.502 41.8659C190.885 42.713 190.576 43.7837 190.576 45.0763V53.6064H186.873L186.907 42.469C186.907 40.5953 186.861 38.8893 186.768 37.351H189.995L190.131 40.4614H190.233C190.624 39.3924 191.241 38.5318 192.085 37.8863C192.911 37.3052 193.802 37.0155 194.763 37.0155C195.105 37.0155 195.415 37.0393 195.689 37.0816V40.5258Z" fill="white"/>
<path d="M212.257 44.7087C212.257 45.3558 212.214 45.9013 212.122 46.3469H201.008C201.051 47.953 201.588 49.1812 202.62 50.0283C203.557 50.7856 204.768 51.1651 206.256 51.1651C207.901 51.1651 209.402 50.9093 210.752 50.3959L211.333 52.9033C209.755 53.5742 207.892 53.9079 205.743 53.9079C203.157 53.9079 201.128 53.1659 199.651 51.6835C198.177 50.2011 197.439 48.2105 197.439 45.7133C197.439 43.2619 198.125 41.2204 199.5 39.5923C200.938 37.8541 202.883 36.985 205.329 36.985C207.732 36.985 209.552 37.8541 210.787 39.5923C211.765 40.9731 212.257 42.6808 212.257 44.7087ZM208.725 43.7718C208.749 42.7011 208.507 41.7761 208.005 40.9951C207.364 39.9904 206.379 39.489 205.053 39.489C203.842 39.489 202.857 39.9786 202.104 40.9612C201.488 41.7422 201.121 42.6791 201.008 43.7701H208.725V43.7718Z" fill="white"/>
</g>
</svg>
