<svg width="20" height="20" viewBox="0 0 20 20" fill="none" xmlns="http://www.w3.org/2000/svg">
<path fill-rule="evenodd" clip-rule="evenodd" d="M16.1449 12.2667C16.1449 12.2667 18.2032 14.37 18.2032 16.4583C18.2032 17.8383 17.0824 18.9583 15.7032 18.9583C14.3232 18.9583 13.2032 17.8383 13.2032 16.4583C13.2032 14.37 15.2607 12.2667 15.2607 12.2667C15.5049 12.0225 15.9007 12.0225 16.1449 12.2667Z" fill="#2187E5"/>
<path fill-rule="evenodd" clip-rule="evenodd" d="M15.3791 10.7783L10.6649 15.4925C10.0791 16.0783 9.28409 16.4075 8.45576 16.4075C7.62659 16.4075 6.83159 16.0783 6.24576 15.4925L2.71076 11.9575C2.12492 11.3708 1.79492 10.5758 1.79492 9.7475C1.79492 8.91834 2.12492 8.12334 2.71076 7.53751L8.01326 2.235C8.25742 1.99084 8.65326 1.99084 8.89742 2.235L15.3791 8.71584C15.9483 9.28584 15.9483 10.2092 15.3791 10.7783ZM14.4949 9.895C14.5766 9.81334 14.5766 9.68167 14.4949 9.60001L8.45576 3.56084L3.59492 8.42167C3.24326 8.77334 3.04492 9.25 3.04492 9.7475C3.04492 10.245 3.24326 10.7217 3.59492 11.0733L7.12992 14.6083C7.48159 14.96 7.95826 15.1575 8.45576 15.1575C8.95242 15.1575 9.42992 14.96 9.78159 14.6083L14.4949 9.895Z" fill="#2187E5"/>
<path fill-rule="evenodd" clip-rule="evenodd" d="M9.90742 3.245C10.1516 3.48916 10.1516 3.88499 9.90742 4.12916C9.66325 4.37249 9.26742 4.37249 9.02325 4.12916L7.00325 2.10833C6.75909 1.865 6.75909 1.46833 7.00325 1.225C7.24742 0.980828 7.64325 0.980828 7.88742 1.225L9.90742 3.245Z" fill="#2187E5"/>
<path fill-rule="evenodd" clip-rule="evenodd" d="M2.41992 9.1225H15.1808C15.5258 9.1225 15.8058 9.4025 15.8058 9.7475C15.8058 10.1208 15.6633 10.4942 15.3791 10.7783L10.6649 15.4925C10.0791 16.0783 9.28409 16.4075 8.45576 16.4075C7.62659 16.4075 6.83159 16.0783 6.24575 15.4925L2.71076 11.9575C2.12492 11.3708 1.79492 10.5758 1.79492 9.7475C1.79492 9.4025 2.07492 9.1225 2.41992 9.1225Z" fill="#2187E5"/>
</svg>
