<svg width="12" height="12" viewBox="0 0 12 12" fill="none" xmlns="http://www.w3.org/2000/svg">
<path d="M10.148 4.89793L6.39798 8.64793C6.34572 8.70037 6.28363 8.74198 6.21525 8.77037C6.14688 8.79876 6.07357 8.81337 5.99954 8.81337C5.92551 8.81337 5.8522 8.79876 5.78383 8.77037C5.71546 8.74198 5.65336 8.70037 5.6011 8.64793L1.8511 4.89793C1.74543 4.79226 1.68607 4.64893 1.68607 4.49949C1.68607 4.35005 1.74543 4.20673 1.8511 4.10105C1.95678 3.99538 2.1001 3.93602 2.24954 3.93602C2.39898 3.93602 2.54231 3.99538 2.64798 4.10105L6.00001 7.45308L9.35204 4.10059C9.45771 3.99491 9.60104 3.93555 9.75048 3.93555C9.89992 3.93555 10.0432 3.99491 10.1489 4.10059C10.2546 4.20626 10.314 4.34958 10.314 4.49902C10.314 4.64847 10.2546 4.79179 10.1489 4.89746L10.148 4.89793Z" fill="#8D8E92"/>
</svg>
