<svg width="16" height="16" viewBox="0 0 16 16" fill="currentColor" class="sc-bYMpWt gILbRJ"><path d="m4.468 7.865-1.761.347L2 7.505l1.054-1.054 1.414 1.414zm2.121 2.121-1.761.347-.707-.707 1.054-1.054 1.414 1.414zm2.122 2.121-1.761.347-.708-.707 1.055-1.054 1.414 1.414zm2.121 2.122-1.76.347-.708-.707 1.054-1.054 1.414 1.414zm.529-9.56.037.113.849 3.23c.052.196.11.391.173.584l.101.289.861 2.369a2.62 2.62 0 0 1-1.329 3.258l-.16.071-8.926-8.926a.5.5 0 0 1-.118-.521l.035-.076 1.307-2.352c.151-.272.363-.505.618-.679l.159-.099 1.572-.873a.452.452 0 0 1 .662.484l-.024.078-.226.566c-.134.334-.076.711.142.99l.08.088.622.623c.177.177.413.28.66.292l.124-.001 1.774-.137c.441-.034.847.226 1.007.629zm-.441 1.696H4.738l.999 1h5.46l-.277-1zm.559 2.001-4.742-.001 1 1h4.107l-.251-.668-.06-.165-.054-.166z" fill="currentColor" fill-rule="evenodd"></path></svg>