<svg width="25" height="16" viewBox="0 0 25 16" fill="none" xmlns="http://www.w3.org/2000/svg">
<rect width="1.42857" height="9.28897" rx="0.714286" fill="#2187E5"/>
<rect x="2.14282" y="2.88281" width="1.42857" height="6.40618" rx="0.714286" fill="#2187E5"/>
<rect x="8.57141" y="1.28125" width="1.42857" height="8.00773" rx="0.714286" fill="#2187E5"/>
<rect x="6.42859" y="1.92188" width="1.42857" height="7.36711" rx="0.714286" fill="#2187E5"/>
<rect x="4.28577" y="4.48438" width="1.42857" height="4.80464" rx="0.714286" fill="#2187E5"/>
<rect x="10.7142" y="2.5625" width="1.42857" height="6.72649" rx="0.714286" fill="#2187E5"/>
<rect width="1.42857" height="8.00773" rx="0.714286" transform="matrix(1 0 0 -1 17.1428 12.7969)" fill="#F6B500"/>
<rect width="1.42857" height="11.2108" rx="0.714286" transform="matrix(1 0 0 -1 15 16)" fill="#F6B500"/>
<rect width="1.42857" height="11.2108" rx="0.714286" transform="matrix(1 0 0 -1 21.4286 16)" fill="#F6B500"/>
<rect width="1.42857" height="10.2499" rx="0.714286" transform="matrix(1 0 0 -1 12.8573 15.0391)" fill="#F6B500"/>
<rect width="1.42857" height="6.72649" rx="0.714286" transform="matrix(1 0 0 -1 23.5714 11.5156)" fill="#F6B500"/>
<rect width="1.42857" height="6.72649" rx="0.714286" transform="matrix(1 0 0 -1 19.2858 11.5156)" fill="#F6B500"/>
</svg>
