<svg width="24" height="25" viewBox="0 0 24 25" fill="none" xmlns="http://www.w3.org/2000/svg">
<path d="M2.59908 18.2328H18.2791C18.4198 18.2328 18.5557 18.1836 18.6635 18.094C18.8141 17.9678 22.2496 15.0124 22.4591 8.63281H5.61901C5.41033 14.4238 2.2464 17.1457 2.21352 17.1729C2.02076 17.3358 1.94984 17.6018 2.03656 17.8385C2.12268 18.0746 2.34712 18.2328 2.59908 18.2328Z" fill="#0038E0"/>
<path d="M21.8789 5.03203H18.8789V4.43203C18.8789 4.09603 18.6149 3.83203 18.2789 3.83203C17.9429 3.83203 17.6789 4.09603 17.6789 4.43203V5.03203H14.6389V4.43203C14.6389 4.09603 14.3749 3.83203 14.0389 3.83203C13.7029 3.83203 13.4389 4.09603 13.4389 4.43203V5.03203H10.4389V4.43203C10.4389 4.09603 10.1749 3.83203 9.83887 3.83203C9.50287 3.83203 9.23887 4.09603 9.23887 4.43203V5.03203H6.23886C5.90286 5.03203 5.63885 5.29604 5.63885 5.63204V7.43204H22.4789V5.63204C22.4789 5.29604 22.2149 5.03203 21.8789 5.03203Z" fill="#F6B500"/>
<path d="M19.4338 19.0128C19.108 19.284 18.699 19.4317 18.2789 19.4317H5.63885V21.2317C5.63885 21.5634 5.90722 21.8317 6.23886 21.8317H21.8789C22.2105 21.8317 22.4789 21.5634 22.4789 21.2317V14.5059C21.3221 17.3439 19.7079 18.7834 19.4338 19.0128Z" fill="#0038E0"/>
</svg>
