<svg width="25" height="25" viewBox="0 0 25 25" fill="none" xmlns="http://www.w3.org/2000/svg">
<path d="M7.00999 11.4217C6.5975 11.9242 6.27501 12.4792 6.05002 13.0792C5.63002 12.7867 5.12749 12.6067 4.58 12.6067C3.15498 12.6067 2 13.7692 2 15.1867C2 16.6117 3.15498 17.7667 4.58 17.7667C5.11998 17.7667 5.63002 17.5942 6.04251 17.3017C6.75502 19.1767 8.40498 20.6092 10.4 20.9992C10.79 21.0742 11.18 21.1117 11.57 21.1117C12.9425 21.1117 14.2775 20.6392 15.35 19.7617C16.52 18.7942 17.27 17.4292 17.4575 15.9367H23V9.26172H11.5775C9.80748 9.26172 8.13499 10.0492 7.00999 11.4217ZM14.7425 15.1867C14.7425 16.9342 13.325 18.3517 11.5775 18.3517C9.83751 18.3517 8.42 16.9342 8.42 15.1867C8.42 13.4467 9.83751 12.0292 11.5775 12.0292C13.325 12.0292 14.7425 13.4467 14.7425 15.1867Z" fill="#0038E0"/>
<path d="M9.91998 15.1868C9.91998 16.1018 10.6625 16.8518 11.5775 16.8518C12.5 16.8518 13.2425 16.1018 13.2425 15.1868C13.2425 14.2718 12.5 13.5293 11.5775 13.5293C10.6625 13.5293 9.91998 14.2718 9.91998 15.1868Z" fill="#F6B500"/>
<path d="M11.75 4.51172H13.25V8.03972H11.75V4.51172Z" fill="#F6B500"/>
<path d="M6.05194 5.05273L7.29979 4.22034L9.48441 7.49531L8.23657 8.3277L6.05194 5.05273Z" fill="#F6B500"/>
<path d="M15.5206 7.5L17.7053 4.22503L18.9531 5.05743L16.7685 8.3324L15.5206 7.5Z" fill="#F6B500"/>
</svg>
