<svg width="25" height="25" viewBox="0 0 25 25" fill="none" xmlns="http://www.w3.org/2000/svg">
<g clip-path="url(#clip0_1_335550)">
<path d="M13.2856 6.79263C14.1946 6.45939 14.6611 5.45177 14.327 4.54328C13.993 3.63451 12.986 3.16904 12.0766 3.50229C11.1683 3.83641 10.7026 4.84363 11.0367 5.75168C11.3698 6.66085 12.3776 7.12671 13.2856 6.79263Z" fill="#F6B500"/>
<path d="M21.2606 5.51203C20.9539 5.05011 20.329 4.92586 19.8694 5.2316L17.2762 6.95479L14.2062 7.29713C14.0744 7.31161 13.6596 7.45039 13.5694 7.48372L12.9632 7.70608C12.8222 7.75778 12.5908 7.87543 12.3383 8.11071L10.1074 10.1711L8.28345 8.66583C8.22616 8.61884 8.15881 8.59761 8.09515 8.5651L7.07738 5.44143C7.74077 4.84656 7.98076 3.65934 7.59027 2.46154C7.10799 0.981894 5.8597 0.0616487 4.80335 0.406316C3.74558 0.751663 3.27978 2.2299 3.76201 3.70915C4.1525 4.90696 5.04485 5.72487 5.93254 5.81467L6.89783 8.77842C6.88996 8.78746 6.8782 8.79135 6.87047 8.80082C6.51755 9.22853 6.5779 9.86097 7.00527 10.2138L7.49853 10.6209L7.65539 11.1023C7.73766 11.3564 7.97382 11.518 8.22776 11.518C8.28967 11.518 8.35245 11.5085 8.41436 11.4881C8.44502 11.4783 8.46688 11.4572 8.49434 11.443L9.50511 12.2774C9.89026 12.5953 10.4556 12.5824 10.8249 12.2409L12.4646 10.7263L13.7435 14.2083L13.2605 18.4032L11.3275 22.6279C11.0507 23.2329 11.3173 23.9476 11.9219 24.2245C12.5288 24.5017 13.2424 24.2342 13.5184 23.63L15.5305 19.2317C15.5831 19.1168 15.6168 18.994 15.6317 18.8683L15.9987 15.6787L17.5105 17.9543L17.5034 23.0894C17.5027 23.7543 18.0406 24.2946 18.7064 24.2954C18.7072 24.2954 18.7072 24.2954 18.708 24.2954C19.3721 24.2954 19.9117 23.7571 19.9123 23.0926L19.9203 17.5933C19.9203 17.3557 19.8505 17.1231 19.7187 16.9252L17.3145 13.3063L15.7845 9.14082L17.7404 8.92279C17.8986 8.90515 18.0517 8.8499 18.1842 8.76122L20.9797 6.90362C21.4416 6.59681 21.5672 5.97385 21.2606 5.51203Z" fill="#0038E0"/>
</g>
<defs>
<clipPath id="clip0_1_335550">
<rect width="24" height="24" fill="white" transform="translate(0.5 0.333984)"/>
</clipPath>
</defs>
</svg>
