<svg width="17" height="16" viewBox="0 0 17 16" fill="none" xmlns="http://www.w3.org/2000/svg">
<path d="M8.33545 11.3852C9.27495 11.3852 10.0366 10.6196 10.0366 9.67526C10.0366 8.73089 9.27495 7.96533 8.33545 7.96533C7.39595 7.96533 6.63434 8.73089 6.63434 9.67526C6.63434 10.6196 7.39595 11.3852 8.33545 11.3852Z" fill="#F6B500"/>
<path d="M12.0779 9.33363H11.7203C11.5604 7.72048 10.2805 6.43392 8.6757 6.27319V5.91376C8.6757 5.72499 8.52362 5.57178 8.33547 5.57178C8.14733 5.57178 7.99525 5.72499 7.99525 5.91376V6.27319C6.39042 6.43392 5.11051 7.72048 4.9506 9.33363H4.59303C4.40489 9.33363 4.25281 9.48684 4.25281 9.67561C4.25281 9.86439 4.40489 10.0176 4.59303 10.0176H4.9506C5.11085 11.6307 6.39042 12.9173 7.99525 13.078V13.4375C7.99525 13.6262 8.14733 13.7794 8.33547 13.7794C8.52362 13.7794 8.6757 13.6262 8.6757 13.4375V13.078C10.2805 12.917 11.5604 11.6307 11.7203 10.0176H12.0779C12.2661 10.0176 12.4181 9.86439 12.4181 9.67561C12.4181 9.48684 12.2661 9.33363 12.0779 9.33363ZM8.67093 12.3886C8.65868 12.2111 8.51545 12.0695 8.33547 12.0695C8.1555 12.0695 8.01226 12.2111 8.00001 12.3886C6.76773 12.2354 5.78925 11.2518 5.63683 10.0132C5.81341 10.0005 5.95392 9.85618 5.95392 9.67561C5.95392 9.49504 5.81341 9.35072 5.63649 9.33841C5.78891 8.09974 6.76739 7.11619 7.99967 6.96298C8.01226 7.14013 8.1555 7.28171 8.33547 7.28171C8.51545 7.28171 8.65868 7.14013 8.67093 6.96264C9.90322 7.11584 10.8817 8.0994 11.0341 9.33807C10.8575 9.35072 10.717 9.49504 10.717 9.67561C10.717 9.85618 10.8575 10.0005 11.0345 10.0128C10.8817 11.2518 9.90356 12.235 8.67093 12.3886Z" fill="#0038E0"/>
<path d="M16.2087 10.8159V4.71149C16.2087 3.71571 15.2293 2.83703 13.925 2.83703H3.07496C1.77064 2.83703 0.79126 3.71571 0.79126 4.71149V10.8159H2.23972V4.99857C2.23972 4.39148 2.81001 3.97078 3.41734 3.97078H13.5826C14.1899 3.97078 14.7602 4.39149 14.7602 4.99857V10.8159H16.2087Z" fill="#0038E0" stroke="#030D2B" stroke-width="0.5" stroke-miterlimit="10"/>
</svg>
