<svg width="12" height="12" viewBox="0 0 12 12" fill="none" xmlns="http://www.w3.org/2000/svg">
<path d="M9.89598 9.89238C8.89654 10.8918 7.60043 11.4292 6.28729 11.4925C6.28485 11.49 6.28242 11.4925 6.27999 11.49C6.18271 11.4998 6.08058 11.4997 5.97845 11.4998C4.57828 11.4996 3.17453 10.9525 2.11442 9.89238C-1.17831 6.59966 0.882682 1.00074 5.43618 0.525316C5.43618 0.525316 5.43862 0.522882 5.44104 0.525301C5.78877 0.493702 6.13166 0.491267 6.47697 0.520447C6.85631 0.549627 7.23323 0.62501 7.60044 0.734441C8.44181 0.987351 9.23211 1.44694 9.89598 2.11081C12.0395 4.25429 12.048 7.74035 9.89598 9.89238Z" fill="#DEDFFB"/>
<path d="M5.97781 11.4997C2.06575 10.317 0.739287 5.30903 3.69927 2.34904C4.77653 1.27178 6.18938 0.734376 7.59977 0.734375C7.93779 0.834085 8.2685 0.970246 8.58463 1.14047C9.0564 1.38851 9.49896 1.71436 9.89534 2.11073C13.3705 5.58593 10.8882 11.4997 5.97781 11.4997Z" fill="#E9E7FC"/>
<path d="M7.07975 11.3958C6.61041 11.1453 6.1727 10.8243 5.77876 10.4304C2.66454 7.31614 4.30871 2.01257 8.58499 1.14111C9.05676 1.38916 9.49932 1.715 9.8957 2.11137C13.028 5.24369 11.3357 10.5526 7.07975 11.3958Z" fill="#F3F1FC"/>
<path d="M10.5845 7.52292C9.87333 8.82394 8.89481 9.56557 7.52925 8.81913C6.16369 8.07269 5.63318 6.41289 6.34434 5.11187C7.0555 3.81085 8.73902 3.36127 10.1046 4.10771C11.4701 4.85415 11.2957 6.22189 10.5845 7.52292Z" fill="#F8F9FE"/>
<path d="M6.15339 11.4756C6.19471 11.478 6.23606 11.4853 6.27983 11.4902C6.12238 11.5059 5.83212 11.5001 5.67433 11.4926C5.74761 11.4789 5.87626 11.461 5.95398 11.461C5.99047 11.371 6.02693 11.2859 6.06584 11.1984C5.83725 11.174 5.60623 11.1619 5.37036 11.0816C5.61112 11.0208 5.864 11.0257 6.11204 11.0306C6.11933 11.033 6.1315 11.0354 6.14367 11.0379C6.1777 10.9649 6.20931 10.8944 6.24578 10.8239C6.01233 10.7752 5.78133 10.7387 5.54787 10.6318C5.79106 10.5977 6.04394 10.6269 6.28955 10.6585C6.29929 10.6634 6.31144 10.6658 6.32118 10.6707C6.38683 10.5418 6.45492 10.4153 6.52544 10.2913C6.31631 10.2378 6.10232 10.2086 5.87615 10.1576C6.11447 10.0749 6.3698 10.0919 6.61056 10.1381C6.68838 10.0068 6.76861 9.87792 6.8513 9.74661C6.70605 9.70705 6.88227 9.69949 6.05855 9.55692C6.32924 9.44865 6.69538 9.48501 6.94126 9.608C7.02394 9.47669 7.10905 9.35267 7.19902 9.22864C7.19173 9.22623 7.1893 9.22379 7.18443 9.21892C6.9753 9.09734 6.75159 9.02439 6.50841 8.93685C6.77388 8.88174 7.0778 8.96136 7.29631 9.09247C7.39114 8.96359 7.48841 8.83227 7.58811 8.70826C7.20761 8.51715 7.40746 8.60428 6.88535 8.40915C7.14068 8.35808 7.40816 8.42617 7.6416 8.54289C7.65862 8.55505 7.67565 8.5672 7.6951 8.57693C7.80454 8.44318 7.91882 8.30945 8.0331 8.18057C7.83615 8.06628 7.61729 7.99332 7.38628 7.90821C7.64161 7.85714 7.90666 7.92767 8.14254 8.04195C8.14497 8.04439 8.14984 8.04926 8.15471 8.04926C8.16556 8.03787 8.08189 8.12378 8.50973 7.67963C8.3225 7.57993 8.12309 7.50698 7.9091 7.42915C8.15714 7.38053 8.4149 7.44374 8.64106 7.55317C8.76508 7.43402 8.89153 7.3173 9.02041 7.203C8.85747 7.05954 8.67267 6.94767 8.4757 6.8188C8.72616 6.82608 8.95231 6.94038 9.14685 7.096C9.27087 6.98659 9.39976 6.88201 9.53107 6.77988C9.40706 6.61696 9.25384 6.47348 9.09822 6.31786C9.31951 6.36893 9.50432 6.50996 9.65752 6.67774C9.79855 6.57075 9.94203 6.46619 10.0879 6.36891C9.98337 6.18168 9.85206 6.01632 9.71345 5.83393C9.92745 5.91662 10.0952 6.08439 10.2241 6.27651C10.3044 6.22058 10.387 6.16221 10.4721 6.11115C10.4697 6.10872 10.4697 6.10872 10.4697 6.10872C10.4041 5.8777 10.2898 5.67101 10.1755 5.43999C10.387 5.57375 10.5257 5.79016 10.618 6.02361C10.7007 5.97011 10.7858 5.91905 10.871 5.86798C10.8369 5.65398 10.7688 5.44971 10.6983 5.22843C10.8612 5.37191 10.9634 5.57131 11.0217 5.78531C11.102 5.7391 11.1822 5.6929 11.2625 5.65155C11.2284 5.44242 11.1603 5.24302 11.0923 5.02417C11.2527 5.16522 11.3524 5.36219 11.4132 5.56888C11.4351 5.55672 11.4619 5.54455 11.4862 5.53483C11.4935 5.60534 11.4983 5.67344 11.5008 5.7391C11.4838 5.74639 11.4692 5.75611 11.4521 5.76341C11.474 6.00415 11.4497 6.25218 11.3281 6.45647C11.3233 6.24733 11.3184 6.04792 11.2941 5.85339C11.2138 5.89472 11.1384 5.93607 11.0606 5.97984C11.0801 6.21815 11.0558 6.46132 10.9366 6.66316C10.9293 6.45647 10.9269 6.26435 10.9026 6.07467C10.8248 6.11844 10.7469 6.16708 10.6691 6.21571C10.7056 6.41755 10.708 6.62911 10.6278 6.82123C10.5986 6.64128 10.5646 6.47104 10.5257 6.30569C10.4527 6.34946 10.3846 6.39811 10.3141 6.4443C10.4065 6.65344 10.46 6.88201 10.4162 7.10572C10.3384 6.90148 10.2679 6.71422 10.1755 6.53914C10.0393 6.63155 9.90555 6.73124 9.77182 6.83095C9.89583 7.02792 9.98095 7.2492 9.96636 7.48266C9.86179 7.28569 9.76208 7.10331 9.64292 6.93551C9.51891 7.03034 9.40219 7.12762 9.28304 7.22733C9.42408 7.38782 9.53593 7.57263 9.56511 7.78176C9.42894 7.62127 9.30491 7.46807 9.16387 7.33189C9.0423 7.43889 8.92313 7.54832 8.80641 7.66017C8.97177 7.7769 9.11281 7.93252 9.18818 8.11977C9.01797 7.99332 8.8599 7.86929 8.68968 7.77203C8.61697 7.84474 8.62366 7.82016 8.3152 8.16112C8.46596 8.27784 8.59485 8.4213 8.66537 8.59883C8.50975 8.4821 8.3614 8.3678 8.20821 8.27297C8.08418 8.41158 7.96502 8.55018 7.8483 8.69124C7.98447 8.80309 8.1012 8.9344 8.16443 9.09977C8.02582 8.99521 7.89449 8.89306 7.75346 8.80552C7.65377 8.9344 7.55162 9.06572 7.45436 9.2019C7.59783 9.31618 7.72186 9.4548 7.78995 9.62989C7.64403 9.51802 7.50786 9.41589 7.36682 9.32349C7.27685 9.44751 7.19173 9.57151 7.10906 9.69797C7.24037 9.78065 7.3571 9.88278 7.43977 10.0141C7.29873 9.94116 7.16499 9.87548 7.03123 9.81956C6.95099 9.94358 6.87561 10.0676 6.80023 10.1965C6.98259 10.2621 7.15526 10.357 7.28901 10.4956C7.0896 10.4469 6.90479 10.3886 6.71755 10.3375C6.64459 10.4688 6.57408 10.5977 6.50598 10.729C6.66892 10.785 6.82454 10.8579 6.96071 10.9698C6.77591 10.9503 6.60569 10.9066 6.43546 10.8677C6.40142 10.9357 6.3698 11.0062 6.33577 11.0792C6.50111 11.1181 6.66405 11.174 6.81238 11.2689C6.6227 11.2689 6.44519 11.2421 6.26766 11.2202C6.22876 11.3029 6.18986 11.3905 6.15339 11.4756Z" fill="#E11226"/>
<path d="M3.68997 3.83735C3.56109 3.95164 3.42735 4.06591 3.29361 4.17535C3.30333 4.1948 3.31549 4.21183 3.32764 4.22885C3.44437 4.4623 3.51004 4.72736 3.45896 4.98269C3.26951 4.47575 3.34844 4.65353 3.16228 4.28236C3.03584 4.37962 2.90695 4.47933 2.77808 4.57416C2.78293 4.58388 2.79267 4.59361 2.79996 4.60577C2.91669 4.83922 2.98477 5.10185 2.93127 5.35962C2.84373 5.11644 2.77078 4.89273 2.65161 4.68602C2.64676 4.68117 2.64432 4.67386 2.64189 4.67143C2.51543 4.75897 2.39143 4.84409 2.26254 4.92919C2.38336 5.17075 2.42339 5.53745 2.31361 5.8119C2.17852 5.03139 2.16077 5.1544 2.12394 5.01917C1.99262 5.10184 1.86374 5.18209 1.73 5.25747C1.77862 5.50065 1.79565 5.75598 1.71296 5.9943C1.6619 5.76813 1.63273 5.55414 1.57922 5.34503C1.45278 5.41311 1.32632 5.4812 1.2023 5.54687C1.20474 5.55901 1.20717 5.57118 1.21202 5.5809C1.24364 5.82651 1.2704 6.07697 1.23878 6.32258C1.13179 6.08912 1.09531 5.85812 1.04667 5.62467C0.976153 5.66114 0.905638 5.69277 0.832688 5.7268C0.835108 5.73895 0.835108 5.74869 0.839976 5.75843C0.844829 6.00645 0.847278 6.25692 0.788904 6.5001C0.708652 6.26422 0.696497 6.0332 0.672185 5.80463C0.61626 5.83138 0.560335 5.85325 0.504395 5.87515C0.506829 5.80462 0.509248 5.7341 0.51655 5.66357C0.560335 5.64413 0.606538 5.62224 0.650293 5.60279C0.628416 5.42528 0.601655 5.24775 0.60167 5.05808C0.696512 5.20642 0.752422 5.36934 0.791353 5.5347C0.864287 5.50065 0.934817 5.46903 1.0029 5.435C0.963997 5.26478 0.920228 5.09455 0.900769 4.90975C1.0102 5.04349 1.08315 5.19912 1.14151 5.36449C1.2704 5.29396 1.40171 5.22588 1.5306 5.15048C1.48196 4.96568 1.4236 4.78086 1.37253 4.57902C1.51357 4.7152 1.6084 4.88786 1.67406 5.07024C1.80052 4.99241 1.92697 4.91947 2.05098 4.83922C1.99262 4.70303 1.92939 4.57174 1.85644 4.43069C1.98776 4.51336 2.08989 4.6301 2.17258 4.7614C2.29902 4.67872 2.42304 4.59361 2.54706 4.50364C2.45464 4.3626 2.35251 4.22642 2.24066 4.08052C2.41575 4.1486 2.55435 4.27262 2.66865 4.4161C2.80239 4.31641 2.93613 4.21668 3.06259 4.11457C2.97747 3.97596 2.87534 3.84465 2.76834 3.7036C2.9337 3.76682 3.06744 3.88598 3.17931 4.02216C3.32035 3.90543 3.45895 3.78627 3.59758 3.66225C3.5003 3.50662 3.38845 3.36072 3.26928 3.20266C3.44681 3.27318 3.59271 3.4045 3.70943 3.55527C4.02075 3.27354 4.05114 3.22813 4.0985 3.18077C3.9988 3.00811 3.87722 2.85248 3.75076 2.68227C3.93801 2.75764 4.09121 2.89626 4.21036 3.06404C4.32223 2.94733 4.43166 2.82817 4.53622 2.70416C4.40248 2.56555 4.24928 2.44153 4.08636 2.30292C4.29792 2.33453 4.48273 2.44638 4.64322 2.58743C4.74293 2.46827 4.83776 2.34911 4.93502 2.22753C4.76724 2.10838 4.58486 2.00867 4.38789 1.90411C4.61891 1.88708 4.84261 1.97462 5.03716 2.09621C5.13929 1.9649 5.23655 1.82872 5.33141 1.69498C5.15389 1.60014 4.96663 1.52963 4.76481 1.45423C4.98852 1.41046 5.21711 1.46396 5.4238 1.55394C5.47244 1.48586 5.51866 1.41533 5.56484 1.3448C5.39949 1.30589 5.22926 1.27186 5.04688 1.24025C5.24142 1.16243 5.45055 1.16243 5.65482 1.20133C5.70346 1.12351 5.75209 1.0457 5.79586 0.967879C5.60618 0.943568 5.41408 0.941148 5.20739 0.933846C5.40921 0.814693 5.65482 0.787948 5.89069 0.809825C5.93446 0.732007 5.97582 0.656624 6.01716 0.576372C5.82261 0.552061 5.62322 0.547193 5.41164 0.539905C5.42138 0.535037 5.42623 0.530184 5.43597 0.525316C5.43597 0.525316 5.4384 0.522882 5.44082 0.525301C5.78856 0.493702 6.13144 0.491267 6.47676 0.520447C6.61779 0.578806 6.74667 0.663926 6.84638 0.778211C6.62751 0.710115 6.42811 0.642034 6.21898 0.607986C6.17765 0.688238 6.13144 0.768489 6.08524 0.848741C6.29923 0.9071 6.4962 1.0068 6.64212 1.17215C6.42082 1.10162 6.21655 1.03354 6.00255 0.999493C5.95148 1.08461 5.90043 1.16972 5.84692 1.2524C6.07795 1.34238 6.2968 1.48342 6.43054 1.69497C6.19954 1.58068 5.99283 1.46638 5.76181 1.40074C5.75938 1.3983 5.75938 1.3983 5.75938 1.3983C5.70589 1.48097 5.64753 1.56367 5.59404 1.64634C5.78614 1.77522 5.95393 1.94301 6.0366 2.157C5.85422 2.01841 5.68887 1.8871 5.50162 1.78252C5.40192 1.926 5.29734 2.06946 5.19036 2.2105C5.35815 2.36371 5.50162 2.55096 5.55269 2.77224C5.39462 2.61417 5.25359 2.46341 5.09065 2.33938C4.98852 2.47069 4.88153 2.59716 4.77453 2.7236C4.92773 2.91572 5.04445 3.14429 5.04932 3.39233C4.92288 3.1978 4.80858 3.01056 4.66511 2.84762C4.55325 2.97893 4.43653 3.10539 4.31736 3.2294C4.42679 3.45554 4.49002 3.71332 4.44138 3.96135C4.36113 3.74494 4.29061 3.54797 4.19091 3.36072C4.13515 3.41443 4.11579 3.44341 3.81886 3.71332C3.82129 3.72063 3.82371 3.72305 3.82858 3.72791C3.94288 3.9638 4.01097 4.22642 3.9599 4.48175C3.87478 4.25073 3.80427 4.03432 3.68997 3.83735Z" fill="#E11226"/>
</svg>
