<svg width="20" height="20" viewBox="0 0 20 20" fill="currentColor" xmlns="http://www.w3.org/2000/svg">
    <path d="M10.6742 3.01278C10.8627 2.76293 10.8324 2.23301 10.8056 1.76555C10.8045 1.7454 10.8034 1.72569 10.8023 1.70568C10.538 1.68045 10.2706 1.6665 9.99988 1.6665C8.96256 1.6665 7.97001 1.8576 7.05394 2.20403C7.70742 2.51807 8.71896 3.0586 9.84331 3.85725C10.2269 3.52712 10.5163 3.22235 10.6742 3.01278Z"
          fill="currentColor"/>
    <path d="M14.8984 7.7681C14.4877 7.81451 14.1413 7.88191 13.845 7.97645C15.2612 10.449 15.8134 13.5728 15.9485 15.8359C17.3514 14.4064 18.2424 12.4739 18.3267 10.3333C17.36 9.14509 16.0793 7.63415 14.8984 7.7681Z"
          fill="currentColor"/>
    <path d="M6.47669 5.63346C7.47172 5.42641 8.40654 4.9256 9.15191 4.39698C7.59695 3.32601 6.30001 2.77021 6.04202 2.66442C4.42879 3.53651 3.13786 4.92601 2.38683 6.60961C3.36301 6.22066 4.42024 6.02278 5.45864 5.82998C5.79457 5.76759 6.14181 5.70312 6.47669 5.63346Z"
          fill="currentColor"/>
    <path d="M12.2378 5.87576C12.3266 5.96502 12.4152 6.05581 12.5032 6.14831C12.8278 6.48908 13.1223 6.8618 13.3924 7.25613C13.7857 7.10761 14.2488 7.0023 14.8031 6.93963C16.1091 6.7919 17.2705 7.82649 18.2672 8.9655C18.0535 7.23881 17.3129 5.67604 16.2095 4.44358C15.6072 4.51616 14.9357 4.63914 14.2513 4.84336C13.8023 4.97745 13.0874 5.34178 12.2378 5.87576Z"
          fill="currentColor"/>
    <path d="M11.1411 10.179C11.4829 9.02133 11.8788 8.18681 12.6459 7.64512C12.4157 7.31465 12.1679 7.0045 11.8996 6.72274C11.7754 6.59237 11.6499 6.46646 11.5238 6.34277C8.4464 8.43747 4.23091 12.2854 3.84759 15.6193C5.12714 17.0192 6.87828 17.9793 8.8496 18.2517C9.56738 16.8227 10.243 13.9175 10.6445 12.1898C10.8375 11.3599 11.004 10.6433 11.1411 10.179Z"
          fill="currentColor"/>
    <path d="M7.65166 8.34329C8.72467 7.35453 9.85782 6.46788 10.8942 5.75528C10.5488 5.44962 10.2022 5.16787 9.86205 4.90947C9.00121 5.55658 7.87413 6.19393 6.64729 6.44909C6.30372 6.52059 5.95191 6.58594 5.61178 6.64909C4.30128 6.89245 3.04327 7.12814 1.98534 7.71841C1.77931 8.44363 1.66663 9.20822 1.66663 9.99947C1.66663 11.7695 2.22024 13.4096 3.16127 14.7591C3.77091 12.3454 5.86197 9.99245 7.65166 8.34329Z"
          fill="currentColor"/>
    <path d="M11.6112 5.27937C12.6026 4.64734 13.4573 4.21032 14.0119 4.0448C14.5099 3.89608 14.9984 3.78776 15.4609 3.70876C14.392 2.77987 13.0853 2.11783 11.6429 1.82926C11.6749 2.41125 11.6888 3.0502 11.3387 3.51443C11.1724 3.73488 10.8909 4.03723 10.5248 4.36525C10.8834 4.64437 11.2478 4.94877 11.6112 5.27937Z"
          fill="currentColor"/>
    <path d="M11.939 10.4155C11.8089 10.8563 11.6448 11.562 11.4549 12.379C10.8943 14.7913 10.3578 16.9498 9.73132 18.3264C9.82027 18.3292 9.90919 18.3332 9.99882 18.3332C11.9409 18.3332 13.7262 17.667 15.1431 16.5533C15.0871 14.1851 14.5194 10.8353 13.0893 8.34877C12.5347 8.761 12.2362 9.4095 11.939 10.4155Z"
          fill="currentColor"/>
</svg>
