<svg width="12" height="12" viewBox="0 0 12 12" fill="none" xmlns="http://www.w3.org/2000/svg">
<path d="M2.06714 9.42871L2.57103 9.9326L2.57281 9.93421L2.19592 10.3095L1.69043 9.80399L2.06714 9.42871Z" fill="#656D78"/>
<path d="M11.2913 0.962358C11.5698 1.24101 11.5698 1.69291 11.2913 1.97138L6.75083 6.51191L4.73046 7.77475L4.07671 8.4285L3.573 7.92301L4.22496 7.26926L5.4878 5.25085L10.0283 0.710325C10.3088 0.429892 10.7607 0.429892 11.0393 0.710325L11.2913 0.962358Z" fill="#F7C292"/>
<path d="M3.19622 8.2998L3.69993 8.80333L3.70172 8.8053L3.32483 9.1804L2.81934 8.67491L3.19622 8.2998Z" fill="#545C66"/>
<path d="M2.94774 9.5575L2.57281 9.93421L2.57103 9.9326L2.06714 9.42871L2.44224 9.052L2.94774 9.5575Z" fill="#545C66"/>
<path d="M2.94678 9.55859L2.44131 9.05313L2.81833 8.67611L3.32379 9.18158L2.94678 9.55859Z" fill="#656D78"/>
<path d="M4.07671 8.42859L3.70178 8.80548L3.7 8.80351L3.19629 8.29998L3.573 7.9231L4.07671 8.42859Z" fill="#656D78"/>
<path d="M1.81896 10.6862L1.43689 11.0686L0.931396 10.5649V10.5631L1.31346 10.1807L1.81896 10.6862Z" fill="#F7C292"/>
<path d="M1.81787 10.6877L1.3124 10.1823L1.68929 9.80539L2.19476 10.3109L1.81787 10.6877Z" fill="#545C66"/>
<path d="M1.43539 11.0691C1.50487 11.1386 1.50487 11.2522 1.43539 11.3217L1.30946 11.4478C1.23998 11.5173 1.12638 11.5173 1.05689 11.4478L0.552112 10.943C0.482629 10.8735 0.482629 10.7599 0.552112 10.6904L0.678039 10.5643C0.747523 10.4948 0.861125 10.4948 0.930608 10.5643L1.43539 11.0691Z" fill="#FFD2A6"/>
</svg>
