<svg width="16" height="16" viewBox="0 0 16 16" fill="none" xmlns="http://www.w3.org/2000/svg">
<path fill-rule="evenodd" clip-rule="evenodd" d="M15.6494 0.184008C15.3907 -0.0616643 14.9717 -0.0613286 14.7135 0.184973L14.1715 0.755746C14.0526 0.701969 13.9268 0.659694 13.7958 0.630475C13.6733 0.603146 13.5487 0.587655 13.425 0.584464C12.9019 0.571282 12.3903 0.76557 12.0211 1.1175L11.4141 1.6957L14.1216 4.2719L14.7135 3.7081C15.1564 3.28585 15.3478 2.63775 15.2129 2.01668C15.186 1.89267 15.1455 1.77324 15.0933 1.65985L15.6504 1.07455C15.9086 0.828415 15.9081 0.42968 15.6494 0.184008ZM13.1833 5.16554L10.4765 2.58703C9.71951 2.30723 8.90109 2.21525 8.09525 2.321C7.0613 2.45643 6.1245 2.90004 5.38599 3.6041L4.37714 4.56592C3.95092 4.97226 3.42477 5.28816 2.85511 5.47956C2.73687 5.51952 2.61394 5.55474 2.48996 5.58442L0.65449 6.02186C0.358212 6.09222 0.108261 6.27702 -0.0310322 6.52836C-0.250847 6.92349 -0.176414 7.40073 0.154191 7.71588L7.79615 15.0014L7.79712 15.0023C7.94356 15.1416 8.12503 15.2373 8.32221 15.2788C8.88622 15.3973 9.43828 15.0728 9.57894 14.5398L10.0398 12.7815C10.0706 12.6633 10.1077 12.546 10.15 12.4323C10.3504 11.8898 10.6818 11.3881 11.1084 10.9814L12.1173 10.0196C12.8553 9.3159 13.3206 8.423 13.4628 7.43721C13.5737 6.66816 13.4769 5.8874 13.1829 5.16587L13.1833 5.16554ZM2.56909 14.6535L2.56732 14.6518C1.67103 13.7974 1.62342 12.4354 2.42468 11.527L5.84611 14.7889C5.40935 15.1392 4.86259 15.3301 4.28503 15.3301C3.63693 15.3301 3.02765 15.0899 2.56909 14.6535Z" fill="#2187E5"/>
<path d="M2.56347 3.60943C2.39136 3.48219 2.3611 3.2309 2.49593 3.04852C3.31151 1.94532 4.48358 1.20787 5.79644 0.972043C6.01386 0.932988 6.21092 1.07867 6.23733 1.29799C6.26374 1.5173 6.10937 1.72611 5.89195 1.76517C4.78928 1.96324 3.80468 2.58278 3.11953 3.50954C2.9847 3.69192 2.73559 3.73667 2.56347 3.60943Z" fill="#2187E5"/>
<path d="M14.3787 9.56955C14.5879 9.61475 14.7188 9.83137 14.6709 10.0531C14.3811 11.394 13.616 12.5483 12.5163 13.3031C12.3342 13.4281 12.0946 13.3764 11.9804 13.1873C11.8661 12.9983 11.921 12.7444 12.1031 12.6194C13.0267 11.9854 13.6695 11.0158 13.9129 9.88927C13.9608 9.66758 14.1694 9.52434 14.3787 9.56955Z" fill="#2187E5"/>
</svg>
