<svg width="16" height="16" viewBox="0 0 16 16" fill="currentColor" xmlns="http://www.w3.org/2000/svg">
<path d="M13.6945 3.51886L13.1081 4.09061L11.8227 2.83741L12.4241 2.25101C12.5992 2.08041 12.841 1.98638 13.0899 1.99253C13.1454 1.99405 13.2021 2.00134 13.2587 2.01422C13.4205 2.05109 13.5651 2.1316 13.679 2.24211C13.6854 2.24897 13.6922 2.25575 13.699 2.26249L13.702 2.26529C13.8105 2.37872 13.888 2.52071 13.9214 2.67817C13.9887 2.9947 13.9018 3.31683 13.6945 3.51886ZM12.7987 7.22772C12.6876 8.01519 12.3242 8.72842 11.7479 9.29029L10.752 10.2612C10.2281 10.772 9.82118 11.4019 9.57568 12.0817C9.52377 12.2242 9.47817 12.3721 9.43997 12.5212L8.98547 14.2947C8.97589 14.3306 8.94449 14.3493 8.90717 14.3413C8.89554 14.3388 8.8823 14.3308 8.86993 14.3187L1.32697 6.96518C1.30511 6.94386 1.30127 6.91433 1.31708 6.88518C1.32309 6.87416 1.33869 6.86009 1.36508 6.85365L3.17699 6.41195C3.32902 6.37492 3.48037 6.33051 3.62617 6.28025C4.3253 6.03987 4.97161 5.64308 5.49514 5.13265L6.49102 4.16184C7.06734 3.59992 7.79839 3.24581 8.60527 3.13776C8.76972 3.11568 8.93643 3.10479 9.1038 3.10479C9.58914 3.10479 10.0789 3.19661 10.5269 3.37377L12.5561 5.35211C12.8009 5.93966 12.887 6.60111 12.7987 7.22772ZM5.62104 14.4243C5.41962 14.6207 5.152 14.7288 4.86726 14.7288C4.58256 14.7288 4.3149 14.6207 4.11347 14.4243C3.69682 14.0181 3.69682 13.3572 4.11347 12.9511C4.3149 12.7547 4.58256 12.6465 4.86726 12.6465C5.152 12.6465 5.41962 12.7547 5.62104 12.9511C6.0377 13.3572 6.0377 14.0181 5.62104 14.4243ZM15.8082 0.185723C15.5528 -0.0622463 15.1392 -0.0618649 14.8844 0.186613L14.0957 0.975988C13.9281 0.88764 13.7473 0.820012 13.557 0.77658C13.4145 0.74408 13.2694 0.725647 13.1251 0.72179C12.5189 0.706282 11.927 0.936285 11.4994 1.35303L10.7391 2.09427C9.9973 1.84854 9.20662 1.7738 8.42693 1.87842C7.33514 2.02465 6.34591 2.50376 5.56621 3.26386L4.57041 4.23468C4.18402 4.61133 3.70705 4.90422 3.19036 5.08185C3.08279 5.11897 2.97142 5.1516 2.85945 5.17893L1.04815 5.62046C0.665643 5.7133 0.342404 5.95817 0.161884 6.2914C-0.122506 6.81407 -0.025909 7.44569 0.402201 7.86311L4.12314 11.4907C3.77473 11.6024 3.4555 11.7929 3.1887 12.053C2.26419 12.9544 2.26419 14.421 3.1887 15.3223C3.63702 15.7593 4.23311 16 4.86726 16C5.50141 16 6.09754 15.7593 6.54581 15.3223C6.81675 15.0581 7.00824 14.7455 7.12039 14.4127L7.94512 15.2167C8.13404 15.4009 8.36905 15.5274 8.62508 15.5825C8.72656 15.6044 8.82764 15.6149 8.92711 15.6149C9.54384 15.6149 10.0959 15.2116 10.2528 14.6038L10.7077 12.8286C10.7358 12.7187 10.7693 12.6102 10.8077 12.5046C10.9894 12.0015 11.2899 11.5363 11.6768 11.1592L12.6726 10.1883C13.4517 9.42877 13.9429 8.46477 14.093 7.40052C14.2003 6.64005 14.1235 5.86898 13.8711 5.14621L14.6193 4.41684C15.141 3.90827 15.3584 3.16212 15.2009 2.42084C15.1609 2.23249 15.0953 2.05304 15.0078 1.88621L15.8091 1.08455C16.064 0.836113 16.0636 0.433692 15.8082 0.185723Z" fill="currentColor"/>
</svg>
