<svg width="20" height="20" viewBox="0 0 20 20" fill="none" xmlns="http://www.w3.org/2000/svg">
<g clip-path="url(#clip0_143_14107)">
<path d="M6.41071 0C2.61752 1.72409 1.23828 0.344849 1.23828 0.344849C1.23828 1.39557 3.43784 4.64523 4.48657 6.1348C4.82791 5.43289 5.37997 4.85535 6.06586 4.48273C6.37469 4.29352 6.63882 4.03961 6.83994 3.73825C6.60098 2.28134 6.41071 0 6.41071 0Z" fill="#2187E5"/>
<path d="M2.37442 2.92047C1.38855 2.49002 0.546875 2.06934 0.546875 2.06934C0.577087 2.65787 0.693207 3.23877 0.891724 3.79343C1.13312 4.52142 3.08273 5.93149 4.21722 6.70343C4.25522 6.65063 4.29611 6.60013 4.3399 6.55206C4.37668 6.40939 4.4252 6.26993 4.48486 6.13519C3.93616 5.35593 3.07449 4.09586 2.37442 2.92047Z" fill="#23B972"/>
<path d="M2.08594 5.11816C2.33023 5.9249 2.50784 6.75024 2.61694 7.58612C3.00177 7.59009 3.38538 7.629 3.76318 7.70239C3.85031 7.3432 4.00458 7.004 4.21805 6.70233C3.61105 6.28958 2.77289 5.69403 2.08594 5.11816Z" fill="#5D9069"/>
<path d="M16.4074 8.96506C15.5222 8.823 14.6185 8.84559 13.7415 9.03174L13.6488 9.30991C12.8875 9.9517 12.1783 10.6525 11.5273 11.4059C13.3532 11.7013 16.7704 14.4823 17.097 14.4823H18.1315C18.1315 13.4479 19.5107 9.30991 19.5107 9.30991C18.4681 9.28718 17.4296 9.17182 16.4074 8.96506Z" fill="#2187E5"/>
<path d="M17.0523 14.4686C16.5651 14.3166 13.2998 11.6935 11.5271 11.4066L11.5429 11.3896C11.318 11.6533 11.0432 11.87 10.7344 12.0272L13.9933 17.2417C13.9933 17.2417 17.0967 16.552 17.7864 15.5176L17.0523 14.4686Z" fill="#23B972"/>
<path d="M10.8238 11.9896C10.7929 12.0035 10.7652 12.0172 10.7376 12.0276L10.8859 12.2621L11.8755 13.8447L11.5825 14.1379L9.85826 15.5173L9.75831 15.7207C9.58467 16.0638 9.43833 16.4201 9.32038 16.7862C9.20594 17.1264 9.06526 17.4574 8.8997 17.7759L7.97898 19.6173C7.86256 19.8515 7.62345 19.9998 7.36177 20H2.11C1.86174 19.9994 1.63301 19.8655 1.51094 19.6493C1.38887 19.4331 1.39253 19.1679 1.5204 18.9552L3.9203 14.9518C4.8372 13.4111 4.88298 11.5034 4.041 9.92063C3.80342 9.52726 3.66944 9.08003 3.65144 8.62074C3.61558 7.86924 3.86155 7.13148 4.34098 6.55164C4.68583 5.1724 6.06523 4.48271 6.06523 4.48271C6.45311 4.23017 6.77766 3.89143 7.01341 3.49302C7.08345 3.38392 7.18599 3.29939 7.30653 3.25163C7.56837 3.13337 7.87614 3.18968 8.07893 3.39308L8.14103 3.45518L8.82386 3.90684C9.03932 4.05225 9.16841 4.29517 9.16871 4.55518V4.82755L9.19282 4.80345C9.38462 4.61149 9.6779 4.56419 9.92036 4.68626L10.5444 4.99998C10.7584 5.10542 10.8936 5.32362 10.8928 5.56211V5.8621L11.4652 6.1482C11.9281 6.37937 12.1503 6.91618 11.9859 7.4069L11.9272 7.58619L12.3549 7.72764C12.7434 7.8581 13.0644 8.13703 13.248 8.5034L13.6514 9.31028C12.8894 9.95115 12.1802 10.6521 11.5308 11.4068C11.3243 11.634 11.0861 11.8303 10.8238 11.9896Z" fill="#FEDEBB"/>
<path d="M10.8821 12.2621C10.8672 12.352 10.8161 12.4318 10.7407 12.4827C10.6832 12.5232 10.6145 12.5448 10.5442 12.5448C10.4315 12.5439 10.3261 12.4887 10.2614 12.3965C9.18902 10.8621 6.53384 8.20005 6.50622 8.17579C6.40124 8.06989 6.37622 7.90861 6.44412 7.77586C6.59228 7.43498 6.59228 7.04786 6.44412 6.70683C6.3663 6.55119 6.4165 6.36198 6.56146 6.26554C8.02005 5.28959 7.76492 4.21034 7.30273 3.25163C7.56457 3.13337 7.87234 3.18968 8.07513 3.39308L8.13724 3.45518C8.45447 4.32752 8.59591 5.60346 7.16479 6.68272C7.27756 7.06464 7.27527 7.47114 7.15793 7.85169C7.76141 8.46204 9.8511 10.6138 10.82 11.9896C10.8234 11.9931 10.8234 11.9966 10.8269 11.9999C10.8799 12.0764 10.8997 12.1708 10.8821 12.2621Z" fill="#F5A585"/>
<path d="M7.4425 8.62049C7.25208 8.62049 7.09766 8.46607 7.09766 8.27564C7.09766 7.16252 8.70288 4.88316 8.88599 4.62696C8.99661 4.47193 9.21207 4.43592 9.3671 4.5467C9.52197 4.65733 9.55798 4.87263 9.44736 5.02766C8.80557 5.92671 7.78735 7.60319 7.78735 8.27564C7.78735 8.46607 7.63293 8.62049 7.4425 8.62049Z" fill="#F5A585"/>
<path d="M8.47838 9.65512C8.31816 9.65543 8.179 9.54541 8.14207 9.38962C8.1053 9.23383 8.18052 9.07315 8.3238 9.00174C8.62211 8.85266 9.16289 7.92645 9.55763 7.25003C9.86174 6.66867 10.2272 6.12164 10.648 5.61826C10.7834 5.48764 10.9984 5.48947 11.1314 5.62238C11.2645 5.75543 11.2663 5.97058 11.1355 6.10577C10.7605 6.5701 10.4313 7.06983 10.1532 7.59793C9.50697 8.70511 9.08186 9.39374 8.63218 9.61896C8.58442 9.64276 8.53178 9.65512 8.47838 9.65512Z" fill="#F5A585"/>
<path d="M9.85657 11.3797C9.66614 11.3797 9.51172 11.2254 9.51172 11.035C9.51172 10.2764 10.1828 8.84187 11.6818 7.34285C11.817 7.21223 12.0322 7.21406 12.1652 7.34712C12.2981 7.48002 12.3001 7.69517 12.1693 7.83052C10.8911 9.10875 10.2014 10.4357 10.2014 11.035C10.2014 11.2254 10.047 11.3797 9.85657 11.3797Z" fill="#F5A585"/>
<path d="M10.5441 12.4141C10.3536 12.4141 10.1992 12.2597 10.1992 12.0692C10.1992 11.8788 10.3536 11.7244 10.5441 11.7244C10.7775 11.7244 11.3265 11.1255 11.7675 10.6438C12.2747 10.0572 12.8347 9.51874 13.4406 9.03473C13.5392 8.96088 13.6697 8.94516 13.7829 8.99353C13.8963 9.0419 13.9752 9.14703 13.9898 9.26941C14.0046 9.39178 13.953 9.51263 13.8545 9.58649C13.2832 10.0455 12.7549 10.5553 12.2761 11.1099C11.5823 11.8669 11.081 12.4141 10.5441 12.4141Z" fill="#F5A585"/>
<path d="M8.47676 15.1727C8.34538 15.1734 8.22514 15.0994 8.1664 14.982C7.56291 13.7751 6.0085 13.4448 5.994 13.4416C5.81212 13.3998 5.69661 13.2206 5.73338 13.0377C5.77016 12.8547 5.94594 12.7342 6.12981 12.7658C6.20702 12.781 8.02632 13.161 8.78499 14.6737C8.83839 14.7805 8.83275 14.9075 8.76988 15.0091C8.70717 15.1107 8.59624 15.1727 8.47676 15.1727Z" fill="#F5A585"/>
</g>
<defs>
<clipPath id="clip0_143_14107">
<rect width="20" height="20" fill="white"/>
</clipPath>
</defs>
</svg>
