<svg width="36" height="36" viewBox="0 0 36 36" fill="none" xmlns="http://www.w3.org/2000/svg">
<g clip-path="url(#clip0_214_694)">
<path d="M36 8.68964V33.5172C36 34.8884 34.8884 36 33.5172 36H2.48276C1.11157 36 0 34.8884 0 33.5172V8.68964H36Z" fill="#ECF0F1"/>
<path d="M36 4.34482V9.93103H0V4.34482C0 2.97363 1.11157 1.86206 2.48276 1.86206H33.5172C34.8884 1.86206 36 2.97363 36 4.34482Z" fill="#2187E5"/>
<path d="M6.82806 13.0342H4.3453C4.0025 13.0342 3.72461 13.3121 3.72461 13.6549V15.5169C3.72461 15.8597 4.0025 16.1376 4.3453 16.1376H6.82806C7.17086 16.1376 7.44875 15.8597 7.44875 15.5169V13.6549C7.44875 13.3121 7.17086 13.0342 6.82806 13.0342Z" fill="#95A5A5"/>
<path d="M13.0348 13.0342H10.5521C10.2093 13.0342 9.9314 13.3121 9.9314 13.6549V15.5169C9.9314 15.8597 10.2093 16.1376 10.5521 16.1376H13.0348C13.3776 16.1376 13.6555 15.8597 13.6555 15.5169V13.6549C13.6555 13.3121 13.3776 13.0342 13.0348 13.0342Z" fill="#95A5A5"/>
<path d="M19.2421 13.0342H16.7594C16.4166 13.0342 16.1387 13.3121 16.1387 13.6549V15.5169C16.1387 15.8597 16.4166 16.1376 16.7594 16.1376H19.2421C19.5849 16.1376 19.8628 15.8597 19.8628 15.5169V13.6549C19.8628 13.3121 19.5849 13.0342 19.2421 13.0342Z" fill="#95A5A5"/>
<path d="M25.4492 13.0342H22.9664C22.6236 13.0342 22.3457 13.3121 22.3457 13.6549V15.5169C22.3457 15.8597 22.6236 16.1376 22.9664 16.1376H25.4492C25.7919 16.1376 26.0698 15.8597 26.0698 15.5169V13.6549C26.0698 13.3121 25.7919 13.0342 25.4492 13.0342Z" fill="#95A5A5"/>
<path d="M31.6562 13.0342H29.1734C28.8306 13.0342 28.5527 13.3121 28.5527 13.6549V15.5169C28.5527 15.8597 28.8306 16.1376 29.1734 16.1376H31.6562C31.999 16.1376 32.2769 15.8597 32.2769 15.5169V13.6549C32.2769 13.3121 31.999 13.0342 31.6562 13.0342Z" fill="#95A5A5"/>
<path d="M6.82806 18.6201H4.3453C4.0025 18.6201 3.72461 18.898 3.72461 19.2408V21.1029C3.72461 21.4457 4.0025 21.7236 4.3453 21.7236H6.82806C7.17086 21.7236 7.44875 21.4457 7.44875 21.1029V19.2408C7.44875 18.898 7.17086 18.6201 6.82806 18.6201Z" fill="#95A5A5"/>
<path d="M13.0351 18.6201H10.5523C10.2095 18.6201 9.93164 18.898 9.93164 19.2408V21.1029C9.93164 21.4457 10.2095 21.7236 10.5523 21.7236H13.0351C13.3779 21.7236 13.6558 21.4457 13.6558 21.1029V19.2408C13.6558 18.898 13.3779 18.6201 13.0351 18.6201Z" fill="#FFA722"/>
<path d="M19.2421 18.6201H16.7594C16.4166 18.6201 16.1387 18.898 16.1387 19.2408V21.1029C16.1387 21.4457 16.4166 21.7236 16.7594 21.7236H19.2421C19.5849 21.7236 19.8628 21.4457 19.8628 21.1029V19.2408C19.8628 18.898 19.5849 18.6201 19.2421 18.6201Z" fill="#95A5A5"/>
<path d="M25.4492 18.6201H22.9664C22.6236 18.6201 22.3457 18.898 22.3457 19.2408V21.1029C22.3457 21.4457 22.6236 21.7236 22.9664 21.7236H25.4492C25.7919 21.7236 26.0698 21.4457 26.0698 21.1029V19.2408C26.0698 18.898 25.7919 18.6201 25.4492 18.6201Z" fill="#95A5A5"/>
<path d="M31.6562 18.6201H29.1734C28.8306 18.6201 28.5527 18.898 28.5527 19.2408V21.1029C28.5527 21.4457 28.8306 21.7236 29.1734 21.7236H31.6562C31.999 21.7236 32.2769 21.4457 32.2769 21.1029V19.2408C32.2769 18.898 31.999 18.6201 31.6562 18.6201Z" fill="#95A5A5"/>
<path d="M6.82806 24.207H4.3453C4.0025 24.207 3.72461 24.4849 3.72461 24.8277V26.6898C3.72461 27.0326 4.0025 27.3105 4.3453 27.3105H6.82806C7.17086 27.3105 7.44875 27.0326 7.44875 26.6898V24.8277C7.44875 24.4849 7.17086 24.207 6.82806 24.207Z" fill="#95A5A5"/>
<path d="M13.0351 24.207H10.5523C10.2095 24.207 9.93164 24.4849 9.93164 24.8277V26.6898C9.93164 27.0326 10.2095 27.3105 10.5523 27.3105H13.0351C13.3779 27.3105 13.6558 27.0326 13.6558 26.6898V24.8277C13.6558 24.4849 13.3779 24.207 13.0351 24.207Z" fill="#95A5A5"/>
<path d="M19.2421 24.207H16.7594C16.4166 24.207 16.1387 24.4849 16.1387 24.8277V26.6898C16.1387 27.0326 16.4166 27.3105 16.7594 27.3105H19.2421C19.5849 27.3105 19.8628 27.0326 19.8628 26.6898V24.8277C19.8628 24.4849 19.5849 24.207 19.2421 24.207Z" fill="#FFA722"/>
<path d="M25.4492 24.207H22.9664C22.6236 24.207 22.3457 24.4849 22.3457 24.8277V26.6898C22.3457 27.0326 22.6236 27.3105 22.9664 27.3105H25.4492C25.7919 27.3105 26.0698 27.0326 26.0698 26.6898V24.8277C26.0698 24.4849 25.7919 24.207 25.4492 24.207Z" fill="#95A5A5"/>
<path d="M31.6562 24.207H29.1734C28.8306 24.207 28.5527 24.4849 28.5527 24.8277V26.6898C28.5527 27.0326 28.8306 27.3105 29.1734 27.3105H31.6562C31.999 27.3105 32.2769 27.0326 32.2769 26.6898V24.8277C32.2769 24.4849 31.999 24.207 31.6562 24.207Z" fill="#95A5A5"/>
<path d="M6.82806 29.7928H4.3453C4.0025 29.7928 3.72461 30.0707 3.72461 30.4135V32.2755C3.72461 32.6183 4.0025 32.8962 4.3453 32.8962H6.82806C7.17086 32.8962 7.44875 32.6183 7.44875 32.2755V30.4135C7.44875 30.0707 7.17086 29.7928 6.82806 29.7928Z" fill="#95A5A5"/>
<path d="M13.0348 29.7928H10.5521C10.2093 29.7928 9.9314 30.0707 9.9314 30.4135V32.2755C9.9314 32.6183 10.2093 32.8962 10.5521 32.8962H13.0348C13.3776 32.8962 13.6555 32.6183 13.6555 32.2755V30.4135C13.6555 30.0707 13.3776 29.7928 13.0348 29.7928Z" fill="#95A5A5"/>
<path d="M19.2421 29.793H16.7594C16.4166 29.793 16.1387 30.0709 16.1387 30.4137V32.2757C16.1387 32.6185 16.4166 32.8964 16.7594 32.8964H19.2421C19.5849 32.8964 19.8628 32.6185 19.8628 32.2757V30.4137C19.8628 30.0709 19.5849 29.793 19.2421 29.793Z" fill="#95A5A5"/>
<path d="M25.4492 29.793H22.9664C22.6236 29.793 22.3457 30.0709 22.3457 30.4137V32.2757C22.3457 32.6185 22.6236 32.8964 22.9664 32.8964H25.4492C25.7919 32.8964 26.0698 32.6185 26.0698 32.2757V30.4137C26.0698 30.0709 25.7919 29.793 25.4492 29.793Z" fill="#95A5A5"/>
<path d="M31.6562 29.793H29.1734C28.8306 29.793 28.5527 30.0709 28.5527 30.4137V32.2757C28.5527 32.6185 28.8306 32.8964 29.1734 32.8964H31.6562C31.999 32.8964 32.2769 32.6185 32.2769 32.2757V30.4137C32.2769 30.0709 31.999 29.793 31.6562 29.793Z" fill="#FFA722"/>
<path d="M29.173 1.8623C30.2778 2.2944 31.013 3.35013 31.035 4.53624C30.9314 6.17413 29.5727 7.44951 27.9316 7.44951C26.2904 7.44951 24.9318 6.17413 24.8281 4.53624C24.8502 3.35013 25.5854 2.2944 26.6902 1.8623H29.173Z" fill="#2187E5"/>
<path d="M9.30967 1.8623C10.4145 2.2944 11.1497 3.35013 11.1717 4.53624C11.1167 6.19643 9.72863 7.49903 8.06829 7.44851C6.40795 7.49903 5.01984 6.19643 4.96484 4.53624C4.9869 3.35013 5.72209 2.2944 6.82691 1.8623H9.30967Z" fill="#2187E5"/>
<path d="M29.1725 1.24138C29.1725 0.555784 28.6167 0 27.9311 0C27.2455 0 26.6897 0.555784 26.6897 1.24138V3.72414C26.6897 4.40973 27.2455 4.96552 27.9311 4.96552C28.6167 4.96552 29.1725 4.40973 29.1725 3.72414V1.24138Z" fill="#FFA722"/>
<path d="M9.31088 1.24138C9.31088 0.555784 8.7551 0 8.0695 0C7.38391 0 6.82812 0.555784 6.82812 1.24138V3.72414C6.82812 4.40973 7.38391 4.96552 8.0695 4.96552C8.7551 4.96552 9.31088 4.40973 9.31088 3.72414V1.24138Z" fill="#FFA722"/>
</g>
<defs>
<clipPath id="clip0_214_694">
<rect width="36" height="36" fill="white"/>
</clipPath>
</defs>
</svg>
