<svg width="20" height="20" viewBox="0 0 20 20" fill="currentColor" xmlns="http://www.w3.org/2000/svg">
<g opacity="0.55" clip-path="url(#clip0_413_84199)">
<path d="M20 15.7143V20H0V15.7143C0.334823 15.7143 0.65104 15.6622 0.948661 15.558C1.24628 15.4539 1.46577 15.3516 1.60714 15.2511C1.74851 15.1507 1.92336 15.0112 2.1317 14.8326C2.35491 14.6317 2.5465 14.4903 2.70647 14.4085C2.86644 14.3266 3.07664 14.2857 3.33705 14.2857C3.51563 14.2857 3.67931 14.3118 3.82812 14.3638C3.97694 14.4159 4.09226 14.4717 4.17411 14.5312C4.25595 14.5908 4.37872 14.6912 4.54241 14.8326C4.75819 15.0186 4.93303 15.16 5.06696 15.2567C5.20089 15.3534 5.41667 15.4539 5.71429 15.558C6.01191 15.6622 6.33184 15.7143 6.67411 15.7143C7.00893 15.7143 7.32515 15.6603 7.62277 15.5525C7.92039 15.4446 8.13616 15.3441 8.27009 15.2511C8.40402 15.1581 8.58259 15.0186 8.8058 14.8326C8.96205 14.6912 9.08296 14.5908 9.16853 14.5312C9.25409 14.4717 9.36942 14.4159 9.51451 14.3638C9.6596 14.3118 9.82143 14.2857 10 14.2857C10.2604 14.2857 10.4706 14.3266 10.6306 14.4085C10.7906 14.4903 10.9821 14.6317 11.2054 14.8326C11.4137 15.0112 11.5885 15.1507 11.7299 15.2511C11.8713 15.3516 12.0908 15.4539 12.3884 15.558C12.686 15.6622 13.0022 15.7143 13.3371 15.7143C13.6719 15.7143 13.9881 15.6622 14.2857 15.558C14.5833 15.4539 14.8028 15.3516 14.9442 15.2511C15.0856 15.1507 15.2604 15.0112 15.4688 14.8326C15.692 14.6317 15.8836 14.4903 16.0435 14.4085C16.2035 14.3266 16.4137 14.2857 16.6741 14.2857C16.9271 14.2857 17.1336 14.3266 17.2935 14.4085C17.4535 14.4903 17.6451 14.6317 17.8683 14.8326C18.0766 15.0112 18.2515 15.1507 18.3929 15.2511C18.5342 15.3516 18.7537 15.4539 19.0513 15.558C19.349 15.6622 19.6652 15.7143 20 15.7143ZM20 12.1429V14.2857C19.8214 14.2857 19.6577 14.2597 19.5089 14.2076C19.3601 14.1555 19.2448 14.0997 19.1629 14.0402C19.0811 13.9807 18.9583 13.8802 18.7946 13.7388C18.5789 13.5528 18.404 13.4115 18.2701 13.3147C18.1362 13.218 17.9204 13.1176 17.6228 13.0134C17.3251 12.9092 17.0089 12.8571 16.6741 12.8571C16.3318 12.8571 16.0119 12.9092 15.7143 13.0134C15.4167 13.1176 15.2009 13.218 15.067 13.3147C14.933 13.4115 14.7582 13.5528 14.5424 13.7388C14.3787 13.8802 14.256 13.9807 14.1741 14.0402C14.0923 14.0997 13.9769 14.1555 13.8281 14.2076C13.6793 14.2597 13.5156 14.2857 13.3371 14.2857C13.0766 14.2857 12.8664 14.2448 12.7065 14.1629C12.5465 14.0811 12.3549 13.9397 12.1317 13.7388C11.9159 13.5528 11.7411 13.4115 11.6071 13.3147C11.4732 13.218 11.2574 13.1176 10.9598 13.0134C10.6622 12.9092 10.3423 12.8571 10 12.8571C9.66518 12.8571 9.34896 12.9111 9.05134 13.019C8.75372 13.1269 8.53795 13.2273 8.40402 13.3203C8.27009 13.4133 8.09152 13.5528 7.8683 13.7388C7.71205 13.8802 7.59115 13.9807 7.50558 14.0402C7.42001 14.0997 7.30469 14.1555 7.1596 14.2076C7.01451 14.2597 6.85268 14.2857 6.67411 14.2857C6.41369 14.2857 6.2035 14.2448 6.04353 14.1629C5.88356 14.0811 5.69197 13.9397 5.46875 13.7388C5.26042 13.5603 5.08557 13.4208 4.9442 13.3203C4.80283 13.2199 4.58333 13.1176 4.28571 13.0134C3.98809 12.9092 3.67188 12.8571 3.33705 12.8571C2.99479 12.8571 2.67485 12.9092 2.37723 13.0134C2.07961 13.1176 1.86384 13.218 1.72991 13.3147C1.59598 13.4115 1.42113 13.5528 1.20536 13.7388C0.982142 13.9397 0.790551 14.0811 0.63058 14.1629C0.470609 14.2448 0.260418 14.2857 0 14.2857V12.1429C0 11.5476 0.208331 11.0417 0.625 10.625C1.04167 10.2083 1.54762 10 2.14286 10H2.85714V5H5.71429V10H8.57143V5H11.4286V10H14.2857V5H17.1429V10H17.8571C18.4524 10 18.9583 10.2083 19.375 10.625C19.7917 11.0417 20 11.5476 20 12.1429ZM5.71429 2.5C5.71429 3.07292 5.58036 3.51376 5.3125 3.82254C5.04464 4.13133 4.70238 4.28571 4.28571 4.28571C3.89137 4.28571 3.55469 4.14621 3.27567 3.86719C2.99665 3.58817 2.85714 3.25149 2.85714 2.85714C2.85714 2.64137 2.89248 2.45164 2.96317 2.28795C3.03385 2.12426 3.12128 1.99777 3.22545 1.90848C3.32961 1.8192 3.44494 1.71503 3.57143 1.59598C3.69792 1.47693 3.81324 1.35975 3.91741 1.24442C4.02158 1.12909 4.109 0.963543 4.17969 0.747768C4.25037 0.531993 4.28571 0.282739 4.28571 0C4.56845 0 4.87723 0.275295 5.21205 0.825893C5.54688 1.37649 5.71429 1.93452 5.71429 2.5ZM11.4286 2.5C11.4286 3.07292 11.2946 3.51376 11.0268 3.82254C10.7589 4.13133 10.4167 4.28571 10 4.28571C9.60565 4.28571 9.26897 4.14621 8.98995 3.86719C8.71094 3.58817 8.57143 3.25149 8.57143 2.85714C8.57143 2.64137 8.60677 2.45164 8.67745 2.28795C8.74814 2.12426 8.83557 1.99777 8.93973 1.90848C9.0439 1.8192 9.15923 1.71503 9.28571 1.59598C9.4122 1.47693 9.52753 1.35975 9.6317 1.24442C9.73586 1.12909 9.82329 0.963543 9.89397 0.747768C9.96466 0.531993 10 0.282739 10 0C10.2827 0 10.5915 0.275295 10.9263 0.825893C11.2612 1.37649 11.4286 1.93452 11.4286 2.5ZM17.1429 2.5C17.1429 3.07292 17.0089 3.51376 16.7411 3.82254C16.4732 4.13133 16.131 4.28571 15.7143 4.28571C15.3199 4.28571 14.9833 4.14621 14.7042 3.86719C14.4252 3.58817 14.2857 3.25149 14.2857 2.85714C14.2857 2.64137 14.3211 2.45164 14.3917 2.28795C14.4624 2.12426 14.5499 1.99777 14.654 1.90848C14.7582 1.8192 14.8735 1.71503 15 1.59598C15.1265 1.47693 15.2418 1.35975 15.346 1.24442C15.4501 1.12909 15.5376 0.963543 15.6083 0.747768C15.6789 0.531993 15.7143 0.282739 15.7143 0C15.997 0 16.3058 0.275295 16.6406 0.825893C16.9754 1.37649 17.1429 1.93452 17.1429 2.5Z" fill="currentColor"/>
</g>
<defs>
<clipPath id="clip0_413_84199">
<rect width="20" height="20" fill="currentColor"/>
</clipPath>
</defs>
</svg>
