<svg width="24" height="24" viewBox="0 0 24 24" fill="none" xmlns="http://www.w3.org/2000/svg">
<g clip-path="url(#clip0_3702_7033)">
<path d="M12.0008 5.51466C11.8008 5.51466 11.6387 5.35252 11.6387 5.1525V3.97739C11.6387 3.77733 11.8008 3.61523 12.0008 3.61523C12.2008 3.61523 12.363 3.77737 12.363 3.97739V5.15245C12.363 5.35252 12.2008 5.51466 12.0008 5.51466Z" fill="#E8F9FC"/>
<path d="M11.2689 9.03806C11.4619 8.85937 11.7192 8.7495 12.0013 8.7495C12.2835 8.7495 12.5407 8.85937 12.7337 9.03806C12.804 9.10322 12.8903 9.14531 12.9811 9.16354V5.82337C12.9811 5.3565 12.6026 4.97803 12.1358 4.97803H11.8668C11.4 4.97803 11.0215 5.3565 11.0215 5.82337V9.16368C11.111 9.14587 11.197 9.10467 11.2689 9.03806Z" fill="#00D2FC"/>
<path d="M12.0013 5.82337C12.0013 5.48362 12.2022 5.1915 12.4912 5.05715C12.383 5.00686 12.2629 4.97803 12.1358 4.97803H11.8668C11.4 4.97803 11.0215 5.3565 11.0215 5.82337V9.16368C11.1109 9.14592 11.1969 9.10471 11.2689 9.03811C11.4619 8.85942 11.7191 8.74954 12.0013 8.74954V5.82337H12.0013Z" fill="#00C2FB"/>
<path d="M2.66602 14.2871H21.3346V18.8424H2.66602V14.2871Z" fill="#FFB640"/>
<path d="M2.66602 14.2871H5.55797V18.8424H2.66602V14.2871Z" fill="#FFA90F"/>
<path d="M3.99609 11.8081H19.9074V14.4708H3.99609V11.8081Z" fill="#FEE17D"/>
<path d="M3.99609 11.8081H5.55947V14.4708H3.99609V11.8081Z" fill="#FFCE65"/>
<path d="M2.66602 18.7168V21.1728C2.66602 21.5729 2.99044 21.9456 3.39061 21.9456H20.61C21.0102 21.9456 21.3346 21.5729 21.3346 21.1728V18.7168H2.66602Z" fill="#FEE17D"/>
<path d="M5.55797 18.7168H2.66602V21.1728C2.66602 21.5729 2.99044 21.9456 3.39061 21.9456H5.55797V18.7168Z" fill="#FFCE65"/>
<path d="M22.5566 21.8975H1.44408C1.31316 21.8975 1.20703 22.0036 1.20703 22.1345C1.20703 23.1649 2.0423 24.0001 3.07266 24.0001H20.9281C21.9585 24.0001 22.7937 23.1649 22.7937 22.1345C22.7937 22.0036 22.6875 21.8975 22.5566 21.8975Z" fill="#E8F9FC"/>
<path d="M5.02237 22.1345C5.02237 22.0036 5.1285 21.8975 5.25942 21.8975H1.44412C1.3132 21.8975 1.20703 22.0036 1.20703 22.1345C1.20703 23.1649 2.0423 24.0001 3.07266 24.0001H6.88795C5.85764 24.0001 5.02237 23.1649 5.02237 22.1345Z" fill="#D9E7EC"/>
<path d="M20.7791 8.65945C20.4502 8.62331 20.1465 8.73759 19.9264 8.94141C19.7262 9.12675 19.4179 9.1185 19.2266 8.94141C19.0336 8.76272 18.7764 8.65285 18.4942 8.65285C18.2121 8.65285 17.9548 8.76272 17.7618 8.94141C17.5616 9.12675 17.2533 9.11855 17.062 8.94141C16.869 8.76272 16.6118 8.65285 16.3296 8.65285C16.0475 8.65285 15.7902 8.76272 15.5973 8.94141C15.397 9.12675 15.0887 9.11855 14.8974 8.94141C14.7044 8.76272 14.4472 8.65285 14.165 8.65285C13.8829 8.65285 13.6256 8.76272 13.4327 8.94141C13.2325 9.12675 12.9241 9.11855 12.7328 8.94141C12.5398 8.76272 12.2826 8.65285 12.0004 8.65285C11.7183 8.65285 11.461 8.76272 11.2681 8.94141C11.0679 9.12675 10.7595 9.11855 10.5682 8.94141C10.3752 8.76272 10.118 8.65285 9.83584 8.65285C9.5537 8.65285 9.29641 8.76272 9.10347 8.94141C8.90327 9.12675 8.59492 9.11855 8.40363 8.94141C8.21064 8.76272 7.95339 8.65285 7.67125 8.65285C7.38911 8.65285 7.13181 8.76272 6.93888 8.94141C6.73867 9.12675 6.43033 9.11855 6.23903 8.94141C6.04605 8.76272 5.7888 8.65285 5.50666 8.65285C5.22452 8.65285 4.96722 8.76272 4.77428 8.94141C4.57413 9.12675 4.26578 9.11855 4.07448 8.94141C3.85441 8.73759 3.55066 8.62331 3.22173 8.65945C2.66927 8.7202 2.25977 9.20367 2.25977 9.75942V15.0623C2.25977 15.6235 2.67705 16.1102 3.23561 16.1644C3.87812 16.2267 4.42436 15.7177 4.42436 15.0872V13.3271C4.42436 12.7659 4.84164 12.2791 5.4002 12.225C6.04272 12.1627 6.58895 12.6717 6.58895 13.3021V15.0623C6.58895 15.6235 7.00623 16.1102 7.5648 16.1644C8.20731 16.2267 8.75355 15.7177 8.75355 15.0872V13.3271C8.75355 12.7659 9.17083 12.2791 9.72939 12.225C10.3719 12.1627 10.9181 12.6717 10.9181 13.3021V15.0623C10.9181 15.6235 11.3354 16.1102 11.894 16.1644C12.5365 16.2267 13.0827 15.7177 13.0827 15.0872V13.3271C13.0827 12.7659 13.5 12.2791 14.0586 12.225C14.7011 12.1627 15.2473 12.6717 15.2473 13.3021V15.0623C15.2473 15.6235 15.6646 16.1102 16.2232 16.1644C16.8657 16.2267 17.4119 15.7177 17.4119 15.0872V13.3271C17.4119 12.7659 17.8292 12.2791 18.3878 12.225C19.0303 12.1627 19.5765 12.6717 19.5765 13.3021V15.0623C19.5765 15.6235 19.9938 16.1102 20.5524 16.1644C21.1949 16.2267 21.7411 15.7177 21.7411 15.0872V9.75942C21.7411 9.20367 21.3316 8.72016 20.7791 8.65945Z" fill="#E85165"/>
<path d="M21.6857 12.225C21.1271 12.2792 20.7098 12.7659 20.7098 13.3271V15.0873C20.7098 15.4955 20.4805 15.8527 20.1445 16.0369C20.2673 16.1049 20.4045 16.1501 20.5519 16.1644C21.1944 16.2267 21.7407 15.7177 21.7407 15.0873V12.2212C21.7225 12.2221 21.7042 12.2233 21.6857 12.225Z" fill="#ED5469"/>
<path d="M13.0275 12.2249C12.4689 12.279 12.0516 12.7658 12.0516 13.327V15.0871C12.0516 15.4954 11.8223 15.8525 11.4863 16.0367C11.609 16.1048 11.7463 16.15 11.8937 16.1642C12.5362 16.2265 13.0825 15.7175 13.0825 15.0871V13.327C13.0825 12.914 13.3089 12.542 13.6509 12.3524C13.4681 12.2522 13.2538 12.2029 13.0275 12.2249Z" fill="#ED5469"/>
<path d="M17.3576 12.2249C16.799 12.279 16.3817 12.7658 16.3817 13.327V15.0871C16.3817 15.4954 16.1524 15.8525 15.8164 16.0367C15.9391 16.1048 16.0763 16.1499 16.2238 16.1642C16.8663 16.2265 17.4125 15.7175 17.4125 15.0871V13.3269C17.4125 12.9139 17.639 12.5419 17.981 12.3523C17.7982 12.2522 17.5839 12.2029 17.3576 12.2249Z" fill="#ED5469"/>
<path d="M8.69936 12.2249C8.1408 12.279 7.72352 12.7658 7.72352 13.327V15.0871C7.72352 15.4954 7.49425 15.8525 7.1582 16.0367C7.28092 16.1048 7.41812 16.1499 7.56559 16.1642C8.20811 16.2265 8.75434 15.7175 8.75434 15.0871V13.3269C8.75434 12.9139 8.9808 12.5419 9.32275 12.3523C9.13998 12.2522 8.92572 12.2029 8.69936 12.2249Z" fill="#ED5469"/>
<path d="M5.55808 9.75942C5.55808 9.36811 5.76156 9.01341 6.0745 8.81611C5.90927 8.71299 5.71483 8.65285 5.50666 8.65285C5.22452 8.65285 4.96727 8.76272 4.77428 8.94141C4.57412 9.1267 4.26578 9.11855 4.07448 8.94141C3.85441 8.73759 3.55066 8.62331 3.22173 8.65945C2.66927 8.7202 2.25977 9.20367 2.25977 9.75942V15.0623C2.25977 15.6235 2.67705 16.1102 3.23561 16.1644C3.87812 16.2267 4.42436 15.7177 4.42436 15.0872V13.3271C4.42436 12.7659 4.84164 12.2791 5.4002 12.225C5.45364 12.2198 5.50628 12.219 5.55813 12.2214V9.75942H5.55808Z" fill="#CF3A4E"/>
<path d="M13.3098 1.36836L12.2437 0.112957C12.1158 -0.0376523 11.8834 -0.0376523 11.7555 0.112957L10.6893 1.36841C9.74115 2.48493 10.5347 4.19994 11.9996 4.19994C13.4644 4.19994 14.258 2.48493 13.3098 1.36836Z" fill="#FEE17D"/>
<path d="M11.6692 1.36841L12.4895 0.40241L12.2437 0.112957C12.1158 -0.0376523 11.8833 -0.0376523 11.7555 0.112957L10.6893 1.36841C9.74115 2.48497 10.5347 4.19999 11.9996 4.19999C12.173 4.19999 12.3367 4.17524 12.4895 4.13099C11.3514 3.80155 10.8332 2.35278 11.6692 1.36841Z" fill="#FFCE65"/>
<path d="M12.7085 2.67037L12.1325 1.99218C12.0634 1.91081 11.9379 1.91081 11.8688 1.99218L11.2929 2.67037C10.7807 3.27356 11.2093 4.2 12.0007 4.2C12.792 4.2 13.2207 3.27356 12.7085 2.67037Z" fill="#FFB640"/>
<path d="M12.2727 2.67037L12.4906 2.41378L12.1326 1.99218C12.0635 1.91081 11.938 1.91081 11.8689 1.99218L11.2929 2.67037C10.7807 3.27356 11.2093 4.2 12.0007 4.2C12.1866 4.2 12.3522 4.14839 12.4906 4.06228C12.04 3.78196 11.8808 3.13181 12.2727 2.67037Z" fill="#FFA90F"/>
</g>
<defs>
<clipPath id="clip0_3702_7033">
<rect width="24" height="24" fill="white"/>
</clipPath>
</defs>
</svg>
