<svg width="16" height="16" viewBox="0 0 16 16" fill="currentColor" xmlns="http://www.w3.org/2000/svg">
<path d="M5.40799 3.94987C5.14225 3.94987 4.92188 3.7295 4.92188 3.46376V1.51931C4.92188 1.25357 5.14225 1.0332 5.40799 1.0332C5.67373 1.0332 5.8941 1.25357 5.8941 1.51931V3.46376C5.8941 3.7295 5.67373 3.94987 5.40799 3.94987Z" fill="currentColor"/>
<path d="M10.5935 3.94987C10.3278 3.94987 10.1074 3.7295 10.1074 3.46376V1.51931C10.1074 1.25357 10.3278 1.0332 10.5935 1.0332C10.8593 1.0332 11.0796 1.25357 11.0796 1.51931V3.46376C11.0796 3.7295 10.8593 3.94987 10.5935 3.94987Z" fill="currentColor"/>
<path d="M5.73213 9.62083C5.64787 9.62083 5.56361 9.60139 5.48584 9.56898C5.40158 9.53657 5.33676 9.49119 5.27195 9.43286C5.15528 9.30971 5.08398 9.14768 5.08398 8.97268C5.08398 8.88842 5.10343 8.80416 5.13584 8.72638C5.16824 8.6486 5.21361 8.57731 5.27195 8.5125C5.33676 8.45416 5.40158 8.40878 5.48584 8.37637C5.71917 8.27915 6.01084 8.33102 6.19232 8.5125C6.30898 8.63565 6.38028 8.80416 6.38028 8.97268C6.38028 9.01157 6.3738 9.05694 6.36732 9.10231C6.36084 9.1412 6.34787 9.18009 6.32843 9.21898C6.31546 9.25787 6.29602 9.29675 6.2701 9.33564C6.25065 9.36805 6.21824 9.40045 6.19232 9.43286C6.06917 9.54952 5.90065 9.62083 5.73213 9.62083Z" fill="currentColor"/>
<path d="M8.00069 9.62078C7.91643 9.62078 7.83217 9.60134 7.75439 9.56893C7.67013 9.53653 7.60532 9.49114 7.5405 9.43281C7.42384 9.30966 7.35254 9.14763 7.35254 8.97263C7.35254 8.88837 7.37198 8.80411 7.40439 8.72633C7.4368 8.64855 7.48217 8.57726 7.5405 8.51245C7.60532 8.45412 7.67013 8.40873 7.75439 8.37632C7.98772 8.27262 8.27939 8.33097 8.46087 8.51245C8.57754 8.6356 8.64884 8.80411 8.64884 8.97263C8.64884 9.01152 8.64235 9.0569 8.63587 9.10227C8.62939 9.14115 8.61643 9.18004 8.59698 9.21893C8.58402 9.25782 8.56458 9.2967 8.53865 9.33559C8.51921 9.368 8.4868 9.4004 8.46087 9.43281C8.33772 9.54947 8.16921 9.62078 8.00069 9.62078Z" fill="currentColor"/>
<path d="M10.2692 9.62078C10.185 9.62078 10.1007 9.60134 10.0229 9.56893C9.93869 9.53653 9.87387 9.49114 9.80906 9.43281C9.78313 9.4004 9.7572 9.368 9.73128 9.33559C9.70535 9.2967 9.68591 9.25782 9.67295 9.21893C9.6535 9.18004 9.64054 9.14115 9.63406 9.10227C9.62758 9.0569 9.62109 9.01152 9.62109 8.97263C9.62109 8.80411 9.69239 8.6356 9.80906 8.51245C9.87387 8.45412 9.93869 8.40873 10.0229 8.37632C10.2628 8.27262 10.5479 8.33097 10.7294 8.51245C10.8461 8.6356 10.9174 8.80411 10.9174 8.97263C10.9174 9.01152 10.9109 9.0569 10.9044 9.10227C10.8979 9.14115 10.885 9.18004 10.8655 9.21893C10.8526 9.25782 10.8331 9.2967 10.8072 9.33559C10.7878 9.368 10.7554 9.4004 10.7294 9.43281C10.6063 9.54947 10.4378 9.62078 10.2692 9.62078Z" fill="currentColor"/>
<path d="M5.73213 11.8898C5.64787 11.8898 5.56361 11.8703 5.48584 11.8379C5.40806 11.8055 5.33676 11.7601 5.27195 11.7018C5.15528 11.5786 5.08398 11.4101 5.08398 11.2416C5.08398 11.1573 5.10343 11.0731 5.13584 10.9953C5.16824 10.911 5.21361 10.8398 5.27195 10.7814C5.51176 10.5416 5.9525 10.5416 6.19232 10.7814C6.30898 10.9046 6.38028 11.0731 6.38028 11.2416C6.38028 11.4101 6.30898 11.5786 6.19232 11.7018C6.06917 11.8184 5.90065 11.8898 5.73213 11.8898Z" fill="currentColor"/>
<path d="M8.00069 11.8898C7.83217 11.8898 7.66365 11.8184 7.5405 11.7018C7.42384 11.5786 7.35254 11.4101 7.35254 11.2416C7.35254 11.1573 7.37198 11.0731 7.40439 10.9953C7.4368 10.911 7.48217 10.8398 7.5405 10.7814C7.78032 10.5416 8.22106 10.5416 8.46087 10.7814C8.51921 10.8398 8.56457 10.911 8.59698 10.9953C8.62939 11.0731 8.64884 11.1573 8.64884 11.2416C8.64884 11.4101 8.57754 11.5786 8.46087 11.7018C8.33772 11.8184 8.16921 11.8898 8.00069 11.8898Z" fill="currentColor"/>
<path d="M10.2692 11.8896C10.1007 11.8896 9.93221 11.8183 9.80906 11.7017C9.75072 11.6433 9.70535 11.5721 9.67295 11.4878C9.64054 11.41 9.62109 11.3258 9.62109 11.2415C9.62109 11.1572 9.64054 11.073 9.67295 10.9952C9.70535 10.9109 9.75072 10.8397 9.80906 10.7813C9.95813 10.6322 10.185 10.5609 10.3924 10.6063C10.4378 10.6128 10.4766 10.6257 10.5155 10.6452C10.5544 10.6582 10.5933 10.6776 10.6322 10.7035C10.6646 10.723 10.697 10.7554 10.7294 10.7813C10.8461 10.9045 10.9174 11.073 10.9174 11.2415C10.9174 11.41 10.8461 11.5785 10.7294 11.7017C10.6063 11.8183 10.4378 11.8896 10.2692 11.8896Z" fill="currentColor"/>
<path d="M13.5095 6.60015H2.49099C2.22525 6.60015 2.00488 6.37978 2.00488 6.11404C2.00488 5.8483 2.22525 5.62793 2.49099 5.62793H13.5095C13.7753 5.62793 13.9956 5.8483 13.9956 6.11404C13.9956 6.37978 13.7753 6.60015 13.5095 6.60015Z" fill="currentColor"/>
<path d="M10.5927 14.9678H5.40752C3.04178 14.9678 1.68066 13.6067 1.68066 11.241V5.73173C1.68066 3.36599 3.04178 2.00488 5.40752 2.00488H10.5927C12.9584 2.00488 14.3196 3.36599 14.3196 5.73173V11.241C14.3196 13.6067 12.9584 14.9678 10.5927 14.9678ZM5.40752 2.97711C3.55381 2.97711 2.65289 3.87803 2.65289 5.73173V11.241C2.65289 13.0947 3.55381 13.9956 5.40752 13.9956H10.5927C12.4464 13.9956 13.3473 13.0947 13.3473 11.241V5.73173C13.3473 3.87803 12.4464 2.97711 10.5927 2.97711H5.40752Z" fill="currentColor"/>
</svg>
