<svg width="18" height="18" viewBox="0 0 18 18" fill="none" xmlns="http://www.w3.org/2000/svg">
<g id="Group 7109">
<path id="Calendar" d="M0.25 5.4V4.5C0.25 3.0111 1.42916 1.8 2.8788 1.8H3.75507V0H5.50761V1.8H7.84432V0H9.59686V1.8H11.9336V0H13.6861V1.8H14.5624C16.012 1.8 17.1912 3.0111 17.1912 4.5V5.4H8.72059H0.25ZM17.1912 7.2V15.3C17.1912 16.7889 16.012 18 14.5624 18H2.8788C1.42916 18 0.25 16.7889 0.25 15.3V7.2H17.1912ZM5.50761 13.2H3.75507V15H5.50761V13.2ZM5.50761 9.6H3.75507V11.4H5.50761V9.6ZM9.59686 13.2H7.84432V15H9.59686V13.2ZM9.59686 9.6H7.84432V11.4H9.59686V9.6ZM13.6861 13.2H11.9336V15H13.6861V13.2ZM13.6861 9.6H11.9336V11.4H13.6861V9.6Z" fill="#F6B500"/>
<path id="Calendar_2" d="M0.25 5.4V4.5C0.25 3.0111 1.42916 1.8 2.8788 1.8H3.75507V0H5.50761V1.8H7.84432V0H9.59686V1.8H11.9336V0H13.6861V1.8H14.5624C16.012 1.8 17.1912 3.0111 17.1912 4.5V5.4H8.72059H0.25Z" fill="#0038E0"/>
</g>
</svg>
