<svg width="24" height="24" viewBox="0 0 24 24" fill="none" xmlns="http://www.w3.org/2000/svg">
<path d="M11.9992 9.08203C10.8359 9.08203 9.8547 10.0281 9.8547 11.1914C9.8547 12.3548 10.8359 13.3008 11.9992 13.3008C13.1626 13.3008 14.1438 12.3548 14.1438 11.1914C14.1438 10.0281 13.1626 9.08203 11.9992 9.08203Z" fill="#004FFF"/>
<path d="M20.6902 9.39102C20.2789 8.97969 19.6102 8.97969 19.1988 9.39102L14.2344 14.3555H9.76406L4.79961 9.39102C4.38824 8.97969 3.71957 8.97969 3.30821 9.39102C2.89726 9.80196 2.89726 10.4714 3.30821 10.8824L8.27266 15.8469V20.1562C8.27266 20.4475 8.50877 20.6836 8.8 20.6836H15.1984C15.4897 20.6836 15.7258 20.4475 15.7258 20.1562V15.8469L20.6902 10.8824C21.1012 10.4715 21.1012 9.80199 20.6902 9.39102Z" fill="#004FFF"/>
<path d="M19.6077 3.77382C19.4929 3.72953 16.7036 2.68359 11.9992 2.68359C7.29486 2.68359 4.50557 3.72953 4.39071 3.77382C4.18782 3.85261 4.05391 4.0478 4.05391 4.26563V8.02787C4.61729 8.02787 5.14724 8.24725 5.54531 8.64532L5.67275 8.77276C6.81083 8.47088 9.0203 8.02735 11.9992 8.02735C14.9782 8.02735 17.1876 8.47088 18.3257 8.7728L18.4531 8.64532C18.8512 8.24725 19.3811 8.02787 19.9445 8.02787V4.26563C19.9445 4.0478 19.8106 3.85261 19.6077 3.77382Z" fill="#F6B500"/>
</svg>
