<svg width="23" height="24" viewBox="0 0 23 24" fill="none" xmlns="http://www.w3.org/2000/svg">
<g id="Champion">
<path id="Union" fill-rule="evenodd" clip-rule="evenodd" d="M18.8384 1.57112L22.8716 1.57098H22.8717L22.6863 4.66947C22.5041 7.70754 20.8322 10.4505 18.2348 11.9713H18.2348L15.8261 13.382C15.2798 14.083 14.6716 14.7158 14.0006 15.2555H14.0005L12.7701 16.2451L12.7758 18.2284C12.9234 18.2538 13.0694 18.2838 13.2137 18.3182C13.5606 18.4009 13.8976 18.509 14.2227 18.6406C15.9263 19.3302 17.3049 20.663 18.086 22.3403H19.5983H19.5984V23.9999H19.5983H3.53174H3.5317V22.3403H3.53174H5.03543C5.90359 20.4759 7.51039 19.0367 9.48071 18.4342C9.76219 18.3481 10.0511 18.2791 10.3463 18.2284L10.352 16.2451L9.12163 15.2555H9.12159C8.45051 14.7158 7.84218 14.083 7.29602 13.382L7.21306 13.3334L7.13361 13.2869L7.13362 13.2869L4.88735 11.9713C2.28997 10.4505 0.618065 7.70754 0.435963 4.66947L0.250488 1.57098H4.28327V0H12.4198H18.7399H18.8382H18.8384V1.57112ZM2.60565 3.82103L2.70242 5.43308C2.80549 7.15511 3.75295 8.70927 5.22487 9.57126C4.61522 7.87423 4.28327 6.00799 4.28327 4.084V3.82103H2.60565ZM17.8969 9.57112C19.3688 8.70911 20.3162 7.15487 20.4194 5.43308L20.5159 3.82103H18.8384V4.084C18.8384 6.00793 18.5066 7.87413 17.8969 9.57112Z" fill="#F8C433"/>
<path id="Vector" d="M12.7762 18.2285C12.7762 18.2285 12.2774 18.5028 11.5424 18.5028C10.9024 18.5028 10.3468 18.2285 10.3468 18.2285C7.98508 18.6342 6.02814 20.2096 5.03596 22.3403H3.53223V24H19.5989V22.3403H18.0865C17.0941 20.2096 15.1379 18.635 12.7762 18.2285Z" fill="#2187E5"/>
<path id="Vector_2" d="M19.5989 22.3398H3.53223V23.9995H19.5989V22.3398Z" fill="#2187E5"/>
</g>
</svg>
