<svg width="24" height="24" viewBox="0 0 24 24" fill="none" xmlns="http://www.w3.org/2000/svg">
<g id="icon/menu tab/chat">
<g id="Vector">
<path d="M13.8585 4H3.68339C2.75188 4 2 4.7147 2 5.60015V12.0008C2 12.8862 2.75188 13.6009 3.68339 13.6009H4.24452V15.2011C4.24452 15.5864 4.66428 15.8655 5.07499 15.6705C5.08621 15.6598 5.1087 15.6598 5.11992 15.6491C8.20673 13.6814 7.51493 14.1202 8.20613 13.6862C8.29587 13.6329 8.39688 13.6009 8.5091 13.6009H13.8585C14.7901 13.6009 15.5419 12.8862 15.5419 12.0008V5.60015C15.5419 4.7147 14.7901 4 13.8585 4ZM9.3695 10.4006H4.80565C4.06597 10.4006 4.06294 9.33385 4.80565 9.33385H9.3695C10.1092 9.33385 10.1122 10.4006 9.3695 10.4006ZM12.7363 8.26708H4.80565C4.06597 8.26708 4.06294 7.20031 4.80565 7.20031H12.7363C13.476 7.20031 13.479 8.26708 12.7363 8.26708Z" fill="currentColor"/>
<path d="M19.4698 8.26709H16.6642V12.0008C16.6642 13.4729 15.4072 14.6677 13.8585 14.6677H8.67741L7.61127 15.3398V16.2679C7.61127 17.1532 8.36314 17.868 9.29466 17.868H14.8124L18.0333 19.9162C18.4729 20.1482 18.9087 19.866 18.9087 19.4682V17.868H19.4698C20.4013 17.868 21.1532 17.1532 21.1532 16.2679V9.86724C21.1532 8.98183 20.4013 8.26709 19.4698 8.26709Z" fill="currentColor"/>
</g>
</g>
</svg>
