<svg width="7" height="4" viewBox="0 0 7 4" fill="none" xmlns="http://www.w3.org/2000/svg">
<path d="M0.065625 3.47917C0.0218747 3.52083 0 3.58333 0 3.66667C0 3.76389 0.036458 3.84375 0.109375 3.90625C0.182292 3.96875 0.269791 4 0.371875 4H6.62813C6.73021 4 6.81771 3.96875 6.89062 3.90625C6.96354 3.84375 7 3.76389 7 3.66667C7 3.59722 6.97813 3.54167 6.93437 3.5L6.89062 3.4375L3.91563 0.1875C3.78437 0.062499 3.64583 0 3.5 0C3.35417 0 3.21563 0.062499 3.08437 0.1875L0.109375 3.4375L0.065625 3.47917Z" fill="#2187E5"/>
</svg>
