<svg width="9" height="11" viewBox="0 0 9 11" fill="none" xmlns="http://www.w3.org/2000/svg">
  <path
    d="M0.515625 10.5C0.374999 10.5 0.253907 10.4492 0.152344 10.3477C0.0507807 10.2461 0 10.125 0 9.98438V5.01562C0 4.875 0.0507807 4.75391 0.152344 4.65234C0.253907 4.55078 0.374999 4.5 0.515625 4.5H0.585938H1.03125V3.77344C1.03125 2.69531 1.36718 1.79688 2.03906 1.07812C2.71094 0.359371 3.53125 0 4.5 0C5.46876 0 6.28906 0.359371 6.96094 1.07812C7.63282 1.79688 7.96875 2.69531 7.96875 3.77344V4.5H8.48438C8.625 4.5 8.74609 4.55078 8.84766 4.65234C8.94922 4.75391 9 4.875 9 5.01562V9.98438C9 10.125 8.94922 10.2461 8.84766 10.3477C8.74609 10.4492 8.625 10.5 8.48438 10.5H0.515625ZM2.27344 3.77344V4.5H2.67188H6.30469H6.72656V3.77344C6.72656 2.99218 6.50781 2.36719 6.07031 1.89844V1.875C5.64844 1.42187 5.125 1.19531 4.5 1.19531C3.875 1.19531 3.35156 1.42187 2.92969 1.875V1.89844C2.49219 2.36719 2.27344 2.99218 2.27344 3.77344Z"
    fill="#636363" />
</svg>