<svg width="14" height="14" viewBox="0 0 14 14" fill="none" xmlns="http://www.w3.org/2000/svg">
<path d="M2.13754 13.0736C1.84334 13.0909 1.554 12.9919 1.33053 12.7976C0.889822 12.3491 0.889822 11.6248 1.33053 11.1763L10.9807 1.4138C11.439 0.979888 12.1583 1.00401 12.5872 1.46772C12.9751 1.88706 12.9977 2.53158 12.6402 2.97765L2.93317 12.7976C2.71259 12.9891 2.42789 13.0879 2.13754 13.0736Z" fill="#AF2929"/>
<path d="M11.7777 13.0739C11.4796 13.0726 11.1938 12.9528 10.9821 12.7404L1.33191 2.97791C0.92361 2.49557 0.97912 1.76966 1.45591 1.35658C1.88147 0.987911 2.50907 0.987911 2.93458 1.35658L12.6416 11.119C13.0998 11.5531 13.1235 12.2808 12.6945 12.7444C12.6774 12.7628 12.6598 12.7806 12.6416 12.7979C12.4039 13.007 12.0911 13.1069 11.7777 13.0739Z" fill="#AF2929"/>
</svg>
