<svg width="24" height="24" viewBox="0 0 24 24" fill="none" xmlns="http://www.w3.org/2000/svg">
<path d="M18.7213 4.77049C15.5487 4.77049 12.0355 3.03314 12.0004 3.01556C11.9589 2.99481 11.9099 2.99481 11.8684 3.01556C11.8334 3.03314 8.3201 4.77049 5.14754 4.77049C5.06606 4.77049 5 4.83648 5 4.91803V12C5 17.0445 11.5816 20.8225 11.8618 20.9808C11.8844 20.9937 11.9094 21 11.9344 21C11.9595 21 11.9845 20.9937 12.007 20.9808C12.2871 20.8225 18.8689 17.0445 18.8689 12V4.91803C18.8689 4.83648 18.8029 4.77049 18.7213 4.77049Z" fill="#0038E0"/>
<path d="M17.9833 5.76673V12.0003C17.9833 15.8378 13.414 19.0469 12.0138 19.9395C11.9901 19.9557 11.9621 19.9631 11.9341 19.9631V3.97852C11.9548 3.97852 11.9754 3.98298 11.9946 3.99177C12.9255 4.41235 15.3585 5.41416 17.8475 5.61919C17.9242 5.6251 17.9833 5.68849 17.9833 5.76673Z" fill="#F6B500"/>
<path d="M5.88525 5.76673V12.0003C5.88525 15.8378 10.4546 19.0469 11.8548 19.9395C11.8784 19.9557 11.9064 19.9631 11.9344 19.9631V3.97852C11.9138 3.97852 11.8932 3.98298 11.8739 3.99177C10.943 4.41235 8.51001 5.41416 6.02098 5.61919C5.94433 5.6251 5.88525 5.68849 5.88525 5.76673Z" fill="#0038E0"/>
</svg>
