<svg width="25" height="24" viewBox="0 0 25 24" fill="none" xmlns="http://www.w3.org/2000/svg">
<path d="M20 3H5C4.60218 3 4.22064 3.15804 3.93934 3.43934C3.65804 3.72064 3.5 4.10218 3.5 4.5V19.5C3.5 19.8978 3.65804 20.2794 3.93934 20.5607C4.22064 20.842 4.60218 21 5 21H20C20.3978 21 20.7794 20.842 21.0607 20.5607C21.342 20.2794 21.5 19.8978 21.5 19.5V4.5C21.5 4.10218 21.342 3.72064 21.0607 3.43934C20.7794 3.15804 20.3978 3 20 3ZM6.5 6.75H18.5C18.6989 6.75 18.8897 6.82902 19.0303 6.96967C19.171 7.11032 19.25 7.30109 19.25 7.5C19.25 7.69891 19.171 7.88968 19.0303 8.03033C18.8897 8.17098 18.6989 8.25 18.5 8.25H6.5C6.30109 8.25 6.11032 8.17098 5.96967 8.03033C5.82902 7.88968 5.75 7.69891 5.75 7.5C5.75 7.30109 5.82902 7.11032 5.96967 6.96967C6.11032 6.82902 6.30109 6.75 6.5 6.75ZM6.5 11.25H9.5C9.69891 11.25 9.88968 11.329 10.0303 11.4697C10.171 11.6103 10.25 11.8011 10.25 12C10.25 12.1989 10.171 12.3897 10.0303 12.5303C9.88968 12.671 9.69891 12.75 9.5 12.75H6.5C6.30109 12.75 6.11032 12.671 5.96967 12.5303C5.82902 12.3897 5.75 12.1989 5.75 12C5.75 11.8011 5.82902 11.6103 5.96967 11.4697C6.11032 11.329 6.30109 11.25 6.5 11.25ZM10.25 17.25H6.5C6.30109 17.25 6.11032 17.171 5.96967 17.0303C5.82902 16.8897 5.75 16.6989 5.75 16.5C5.75 16.3011 5.82902 16.1103 5.96967 15.9697C6.11032 15.829 6.30109 15.75 6.5 15.75H10.25C10.4489 15.75 10.6397 15.829 10.7803 15.9697C10.921 16.1103 11 16.3011 11 16.5C11 16.6989 10.921 16.8897 10.7803 17.0303C10.6397 17.171 10.4489 17.25 10.25 17.25ZM19.1141 13.4334L17.4397 14.8125L17.9497 16.875C17.9675 16.9467 17.9637 17.022 17.9389 17.0916C17.914 17.1611 17.8692 17.2218 17.81 17.2659C17.7451 17.3138 17.6666 17.3397 17.5859 17.34C17.52 17.3396 17.4553 17.3218 17.3984 17.2884L15.5 16.1756L13.6044 17.2922C13.5407 17.3296 13.4675 17.3474 13.3938 17.3434C13.3201 17.3393 13.2492 17.3136 13.19 17.2695C13.1309 17.2253 13.0861 17.1647 13.0612 17.0952C13.0364 17.0257 13.0326 16.9504 13.0503 16.8787L13.5603 14.8162L11.8859 13.4334C11.8284 13.3858 11.7864 13.3221 11.7653 13.2504C11.7441 13.1788 11.7449 13.1024 11.7675 13.0312C11.7901 12.96 11.8334 12.8972 11.8919 12.8507C11.9504 12.8043 12.0215 12.7764 12.0959 12.7706L14.3066 12.6L15.1559 10.6313C15.185 10.5642 15.2331 10.507 15.2942 10.4669C15.3553 10.4268 15.4269 10.4054 15.5 10.4054C15.5731 10.4054 15.6447 10.4268 15.7058 10.4669C15.7669 10.507 15.815 10.5642 15.8441 10.6313L16.6934 12.6L18.9041 12.7706C18.9785 12.7764 19.0496 12.8043 19.1081 12.8507C19.1666 12.8972 19.2099 12.96 19.2325 13.0312C19.2551 13.1024 19.2559 13.1788 19.2347 13.2504C19.2136 13.3221 19.1716 13.3858 19.1141 13.4334Z" fill="currentColor"/>
</svg>
