<svg width="17" height="16" viewBox="0 0 17 16" fill="none" xmlns="http://www.w3.org/2000/svg">
<path d="M11.6748 11.6909C11.6147 11.7786 11.5506 11.8642 11.4823 11.9472C10.7779 12.8029 9.73343 13.2936 8.61673 13.2936C7.53151 13.2936 6.50602 12.8254 5.80322 12.009C5.71535 11.907 5.63379 11.8008 5.55867 11.6909L1.62183 13.8648V14.9097H15.6116V13.8648L11.6748 11.6909Z" fill="url(#paint0_linear_208_58694)"/>
<path d="M9.02532 6.65634L13.5274 4.12033L8.2056 1.12256V10.2282L6.27539 11.2941C6.32285 11.3596 6.37332 11.4236 6.42693 11.4858C6.97371 12.1209 7.77137 12.4852 8.61546 12.4852C9.48403 12.4852 10.2964 12.1034 10.8445 11.4377C10.8831 11.3908 10.9198 11.3428 10.9551 11.2939L9.02532 10.2282V6.65634Z" fill="url(#paint1_linear_208_58694)"/>
<defs>
<linearGradient id="paint0_linear_208_58694" x1="8.61673" y1="11.464" x2="8.61673" y2="16.6356" gradientUnits="userSpaceOnUse">
<stop stop-color="#22A84F"/>
<stop offset="1" stop-color="#2FFF76"/>
</linearGradient>
<linearGradient id="paint1_linear_208_58694" x1="8.61628" y1="0.258839" x2="8.61628" y2="12.3259" gradientUnits="userSpaceOnUse">
<stop stop-color="#F1F600"/>
<stop offset="0.271394" stop-color="#FFF16C"/>
<stop offset="0.648448" stop-color="#D07F06"/>
</linearGradient>
</defs>
</svg>
