<svg width="36" height="36" viewBox="0 0 36 36" fill="none" xmlns="http://www.w3.org/2000/svg">
<path d="M18 36C27.9411 36 36 27.9411 36 18C36 8.05887 27.9411 0 18 0C8.05887 0 0 8.05887 0 18C0 27.9411 8.05887 36 18 36Z" fill="#0E60AC"/>
<path d="M26.0025 9.53851C25.7667 10.2647 24.9163 10.5812 24.3453 10.9785C23.6028 11.5412 22.7888 12.0025 21.9245 12.3502C21.0618 12.6606 20.0687 12.704 19.2928 13.2068C18.517 13.7095 18.5604 14.4358 18.6597 15.2426C18.7025 15.4438 18.6524 15.6536 18.5232 15.8136C18.2945 15.9826 17.9872 15.9997 17.7411 15.8571C17.1638 15.6212 16.6549 15.2364 16.0156 15.5033C15.4481 15.7521 15.0858 16.3175 15.0969 16.9371C15.0969 18.2592 16.239 18.9853 17.1514 19.724C17.4121 19.9412 18.5914 21.2012 17.89 21.493C17.7427 21.5331 17.5865 21.5266 17.4431 21.4743C16.09 21.133 14.7369 20.7978 13.3838 20.4688C12.2542 20.1957 11.0066 19.8357 10.4417 18.824C9.96383 17.9674 10.1004 16.844 9.52311 16.0619C9.01412 15.3729 8.11412 15.1433 7.29484 14.9074C6.47556 14.6716 5.58793 14.2805 5.28383 13.4861C4.78728 12.1764 6.20865 10.7736 5.86109 9.41434C5.53217 8.14196 4.19771 8.03649 3.1798 8.48959C2.96183 8.58366 2.76383 8.71852 2.59634 8.88685L2.51562 8.80613C4.85773 4.85113 8.62775 1.94532 13.0487 0.6875C13.7401 1.74507 14.8963 2.40741 16.1584 2.46887C17.2011 2.51851 18.2376 2.10268 19.2122 2.71714C19.7536 3.02623 20.0226 3.6582 19.8701 4.26268C19.5845 5.0634 18.3928 5.46059 18.4674 6.30477C18.5294 6.97512 19.4046 7.26059 20.0563 7.10548C20.7081 6.9503 21.2915 6.54066 21.9619 6.44131C23.0046 6.29232 23.9729 6.93786 24.8294 7.55232C25.4998 8.03649 26.2545 8.75649 26.0025 9.53851Z" fill="#FFA722"/>
<path d="M29.5982 31.7548C26.3647 34.4859 22.2673 35.9815 18.0347 35.9756C17.0909 35.977 16.1486 35.9022 15.2168 35.7521C14.9219 35.5897 14.636 35.4114 14.3603 35.2183C13.6861 34.8013 13.2436 34.0951 13.1624 33.3066C13.1933 32.8342 13.3381 32.3763 13.5844 31.9721C13.8886 31.3762 13.8389 30.6066 14.2983 30.0976C14.6893 29.6694 15.2913 29.5576 15.7444 29.2101C16.1714 28.8651 16.5258 28.439 16.7872 27.9563C17.0954 27.2072 17.4869 26.4952 17.9541 25.8335C18.761 24.9832 20.0954 25.3308 21.0141 25.7715C22.0223 26.2281 22.949 26.8466 23.7575 27.6025C24.5658 28.4594 25.426 29.2658 26.3334 30.0169C27.325 30.762 28.4264 31.3482 29.5982 31.7548Z" fill="#FFA722"/>
</svg>
