<svg width="182" height="92" viewBox="0 0 182 92" fill="none" xmlns="http://www.w3.org/2000/svg">
<rect x="0.273071" y="0.273071" width="180.809" height="91.4539" rx="1.36536" stroke="white" stroke-width="0.546142"/>
<line x1="91.941" y1="-1.20206e-08" x2="91.941" y2="92" stroke="white" stroke-width="0.55"/>
<rect x="0.273071" y="20.7477" width="29.164" height="50.2087" stroke="white" stroke-width="0.546142"/>
<rect x="0.273071" y="33.7457" width="9.97619" height="24.8313" stroke="white" stroke-width="0.546142"/>
<mask id="path-5-inside-1_1303_230361" fill="white">
<path fill-rule="evenodd" clip-rule="evenodd" d="M29.0913 53.8967C33.2632 53.779 36.609 50.3601 36.609 46.1598C36.609 41.9594 33.2632 38.5405 29.0913 38.4229V53.8967Z"/>
</mask>
<path d="M29.0913 53.8967H28.5452V54.4584L29.1067 54.4426L29.0913 53.8967ZM29.0913 38.4229L29.1067 37.8769L28.5452 37.8611V38.4229H29.0913ZM36.0629 46.1598C36.0629 50.0636 32.9531 53.2414 29.0759 53.3507L29.1067 54.4426C33.5733 54.3166 37.1551 50.6566 37.1551 46.1598H36.0629ZM29.0759 38.9688C32.9531 39.0781 36.0629 42.2559 36.0629 46.1598H37.1551C37.1551 41.6629 33.5733 38.0029 29.1067 37.8769L29.0759 38.9688ZM28.5452 38.4229V53.8967H29.6375V38.4229H28.5452Z" fill="white" mask="url(#path-5-inside-1_1303_230361)"/>
<rect x="-0.273071" y="0.273071" width="29.164" height="50.2087" transform="matrix(-1 0 0 1 180.903 20.4746)" stroke="white" stroke-width="0.546142"/>
<rect x="-0.273071" y="0.273071" width="9.97619" height="24.8313" transform="matrix(-1 0 0 1 180.903 33.4727)" stroke="white" stroke-width="0.546142"/>
<mask id="path-9-inside-2_1303_230361" fill="white">
<path fill-rule="evenodd" clip-rule="evenodd" d="M152.356 53.8947C148.184 53.777 144.838 50.3581 144.838 46.1578C144.838 41.9575 148.184 38.5386 152.356 38.4209V53.8947Z"/>
</mask>
<path d="M152.356 53.8947H152.902V54.4565L152.341 54.4406L152.356 53.8947ZM152.356 38.4209L152.341 37.875L152.902 37.8591V38.4209H152.356ZM145.384 46.1578C145.384 50.0617 148.494 53.2394 152.371 53.3488L152.341 54.4406C147.874 54.3146 144.292 50.6546 144.292 46.1578H145.384ZM152.371 38.9668C148.494 39.0762 145.384 42.2539 145.384 46.1578H144.292C144.292 41.661 147.874 38.001 152.341 37.875L152.371 38.9668ZM152.902 38.4209V53.8947H151.81V38.4209H152.902Z" fill="white" mask="url(#path-9-inside-2_1303_230361)"/>
<circle cx="1.5" cy="1.5" r="1.5" transform="matrix(-1 0 0 1 93.666 44)" fill="white"/>
<circle cx="91.6054" cy="45.6171" r="13.3441" stroke="white" stroke-width="0.546142"/>
</svg>
