<svg width="21" height="11" viewBox="0 0 21 11" fill="none" xmlns="http://www.w3.org/2000/svg">
<g clip-path="url(#clip0_413_84443)">
<path d="M21 0.901639V10.0984C21 10.3388 20.906 10.5492 20.7181 10.7295C20.5302 10.9098 20.311 11 20.0604 11H0.939597C0.689037 11 0.4698 10.9098 0.281879 10.7295C0.0939588 10.5492 0 10.3388 0 10.0984V0.901639C0 0.661201 0.0939588 0.450821 0.281879 0.270492C0.4698 0.0901631 0.689037 0 0.939597 0H20.0604C20.311 0 20.5302 0.0901631 20.7181 0.270492C20.906 0.450821 21 0.661201 21 0.901639ZM17.4295 2.16393C17.4295 2.28415 17.4922 2.34426 17.6174 2.34426H18.604V3.29098C18.604 3.4112 18.6667 3.47131 18.7919 3.47131H19.5906H19.6376C19.7629 3.47131 19.8255 3.4112 19.8255 3.29098V1.35246C19.8255 1.23224 19.7629 1.17213 19.6376 1.17213H19.5906H17.6174C17.4922 1.17213 17.4295 1.23224 17.4295 1.35246V2.16393ZM3.61745 8.83607C3.61745 8.71585 3.55481 8.65574 3.42953 8.65574H3.38255H2.39597V7.70902C2.39597 7.5888 2.33333 7.52869 2.20805 7.52869H1.4094C1.28412 7.52869 1.22148 7.5888 1.22148 7.70902V9.64754C1.22148 9.76776 1.28412 9.82787 1.4094 9.82787H3.38255H3.42953C3.55481 9.82787 3.61745 9.76776 3.61745 9.64754V8.83607ZM3.61745 1.35246C3.61745 1.23224 3.55481 1.17213 3.42953 1.17213H1.4094C1.28412 1.17213 1.22148 1.23224 1.22148 1.35246V3.29098C1.22148 3.4112 1.28412 3.47131 1.4094 3.47131H2.20805C2.33333 3.47131 2.39597 3.4112 2.39597 3.29098V2.34426H3.42953C3.55481 2.34426 3.61745 2.26913 3.61745 2.11885V1.35246ZM7.32886 8.56557C8.20582 9.40711 9.27069 9.82787 10.5235 9.82787C11.7763 9.82787 12.8412 9.40711 13.7181 8.56557C14.5951 7.72404 15.0336 6.70219 15.0336 5.5C15.0336 4.29781 14.5951 3.27596 13.7181 2.43443C12.8412 1.59289 11.7763 1.17213 10.5235 1.17213C9.27069 1.17213 8.20582 1.59289 7.32886 2.43443C6.4519 3.27596 6.01342 4.29781 6.01342 5.5C6.01342 6.70219 6.4519 7.72404 7.32886 8.56557ZM19.8255 7.70902C19.8255 7.5888 19.7629 7.52869 19.6376 7.52869H18.7919C18.6667 7.52869 18.604 7.5888 18.604 7.70902V8.65574H17.6174C17.4922 8.65574 17.4295 8.73087 17.4295 8.88115V9.64754C17.4295 9.76776 17.4922 9.82787 17.6174 9.82787H19.6376C19.7629 9.82787 19.8255 9.76776 19.8255 9.64754V7.70902ZM8.1745 3.2459C8.83222 2.61475 9.61521 2.29918 10.5235 2.29918C11.4318 2.29918 12.2069 2.61475 12.849 3.2459C13.4911 3.87705 13.8121 4.62841 13.8121 5.5C13.8121 6.22132 13.6242 6.8224 13.2483 7.30328C13.2483 7.12295 13.1857 7.00273 13.0604 6.94262L11.745 6.35656L11.1812 6.08607C11.4004 5.96585 11.5884 5.75547 11.745 5.45492C11.8389 5.24453 11.8859 5.0041 11.8859 4.73361C11.8859 4.55328 11.8702 4.41803 11.8389 4.32787C11.6197 3.5765 11.1812 3.20082 10.5235 3.20082C9.83445 3.20082 9.38031 3.56147 9.16107 4.28279C9.12975 4.37295 9.11409 4.52322 9.11409 4.73361C9.11409 4.94399 9.17673 5.19945 9.30201 5.5C9.45861 5.80055 9.64653 6.01093 9.86577 6.13115L9.34899 6.35656L7.98658 6.94262C7.8613 6.97268 7.79866 7.0929 7.79866 7.30328C7.3915 6.76229 7.18792 6.16121 7.18792 5.5C7.18792 4.62841 7.51678 3.87705 8.1745 3.2459Z" fill="#AAAAAA"/>
</g>
<defs>
<clipPath id="clip0_413_84443">
<rect width="21" height="11" fill="white"/>
</clipPath>
</defs>
</svg>
