<svg width="32" height="32" viewBox="0 0 32 32" fill="currentColor" xmlns="http://www.w3.org/2000/svg">
  <g filter="url(#filter0_d_494_22806)">
  <rect x="4" width="24" height="24" rx="12" fill="currentColor"/>
  </g>
  <g clip-path="url(#clip0_494_22806)">
  <path d="M15.9997 8.57115C15.5265 8.57115 15.0845 8.6649 14.6738 8.8524C14.2542 9.03097 13.8881 9.27427 13.5756 9.58231C13.2631 9.89035 13.0176 10.2542 12.839 10.6738C12.6604 11.0935 12.5711 11.5354 12.5711 11.9997C12.5711 12.4729 12.6604 12.9194 12.839 13.339C13.0176 13.7497 13.2631 14.1113 13.5756 14.4238C13.8881 14.7363 14.2542 14.9819 14.6738 15.1604C15.0845 15.339 15.5265 15.4283 15.9997 15.4283C16.4729 15.4283 16.9149 15.339 17.3256 15.1604C17.7453 14.9819 18.1113 14.7363 18.4238 14.4238C18.7363 14.1113 18.9819 13.7497 19.1604 13.339C19.339 12.9194 19.4283 12.4729 19.4283 11.9997C19.4283 11.5354 19.339 11.0935 19.1604 10.6738C18.9819 10.2542 18.7363 9.89035 18.4238 9.58231C18.1113 9.27427 17.7453 9.03097 17.3256 8.8524C16.9149 8.6649 16.4729 8.57115 15.9997 8.57115ZM15.9997 14.2899C15.3747 14.2899 14.8368 14.0667 14.3859 13.6203C13.935 13.1738 13.7095 12.6337 13.7095 11.9997C13.7095 11.3747 13.935 10.839 14.3859 10.3926C14.8368 9.94615 15.3747 9.72294 15.9997 9.72294C16.6247 9.72294 17.1627 9.94615 17.6136 10.3926C18.0645 10.839 18.2899 11.3747 18.2899 11.9997C18.2899 12.6337 18.0645 13.1738 17.6136 13.6203C17.1627 14.0667 16.6247 14.2899 15.9997 14.2899ZM15.9997 7.43276C16.1694 7.43276 16.3078 7.38142 16.4149 7.27874C16.522 7.17606 16.5756 7.03544 16.5756 6.85686V5.71847C16.5756 5.54883 16.522 5.41044 16.4149 5.30329C16.3078 5.19615 16.1694 5.14258 15.9997 5.14258C15.8301 5.14258 15.6917 5.19615 15.5845 5.30329C15.4774 5.41044 15.4238 5.54883 15.4238 5.71847V6.85686C15.4238 7.03544 15.4774 7.17606 15.5845 7.27874C15.6917 7.38142 15.8301 7.43276 15.9997 7.43276ZM15.9997 16.5801C15.8301 16.5801 15.6917 16.6314 15.5845 16.7341C15.4774 16.8368 15.4238 16.9729 15.4238 17.1426V18.2944C15.4238 18.464 15.4774 18.6002 15.5845 18.7028C15.6917 18.8055 15.8301 18.8569 15.9997 18.8569C16.1694 18.8569 16.3078 18.8055 16.4149 18.7028C16.522 18.6002 16.5756 18.464 16.5756 18.2944V17.1426C16.5756 16.9729 16.522 16.8368 16.4149 16.7341C16.3078 16.6314 16.1694 16.5801 15.9997 16.5801ZM11.9417 8.74526C11.9953 8.80776 12.0622 8.8524 12.1426 8.87919C12.2229 8.90597 12.2899 8.91936 12.3435 8.91936C12.397 8.91936 12.4618 8.90597 12.5377 8.87919C12.6136 8.8524 12.6828 8.80776 12.7453 8.74526C12.8613 8.62918 12.9194 8.49526 12.9194 8.34347C12.9194 8.19168 12.8613 8.05776 12.7453 7.94169L11.9417 7.15151C11.8256 7.03543 11.6917 6.9774 11.5399 6.9774C11.3881 6.9774 11.2542 7.03543 11.1381 7.15151C11.031 7.25865 10.9774 7.39035 10.9774 7.5466C10.9774 7.70285 11.031 7.83454 11.1381 7.94169L11.9417 8.74526ZM20.0578 15.2676C19.9417 15.1515 19.8078 15.0935 19.656 15.0935C19.5042 15.0935 19.3703 15.1515 19.2542 15.2676C19.1381 15.3747 19.0801 15.5042 19.0801 15.656C19.0801 15.8078 19.1381 15.9417 19.2542 16.0578L20.0578 16.8613C20.1113 16.9149 20.1761 16.9573 20.252 16.9886C20.3278 17.0198 20.397 17.0354 20.4595 17.0354C20.5131 17.0354 20.5778 17.0198 20.6537 16.9886C20.7296 16.9573 20.7988 16.9149 20.8613 16.8613C20.9685 16.7453 21.022 16.6113 21.022 16.4595C21.022 16.3078 20.9685 16.1738 20.8613 16.0578L20.0578 15.2676ZM11.4328 11.9997C11.4328 11.8301 11.3792 11.6939 11.272 11.5912C11.1649 11.4886 11.0265 11.4372 10.8569 11.4372H9.71847C9.5399 11.4372 9.39928 11.4886 9.2966 11.5912C9.19392 11.6939 9.14258 11.8301 9.14258 11.9997C9.14258 12.1783 9.19392 12.3189 9.2966 12.4216C9.39928 12.5243 9.5399 12.5756 9.71847 12.5756H10.8569C11.0265 12.5756 11.1649 12.5243 11.272 12.4216C11.3792 12.3189 11.4328 12.1783 11.4328 11.9997ZM22.281 11.4372H21.1426C20.9729 11.4372 20.8345 11.4886 20.7274 11.5912C20.6203 11.6939 20.5667 11.8301 20.5667 11.9997C20.5667 12.1783 20.6203 12.3189 20.7274 12.4216C20.8345 12.5243 20.9729 12.5756 21.1426 12.5756H22.281C22.4595 12.5756 22.6002 12.5243 22.7028 12.4216C22.8055 12.3189 22.8569 12.1783 22.8569 11.9997C22.8569 11.8301 22.8055 11.6939 22.7028 11.5912C22.6002 11.4886 22.4595 11.4372 22.281 11.4372ZM11.9417 15.2676L11.1381 16.0578C11.031 16.1738 10.9774 16.3078 10.9774 16.4595C10.9774 16.6113 11.031 16.7453 11.1381 16.8613C11.2006 16.9149 11.2698 16.9573 11.3457 16.9886C11.4216 17.0198 11.4863 17.0354 11.5399 17.0354C11.6024 17.0354 11.6716 17.0198 11.7475 16.9886C11.8234 16.9573 11.8881 16.9149 11.9417 16.8613L12.7453 16.0578C12.8613 15.9417 12.9194 15.8078 12.9194 15.656C12.9194 15.5042 12.8613 15.3747 12.7453 15.2676C12.6292 15.1515 12.4953 15.0935 12.3435 15.0935C12.1917 15.0935 12.0578 15.1515 11.9417 15.2676ZM19.656 8.91936C19.7453 8.91936 19.8212 8.90597 19.8837 8.87919C19.9462 8.8524 20.0042 8.80776 20.0578 8.74526L20.8613 7.94169C20.9685 7.83454 21.022 7.70285 21.022 7.5466C21.022 7.39035 20.9685 7.25865 20.8613 7.15151C20.7453 7.03543 20.6113 6.9774 20.4595 6.9774C20.3078 6.9774 20.1738 7.03543 20.0578 7.15151L19.2542 7.94169C19.1381 8.05776 19.0801 8.19168 19.0801 8.34347C19.0801 8.49526 19.1381 8.62918 19.2542 8.74526C19.281 8.80776 19.3323 8.8524 19.4082 8.87919C19.4841 8.90597 19.5667 8.91936 19.656 8.91936Z" fill="#1A1D23"/>
  </g>
  <defs>
  <filter id="filter0_d_494_22806" x="0" y="0" width="32" height="32" filterUnits="userSpaceOnUse" color-interpolation-filters="sRGB">
  <feFlood flood-opacity="0" result="BackgroundImageFix"/>
  <feColorMatrix in="SourceAlpha" type="matrix" values="0 0 0 0 0 0 0 0 0 0 0 0 0 0 0 0 0 0 127 0" result="hardAlpha"/>
  <feOffset dy="4"/>
  <feGaussianBlur stdDeviation="2"/>
  <feComposite in2="hardAlpha" operator="out"/>
  <feColorMatrix type="matrix" values="0 0 0 0 0 0 0 0 0 0 0 0 0 0 0 0 0 0 0.25 0"/>
  <feBlend mode="normal" in2="BackgroundImageFix" result="effect1_dropShadow_494_22806"/>
  <feBlend mode="normal" in="SourceGraphic" in2="effect1_dropShadow_494_22806" result="shape"/>
  </filter>
  <clipPath id="clip0_494_22806">
  <rect width="13.7143" height="13.7143" fill="currentColor" transform="translate(9.14258 5.14258)"/>
  </clipPath>
  </defs>
</svg>
