<svg width="16" height="16" viewBox="0 0 16 16" fill="none" xmlns="http://www.w3.org/2000/svg">
    <path d="M14.25 9V13C14.25 13.1989 14.171 13.3897 14.0303 13.5303C13.8897 13.671 13.6989 13.75 13.5 13.75H2.5C2.30109 13.75 2.11032 13.671 1.96967 13.5303C1.82902 13.3897 1.75 13.1989 1.75 13V9C1.75 8.80109 1.82902 8.61032 1.96967 8.46967C2.11032 8.32902 2.30109 8.25 2.5 8.25C2.69891 8.25 2.88968 8.32902 3.03033 8.46967C3.17098 8.61032 3.25 8.80109 3.25 9V12.25H12.75V9C12.75 8.80109 12.829 8.61032 12.9697 8.46967C13.1103 8.32902 13.3011 8.25 13.5 8.25C13.6989 8.25 13.8897 8.32902 14.0303 8.46967C14.171 8.61032 14.25 8.80109 14.25 9ZM7.46938 9.53063C7.53905 9.60054 7.62185 9.65602 7.71301 9.69388C7.80417 9.73173 7.90191 9.75122 8.00062 9.75122C8.09934 9.75122 8.19707 9.73173 8.28824 9.69388C8.3794 9.65602 8.4622 9.60054 8.53187 9.53063L11.0319 7.03062C11.1728 6.88973 11.2519 6.69863 11.2519 6.49937C11.2519 6.30012 11.1728 6.10902 11.0319 5.96812C10.891 5.82723 10.6999 5.74807 10.5006 5.74807C10.3014 5.74807 10.1103 5.82723 9.96937 5.96812L8.75 7.1875V2C8.75 1.80109 8.67098 1.61032 8.53033 1.46967C8.38968 1.32902 8.19891 1.25 8 1.25C7.80109 1.25 7.61032 1.32902 7.46967 1.46967C7.32902 1.61032 7.25 1.80109 7.25 2V7.1875L6.03062 5.96938C5.96086 5.89961 5.87804 5.84427 5.78689 5.80651C5.69573 5.76876 5.59804 5.74932 5.49937 5.74932C5.30012 5.74932 5.10902 5.82848 4.96812 5.96938C4.89836 6.03914 4.84302 6.12196 4.80526 6.21311C4.76751 6.30427 4.74807 6.40196 4.74807 6.50063C4.74807 6.69988 4.82723 6.89098 4.96812 7.03188L7.46938 9.53063Z"
          fill="white"/>
</svg>
