<svg width="38" height="38" viewBox="0 0 38 38" fill="none" xmlns="http://www.w3.org/2000/svg">
<g id="Icon">
<g id="Ellipse 109" filter="url(#filter0_f_1670_193334)">
<circle cx="19.0002" cy="18.9997" r="10.4831" fill="#07245D" fill-opacity="0.95"/>
</g>
<circle id="Ellipse 108" cx="19" cy="19" r="11.6749" fill="#001338" fill-opacity="0.95" stroke="#091557" stroke-width="0.650113"/>
<g id="Mask group">
<mask id="mask0_1670_193334" style="mask-type:alpha" maskUnits="userSpaceOnUse" x="7" y="7" width="24" height="24">
<circle id="Ellipse 107" cx="19.0003" cy="18.9998" r="11.2957" fill="#020C20"/>
</mask>
<g mask="url(#mask0_1670_193334)">
<g id="Mask group_2">
<mask id="mask1_1670_193334" style="mask-type:luminance" maskUnits="userSpaceOnUse" x="10" y="13" width="18" height="18">
<path id="a" d="M10.3052 13.6095H27.6957V31H10.3052V13.6095Z" fill="white"/>
</mask>
<g mask="url(#mask1_1670_193334)">
<g id="Group">
<path id="Vector" d="M21.4778 14.3353L25.5966 18.4541C25.6815 18.5391 25.7489 18.64 25.7949 18.7511C25.8409 18.8621 25.8646 18.9811 25.8645 19.1013C25.7102 19.1012 25.7102 19.1016 25.5264 19.1016C25.4091 19.1012 25.0619 19.1012 24.9223 19.1012C24.8159 19.1016 24.5908 19.1016 24.1431 19.1014C23.7792 19.1008 23.8005 19.1018 23.3864 19.1013C23.1555 19.1011 22.9992 19.1015 22.6593 19.1011H22.0667L21.7156 19.1012C21.2505 19.0002 20.8005 18.7002 20.8365 18.1003V15.4969C20.8365 15.2687 20.8363 15.2325 20.8363 14.8834C20.84 14.6454 20.8364 14.7253 20.8365 14.5003C20.8367 14.2753 20.8364 14.3503 20.8364 14.0867C21.0744 14.083 21.3044 14.1722 21.4778 14.3353Z" fill="url(#paint0_linear_1670_193334)"/>
<path id="Vector_2" d="M20.8305 14.0668H13.9658C13.4803 14.0668 13.0147 14.2596 12.6714 14.6029C12.3281 14.9462 12.1353 15.4118 12.1353 15.8973V28.7114C12.1353 29.1969 12.3281 29.6625 12.6714 30.0058C13.0147 30.3491 13.4803 30.542 13.9658 30.542H24.034C24.5195 30.542 24.9851 30.3491 25.3284 30.0058C25.6717 29.6625 25.8646 29.1969 25.8646 28.7114V19.1009H21.7458C21.2882 19.1009 20.8305 18.6432 20.8305 18.1856V14.0668Z" fill="white"/>
<path id="Vector_3" d="M20.8298 14.0672H19.9146V18.186C19.9146 18.6715 20.1074 19.1371 20.4507 19.4804C20.794 19.8237 21.2596 20.0166 21.7451 20.0166H25.8639V19.1013H21.7451C21.2875 19.1013 20.8298 18.6437 20.8298 18.186V14.0672Z" fill="#001338" fill-opacity="0.95"/>
<path id="Vector_4" d="M18.5423 19.1595C18.5423 19.2809 18.4941 19.3973 18.4082 19.4831C18.3224 19.569 18.206 19.6172 18.0846 19.6172H14.4235C14.3021 19.6172 14.1857 19.569 14.0999 19.4831C14.014 19.3973 13.9658 19.2809 13.9658 19.1595C13.9658 19.0382 14.014 18.9218 14.0999 18.8359C14.1857 18.7501 14.3021 18.7019 14.4235 18.7019H18.0846C18.206 18.7019 18.3224 18.7501 18.4082 18.8359C18.4941 18.9218 18.5423 19.0382 18.5423 19.1595Z" fill="#001338" fill-opacity="0.95"/>
<path id="Vector_5" d="M18.5423 26.1478C18.5423 26.2692 18.4941 26.3856 18.4082 26.4714C18.3224 26.5573 18.206 26.6055 18.0846 26.6055H14.4235C14.3021 26.6055 14.1857 26.5573 14.0999 26.4714C14.014 26.3856 13.9658 26.2692 13.9658 26.1478C13.9658 26.0264 14.014 25.91 14.0999 25.8242C14.1857 25.7384 14.3021 25.6902 14.4235 25.6902H18.0846C18.206 25.6902 18.3224 25.7384 18.4082 25.8242C18.4941 25.91 18.5423 26.0264 18.5423 26.1478Z" fill="#001338" fill-opacity="0.95"/>
<path id="Vector_6" d="M24.034 21.3802C24.034 21.5016 23.9858 21.618 23.9 21.7038C23.8141 21.7897 23.6977 21.8379 23.5764 21.8379H14.4235C14.3021 21.8379 14.1857 21.7897 14.0999 21.7038C14.014 21.618 13.9658 21.5016 13.9658 21.3802C13.9658 21.2589 14.014 21.1425 14.0999 21.0566C14.1857 20.9708 14.3021 20.9226 14.4235 20.9226H23.5764C23.6977 20.9226 23.8141 20.9708 23.9 21.0566C23.9858 21.1425 24.034 21.2589 24.034 21.3802Z" fill="#001338" fill-opacity="0.95"/>
<path id="Vector_7" d="M22.3319 23.5991C22.3319 23.7212 22.2919 23.8383 22.2208 23.9247C22.1497 24.0111 22.0532 24.0596 21.9527 24.0596H14.368C14.2674 24.0596 14.171 24.0111 14.0998 23.9247C14.0287 23.8383 13.9888 23.7212 13.9888 23.5991C13.9888 23.4769 14.0287 23.3598 14.0998 23.2735C14.171 23.1871 14.2674 23.1386 14.368 23.1386H21.9527C22.0532 23.1386 22.1497 23.1871 22.2208 23.2735C22.2919 23.3598 22.3319 23.4769 22.3319 23.5991Z" fill="#001338" fill-opacity="0.95"/>
</g>
</g>
</g>
<g id="Group 116">
<path id="Vector_8" d="M24.4695 26.52L24.2873 26.6898L23.7466 26.1102L23.5547 25.9042L23.7368 25.7344L23.9288 25.9403L24.4695 26.52Z" fill="#2187E5"/>
<path id="Vector_9" d="M23.9288 25.9404C23.8997 25.9698 23.8699 25.9987 23.8395 26.0271C23.8091 26.0555 23.778 26.0834 23.7466 26.1102L23.5547 25.9042L23.7373 25.7344L23.9288 25.9404ZM24.4987 26.5474C24.4696 26.5768 24.4398 26.6057 24.4094 26.6341C24.379 26.6624 24.3479 26.6903 24.3165 26.7171L24.1246 26.5112L24.3072 26.3413L24.4987 26.5474Z" fill="#091557"/>
<path id="Vector_10" d="M24.685 23.8162C24.6639 24.4103 24.4672 24.9848 24.1197 25.4672C23.7723 25.9496 23.2896 26.3182 22.7328 26.5265C22.176 26.7347 21.5699 26.7733 20.9912 26.6373C20.4125 26.5013 19.887 26.1969 19.4812 25.7625C18.9374 25.1793 18.6474 24.4039 18.6752 23.6069C18.7029 22.81 19.0461 22.0567 19.6292 21.5127C20.8414 20.3818 22.748 20.4481 23.8788 21.6606C24.149 21.9487 24.3595 22.2876 24.4978 22.6576C24.6362 23.0276 24.6998 23.4214 24.685 23.8162Z" fill="url(#paint1_linear_1670_193334)"/>
<path id="Vector_11" d="M24.1237 23.798C24.1017 24.4309 23.835 25.0305 23.3797 25.4707C22.9243 25.9108 22.316 26.1571 21.6827 26.1576C21.6538 26.1576 21.6248 26.1571 21.5955 26.1561C21.4437 26.1509 21.2927 26.1317 21.1444 26.0988C20.862 26.036 20.5931 25.9231 20.3506 25.7654C20.183 25.6561 20.0293 25.5269 19.893 25.3805C19.4558 24.9055 19.2243 24.2769 19.2488 23.6318C19.2734 22.9867 19.5522 22.3775 20.0242 21.9372C20.4963 21.4969 21.1234 21.2612 21.7686 21.2815C22.4138 21.3018 23.0248 21.5765 23.4683 22.0456C23.566 22.1503 23.6545 22.2633 23.7326 22.3834C23.8905 22.6257 24.0036 22.8943 24.0666 23.1766C24.1119 23.3805 24.1311 23.5893 24.1237 23.798Z" fill="white"/>
<path id="Vector_12" d="M26.7161 29.037C26.6133 29.1333 26.4777 29.1867 26.3369 29.1865H26.3171C26.2442 29.1842 26.1725 29.1675 26.1061 29.1373C26.0397 29.1071 25.9799 29.0641 25.9302 29.0108L23.8848 26.8961L24.6984 26.1367L26.7435 28.2502C26.844 28.3583 26.8975 28.5018 26.8924 28.6493C26.8873 28.7968 26.8239 28.9362 26.7161 29.037Z" fill="#0A269E"/>
<path id="Vector_13" d="M26.7885 28.9541C26.7371 29.0259 26.6693 29.0844 26.5908 29.1249C26.5123 29.1653 26.4252 29.1864 26.3369 29.1865H26.3171C26.2442 29.1842 26.1724 29.1674 26.106 29.1371C26.0396 29.1068 25.9799 29.0637 25.9302 29.0102L23.8848 26.8955L24.0166 26.7725L26.0577 28.8823C26.1074 28.9357 26.1672 28.9788 26.2336 29.009C26.3 29.0391 26.3717 29.0559 26.4446 29.0582H26.4644C26.5807 29.0585 26.6941 29.022 26.7885 28.9541Z" fill="white"/>
<path id="Vector_14" d="M24.687 26.3867L26.6131 28.3128" stroke="#020C20" stroke-width="0.162528" stroke-linecap="round" stroke-linejoin="round"/>
<path id="Union" fill-rule="evenodd" clip-rule="evenodd" d="M20.5154 24.3902C20.404 24.5016 20.404 24.6823 20.5154 24.7937C20.6268 24.9051 20.8075 24.9051 20.919 24.7937L21.6256 24.0871L22.3321 24.7936C22.4435 24.9051 22.6242 24.9051 22.7356 24.7936C22.8471 24.6822 22.8471 24.5015 22.7356 24.3901L22.0291 23.6835L22.7349 22.9778C22.8463 22.8663 22.8463 22.6857 22.7349 22.5742C22.6234 22.4628 22.4428 22.4628 22.3313 22.5742L21.6256 23.28L20.9197 22.5742C20.8083 22.4627 20.6276 22.4627 20.5162 22.5742C20.4047 22.6856 20.4047 22.8663 20.5162 22.9777L21.222 23.6835L20.5154 24.3902Z" fill="#FF4F75"/>
<path id="Union_2" fill-rule="evenodd" clip-rule="evenodd" d="M20.5154 24.3902C20.404 24.5016 20.404 24.6823 20.5154 24.7937C20.6268 24.9051 20.8075 24.9051 20.919 24.7937L21.6256 24.0871L22.3321 24.7936C22.4435 24.9051 22.6242 24.9051 22.7356 24.7936C22.8471 24.6822 22.8471 24.5015 22.7356 24.3901L22.0291 23.6835L22.7349 22.9778C22.8463 22.8663 22.8463 22.6857 22.7349 22.5742C22.6234 22.4628 22.4428 22.4628 22.3313 22.5742L21.6256 23.28L20.9197 22.5742C20.8083 22.4627 20.6276 22.4627 20.5162 22.5742C20.4047 22.6856 20.4047 22.8663 20.5162 22.9777L21.222 23.6835L20.5154 24.3902Z" fill="#F6B500"/>
</g>
</g>
</g>
</g>
<defs>
<filter id="filter0_f_1670_193334" x="0.390678" y="0.39019" width="37.2191" height="37.2186" filterUnits="userSpaceOnUse" color-interpolation-filters="sRGB">
<feFlood flood-opacity="0" result="BackgroundImageFix"/>
<feBlend mode="normal" in="SourceGraphic" in2="BackgroundImageFix" result="shape"/>
<feGaussianBlur stdDeviation="4.06321" result="effect1_foregroundBlur_1670_193334"/>
</filter>
<linearGradient id="paint0_linear_1670_193334" x1="21.1774" y1="19.1016" x2="20.6366" y2="14.5899" gradientUnits="userSpaceOnUse">
<stop offset="0.57" stop-color="#091557"/>
<stop offset="0.82" stop-color="#001F7B"/>
<stop offset="1" stop-color="#00289F"/>
</linearGradient>
<linearGradient id="paint1_linear_1670_193334" x1="19.0834" y1="20.7061" x2="18.4335" y2="26.1133" gradientUnits="userSpaceOnUse">
<stop stop-color="#00289F"/>
<stop offset="0.226562" stop-color="#001F7B"/>
<stop offset="0.49762" stop-color="#091557"/>
</linearGradient>
</defs>
</svg>
