<svg width="126" height="126" viewBox="0 0 126 126" fill="none" xmlns="http://www.w3.org/2000/svg">
<g filter="url(#filter0_f_1670_193451)">
<circle cx="63.0022" cy="62.9992" r="34.9436" fill="#07245D" fill-opacity="0.95"/>
</g>
<circle cx="63" cy="63" r="38.9165" fill="#001338" fill-opacity="0.95" stroke="#091557" stroke-width="2.16704"/>
<mask id="mask0_1670_193451" style="mask-type:alpha" maskUnits="userSpaceOnUse" x="23" y="23" width="80" height="80">
<circle cx="63" cy="63" r="40" fill="#020C20"/>
</mask>
<g mask="url(#mask0_1670_193451)">
<path d="M41.8926 87.8629L67.749 108.67C89.0076 106.169 105.493 88.0887 105.493 66.1448C105.493 65.6848 105.484 65.2249 105.468 64.7733L83.3815 46.233L82.788 45.7061L82.2112 45.8567L81.0408 44.8949L78.0313 41.9094L75.607 45.3549L54.825 47.4121L48.5469 41.876L41.8926 49.8373L44.5426 63.8868L53.7048 71.0872L51.4477 80.2444L41.8926 87.8629V87.8629Z" fill="url(#paint0_linear_1670_193451)"/>
<path d="M77.369 44.0049H77.7541C82.1827 44.0049 85.7992 47.6089 85.7992 52.0037V82.043C85.7992 86.4461 82.1743 90.0419 77.7541 90.0419H77.369V55.383C79.0601 55.383 80.4246 54.018 80.4246 52.345C80.4246 50.6636 79.0517 49.3069 77.369 49.3069V44.0049V44.0049ZM47.9346 44.0049H77.369V49.2986C75.678 49.2986 74.305 50.6636 74.305 52.3367C74.305 54.018 75.678 55.3747 77.369 55.3747V90.0419H47.9346V55.383C49.6257 55.383 50.9986 54.018 50.9986 52.345C50.9986 50.6636 49.6257 49.3069 47.9346 49.3069V44.0049V44.0049ZM47.5412 44.0049H47.9263V49.2986C46.2352 49.2986 44.8706 50.6636 44.8706 52.3367C44.8706 54.018 46.2436 55.3747 47.9263 55.3747V90.0419H47.5412C43.1126 90.0419 39.4961 86.4378 39.4961 82.043V52.0037C39.4961 47.6089 43.121 44.0049 47.5412 44.0049V44.0049Z" fill="white"/>
<path d="M77.369 44.0049H77.7541C82.1827 44.0049 85.7992 47.6256 85.7992 52.0408V57.5765H77.369V55.4274C79.0601 55.4274 80.4246 54.0561 80.4246 52.3753C80.4246 50.6862 79.0517 49.3231 77.369 49.3231V44.0049V44.0049ZM47.9346 44.0049H77.369V49.3231C75.678 49.3231 74.305 50.6945 74.305 52.3753C74.305 54.0644 75.678 55.4274 77.369 55.4274V57.5765H47.9346V55.4274C49.6257 55.4274 50.9986 54.0561 50.9986 52.3753C50.9986 50.6862 49.6257 49.3231 47.9346 49.3231V44.0049V44.0049ZM47.5412 44.0049H47.9263V49.3231C46.2352 49.3231 44.8706 50.6945 44.8706 52.3753C44.8706 54.0644 46.2436 55.4274 47.9263 55.4274V57.5765H39.4961V52.0408C39.4961 47.6256 43.121 44.0049 47.5412 44.0049V44.0049Z" fill="url(#paint1_linear_1670_193451)"/>
<path d="M47.8769 41.6094C48.5324 41.6094 49.0702 42.1471 49.0702 42.8024V51.0608C49.0702 51.7161 48.5324 52.2538 47.8769 52.2538C47.2214 52.2538 46.6836 51.7161 46.6836 51.0608V42.8024C46.6836 42.1387 47.213 41.6094 47.8769 41.6094ZM77.4235 41.6094C78.0789 41.6094 78.6168 42.1471 78.6168 42.8024V51.0608C78.6168 51.7161 78.0789 52.2538 77.4235 52.2538C76.768 52.2538 76.2302 51.7161 76.2302 51.0608V42.8024C76.2386 42.1387 76.768 41.6094 77.4235 41.6094Z" fill="white"/>
<path d="M83.425 89.6315L82.7799 90.2331L80.8653 88.1803L80.1855 87.4512L80.8306 86.8496L81.5104 87.5788L83.425 89.6315Z" fill="#2187E5"/>
<path d="M81.5104 87.5793C81.4075 87.6834 81.3016 87.7857 81.194 87.8863C81.0864 87.9868 80.9764 88.0856 80.8653 88.1803L80.1855 87.4512L80.8324 86.8496L81.5104 87.5793ZM83.5285 89.7286C83.4256 89.8326 83.3197 89.935 83.2121 90.0355C83.1045 90.1361 82.9945 90.2349 82.8834 90.3295L82.2036 89.6004L82.8505 88.9988L83.5285 89.7286Z" fill="#091557"/>
<path d="M84.1886 80.0573C84.1139 82.1612 83.4173 84.1957 82.1869 85.904C80.9565 87.6122 79.2475 88.9175 77.2757 89.655C75.3039 90.3924 73.1578 90.5291 71.1084 90.0475C69.059 89.566 67.1982 88.488 65.7612 86.9496C63.8353 84.8843 62.8086 82.1386 62.9068 79.3164C63.0051 76.4942 64.2203 73.8266 66.2851 71.9003C70.5777 67.8959 77.3294 68.1305 81.3338 72.4242C82.2908 73.4445 83.0359 74.6445 83.5259 75.9548C84.0159 77.265 84.2412 78.6595 84.1886 80.0573V80.0573Z" fill="url(#paint2_linear_1670_193451)"/>
<path d="M82.2006 79.9908C82.1227 82.232 81.1782 84.3555 79.5658 85.9141C77.9535 87.4727 75.7992 88.3447 73.5566 88.3466C73.4543 88.3466 73.3514 88.3448 73.2479 88.3413C72.7103 88.3228 72.1755 88.2549 71.6503 88.1384C70.6503 87.9161 69.6983 87.5162 68.8395 86.9577C68.246 86.5708 67.7018 86.113 67.2189 85.5946C65.6708 83.9126 64.8508 81.6866 64.9379 79.4023C65.025 77.118 66.0121 74.9608 67.6838 73.4016C69.3554 71.8423 71.576 71.0076 73.8608 71.0795C76.1457 71.1514 78.3093 72.1241 79.8796 73.7854C80.2257 74.1562 80.539 74.5564 80.8158 74.9814C81.3749 75.8394 81.7754 76.7908 81.9983 77.7904C82.1589 78.5123 82.2269 79.2517 82.2006 79.9908V79.9908Z" fill="white"/>
<path d="M91.3838 98.5429C91.0198 98.8837 90.5395 99.073 90.0408 99.0721H89.9708C89.7126 99.064 89.4587 99.0048 89.2235 98.898C88.9884 98.7912 88.7767 98.639 88.6007 98.45L81.3574 90.9615L84.2387 88.2725L91.4808 95.7568C91.8366 96.1395 92.0261 96.6477 92.0079 97.1699C91.9898 97.6921 91.7653 98.1858 91.3838 98.5429V98.5429Z" fill="#0A269E"/>
<path d="M91.6402 98.2508C91.4581 98.5052 91.2181 98.7125 90.9399 98.8557C90.6618 98.9988 90.3536 99.0737 90.0408 99.0741H89.9708C89.7125 99.0656 89.4584 99.0061 89.2232 98.8989C88.9881 98.7917 88.7765 98.639 88.6007 98.4496L81.3574 90.9611L81.8243 90.5254L89.0523 97.9968C89.2282 98.1859 89.4399 98.3383 89.6751 98.4452C89.9102 98.5521 90.1642 98.6113 90.4224 98.6195H90.4924C90.9042 98.6205 91.3059 98.4915 91.6402 98.2508V98.2508Z" fill="white"/>
<path d="M84.1953 89.1582L91.0158 95.9787" stroke="#020C20" stroke-width="0.575539" stroke-linecap="round" stroke-linejoin="round"/>
<path fill-rule="evenodd" clip-rule="evenodd" d="M69.423 82.0929C69.0284 82.4875 69.0284 83.1273 69.423 83.5219C69.8177 83.9165 70.4574 83.9165 70.852 83.5219L73.3554 81.0186L75.8568 83.5201C76.2514 83.9147 76.8912 83.9147 77.2858 83.5201C77.6804 83.1255 77.6804 82.4857 77.2858 82.0911L74.7844 79.5896L77.2825 77.0914C77.6771 76.6968 77.6771 76.057 77.2825 75.6624C76.8879 75.2678 76.2481 75.2678 75.8535 75.6624L73.3554 78.1606L70.8553 75.6606C70.4607 75.266 69.8209 75.266 69.4263 75.6606C69.0317 76.0552 69.0317 76.695 69.4263 77.0896L71.9264 79.5896L69.423 82.0929Z" fill="#FF4F75"/>
<path fill-rule="evenodd" clip-rule="evenodd" d="M69.423 82.0929C69.0284 82.4875 69.0284 83.1273 69.423 83.5219C69.8177 83.9165 70.4574 83.9165 70.852 83.5219L73.3554 81.0186L75.8568 83.5201C76.2514 83.9147 76.8912 83.9147 77.2858 83.5201C77.6804 83.1255 77.6804 82.4857 77.2858 82.0911L74.7844 79.5896L77.2825 77.0914C77.6771 76.6968 77.6771 76.057 77.2825 75.6624C76.8879 75.2678 76.2481 75.2678 75.8535 75.6624L73.3554 78.1606L70.8553 75.6606C70.4607 75.266 69.8209 75.266 69.4263 75.6606C69.0317 76.0552 69.0317 76.695 69.4263 77.0896L71.9264 79.5896L69.423 82.0929Z" fill="#F6B500"/>
</g>
<defs>
<filter id="filter0_f_1670_193451" x="0.970556" y="0.967627" width="124.063" height="124.063" filterUnits="userSpaceOnUse" color-interpolation-filters="sRGB">
<feFlood flood-opacity="0" result="BackgroundImageFix"/>
<feBlend mode="normal" in="SourceGraphic" in2="BackgroundImageFix" result="shape"/>
<feGaussianBlur stdDeviation="13.544" result="effect1_foregroundBlur_1670_193451"/>
</filter>
<linearGradient id="paint0_linear_1670_193451" x1="73.6927" y1="41.876" x2="73.6927" y2="108.67" gradientUnits="userSpaceOnUse">
<stop stop-color="#102C73" stop-opacity="0.4"/>
<stop offset="1" stop-color="#4D64DE" stop-opacity="0"/>
</linearGradient>
<linearGradient id="paint1_linear_1670_193451" x1="42.6531" y1="44.0049" x2="42.2172" y2="56.3744" gradientUnits="userSpaceOnUse">
<stop stop-color="#00289F"/>
<stop offset="0.226562" stop-color="#001F7B"/>
<stop offset="0.49762" stop-color="#091557"/>
</linearGradient>
<linearGradient id="paint2_linear_1670_193451" x1="62.9004" y1="69.0439" x2="79.9779" y2="80.8035" gradientUnits="userSpaceOnUse">
<stop stop-color="#1553EF"/>
<stop offset="0.395" stop-color="#0C3089"/>
<stop offset="1" stop-color="#0C1A4C"/>
</linearGradient>
</defs>
</svg>
