<svg width="16" height="12" viewBox="0 0 16 12" fill="none" xmlns="http://www.w3.org/2000/svg">
<path fill-rule="evenodd" clip-rule="evenodd" d="M1.11628 0.325562C0.499775 0.325562 0 0.825335 0 1.44184V10.5581C0 11.1746 0.499775 11.6744 1.11628 11.6744H14.8837C15.5002 11.6744 16 11.1746 16 10.5581V1.44184C16 0.825337 15.5002 0.325562 14.8837 0.325562H1.11628ZM7.81382 2.00008C7.71107 2.00008 7.62777 2.08338 7.62777 2.18613V3.51491C6.36562 3.69555 5.39541 4.78105 5.39541 6.09316C5.39541 7.40527 6.36562 8.49077 7.62777 8.6714V10.0001C7.62777 10.1028 7.71107 10.1861 7.81382 10.1861H8.18591C8.28866 10.1861 8.37196 10.1028 8.37196 10.0001V8.67146C9.6343 8.49099 10.6047 7.4054 10.6047 6.09316C10.6047 4.78092 9.6343 3.69532 8.37196 3.51486V2.18613C8.37196 2.08338 8.28866 2.00008 8.18591 2.00008H7.81382ZM7.62777 4.26995C6.77866 4.4424 6.13959 5.19315 6.13959 6.09316C6.13959 6.99317 6.77866 7.74391 7.62777 7.91637V4.26995ZM8.37196 4.26987C9.22126 4.44217 9.86052 5.19301 9.86052 6.09316C9.86052 6.99331 9.22126 7.74414 8.37196 7.91645V4.26987ZM1.48841 4.60469C1.28291 4.60469 1.11632 4.77128 1.11632 4.97678V7.02329C1.11632 7.2288 1.28291 7.39539 1.48841 7.39539H1.67446C1.87996 7.39539 2.04655 7.2288 2.04655 7.02329V4.97678C2.04655 4.77128 1.87996 4.60469 1.67446 4.60469H1.48841ZM14.3257 4.60469C14.1202 4.60469 13.9536 4.77128 13.9536 4.97678V7.02329C13.9536 7.2288 14.1202 7.39539 14.3257 7.39539H14.5117C14.7172 7.39539 14.8838 7.2288 14.8838 7.02329V4.97678C14.8838 4.77128 14.7172 4.60469 14.5117 4.60469H14.3257Z" fill="currentColor"/>
</svg>
