<svg width="24" height="24" viewBox="0 0 24 24" fill="none" xmlns="http://www.w3.org/2000/svg">
<path d="M24 20.2633C24 20.7394 23.6139 21.1255 23.1376 21.1255H0.862311C0.386062 21.1255 0 20.7394 0 20.2633V3.73629C0 3.26009 0.386062 2.87402 0.862311 2.87402H23.1377C23.6139 2.87402 24 3.26009 24 3.73629L24 20.2633Z" fill="#149334"/>
<path d="M6.65975 8.69167C6.65975 6.60499 7.14139 4.63104 7.99869 2.87402H0.862311C0.386062 2.87402 0 3.26004 0 3.73624V20.2632C0 20.7394 0.386062 21.1255 0.862311 21.1255H15.2597C10.2346 19.2312 6.65975 14.379 6.65975 8.69167Z" fill="#0D7C24"/>
<path d="M23.1377 2.87402H12V21.1255H23.1377C23.6139 21.1255 24 20.7394 24 20.2632V3.73624C24 3.26004 23.6139 2.87402 23.1377 2.87402Z" fill="#3BBC56"/>
<path d="M12 21.1256H15.2596C14.0848 20.6827 12.9892 20.078 12 19.3389V21.1256Z" fill="#29A53D"/>
<path d="M24 6.39893H20.0742C19.7819 6.39893 19.5449 6.63588 19.5449 6.92814V17.072C19.5449 17.3641 19.7819 17.6012 20.0742 17.6012H24V6.39893Z" fill="#5CCC2E"/>
<path d="M0 6.39893H3.92577C4.21804 6.39893 4.45509 6.63588 4.45509 6.92814V17.072C4.45509 17.3641 4.21804 17.6012 3.92577 17.6012H0V6.39893Z" fill="#5CCC2E"/>
<path d="M15.9878 12.0002C15.9878 14.2026 14.2023 15.9883 11.9997 15.9883C9.79728 15.9883 8.01172 14.2026 8.01172 12.0002C8.01172 9.79767 9.79728 8.01221 11.9997 8.01221C14.2023 8.01221 15.9878 9.79767 15.9878 12.0002Z" fill="#5CCC2E"/>
<path d="M19.1836 6.92755V17.0714C19.1836 17.5629 19.5836 17.9628 20.0752 17.9628H24.0009V17.2384H20.0752C19.983 17.2384 19.908 17.1634 19.908 17.0714V6.92755C19.908 6.83544 19.983 6.76054 20.0752 6.76054H24.0009V6.03613H20.0752C19.5836 6.03609 19.1836 6.43602 19.1836 6.92755Z" fill="#9AEFA8"/>
<path d="M3.92577 6.03613H0V6.76054H3.92577C4.01793 6.76054 4.09288 6.83549 4.09288 6.92755V17.0714C4.09288 17.1635 4.01788 17.2384 3.92577 17.2384H0V17.9628H3.92577C4.4173 17.9628 4.81733 17.5629 4.81733 17.0714V6.9276C4.81733 6.43607 4.4173 6.03613 3.92577 6.03613Z" fill="#9AEFA8"/>
<path d="M11.9987 16.3499C9.59993 16.3499 7.64844 14.3983 7.64844 11.9996C7.64844 9.60091 9.59993 7.64941 11.9987 7.64941C14.3974 7.64941 16.3489 9.60091 16.3489 11.9996C16.3489 14.3984 14.3974 16.3499 11.9987 16.3499ZM11.9987 8.37387C9.9994 8.37387 8.37284 10.0004 8.37284 11.9997C8.37284 13.9989 9.9994 15.6255 11.9987 15.6255C13.9979 15.6255 15.6245 13.9989 15.6245 11.9996C15.6245 10.0003 13.9979 8.37387 11.9987 8.37387Z" fill="#9AEFA8"/>
<path d="M11.9992 12.7762C12.4281 12.7762 12.7757 12.4285 12.7757 11.9997C12.7757 11.5708 12.4281 11.2231 11.9992 11.2231C11.5703 11.2231 11.2227 11.5708 11.2227 11.9997C11.2227 12.4285 11.5703 12.7762 11.9992 12.7762Z" fill="#9AEFA8"/>
<path d="M12.3759 2.87402H11.625V21.1257H12.3759V2.87402Z" fill="#9AEFA8"/>
</svg>
