<svg width="16" height="16" viewBox="0 0 16 16" fill="currentColor"
  xmlns="http://www.w3.org/2000/svg">
  <path
    d="M2.46632 10.9026C2.32389 10.8648 2.1747 10.8496 2.01874 10.857C1.86279 10.8644 1.70967 10.8985 1.55938 10.9592C1.1905 11.1083 0.930762 11.3603 0.78017 11.7153C0.629578 12.0702 0.628835 12.4321 0.77794 12.801C0.927045 13.1699 1.17905 13.4296 1.53397 13.5802C1.8889 13.7308 2.25079 13.7315 2.61968 13.5824C2.76997 13.5217 2.90376 13.4398 3.02106 13.3367C3.13835 13.2337 3.23508 13.1191 3.31125 12.9929C3.88038 13.7325 4.62377 14.2347 5.54146 14.4995C6.45914 14.7644 7.36883 14.7146 8.27055 14.3501C9.36355 13.9083 10.138 13.1502 10.5938 12.0759C11.0497 11.0015 11.0567 9.91785 10.6149 8.82485C10.5597 8.68823 10.4962 8.55095 10.4246 8.41302C10.3529 8.27508 10.2786 8.15016 10.2016 8.03824L15.066 4.73687L14.2708 2.76948L7.71285 5.42022L8.243 6.73181L6.27561 7.52704L5.74546 6.21544L5.08966 6.48052C4.18794 6.845 3.49914 7.4413 3.02325 8.26944C2.54736 9.09758 2.36172 9.97529 2.46632 10.9026ZM8.63372 5.81094L13.8801 3.69035L14.1949 4.46911L9.16253 7.88602C9.32734 8.05782 9.47783 8.24336 9.61401 8.44263C9.75018 8.6419 9.86521 8.85766 9.95909 9.08993C10.3236 9.99165 10.3145 10.8933 9.93193 11.795C9.54935 12.6967 8.9072 13.3298 8.00548 13.6943C7.10375 14.0588 6.20206 14.0497 5.30037 13.6671C4.39868 13.2845 3.7656 12.6424 3.40113 11.7407C3.08083 10.9482 3.04852 10.1507 3.30422 9.34797C3.55992 8.54525 4.0331 7.91689 4.72379 7.46287C4.82757 7.40503 4.93135 7.34719 5.03512 7.28934C5.1389 7.2315 5.24544 7.18049 5.35474 7.13631L5.88489 8.44791L9.16387 7.12254L8.63372 5.81094ZM1.82446 11.615C2.00207 11.5432 2.182 11.546 2.36426 11.6233C2.54652 11.7007 2.67354 11.8281 2.74533 12.0057C2.81712 12.1834 2.81435 12.3633 2.73702 12.5455C2.65969 12.7278 2.53222 12.8548 2.35461 12.9266C2.17699 12.9984 1.99706 12.9956 1.81481 12.9183C1.63255 12.841 1.50553 12.7135 1.43374 12.5359C1.36195 12.3583 1.36471 12.1783 1.44205 11.9961C1.51938 11.8138 1.64685 11.6868 1.82446 11.615ZM4.81081 2.01559L5.87111 4.63878L6.52691 4.3737L5.46661 1.75051L4.81081 2.01559ZM8.44513 1.33337L7.94618 4.10997L8.64033 4.23471L9.13928 1.45811L8.44513 1.33337ZM2.35852 3.79359L4.64671 5.44362L4.2342 6.01567L1.94601 4.36564L2.35852 3.79359Z"
    fill="currentColor" />
</svg>