<svg width="19" height="18" viewBox="0 0 19 18" fill="none" xmlns="http://www.w3.org/2000/svg">
<path d="M15.9416 13.5V14.3437C15.9416 15.0156 15.6747 15.66 15.1996 16.1351C14.7245 16.6102 14.0802 16.8771 13.4083 16.8771C12.7364 16.8771 12.092 16.6102 11.6169 16.1351C11.1418 15.66 10.8749 15.0156 10.8749 14.3437V13.5C10.8749 13.3508 10.9342 13.2077 11.0397 13.1023C11.1451 12.9968 11.2882 12.9375 11.4374 12.9375H15.3749C15.4491 12.9369 15.5227 12.9511 15.5915 12.9791C15.6602 13.0071 15.7227 13.0485 15.7754 13.1008C15.8281 13.153 15.8699 13.2152 15.8984 13.2838C15.9269 13.3523 15.9416 13.4258 15.9416 13.5ZM11.6343 11.8125H15.1886C15.272 11.8126 15.3543 11.7942 15.4297 11.7586C15.5051 11.7229 15.5717 11.671 15.6245 11.6065C16.9499 9.9893 16.6244 6.92016 15.6449 4.85648C15.0184 3.53742 14.2246 2.8125 13.4062 2.8125C12.5877 2.8125 11.7967 3.53742 11.1723 4.85156C10.1929 6.91734 9.86733 9.98437 11.1927 11.6016C11.2454 11.6673 11.3121 11.7204 11.3881 11.757C11.464 11.7935 11.5472 11.8124 11.6315 11.8125H11.6343Z" fill="#0038E0"/>
<path d="M4.12506 11.25H8.06256C8.21174 11.25 8.35482 11.3093 8.46031 11.4148C8.5658 11.5202 8.62506 11.6633 8.62506 11.8125V12.6562C8.62506 13.3276 8.35838 13.9714 7.88367 14.4461C7.40897 14.9208 6.76514 15.1875 6.09381 15.1875C5.42248 15.1875 4.77865 14.9208 4.30395 14.4461C3.82925 13.9714 3.56256 13.3276 3.56256 12.6562V11.8125C3.56256 11.6633 3.62182 11.5202 3.72731 11.4148C3.8328 11.3093 3.97588 11.25 4.12506 11.25Z" fill="#F6B500"/>
<path d="M3.85787 3.16406C4.48155 1.84992 5.27537 1.125 6.09381 1.125C6.90733 1.125 7.70045 1.84992 8.32483 3.16406C9.30428 5.22773 9.62983 8.29687 8.30444 9.91406C8.25159 9.97857 8.18506 10.0305 8.10966 10.0661C8.03426 10.1018 7.95189 10.1202 7.8685 10.1201H4.3142C4.23081 10.1202 4.14844 10.1018 4.07304 10.0661C3.99764 10.0305 3.93111 9.97857 3.87826 9.91406C2.55287 8.29687 2.87842 5.22984 3.85787 3.16406Z" fill="#F6B500"/>
</svg>
