<svg width="16" height="17" viewBox="0 0 16 17" fill="none" xmlns="http://www.w3.org/2000/svg">
    <path d="M14.5 9.50828C14.3937 10.7433 13.937 11.9222 13.1835 12.9064C12.43 13.8907 11.4111 14.6392 10.2466 15.064C9.0821 15.4888 7.82051 15.5722 6.61025 15.3043C5.39999 15.0365 4.29141 14.4286 3.41492 13.5521C2.53843 12.6756 1.9305 11.567 1.66265 10.3567C1.39481 9.14649 1.47819 7.88491 1.90299 6.72043C2.32779 5.55595 3.07634 4.53701 4.06056 3.7835C5.04478 3.03 6.22374 2.57326 7.45872 2.46703C7.52438 2.46161 7.59047 2.46918 7.6532 2.48931C7.71594 2.50943 7.7741 2.54171 7.82436 2.58431C7.87462 2.62691 7.91599 2.67899 7.94613 2.73758C7.97626 2.79617 7.99455 2.86012 7.99997 2.92578C8.00539 2.99144 7.99782 3.05753 7.9777 3.12026C7.95757 3.183 7.92529 3.24116 7.88269 3.29142C7.84009 3.34168 7.78801 3.38305 7.72942 3.41318C7.67083 3.44332 7.60688 3.46161 7.54122 3.46703C6.49596 3.55684 5.4981 3.94332 4.66504 4.58101C3.83198 5.21869 3.19838 6.08105 2.8388 7.06661C2.47922 8.05217 2.4086 9.11993 2.63527 10.1443C2.86194 11.1686 3.37647 12.1069 4.1183 12.8487C4.86013 13.5905 5.79841 14.1051 6.82274 14.3317C7.84707 14.5584 8.91483 14.4878 9.90039 14.1282C10.886 13.7686 11.7483 13.135 12.386 12.302C13.0237 11.4689 13.4102 10.471 13.5 9.42578C13.5109 9.29317 13.5741 9.17034 13.6756 9.08431C13.7771 8.99828 13.9086 8.95609 14.0412 8.96703C14.1738 8.97797 14.2967 9.04114 14.3827 9.14264C14.4687 9.24415 14.5109 9.37567 14.5 9.50828ZM7.49997 5.46703V8.96703C7.49997 9.09964 7.55265 9.22682 7.64642 9.32058C7.74019 9.41435 7.86736 9.46703 7.99997 9.46703H11.5C11.6326 9.46703 11.7598 9.41435 11.8535 9.32058C11.9473 9.22682 12 9.09964 12 8.96703C12 8.83442 11.9473 8.70725 11.8535 8.61348C11.7598 8.51971 11.6326 8.46703 11.5 8.46703H8.49997V5.46703C8.49997 5.33442 8.44729 5.20725 8.35353 5.11348C8.25976 5.01971 8.13258 4.96703 7.99997 4.96703C7.86736 4.96703 7.74019 5.01971 7.64642 5.11348C7.55265 5.20725 7.49997 5.33442 7.49997 5.46703ZM9.99997 3.96703C10.1483 3.96703 10.2933 3.92304 10.4166 3.84063C10.54 3.75822 10.6361 3.64109 10.6929 3.50404C10.7496 3.367 10.7645 3.2162 10.7356 3.07071C10.7066 2.92523 10.6352 2.79159 10.5303 2.6867C10.4254 2.58181 10.2918 2.51038 10.1463 2.48144C10.0008 2.4525 9.85 2.46736 9.71296 2.52412C9.57591 2.58089 9.45878 2.67702 9.37637 2.80035C9.29396 2.92369 9.24997 3.06869 9.24997 3.21703C9.24997 3.41594 9.32899 3.60671 9.46964 3.74736C9.61029 3.88801 9.80106 3.96703 9.99997 3.96703ZM12.25 5.46703C12.3983 5.46703 12.5433 5.42304 12.6666 5.34063C12.79 5.25822 12.8861 5.14109 12.9429 5.00404C12.9996 4.867 13.0145 4.7162 12.9856 4.57071C12.9566 4.42523 12.8852 4.29159 12.7803 4.1867C12.6754 4.08181 12.5418 4.01038 12.3963 3.98144C12.2508 3.9525 12.1 3.96736 11.963 4.02412C11.8259 4.08089 11.7088 4.17702 11.6264 4.30035C11.544 4.42369 11.5 4.56869 11.5 4.71703C11.5 4.91594 11.579 5.10671 11.7196 5.24736C11.8603 5.38801 12.0511 5.46703 12.25 5.46703ZM13.75 7.71703C13.8983 7.71703 14.0433 7.67304 14.1666 7.59063C14.29 7.50822 14.3861 7.39109 14.4429 7.25404C14.4996 7.117 14.5145 6.9662 14.4856 6.82071C14.4566 6.67523 14.3852 6.54159 14.2803 6.4367C14.1754 6.33181 14.0418 6.26038 13.8963 6.23144C13.7508 6.2025 13.6 6.21736 13.463 6.27412C13.3259 6.33089 13.2088 6.42702 13.1264 6.55035C13.044 6.67369 13 6.81869 13 6.96703C13 7.16594 13.079 7.35671 13.2196 7.49736C13.3603 7.63801 13.5511 7.71703 13.75 7.71703Z"
          fill="white"/>
</svg>
