<svg width="16" height="17" viewBox="0 0 16 17" fill="currentColor" xmlns="http://www.w3.org/2000/svg">
    <path d="M14 3.9668H2C1.86739 3.9668 1.74021 4.01948 1.64645 4.11324C1.55268 4.20701 1.5 4.33419 1.5 4.4668V12.9668C1.5 13.232 1.60536 13.4864 1.79289 13.6739C1.98043 13.8614 2.23478 13.9668 2.5 13.9668H13.5C13.7652 13.9668 14.0196 13.8614 14.2071 13.6739C14.3946 13.4864 14.5 13.232 14.5 12.9668V4.4668C14.5 4.33419 14.4473 4.20701 14.3536 4.11324C14.2598 4.01948 14.1326 3.9668 14 3.9668ZM12.7144 4.9668L8 9.28867L3.28562 4.9668H12.7144ZM13.5 12.9668H2.5V5.60367L7.66187 10.3355C7.75412 10.4202 7.87478 10.4672 8 10.4672C8.12522 10.4672 8.24588 10.4202 8.33813 10.3355L13.5 5.60367V12.9668Z"
          fill="currentColor"/>
</svg>
