<svg width="16" height="17" viewBox="0 0 16 17" fill="none" xmlns="http://www.w3.org/2000/svg">
    <path d="M14.8331 7.60491L3.83812 3.52928L3.82812 3.52616C3.65114 3.46522 3.46061 3.45518 3.2782 3.49717C3.0958 3.53917 2.92884 3.63151 2.79633 3.7637C2.66381 3.89589 2.57106 4.06262 2.52861 4.24492C2.48617 4.42722 2.49574 4.61778 2.55624 4.79491C2.557 4.79832 2.55805 4.80167 2.55937 4.80491L6.63812 15.7999C6.70511 15.9959 6.83217 16.1659 7.00125 16.2856C7.17033 16.4053 7.37283 16.4687 7.57999 16.4668H7.59874C7.81 16.4652 8.01514 16.3957 8.18394 16.2687C8.35273 16.1416 8.47623 15.9637 8.53624 15.7612L8.53999 15.7487L9.90499 10.8737L14.78 9.50866L14.7925 9.50491C14.9936 9.44304 15.17 9.31934 15.2967 9.1514C15.4234 8.98347 15.4939 8.77986 15.4982 8.56954C15.5025 8.35922 15.4403 8.1529 15.3206 7.97994C15.2008 7.80697 15.0296 7.67618 14.8312 7.60616L14.8331 7.60491ZM9.36499 9.98553C9.28243 10.0087 9.20722 10.0527 9.14658 10.1134C9.08594 10.174 9.04192 10.2492 9.01874 10.3318L7.58124 15.4668L7.57749 15.4562L3.49999 4.46678L14.4887 8.54303L14.4987 8.54678L9.36499 9.98553Z"
          fill="currentColor"/>
</svg>
