<svg width="16" height="17" viewBox="0 0 16 17" fill="currentColor" xmlns="http://www.w3.org/2000/svg">
    <path d="M13.8981 10.8704L10.9538 9.55105L10.9456 9.5473C10.7928 9.48192 10.626 9.45568 10.4605 9.47096C10.2949 9.48624 10.1358 9.54255 9.99751 9.6348C9.98122 9.64555 9.96557 9.65724 9.95063 9.6698L8.42938 10.9667C7.46563 10.4985 6.47063 9.51105 6.00251 8.5598L7.30126 7.01542C7.31376 6.9998 7.32563 6.98417 7.33688 6.9673C7.42715 6.82936 7.48192 6.67125 7.49631 6.50703C7.5107 6.34281 7.48428 6.17758 7.41938 6.02605V6.01855L6.09626 3.06917C6.01047 2.87121 5.86296 2.7063 5.67575 2.59907C5.48854 2.49183 5.27166 2.44802 5.05751 2.47417C4.21061 2.58561 3.43324 3.00153 2.87059 3.64423C2.30794 4.28693 1.99847 5.11248 2.00001 5.96667C2.00001 10.9292 6.03751 14.9667 11 14.9667C11.8542 14.9682 12.6797 14.6587 13.3224 14.0961C13.9651 13.5334 14.3811 12.7561 14.4925 11.9092C14.5187 11.6951 14.475 11.4783 14.3679 11.2911C14.2607 11.1039 14.096 10.9563 13.8981 10.8704ZM11 13.9667C8.87898 13.9644 6.8455 13.1208 5.34571 11.621C3.84592 10.1212 3.00232 8.08769 3.00001 5.96667C2.99765 5.35635 3.21754 4.76604 3.61859 4.30599C4.01964 3.84593 4.57444 3.54759 5.17938 3.46667C5.17913 3.46916 5.17913 3.47168 5.17938 3.47417L6.49188 6.41167L5.20001 7.95792C5.18689 7.97301 5.17498 7.9891 5.16438 8.00605C5.07033 8.15037 5.01515 8.31654 5.0042 8.48846C4.99325 8.66038 5.0269 8.83221 5.10188 8.9873C5.66813 10.1454 6.83501 11.3035 8.00563 11.8692C8.16186 11.9435 8.33468 11.9759 8.50722 11.9634C8.67976 11.951 8.8461 11.8939 8.99001 11.7979C9.00605 11.7871 9.02149 11.7754 9.03626 11.7629L10.5556 10.4667L13.4931 11.7823C13.4931 11.7823 13.4981 11.7823 13.5 11.7823C13.4201 12.3881 13.1222 12.944 12.662 13.3461C12.2019 13.7481 11.611 13.9687 11 13.9667Z"
          fill="currentColor"/>
</svg>
