<svg width="24" height="24" viewBox="0 0 24 24" fill="none" xmlns="http://www.w3.org/2000/svg">
<g clip-path="url(#clip0_3702_7061)">
<path d="M18.0373 6.06624C17.6322 5.57454 16.8719 5.53172 16.3392 5.97061C15.8065 6.4095 15.7031 7.16389 16.1083 7.65559C16.5134 8.14729 17.2736 8.19011 17.8063 7.75122C18.339 7.31233 18.4424 6.55794 18.0373 6.06624Z" fill="#F5B97D"/>
<path d="M17.1732 7.43792C16.7681 6.9463 16.8715 6.19194 17.4041 5.75309C17.4255 5.73547 17.4491 5.72356 17.4712 5.70753C17.1007 5.60989 16.6751 5.69436 16.3395 5.97083C15.8069 6.40967 15.7035 7.16399 16.1086 7.65566C16.4975 8.12764 17.2115 8.18103 17.7394 7.79684C17.5219 7.73947 17.3231 7.61985 17.1732 7.43792Z" fill="#E3AA75"/>
<path d="M16.4062 4.16541C15.8334 3.76519 15.0175 3.9439 14.5838 4.56456C14.1502 5.18522 14.263 6.01281 14.8358 6.41303C15.4087 6.81325 16.2246 6.63455 16.6582 6.01389C17.0919 5.39322 16.979 4.56563 16.4062 4.16541Z" fill="#F5B97D"/>
<path d="M15.8766 6.50922C15.3037 6.10895 15.1908 5.28133 15.6243 4.6607C15.8081 4.39773 16.0617 4.21966 16.3352 4.12581C15.7674 3.78527 15.0005 3.96789 14.584 4.56391C14.1504 5.18453 14.2633 6.0122 14.8362 6.41242C15.1664 6.64309 15.576 6.67591 15.9479 6.54827C15.9245 6.53425 15.8993 6.52511 15.8766 6.50922Z" fill="#E3AA75"/>
<path d="M16.2955 11.0042C16.2733 10.6641 16.185 10.3105 16.0403 9.95619C15.8656 9.52836 15.6049 9.14089 15.3078 8.78698L15.0995 8.53887C14.5951 7.93812 14.0099 7.40178 13.3307 7.00944C12.6243 6.60144 11.8388 6.31761 11.0284 6.2292C7.88694 5.8865 6.4011 8.05058 7.18874 10.6103C8.06657 13.4633 8.46271 16.9475 7.18874 20.0617C6.30261 22.2277 8.07477 23.9998 9.55157 23.9998C14.2773 23.9998 16.4432 13.2686 16.2955 11.0042Z" fill="#F5B97D"/>
<path d="M14.3916 2.73228C13.7235 2.3465 12.843 2.6206 12.425 3.3445C12.0071 4.0684 12.2099 4.96796 12.8781 5.35374C13.5462 5.73951 14.4267 5.46541 14.8447 4.74151C15.2626 4.01762 15.0598 3.11805 14.3916 2.73228Z" fill="#F5B97D"/>
<path d="M9.7 19.0448C10.1687 15.3605 8.75209 11.7588 7.00154 8.9668C6.95519 9.47933 7.01125 10.0338 7.18872 10.6107C8.06654 13.4636 8.46269 16.9479 7.18872 20.0621C6.30264 22.228 8.0748 24.0002 9.55159 24.0002C10.6056 24.0002 11.5313 23.4642 12.3333 22.6096C10.9227 22.3905 9.4389 21.0973 9.7 19.0448Z" fill="#E3AA75"/>
<path d="M14.0408 5.15973C13.3725 4.77395 13.1696 3.87437 13.5876 3.15043C13.7197 2.92168 13.9008 2.74393 14.104 2.61165C13.489 2.43358 12.7863 2.72054 12.4263 3.34398C12.0084 4.06792 12.2113 4.9675 12.8795 5.35328C13.3365 5.61718 13.89 5.56628 14.3298 5.27992C14.2307 5.25123 14.1335 5.21322 14.0408 5.15973Z" fill="#E3AA75"/>
<path d="M12.0102 1.58996C11.1829 1.2115 10.1798 1.6313 9.76983 2.5276C9.35982 3.4239 9.69812 4.45729 10.5254 4.83575C11.3528 5.2142 12.3558 4.7944 12.7658 3.8981C13.1758 3.0018 12.8375 1.96841 12.0102 1.58996Z" fill="#F5B97D"/>
<path d="M11.59 4.37787C10.7626 3.99935 10.4244 2.96595 10.8345 2.0697C10.9442 1.82984 11.0985 1.62738 11.2784 1.46191C10.6599 1.49796 10.0631 1.88857 9.76998 2.52935C9.35991 3.4256 9.69821 4.45905 10.5255 4.83752C11.1315 5.11474 11.8296 4.96052 12.3221 4.50776C12.0754 4.5222 11.8258 4.48577 11.59 4.37787Z" fill="#E3AA75"/>
<path d="M8.03741 5.03222C9.32012 5.03222 10.36 3.90572 10.36 2.51611C10.36 1.1265 9.32012 0 8.03741 0C6.75469 0 5.71484 1.1265 5.71484 2.51611C5.71484 3.90572 6.75469 5.03222 8.03741 5.03222Z" fill="#F5B97D"/>
<path d="M8.73903 3.96784C7.4563 3.96784 6.41647 2.84134 6.41647 1.45173C6.41647 1.14095 6.47094 0.844605 6.56605 0.569824C6.04653 1.03126 5.71484 1.73167 5.71484 2.51626C5.71484 3.90587 6.75467 5.03237 8.03741 5.03237C9.03327 5.03237 9.88025 4.35207 10.2104 3.39817C9.80975 3.754 9.2975 3.96784 8.73903 3.96784Z" fill="#E3AA75"/>
</g>
<defs>
<clipPath id="clip0_3702_7061">
<rect width="24" height="24" fill="white"/>
</clipPath>
</defs>
</svg>
