<svg width="16" height="17" viewBox="0 0 16 17" fill="currentColor" xmlns="http://www.w3.org/2000/svg">
<g id="Listing 1" clip-path="url(#clip0_1886_56345)">
<path id="Vector" fill-rule="evenodd" clip-rule="evenodd" d="M0.015625 12.3113V15.7198C0.0159145 16.0062 0.129785 16.2807 0.332249 16.4832C0.534713 16.6856 0.809231 16.7995 1.09556 16.7998H4.51562V12.3113H0.015625ZM0.015625 11.1684H4.51562V6.45409H0.015625V11.1684ZM0.015625 5.31121H16.0156V1.8798C16.0154 1.59344 15.9015 1.31888 15.699 1.1164C15.4965 0.913916 15.2219 0.800053 14.9356 0.799805L1.09556 0.799805C0.809241 0.800152 0.534747 0.914051 0.332293 1.11652C0.129839 1.31898 0.0159558 1.59348 0.015625 1.8798V5.31121ZM16.0156 6.45409H5.65847V11.1684H16.0156V6.45409ZM16.0156 12.3113H5.65847V16.7998H14.9356C15.2219 16.7995 15.4965 16.6857 15.699 16.4832C15.9015 16.2807 16.0153 16.0062 16.0156 15.7198L16.0156 12.3113Z" fill="curentColor"/>
</g>
<defs>
<clipPath id="clip0_1886_56345">
<rect width="16" height="16" fill="white" transform="translate(0 0.799805)"/>
</clipPath>
</defs>
</svg>
