<svg width="18" height="18" viewBox="0 0 18 18" fill="none" xmlns="http://www.w3.org/2000/svg">
<g id="Group 7108">
<path id="Vector" d="M18 9C18.0005 9.62572 17.9357 10.2498 17.8068 10.8621C16.9495 14.9392 13.332 18 9 18C4.02944 18 2.16358e-07 13.9706 2.16358e-07 9C-0.000494124 6.74443 0.846141 4.57094 2.37222 2.91001C3.89829 1.24908 5.9925 0.22186 8.24004 0.0318103C8.49065 0.0108621 8.74397 0.000258621 9 0C9.31511 5.18035e-06 9.63002 0.0163201 9.94345 0.0488793C14.4706 0.520603 18 4.34793 18 9Z" fill="#0038E0"/>
<g id="Group">
<path id="Vector_2" d="M7.13631 11.1711L6.51562 12.1021L7.13631 13.0331L8.37769 14.2745H8.99838L9.30873 16.4469H10.2398L11.4811 15.5159L12.4122 14.8952V13.9642L13.3432 13.3435L13.9639 12.1021L13.3432 11.1711H11.7915L10.8605 10.5504H9.92942L8.99838 9.92969L7.757 10.5504L7.13631 11.1711Z" fill="#F6B500"/>
<path id="Vector_3" d="M9.30959 2.17185L8.99924 2.79254H8.37855L6.82683 1.86151L5.89579 2.17185L4.96476 2.79254V3.72358L5.58545 4.65461L6.51648 4.34427L6.20614 3.72358V3.10289H7.13717L8.06821 3.72358L8.37855 4.96496L7.44752 5.2753L6.82683 6.20634V6.82703L7.13717 8.0684L6.20614 8.37875L5.89579 7.75806H4.96476L4.03373 8.0684L4.34407 8.99944H4.96476L5.58545 9.30978L5.89579 9.93047L6.51648 10.2408L5.58545 10.8615L4.96476 10.2408H4.03373L2.79235 9.30978L1.86131 7.75806V6.20634L2.17166 4.96496L1.52148 3.9897C2.27241 2.86807 3.26618 1.92985 4.4291 1.2446C5.59202 0.559357 6.89426 0.144657 8.23929 0.03125L8.99924 1.55116L9.30959 2.17185Z" fill="#F6B500"/>
<path id="Vector_4" d="M17.9999 8.998C18.0004 9.62371 17.9356 10.2478 17.8067 10.8601H16.7585L15.8275 9.30834L16.1378 7.75662L14.2758 7.44627L13.9654 6.20489V4.34282L13.3447 4.03248L13.0344 3.10144L12.4137 2.48075L11.4827 2.7911L11.1723 2.17041V1.54972L10.2413 1.23938L9.94336 0.046875C14.4705 0.518599 17.9999 4.34593 17.9999 8.998Z" fill="#F6B500"/>
</g>
</g>
</svg>
