<svg width="13" height="13" viewBox="0 0 13 13" fill="none" xmlns="http://www.w3.org/2000/svg">
<g clip-path="url(#clip0_413_75336)">
<path d="M12.8806 10.5762C12.8806 11.9158 10.0207 12.9998 6.49114 12.9998C2.96143 12.9998 0.101562 11.9158 0.101562 10.5762C0.101562 9.90859 0.811074 9.30272 1.96341 8.86426C2.13776 9.11795 2.33384 9.35608 2.54945 9.57595C2.58912 9.6178 2.62879 9.65747 2.67064 9.69486C2.74998 9.7742 2.83151 9.8469 2.91521 9.91742C2.91958 9.92188 2.92176 9.92624 2.92622 9.92842C3.0011 9.99239 3.07598 10.0541 3.15532 10.1113C3.17337 10.1267 3.19251 10.1407 3.21264 10.1532C3.29199 10.2148 3.37351 10.2722 3.45721 10.3272C3.46921 10.3354 3.48171 10.3428 3.4946 10.3492C3.56076 10.3955 3.62681 10.4352 3.69514 10.4749C3.75018 10.5101 3.80751 10.5409 3.86483 10.5718C3.94189 10.6159 4.02123 10.6555 4.10276 10.693C4.16663 10.726 4.23496 10.7547 4.30101 10.7855C4.40237 10.8295 4.50591 10.8692 4.60955 10.9067C4.66678 10.9265 4.72192 10.9464 4.77914 10.964C4.85849 10.9904 4.93783 11.0147 5.01935 11.0367C5.02401 11.0395 5.02927 11.041 5.03472 11.0411C5.03651 11.0428 5.03889 11.0436 5.04137 11.0433C5.09423 11.0587 5.14927 11.0719 5.20441 11.0829C5.20818 11.0874 5.21423 11.0891 5.21979 11.0874C5.27483 11.103 5.33077 11.1155 5.3873 11.1248C5.40802 11.1313 5.42945 11.1358 5.45117 11.1381C5.51067 11.1491 5.57018 11.1601 5.63187 11.1689C5.80106 11.1969 5.97175 11.216 6.14302 11.2262C6.17605 11.2283 6.20908 11.2306 6.23992 11.2306C6.32363 11.235 6.40733 11.2372 6.49114 11.2372C6.57484 11.2372 6.65855 11.235 6.74225 11.2306C6.7731 11.2306 6.80612 11.2283 6.83925 11.2262C7.01053 11.216 7.18111 11.1969 7.35041 11.1689C7.41209 11.1601 7.4716 11.1491 7.53101 11.1381C7.55273 11.1358 7.57415 11.1313 7.59498 11.1248C7.65141 11.1155 7.70734 11.103 7.76239 11.0874C7.76794 11.0891 7.77399 11.0874 7.77786 11.0829C7.8329 11.0719 7.88794 11.0587 7.94081 11.0433C7.94328 11.0436 7.94567 11.0428 7.94745 11.0411C7.95291 11.041 7.95816 11.0395 7.96292 11.0367C8.04445 11.0147 8.12369 10.9904 8.20303 10.964C8.26035 10.9464 8.3154 10.9265 8.37272 10.9067C8.47626 10.8692 8.5798 10.8295 8.68116 10.7855C8.74721 10.7547 8.81555 10.726 8.87942 10.693C8.96094 10.6555 9.04028 10.6159 9.11744 10.5718C9.17467 10.5409 9.23199 10.5101 9.28703 10.4749C9.35537 10.4352 9.42142 10.3955 9.48757 10.3492C9.50046 10.3428 9.51306 10.3354 9.52506 10.3272C9.60876 10.2722 9.69029 10.2148 9.76953 10.1532C9.78966 10.1407 9.8088 10.1267 9.82685 10.1113C9.90619 10.0541 9.98107 9.99239 10.056 9.92842C10.0604 9.92624 10.0626 9.92188 10.0671 9.91742C10.1508 9.8469 10.2323 9.7742 10.3115 9.69486C10.3535 9.65747 10.3931 9.6178 10.4327 9.57595C10.6483 9.35608 10.8444 9.11795 11.0189 8.86426C12.1711 9.30272 12.8806 9.90859 12.8806 10.5762Z" fill="#6DB740"/>
<path d="M11.339 10.5765C11.339 9.72465 9.16879 9.03418 6.49181 9.03418C3.81472 9.03418 1.64453 9.72465 1.64453 10.5765C1.64453 11.4282 3.81472 12.1188 6.49181 12.1188C9.16879 12.1188 11.339 11.4282 11.339 10.5765Z" fill="#4C8056"/>
<path d="M11.7712 7.30045C11.7535 7.35778 11.736 7.415 11.7161 7.47233C11.6808 7.58688 11.639 7.69925 11.5928 7.80943C11.5707 7.86447 11.5464 7.91734 11.5222 7.97248C11.498 8.02752 11.4738 8.08038 11.4474 8.13334C11.4077 8.21923 11.3636 8.30294 11.3173 8.38664C11.2887 8.4396 11.2578 8.49246 11.227 8.54532C11.1631 8.65323 11.0948 8.76123 11.0199 8.86477C10.8455 9.11847 10.6494 9.35659 10.4338 9.57647C10.3941 9.61614 10.3545 9.65581 10.3126 9.69538H8.69541L7.59375 7.71244L8.69541 5.72949H10.8987L11.7712 7.30045Z" fill="white"/>
<path d="M10.3133 9.69531C10.2341 9.77247 10.1525 9.84735 10.0688 9.91787C10.0644 9.92233 10.0622 9.92669 10.0577 9.92888C9.98284 9.99284 9.90796 10.0545 9.82862 10.1118C9.81057 10.1271 9.79143 10.1411 9.77129 10.1536C9.69205 10.2153 9.61053 10.2726 9.52682 10.3277C9.51482 10.3359 9.50223 10.3432 9.48934 10.3497C9.42487 10.3952 9.35793 10.4372 9.2888 10.4753C9.23376 10.5106 9.17643 10.5414 9.11921 10.5722C9.03987 10.6141 8.96052 10.6559 8.88118 10.6934C8.81513 10.7265 8.75126 10.7551 8.68293 10.786C8.58157 10.83 8.47803 10.8697 8.37449 10.9072C8.31935 10.9292 8.26212 10.9468 8.2048 10.9645C8.12546 10.9909 8.04621 11.0152 7.96469 11.0372C7.95993 11.04 7.95467 11.0414 7.94922 11.0415L8.69612 9.69531H10.3133Z" fill="#35495E"/>
<path d="M5.03595 11.0415C5.0305 11.0414 5.02524 11.04 5.02058 11.0372C4.93906 11.0152 4.85971 10.9909 4.78037 10.9645C4.72315 10.9468 4.66582 10.9292 4.61078 10.9072C4.50714 10.8697 4.4036 10.83 4.30224 10.786C4.23401 10.7551 4.17004 10.7265 4.10399 10.6934C4.02465 10.6559 3.9453 10.6141 3.86606 10.5722C3.80874 10.5414 3.75141 10.5106 3.69637 10.4753C3.62734 10.4372 3.5604 10.3952 3.49584 10.3497C3.48294 10.3432 3.47045 10.3359 3.45845 10.3277C3.37474 10.2726 3.29322 10.2153 3.21388 10.1536C3.19374 10.1411 3.1746 10.1271 3.15655 10.1118C3.07721 10.0545 3.00233 9.99284 2.92745 9.92888C2.92299 9.92669 2.92081 9.92233 2.91644 9.91787C2.83274 9.84735 2.75122 9.77247 2.67188 9.69531H4.28905L5.03595 11.0415Z" fill="#35495E"/>
<path d="M5.38837 7.71244L4.28671 9.69538H2.66953C2.62768 9.65581 2.58801 9.61614 2.54834 9.57647C2.33273 9.35659 2.13666 9.11847 1.9623 8.86477C1.88732 8.76123 1.81909 8.65323 1.75512 8.54532C1.72428 8.49246 1.69343 8.4396 1.66477 8.38664C1.61855 8.30294 1.57452 8.21923 1.53485 8.13334C1.50837 8.08038 1.48417 8.02752 1.45987 7.97248C1.43567 7.91734 1.41147 7.86447 1.38946 7.80943C1.34314 7.69925 1.30129 7.58688 1.26598 7.47233C1.24624 7.415 1.22859 7.35778 1.21094 7.30045L2.0834 5.72949H4.28671L5.38837 7.71244Z" fill="white"/>
<path d="M2.08593 5.72907L1.21347 7.30004C0.908009 6.27504 0.908009 5.1832 1.21347 4.1582L2.08593 5.72907Z" fill="#35495E"/>
<path d="M5.38837 3.74662L4.28671 5.72956H2.0834L1.21094 4.1587C1.4806 3.24706 1.98333 2.42161 2.66953 1.76367H4.28671L5.38837 3.74662Z" fill="white"/>
<path d="M8.69559 5.72904L7.59393 7.71198H5.39072L4.28906 5.72904L5.39072 3.74609H7.59393L8.69559 5.72904Z" fill="#35495E"/>
<path d="M8.69559 9.69486L7.94868 11.0411C7.9469 11.0428 7.94452 11.0436 7.94204 11.0433C7.887 11.0587 7.83414 11.0719 7.77909 11.0829C7.77522 11.0874 7.76918 11.0891 7.76362 11.0874C7.70858 11.1028 7.65344 11.1138 7.59621 11.1248C7.57538 11.1313 7.55396 11.1358 7.53224 11.1381C7.47283 11.1513 7.41115 11.1601 7.35164 11.1689C7.18235 11.1969 7.01176 11.216 6.84048 11.2262C6.80964 11.2283 6.77651 11.2306 6.74349 11.2306C6.65978 11.235 6.57608 11.2372 6.49237 11.2372C6.40857 11.2372 6.32486 11.235 6.24116 11.2306C6.20813 11.2306 6.17511 11.2283 6.14426 11.2262C5.97298 11.216 5.8023 11.1969 5.63311 11.1689C5.5736 11.1601 5.51191 11.1513 5.45241 11.1381C5.43069 11.1358 5.40926 11.1313 5.38854 11.1248C5.33121 11.1138 5.27617 11.1028 5.22103 11.0874C5.21547 11.0891 5.20942 11.0874 5.20565 11.0829C5.15051 11.0719 5.09765 11.0587 5.04261 11.0433C5.04013 11.0436 5.03775 11.0428 5.03596 11.0411L4.28906 9.69486L5.39072 7.71191H7.59393L8.69559 9.69486Z" fill="white"/>
<path d="M11.7712 4.1587L10.8987 5.72956H8.69541L7.59375 3.74662L8.69541 1.76367H10.3126C10.9988 2.42161 11.5015 3.24706 11.7712 4.1587Z" fill="white"/>
<path d="M10.3133 1.76312H8.69612L7.94922 0.416992C8.83844 0.658488 9.65189 1.12164 10.3133 1.76312Z" fill="#35495E"/>
<path d="M5.03595 0.416992L4.28905 1.76312H2.67188C3.33338 1.12164 4.14673 0.658488 5.03595 0.416992Z" fill="#35495E"/>
<path d="M8.69559 1.76298L7.59393 3.74592H5.39072L4.28906 1.76298L5.03596 0.41685C5.98925 0.155321 6.9954 0.155321 7.94868 0.41685L8.69559 1.76298Z" fill="white"/>
<path d="M12.0001 5.72907C12.0009 6.26116 11.9237 6.79047 11.7709 7.30004L10.8984 5.72907L11.7709 4.1582C11.9237 4.66778 12.0009 5.19708 12.0001 5.72907Z" fill="#35495E"/>
<path d="M12.2172 5.51325V5.48944C12.215 5.43857 12.2125 5.38769 12.2086 5.34167C12.2039 5.26074 12.1972 5.17952 12.1865 5.08649C12.1777 5.00893 12.1685 4.92989 12.1564 4.85868C12.1445 4.77557 12.1301 4.69018 12.1123 4.61411C12.0793 4.43986 12.0367 4.26758 11.9847 4.09809L11.9836 4.09412C11.9651 4.03442 11.9468 3.97491 11.9286 3.92205C11.8913 3.80185 11.8481 3.68363 11.799 3.56779C11.7802 3.52148 11.7604 3.47655 11.7403 3.43093L11.7256 3.3979C11.6999 3.33949 11.6743 3.28355 11.6489 3.23337C11.6071 3.14272 11.5608 3.05445 11.5125 2.96718C11.4828 2.91253 11.4511 2.85699 11.4176 2.80036C11.3552 2.69702 11.2909 2.59348 11.223 2.49628C11.1774 2.43023 11.1316 2.36567 11.0842 2.30289C10.9351 2.10106 10.7718 1.91015 10.5956 1.73153C10.5515 1.68512 10.5074 1.64098 10.4682 1.60617C10.3885 1.52842 10.3063 1.45195 10.2221 1.38144C10.2157 1.37509 10.2087 1.36894 10.2016 1.36299C10.1223 1.29535 10.0425 1.23079 9.95378 1.16464C9.93563 1.14986 9.91658 1.13617 9.89695 1.12348C9.81622 1.06129 9.7336 1.00318 9.65039 0.948528C9.63562 0.938313 9.62034 0.928991 9.60448 0.920561C9.5414 0.876229 9.47594 0.835467 9.4084 0.798275C9.35088 0.761282 9.29078 0.728653 9.21679 0.68809C9.13656 0.64584 9.05652 0.60369 8.98055 0.567788C8.91757 0.53625 8.85628 0.508579 8.77169 0.470198C8.66596 0.424378 8.55796 0.383121 8.45729 0.346822C8.3965 0.322325 8.33342 0.302787 8.2755 0.285134C8.19686 0.258951 8.11841 0.234653 8.03797 0.212635C8.02528 0.207875 8.01229 0.204106 7.999 0.201428C7.94257 0.185758 7.88881 0.172072 7.83218 0.160865L7.82385 0.15908C7.7702 0.144005 7.71575 0.131707 7.6608 0.122285C7.63105 0.113161 7.6006 0.106516 7.56976 0.10245C7.51293 0.0903502 7.45392 0.0804325 7.39025 0.0721017C7.21342 0.0427453 7.0353 0.0227115 6.85638 0.0120996C6.82068 0.00971933 6.7821 0.00753745 6.76256 0.00793416C6.70365 0.0030745 6.64732 0.00307449 6.60318 0.00327284C6.53505 -0.00109095 6.46671 -0.00109095 6.39858 0.00327284C6.33947 0.00327284 6.28264 0.00327284 6.24208 0.00773582C6.20399 0.00773582 6.16541 0.0101161 6.13199 0.0125955C5.9503 0.0232074 5.7693 0.0434395 5.58969 0.0731926C5.53306 0.0815235 5.47475 0.0903502 5.41782 0.10245C5.39392 0.104929 5.37031 0.109789 5.3474 0.117029C5.28413 0.129128 5.22313 0.141724 5.16224 0.158683L5.1546 0.160667C5.10125 0.171477 5.04928 0.184172 4.99592 0.198949C4.98362 0.201428 4.97162 0.2049 4.96002 0.209561C4.87562 0.231578 4.7935 0.257364 4.71763 0.28315C4.65425 0.30249 4.59118 0.322127 4.53742 0.343946C4.42972 0.382922 4.32171 0.42418 4.19596 0.479025C4.13139 0.508282 4.0701 0.536051 4.01129 0.565606C3.93106 0.603492 3.85112 0.645543 3.7566 0.69533C3.6969 0.727761 3.6367 0.761481 3.59177 0.789647C3.52007 0.829417 3.45044 0.872757 3.3831 0.919668C3.36803 0.9278 3.35325 0.936726 3.33907 0.946347C3.25378 1.00228 3.17116 1.0605 3.09053 1.12258C3.06921 1.13657 3.04858 1.15164 3.02884 1.16771C2.94494 1.2286 2.8651 1.29396 2.78645 1.3616C2.77961 1.36755 2.77287 1.3735 2.76662 1.37975C2.67062 1.46078 2.59147 1.53397 2.52235 1.6025C2.47821 1.64366 2.43775 1.68482 2.3959 1.72677C2.21887 1.90588 2.05473 2.0973 1.90477 2.29962C1.85647 2.36368 1.81065 2.42785 1.76612 2.49281C1.69719 2.59149 1.63283 2.69503 1.56787 2.80125C1.53593 2.8559 1.5042 2.91144 1.47514 2.9641C1.42614 3.05217 1.37993 3.14034 1.34065 3.22563C1.31269 3.28157 1.2872 3.3375 1.26141 3.39592L1.24663 3.42894C1.2266 3.47457 1.20676 3.51949 1.18931 3.56273C1.1417 3.67401 1.10005 3.78787 1.06445 3.90361C1.04054 3.965 1.02031 4.02777 1.00355 4.09155L1.00226 4.09611C0.950987 4.26332 0.908936 4.43321 0.876207 4.60508C0.857066 4.68819 0.842785 4.77359 0.832173 4.85075C0.821561 4.92791 0.810155 5.00695 0.799544 5.09621C0.790122 5.17753 0.783279 5.25876 0.778617 5.33483C0.77465 5.38571 0.77227 5.43658 0.770088 5.48746V5.51126C0.767807 5.58376 0.765625 5.65428 0.765625 5.72717C0.765625 5.80017 0.767807 5.87068 0.770088 5.94318V5.96758C0.772468 6.01826 0.77465 6.06894 0.778617 6.11476C0.783279 6.19558 0.790122 6.27691 0.800634 6.36994C0.809461 6.44749 0.818784 6.52654 0.830883 6.59775C0.842785 6.68076 0.857066 6.76625 0.874918 6.84232C0.907746 7.01697 0.950193 7.18964 1.00206 7.35962V7.36359C1.02061 7.4233 1.03886 7.4828 1.05711 7.53566C1.0944 7.65587 1.13764 7.77409 1.18673 7.88992C1.20538 7.93624 1.22521 7.98117 1.24534 8.02679L1.26002 8.05981C1.28581 8.11823 1.3114 8.17417 1.33669 8.22445C1.37864 8.315 1.42485 8.40326 1.47315 8.49054C1.50291 8.54519 1.53454 8.60073 1.56717 8.65577C1.64275 8.78341 1.71396 8.8935 1.78249 8.98781C1.96329 9.25103 2.1666 9.49808 2.39014 9.72619C2.43418 9.7726 2.47821 9.81673 2.51749 9.85155C2.59742 9.9293 2.67944 10.0058 2.76384 10.0763C2.77019 10.0827 2.77703 10.089 2.78407 10.0947C2.86342 10.1624 2.94315 10.2269 3.03192 10.2931C3.05007 10.3078 3.06901 10.3215 3.08855 10.3342C3.16938 10.3964 3.25199 10.4545 3.3353 10.5092C3.35028 10.5194 3.36565 10.5288 3.38162 10.5374C3.44449 10.5817 3.50985 10.6223 3.57729 10.6594C3.63472 10.6964 3.69492 10.7291 3.7689 10.7696C3.84914 10.8122 3.92937 10.8542 4.00494 10.8899C4.06812 10.9217 4.12961 10.9494 4.21401 10.9877C4.31973 11.0335 4.42773 11.0748 4.5284 11.1111C4.58919 11.1356 4.65227 11.1552 4.71019 11.1728C4.78884 11.1991 4.86729 11.2233 4.94772 11.2453C4.96031 11.2501 4.97341 11.2538 4.9867 11.2566C5.04313 11.2722 5.09688 11.2858 5.15351 11.297L5.16115 11.299C5.2151 11.314 5.26985 11.3262 5.32509 11.3354C5.35484 11.3446 5.38529 11.3512 5.41613 11.3553C5.47296 11.3674 5.53197 11.3773 5.59564 11.3856C5.77218 11.415 5.9501 11.4349 6.12862 11.4456C6.16412 11.448 6.20003 11.4491 6.22909 11.45C6.31725 11.4548 6.40532 11.457 6.492 11.457C6.57859 11.457 6.66824 11.4548 6.74312 11.4505C6.7812 11.4505 6.81978 11.448 6.85331 11.4456C7.0348 11.4347 7.2155 11.4144 7.39481 11.3845C7.45144 11.3762 7.50986 11.3674 7.56669 11.3553C7.59039 11.3528 7.61379 11.3479 7.63661 11.3407C7.69978 11.3286 7.76078 11.316 7.82167 11.299L7.82931 11.297C7.88266 11.2863 7.93463 11.2735 7.98799 11.2588C8.00029 11.2564 8.01229 11.2528 8.02389 11.2482C8.10829 11.2261 8.19051 11.2004 8.26628 11.1746C8.32975 11.1552 8.39273 11.1356 8.44648 11.1138C8.55419 11.0748 8.66219 11.0335 8.78755 10.9789C8.85232 10.9494 8.91381 10.9217 8.97242 10.8921C9.05256 10.8542 9.13279 10.8122 9.2273 10.7624C9.28701 10.73 9.34721 10.6962 9.39214 10.6681C9.46374 10.6284 9.53327 10.5851 9.60031 10.5382C9.61548 10.5301 9.63016 10.5211 9.64444 10.5114C9.72964 10.4554 9.81225 10.3973 9.89318 10.3351C9.9144 10.3216 9.93493 10.3069 9.95467 10.2911C10.0386 10.2303 10.1183 10.1648 10.197 10.0972C10.2038 10.0913 10.2106 10.0853 10.2168 10.0792C10.3012 10.0077 10.3834 9.93218 10.4565 9.86057C10.4594 9.85809 10.4619 9.85531 10.4644 9.85264L10.4662 9.85105C10.509 9.81227 10.5501 9.77181 10.5883 9.73144C10.8116 9.50383 11.0148 9.25728 11.1955 8.99466C11.2671 8.89598 11.3383 8.78579 11.4146 8.65686C11.4465 8.60231 11.4782 8.54677 11.5073 8.49411C11.5562 8.40594 11.6025 8.31777 11.6417 8.23258C11.6696 8.17655 11.6952 8.12061 11.721 8.06219L11.7358 8.02917C11.7558 7.98355 11.7757 7.93862 11.793 7.89548C11.8418 7.78083 11.8847 7.6639 11.9214 7.54489C11.9422 7.48518 11.9605 7.42568 11.9788 7.36667L11.9801 7.36201C12.0314 7.19479 12.0735 7.0249 12.1061 6.85313C12.1253 6.77002 12.1396 6.68453 12.1501 6.60747C12.1608 6.53031 12.1723 6.45116 12.1828 6.362C12.1923 6.28068 12.1991 6.19935 12.2035 6.12338C12.2077 6.0727 12.2099 6.02203 12.2123 5.97135C12.2123 5.97025 12.2123 5.94794 12.2123 5.94685C12.2145 5.87435 12.2167 5.80384 12.2167 5.73094C12.2167 5.65805 12.2194 5.58575 12.2172 5.51325ZM11.1516 5.72916L11.6904 4.7598C11.7012 4.81435 11.7124 4.86989 11.7203 4.92721C11.7318 4.99634 11.7398 5.06755 11.7492 5.14887C11.7576 5.22177 11.764 5.29496 11.7683 5.37291C11.7723 5.41833 11.7743 5.46366 11.7767 5.52713C11.7789 5.59547 11.7809 5.66152 11.7809 5.73005C11.7809 5.79858 11.7789 5.86473 11.7763 5.95042C11.7743 5.99574 11.7721 6.04117 11.7681 6.09145C11.764 6.16434 11.7576 6.23754 11.7479 6.32233C11.7398 6.39176 11.7318 6.46287 11.7192 6.53804C11.7117 6.58961 11.701 6.64446 11.6902 6.6993L11.1516 5.72916ZM10.7299 2.56531C10.7741 2.62452 10.8168 2.68383 10.86 2.74661C10.9234 2.83735 10.9822 2.93217 11.0376 3.024C11.0672 3.07538 11.097 3.12645 11.1257 3.17823C11.1697 3.25737 11.2109 3.33641 11.2515 3.42349C11.2764 3.47328 11.2991 3.52306 11.3217 3.57483L11.3367 3.60855C11.3548 3.64951 11.3729 3.68958 11.3909 3.73411C11.437 3.8443 11.4749 3.94804 11.5091 4.05783C11.5176 4.08312 11.5253 4.1089 11.5335 4.13429L10.7698 5.50888H8.82613L8.27531 4.51741L7.84676 3.74621L8.27511 2.97511L8.82594 1.98364H10.2234C10.2413 2.00129 10.2589 2.01716 10.2779 2.03719C10.4408 2.20232 10.592 2.37876 10.7299 2.56531ZM7.46493 7.49183H5.52116L4.97033 6.50036L4.54189 5.72916L4.97013 4.95805L5.52096 3.96658H7.46473L8.01556 4.95805L8.4443 5.72916L8.01596 6.50036L7.46493 7.49183ZM8.60824 0.881981C8.66745 0.908858 8.72388 0.933949 8.78597 0.965289C8.86075 1.0005 8.93493 1.03977 9.02022 1.0847C9.07021 1.11177 9.12089 1.13865 9.18198 1.17723C9.24397 1.21155 9.30407 1.24933 9.36199 1.29029C9.37072 1.29644 9.39521 1.31122 9.40493 1.31608C9.48378 1.36785 9.56044 1.4218 9.63542 1.47992C9.64444 1.48676 9.66706 1.50402 9.67697 1.50947C9.67985 1.51166 9.69572 1.52425 9.69909 1.52623C9.70653 1.53169 9.71337 1.53833 9.72111 1.54389H8.82613L8.41495 0.802044C8.47733 0.825847 8.5408 0.851137 8.60824 0.881981ZM5.28125 0.582962C5.33064 0.569077 5.37973 0.559656 5.45203 0.544482C5.45918 0.5422 5.46661 0.540514 5.47405 0.539424C5.48298 0.538531 5.4919 0.537142 5.50073 0.535159C5.55091 0.523952 5.60298 0.516514 5.67032 0.506596C5.83238 0.479719 5.99572 0.461371 6.15966 0.451652C6.18575 0.449966 6.21342 0.447982 6.25973 0.44709C6.30605 0.446197 6.35117 0.443519 6.41395 0.442924C6.43994 0.441337 6.4682 0.441337 6.49309 0.441337C6.51799 0.441337 6.54635 0.441337 6.58781 0.443519C6.63363 0.443519 6.67925 0.443519 6.74421 0.447982C6.77218 0.447982 6.79995 0.449966 6.82712 0.451949C6.99642 0.462065 7.16512 0.481207 7.33253 0.509175C7.38271 0.516514 7.43478 0.523952 7.48496 0.535159C7.49379 0.537142 7.50272 0.538531 7.51164 0.539424C7.52652 0.541903 7.5412 0.545374 7.55568 0.549738C7.60705 0.559656 7.65614 0.569077 7.70553 0.582962L7.71257 0.584747C7.72081 0.587524 7.72914 0.589706 7.73767 0.591392C7.75968 0.595756 7.7818 0.602203 7.80382 0.607459L8.4443 1.76327L8.26628 2.08391L7.46493 3.52594H5.52116L4.71991 2.08361L4.54189 1.76327L5.18297 0.607657C5.20498 0.602401 5.2271 0.595954 5.24912 0.591591C5.25765 0.590004 5.26598 0.587723 5.27421 0.584946L5.28125 0.582962ZM3.32032 1.49757C3.33024 1.49212 3.33976 1.48597 3.34879 1.47903C3.42367 1.42091 3.50033 1.36696 3.59445 1.30586C3.60407 1.3011 3.61339 1.29555 3.62222 1.2894C3.6842 1.24576 3.74857 1.2055 3.81502 1.1689C3.86322 1.13776 3.9139 1.11088 3.9745 1.07805C4.04918 1.03888 4.12346 0.999605 4.20231 0.962215C4.26022 0.933057 4.31666 0.907965 4.38985 0.874047C4.44727 0.849153 4.50876 0.826937 4.56896 0.80373L4.16006 1.543H3.2635C3.27341 1.53546 3.28224 1.52822 3.29256 1.52098L3.32032 1.49757ZM1.4797 4.05118C1.51144 3.94853 1.54932 3.84499 1.59673 3.73143C1.61349 3.69008 1.63154 3.65001 1.64959 3.60895L1.66457 3.57523C1.68658 3.52346 1.70999 3.47367 1.73776 3.41794C1.77544 3.33691 1.8168 3.25776 1.86133 3.17753C1.8891 3.12645 1.91885 3.07538 1.94682 3.02688C2.00385 2.93217 2.06276 2.83735 2.12723 2.74532C2.16938 2.68383 2.21163 2.62452 2.25685 2.56392C2.39451 2.37826 2.54506 2.20242 2.70741 2.03779C2.72477 2.02043 2.7446 2.00149 2.76265 1.98364H4.16006L4.71079 2.97511L5.13933 3.74621L4.71108 4.51741L4.16025 5.50888H2.21629L1.45133 4.13201C1.45947 4.10692 1.46829 4.08074 1.4797 4.05118ZM1.29573 6.69861C1.28492 6.64396 1.27371 6.58842 1.26577 6.5312C1.25437 6.46197 1.24643 6.39086 1.23691 6.30954C1.22858 6.23664 1.22214 6.16345 1.21777 6.0855C1.214 6.04136 1.21182 5.99495 1.20934 5.93128C1.20716 5.86384 1.20518 5.79769 1.20518 5.72916C1.20518 5.66062 1.20716 5.59457 1.20984 5.50888C1.21182 5.46326 1.21381 5.41784 1.21797 5.36746C1.22214 5.29446 1.22858 5.22137 1.2382 5.13647C1.24643 5.06715 1.25437 4.99594 1.26687 4.92076C1.2744 4.86929 1.28521 4.81435 1.29592 4.7595L1.83446 5.72916L1.29573 6.69861ZM2.14399 8.73491C2.08051 8.64674 2.01644 8.54826 1.94861 8.43351C1.91885 8.38264 1.8891 8.33146 1.86044 8.27929C1.8164 8.20015 1.77515 8.12111 1.73468 8.03403C1.70979 7.98424 1.68708 7.93445 1.66437 7.88268L1.64939 7.84896C1.63134 7.808 1.61329 7.76784 1.59514 7.72341C1.54912 7.61322 1.51124 7.50948 1.47712 7.39969C1.46849 7.3744 1.46076 7.34862 1.45262 7.32323L2.21629 5.94953H4.16006L4.71079 6.941L5.13933 7.7121L4.71108 8.4833L4.16025 9.47477H2.76245C2.7448 9.45712 2.72725 9.44125 2.7087 9.42191C2.50102 9.20977 2.31199 8.98008 2.14399 8.73531V8.73491ZM4.37795 10.5775C4.31884 10.5506 4.26251 10.5253 4.19963 10.4938C4.12495 10.4587 4.05076 10.4195 3.96567 10.3746C3.91568 10.3474 3.865 10.3206 3.80401 10.2821C3.74203 10.2477 3.68202 10.21 3.6242 10.169C3.61488 10.1627 3.59108 10.1483 3.58007 10.1432C3.50122 10.0915 3.42456 10.0375 3.34968 9.97929C3.34105 9.97274 3.31705 9.95489 3.30753 9.94933C3.30465 9.94735 3.28928 9.93505 3.28551 9.93307C3.27808 9.92752 3.27123 9.92097 3.2635 9.91541H4.15916L4.57025 10.6566C4.51015 10.6326 4.44529 10.6073 4.37795 10.5775ZM7.70484 10.8753C7.65555 10.8892 7.60636 10.8988 7.53416 10.9139C7.52692 10.9162 7.51958 10.9179 7.51204 10.919C7.50311 10.9199 7.49419 10.9213 7.48546 10.9232C7.43518 10.9345 7.38321 10.9419 7.31577 10.9518C7.15371 10.9787 6.99037 10.9969 6.82643 11.0067C6.80044 11.0084 6.77268 11.0104 6.73281 11.0106C6.56946 11.0196 6.40572 11.0196 6.24238 11.0106C6.21431 11.0106 6.18654 11.0086 6.15946 11.0067C5.99007 10.9965 5.82137 10.9774 5.65406 10.9494C5.60378 10.9421 5.55181 10.9347 5.50162 10.9234C5.4928 10.9215 5.48387 10.9201 5.47494 10.9192C5.46007 10.9167 5.44529 10.9132 5.43081 10.9089C5.37954 10.899 5.33034 10.8895 5.28105 10.8756L5.27401 10.8739C5.26578 10.8711 5.25735 10.8689 5.24882 10.8672C5.2268 10.8629 5.20479 10.8564 5.18277 10.8511L4.54189 9.69504L4.71991 9.3745L5.52116 7.93247H7.46493L8.26628 9.3747L8.4443 9.69504L7.80312 10.8508C7.78111 10.856 7.75909 10.8624 7.73707 10.8668C7.72854 10.8684 7.72011 10.8706 7.71188 10.8734L7.70484 10.8753ZM9.66428 9.96124C9.65456 9.96659 9.64544 9.97254 9.63671 9.97929C9.56183 10.0375 9.48507 10.0915 9.39233 10.1517C9.38222 10.1567 9.3724 10.1626 9.36308 10.169C9.30109 10.2126 9.23683 10.2529 9.17048 10.2895C9.12228 10.3206 9.0716 10.3474 9.011 10.3801C8.93652 10.4195 8.86223 10.4587 8.78289 10.4962C8.72478 10.5253 8.66834 10.5506 8.59565 10.5844C8.53812 10.6093 8.47663 10.6315 8.41653 10.6546L8.82613 9.91541H9.72259C9.71268 9.92295 9.70385 9.93019 9.69354 9.93743L9.66428 9.96124ZM11.5066 7.40723C11.4749 7.50988 11.437 7.61342 11.3897 7.72688C11.3729 7.76833 11.3548 7.8084 11.3367 7.84936L11.3217 7.88308C11.2997 7.93485 11.2764 7.98464 11.2486 8.04047C11.2109 8.1215 11.1695 8.20065 11.125 8.28078C11.0973 8.33196 11.0675 8.38303 11.0387 8.43282C10.9699 8.54876 10.9065 8.64764 10.8403 8.73977C10.6722 8.98394 10.4833 9.21314 10.2756 9.42479C10.2597 9.44145 10.2435 9.45801 10.2267 9.47477H8.82613L8.27531 8.4833L7.84676 7.7121L8.27511 6.941L8.82594 5.94953H10.7696L11.5329 7.32352C11.5244 7.35119 11.5165 7.37698 11.5064 7.40723H11.5066Z" fill="#2C3E50"/>
</g>
<defs>
<clipPath id="clip0_413_75336">
<rect width="13" height="13" fill="white"/>
</clipPath>
</defs>
</svg>
