<svg
  viewBox="0 0 24 24"
  fill="currentColor"
>
  <title className="text-white">
    Own goal
  </title>
  <path
    d="M15 3a1 1 0 0 1 1 1v1.223a8.95 8.95 0 0 1 4.367 2.411c3.51 3.51 3.51 9.223 0 12.734-3.51 3.51-9.223 3.509-12.734 0-3.51-3.51-3.51-9.224 0-12.734A8.95 8.95 0 0 1 12 5.224V5H6v3L0 4l6-4v3h9zM8.52 8.522c-2.364 2.365-2.876 5.89-1.54 8.758l.127.259 1.52-.632 2.465 2.466-.632 1.518c2.912 1.494 6.581 1.023 9.019-1.412 2.368-2.369 2.88-5.9 1.532-8.772l-.127-.259-1.507.626-2.465-2.467.624-1.499c-2.914-1.492-6.58-1.022-9.016 1.414zm9.65 5.413 1.169 2.967-2.437 2.437-2.934-1.136.752-3.481 3.45-.787zM10.959 8.7l2.894 1.223-.615 3.318-3.328.603-1.212-2.883 2.261-2.26z"
    fill="currentColor"
    fillRule="evenodd"
  />
</svg>
