<svg width="21" height="20" viewBox="0 0 21 20" fill="currentColor" xmlns="http://www.w3.org/2000/svg">
    <path d="M17.911 6.07166L10.5019 1.74971C10.4081 1.69552 10.3016 1.66699 10.1932 1.66699C10.0849 1.66699 9.97838 1.69552 9.88452 1.74971L2.47546 6.07166C2.38214 6.12554 2.30455 6.20289 2.25039 6.29604C2.19624 6.38919 2.1674 6.4949 2.16675 6.60265V17.7162C2.16675 17.88 2.2318 18.037 2.34759 18.1528C2.46338 18.2686 2.62042 18.3337 2.78417 18.3337H8.34097C8.50472 18.3337 8.66176 18.2686 8.77755 18.1528C8.89334 18.037 8.95839 17.88 8.95839 17.7162V13.3943H11.4281V17.7162C11.4281 17.88 11.4931 18.037 11.6089 18.1528C11.7247 18.2686 11.8817 18.3337 12.0455 18.3337H17.6023C17.766 18.3337 17.9231 18.2686 18.0389 18.1528C18.1547 18.037 18.2197 17.88 18.2197 17.7162V6.60265C18.2191 6.4949 18.1902 6.38919 18.1361 6.29604C18.0819 6.20289 18.0043 6.12554 17.911 6.07166ZM16.9849 17.0988H12.6629V12.7769C12.6629 12.6131 12.5979 12.4561 12.4821 12.3403C12.3663 12.2245 12.2092 12.1594 12.0455 12.1594H8.34097C8.17722 12.1594 8.02017 12.2245 7.90438 12.3403C7.78859 12.4561 7.72354 12.6131 7.72354 12.7769V17.0988H3.40159V6.95458L10.1932 2.9969L16.9849 6.95458V17.0988Z"
          fill="currentColor"/>
</svg>
