<svg width="15" height="15" viewBox="0 0 15 15" fill="none" xmlns="http://www.w3.org/2000/svg">
<path d="M13.9008 6.64054C13.0583 3.21179 10.25 1.43392 7.28848 1.7387C7.23742 1.7387 7.16083 1.7387 7.08424 1.7641C6.98212 1.99268 6.6247 1.89109 5.73114 2.24666C4.76099 2.62764 4.65887 2.85622 4.4291 2.78002L4.3525 2.83082L4.27591 2.88162C1.67183 4.81188 1.00804 8.39302 2.7441 11.0852V11.1106C3.05046 11.136 2.92281 11.5424 4.48016 12.7615C4.83758 13.0155 5.195 13.2695 5.60349 13.4472C5.62902 13.4472 5.65455 13.4726 5.68008 13.498C5.70561 13.5234 5.73114 13.5234 5.75667 13.5234H5.7822C6.31833 13.7266 6.90553 13.8536 7.51825 13.879C7.64591 13.879 7.77356 13.9044 7.87568 13.9044C8.28416 13.9044 8.71817 13.8536 9.10113 13.7774H9.12666C9.17772 13.7774 9.25431 13.752 9.30537 13.7266C9.3309 13.7266 9.3309 13.7012 9.35643 13.7012C9.66279 13.5996 9.84151 13.4726 10.1479 13.3711C10.25 13.3203 10.6329 13.2187 10.9393 13.0663C10.9904 13.0409 11.0414 13.0155 11.0925 12.9901C12.0882 12.3805 12.8796 11.4916 13.3902 10.4503C13.5434 10.1455 13.4668 10.1201 13.5434 10.0185C13.5689 9.81531 13.6455 9.43434 13.7476 9.30735C13.9008 7.80886 13.8753 8.03744 13.7987 7.1993C13.7987 7.14851 13.7987 7.02152 13.7732 6.99612C13.7221 6.84373 13.7987 6.71674 13.9008 6.64054Z" fill="#D9D9DB"/>
<path d="M11.5775 2.93256C11.552 2.93256 10.1223 3.38973 10.1989 3.36433L9.94361 3.44053L8.10543 4.02469L5.34817 5.1676L3.53552 6.03114C3.50999 6.03114 1.74841 6.89468 1.85053 6.84388C1.87606 6.76769 1.87606 6.66609 1.90159 6.5899C6.70127 4.22787 6.19067 4.65964 8.02884 3.8469L9.7649 3.28814C9.79043 3.28814 11.4754 2.75478 11.3733 2.78018C11.4244 2.80557 11.552 2.90717 11.5775 2.93256Z" fill="white"/>
<path d="M14.0292 7.78304C13.391 6.86871 13.5952 6.48774 12.0889 4.98925C12.0889 4.98925 12.0634 4.96385 12.0379 4.93845C11.8847 4.81146 11.3741 4.45588 10.8124 4.04951C10.5316 3.84633 10.2508 3.64314 9.96994 3.43996C9.89335 3.38916 9.84229 3.33837 9.7657 3.28757C9.30615 2.95739 8.89767 2.65261 8.6679 2.50023C8.64237 2.47483 8.61684 2.44943 8.59131 2.44943C8.0807 2.09386 7.41692 1.99226 6.90631 1.89067V1.78908C7.00843 1.76368 7.16161 1.76368 7.28926 1.73828C7.67222 1.81448 8.28494 1.96686 8.69343 2.27164C8.74449 2.29704 8.79555 2.34784 8.84661 2.37324C9.22956 2.65261 12.1655 4.78606 12.1911 4.81146C13.4421 6.00517 13.6718 6.81791 13.9782 7.35127C14.0292 7.52906 14.0292 7.60526 14.0292 7.78304Z" fill="white"/>
<path d="M10.3253 13.3959C10.2998 13.4213 10.2488 13.3959 10.2232 13.4213C10.1977 13.4467 10.1722 13.4721 10.1466 13.4721L9.73815 12.4054C9.68709 12.0244 9.6105 11.4403 9.6105 10.9323C9.58497 10.1958 9.63603 9.30683 9.84027 8.51949C10.2998 6.9448 10.2232 5.37012 10.2232 5.37012H10.4275C10.4275 5.39552 10.5041 6.9956 10.0445 8.59568C9.81474 9.40842 9.78921 10.2974 9.81474 11.0847C9.89133 12.7864 10.0445 12.4562 10.3253 13.3959Z" fill="white"/>
<path d="M13.6707 9.25689C13.6452 9.28229 12.7006 10.1712 11.3219 10.5522C10.0965 10.8824 7.41579 12.0761 7.39026 12.0761C5.96057 12.7872 4.78618 12.6856 4.32663 12.7618C4.25004 12.711 4.17345 12.6602 4.09686 12.584C4.99042 12.3555 5.29678 12.711 7.28814 11.8729C8.30935 11.4157 10.1475 10.6284 11.2453 10.3236C12.5474 9.96804 13.492 9.0791 13.492 9.0791L13.6707 9.25689Z" fill="white"/>
<path d="M4.71006 2.60254C4.27604 3.1613 3.79097 4.40581 3.79097 4.4566C3.79097 4.5074 3.07612 8.41872 3.07612 8.49491C2.82082 10.0696 3.35695 11.1109 3.35695 11.1871L3.15271 11.2633C2.82082 10.2982 2.69317 9.73942 2.87188 8.34252C3.61226 4.17722 3.51014 4.12643 4.25051 2.88192C4.27604 2.88192 4.40369 2.78033 4.40369 2.75493C4.48028 2.75493 4.659 2.62794 4.71006 2.60254Z" fill="white"/>
<path d="M7.62053 9.99294C7.595 9.96754 5.37387 8.26587 4.53137 7.63091L4.65902 7.45312C5.50152 8.06268 7.72265 9.78975 7.74818 9.81515L7.62053 9.99294Z" fill="white"/>
<path d="M10.2738 13.27C10.2227 13.27 10.1717 13.2954 10.1461 13.3208C9.99295 13.4224 9.58447 13.6764 9.22704 13.7526C9.20151 13.7526 9.17598 13.778 9.17598 13.778L9.15045 13.8034C9.8653 13.651 10.5546 13.3716 11.1418 13.016C11.0652 12.9398 10.8354 13.2192 10.2738 13.27Z" fill="#0038E0"/>
<path d="M13.4146 10.4504C14.0273 9.20586 14.155 7.83436 13.8997 6.56445C13.7465 6.71684 13.5678 6.76764 13.5933 6.94543C13.6444 7.83436 13.3636 9.15506 13.3125 9.30745C13.2359 9.51064 13.5167 9.81542 13.4146 10.4504Z" fill="#0038E0"/>
<path d="M10.0963 8.69816C9.99416 8.57116 9.81545 8.54577 9.6878 8.62196C9.17719 8.90134 7.95174 9.33311 7.44114 9.5109C7.31349 9.56169 7.21136 9.68868 7.21136 9.81567C7.33902 11.5427 7.08371 11.9999 7.51773 12.1015C8.20704 12.2793 9.38143 12.3555 9.76439 12.3809C9.86651 12.3809 9.9431 12.3555 9.99416 12.3047C10.4537 11.8729 11.0664 10.9332 11.3473 10.5268C11.577 10.1966 11.1175 10.0189 10.0963 8.69816Z" fill="#0038E0"/>
<path d="M12.0874 4.68529C11.9087 4.15193 11.3981 3.1106 11.0917 2.95821C10.5811 2.67883 9.38116 2.47565 8.89609 2.39945C8.79397 2.37406 8.66632 2.45025 8.64079 2.55184L8.15571 3.74556C8.10465 3.84715 8.15571 3.97414 8.25783 4.05033C8.79397 4.38051 9.86624 5.26945 10.2237 5.54883C10.3003 5.59962 10.3768 5.62502 10.479 5.59962L11.9597 5.01546C12.0618 4.93927 12.1384 4.81228 12.0874 4.68529Z" fill="#0038E0"/>
<path d="M5.11807 4.91362C4.09686 4.53265 3.81603 4.17707 3.5352 4.45645C2.87141 5.1422 2.25869 6.31052 2.28422 6.5645C2.33528 7.12326 2.61611 7.8598 2.79482 8.29157C2.87141 8.46936 3.07565 8.54555 3.22884 8.46936C3.63732 8.29157 4.35217 8.01219 4.70959 7.8852C4.83724 7.83441 4.91383 7.73281 4.91383 7.58042C4.93936 6.81848 5.16913 5.77715 5.27125 5.29459C5.34785 5.1422 5.27125 4.98981 5.11807 4.91362Z" fill="#0038E0"/>
<path d="M5.78079 13.5242H5.75526C5.72973 13.4988 5.67867 13.4988 5.65314 13.4988C5.09147 13.2702 4.55534 12.9655 4.12133 12.6099C3.17671 11.8734 2.71716 11.086 2.71716 11.0606C2.81928 11.0606 3.15118 10.8574 3.38095 11.1368C3.61072 11.4416 4.19792 12.0511 5.06594 12.5083C5.47443 12.7877 5.14254 12.6607 5.78079 13.5242Z" fill="#0038E0"/>
<path d="M7.21099 1.76442C7.23652 1.86601 7.08334 1.86601 7.03228 1.91681C4.07077 3.05973 4.47925 2.93273 4.3516 2.83114C4.22395 2.72955 4.42819 2.78035 4.42819 2.78035C4.47925 2.75495 4.6835 2.62796 4.70903 2.60256C5.70471 1.993 6.90463 1.73902 7.21099 1.76442Z" fill="#0038E0"/>
<path opacity="0.15" d="M9.22795 1.83984C10.2236 2.93196 10.8364 4.37966 10.8364 5.97974C10.8364 9.91646 7.16001 12.8118 3.38153 11.9483C4.50486 13.1674 6.11327 13.9548 7.90038 13.9548C11.2704 13.9548 14.0276 11.2118 14.0276 7.83381C14.0276 4.91302 11.9852 2.4494 9.22795 1.83984Z" fill="#0038E0"/>
</svg>
