<svg viewBox="0 0 16 16" fill="currentColor">
  <path
    d="M5.17 8.17a4.006 4.006 0 0 1 5.66 0 4.005 4.005 0 0 1 0 5.659 4.005 4.005 0 0 1-5.66 0 4.006 4.006 0 0 1 0-5.658zm4.209.145a3.024 3.024 0 0 0-3.515.55 3.023 3.023 0 0 0-.55 3.513l.593-.245.96.96-.246.592c1.135.582 2.565.399 3.514-.551a3.02 3.02 0 0 0 .547-3.517l-.587.243-.96-.96zm.346 2.553.518 1.32-1.081 1.083-1.305-.506.334-1.546 1.534-.351zM6.761 8.784l1.287.543-.274 1.474-1.479.268-.54-1.281 1.006-1.004zM14 2a1 1 0 0 1 1 1v6h-1.97L13 4H3v5H1V3a1 1 0 0 1 1-1z"
    fill="currentColor"
    fillRule="evenodd"
  />
</svg>
