<svg width="14" height="13" viewBox="0 0 14 13" fill="none" xmlns="http://www.w3.org/2000/svg">
    <path d="M12.7998 5.39543C11.9832 2.21159 9.26121 0.560713 6.39071 0.843721C6.34122 0.843721 6.26699 0.843721 6.19275 0.867305C6.09377 1.07956 5.74733 0.985225 4.88123 1.3154C3.9409 1.66916 3.84191 1.88142 3.6192 1.81066L3.54497 1.85783L3.47073 1.905C0.946676 3.69738 0.303289 7.02273 1.98599 9.52263V9.54622C2.28294 9.5698 2.15921 9.94714 3.6687 11.0792C4.01513 11.315 4.36157 11.5509 4.7575 11.7159C4.78225 11.7159 4.80699 11.7395 4.83174 11.7631C4.85649 11.7867 4.88123 11.7867 4.90598 11.7867H4.93072C5.45038 11.9754 6.01953 12.0933 6.61343 12.1169C6.73715 12.1169 6.86088 12.1405 6.95986 12.1405C7.35579 12.1405 7.77647 12.0933 8.14765 12.0225H8.1724C8.22189 12.0225 8.29613 11.999 8.34562 11.9754C8.37037 11.9754 8.37037 11.9518 8.39511 11.9518C8.69206 11.8574 8.86528 11.7395 9.16222 11.6452C9.26121 11.598 9.63239 11.5037 9.92934 11.3622C9.97883 11.3386 10.0283 11.315 10.0778 11.2914C11.0429 10.7254 11.81 9.89997 12.3049 8.93303C12.4534 8.65002 12.3792 8.62644 12.4534 8.5321C12.4781 8.34343 12.5524 7.98967 12.6514 7.87175C12.7998 6.4803 12.7751 6.69255 12.7009 5.91428C12.7009 5.86711 12.7009 5.74919 12.6761 5.72561C12.6266 5.5841 12.7009 5.46618 12.7998 5.39543Z" fill="#D9D9DB"/>
    <path d="M10.5484 1.95238C10.5237 1.95238 9.13794 2.37689 9.21217 2.35331L8.96472 2.42406L7.18303 2.96649L4.5105 4.02777L2.75357 4.82963C2.72882 4.82963 1.02137 5.63148 1.12035 5.58431C1.1451 5.51356 1.1451 5.41923 1.16984 5.34847C5.82202 3.15516 5.32711 3.55609 7.1088 2.8014L8.7915 2.28255C8.81624 2.28255 10.4495 1.78729 10.3505 1.81087C10.4 1.83446 10.5237 1.92879 10.5484 1.95238Z" fill="#023191" fill-opacity="0.88"/>
    <path d="M12.9245 6.45674C12.3059 5.60772 12.5039 5.25396 11.0439 3.8625C11.0439 3.8625 11.0191 3.83892 10.9944 3.81533C10.8459 3.69741 10.351 3.36724 9.80659 2.98989C9.53439 2.80122 9.26218 2.61255 8.98998 2.42388C8.91575 2.37671 8.86625 2.32954 8.79202 2.28237C8.3466 1.97578 7.95067 1.69277 7.72796 1.55127C7.70321 1.52769 7.67847 1.5041 7.65372 1.5041C7.15881 1.17393 6.51542 1.07959 6.02051 0.985254V0.890918C6.11949 0.867334 6.26796 0.867334 6.39169 0.84375C6.76288 0.914502 7.35677 1.05601 7.7527 1.33901C7.80219 1.3626 7.85168 1.40977 7.90118 1.43335C8.27236 1.69277 11.1181 3.67383 11.1429 3.69741C12.3554 4.80586 12.5781 5.56055 12.875 6.05581C12.9245 6.2209 12.9245 6.29165 12.9245 6.45674Z" fill="#023191" fill-opacity="0.88"/>
    <path d="M9.3345 11.6689C9.30975 11.6924 9.26026 11.6689 9.23552 11.6924C9.21077 11.716 9.18603 11.7396 9.16128 11.7396L8.76535 10.7491C8.71586 10.3953 8.64162 9.85288 8.64162 9.3812C8.61688 8.69727 8.66637 7.87183 8.86433 7.14072C9.30975 5.67852 9.23552 4.21631 9.23552 4.21631H9.43348C9.43348 4.23989 9.50772 5.72568 9.0623 7.21148C8.83959 7.96616 8.81484 8.7916 8.83959 9.52271C8.91382 11.1028 9.0623 10.7962 9.3345 11.6689Z" fill="#023191" fill-opacity="0.88"/>
    <path d="M12.5765 7.82476C12.5517 7.84834 11.6362 8.67378 10.2999 9.02754C9.1121 9.33413 6.51381 10.4426 6.48906 10.4426C5.10331 11.1029 3.96501 11.0086 3.51959 11.0793C3.44535 11.0322 3.37111 10.985 3.29688 10.9143C4.16297 10.702 4.45992 11.0322 6.39008 10.2539C7.3799 9.8294 9.16159 9.09829 10.2257 8.81528C11.4877 8.48511 12.4033 7.65967 12.4033 7.65967L12.5765 7.82476Z" fill="#023191" fill-opacity="0.88"/>
    <path d="M3.89137 1.64551C3.4707 2.16436 3.00053 3.31997 3.00053 3.36714C3.00053 3.41431 2.30765 7.04624 2.30765 7.117C2.0602 8.5792 2.57986 9.54615 2.57986 9.6169L2.38189 9.68765C2.0602 8.79146 1.93647 8.27261 2.10969 6.97549C2.82731 3.10772 2.72833 3.06055 3.44595 1.90493C3.4707 1.90493 3.59443 1.8106 3.59443 1.78701C3.66866 1.78701 3.84188 1.66909 3.89137 1.64551Z" fill="#023191" fill-opacity="0.88"/>
    <path d="M6.71297 8.5083C6.68823 8.48472 4.53536 6.90459 3.71875 6.31499L3.84248 6.1499C4.65908 6.71592 6.81195 8.31963 6.8367 8.34321L6.71297 8.5083Z" fill="#023191" fill-opacity="0.88"/>
    <path d="M9.28412 11.5507C9.23463 11.5507 9.18514 11.5743 9.16039 11.5979C9.01192 11.6922 8.61599 11.9281 8.26955 11.9988C8.2448 11.9988 8.22006 12.0224 8.22006 12.0224L8.19531 12.046C8.88819 11.9045 9.55632 11.6451 10.1255 11.3149C10.0512 11.2441 9.82852 11.5036 9.28412 11.5507Z" fill="#0038E0"/>
    <path d="M12.3278 8.93306C12.9217 7.77744 13.0454 6.50391 12.798 5.32471C12.6495 5.46621 12.4763 5.51338 12.501 5.67847C12.5505 6.50391 12.2783 7.73027 12.2288 7.87178C12.1546 8.06045 12.4268 8.34346 12.3278 8.93306Z" fill="#0038E0"/>
    <path d="M9.11169 7.30586C9.0127 7.18794 8.83948 7.16436 8.71576 7.23511C8.22084 7.49453 7.03305 7.89546 6.53814 8.06055C6.41441 8.10772 6.31543 8.22564 6.31543 8.34356C6.43916 9.94727 6.1917 10.3718 6.61238 10.4661C7.28051 10.6312 8.41881 10.702 8.78999 10.7255C8.88898 10.7255 8.96321 10.702 9.0127 10.6548C9.45813 10.2539 10.052 9.38125 10.3242 9.00391C10.5469 8.69732 10.1015 8.53223 9.11169 7.30586Z" fill="#0038E0"/>
    <path d="M11.0422 3.57928C10.8689 3.08402 10.374 2.11707 10.0771 1.97557C9.58216 1.71614 8.41912 1.52747 7.94895 1.45672C7.84997 1.43314 7.72624 1.50389 7.7015 1.59822L7.23133 2.70667C7.18184 2.80101 7.23133 2.91893 7.33031 2.98968C7.84997 3.29627 8.88929 4.12171 9.23573 4.38113C9.30996 4.4283 9.3842 4.45189 9.48318 4.4283L10.9184 3.88587C11.0174 3.81512 11.0916 3.6972 11.0422 3.57928Z" fill="#0038E0"/>
    <path d="M4.28657 3.79179C3.29675 3.43803 3.02455 3.10785 2.75235 3.36728C2.10896 4.00404 1.51506 5.08891 1.53981 5.32475C1.5893 5.8436 1.8615 6.52753 2.03472 6.92846C2.10896 7.09355 2.30692 7.1643 2.4554 7.09355C2.85133 6.92846 3.5442 6.66904 3.89064 6.55112C4.01437 6.50395 4.08861 6.40961 4.08861 6.26811C4.11335 5.56059 4.33606 4.59364 4.43505 4.14555C4.50928 4.00404 4.43505 3.86254 4.28657 3.79179Z" fill="#0038E0"/>
    <path d="M4.92846 11.7865H4.90371C4.87897 11.7629 4.82948 11.7629 4.80473 11.7629C4.26033 11.5507 3.74067 11.2677 3.31999 10.9375C2.40441 10.2536 1.95898 9.52246 1.95898 9.49887C2.05797 9.49887 2.37966 9.3102 2.60237 9.56962C2.82508 9.85263 3.39423 10.4186 4.23558 10.8432C4.63151 11.1026 4.30982 10.9847 4.92846 11.7865Z" fill="#0038E0"/>
    <path d="M6.31512 0.867324C6.33987 0.96166 6.19139 0.96166 6.1419 1.00883C3.27141 2.07011 3.66734 1.95219 3.54361 1.85785C3.41988 1.76352 3.61785 1.81068 3.61785 1.81068C3.66734 1.7871 3.8653 1.66918 3.89005 1.6456C4.85513 1.07958 6.01817 0.84374 6.31512 0.867324Z" fill="#0038E0"/>
    <path opacity="0.15" d="M8.27027 0.937988C9.23534 1.9521 9.82924 3.29639 9.82924 4.78218C9.82924 8.4377 6.26587 11.1263 2.60352 10.3244C3.69232 11.4565 5.2513 12.1876 6.98349 12.1876C10.2499 12.1876 12.9224 9.64048 12.9224 6.50381C12.9224 3.79165 10.9428 1.504 8.27027 0.937988Z" fill="#0038E0"/>
</svg>
