<svg width="235" height="68" viewBox="0 0 235 68" fill="none" xmlns="http://www.w3.org/2000/svg">
<path d="M225.887 1.35746C229.909 1.35746 233.183 4.54882 233.183 8.47078V59.2954C233.183 63.2173 229.909 66.4087 225.887 66.4087H8.68796C4.66543 66.4087 1.39225 63.2173 1.39225 59.2954V8.47078C1.39225 4.54882 4.66543 1.35746 8.68796 1.35746H225.887ZM225.887 1.98519e-05H8.68796C3.91175 1.98519e-05 0 3.81398 0 8.47078V59.2954C0 63.9522 3.91175 67.7661 8.68796 67.7661H225.887C230.663 67.7661 234.575 63.9522 234.575 59.2954V8.47078C234.575 3.81398 230.663 1.98519e-05 225.887 1.98519e-05Z" fill="#A6A6A6"/>
<path d="M16.8286 12.7718C16.3182 13.2927 16.0228 14.1038 16.0228 15.1542V52.6204C16.0228 53.6708 16.3182 54.4818 16.8286 55.0028L16.9546 55.1171L38.4877 34.1308V33.6353L16.9546 12.649L16.8286 12.7718Z" fill="white"/>
<path d="M48.2637 41.1298L41.094 34.1308V33.6353L48.2724 26.6363L48.4331 26.7274L56.9343 31.4435C59.3604 32.7818 59.3604 34.9842 56.9343 36.3311L48.4331 41.0387L48.2637 41.1298V41.1298Z" fill="white"/>
<path d="M47.13 42.3419L39.7908 35.1863L18.1317 56.306C18.9375 57.1319 20.2516 57.2314 21.7459 56.4055L47.13 42.3419" fill="white"/>
<path d="M47.13 25.4242L21.7459 11.3606C20.2516 10.5432 18.9375 10.6427 18.1317 11.4686L39.7908 32.5799L47.13 25.4242Z" fill="white"/>
<path d="M82.3921 17.3545C82.3921 18.7691 81.9577 19.9021 81.102 20.747C80.1181 21.7487 78.8366 22.2527 77.2662 22.2527C75.7654 22.2527 74.4839 21.7402 73.4327 20.7301C72.3793 19.7051 71.8536 18.4472 71.8536 16.9415C71.8536 15.4359 72.3793 14.178 73.4327 13.1615C74.4839 12.1429 75.7654 11.6304 77.2662 11.6304C78.0134 11.6304 78.7258 11.7807 79.4056 12.0603C80.0833 12.3419 80.635 12.7231 81.0346 13.1932L80.1267 14.0869C79.4295 13.2843 78.4804 12.8883 77.2662 12.8883C76.1716 12.8883 75.2224 13.261 74.4166 14.0128C73.6195 14.7667 73.2198 15.7429 73.2198 16.9415C73.2198 18.1402 73.6195 19.1249 74.4166 19.8788C75.2224 20.6221 76.1716 21.0033 77.2662 21.0033C78.4283 21.0033 79.4057 20.6221 80.1767 19.8703C80.685 19.3726 80.9738 18.6865 81.0498 17.8098H77.2662V16.5858H82.3139C82.3748 16.8505 82.3921 17.1067 82.3921 17.3545V17.3545Z" fill="white" stroke="white" stroke-width="0.208511" stroke-miterlimit="10"/>
<path d="M90.4004 13.1106H85.6589V16.3295H89.9334V17.5536H85.6589V20.7724H90.4004V22.0198H84.3167V11.8633H90.4004V13.1106Z" fill="white" stroke="white" stroke-width="0.208511" stroke-miterlimit="10"/>
<path d="M96.0519 22.0198H94.7096V13.1106H91.8013V11.8633H98.9623V13.1106H96.0519V22.0198V22.0198Z" fill="white" stroke="white" stroke-width="0.208511" stroke-miterlimit="10"/>
<path d="M104.145 22.0198V11.8633H105.485V22.0198H104.145Z" fill="white" stroke="white" stroke-width="0.208511" stroke-miterlimit="10"/>
<path d="M111.425 22.0198H110.094V13.1106H107.175V11.8633H114.344V13.1106H111.425V22.0198Z" fill="white" stroke="white" stroke-width="0.208511" stroke-miterlimit="10"/>
<path d="M127.902 20.7131C126.875 21.7402 125.602 22.2527 124.084 22.2527C122.557 22.2527 121.284 21.7402 120.257 20.7131C119.231 19.6882 118.721 18.4303 118.721 16.9415C118.721 15.4528 119.231 14.1949 120.257 13.1699C121.284 12.1429 122.557 11.6304 124.084 11.6304C125.593 11.6304 126.866 12.1429 127.893 13.1784C128.927 14.2118 129.438 15.4613 129.438 16.9415C129.438 18.4303 128.927 19.6882 127.902 20.7131ZM121.249 19.8618C122.022 20.6221 122.963 21.0033 124.084 21.0033C125.196 21.0033 126.145 20.6221 126.909 19.8618C127.68 19.1016 128.071 18.1253 128.071 16.9415C128.071 15.7577 127.68 14.7815 126.909 14.0212C126.145 13.261 125.196 12.8798 124.084 12.8798C122.963 12.8798 122.022 13.261 121.249 14.0212C120.478 14.7815 120.087 15.7577 120.087 16.9415C120.087 18.1253 120.478 19.1016 121.249 19.8618V19.8618Z" fill="white" stroke="white" stroke-width="0.208511" stroke-miterlimit="10"/>
<path d="M131.321 22.0198V11.8633H132.95L138.015 19.7623H138.073L138.015 17.8098V11.8633H139.355V22.0198H137.956L132.652 13.7311H132.593L132.652 15.6921V22.0198H131.321V22.0198Z" fill="white" stroke="white" stroke-width="0.208511" stroke-miterlimit="10"/>
<path d="M118.391 36.8521C114.31 36.8521 110.976 39.8804 110.976 44.0586C110.976 48.2029 114.31 51.263 118.391 51.263C122.481 51.263 125.815 48.2029 125.815 44.0586C125.815 39.8804 122.481 36.8521 118.391 36.8521ZM118.391 48.4253C116.152 48.4253 114.225 46.6231 114.225 44.0586C114.225 41.4602 116.152 39.6898 118.391 39.6898C120.63 39.6898 122.565 41.4602 122.565 44.0586C122.565 46.6231 120.63 48.4253 118.391 48.4253V48.4253ZM102.212 36.8521C98.1218 36.8521 94.7965 39.8804 94.7965 44.0586C94.7965 48.2029 98.1218 51.263 102.212 51.263C106.299 51.263 109.627 48.2029 109.627 44.0586C109.627 39.8804 106.299 36.8521 102.212 36.8521ZM102.212 48.4253C99.9702 48.4253 98.0371 46.6231 98.0371 44.0586C98.0371 41.4602 99.9702 39.6898 102.212 39.6898C104.451 39.6898 106.378 41.4602 106.378 44.0586C106.378 46.6231 104.451 48.4253 102.212 48.4253ZM82.9592 39.0608V42.123H90.459C90.2397 43.8341 89.6532 45.092 88.754 45.9687C87.6594 47.0276 85.9543 48.2029 82.9592 48.2029C78.3437 48.2029 74.7295 44.5711 74.7295 40.071C74.7295 35.5709 78.3437 31.9391 82.9592 31.9391C85.4548 31.9391 87.2706 32.8899 88.6107 34.1224L90.8239 31.9645C88.9495 30.2195 86.4561 28.879 82.9592 28.879C76.63 28.879 71.3108 33.9 71.3108 40.071C71.3108 46.2419 76.63 51.263 82.9592 51.263C86.3801 51.263 88.9495 50.1702 90.9695 48.1203C93.0394 46.1022 93.6845 43.2645 93.6845 40.9731C93.6845 40.2616 93.6236 39.6072 93.515 39.0608H82.9592ZM161.685 41.4348C161.075 39.8232 159.192 36.8521 155.356 36.8521C151.555 36.8521 148.39 39.7724 148.39 44.0586C148.39 48.0949 151.522 51.263 155.721 51.263C159.116 51.263 161.075 49.2448 161.881 48.0695L159.361 46.4325C158.521 47.6311 157.376 48.4253 155.721 48.4253C154.077 48.4253 152.897 47.6904 152.141 46.2419L162.026 42.2543L161.685 41.4348V41.4348ZM151.607 43.8341C151.522 41.0557 153.82 39.6326 155.467 39.6326C156.757 39.6326 157.852 40.2616 158.216 41.1616L151.607 43.8341V43.8341ZM143.573 50.8246H146.822V29.6477H143.573V50.8246ZM138.252 38.4573H138.143C137.413 37.6145 136.021 36.8521 134.257 36.8521C130.556 36.8521 127.172 40.0202 127.172 44.0819C127.172 48.1203 130.556 51.263 134.257 51.263C136.021 51.263 137.413 50.4942 138.143 49.626H138.252V50.6594C138.252 53.4145 136.742 54.8948 134.307 54.8948C132.322 54.8948 131.09 53.4971 130.582 52.3218L127.756 53.4717C128.571 55.3819 130.728 57.7325 134.307 57.7325C138.117 57.7325 141.331 55.5471 141.331 50.2295V37.2905H138.252V38.4573V38.4573ZM134.535 48.4253C132.296 48.4253 130.421 46.5977 130.421 44.0819C130.421 41.5428 132.296 39.6898 134.535 39.6898C136.742 39.6898 138.482 41.5428 138.482 44.0819C138.482 46.5977 136.742 48.4253 134.535 48.4253V48.4253ZM176.898 29.6477H169.126V50.8246H172.367V42.8007H176.898C180.497 42.8007 184.026 40.2616 184.026 36.2231C184.026 32.1868 180.488 29.6477 176.898 29.6477V29.6477ZM176.982 39.855H172.367V32.5934H176.982C179.402 32.5934 180.783 34.5523 180.783 36.2231C180.783 37.8622 179.402 39.855 176.982 39.855ZM197.015 36.8119C194.673 36.8119 192.238 37.8199 191.237 40.054L194.113 41.2294C194.732 40.054 195.87 39.6729 197.073 39.6729C198.754 39.6729 200.459 40.6576 200.486 42.3962V42.6186C199.899 42.2882 198.644 41.799 197.099 41.799C194.002 41.799 190.846 43.4614 190.846 46.5638C190.846 49.4015 193.383 51.2291 196.235 51.2291C198.416 51.2291 199.619 50.2698 200.375 49.1538H200.486V50.7907H203.615V42.6673C203.615 38.9126 200.74 36.8119 197.015 36.8119ZM196.624 48.4168C195.564 48.4168 194.087 47.9043 194.087 46.6231C194.087 44.984 195.929 44.3551 197.523 44.3551C198.95 44.3551 199.619 44.6621 200.486 45.0666C200.231 47.0276 198.5 48.4168 196.624 48.4168V48.4168ZM215.018 37.2756L211.293 46.4558H211.183L207.332 37.2756H203.837L209.623 50.1046L206.322 57.2433H209.708L218.624 37.2756H215.018V37.2756ZM185.807 50.8246H189.057V29.6477H185.807V50.8246Z" fill="white"/>
</svg>
