<svg width="20" height="20" viewBox="0 0 20 20" fill="none" xmlns="http://www.w3.org/2000/svg">
<g id="GoogleLogo">
<path id="Vector" d="M17.5 9.99963C17.5001 11.7656 16.877 13.4749 15.7405 14.8266C14.6041 16.1783 13.0271 17.0856 11.2873 17.3887C9.54756 17.6918 7.75665 17.3713 6.23001 16.4836C4.70337 15.5959 3.53893 14.198 2.94178 12.5361C2.34464 10.8741 2.35309 9.05479 2.96566 7.39847C3.57822 5.74215 4.7556 4.35511 6.29043 3.48165C7.82525 2.60819 9.61907 2.30433 11.3559 2.6236C13.0928 2.94287 14.6613 3.86479 15.7852 5.22697C15.841 5.28975 15.8835 5.36313 15.9103 5.44273C15.9371 5.52233 15.9476 5.60651 15.9411 5.69025C15.9347 5.77399 15.9114 5.85557 15.8727 5.93012C15.834 6.00466 15.7807 6.07064 15.7159 6.12412C15.6511 6.17759 15.5763 6.21746 15.4957 6.24135C15.4152 6.26523 15.3307 6.27265 15.2473 6.26314C15.1638 6.25364 15.0831 6.22741 15.01 6.18602C14.937 6.14464 14.873 6.08895 14.8219 6.02228C13.9026 4.90769 12.6256 4.14598 11.2081 3.86675C9.79061 3.58751 8.32013 3.80799 7.04684 4.49068C5.77356 5.17337 4.77611 6.2761 4.22419 7.61128C3.67226 8.94646 3.59995 10.4316 4.01955 11.8141C4.43915 13.1966 5.32475 14.391 6.52569 15.1941C7.72663 15.9973 9.16874 16.3596 10.6067 16.2194C12.0446 16.0792 13.3896 15.4452 14.4127 14.4251C15.4359 13.4051 16.0741 12.0621 16.2188 10.6246H10C9.83424 10.6246 9.67527 10.5588 9.55806 10.4416C9.44085 10.3244 9.375 10.1654 9.375 9.99963C9.375 9.83386 9.44085 9.67489 9.55806 9.55768C9.67527 9.44047 9.83424 9.37463 10 9.37463H16.875C17.0408 9.37463 17.1997 9.44047 17.3169 9.55768C17.4342 9.67489 17.5 9.83386 17.5 9.99963Z" fill="white"/>
</g>
</svg>
