<svg width="300" height="241" viewBox="0 0 300 241" fill="none" xmlns="http://www.w3.org/2000/svg">
<path d="M300.404 231.847H0.404297L50.4043 9.14062H248.804L300.404 231.847Z" fill="#01095E"/>
<path d="M294.04 240.015H5.55259L0.00390625 231.848H300.004L294.04 240.015Z" fill="url(#paint0_linear_934_188664)"/>
<g opacity="0.5">
<path d="M53.6031 12.8281L12.3906 223.958H287.749L245.603 12.8281H53.6031ZM104.49 31.4791L107.668 13.5728H128.978L128.476 19.7161H168.409L167.852 13.5728H189.61L192.985 31.4791H104.49ZM163.133 32.3517C162.489 32.759 161.517 33.3058 160.206 33.8527C156.798 35.2721 152.877 36.0051 148.595 36.0051C144.325 36.0051 140.436 35.2605 137.061 33.7945C135.871 33.2825 134.964 32.759 134.341 32.3517H163.133ZM130.475 13.5728H166.345L166.792 18.9249H130.071L130.475 13.5728ZM106.172 13.5728L102.71 32.3517H132.244C132.801 32.7822 134.036 33.62 135.969 34.4693C138.492 35.5746 142.752 36.9127 148.595 36.9127C154.428 36.9127 158.721 35.6212 161.277 34.5391C163.472 33.6083 164.772 32.7008 165.231 32.3517H194.765L191.095 13.5728H244.403L258.403 83.639H174.602C173.936 79.5319 171.041 75.8087 166.443 73.0279C161.648 70.1308 155.488 68.56 149.021 68.56C142.555 68.56 136.417 70.1308 131.654 73.0279C127.089 75.8087 124.238 79.5319 123.615 83.639H41.5963L54.8031 13.5728H106.172ZM147.689 84.9305C147.973 85.1516 148.399 85.2912 148.868 85.2912C149.338 85.2912 149.764 85.1516 150.048 84.9305H172.756C173.073 93.4939 162.675 100.754 149.218 100.754C135.75 100.754 125.276 93.5056 125.494 84.9305H147.689ZM150.081 83.639C149.797 83.4063 149.36 83.2551 148.858 83.2551C148.366 83.2551 147.929 83.4063 147.645 83.639H125.603C126.805 75.7388 137.05 69.7235 149.032 69.7235C161.014 69.7235 171.336 75.7272 172.625 83.639H150.081ZM217.847 167.403L227.603 222.203H186.403L183.603 200.827H114.803L112.403 222.203H69.6031L79.6031 167.403H217.847ZM126.401 165.794C127.482 164.828 129.099 163.525 131.218 162.245C136.602 158.976 142.533 157.347 148.923 157.347C155.302 157.347 161.2 159.023 166.53 162.385C168.453 163.595 169.96 164.828 171.019 165.794H126.401ZM184.403 222.203H114.403L116.403 202.603H182.003L184.403 222.203ZM229.603 222.203L219.203 165.794H174.263C173.28 164.77 171.194 162.792 168.07 160.814C164.073 158.301 157.563 155.334 148.912 155.334C140.283 155.334 133.73 158.208 129.71 160.64C126.171 162.781 123.943 164.945 123.135 165.782L78.0031 165.794L67.6031 222.203H14.4031L41.2031 84.9305H123.506C123.353 89.2937 125.734 93.5056 130.344 96.775C135.237 100.254 141.976 102.197 149.218 102.197C156.46 102.197 163.177 100.254 168.038 96.775C172.614 93.5056 174.941 89.2937 174.733 84.9305H258.807L285.203 222.203H229.603Z" fill="white"/>
<path d="M148.507 24.7031C147.819 24.7031 147.262 24.994 147.262 25.3547C147.262 25.7154 147.819 26.0063 148.507 26.0063C149.195 26.0063 149.752 25.7154 149.752 25.3547C149.752 24.994 149.195 24.7031 148.507 24.7031Z" fill="white"/>
<path d="M149.36 185.329C150.517 185.329 151.435 184.503 151.424 183.503C151.413 182.502 150.485 181.688 149.338 181.688C148.191 181.688 147.273 182.502 147.273 183.503C147.273 184.503 148.202 185.329 149.36 185.329Z" fill="white"/>
</g>
<g opacity="0.12">
<path d="M262.403 67.9908L258.803 51.4225L41.2031 50.4219L37.2031 66.9669L262.403 67.9908Z" fill="black"/>
<path d="M269.476 97.7171L264.803 78.4379L35.2027 77.4023L30.8027 96.6816L269.476 97.7171Z" fill="black"/>
<path d="M256.404 42.3974L253.204 28.0281L46.4035 27.0508L43.6035 41.4084L256.404 42.3974Z" fill="black"/>
<path d="M251.204 20.1474L248.804 9.14062H50.4043L48.4043 19.1933L251.204 20.1474Z" fill="black"/>
<path d="M277.603 132.602L272.003 109.934L28.0031 108.91L23.2031 131.657L277.603 132.602Z" fill="black"/>
<path d="M298.803 225.003L291.203 191.986L9.60313 190.203L2.51562 224.203L298.803 225.003Z" fill="black"/>
<path d="M286.803 174.2L280.803 147.235L20.0035 146.188L13.6035 173.437L286.803 174.2Z" fill="black"/>
</g>
<path d="M132.668 13.6067V1.23864H164.387V13.6067H165.36V0.726702C165.36 0.435826 165.141 0.203125 164.879 0.203125H132.188C131.915 0.203125 131.707 0.435826 131.707 0.726702V13.6183H132.668V13.6067Z" fill="#EAEAEA"/>
<path d="M0.00390625 231.845H300.004L299.676 231.019L0.495423 230.367L0.00390625 231.845Z" fill="#02075A"/>
<path d="M165.056 13.6088V1.01967C165.056 0.728795 164.838 0.496094 164.575 0.496094H132.463C132.201 0.496094 131.982 0.728795 131.982 1.01967V13.6088H132.474L132.43 0.90332H164.575L164.619 13.6088H165.056Z" fill="#F2F2F2"/>
<defs>
<linearGradient id="paint0_linear_934_188664" x1="150.004" y1="241.322" x2="150.004" y2="231.323" gradientUnits="userSpaceOnUse">
<stop stop-color="#01095E"/>
<stop offset="1" stop-color="#030A33"/>
</linearGradient>
</defs>
</svg>
