<svg width="25" height="24" viewBox="0 0 25 24" fill="currentColor"
  xmlns="http://www.w3.org/2000/svg">
  <path
    d="M10.6022 14.5753L15.0581 4.48838C15.1056 4.38083 15.0955 4.25652 15.0314 4.15798C14.9672 4.05944 14.8575 4 14.7399 4H3.84783C3.65572 4 3.5 4.15572 3.5 4.34783V14.4348C3.5 14.6269 3.65572 14.7826 3.84783 14.7826H10.2841C10.4218 14.7826 10.5465 14.7013 10.6022 14.5753ZM8.3945 12.3479C8.38623 12.3479 8.37788 12.3471 8.36957 12.3464C8.36125 12.347 8.35294 12.3479 8.34463 12.3479C8.21798 12.3479 8.0959 12.2785 8.03444 12.1579L5.27704 6.74619C5.18984 6.57503 5.25788 6.36557 5.42904 6.27837C5.60014 6.19117 5.80964 6.2592 5.89687 6.43037L8.36957 11.2833L10.8423 6.43037C10.9295 6.2592 11.1389 6.1912 11.3101 6.27837C11.4813 6.36557 11.5493 6.57503 11.4621 6.74619L8.7047 12.1579C8.64323 12.2785 8.52111 12.3479 8.3945 12.3479Z"
    fill="currentColor" />
  <path
    d="M20.8913 9.55243H14.5525C14.4157 9.55243 14.2915 9.63271 14.2354 9.75751L9.84701 19.5094C9.79856 19.6171 9.80802 19.7419 9.87213 19.841C9.9362 19.9401 10.0462 19.9999 10.1642 19.9999H20.8913C21.0833 19.9999 21.2391 19.8442 21.2391 19.6521V9.90026C21.2391 9.70815 21.0833 9.55243 20.8913 9.55243ZM17.0652 14.4284H17.2391C18.246 14.4284 19.0652 15.2476 19.0652 16.2544C19.0652 17.2613 18.246 18.0805 17.2391 18.0805H15.5869C15.3948 18.0805 15.2391 17.9248 15.2391 17.7327C15.2391 17.5406 15.3948 17.3849 15.5869 17.3849H17.2391C17.8624 17.3849 18.3695 16.8778 18.3695 16.2544C18.3695 15.6311 17.8624 15.124 17.2391 15.124H17.0652C16.0583 15.124 15.2391 14.3048 15.2391 13.2979C15.2391 12.291 16.0583 11.4718 17.0652 11.4718H18.7173C18.9094 11.4718 19.0652 11.6275 19.0652 11.8196C19.0652 12.0117 18.9094 12.1675 18.7173 12.1675H17.0652C16.4418 12.1675 15.9347 12.6746 15.9347 13.2979C15.9347 13.9213 16.4418 14.4284 17.0652 14.4284Z"
    fill="currentColor" />
</svg>