<svg width="375" height="400" viewBox="0 0 375 400" fill="none" xmlns="http://www.w3.org/2000/svg">
<mask id="mask0_5702_524" style="mask-type:alpha" maskUnits="userSpaceOnUse" x="0" y="0" width="375" height="400">
<rect width="375" height="400" fill="#4EB158"/>
</mask>
<g mask="url(#mask0_5702_524)">
<rect width="375" height="400" fill="#456A48"/>
<circle cx="188" cy="400" r="57" transform="rotate(90 188 400)" fill="#84CE84" fill-opacity="0.01" stroke="#567856" stroke-width="2"/>
<circle cx="187.5" cy="401.5" r="5.5" transform="rotate(90 187.5 401.5)" fill="#567856"/>
<rect x="295" y="1" width="83" height="214" transform="rotate(90 295 1)" fill="#50B158" fill-opacity="0.01" stroke="#567856" stroke-width="2"/>
<rect x="241" y="1" width="43" height="107" transform="rotate(90 241 1)" fill="#3D9F53" fill-opacity="0.01" stroke="#567856" stroke-width="2"/>
<mask id="path-7-inside-1_5702_524" fill="white">
<path fill-rule="evenodd" clip-rule="evenodd" d="M132.001 83C138.612 107.762 161.197 126 188.042 126C214.888 126 237.473 107.762 244.084 83L132.001 83Z"/>
</mask>
<path fill-rule="evenodd" clip-rule="evenodd" d="M132.001 83C138.612 107.762 161.197 126 188.042 126C214.888 126 237.473 107.762 244.084 83L132.001 83Z" fill="#E2F0D0" fill-opacity="0.01"/>
<path d="M132.001 83L132.001 81L129.397 81L130.068 83.5159L132.001 83ZM244.084 83L246.016 83.5159L246.688 81L244.084 81L244.084 83ZM188.042 124C162.126 124 140.316 106.393 133.933 82.4841L130.068 83.5159C136.907 109.131 160.269 128 188.042 128L188.042 124ZM242.152 82.4841C235.769 106.393 213.959 124 188.042 124L188.042 128C215.816 128 239.178 109.131 246.016 83.5159L242.152 82.4841ZM244.084 81L132.001 81L132.001 85L244.084 85L244.084 81Z" fill="#567856" mask="url(#path-7-inside-1_5702_524)"/>
</g>
</svg>
