<svg width="16" height="16" viewBox="0 0 16 16" fill="currentColor" xmlns="http://www.w3.org/2000/svg">
<path d="M4 3.20039C4 2.75858 4.35819 2.40039 4.8 2.40039H15.2C15.6418 2.40039 16 2.75858 16 3.20039C16 3.6422 15.6418 4.00039 15.2 4.00039H4.8C4.35819 4.00039 4 3.64217 4 3.20039ZM15.2 7.20039H0.8C0.358188 7.20039 0 7.55861 0 8.00039C0 8.4422 0.358188 8.80039 0.8 8.80039H15.2C15.6418 8.80039 16 8.4422 16 8.00039C16 7.55861 15.6418 7.20039 15.2 7.20039ZM15.2 12.0004H8C7.55822 12.0004 7.2 12.3586 7.2 12.8004C7.2 13.2422 7.55822 13.6004 8 13.6004H15.2C15.6418 13.6004 16 13.2422 16 12.8004C16 12.3586 15.6418 12.0004 15.2 12.0004Z" fill="currentColor"/>
</svg>
