<svg width="36" height="36" viewBox="0 0 36 36" fill="none" xmlns="http://www.w3.org/2000/svg">
<path d="M17.7898 1.54675C11.571 1.54675 6.12239 4.84244 3.09375 9.78218L9.65102 33.9588C12.0749 35.2606 14.8459 35.9997 17.7898 35.9997C27.3038 35.9997 35.0163 28.2872 35.0163 18.7732C35.0163 9.25933 27.3038 1.54675 17.7898 1.54675Z" fill="#0E60AC"/>
<path d="M18.0768 8.01229C17.6438 6.03658 15.8125 3.38081 14.6433 1.83386C10.7678 2.54887 7.34698 4.56128 4.84766 7.40381C6.78392 8.12493 8.97177 9.68116 12.3404 11.2934C17.4946 13.7604 18.6215 10.4971 18.0768 8.01229Z" fill="#0E60AC"/>
<path d="M31.1474 4.64785C30.6785 2.82429 29.3602 2.50641 28.7088 2.46408C28.4218 2.44538 28.1426 2.36733 27.887 2.23515C26.7482 1.64614 23.7839 0.135333 23.0967 0.00715291C22.0596 -0.186206 18.4209 3.52278 18.7725 5.42122C18.7725 5.42122 19.0367 6.67714 19.9786 6.87239C20.1335 6.90446 20.2698 6.99467 20.3535 7.12882C20.5612 7.46182 21.0477 8.022 21.9145 7.87913C22.1161 7.84594 22.3224 7.91246 22.4534 8.06932C22.7122 8.37933 23.2502 8.80297 24.1473 8.54977C24.2607 8.51778 24.3805 8.51883 24.4912 8.55912C24.8592 8.69307 25.7855 8.931 26.6438 8.35163C26.644 8.35156 26.6442 8.35156 26.6444 8.35142C27.2012 8.1729 27.3515 8.62177 27.3515 8.62177C28.215 13.2842 26.56 15.8648 26.1035 16.4698C26.0716 16.5198 26.0348 16.5672 25.9912 16.6096C25.4448 17.1412 24.3784 18.4007 24.0766 20.3639C24.0155 20.7612 23.4951 20.8731 23.2725 20.5384C21.375 16.7434 17.1213 16.2479 14.6804 16.3026C14.739 16.4738 14.772 16.6545 14.7766 16.8387C14.8375 19.2759 14.7283 27.1725 11.1523 33.1385C11.0513 33.3069 10.9246 33.4542 10.7793 33.5775C12.1324 33.6511 13.6517 33.5364 15.32 33.1172C15.6345 33.0381 15.9667 33.0775 16.2561 33.2235C17.5793 33.8907 21.7465 35.569 26.5287 33.1914C27.0199 32.9472 27.5803 32.8824 28.1171 32.9957C29.3843 33.2634 31.7533 33.4197 32.413 31.0853C32.413 31.0853 35.4365 26.0931 35.4365 19.9056C35.4365 13.7181 31.7802 7.10879 31.1474 4.64785Z" fill="#F9BA8F"/>
<path d="M14.9271 22.6395C14.8466 22.6395 14.6729 22.734 14.4391 22.8917C14.0142 26.0874 13.0949 29.8977 11.1523 33.1386C11.0513 33.3071 10.9246 33.4543 10.7793 33.5776C12.1324 33.6512 13.6517 33.5366 15.32 33.1173C15.6345 33.0383 15.9667 33.0776 16.2561 33.2236C14.9794 28.7139 19.0533 27.2821 19.0533 27.2821L17.8494 22.6395C17.8496 22.6395 15.4236 22.6395 14.9271 22.6395Z" fill="#FFAA7B"/>
<path d="M30.0022 8.0618C28.76 6.81959 26.6449 8.35198 26.6449 8.35198C27.2017 8.17345 27.352 8.62233 27.352 8.62233C28.2155 13.2847 26.5605 15.8654 26.104 16.4703C26.0721 16.5204 26.0353 16.5677 25.9917 16.6101C25.4453 17.1417 24.3789 18.4012 24.0771 20.3644C24.016 20.7617 23.4956 20.8736 23.273 20.539C21.3755 16.744 17.1218 16.2485 14.681 16.3032C14.7395 16.4744 14.7725 16.655 14.7771 16.8393C14.8153 18.3714 14.7861 22.0608 13.8711 26.0719C18.3388 27.7823 22.7281 26.025 22.7281 26.025C25.4618 26.9257 26.645 25.1206 26.645 25.1206C32.9765 24.1733 31.2444 9.30394 30.0022 8.0618Z" fill="#FFAA7B"/>
<path d="M13.225 26.1098C12.9696 25.9697 12.8762 25.6492 13.0163 25.3938C13.1563 25.1384 13.477 25.045 13.7323 25.1851C16.0081 26.4337 18.8153 26.5943 22.0758 25.6623C22.3554 25.5823 22.6477 25.7443 22.7277 26.0244C22.8078 26.3044 22.6456 26.5963 22.3656 26.6763C19.2818 27.5578 16.0581 27.6642 13.225 26.1098Z" fill="#FD995B"/>
<path d="M14.3437 15.5692C13.7596 15.0311 13.1567 14.5366 12.5437 14.0819C12.5789 14.2245 12.5994 14.3714 12.6032 14.5204C12.6723 17.2868 12.5484 26.25 8.48952 33.0217C8.45267 33.0832 8.41175 33.1412 8.36914 33.1977C8.80972 33.486 9.26422 33.7545 9.73152 34.0022C10.3682 34.012 10.9651 33.6855 11.293 33.1385C14.869 27.1725 14.9782 19.2759 14.9173 16.8387C14.9052 16.3555 14.6991 15.8968 14.3437 15.5692Z" fill="#0A2844" fill-opacity="0.996078"/>
<path d="M13.7343 25.5704C12.6687 25.9024 12.1745 25.3148 11.9587 24.8612C11.8973 24.732 11.7924 24.6357 11.6683 24.5809C11.0606 27.3956 10.0754 30.3761 8.48952 33.022C8.45267 33.0835 8.41175 33.1415 8.36914 33.198C8.80965 33.4863 9.26415 33.7548 9.73152 34.0025C10.3682 34.0124 10.9651 33.6858 11.293 33.1388C12.7135 30.7688 13.5867 28.0943 14.1197 25.5783C13.9989 25.5348 13.8639 25.53 13.7343 25.5704Z" fill="#0A2844"/>
<path d="M12.6731 14.1788C9.37308 11.6948 5.75677 10.3836 3.14198 9.70386C1.50736 12.3381 0.5625 15.4452 0.5625 18.7735C0.5625 24.8486 3.70765 30.1888 8.45817 33.2559C8.50155 33.1981 8.54311 33.1387 8.58066 33.076C12.6713 26.2515 12.775 17.146 12.7095 14.5179C12.7066 14.4035 12.6941 14.2901 12.6731 14.1788Z" fill="#FFA722"/>
<path d="M11.2867 24.5453C4.02558 26.2667 0.780586 19.8091 0.574219 19.3807C0.776086 25.2033 3.86759 30.2913 8.45913 33.2556C8.50252 33.1979 8.54407 33.1385 8.58162 33.0758C10.1656 30.4332 11.1515 27.4487 11.7615 24.6307C11.6261 24.5396 11.454 24.5056 11.2867 24.5453Z" fill="#2187E5"/>
</svg>
