<svg width="24" height="24" viewBox="0 0 24 24" fill="none" xmlns="http://www.w3.org/2000/svg">
<g clip-path="url(#clip0_3702_6496)">
<path fill-rule="evenodd" clip-rule="evenodd" d="M7.70594 22.218L8.13911 20.3099L7.70594 17.8969L6.70277 17.4771H5.8338V20.1253C5.8338 20.5345 5.82452 20.6143 5.41394 20.7205C4.74161 20.8933 3.95767 21.5098 4.06928 22.218H7.70594V22.218Z" fill="#FFEEE6"/>
<path d="M13.5188 0.724359H9.55747C9.35745 0.724359 9.19531 0.562219 9.19531 0.362203C9.19531 0.162188 9.35745 0 9.55747 0H13.5188C13.7188 0 13.881 0.162141 13.881 0.362156C13.881 0.562172 13.7188 0.724359 13.5188 0.724359Z" fill="#00C2FB"/>
<path fill-rule="evenodd" clip-rule="evenodd" d="M11.7306 10.5892L10.8135 9.93896L9.98669 10.5892L9.67188 11.9156L9.98669 13.3159C10.0907 13.7841 10.3782 14.1893 10.8586 14.1893C11.3377 14.1893 11.7305 13.7964 11.7305 13.3159V10.5892H11.7306Z" fill="#FFEEE6"/>
<path fill-rule="evenodd" clip-rule="evenodd" d="M5.16708 10.5895L4.29516 10.1323L3.42188 10.5895V13.3163C3.42188 13.7967 3.81473 14.1896 4.29516 14.1896C4.77422 14.1896 5.16708 13.7967 5.16708 13.3163L5.60236 12.0117L5.16708 10.5895Z" fill="#FFEEE6"/>
<path fill-rule="evenodd" clip-rule="evenodd" d="M9.98634 13.3162V17.5468C9.98634 17.6796 9.87675 17.7878 9.74536 17.7878H5.40895C5.27616 17.7878 5.16797 17.6796 5.16797 17.5468V13.3162L7.57716 12.5957L9.98634 13.3162Z" fill="#7E707D"/>
<path fill-rule="evenodd" clip-rule="evenodd" d="M6.34837 6.94678C4.53197 6.94678 3.42188 8.25675 3.42188 10.1636V10.5893H5.16712V13.3161H9.98527V10.5893H11.7291V10.1636C11.7291 8.25675 10.619 6.94678 8.80397 6.94678C8.26195 8.10754 6.89859 8.17462 6.34837 6.94678Z" fill="#E85165"/>
<path fill-rule="evenodd" clip-rule="evenodd" d="M6.36955 6.9634C6.36134 6.95791 6.3545 6.95243 6.34766 6.94699V7.44251C6.34766 8.1858 6.89928 8.79354 7.5755 8.79354C8.25031 8.79354 8.80334 8.18576 8.80334 7.44251V6.94699C7.88483 6.30499 7.12513 6.42405 6.36955 6.9634Z" fill="#FFCEBF"/>
<path fill-rule="evenodd" clip-rule="evenodd" d="M9.93791 20.6969C9.51631 20.5874 9.50675 20.5053 9.50675 20.0836V17.7881H8.83058H7.57812V22.2396H11.3246C11.4395 21.51 10.6305 20.8749 9.93791 20.6969Z" fill="#FFEEE6"/>
<path fill-rule="evenodd" clip-rule="evenodd" d="M9.50625 20.0836V17.7881H8.83008V20.6681C8.83008 21.0884 8.83964 21.1719 9.26264 21.28C9.75952 21.4087 10.318 21.7741 10.5493 22.2396H11.3241C11.439 21.51 10.6301 20.8749 9.93745 20.6969C9.51581 20.5874 9.50625 20.5052 9.50625 20.0836Z" fill="#FFDFCF"/>
<path fill-rule="evenodd" clip-rule="evenodd" d="M6.66016 17.7881H7.57727V22.2396H6.66016V17.7881Z" fill="#FFDFCF"/>
<path fill-rule="evenodd" clip-rule="evenodd" d="M8.38259 7.19194C9.32431 6.75389 10.0676 5.71359 10.0676 4.87312V4.11202C9.05881 4.04222 9.20938 2.7637 8.51403 2.943C7.97609 3.08123 7.77763 3.15108 7.57775 3.15108C7.37788 3.15108 7.17941 3.08128 6.64147 2.943C5.94613 2.7637 6.09533 4.04217 5.08789 4.11202V4.87308C5.08789 5.71355 5.82978 6.75389 6.77155 7.19189C6.83178 7.21926 6.89202 7.24528 6.95361 7.26853C7.17945 7.35202 7.37792 7.39308 7.5778 7.39308C7.77627 7.39308 7.97614 7.35202 8.20062 7.26853C8.26217 7.24533 8.32377 7.21931 8.38259 7.19194Z" fill="#FFEEE6"/>
<path fill-rule="evenodd" clip-rule="evenodd" d="M10.0676 4.11179C10.0676 2.26248 8.822 1.3262 7.57775 1.30566C6.33214 1.3262 5.08789 2.26248 5.08789 4.11179C6.09533 4.04199 5.94613 3.27132 6.64147 3.45062C7.17941 3.58885 7.37788 3.6587 7.57775 3.6587C7.77763 3.6587 7.97609 3.5889 8.51403 3.45062C9.20938 3.27132 9.05881 4.04199 10.0676 4.11179Z" fill="#7E707D"/>
<path fill-rule="evenodd" clip-rule="evenodd" d="M20.3234 1.94V22.2401L18.0292 23.1093L16.0469 22.2401V1.94L17.9606 1.0708L20.3234 1.94Z" fill="#00C2FB"/>
<path fill-rule="evenodd" clip-rule="evenodd" d="M20.9084 0.243656C20.9084 0.1095 20.7989 0 20.6647 0H13.5195V0.969141C13.5195 1.503 13.9548 1.93964 14.4887 1.93964H16.0464H17.96H20.3225H20.6647C20.7988 1.93964 20.9083 1.82878 20.9083 1.69598V0.243656H20.9084Z" fill="#FEE17D"/>
<path fill-rule="evenodd" clip-rule="evenodd" d="M20.3232 22.2397H16.047H12.3088H8.74575H5.18273H2.47252C1.98933 22.2397 1.59375 22.6353 1.59375 23.1199V23.7633C1.59375 23.8933 1.69912 24.0001 1.8292 24.0001H22.1437C22.2888 24.0001 22.4065 23.881 22.4065 23.7373V22.5026C22.4065 22.3575 22.2888 22.2397 22.1437 22.2397H20.3232Z" fill="#7E707D"/>
<path fill-rule="evenodd" clip-rule="evenodd" d="M10.0663 4.11229C10.0663 2.56823 9.19711 1.65932 8.18555 1.38965C8.7892 1.82085 9.2272 2.55454 9.26555 3.59076C9.26691 3.63866 9.26827 3.68793 9.26827 3.73724V3.78379C9.4312 3.93435 9.64884 4.08355 10.0663 4.11229Z" fill="#6A5D6A"/>
<path fill-rule="evenodd" clip-rule="evenodd" d="M10.0669 4.87325V4.11219C9.64944 4.08346 9.4318 3.93425 9.26891 3.78369V4.49961C9.26891 5.33872 8.52702 6.38043 7.58525 6.81843C7.52502 6.8458 7.46478 6.87046 7.40319 6.89371C7.17734 6.97719 6.97887 7.01966 6.779 7.01966C6.6462 7.01966 6.51209 7.00049 6.37109 6.96355C6.49841 7.05116 6.63252 7.1278 6.7708 7.19216C6.83103 7.21954 6.89127 7.24555 6.95286 7.2688C7.1787 7.35228 7.37717 7.39335 7.57705 7.39335C7.77552 7.39335 7.97539 7.35228 8.19988 7.2688C8.26147 7.24555 8.32306 7.21954 8.38194 7.19216C9.32366 6.75407 10.0669 5.71372 10.0669 4.87325Z" fill="#FFDFCF"/>
<path fill-rule="evenodd" clip-rule="evenodd" d="M20.91 1.69598V0.243656C20.91 0.1095 20.8005 0 20.6664 0H19.0566C19.1908 0 19.3003 0.1095 19.3003 0.243656V1.69598C19.3003 1.82878 19.1908 1.93964 19.0566 1.93964H20.3241H20.6663C20.8005 1.93964 20.91 1.82878 20.91 1.69598Z" fill="#FFB640"/>
<path fill-rule="evenodd" clip-rule="evenodd" d="M20.3245 22.2395V1.93945H19.057H18.7148V22.2395H20.3245Z" fill="#09B0E1"/>
<path fill-rule="evenodd" clip-rule="evenodd" d="M11.7304 10.5894H10.8585V13.3161C10.8585 13.6378 10.6819 13.9198 10.4219 14.0717C10.5505 14.1457 10.6998 14.1894 10.8585 14.1894C11.3376 14.1894 11.7304 13.7966 11.7304 13.3161V10.5894Z" fill="#FFDFCF"/>
<path fill-rule="evenodd" clip-rule="evenodd" d="M5.16794 10.5894H4.29602V13.3161C4.29602 13.6378 4.11944 13.9198 3.85938 14.0717C3.98805 14.1457 4.13725 14.1894 4.29602 14.1894C4.77508 14.1894 5.16794 13.7966 5.16794 13.3161V10.5894Z" fill="#FFDFCF"/>
<path fill-rule="evenodd" clip-rule="evenodd" d="M22.4064 23.7373V22.5026C22.4064 22.3575 22.2887 22.2397 22.1435 22.2397H20.5352C20.6789 22.2397 20.7966 22.3574 20.7966 22.5026V23.7373C20.7966 23.881 20.6789 24.0001 20.5352 24.0001H22.1435C22.2886 24.0001 22.4064 23.881 22.4064 23.7373Z" fill="#6A5D6A"/>
<path fill-rule="evenodd" clip-rule="evenodd" d="M9.98672 17.547V13.7033V13.3159H9.07097V13.7033V17.547C9.07097 17.6798 8.96283 17.7879 8.83008 17.7879H9.50625H9.74578C9.87722 17.7879 9.98672 17.6798 9.98672 17.547Z" fill="#6A5D6A"/>
<path d="M8.30995 14.8429H7.57917C7.57819 14.8429 7.57725 14.8428 7.57627 14.8428C7.57528 14.8428 7.57434 14.8429 7.57336 14.8429H6.84262C6.64261 14.8429 6.48047 15.0051 6.48047 15.2051C6.48047 15.4051 6.64261 15.5672 6.84262 15.5672H7.21411V17.7879H7.93847V15.5672H8.31C8.51002 15.5672 8.67216 15.4051 8.67216 15.2051C8.67216 15.0051 8.50997 14.8429 8.30995 14.8429Z" fill="#6A5D6A"/>
<path d="M16.0469 4.33222H17.765C17.965 4.33222 18.1272 4.16999 18.1272 3.97007C18.1272 3.76968 17.965 3.60791 17.765 3.60791H16.0469V4.33222Z" fill="#C3DDFF"/>
<path d="M17.3468 5.99941C17.3468 6.1998 17.1846 6.36157 16.9847 6.36157H16.0469V5.63721H16.9847C17.1845 5.63721 17.3468 5.79949 17.3468 5.99941Z" fill="#C3DDFF"/>
<path d="M16.0469 8.39179H17.765C17.965 8.39179 18.1272 8.22956 18.1272 8.02964C18.1272 7.82971 17.965 7.66748 17.765 7.66748H16.0469V8.39179Z" fill="#C3DDFF"/>
<path d="M17.3468 10.0595C17.3468 10.2594 17.1846 10.4216 16.9847 10.4216H16.0469V9.69727H16.9847C17.1845 9.69731 17.3468 9.85955 17.3468 10.0595Z" fill="#C3DDFF"/>
<path d="M18.1272 12.0897C18.1272 12.2896 17.965 12.4519 17.765 12.4519H16.0469V11.7275H17.765C17.965 11.7275 18.1272 11.8893 18.1272 12.0897Z" fill="#C3DDFF"/>
<path d="M16.0469 14.4816H16.9847C17.1846 14.4816 17.3468 14.3199 17.3468 14.1195C17.3468 13.9196 17.1846 13.7573 16.9847 13.7573H16.0469V14.4816Z" fill="#C3DDFF"/>
<path d="M18.1272 16.1493C18.1272 16.3497 17.965 16.5115 17.765 16.5115H16.0469V15.7871H17.765C17.965 15.7872 18.1272 15.9494 18.1272 16.1493Z" fill="#C3DDFF"/>
<path d="M17.3468 18.1796C17.3468 18.3795 17.1846 18.5417 16.9847 18.5417H16.0469V17.8174H16.9847C17.1845 17.8174 17.3468 17.9797 17.3468 18.1796Z" fill="#C3DDFF"/>
<path d="M18.1272 20.2099C18.1272 20.4098 17.965 20.572 17.765 20.572H16.0469V19.8477H17.765C17.965 19.8477 18.1272 20.0099 18.1272 20.2099Z" fill="#C3DDFF"/>
<path fill-rule="evenodd" clip-rule="evenodd" d="M11.7298 10.1636C11.7298 8.25675 10.6197 6.94678 8.80469 6.94678C10.6868 7.84064 10.7813 9.22589 10.8579 10.5893H11.7298V10.1636Z" fill="#CF3A4E"/>
<path fill-rule="evenodd" clip-rule="evenodd" d="M9.98606 10.666C9.51244 10.666 9.07031 10.9192 9.07031 11.3149V13.3161H9.98606V10.666Z" fill="#CF3A4E"/>
</g>
<defs>
<clipPath id="clip0_3702_6496">
<rect width="24" height="24" fill="white"/>
</clipPath>
</defs>
</svg>
