<svg width="25" height="24" viewBox="0 0 25 24" fill="none" xmlns="http://www.w3.org/2000/svg">
<path d="M14.9146 3C15.8416 3 16.5936 3.58205 16.5936 4.3003C16.5936 5.01838 15.8416 5.60059 14.9146 5.60059C13.9872 5.60059 13.2356 5.01838 13.2356 4.3003C13.2356 3.58205 13.9872 3 14.9146 3Z" fill="#0038E0"/>
<path d="M6.27675 13.5223C5.73968 13.256 5.02602 13.3772 4.6824 13.7932C4.33857 14.2086 4.49505 14.7619 5.03219 15.0278L8.35067 16.6738C8.85436 16.923 9.52043 16.8339 9.88616 16.4677L13.9452 12.4037L17.0979 15.5543L17.5596 19.895C17.609 20.3619 18.1142 20.7154 18.7086 20.7154C18.7401 20.7154 18.7725 20.7142 18.8045 20.7125C19.4397 20.6719 19.9125 20.2404 19.86 19.7482L19.3705 15.1435C19.3523 14.9708 19.2695 14.8062 19.1327 14.6692L16.5609 11.6555L16.7687 7.56459C16.7687 7.56459 16.8271 7.3291 16.8383 7.03936C17.1651 6.74288 17.5951 6.32833 18.1694 5.74467C19.0298 4.87044 19.8216 4.01493 19.8297 4.00643C20.0828 3.73252 20.0014 3.352 19.648 3.15593C19.2948 2.96002 18.803 3.02306 18.5499 3.29657C17.6891 4.22807 16.6871 5.25863 15.9574 5.95426C15.0304 5.87065 13.7239 5.86848 12.9563 5.97988C12.6831 6.01974 12.511 6.11114 12.4018 6.21637C12.3756 6.23755 12.3501 6.25968 12.3276 6.28447C10.9609 7.76311 9.23804 9.49213 8.81452 9.73317C8.44636 9.88777 8.29734 10.2408 8.48261 10.5356C8.61878 10.7525 8.89908 10.8788 9.19088 10.8788C9.30666 10.8788 9.42395 10.8591 9.53471 10.8172C9.74862 10.7364 10.1071 10.6014 11.9474 8.73257C12.0136 8.66525 12.0792 8.59843 12.1442 8.53183L12.0475 10.7882L12.0654 10.7918L8.70671 14.7276L6.27675 13.5223Z" fill="#0038E0"/>
<path d="M13.8913 18.1958C14.8912 18.1958 15.7015 18.8237 15.7015 19.598C15.7015 20.3721 14.8912 20.9999 13.8913 20.9999C12.8918 20.9999 12.0812 20.3721 12.0812 19.598C12.0812 18.8237 12.8918 18.1958 13.8913 18.1958Z" fill="#F6B500"/>
</svg>
