<svg width="27" height="27" viewBox="0 0 27 27" fill="currentColor" xmlns="http://www.w3.org/2000/svg">
<g opacity="0.55">
<path d="M13.337 6.11754C14.3501 5.10446 14.3501 3.46194 13.337 2.44887C12.3239 1.4358 10.6814 1.4358 9.66832 2.44887C8.65524 3.46194 8.65524 5.10446 9.66832 6.11754C10.6814 7.13061 12.3239 7.13061 13.337 6.11754Z" fill="currentColor"/>
<path d="M22.7056 1.6875H15.3565C15.1203 1.6875 14.9346 1.87735 14.9346 2.10938C14.9346 2.3414 15.1203 2.53125 15.3565 2.53125H17.9426V4.48453H19.377C19.609 4.48453 19.7988 4.67016 19.7988 4.90641C19.7988 5.13843 19.609 5.32828 19.377 5.32828H17.9426V6.93985H20.5371C20.7691 6.93985 20.959 7.12967 20.959 7.36172C20.959 7.59375 20.7691 7.7836 20.5371 7.7836H17.9426V9.39514H19.377C19.609 9.39514 19.7988 9.58499 19.7988 9.81701C19.7988 10.0491 19.609 10.2389 19.377 10.2389H17.9426V11.8505H20.5371C20.7691 11.8505 20.959 12.0403 20.959 12.2723C20.959 12.5044 20.7691 12.6942 20.5371 12.6942H17.9426V14.3058H19.377C19.609 14.3058 19.7988 14.4956 19.7988 14.7276C19.7988 14.9597 19.609 15.1495 19.377 15.1495H17.9426V16.7611H20.5371C20.7691 16.7611 20.959 16.9509 20.959 17.183C20.959 17.415 20.7691 17.6048 20.5371 17.6048H17.9426V19.2164H19.377C19.609 19.2164 19.7988 19.4063 19.7988 19.6383C19.7988 19.8703 19.609 20.0602 19.377 20.0602H17.9426V21.6717H20.5371C20.7691 21.6717 20.959 21.8616 20.959 22.0936C20.959 22.3298 20.7691 22.5155 20.5371 22.5155H17.9426V24.4688H14.1541C14.2849 24.2325 14.3609 23.9625 14.3609 23.6756V16.8033C14.5549 16.8961 14.7743 16.9509 15.0021 16.9509C15.8206 16.9509 16.4829 16.2844 16.4829 15.4659V10.5089C16.4829 9.03234 15.2848 7.83423 13.8082 7.83423H9.20555C7.72899 7.83423 6.52663 9.03234 6.52663 10.5089V15.4659C6.52663 16.2844 7.1932 16.9509 8.01164 16.9509C8.23947 16.9509 8.45883 16.9003 8.64868 16.8033V23.6756C8.64868 23.9625 8.72461 24.2325 8.85539 24.4688H4.29492C4.05867 24.4688 3.87305 24.6586 3.87305 24.8906C3.87305 25.1227 4.05867 25.3125 4.29492 25.3125H22.7056C22.9418 25.3125 23.1274 25.1227 23.1274 24.8906V2.10938C23.1274 1.87735 22.9418 1.6875 22.7056 1.6875Z" fill="currentColor"/>
</g>
</svg>
