<svg width="25" height="24" viewBox="0 0 25 24" fill="currentColor" xmlns="http://www.w3.org/2000/svg">
<path d="M19.8812 11.75C19.8818 11.9785 19.8232 12.2033 19.7111 12.4025C19.5991 12.6016 19.4374 12.7684 19.2418 12.8866L7.12027 20.3019C6.91591 20.427 6.68184 20.4953 6.44225 20.4998C6.20265 20.5042 5.96622 20.4446 5.75736 20.3271C5.55049 20.2114 5.37816 20.0428 5.2581 19.8384C5.13803 19.6341 5.07456 19.4014 5.07422 19.1644V4.33557C5.07456 4.09856 5.13803 3.86592 5.2581 3.66158C5.37816 3.45723 5.55049 3.28855 5.75736 3.17289C5.96622 3.0554 6.20265 2.99579 6.44225 3.00023C6.68184 3.00467 6.91591 3.07299 7.12027 3.19813L19.2418 10.6134C19.4374 10.7316 19.5991 10.8984 19.7111 11.0975C19.8232 11.2967 19.8818 11.5215 19.8812 11.75Z" fill="currentColor"/>
</svg>
