<svg width="16" height="16" viewBox="0 0 16 16" fill="currentColor"
  xmlns="http://www.w3.org/2000/svg">
  <path
    d="M13.9287 4.85699L8.00148 1.39943C7.92639 1.35608 7.84122 1.33325 7.75451 1.33325C7.66781 1.33325 7.58263 1.35608 7.50755 1.39943L1.5803 4.85699C1.50564 4.90009 1.44357 4.96197 1.40024 5.03649C1.35692 5.11101 1.33385 5.19558 1.33333 5.28177V14.1726C1.33333 14.3036 1.38537 14.4293 1.478 14.5219C1.57063 14.6145 1.69627 14.6666 1.82727 14.6666H6.2727C6.4037 14.6666 6.52934 14.6145 6.62197 14.5219C6.7146 14.4293 6.76664 14.3036 6.76664 14.1726V10.7151H8.74239V14.1726C8.74239 14.3036 8.79443 14.4293 8.88706 14.5219C8.97969 14.6145 9.10533 14.6666 9.23633 14.6666H13.6818C13.8128 14.6666 13.9384 14.6145 14.031 14.5219C14.1237 14.4293 14.1757 14.3036 14.1757 14.1726V5.28177C14.1752 5.19558 14.1521 5.11101 14.1088 5.03649C14.0655 4.96197 14.0034 4.90009 13.9287 4.85699ZM13.1878 13.6787H9.73026V10.2211C9.73026 10.0901 9.67822 9.96451 9.58559 9.87188C9.49296 9.77925 9.36733 9.72721 9.23633 9.72721H6.2727C6.1417 9.72721 6.01607 9.77925 5.92344 9.87188C5.8308 9.96451 5.77876 10.0901 5.77876 10.2211V13.6787H2.3212V5.56332L7.75451 2.39718L13.1878 5.56332V13.6787Z"
    fill="currentColor" />
</svg>