<svg width="21" height="20" viewBox="0 0 21 20" fill="currentColor" xmlns="http://www.w3.org/2000/svg">
    <path d="M10.9442 9.55597C10.8861 9.49739 10.817 9.45089 10.7408 9.41916C10.6647 9.38743 10.583 9.37109 10.5005 9.37109C10.418 9.37109 10.3363 9.38743 10.2601 9.41916C10.184 9.45089 10.1148 9.49739 10.0567 9.55597L3.80673 15.806C3.68904 15.9237 3.62292 16.0833 3.62292 16.2497C3.62292 16.4162 3.68904 16.5758 3.80673 16.6935C3.92442 16.8112 4.08404 16.8773 4.25048 16.8773C4.41692 16.8773 4.57654 16.8112 4.69423 16.6935L10.5005 10.881L16.3067 16.6935C16.3648 16.752 16.434 16.7985 16.5101 16.8303C16.5863 16.862 16.668 16.8783 16.7505 16.8783C16.833 16.8783 16.9147 16.862 16.9908 16.8303C17.067 16.7985 17.1361 16.752 17.1942 16.6935C17.2528 16.6354 17.2993 16.5662 17.331 16.4901C17.3628 16.4139 17.3791 16.3322 17.3791 16.2497C17.3791 16.1672 17.3628 16.0855 17.331 16.0094C17.2993 15.9332 17.2528 15.8641 17.1942 15.806L10.9442 9.55597Z"
          fill="currentColor"/>
    <path d="M4.69423 10.4435L10.5005 4.63097L16.3067 10.4435C16.3648 10.502 16.434 10.5485 16.5101 10.5803C16.5863 10.612 16.668 10.6283 16.7505 10.6283C16.833 10.6283 16.9147 10.612 16.9908 10.5803C17.067 10.5485 17.1361 10.502 17.1942 10.4435C17.2528 10.3854 17.2993 10.3162 17.331 10.2401C17.3628 10.1639 17.3791 10.0822 17.3791 9.99972C17.3791 9.91721 17.3628 9.83552 17.331 9.75936C17.2993 9.6832 17.2528 9.61407 17.1942 9.55597L10.9442 3.30597C10.8861 3.24739 10.817 3.20089 10.7408 3.16916C10.6647 3.13743 10.583 3.12109 10.5005 3.12109C10.418 3.12109 10.3363 3.13743 10.2601 3.16916C10.184 3.20089 10.1148 3.24739 10.0567 3.30597L3.80673 9.55597C3.68904 9.67366 3.62292 9.83328 3.62292 9.99972C3.62292 10.1662 3.68904 10.3258 3.80673 10.4435C3.92442 10.5612 4.08404 10.6273 4.25048 10.6273C4.41692 10.6273 4.57654 10.5612 4.69423 10.4435Z"
          fill="currentColor"/>
</svg>
