<svg width="17" height="16" viewBox="0 0 17 16" fill="currentColor"
  xmlns="http://www.w3.org/2000/svg">
  <path
    d="M8.8554 7.64497C8.80892 7.59811 8.75362 7.56091 8.69269 7.53552C8.63176 7.51014 8.5664 7.49707 8.5004 7.49707C8.43439 7.49707 8.36904 7.51014 8.30811 7.53552C8.24718 7.56091 8.19188 7.59811 8.1454 7.64497L3.1454 12.645C3.05125 12.7391 2.99835 12.8668 2.99835 13C2.99835 13.1331 3.05125 13.2608 3.1454 13.355C3.23955 13.4491 3.36725 13.502 3.5004 13.502C3.63355 13.502 3.76125 13.4491 3.8554 13.355L8.5004 8.70497L13.1454 13.355C13.1919 13.4018 13.2472 13.439 13.3081 13.4644C13.369 13.4898 13.4344 13.5029 13.5004 13.5029C13.5664 13.5029 13.6318 13.4898 13.6927 13.4644C13.7536 13.439 13.8089 13.4018 13.8554 13.355C13.9023 13.3085 13.9395 13.2532 13.9648 13.1923C13.9902 13.1313 14.0033 13.066 14.0033 13C14.0033 12.934 13.9902 12.8686 13.9648 12.8077C13.9395 12.7468 13.9023 12.6915 13.8554 12.645L8.8554 7.64497Z"
    fill="currentColor" />
  <path
    d="M3.8554 8.35497L8.5004 3.70497L13.1454 8.35497C13.1919 8.40183 13.2472 8.43903 13.3081 8.46442C13.369 8.4898 13.4344 8.50287 13.5004 8.50287C13.5664 8.50287 13.6318 8.4898 13.6927 8.46442C13.7536 8.43903 13.8089 8.40183 13.8554 8.35497C13.9023 8.30849 13.9395 8.25319 13.9648 8.19226C13.9902 8.13133 14.0033 8.06598 14.0033 7.99997C14.0033 7.93396 13.9902 7.86861 13.9648 7.80768C13.9395 7.74675 13.9023 7.69145 13.8554 7.64497L8.8554 2.64497C8.80892 2.59811 8.75362 2.56091 8.69269 2.53552C8.63176 2.51014 8.5664 2.49707 8.5004 2.49707C8.43439 2.49707 8.36904 2.51014 8.30811 2.53552C8.24718 2.56091 8.19188 2.59811 8.1454 2.64497L3.1454 7.64497C3.05125 7.73912 2.99835 7.86682 2.99835 7.99997C2.99835 8.13312 3.05125 8.26082 3.1454 8.35497C3.23955 8.44912 3.36725 8.50202 3.5004 8.50202C3.63355 8.50202 3.76125 8.44912 3.8554 8.35497Z"
    fill="currentColor" />
</svg>