<svg width="7" height="12" viewBox="0 0 7 12" fill="none" xmlns="http://www.w3.org/2000/svg">
<path d="M6.35403 6.35403L1.35403 11.354C1.30757 11.4005 1.25242 11.4373 1.19173 11.4625C1.13103 11.4876 1.06598 11.5006 1.00028 11.5006C0.934581 11.5006 0.869526 11.4876 0.80883 11.4625C0.748133 11.4373 0.692983 11.4005 0.646528 11.354C0.600073 11.3076 0.563222 11.2524 0.538081 11.1917C0.51294 11.131 0.5 11.066 0.5 11.0003C0.5 10.9346 0.51294 10.8695 0.538081 10.8088C0.563222 10.7481 0.600073 10.693 0.646528 10.6465L5.2934 6.00028L0.646528 1.35403C0.552707 1.26021 0.5 1.13296 0.5 1.00028C0.5 0.867596 0.552707 0.740348 0.646528 0.646528C0.740348 0.552708 0.867596 0.5 1.00028 0.5C1.13296 0.5 1.26021 0.552708 1.35403 0.646528L6.35403 5.64653C6.40052 5.69296 6.4374 5.74811 6.46256 5.80881C6.48772 5.86951 6.50067 5.93457 6.50067 6.00028C6.50067 6.06599 6.48772 6.13105 6.46256 6.19175C6.4374 6.25245 6.40052 6.30759 6.35403 6.35403Z" fill="#8D8E92"/>
</svg>
