<svg width="7" height="12" viewBox="0 0 7 12" fill="none" xmlns="http://www.w3.org/2000/svg">
<path d="M6.35414 10.6465C6.4006 10.693 6.43745 10.7481 6.46259 10.8088C6.48773 10.8695 6.50067 10.9346 6.50067 11.0003C6.50067 11.066 6.48773 11.131 6.46259 11.1917C6.43745 11.2524 6.4006 11.3076 6.35414 11.354C6.30769 11.4005 6.25254 11.4373 6.19184 11.4625C6.13115 11.4876 6.06609 11.5006 6.00039 11.5006C5.9347 11.5006 5.86964 11.4876 5.80895 11.4625C5.74825 11.4373 5.6931 11.4005 5.64664 11.354L0.646643 6.35403C0.600155 6.30759 0.563276 6.25245 0.538114 6.19175C0.512951 6.13105 0.5 6.06599 0.5 6.00028C0.5 5.93457 0.512951 5.86951 0.538114 5.80881C0.563276 5.74811 0.600155 5.69296 0.646643 5.64653L5.64664 0.646528C5.74046 0.552708 5.86771 0.5 6.00039 0.5C6.13308 0.5 6.26032 0.552708 6.35414 0.646528C6.44796 0.740348 6.50067 0.867596 6.50067 1.00028C6.50067 1.13296 6.44796 1.26021 6.35414 1.35403L1.70727 6.00028L6.35414 10.6465Z" fill="#8D8E92"/>
</svg>
