<svg width="24" height="25" viewBox="0 0 24 25" fill="none" xmlns="http://www.w3.org/2000/svg">
<path d="M2.00256 20.3993C2.00256 20.5496 2.1153 20.6703 2.2557 20.6703H21.7469C21.8873 20.6703 22 20.5496 22 20.3993V14.2827H15.8376V14.8089C15.8376 15.0277 15.6717 15.2053 15.4675 15.2053H13.2106V17.6223C13.2106 17.841 13.0447 18.0187 12.8405 18.0187H11.16C10.9558 18.0187 10.7899 17.841 10.7899 17.6223V15.2076H8.53082C8.32659 15.2076 8.1607 15.0299 8.1607 14.8112V14.285H2.00256V20.3993Z" fill="#F6B500"/>
<path d="M18.443 4.99527C18.394 4.97021 18.343 4.95654 18.2898 4.95654H5.55449C5.50131 4.95654 5.44813 4.97021 5.40133 4.99527C5.11629 5.14562 4.93335 5.46455 4.93335 5.80853V7.15258H2.25313C2.11274 7.15258 2 7.27331 2 7.42366V13.5379H8.15813V13.0117C8.15813 12.793 8.32405 12.6153 8.52823 12.6153H10.7852V10.196C10.7852 9.97735 10.9511 9.79966 11.1553 9.79966H12.8357C13.04 9.79966 13.2059 9.97735 13.2059 10.196V12.6131H15.4628C15.667 12.6131 15.8329 12.7908 15.8329 13.0094V13.5379H21.991V7.42139C21.991 7.27103 21.8783 7.1503 21.7379 7.1503H18.9109V5.80625C18.9109 5.46455 18.728 5.14562 18.443 4.99527ZM5.63106 7.1503V5.80625C5.63106 5.76069 5.64595 5.72652 5.6651 5.70146H18.1792C18.1983 5.72652 18.2132 5.76069 18.2132 5.80625V7.1503H5.63106Z" fill="#0038E0"/>
</svg>
