<svg width="13" height="13" viewBox="0 0 13 13" fill="none" xmlns="http://www.w3.org/2000/svg">
<g clip-path="url(#clip0_413_85095)">
<path d="M11.375 4.875H8.125V1.625C8.125 1.17643 7.96631 0.793459 7.64893 0.476074C7.33154 0.15869 6.94857 0 6.5 0C6.05143 0 5.66846 0.15869 5.35107 0.476074C5.03369 0.793459 4.875 1.17643 4.875 1.625V4.875H1.625C1.17643 4.875 0.793459 5.03369 0.476074 5.35107C0.15869 5.66846 0 6.05143 0 6.5C0 6.94857 0.15869 7.33154 0.476074 7.64893C0.793459 7.96631 1.17643 8.125 1.625 8.125H4.875V11.375C4.875 11.8236 5.03369 12.2065 5.35107 12.5239C5.66846 12.8413 6.05143 13 6.5 13C6.94857 13 7.33154 12.8413 7.64893 12.5239C7.96631 12.2065 8.125 11.8236 8.125 11.375V8.125H11.375C11.8236 8.125 12.2065 7.96631 12.5239 7.64893C12.8413 7.33154 13 6.94857 13 6.5C13 6.05143 12.8413 5.66846 12.5239 5.35107C12.2065 5.03369 11.8236 4.875 11.375 4.875Z" fill="#C52C24"/>
</g>
<defs>
<clipPath id="clip0_413_85095">
<rect width="13" height="13" fill="white"/>
</clipPath>
</defs>
</svg>
