<svg width="16" height="16" viewBox="0 0 16 16" fill="currentColor" xmlns="http://www.w3.org/2000/svg">
<g opacity="0.5" clip-path="url(#clip0_1185_15996)">
<path d="M0.923747 8.67999C1.65998 9.80359 2.77753 10.6232 4.07044 10.9877C4.29259 11.0493 4.51835 11.0969 4.74646 11.1302C4.65571 11.6103 4.65238 12.1029 4.73658 12.5843C4.34934 12.4941 3.9447 12.634 3.69575 12.944C3.4468 13.254 3.39765 13.6793 3.56927 14.0379C3.74092 14.3966 4.10296 14.6251 4.50055 14.6256C4.84679 14.6253 5.16982 14.4515 5.36083 14.1627C6.13197 15.3085 7.42188 15.9964 8.80298 15.9984C9.14279 15.9986 9.48119 15.9551 9.80992 15.8691C11.8864 15.3432 13.2054 13.3042 12.8337 11.1947C12.7904 10.9144 12.9484 10.6418 13.2132 10.54L15.5542 9.61148C15.9165 9.46767 16.0937 9.05759 15.9502 8.69521L14.8174 5.84024C14.6736 5.47815 14.2636 5.30101 13.9014 5.4445L13.2881 5.68716L13.1254 5.75169L11.1145 6.5493C11.1573 6.30336 11.1834 6.05478 11.1926 5.8053C11.2001 5.73518 11.2001 5.66931 11.2001 5.60022C11.1974 3.24577 9.72491 1.14349 7.5131 0.336453C6.27707 -0.109547 4.92404 -0.109547 3.68801 0.336453C1.47571 1.14304 0.00264109 3.24548 0 5.60025C0 5.66931 0 5.73518 0.00559911 5.79011C0.0375827 6.81993 0.35549 7.82053 0.923747 8.67999ZM1.74056 4.34502L0.548026 5.24077C0.604017 4.41831 0.863028 3.62257 1.3019 2.92475L1.74056 4.34502ZM0.547471 5.90822L2.10402 4.73915L3.36163 5.1093L4.05043 7.15651L3.26695 8.26693H1.29574C0.853785 7.55529 0.596569 6.7445 0.547471 5.90822ZM5.60003 3.79277L7.31338 4.99731L6.66164 6.9336H4.53842L3.88668 4.99731L5.60003 3.79277ZM1.67469 8.80024H3.21362L3.7187 10.3032C2.92017 9.98501 2.21645 9.46759 1.67469 8.80024ZM4.3499 10.5069L3.70109 8.57786L4.48457 7.46692H6.71552L7.17338 8.11599C6.47785 8.41068 5.87779 8.89265 5.44003 9.50827C5.19962 9.84585 5.01131 10.2177 4.88136 10.6112C4.70238 10.5864 4.52495 10.5516 4.3499 10.5069ZM4.68643 14.0563C4.42868 14.1583 4.13703 14.0322 4.03495 13.7744C3.9329 13.5167 4.05909 13.225 4.3168 13.123C4.57452 13.0209 4.8662 13.1471 4.96828 13.4048C5.07036 13.6625 4.94417 13.9542 4.68643 14.0563ZM14.0979 5.93918C14.1182 5.93128 14.1397 5.92721 14.1614 5.92719C14.185 5.92713 14.2083 5.93194 14.2299 5.94132C14.2721 5.95917 14.3052 5.99332 14.3217 6.03597L15.4545 8.89199C15.4894 8.98044 15.4461 9.08046 15.3577 9.11546L13.0166 10.0443C12.5178 10.2398 12.2228 10.7567 12.3081 11.2856C12.6311 13.1217 11.4828 14.896 9.67552 15.3534C8.22134 15.7274 6.68845 15.1525 5.83889 13.9145C4.98933 12.6764 5.00439 11.0393 5.87655 9.81706C6.27501 9.25557 6.828 8.8219 7.46828 8.56878L12.0142 6.76584L12.6275 8.31011C12.6797 8.44185 12.782 8.54741 12.9121 8.60353C13.0422 8.65966 13.1892 8.66174 13.3209 8.60929L14.0489 8.32049C14.1804 8.26812 14.2857 8.16556 14.3416 8.03544C14.3975 7.90534 14.3993 7.75833 14.3467 7.62689L13.7334 6.08262L14.0979 5.93918ZM13.2385 6.28025L13.8518 7.82452L13.1238 8.11332L12.5105 6.56931L13.2385 6.28025ZM7.68139 7.91038L7.14805 7.1573L7.83711 5.1093L9.09472 4.73915L10.6521 5.90875C10.6343 6.20331 10.5911 6.49576 10.523 6.7829L7.68139 7.91038ZM9.89819 2.92369C10.3371 3.62152 10.5961 4.41725 10.6521 5.23971L9.45953 4.34396L9.89819 2.92369ZM9.50778 2.38235L8.93686 4.2301L7.67685 4.60078L5.8667 3.32852V2.00554L7.45658 0.888203C8.25715 1.2021 8.96351 1.71663 9.50778 2.38235ZM6.81818 0.684998L5.60003 1.541L4.38188 0.684734C5.18221 0.489082 6.0179 0.489188 6.81818 0.684998ZM3.74348 0.888203L5.33336 2.00554V3.32849L3.52321 4.60075L2.2632 4.23008L1.69228 2.38235C2.23655 1.71663 2.94294 1.2021 3.74348 0.888203Z" fill="currentColor"/>
<path d="M7.82384 9.46611C6.84259 9.85495 6.19223 10.7966 6.17609 11.852C6.15995 12.9074 6.78119 13.8685 7.75007 14.2872C8.71895 14.7059 9.84467 14.4996 10.6022 13.7646C11.3597 13.0296 11.5998 11.9107 11.2105 10.9296C10.9592 10.2835 10.4595 9.765 9.82306 9.49001C9.18666 9.21499 8.46662 9.20638 7.82384 9.46611ZM9.55106 13.8213C8.48538 14.2436 7.27914 13.7221 6.85672 12.6565C6.43431 11.5909 6.95566 10.3846 8.02121 9.962C9.08675 9.53942 10.2931 10.0606 10.7159 11.1261C11.1376 12.192 10.6164 13.3981 9.55106 13.8213Z" fill="currentColor"/>
</g>
<defs>
<clipPath id="clip0_1185_15996">
<rect width="16" height="16" fill="currentColor"/>
</clipPath>
</defs>
</svg>
