<svg width="76" height="42" viewBox="0 0 76 42" fill="none" xmlns="http://www.w3.org/2000/svg">
<path d="M19.9287 17.857L14.0015 14.3994C13.9264 14.3561 13.8412 14.3333 13.7545 14.3333C13.6678 14.3333 13.5826 14.3561 13.5075 14.3994L7.5803 17.857C7.50564 17.9001 7.44357 17.962 7.40024 18.0365C7.35692 18.111 7.33385 18.1956 7.33333 18.2818V27.1726C7.33333 27.3036 7.38537 27.4293 7.478 27.5219C7.57063 27.6145 7.69627 27.6666 7.82727 27.6666H12.2727C12.4037 27.6666 12.5293 27.6145 12.622 27.5219C12.7146 27.4293 12.7666 27.3036 12.7666 27.1726V23.7151H14.7424V27.1726C14.7424 27.3036 14.7944 27.4293 14.8871 27.5219C14.9797 27.6145 15.1053 27.6666 15.2363 27.6666H19.6818C19.8128 27.6666 19.9384 27.6145 20.031 27.5219C20.1237 27.4293 20.1757 27.3036 20.1757 27.1726V18.2818C20.1752 18.1956 20.1521 18.111 20.1088 18.0365C20.0655 17.962 20.0034 17.9001 19.9287 17.857ZM19.1878 26.6787H15.7303V23.2211C15.7303 23.0901 15.6782 22.9645 15.5856 22.8719C15.493 22.7793 15.3673 22.7272 15.2363 22.7272H12.2727C12.1417 22.7272 12.0161 22.7793 11.9234 22.8719C11.8308 22.9645 11.7788 23.0901 11.7788 23.2211V26.6787H8.3212V18.5633L13.7545 15.3972L19.1878 18.5633V26.6787Z" fill="white"/>
<path d="M31.458 26V18.122H28.507V16.38H36.411V18.122H33.46V26H31.458ZM43.0278 16.575L41.5588 16.562L42.6118 14.235H44.4448L43.0278 16.575ZM37.4378 18.252L39.1148 16.25H40.6878L42.3648 18.252H40.8178L39.9078 17.147L38.9848 18.252H37.4378ZM39.3098 18.98C39.7518 18.98 40.1158 19.0537 40.4018 19.201C40.6878 19.3397 40.9045 19.4913 41.0518 19.656C41.2078 19.8207 41.3031 19.9333 41.3378 19.994H41.4418V19.11H43.4178V26H41.4418V25.116H41.3378C41.3031 25.1767 41.2078 25.2893 41.0518 25.454C40.9045 25.6187 40.6878 25.7747 40.4018 25.922C40.1158 26.0607 39.7518 26.13 39.3098 26.13C38.7985 26.13 38.3521 26.0303 37.9708 25.831C37.5981 25.623 37.2861 25.35 37.0348 25.012C36.7835 24.6653 36.5928 24.2797 36.4628 23.855C36.3415 23.4303 36.2808 22.997 36.2808 22.555C36.2808 22.113 36.3415 21.6797 36.4628 21.255C36.5928 20.8303 36.7835 20.449 37.0348 20.111C37.2861 19.7643 37.5981 19.4913 37.9708 19.292C38.3521 19.084 38.7985 18.98 39.3098 18.98ZM39.8818 20.579C39.5265 20.579 39.2275 20.6787 38.9848 20.878C38.7508 21.0687 38.5731 21.3157 38.4518 21.619C38.3391 21.9223 38.2828 22.2343 38.2828 22.555C38.2828 22.8757 38.3391 23.1877 38.4518 23.491C38.5731 23.7943 38.7508 24.0457 38.9848 24.245C39.2275 24.4357 39.5265 24.531 39.8818 24.531C40.2371 24.531 40.5318 24.4357 40.7658 24.245C41.0085 24.0457 41.1861 23.7943 41.2988 23.491C41.4201 23.1877 41.4808 22.8757 41.4808 22.555C41.4808 22.2343 41.4201 21.9223 41.2988 21.619C41.1861 21.3157 41.0085 21.0687 40.7658 20.878C40.5318 20.6787 40.2371 20.579 39.8818 20.579ZM48.0754 26.13C47.538 26.13 47.109 26.052 46.7884 25.896C46.4677 25.7313 46.225 25.5277 46.0604 25.285C45.8957 25.0337 45.7874 24.7693 45.7354 24.492C45.6834 24.2147 45.6574 23.959 45.6574 23.725V20.683H44.4874V19.11H45.6574V17.407H47.6334V19.11H49.1024V20.683H47.6334V23.673C47.6334 23.959 47.707 24.18 47.8544 24.336C48.0104 24.492 48.266 24.57 48.6214 24.57C48.7774 24.57 48.9204 24.557 49.0504 24.531C49.1804 24.505 49.2454 24.492 49.2454 24.492V26.013C49.2454 26.013 49.1284 26.0303 48.8944 26.065C48.6604 26.1083 48.3874 26.13 48.0754 26.13ZM57.0576 26.13C56.451 26.13 55.9223 26.0303 55.4716 25.831C55.021 25.623 54.6483 25.35 54.3536 25.012C54.059 24.674 53.838 24.2927 53.6906 23.868C53.5433 23.4347 53.4696 22.997 53.4696 22.555C53.4696 22.113 53.5433 21.6797 53.6906 21.255C53.838 20.8303 54.059 20.449 54.3536 20.111C54.6483 19.7643 55.021 19.4913 55.4716 19.292C55.9223 19.084 56.451 18.98 57.0576 18.98C57.673 18.98 58.18 19.071 58.5786 19.253C58.9773 19.4263 59.2936 19.6473 59.5276 19.916C59.7703 20.176 59.948 20.4403 60.0606 20.709C60.1733 20.969 60.2426 21.19 60.2686 21.372C60.3033 21.5453 60.3206 21.632 60.3206 21.632H58.4746C58.4746 21.632 58.4573 21.58 58.4226 21.476C58.3966 21.3633 58.336 21.2377 58.2406 21.099C58.154 20.9517 58.0196 20.826 57.8376 20.722C57.6556 20.6093 57.413 20.553 57.1096 20.553C56.737 20.553 56.425 20.6483 56.1736 20.839C55.931 21.021 55.749 21.2637 55.6276 21.567C55.5063 21.8703 55.4456 22.1997 55.4456 22.555C55.4456 22.9103 55.5063 23.2397 55.6276 23.543C55.749 23.8463 55.931 24.0933 56.1736 24.284C56.425 24.466 56.737 24.557 57.1096 24.557C57.413 24.557 57.6556 24.505 57.8376 24.401C58.0196 24.2883 58.154 24.1627 58.2406 24.024C58.336 23.8767 58.3966 23.751 58.4226 23.647C58.4573 23.5343 58.4746 23.478 58.4746 23.478H60.3206C60.3206 23.478 60.3033 23.569 60.2686 23.751C60.2426 23.9243 60.1733 24.1453 60.0606 24.414C59.948 24.674 59.7703 24.9383 59.5276 25.207C59.2936 25.467 58.9773 25.688 58.5786 25.87C58.18 26.0433 57.673 26.13 57.0576 26.13ZM64.6633 18.304V17.875C64.6633 17.7623 64.6849 17.6583 64.7282 17.563C64.7803 17.459 64.8669 17.381 64.9883 17.329L65.1833 17.225C65.3653 17.1297 65.5039 17.0387 65.5993 16.952C65.6946 16.8567 65.7423 16.744 65.7423 16.614C65.7423 16.5013 65.6989 16.4017 65.6123 16.315C65.5343 16.2283 65.4173 16.185 65.2613 16.185C65.1053 16.185 64.9883 16.224 64.9103 16.302C64.8409 16.38 64.7976 16.4623 64.7803 16.549C64.7629 16.6357 64.7543 16.6877 64.7543 16.705H63.6233C63.6146 16.471 63.6623 16.2413 63.7663 16.016C63.8789 15.782 64.0566 15.587 64.2993 15.431C64.5419 15.275 64.8583 15.197 65.2483 15.197C65.7683 15.197 66.1799 15.3357 66.4833 15.613C66.7866 15.8817 66.9383 16.198 66.9383 16.562C66.9383 16.874 66.8343 17.1383 66.6263 17.355C66.4269 17.563 66.1713 17.745 65.8593 17.901L65.7943 17.94V18.304H64.6633ZM64.6243 18.98C65.0663 18.98 65.4303 19.0537 65.7163 19.201C66.0023 19.3397 66.2189 19.4913 66.3663 19.656C66.5223 19.8207 66.6176 19.9333 66.6523 19.994H66.7563V19.11H68.7323V26H66.7563V25.116H66.6523C66.6176 25.1767 66.5223 25.2893 66.3663 25.454C66.2189 25.6187 66.0023 25.7747 65.7163 25.922C65.4303 26.0607 65.0663 26.13 64.6243 26.13C64.1129 26.13 63.6666 26.0303 63.2853 25.831C62.9126 25.623 62.6006 25.35 62.3493 25.012C62.0979 24.6653 61.9073 24.2797 61.7773 23.855C61.6559 23.4303 61.5953 22.997 61.5953 22.555C61.5953 22.113 61.6559 21.6797 61.7773 21.255C61.9073 20.8303 62.0979 20.449 62.3493 20.111C62.6006 19.7643 62.9126 19.4913 63.2853 19.292C63.6666 19.084 64.1129 18.98 64.6243 18.98ZM65.1963 20.579C64.8409 20.579 64.5419 20.6787 64.2993 20.878C64.0653 21.0687 63.8876 21.3157 63.7663 21.619C63.6536 21.9223 63.5973 22.2343 63.5973 22.555C63.5973 22.8757 63.6536 23.1877 63.7663 23.491C63.8876 23.7943 64.0653 24.0457 64.2993 24.245C64.5419 24.4357 64.8409 24.531 65.1963 24.531C65.5516 24.531 65.8463 24.4357 66.0803 24.245C66.3229 24.0457 66.5006 23.7943 66.6133 23.491C66.7346 23.1877 66.7953 22.8757 66.7953 22.555C66.7953 22.2343 66.7346 21.9223 66.6133 21.619C66.5006 21.3157 66.3229 21.0687 66.0803 20.878C65.8463 20.6787 65.5516 20.579 65.1963 20.579Z" fill="white"/>
<line opacity="0.6" x1="-4.37114e-08" y1="41.5" x2="76" y2="41.5" stroke="url(#paint0_linear_77_8682)"/>
<defs>
<linearGradient id="paint0_linear_77_8682" x1="4.37114e-08" y1="42.5" x2="76" y2="42.5" gradientUnits="userSpaceOnUse">
<stop stop-color="#020C20"/>
<stop offset="0.505747" stop-color="white"/>
<stop offset="1" stop-color="#020C20"/>
</linearGradient>
</defs>
</svg>
