<svg width="25" height="24" viewBox="0 0 25 24" fill="currentColor"
  xmlns="http://www.w3.org/2000/svg">
  <path
    d="M19.7246 6.11401L18.2788 10.9334H20.0313C20.2902 10.9334 20.5 10.7235 20.5 10.4646V7.90861C20.5 7.21495 20.2093 6.5707 19.7246 6.11401Z"
    fill="currentColor" />
  <path
    d="M4.5 7.90849V10.4645C4.5 10.7234 4.70988 10.9333 4.96875 10.9333H6.72122L5.27541 6.11389C4.79072 6.57058 4.5 7.21486 4.5 7.90849Z"
    fill="currentColor" />
  <path
    d="M12.5 6.00834C13.3489 6.00834 14.0395 5.31769 14.0395 4.46875V4H10.9604V4.46875C10.9604 5.31769 11.651 6.00834 12.5 6.00834Z"
    fill="currentColor" />
  <path
    d="M14.9771 4.12891V4.46875C14.9771 5.83463 13.8659 6.94584 12.5 6.94584C11.1341 6.94584 10.0229 5.83463 10.0229 4.46875V4.12891L6.09998 5.6L7.68019 10.8674C7.69329 10.9111 7.69998 10.9565 7.69998 11.0021V19.5312C7.69998 19.7901 7.90985 20 8.16873 20H16.8312C17.0901 20 17.3 19.7901 17.3 19.5312V11.0021C17.3 10.9565 17.3066 10.9111 17.3198 10.8674L18.9 5.6L14.9771 4.12891ZM15.9812 9.74062C15.9812 10.7542 14.8473 11.3504 14.7179 11.4151C14.652 11.448 14.5802 11.4646 14.5083 11.4646C14.4364 11.4646 14.3646 11.448 14.2987 11.4151C14.1694 11.3504 13.0354 10.7542 13.0354 9.74062V8.9875C13.0354 8.72863 13.2453 8.51875 13.5042 8.51875H15.5125C15.7713 8.51875 15.9812 8.72863 15.9812 8.9875V9.74062Z"
    fill="currentColor" />
  <path
    d="M13.9729 9.74067C13.9729 10.0029 14.2627 10.2777 14.5083 10.4488C14.7538 10.2777 15.0437 10.0029 15.0437 9.74067V9.4563H13.9728L13.9729 9.74067Z"
    fill="currentColor" />
</svg>