<svg width="21" height="20" viewBox="0 0 21 20" fill="currentColor" xmlns="http://www.w3.org/2000/svg">
    <path d="M7.43896 14.4439C7.28106 14.4433 7.12922 14.383 7.01396 14.2751C6.44321 13.7332 5.98871 13.0809 5.67813 12.3578C5.36755 11.6346 5.20738 10.8559 5.20738 10.0689C5.20738 9.28185 5.36755 8.50308 5.67813 7.77995C5.98871 7.05683 6.44321 6.40447 7.01396 5.8626C7.13695 5.76287 7.2932 5.71354 7.45116 5.72458C7.60912 5.73561 7.757 5.80619 7.86493 5.92206C7.97286 6.03792 8.03278 6.19043 8.0326 6.34877C8.03242 6.50711 7.97215 6.65949 7.86396 6.7751C7.41968 7.20096 7.06614 7.71229 6.82463 8.27834C6.58311 8.84438 6.45861 9.45344 6.45861 10.0689C6.45861 10.6843 6.58311 11.2933 6.82463 11.8594C7.06614 12.4254 7.41968 12.9367 7.86396 13.3626C7.95534 13.4482 8.01893 13.5592 8.04648 13.6813C8.07403 13.8034 8.06428 13.931 8.01848 14.0475C7.97269 14.164 7.89296 14.2641 7.78964 14.3347C7.68631 14.4054 7.56414 14.4434 7.43896 14.4439ZM4.93896 16.1189C5.05536 16.0018 5.1207 15.8433 5.1207 15.6782C5.1207 15.5131 5.05536 15.3547 4.93896 15.2376C4.23973 14.5705 3.68313 13.7685 3.30283 12.88C2.92253 11.9916 2.72645 11.0353 2.72645 10.0689C2.72645 9.10245 2.92253 8.14609 3.30283 7.25766C3.68313 6.36923 4.23973 5.5672 4.93896 4.9001C5.05996 4.78324 5.12959 4.6231 5.13252 4.4549C5.13545 4.2867 5.07144 4.12423 4.95458 4.00323C4.83772 3.88222 4.67758 3.8126 4.50938 3.80967C4.34118 3.80674 4.17871 3.87074 4.05771 3.9876C3.23441 4.7721 2.57898 5.71561 2.13114 6.76094C1.68331 7.80626 1.45239 8.93164 1.45239 10.0689C1.45239 11.2061 1.68331 12.3314 2.13114 13.3768C2.57898 14.4221 3.23441 15.3656 4.05771 16.1501C4.11785 16.2067 4.1886 16.2508 4.26588 16.2799C4.34317 16.3089 4.42545 16.3224 4.50797 16.3195C4.59049 16.3166 4.67162 16.2974 4.74667 16.2629C4.82172 16.2285 4.88919 16.1795 4.94521 16.1189H4.93896ZM13.3952 14.2751C13.966 13.7332 14.4205 13.0809 14.731 12.3578C15.0416 11.6346 15.2018 10.8559 15.2018 10.0689C15.2018 9.28185 15.0416 8.50308 14.731 7.77995C14.4205 7.05683 13.966 6.40447 13.3952 5.8626C13.3353 5.80638 13.2649 5.76251 13.188 5.7335C13.1111 5.70448 13.0293 5.69089 12.9472 5.69351C12.8651 5.69612 12.7843 5.71488 12.7094 5.74872C12.6345 5.78256 12.5671 5.83081 12.5108 5.89073C12.4546 5.95064 12.4107 6.02105 12.3817 6.09792C12.3527 6.17479 12.3391 6.25662 12.3417 6.33874C12.3443 6.42086 12.3631 6.50166 12.3969 6.57654C12.4308 6.65141 12.479 6.71888 12.539 6.7751C12.9856 7.19957 13.3413 7.71045 13.5843 8.27668C13.8274 8.84292 13.9527 9.45266 13.9527 10.0689C13.9527 10.685 13.8274 11.2948 13.5843 11.861C13.3413 12.4273 12.9856 12.9381 12.539 13.3626C12.4183 13.4755 12.3473 13.6316 12.3414 13.7968C12.3356 13.9619 12.3954 14.1227 12.5077 14.2439C12.5667 14.3075 12.6383 14.3581 12.7179 14.3925C12.7975 14.427 12.8835 14.4444 12.9702 14.4439C13.1281 14.4433 13.2799 14.383 13.3952 14.2751ZM16.3452 16.1501C17.1709 15.367 17.8285 14.424 18.2779 13.3784C18.7272 12.3329 18.959 11.2068 18.959 10.0689C18.959 8.93086 18.7272 7.80478 18.2779 6.75927C17.8285 5.71375 17.1709 4.7707 16.3452 3.9876C16.2222 3.88787 16.066 3.83854 15.908 3.84958C15.75 3.86061 15.6022 3.93119 15.4942 4.04706C15.3863 4.16292 15.3264 4.31543 15.3266 4.47377C15.3267 4.63211 15.387 4.78449 15.4952 4.9001C16.1944 5.5672 16.751 6.36923 17.1313 7.25766C17.5116 8.14609 17.7077 9.10245 17.7077 10.0689C17.7077 11.0353 17.5116 11.9916 17.1313 12.88C16.751 13.7685 16.1944 14.5705 15.4952 15.2376C15.3746 15.3505 15.3035 15.5066 15.2977 15.6718C15.2918 15.8369 15.3516 15.9977 15.464 16.1189C15.5222 16.1817 15.5928 16.2319 15.6713 16.2663C15.7498 16.3007 15.8345 16.3186 15.9202 16.3189C16.0781 16.3183 16.2299 16.258 16.3452 16.1501ZM11.4577 10.0689C11.4577 9.82163 11.3844 9.57995 11.247 9.37439C11.1097 9.16883 10.9145 9.00861 10.6861 8.914C10.4577 8.81939 10.2063 8.79464 9.96384 8.84287C9.72137 8.8911 9.49864 9.01015 9.32382 9.18497C9.14901 9.35979 9.02996 9.58251 8.98172 9.82499C8.93349 10.0675 8.95825 10.3188 9.05286 10.5472C9.14747 10.7756 9.30768 10.9708 9.51324 11.1082C9.7188 11.2455 9.96048 11.3189 10.2077 11.3189C10.5392 11.3189 10.8572 11.1872 11.0916 10.9527C11.326 10.7183 11.4577 10.4004 11.4577 10.0689Z"
          fill="currentColor"/>
</svg>
