<svg width="16" height="16" viewBox="0 0 16 16" fill="currentColor" xmlns="http://www.w3.org/2000/svg">
<g opacity="0.5" clip-path="url(#clip0_1185_16015)">
<path d="M5.3452 13.375H1.5C0.7417 13.375 0.125 12.7583 0.125 12V4C0.125 3.2417 0.7417 2.625 1.5 2.625H13.5C14.2583 2.625 14.875 3.2417 14.875 4V6.1299C14.875 6.33695 14.7071 6.5049 14.5 6.5049C14.2929 6.5049 14.125 6.33695 14.125 6.1299V4C14.125 3.65525 13.8448 3.375 13.5 3.375H1.5C1.15525 3.375 0.875 3.65525 0.875 4V12C0.875 12.3448 1.15525 12.625 1.5 12.625H5.3452C5.55225 12.625 5.7202 12.7929 5.7202 13C5.7202 13.2071 5.55225 13.375 5.3452 13.375Z" fill="currentColor"/>
<path d="M6.53514 15.375H2.35983C1.95163 15.375 1.60009 15.0962 1.50534 14.6968L1.13474 13.084C1.10884 12.9726 1.13524 12.8557 1.20654 12.7663C1.27784 12.6769 1.38574 12.625 1.49999 12.625H5.34519C5.55224 12.625 5.72019 12.793 5.72019 13C5.72019 13.207 5.55224 13.375 5.34519 13.375H1.97119L2.23533 14.5261C2.24948 14.5852 2.29883 14.625 2.35983 14.625H6.53514C6.74219 14.625 6.91014 14.7929 6.91014 15C6.91014 15.2071 6.74219 15.375 6.53514 15.375Z" fill="currentColor"/>
<path d="M7.50014 3.37504C7.41764 3.37504 7.33509 3.34819 7.26574 3.29274C7.10414 3.16334 7.07774 2.92749 7.20714 2.76564L9.2072 0.265645C9.33754 0.103545 9.57289 0.0781449 9.73454 0.207295C9.89614 0.336695 9.92254 0.572545 9.79314 0.734395L7.79314 3.23439C7.71894 3.32694 7.60999 3.37504 7.50014 3.37504Z" fill="currentColor"/>
<path d="M7.50011 3.37499C7.39026 3.37499 7.28136 3.32689 7.20716 3.2344L5.20716 0.734395C5.07776 0.572545 5.10411 0.336695 5.26576 0.207295C5.42786 0.0781449 5.66321 0.103545 5.79311 0.265645L7.79311 2.76565C7.92251 2.9275 7.89616 3.16334 7.73451 3.29274C7.66516 3.34814 7.58266 3.37499 7.50011 3.37499Z" fill="currentColor"/>
<path d="M11.001 15.875C8.31298 15.875 6.12598 13.688 6.12598 11C6.12598 8.312 8.31298 6.125 11.001 6.125C13.689 6.125 15.876 8.312 15.876 11C15.876 13.688 13.689 15.875 11.001 15.875ZM11.001 6.875C8.72658 6.875 6.87598 8.7256 6.87598 11C6.87598 13.2744 8.72658 15.125 11.001 15.125C13.2754 15.125 15.126 13.2744 15.126 11C15.126 8.7256 13.2754 6.875 11.001 6.875Z" fill="currentColor"/>
<path d="M11 12.875C10.9038 12.875 10.8081 12.8384 10.7349 12.7651L9.23488 11.2651C9.08838 11.1186 9.08838 10.8813 9.23488 10.7349L10.7349 9.23488C10.8814 9.08838 11.1187 9.08838 11.2651 9.23488L12.7651 10.7349C12.9116 10.8814 12.9116 11.1187 12.7651 11.2651L11.2651 12.7651C11.1919 12.8384 11.0962 12.875 11 12.875ZM10.0303 11L11 11.9697L11.9698 11L11 10.0302L10.0303 11Z" fill="currentColor"/>
<path d="M11.0005 8.89403C10.9004 8.89403 10.8042 8.85398 10.7339 8.78268L9.0586 7.08788C8.9131 6.94043 8.91405 6.70313 9.06155 6.55763C9.209 6.41188 9.4463 6.41332 9.5918 6.56057L11.0005 7.98563L12.4087 6.56057C12.5542 6.41337 12.7915 6.41212 12.9389 6.55742C13.0864 6.70317 13.0874 6.94047 12.9419 7.08792L11.2671 8.78272C11.1968 8.85402 11.1006 8.89403 11.0005 8.89403Z" fill="currentColor"/>
<path d="M6.8252 13.0491C6.7285 13.0491 6.63185 13.012 6.5586 12.9377C6.4131 12.7903 6.41405 12.553 6.56155 12.4072L7.98635 10.9993L6.56155 9.5908C6.4141 9.4453 6.4131 9.20801 6.5586 9.06056C6.7041 8.91311 6.9414 8.9121 7.08885 9.0576L8.78365 10.7327C8.85495 10.803 8.895 10.8992 8.895 10.9993C8.895 11.0996 8.85495 11.1956 8.78365 11.2661L7.08885 12.9409C7.0156 13.0129 6.9204 13.0491 6.8252 13.0491Z" fill="currentColor"/>
<path d="M9.32518 15.5503C9.22998 15.5503 9.13473 15.5141 9.06153 15.4419C8.91408 15.2964 8.91308 15.0591 9.05858 14.9116L10.7339 13.2168C10.8042 13.1455 10.9004 13.1055 11.0005 13.1055C11.1006 13.1055 11.1968 13.1455 11.2671 13.2168L12.9419 14.9116C13.0874 15.0591 13.0864 15.2964 12.9389 15.4421C12.7915 15.5871 12.5542 15.5864 12.4087 15.439L11.0005 14.0139L9.59178 15.439C9.51853 15.5132 9.42188 15.5503 9.32518 15.5503Z" fill="currentColor"/>
<path d="M15.1753 13.0491C15.0801 13.0491 14.9848 13.0129 14.9116 12.9409L13.2168 11.2661C13.1455 11.1956 13.1055 11.0996 13.1055 10.9993C13.1055 10.8992 13.1455 10.803 13.2168 10.7327L14.9116 9.05762C15.0591 8.91212 15.2964 8.91307 15.4419 9.06057C15.5874 9.20807 15.5864 9.44532 15.4389 9.59082L14.0141 10.9993L15.4389 12.4072C15.5864 12.553 15.5874 12.7903 15.4419 12.9377C15.3686 13.0119 15.272 13.0491 15.1753 13.0491Z" fill="currentColor"/>
<path d="M11 9.87473C10.793 9.87473 10.625 9.70678 10.625 9.49973V8.51953C10.625 8.31248 10.793 8.14453 11 8.14453C11.207 8.14453 11.375 8.31248 11.375 8.51953V9.49973C11.375 9.70678 11.207 9.87473 11 9.87473Z" fill="currentColor"/>
<path d="M9.50096 11.375H8.52051C8.31346 11.375 8.14551 11.207 8.14551 11C8.14551 10.793 8.31346 10.625 8.52051 10.625H9.50096C9.70801 10.625 9.87596 10.793 9.87596 11C9.87596 11.207 9.70801 11.375 9.50096 11.375Z" fill="currentColor"/>
<path d="M13.48 11.375H12.5C12.293 11.375 12.125 11.207 12.125 11C12.125 10.793 12.293 10.625 12.5 10.625H13.48C13.687 10.625 13.855 10.793 13.855 11C13.855 11.207 13.687 11.375 13.48 11.375Z" fill="currentColor"/>
<path d="M11.001 13.855C10.7939 13.855 10.626 13.687 10.626 13.48V12.5C10.626 12.293 10.7939 12.125 11.001 12.125C11.208 12.125 11.376 12.293 11.376 12.5V13.48C11.376 13.687 11.208 13.855 11.001 13.855Z" fill="currentColor"/>
</g>
<defs>
<clipPath id="clip0_1185_16015">
<rect width="16" height="16" fill="currentColor"/>
</clipPath>
</defs>
</svg>
