<svg width="148" height="39" viewBox="0 0 148 39" fill="none" xmlns="http://www.w3.org/2000/svg">
<g clip-path="url(#clip0_9_5093)">
<path d="M41.9774 27.4167C40.7866 26.3902 40.189 24.9371 40.189 23.0506V14.1748H44.0646V23.0095C44.0646 24.7272 44.8652 25.5872 46.4643 25.5872C48.0725 25.5872 48.8754 24.7272 48.8754 23.0095V14.1748H52.7419V23.0506C52.7419 24.9348 52.1488 26.3902 50.9649 27.4167C49.8495 28.3793 48.3485 28.8606 46.4643 28.8606C44.5801 28.8606 43.086 28.3793 41.9774 27.4167Z" fill="white" fill-opacity="0.5"/>
<path d="M58.7407 21.4402V28.653H55.1023V13.9878C55.1023 13.7939 55.2027 13.7802 55.4034 13.9467L64.4868 21.4402V14.1748H68.1252V28.8606C68.1252 29.0545 68.0271 29.0727 67.8332 28.9131L58.7407 21.4402Z" fill="white" fill-opacity="0.5"/>
<path d="M70.4841 14.1748H74.3597V28.653H70.4841V14.1748Z" fill="white" fill-opacity="0.5"/>
<path d="M80.5348 28.6122C79.9257 28.4662 79.36 28.2518 78.8399 27.9689C78.3746 27.7271 77.9526 27.4397 77.5716 27.1067C77.2523 26.8215 76.9694 26.5136 76.7185 26.1828L79.5243 24.0842C79.9257 24.5769 80.3386 24.9465 80.7606 25.1974C81.2876 25.5031 81.8829 25.6536 82.549 25.6536C83.7694 25.6536 84.3785 25.2727 84.3785 24.5108C84.3785 24.0044 83.904 23.5938 82.9551 23.2744L81.2511 22.7018C80.1219 22.3209 79.2597 21.8008 78.6643 21.1439C77.9914 20.4025 77.656 19.4672 77.656 18.3381C77.656 16.9808 78.1579 15.9019 79.1639 15.1058C80.0786 14.3781 81.2214 14.0154 82.5946 14.0154C83.7717 14.0154 84.7868 14.2093 85.6399 14.5971C86.3265 14.9096 86.9151 15.3521 87.4078 15.927L85.1905 18.2491C84.8575 17.9024 84.529 17.6492 84.2028 17.4895C83.8082 17.2956 83.3429 17.1975 82.8091 17.1975C81.8738 17.1975 81.4062 17.5306 81.4062 18.1944C81.4062 18.6803 81.7461 19.0361 82.4236 19.2642L84.3351 19.8984C85.7426 20.3637 86.7508 20.9591 87.3599 21.6868C87.9279 22.3597 88.213 23.2242 88.213 24.2849C88.213 25.6855 87.7773 26.7782 86.9037 27.5697C85.9547 28.4297 84.561 28.8586 82.7247 28.8586C81.9514 28.8609 81.2214 28.7787 80.5348 28.6122Z" fill="white" fill-opacity="0.5"/>
<path d="M103.781 25.3999C102.424 27.6924 100.303 28.8398 97.4217 28.8398C95.3436 28.8398 93.5803 28.1464 92.1318 26.7617C90.6354 25.3406 89.8872 23.5613 89.8872 21.4194C89.8872 19.2843 90.6217 17.505 92.0908 16.077C93.5119 14.6992 95.2182 14.0081 97.2141 14.0081C98.69 14.0081 99.972 14.3023 101.06 14.8908C102.009 15.4041 102.812 16.1455 103.471 17.1149L100.551 19.0904C100.218 18.5771 99.8306 18.1871 99.388 17.9156C98.8132 17.5552 98.1106 17.375 97.278 17.375C96.231 17.375 95.3938 17.7628 94.7619 18.5383C94.1529 19.2865 93.8472 20.2469 93.8472 21.4171C93.8472 22.5805 94.162 23.5408 94.7939 24.2959C95.4531 25.0851 96.3222 25.4798 97.4035 25.4798C98.2771 25.4798 99.0002 25.2881 99.5751 24.9072C100.054 24.5878 100.465 24.1111 100.811 23.4724L103.781 25.3999Z" fill="white" fill-opacity="0.5"/>
<path d="M107.587 26.7617C106.042 25.3338 105.269 23.5545 105.269 21.4194C105.269 19.2774 106.042 17.4982 107.587 16.077C109.09 14.6992 110.908 14.0081 113.043 14.0081C115.169 14.0081 116.985 14.697 118.488 16.077C120.032 17.4982 120.806 19.2774 120.806 21.4194C120.806 23.5545 120.032 25.3338 118.488 26.7617C116.985 28.1464 115.169 28.8398 113.043 28.8398C110.91 28.8398 109.09 28.1464 107.587 26.7617ZM115.849 24.2981C116.515 23.5568 116.846 22.5964 116.846 21.4194C116.846 20.2423 116.513 19.282 115.849 18.5406C115.155 17.765 114.22 17.3773 113.043 17.3773C111.859 17.3773 110.919 17.765 110.226 18.5406C109.56 19.282 109.229 20.2423 109.229 21.4194C109.229 22.5964 109.562 23.5568 110.226 24.2981C110.919 25.0874 111.857 25.482 113.043 25.482C114.22 25.482 115.158 25.0874 115.849 24.2981Z" fill="white" fill-opacity="0.5"/>
<path d="M134.702 28.653H130.514L128.488 25.3386H127.044V28.653H123.169V14.1748H128.657C130.555 14.1748 132.058 14.7223 133.167 15.8172C134.221 16.8574 134.748 18.2032 134.748 19.8593C134.748 22.0218 133.874 23.5844 132.129 24.547L134.702 28.653ZM128.465 22.2499C130.053 22.2499 130.845 21.4538 130.845 19.8593C130.845 18.258 130.051 17.4596 128.465 17.4596H127.042V22.2499H128.465Z" fill="white" fill-opacity="0.5"/>
<path d="M137.104 14.1748H147.257V17.4391H140.98V20.7969H146.217V23.8832H140.98V25.4001H147.558V28.653H137.104V14.1748Z" fill="white" fill-opacity="0.5"/>
<path d="M14.6932 29.0636C13.4887 29.3419 12.1315 29.091 11.1711 28.2629C10.0853 27.33 9.97583 25.9544 9.97583 24.6154C9.97583 23.4794 9.97583 22.3434 9.97583 21.2075C9.97583 18.794 9.97583 16.3783 9.97583 13.9649C9.97583 13.787 9.97583 13.6091 9.97583 13.4311V12.6807H4.39395V10.6482H0.0758118V13.4311C0.221803 15.5184 0.732772 17.5052 1.54257 19.3301C2.30446 21.0455 3.33324 22.6195 4.57416 23.995C6.08882 25.6761 7.92055 27.0676 9.97583 28.069C10.2336 28.1945 10.4959 28.3131 10.7605 28.4272C10.5005 28.3519 10.2382 28.2812 9.97583 28.2219C8.04373 27.7839 6.23253 27.0266 4.59925 26.0046C2.94545 24.9713 1.47641 23.6688 0.253738 22.1564C0.178462 22.0651 0.105466 21.9693 0.0324707 21.8758V24.6132C0.0324707 29.8848 3.03441 34.4698 7.41414 36.7509C8.22394 37.1707 9.08392 37.5151 9.97811 37.7706C10.156 37.8208 10.3362 37.8641 10.5165 37.9097C10.6305 37.9348 16.4063 36.0849 17.378 28.4066C17.3826 28.4044 17.4442 26.2898 17.4442 26.2875C17.4579 26.2145 17.41 26.6456 17.4237 26.5703C17.2229 27.9071 15.9911 28.7625 14.6932 29.0636Z" fill="white" fill-opacity="0.5"/>
<path d="M3.1848 5.46997H0.0300293V8.62475H3.1848V5.46997Z" fill="white" fill-opacity="0.5"/>
<path d="M9.08796 2.77148H6.3894V5.47004H9.08796V2.77148Z" fill="white" fill-opacity="0.5"/>
<path d="M9.97578 7.25854H5.50024V11.7341H9.97578V7.25854Z" fill="white" fill-opacity="0.5"/>
<path d="M3.18481 1.68115V2.94945V3.98051H5.48645V3.68169V1.68115H3.18481Z" fill="white" fill-opacity="0.5"/>
<path d="M0.0297852 0V1.14512V1.68118H1.0061H1.71096V0H0.0297852Z" fill="white" fill-opacity="0.5"/>
<path d="M17.4349 5.46997V11.2731C17.4349 11.3347 17.4372 11.3986 17.4394 11.4579C17.4372 11.4556 17.4372 11.4556 17.4349 11.4556C17.4349 11.4556 17.4258 25.3544 17.4212 25.3704C17.4212 25.3727 17.4212 25.3727 17.4212 25.3727C17.4212 25.3886 17.4189 25.4023 17.4189 25.4183C17.4326 25.7057 17.4417 25.9954 17.4417 26.2851C17.4417 30.9659 15.5119 35.1951 12.405 38.2244C12.8339 38.2655 13.2673 38.2883 13.7053 38.2883C14.9987 38.2883 16.2487 38.1081 17.4349 37.7705C22.7225 36.2695 26.7167 31.6571 27.3052 26.0479C27.3554 25.5757 27.3805 25.0989 27.3805 24.6131V5.46997H17.4349Z" fill="white" fill-opacity="0.5"/>
</g>
<defs>
<clipPath id="clip0_9_5093">
<rect width="147.529" height="38.2907" fill="white" transform="translate(0.0297852)"/>
</clipPath>
</defs>
</svg>
