<svg width="127" height="18" viewBox="0 0 127 18" fill="none" xmlns="http://www.w3.org/2000/svg">
    <path fill-rule="evenodd" clip-rule="evenodd"
          d="M21.9427 9.01674V17.5484H17.6391V0.201796C17.6391 -0.0275486 17.7578 -0.0437378 17.9952 0.153229L28.7394 9.01674V0.423047H33.043V17.7939C33.043 18.0233 32.927 18.0448 32.6976 17.856L21.9427 9.01674ZM2.11537 16.086C0.706922 14.8718 0 13.153 0 10.9217V0.423041H4.5842V10.8731C4.5842 12.9048 5.53126 13.922 7.42269 13.922C9.3249 13.922 10.2747 12.9048 10.2747 10.8731V0.423041H14.8481V10.9217C14.8481 13.1503 14.1465 14.8718 12.7462 16.086C11.4268 17.2246 9.65138 17.7939 7.42269 17.7939C5.19399 17.7939 3.42668 17.2246 2.11537 16.086ZM40.4192 0.423041H35.835V17.5484H40.4192V0.423041Z"
          fill="url(#paint0_linear_143_4517)"/>
    <path d="M47.724 17.4999C47.0035 17.3272 46.3344 17.0736 45.7192 16.739C45.1688 16.453 44.6696 16.113 44.219 15.7191C43.8413 15.3818 43.5067 15.0176 43.2099 14.6263L46.5287 12.144C47.0035 12.7268 47.4919 13.1639 47.9911 13.4607C48.6144 13.8223 49.3186 14.0004 50.1064 14.0004C51.55 14.0004 52.2704 13.5498 52.2704 12.6486C52.2704 12.0496 51.7092 11.5639 50.5867 11.1862L48.5712 10.5089C47.2356 10.0583 46.2157 9.44313 45.5114 8.66606C44.7155 7.78915 44.3188 6.6829 44.3188 5.3473C44.3188 3.74188 44.9125 2.46565 46.1023 1.52398C47.1843 0.663264 48.5361 0.234253 50.1604 0.234253C51.5527 0.234253 52.7534 0.463599 53.7625 0.922289C54.5746 1.29194 55.2708 1.81539 55.8536 2.49533L53.2309 5.24207C52.837 4.83195 52.4485 4.53245 52.0626 4.34358C51.5958 4.11423 51.0454 3.99821 50.414 3.99821C49.3078 3.99821 48.7547 4.39215 48.7547 5.17731C48.7547 5.75203 49.1567 6.17294 49.958 6.44276L52.2191 7.19285C53.8839 7.74328 55.0765 8.4475 55.7969 9.30822C56.4687 10.1042 56.806 11.1268 56.806 12.3814C56.806 14.0381 56.2907 15.3306 55.2573 16.2668C54.1348 17.284 52.4862 17.7913 50.3142 17.7913C49.3995 17.794 48.5361 17.6969 47.724 17.4999Z"
          fill="#F6B500"/>
    <path d="M75.2192 13.7008C73.6138 16.4124 71.1045 17.7696 67.6967 17.7696C65.2386 17.7696 63.1529 16.9494 61.4396 15.3116C59.6696 13.6306 58.7846 11.526 58.7846 8.99245C58.7846 6.46696 59.6534 4.36238 61.391 2.67332C63.072 1.04362 65.0902 0.226074 67.4511 0.226074C69.1968 0.226074 70.7132 0.574139 72.0002 1.27027C73.1227 1.87736 74.0724 2.75427 74.8522 3.90099L71.3986 6.23762C71.0046 5.63053 70.5459 5.16914 70.0225 4.84805C69.3425 4.42174 68.5115 4.20858 67.5267 4.20858C66.2882 4.20858 65.298 4.66727 64.5506 5.58465C63.8302 6.46966 63.4686 7.60559 63.4686 8.98976C63.4686 10.3658 63.841 11.5018 64.5884 12.3949C65.3681 13.3284 66.3961 13.7952 67.6751 13.7952C68.7085 13.7952 69.5638 13.5686 70.2437 13.118C70.8104 12.7402 71.296 12.1763 71.7061 11.4208L75.2192 13.7008Z"
          fill="#F6B500"/>
    <path d="M79.7206 15.3116C77.8939 13.6225 76.9792 11.5179 76.9792 8.99245C76.9792 6.45887 77.8939 4.35429 79.7206 2.67332C81.4987 1.04362 83.6491 0.226074 86.1746 0.226074C88.6893 0.226074 90.8371 1.04092 92.6152 2.67332C94.4418 4.35429 95.3565 6.45887 95.3565 8.99245C95.3565 11.5179 94.4418 13.6225 92.6152 15.3116C90.8371 16.9494 88.6893 17.7696 86.1746 17.7696C83.6518 17.7696 81.4987 16.9494 79.7206 15.3116ZM89.4934 12.3976C90.2812 11.5206 90.6725 10.3847 90.6725 8.99245C90.6725 7.60019 90.2785 6.46426 89.4934 5.58735C88.6731 4.66997 87.5669 4.21128 86.1746 4.21128C84.7742 4.21128 83.6626 4.66997 82.8424 5.58735C82.0545 6.46426 81.6632 7.60019 81.6632 8.99245C81.6632 10.3847 82.0572 11.5206 82.8424 12.3976C83.6626 13.3311 84.7716 13.7979 86.1746 13.7979C87.5669 13.7979 88.6758 13.3311 89.4934 12.3976Z"
          fill="#F6B500"/>
    <path d="M111.794 17.5484H106.84L104.444 13.628H102.736V17.5484H98.1521V0.423096H104.644C106.889 0.423096 108.667 1.07066 109.978 2.36578C111.225 3.59615 111.848 5.18808 111.848 7.14695C111.848 9.70483 110.815 11.5531 108.751 12.6917L111.794 17.5484ZM104.417 9.97465C106.295 9.97465 107.231 9.03298 107.231 7.14695C107.231 5.25283 106.292 4.30847 104.417 4.30847H102.734V9.97465H104.417Z"
          fill="#F6B500"/>
    <path d="M114.634 0.423096H126.644V4.28419H119.219V8.25591H125.414V11.9065H119.219V13.7008H127V17.5484H114.634V0.423096Z"
          fill="#F6B500"/>
    <defs>
        <linearGradient id="paint0_linear_143_4517" x1="3.84235" y1="-1.62999" x2="31.2875" y2="26.3643"
                        gradientUnits="userSpaceOnUse">
            <stop stop-color="#E7EFFF"/>
            <stop offset="1" stop-color="#3CA2FF"/>
        </linearGradient>
    </defs>
</svg>
