<svg width="518" height="654" viewBox="0 0 518 654" fill="none" xmlns="http://www.w3.org/2000/svg">
<rect width="518" height="653.913" fill="#091557"/>
<rect x="375.391" y="1" width="90.3913" height="232.783" transform="rotate(90 375.391 1)" stroke="#023191" stroke-opacity="0.88" stroke-width="2"/>
<rect x="316.695" y="1" width="46.913" height="116.478" transform="rotate(90 316.695 1)" stroke="#023191" stroke-opacity="0.88" stroke-width="2"/>
<mask id="path-3-inside-1_5004_3313" fill="white">
<path fill-rule="evenodd" clip-rule="evenodd" d="M198.131 90.2173C205.317 117.132 229.866 136.956 259.046 136.956C288.226 136.956 312.775 117.132 319.961 90.2173L198.131 90.2173Z"/>
</mask>
<path d="M198.131 90.2173L198.131 88.0434L195.301 88.0434L196.031 90.778L198.131 90.2173ZM319.961 90.2173L322.061 90.778L322.791 88.0434L319.961 88.0434L319.961 90.2173ZM259.046 134.783C230.876 134.783 207.17 115.644 200.232 89.6565L196.031 90.778C203.464 118.62 228.857 139.13 259.046 139.13L259.046 134.783ZM317.861 89.6565C310.922 115.644 287.217 134.783 259.046 134.783L259.046 139.13C289.235 139.13 314.628 118.62 322.061 90.778L317.861 89.6565ZM319.961 88.0434L198.131 88.0434L198.131 92.3912L319.961 92.3912L319.961 88.0434Z" fill="#023191" fill-opacity="0.88" mask="url(#path-3-inside-1_5004_3313)"/>
<path d="M309 327C309 355.167 286.167 378 258 378C229.833 378 207 355.167 207 327C207 298.833 229.833 276 258 276C286.167 276 309 298.833 309 327Z" stroke="#023191" stroke-opacity="0.88" stroke-width="2"/>
<line x1="518" y1="327.957" x2="-1.2076e-07" y2="327.957" stroke="#023191" stroke-opacity="0.88" stroke-width="2"/>
<circle cx="258" cy="327" r="5" transform="rotate(90 258 327)" fill="#023191" fill-opacity="0.88"/>
<rect x="142.609" y="652.913" width="90.3913" height="232.783" transform="rotate(-90 142.609 652.913)" stroke="#023191" stroke-opacity="0.88" stroke-width="2"/>
<mask id="path-9-inside-2_5004_3313" fill="white">
<path fill-rule="evenodd" clip-rule="evenodd" d="M319.959 563.696C312.773 536.781 288.223 516.957 259.044 516.957C229.864 516.957 205.315 536.781 198.129 563.696L319.959 563.696Z"/>
</mask>
<path d="M319.959 563.696L319.959 565.696L322.563 565.696L321.891 563.18L319.959 563.696ZM198.129 563.696L196.197 563.18L195.525 565.696L198.129 565.696L198.129 563.696ZM259.044 518.957C287.295 518.957 311.068 538.15 318.026 564.212L321.891 563.18C314.477 535.412 289.152 514.957 259.044 514.957L259.044 518.957ZM200.061 564.212C207.019 538.15 230.793 518.957 259.044 518.957L259.044 514.957C228.936 514.957 203.61 535.412 196.197 563.18L200.061 564.212ZM198.129 565.696L319.959 565.696L319.959 561.696L198.129 561.696L198.129 565.696Z" fill="#023191" fill-opacity="0.88" mask="url(#path-9-inside-2_5004_3313)"/>
<rect x="201.305" y="652.913" width="46.913" height="116.478" transform="rotate(-90 201.305 652.913)" stroke="#023191" stroke-opacity="0.88" stroke-width="2"/>
<g clip-path="url(#clip0_5004_3313)">
<path d="M471.787 643.664C471.367 643.302 471.156 642.79 471.156 642.125V638.996H472.522V642.11C472.522 642.716 472.805 643.019 473.368 643.019C473.935 643.019 474.218 642.716 474.218 642.11V638.996H475.581V642.125C475.581 642.789 475.372 643.302 474.954 643.664C474.561 644.003 474.032 644.172 473.368 644.172C472.704 644.172 472.177 644.003 471.787 643.664Z" fill="#023191" fill-opacity="0.88"/>
<path d="M477.696 641.557V644.099H476.414V638.93C476.414 638.862 476.449 638.857 476.52 638.916L479.722 641.557V638.996H481.004V644.172C481.004 644.241 480.97 644.247 480.901 644.191L477.696 641.557Z" fill="#023191" fill-opacity="0.88"/>
<path d="M481.836 638.996H483.202V644.099H481.836V638.996Z" fill="#023191" fill-opacity="0.88"/>
<path d="M485.376 644.085C485.162 644.033 484.962 643.958 484.779 643.858C484.615 643.773 484.466 643.672 484.332 643.554C484.219 643.454 484.12 643.345 484.031 643.229L485.02 642.489C485.162 642.663 485.307 642.793 485.456 642.881C485.642 642.989 485.852 643.042 486.086 643.042C486.517 643.042 486.731 642.908 486.731 642.639C486.731 642.461 486.564 642.316 486.229 642.204L485.629 642.002C485.231 641.867 484.927 641.684 484.717 641.453C484.48 641.191 484.362 640.862 484.362 640.464C484.362 639.985 484.539 639.605 484.893 639.324C485.216 639.068 485.618 638.94 486.102 638.94C486.517 638.94 486.875 639.008 487.176 639.145C487.418 639.255 487.625 639.411 487.799 639.614L487.017 640.432C486.9 640.31 486.784 640.221 486.669 640.164C486.53 640.096 486.366 640.062 486.178 640.062C485.848 640.062 485.684 640.179 485.684 640.413C485.684 640.584 485.803 640.71 486.042 640.79L486.716 641.014C487.212 641.178 487.567 641.387 487.782 641.644C487.982 641.881 488.083 642.186 488.083 642.56C488.083 643.053 487.929 643.439 487.621 643.718C487.287 644.021 486.796 644.172 486.148 644.172C485.876 644.173 485.618 644.144 485.376 644.085Z" fill="#023191" fill-opacity="0.88"/>
<path d="M493.569 642.953C493.091 643.761 492.343 644.165 491.328 644.165C490.595 644.165 489.974 643.921 489.463 643.433C488.936 642.932 488.672 642.305 488.672 641.55C488.672 640.797 488.931 640.17 489.449 639.667C489.949 639.181 490.551 638.938 491.254 638.938C491.775 638.938 492.227 639.041 492.61 639.249C492.945 639.43 493.228 639.691 493.46 640.033L492.431 640.729C492.313 640.548 492.177 640.41 492.021 640.315C491.818 640.188 491.57 640.124 491.277 640.124C490.908 640.124 490.613 640.261 490.39 640.534C490.175 640.798 490.068 641.137 490.068 641.549C490.068 641.959 490.179 642.298 490.401 642.564C490.634 642.842 490.94 642.981 491.321 642.981C491.629 642.981 491.884 642.913 492.087 642.779C492.255 642.667 492.4 642.499 492.522 642.273L493.569 642.953Z" fill="#023191" fill-opacity="0.88"/>
<path d="M494.911 643.433C494.366 642.93 494.094 642.302 494.094 641.55C494.094 640.795 494.366 640.168 494.911 639.667C495.441 639.181 496.081 638.938 496.834 638.938C497.583 638.938 498.223 639.18 498.753 639.667C499.297 640.168 499.57 640.795 499.57 641.55C499.57 642.302 499.297 642.93 498.753 643.433C498.223 643.921 497.583 644.165 496.834 644.165C496.082 644.165 495.441 643.921 494.911 643.433ZM497.823 642.564C498.058 642.303 498.174 641.965 498.174 641.55C498.174 641.135 498.057 640.796 497.823 640.535C497.578 640.262 497.249 640.125 496.834 640.125C496.417 640.125 496.085 640.262 495.841 640.535C495.606 640.796 495.49 641.135 495.49 641.55C495.49 641.965 495.607 642.303 495.841 642.564C496.085 642.843 496.416 642.982 496.834 642.982C497.249 642.982 497.579 642.843 497.823 642.564Z" fill="#023191" fill-opacity="0.88"/>
<path d="M504.471 644.099H502.995L502.281 642.931H501.772V644.099H500.406V638.996H502.341C503.01 638.996 503.54 639.189 503.93 639.575C504.302 639.942 504.488 640.416 504.488 641C504.488 641.762 504.18 642.313 503.564 642.652L504.471 644.099ZM502.273 641.842C502.833 641.842 503.112 641.562 503.112 641C503.112 640.435 502.832 640.154 502.273 640.154H501.771V641.842H502.273Z" fill="#023191" fill-opacity="0.88"/>
<path d="M505.316 638.996H508.895V640.147H506.682V641.33H508.529V642.418H506.682V642.953H509.001V644.099H505.316V638.996Z" fill="#023191" fill-opacity="0.88"/>
<path d="M463.554 644.244C463.13 644.342 462.651 644.254 462.313 643.962C461.93 643.633 461.891 643.148 461.891 642.677C461.891 642.276 461.891 641.876 461.891 641.475C461.891 640.625 461.891 639.773 461.891 638.922C461.891 638.86 461.891 638.797 461.891 638.734V638.47H459.924V637.753H458.402V638.734C458.453 639.47 458.634 640.17 458.919 640.814C459.188 641.418 459.55 641.973 459.988 642.458C460.521 643.05 461.167 643.541 461.891 643.894C461.982 643.938 462.075 643.98 462.168 644.02C462.076 643.994 461.984 643.969 461.891 643.948C461.21 643.793 460.572 643.526 459.996 643.166C459.413 642.802 458.896 642.343 458.465 641.81C458.438 641.778 458.412 641.744 458.387 641.711V642.676C458.387 644.534 459.445 646.15 460.989 646.954C461.274 647.102 461.577 647.223 461.892 647.313C461.955 647.331 462.019 647.346 462.082 647.362C462.122 647.371 464.158 646.719 464.501 644.013C464.502 644.012 464.524 643.267 464.524 643.266C464.529 643.24 464.512 643.392 464.517 643.366C464.446 643.837 464.012 644.138 463.554 644.244Z" fill="#023191" fill-opacity="0.88"/>
<path d="M459.499 635.928H458.387V637.04H459.499V635.928Z" fill="#023191" fill-opacity="0.88"/>
<path d="M461.58 634.977H460.629V635.928H461.58V634.977Z" fill="#023191" fill-opacity="0.88"/>
<path d="M461.894 636.559H460.316V638.136H461.894V636.559Z" fill="#023191" fill-opacity="0.88"/>
<path d="M459.5 634.593V635.04V635.403H460.311V635.298V634.593H459.5Z" fill="#023191" fill-opacity="0.88"/>
<path d="M458.387 634V634.404V634.593H458.731H458.979V634H458.387Z" fill="#023191" fill-opacity="0.88"/>
<path d="M464.523 635.928V637.973C464.523 637.995 464.524 638.017 464.524 638.038C464.524 638.038 464.524 638.038 464.523 638.038C464.523 638.038 464.52 642.936 464.518 642.942C464.518 642.943 464.518 642.943 464.518 642.943C464.518 642.949 464.517 642.953 464.517 642.959C464.522 643.06 464.525 643.162 464.525 643.265C464.525 644.914 463.845 646.405 462.75 647.473C462.901 647.487 463.054 647.495 463.208 647.495C463.664 647.495 464.105 647.432 464.523 647.313C466.387 646.784 467.794 645.158 468.002 643.181C468.02 643.014 468.028 642.846 468.028 642.675V635.928H464.523Z" fill="#023191" fill-opacity="0.88"/>
</g>
<defs>
<clipPath id="clip0_5004_3313">
<rect width="52" height="13.4965" fill="white" transform="translate(457 634)"/>
</clipPath>
</defs>
</svg>
