<svg width="35" height="31" viewBox="0 0 35 31" fill="none" xmlns="http://www.w3.org/2000/svg">
<path d="M34.9178 13.1053L5.6307 19.9097L0.0117188 11.8486L29.2988 5.04395L34.9178 13.1053Z" fill="#47A047"/>
<path d="M31.6715 12.4286L20.6139 14.9999C22.0123 14.246 22.4311 12.854 21.5161 11.5394C21.1681 11.0433 20.6719 10.6116 20.0855 10.2699C19.1126 9.70951 17.9011 9.39361 16.709 9.40651L27.773 6.83559C28.2627 6.71949 28.8105 6.79689 29.1649 6.99669C29.2809 7.06748 29.3775 7.15118 29.4484 7.24777L32.3868 11.4558C32.651 11.8424 32.3352 12.2741 31.6715 12.4286Z" fill="#96D696"/>
<path d="M28.2475 7.48595C28.3177 7.52648 28.3754 7.57549 28.4156 7.63183C28.5726 7.85991 28.3855 8.11641 27.9923 8.20668C27.7024 8.27568 27.3798 8.23125 27.1711 8.11071C27.0997 8.06952 27.0416 8.01951 27.0026 7.96206C26.8416 7.73628 27.0327 7.47746 27.4178 7.38714C27.7129 7.31937 28.0363 7.36405 28.2475 7.48595Z" fill="#47A047"/>
<path d="M29.5461 12.4632C29.4934 12.5843 29.3463 12.6746 29.1087 12.7316C28.8672 12.7862 28.6539 12.7815 28.4689 12.7126C28.416 12.6929 28.3662 12.6696 28.3194 12.6425C28.2022 12.5749 28.1039 12.4842 28.0241 12.3706C27.9084 12.209 27.8831 12.0664 27.9314 11.943C27.9883 11.8194 28.1312 11.7316 28.3729 11.6769C28.6105 11.6199 28.8236 11.6247 29.0086 11.6935C29.0654 11.7135 29.1182 11.7378 29.1677 11.7664C29.2832 11.833 29.3794 11.9233 29.4575 12.038C29.5691 12.1972 29.5986 12.3373 29.5461 12.4632ZM29.0055 12.5819C29.1527 12.5487 29.2385 12.4893 29.2546 12.4038C29.2787 12.3183 29.2452 12.2186 29.1625 12.1046C29.1006 12.0095 29.0216 11.9343 28.928 11.8802C28.9092 11.8694 28.8899 11.8595 28.87 11.8504C28.7549 11.7981 28.6237 11.7886 28.4762 11.8218C28.3287 11.8551 28.247 11.9169 28.2229 12.0024C28.203 12.0903 28.2323 12.1876 28.3107 12.3041C28.3762 12.3969 28.4555 12.4717 28.549 12.5257C28.5679 12.5366 28.5875 12.5466 28.6075 12.5558C28.7225 12.6081 28.8579 12.62 29.0055 12.5819Z" fill="#414A61"/>
<path d="M27.2856 11.96L27.9925 12.979L27.7098 13.0432L27.1105 12.1761L26.754 12.2593L26.6465 12.1073L27.2856 11.96Z" fill="#414A61"/>
<path d="M10.672 13.328C10.9487 13.4877 11.1755 13.6816 11.3314 13.9044C11.9473 14.7857 11.2149 15.7881 9.69121 16.1397C8.55676 16.404 7.30311 16.2325 6.48609 15.7608C6.20895 15.6008 5.98198 15.4063 5.82701 15.1825C5.21106 14.3012 5.94766 13.3012 7.46719 12.9472C8.60228 12.6828 9.85444 12.856 10.672 13.328Z" fill="#47A047"/>
<path d="M24.0753 8.45123C24.1469 8.49255 24.2056 8.54287 24.2456 8.60093C24.4026 8.82901 24.2155 9.08551 23.8223 9.17579C23.5324 9.24478 23.2099 9.20036 23.0011 9.07981C22.9297 9.03862 22.8716 8.98861 22.8326 8.93116C22.6716 8.70538 22.8627 8.44657 23.2518 8.35392C23.545 8.28657 23.8658 8.33024 24.0753 8.45123Z" fill="#47A047"/>
<path d="M26.1592 7.96939C26.2311 8.01092 26.29 8.06139 26.33 8.11942C26.4913 8.34508 26.2999 8.60402 25.9067 8.6943C25.615 8.76017 25.2925 8.71524 25.0815 8.59343C25.0112 8.55284 24.9532 8.5037 24.9129 8.44729C24.7559 8.21919 24.943 7.96269 25.3362 7.87242C25.6261 7.80344 25.9486 7.84785 26.1592 7.96939Z" fill="#47A047"/>
<path d="M31.2826 12.0631C31.2299 12.1843 31.0828 12.2745 30.8452 12.3316C30.6038 12.3861 30.3905 12.3814 30.2054 12.3126C30.1526 12.2929 30.1028 12.2695 30.0558 12.2424C29.9385 12.1746 29.8393 12.0835 29.7565 11.9681C29.645 11.809 29.6194 11.6665 29.668 11.543C29.7247 11.4195 29.8678 11.3315 30.1054 11.2745C30.3468 11.22 30.5601 11.2247 30.7452 11.2935C30.8002 11.314 30.8522 11.3383 30.9012 11.3666C31.0167 11.4333 31.1144 11.5221 31.19 11.6356C31.3056 11.7971 31.3352 11.9373 31.2826 12.0631ZM30.7421 12.1818C30.8893 12.1487 30.9751 12.0893 30.9911 12.0037C31.0112 11.9205 30.9818 11.8185 30.8991 11.7045C30.8338 11.6074 30.757 11.5336 30.6642 11.48C30.6457 11.4693 30.6264 11.4595 30.6066 11.4503C30.4915 11.398 30.3562 11.3861 30.2128 11.4218C30.0653 11.4551 29.9755 11.5168 29.9595 11.6023C29.9354 11.6879 29.9646 11.79 30.0432 11.9017C30.112 11.9964 30.1919 12.0716 30.2832 12.1242C30.3016 12.1349 30.3206 12.1446 30.3399 12.1534C30.4591 12.2081 30.5904 12.2176 30.7421 12.1818Z" fill="#414A61"/>
<path d="M14.8418 14.6857C15.8129 15.2464 17.0309 15.5652 18.2226 15.5545L7.16116 18.124C6.66823 18.2394 6.124 18.1636 5.76828 17.9582C5.64819 17.8889 5.5496 17.8048 5.48174 17.7083L2.5464 13.4993C2.28172 13.1145 2.59936 12.6821 3.25851 12.5278L14.3209 9.95801C12.9206 10.7113 12.4932 12.1054 13.4091 13.4207C13.7558 13.9179 14.2535 14.346 14.8418 14.6857ZM9.68837 16.1406C11.212 15.789 11.9445 14.7866 11.3286 13.9053C11.1727 13.6825 10.9458 13.4886 10.6691 13.3289C9.8516 12.8569 8.59945 12.6837 7.46437 12.9481C5.94484 13.3021 5.20822 14.3021 5.82418 15.1834C5.97915 15.4072 6.20612 15.6017 6.48325 15.7617C7.30027 16.2334 8.55392 16.4048 9.68837 16.1406Z" fill="#96D696"/>
<path d="M34.9193 13.1084L34.9074 17.3106L5.62109 24.116L5.63301 19.9138L34.9193 13.1084Z" fill="#47A047"/>
<path d="M34.91 15.9316L5.62389 22.6832L5.62305 22.9848L34.9092 16.2336L34.91 15.9316Z" fill="#5FAF5F"/>
<path d="M34.9139 15.4004L5.6278 22.1516L5.62695 22.4535L34.9131 15.7023L34.9139 15.4004Z" fill="#5FAF5F"/>
<path d="M34.9178 13.2744L5.6317 20.0256L5.63086 20.3272L34.917 13.576L34.9178 13.2744Z" fill="#5FAF5F"/>
<path d="M34.9159 14.3369L5.62975 21.0881L5.62891 21.39L34.915 14.6389L34.9159 14.3369Z" fill="#5FAF5F"/>
<path d="M34.9139 14.8682L5.6278 21.6193L5.62695 21.9213L34.9131 15.1701L34.9139 14.8682Z" fill="#5FAF5F"/>
<path d="M34.9081 16.9941L5.62198 23.7457L5.62109 24.0473L34.9072 17.2961L34.9081 16.9941Z" fill="#5FAF5F"/>
<path d="M34.9178 13.8057L5.6317 20.5565L5.63086 20.8584L34.917 14.1073L34.9178 13.8057Z" fill="#5FAF5F"/>
<path d="M34.91 16.4629L5.62389 23.2141L5.62305 23.5157L34.9092 16.7645L34.91 16.4629Z" fill="#5FAF5F"/>
<path d="M16.5295 17.3816L16.5176 21.5836L20.7191 20.6073L20.731 16.4053L16.5295 17.3816Z" fill="#ED5D71"/>
<path d="M17.0627 17.2566L17.0508 21.4586L21.2523 20.4823L21.2642 16.2803L17.0627 17.2566Z" fill="#E3E7F0"/>
<path d="M5.63445 19.9143L5.62254 24.1165L0 16.0547L0.0119132 11.8525L5.63445 19.9143Z" fill="#5FAF5F"/>
<path d="M32.1672 12.1289L32.1546 16.5613L22.248 22.3184L22.2606 17.886L32.1672 12.1289Z" fill="#47A047"/>
<path d="M22.262 17.8867L22.2494 22.3191L1.23828 10.1883L1.25085 5.75586L22.262 17.8867Z" fill="#47A047"/>
<path d="M1.24414 8.13896L22.2553 20.2636L22.2559 20.0367L1.24477 7.91211L1.24414 8.13896Z" fill="#77CB77"/>
<path d="M1.24609 7.61357L22.2573 19.7382L22.2579 19.5117L1.24676 7.38672L1.24609 7.61357Z" fill="#77CB77"/>
<path d="M22.26 17.8887L1.24883 5.75781L1.24805 6.03973L22.2592 18.1643L22.26 17.8887Z" fill="#77CB77"/>
<path d="M1.23828 10.1904L22.2494 22.321L22.2499 22.1354L1.23879 10.0107L1.23828 10.1904Z" fill="#77CB77"/>
<path d="M1.24023 9.18748L22.2514 21.3121L22.252 21.0856L1.24086 8.96094L1.24023 9.18748Z" fill="#77CB77"/>
<path d="M1.24023 9.71287L22.2514 21.8378L22.252 21.6109L1.2409 9.48633L1.24023 9.71287Z" fill="#77CB77"/>
<path d="M1.24414 8.66306L22.2553 20.788L22.2559 20.5611L1.24477 8.43652L1.24414 8.66306Z" fill="#77CB77"/>
<path d="M22.2599 18.4615L1.24868 6.33691L1.24805 6.56377L22.2592 18.6881L22.2599 18.4615Z" fill="#77CB77"/>
<path d="M1.24676 6.8623L1.24609 7.08884L22.2573 19.2135L22.2579 18.9869L1.24676 6.8623Z" fill="#77CB77"/>
<path d="M14.2275 13.2488L14.2149 17.6813L10.4805 15.5252L10.493 11.0928L14.2275 13.2488Z" fill="#D3DBEA"/>
<path d="M10.0985 10.8643L10.0859 15.2967L10.4818 15.5253L10.4943 11.0929L10.0985 10.8643Z" fill="#E34454"/>
<path d="M14.2313 13.25L14.2188 17.6824L14.6146 17.911L14.6271 13.4786L14.2313 13.25Z" fill="#E34454"/>
<path d="M32.1697 12.1308L22.2631 17.8879L1.25195 5.75707L11.1585 0L32.1697 12.1308Z" fill="#47A047"/>
<path d="M21.7715 14.1468C21.8795 14.2092 21.9145 14.2782 21.8726 14.3562C21.8385 14.4341 21.7504 14.5121 21.6086 14.5945C21.4668 14.6769 21.3287 14.7303 21.1944 14.7503C21.0637 14.7726 20.9443 14.7526 20.8363 14.6903C20.7322 14.6301 20.6972 14.5611 20.7315 14.4831C20.7695 14.4029 20.8535 14.3228 20.9953 14.2404C21.1334 14.1601 21.2754 14.1089 21.4097 14.0889C21.548 14.0666 21.6674 14.0867 21.7715 14.1468Z" fill="#96D696"/>
<path d="M22.1619 14.3673C22.1281 14.4853 22.0172 14.6033 21.8217 14.7169C21.6225 14.8327 21.4191 14.8973 21.2192 14.9151C21.0156 14.9351 20.827 14.8973 20.6534 14.797C20.4837 14.6991 20.4139 14.5877 20.4478 14.4697C20.4779 14.3539 20.5926 14.2381 20.7918 14.1223C20.9873 14.0087 21.1869 13.9419 21.3905 13.9219C21.5942 13.9018 21.7828 13.9441 21.9525 14.0421C22.1261 14.1423 22.196 14.2492 22.1619 14.3673ZM21.1953 14.7503C21.3297 14.7303 21.4678 14.6768 21.6096 14.5944C21.7514 14.512 21.8395 14.434 21.8735 14.3561C21.9154 14.2782 21.8805 14.2091 21.7724 14.1468C21.6683 14.0866 21.5489 14.0666 21.4106 14.0889C21.2763 14.1089 21.1343 14.1601 20.9962 14.2403C20.8544 14.3227 20.7704 14.4029 20.7324 14.483C20.6981 14.561 20.7331 14.6301 20.8372 14.6902C20.9453 14.7526 21.0646 14.7726 21.1953 14.7503Z" fill="#4C5671"/>
<path d="M23.0159 14.8646C23.2527 15.0013 23.0882 15.1755 22.853 15.3122C22.6153 15.4503 22.319 15.5457 22.0807 15.408C21.8458 15.2724 22.0035 15.0954 22.2397 14.9581C22.3777 14.8779 22.5197 14.8267 22.6541 14.8067C22.7924 14.7844 22.9117 14.8044 23.0159 14.8646Z" fill="#96D696"/>
<path d="M23.0635 15.4347C22.7091 15.6406 22.2603 15.7256 21.8952 15.5148C21.5307 15.3043 21.67 15.0514 22.0336 14.8401C22.229 14.7265 22.4286 14.6596 22.6322 14.6396C22.836 14.6195 23.0245 14.6619 23.1943 14.7599C23.5575 14.9696 23.4248 15.2248 23.0635 15.4347ZM22.4371 15.4681C22.5714 15.4481 22.7095 15.3946 22.8513 15.3122C23.0867 15.1754 23.251 15.0012 23.0142 14.8645C22.9101 14.8044 22.7907 14.7844 22.6524 14.8067C22.5181 14.8266 22.3761 14.8779 22.238 14.9581C22.0019 15.0953 21.8441 15.2724 22.079 15.408C22.187 15.4704 22.3064 15.4904 22.4371 15.4681Z" fill="#4C5671"/>
<path d="M27.9817 11.9959C28.2633 12.1585 28.2647 12.4214 27.9851 12.5839C27.7052 12.7465 27.2516 12.7465 26.97 12.5839C26.6884 12.4213 26.6868 12.1586 26.9667 11.9959C27.2463 11.8334 27.7001 11.8334 27.9817 11.9959Z" fill="#47A047"/>
<path d="M24.9915 10.2713C25.2692 10.4317 25.2706 10.6945 24.991 10.857C24.7111 11.0197 24.2575 11.0196 23.9798 10.8593C23.6982 10.6967 23.6966 10.434 23.9765 10.2713C24.2561 10.1088 24.7099 10.1087 24.9915 10.2713Z" fill="#5FAF5F"/>
<path d="M26.4862 11.1317C26.7678 11.2943 26.7691 11.5571 26.4895 11.7196C26.2096 11.8823 25.756 11.8822 25.4745 11.7196C25.1967 11.5593 25.1951 11.2965 25.475 11.1339C25.7546 10.9714 26.2084 10.9713 26.4862 11.1317Z" fill="#47A047"/>
<path d="M21.1277 13.6019L19.8744 14.3303L19.6699 14.2122L20.7355 13.593L20.4809 13.446L20.6687 13.3369L21.1277 13.6019Z" fill="#4C5671"/>
<path d="M19.2801 6.39519C17.6411 5.97616 15.4133 6.27505 13.7992 7.21303C12.1822 8.15271 11.675 9.44262 12.404 10.39L4.47515 5.8123C4.00456 5.54061 3.99826 5.09739 4.46961 4.82347L9.64318 1.81692C10.1145 1.543 10.8797 1.5452 11.3503 1.8169L19.2801 6.39519ZM8.36525 6.34905C9.45688 6.9793 11.2178 6.97929 12.3025 6.34893C13.387 5.71869 13.3813 4.69868 12.2897 4.06843C11.198 3.43818 9.43707 3.43819 8.35259 4.06842C7.26788 4.69879 7.27362 5.7188 8.36525 6.34905Z" fill="#96D696"/>
<path d="M12.2899 4.06741C13.3815 4.69767 13.3872 5.71768 12.3027 6.34792C11.218 6.97828 9.45708 6.97829 8.36544 6.34803C7.27381 5.71778 7.26808 4.69777 8.35277 4.06741C9.43727 3.43717 11.1982 3.43716 12.2899 4.06741Z" fill="#47A047"/>
<path d="M20.3001 6.79808C20.6007 6.97164 20.834 7.17163 21.0021 7.38979C21.7329 8.339 21.2242 9.63046 19.6101 10.5684C17.9932 11.5081 15.7679 11.8061 14.1279 11.3858C13.7505 11.289 13.404 11.1543 13.1031 10.9805C12.8029 10.8072 12.5697 10.6073 12.4019 10.3893C11.6729 9.44185 12.1801 8.15194 13.7971 7.21227C15.4111 6.27428 17.639 5.97539 19.278 6.39443C19.6547 6.49075 20.0002 6.62493 20.3001 6.79808Z" fill="#47A047"/>
<path d="M28.9331 11.9669C29.4076 12.2409 29.4139 12.6841 28.9425 12.958L23.7689 15.9645C23.2976 16.2385 22.5324 16.2363 22.058 15.9623L14.1309 11.3856C15.7709 11.806 17.9962 11.508 19.6131 10.5683C21.2272 9.63031 21.7359 8.33886 21.005 7.38965L28.9331 11.9669ZM22.4637 15.6327C22.6635 15.6149 22.867 15.5503 23.0662 15.4345C23.4274 15.2246 23.5602 14.9694 23.197 14.7597C23.0272 14.6617 22.8387 14.6194 22.6349 14.6395C22.4313 14.6595 22.2317 14.7263 22.0363 14.8399C21.6726 15.0512 21.5333 15.3042 21.8979 15.5146C22.0715 15.6149 22.2601 15.6527 22.4637 15.6327ZM21.2216 14.9156C21.4214 14.8978 21.6249 14.8331 21.8241 14.7174C22.0195 14.6038 22.1304 14.4857 22.1643 14.3678C22.1984 14.2496 22.1284 14.1428 21.9549 14.0426C21.7852 13.9446 21.5966 13.9022 21.3928 13.9224C21.1893 13.9424 20.9896 14.0092 20.7942 14.1228C20.595 14.2385 20.4803 14.3544 20.4501 14.4702C20.4163 14.5882 20.4861 14.6995 20.6558 14.7975C20.8294 14.8977 21.018 14.9356 21.2216 14.9156ZM26.9719 12.5838C27.2535 12.7464 27.7071 12.7464 27.987 12.5838C28.2666 12.4213 28.2652 12.1584 27.9836 11.9959C27.702 11.8333 27.2483 11.8334 26.9686 11.9959C26.6888 12.1585 26.6903 12.4212 26.9719 12.5838ZM23.9824 10.8578C24.2602 11.0182 24.7138 11.0182 24.9936 10.8556C25.2733 10.6931 25.2719 10.4302 24.9942 10.2699C24.7126 10.1073 24.2588 10.1074 23.9791 10.2699C23.6993 10.4325 23.7009 10.6953 23.9824 10.8578ZM25.4758 11.134C25.1959 11.2966 25.1975 11.5594 25.4753 11.7197C25.7568 11.8823 26.2104 11.8823 26.4903 11.7197C26.7699 11.5572 26.7686 11.2943 26.487 11.1318C26.2092 10.9714 25.7554 10.9715 25.4758 11.134ZM19.8764 14.3299L21.1297 13.6016L20.6707 13.3366L20.4829 13.4457L20.7375 13.5927L19.6719 14.2119L19.8764 14.3299Z" fill="#96D696"/>
<path d="M24.1313 7.49277L14.2247 13.2498L10.4902 11.0938L20.3938 5.33496L24.1313 7.49277Z" fill="#E3E7F0"/>
<path d="M19.9984 5.1084L10.0918 10.8654L10.4876 11.094L20.3912 5.33526L19.9984 5.1084Z" fill="#ED5D71"/>
<path d="M24.5174 7.71855L24.1273 7.49316L14.2207 13.2504L14.6174 13.4793L24.5174 7.71855Z" fill="#ED5D71"/>
<path d="M32.1748 14.5101L22.2682 20.2608L22.2676 20.034L32.1742 14.2832L32.1748 14.5101Z" fill="#5FAF5F"/>
<path d="M32.1748 13.9847L22.2682 19.7354L22.2676 19.5089L32.1742 13.7578L32.1748 13.9847Z" fill="#5FAF5F"/>
<path d="M22.2617 17.886L32.1683 12.1289L32.1691 12.4108L22.2625 18.1616L22.2617 17.886Z" fill="#5FAF5F"/>
<path d="M32.1824 16.5615L22.2759 22.3183L22.2754 22.1326L32.1819 16.3818L32.1824 16.5615Z" fill="#5FAF5F"/>
<path d="M32.1767 15.5586L22.2702 21.3093L22.2695 21.0828L32.1761 15.332L32.1767 15.5586Z" fill="#5FAF5F"/>
<path d="M32.1787 16.084L22.2721 21.8351L22.2715 21.6082L32.178 15.8574L32.1787 16.084Z" fill="#5FAF5F"/>
<path d="M32.1767 15.0342L22.2702 20.7853L22.2695 20.5584L32.1761 14.8076L32.1767 15.0342Z" fill="#5FAF5F"/>
<path d="M22.2637 18.4588L32.1703 12.708L32.1709 12.9349L22.2643 18.6853L22.2637 18.4588Z" fill="#5FAF5F"/>
<path d="M32.1702 13.2334L32.1709 13.4599L22.2643 19.2107L22.2637 18.9842L32.1702 13.2334Z" fill="#5FAF5F"/>
<path d="M5.62932 23.1465L0.00674746 15.0977L0.00585938 15.4124L5.62843 23.4612L5.62932 23.1465Z" fill="#47A047"/>
<path d="M5.63708 20.3764L0.01456 12.3271L0.0136719 12.6422L5.6362 20.6911L5.63708 20.3764Z" fill="#47A047"/>
<path d="M5.62932 22.5915L0.00674746 14.543L0.00585938 14.8577L5.62843 22.9066L5.62932 22.5915Z" fill="#47A047"/>
<path d="M5.63686 19.9126L0.0143379 11.8506L0.0136719 12.0872L5.63624 20.136L5.63686 19.9126Z" fill="#47A047"/>
<path d="M5.63318 22.0381L0.0106537 13.9893L0.00976562 14.304L5.63229 22.3528L5.63318 22.0381Z" fill="#47A047"/>
<path d="M5.63322 21.4844L0.0106537 13.4355L0.00976562 13.7503L5.63233 21.7991L5.63322 21.4844Z" fill="#47A047"/>
<path d="M5.63518 20.9297L0.0126068 12.8809L0.0117188 13.196L5.63429 21.2444L5.63518 20.9297Z" fill="#47A047"/>
<path d="M5.62732 23.6995L0.00479433 15.6514L0.00390625 15.9657L5.62643 24.0146L5.62732 23.6995Z" fill="#47A047"/>
<path d="M21.2139 25.7959L21.2116 26.5318C21.2116 26.011 20.8697 25.4947 20.1859 25.1007C19.5043 24.7067 18.6144 24.512 17.7245 24.512C16.8346 24.5097 15.9447 24.7067 15.2677 25.1007C14.5952 25.4924 14.2578 26.0042 14.2578 26.5159L14.2601 25.7778C14.2601 25.2638 14.5975 24.7543 15.27 24.3626C15.947 23.9685 16.8346 23.7715 17.7268 23.7715C18.6167 23.7738 19.5066 23.9685 20.1881 24.3626C20.8742 24.7588 21.2161 25.2774 21.2139 25.7959Z" fill="#EFA143"/>
<path d="M20.193 24.6861C21.5549 25.4724 21.5621 26.7478 20.2091 27.5341C18.8546 28.3212 16.6527 28.3212 15.2909 27.535C13.9276 26.7479 13.9204 25.4725 15.2749 24.6853C16.6279 23.899 18.8297 23.899 20.193 24.6861Z" fill="#FFDD94"/>
<path d="M21.9116 25.821L21.9094 26.396C21.9076 27.0103 21.5041 27.6236 20.6981 28.092C19.074 29.0359 16.434 29.035 14.8008 28.0921C13.9778 27.6169 13.5666 26.9934 13.5684 26.3709L13.5706 25.7959C13.5688 26.4184 13.9801 27.0419 14.8031 27.5171C16.4362 28.46 19.0762 28.4609 20.7004 27.517C21.5064 27.0486 21.9099 26.4353 21.9116 25.821Z" fill="#EFA143"/>
<path d="M20.6808 24.1005C22.3139 25.0434 22.3225 26.5735 20.7001 27.5164C19.0759 28.4603 16.4359 28.4594 14.8028 27.5165C13.1681 26.5727 13.1579 25.0435 14.782 24.0996C16.4045 23.1568 19.0461 23.1567 20.6808 24.1005ZM15.2899 27.2127C16.6517 27.999 18.8536 27.999 20.2081 27.2118C21.5611 26.4256 21.5539 25.1502 20.192 24.3639C18.8287 23.5768 16.6269 23.5768 15.2739 24.3631C13.9194 25.1502 13.9266 26.4256 15.2899 27.2127Z" fill="#FEBB61"/>
<path d="M17.3149 26.9074L18.53 26.1997V26.4735L17.3149 27.1813L17.0345 27.0144L17.0144 26.42C17.0078 26.2997 17.0011 26.213 16.981 26.1462C16.9677 26.0862 16.9276 26.0396 16.8676 26.006C16.8075 25.9728 16.7474 25.9594 16.6673 25.9594C16.5938 25.9594 16.5204 25.9728 16.4603 26.006C16.4269 26.0262 16.4069 26.0461 16.3868 26.0728V26.32L15.8994 26.3933C15.8661 26.32 15.8594 26.2531 15.8594 26.1931V25.9193C15.8594 25.9861 15.8727 26.0526 15.8994 26.1195L16.3534 26.0595V25.9125C16.3534 25.8326 16.3935 25.7791 16.4603 25.7325C16.5204 25.6989 16.5938 25.6855 16.6673 25.6855C16.7474 25.6855 16.8075 25.6989 16.8676 25.7325C16.9276 25.7723 16.9677 25.8192 16.9877 25.8792C17.0011 25.9392 17.0078 26.0262 17.0144 26.1462L17.0345 26.7405L17.3149 26.9074Z" fill="#EFA143"/>
<path d="M17.9434 25.218V24.9445C17.9434 24.891 17.9834 24.8376 18.0635 24.7909C18.1771 24.7241 18.3173 24.7042 18.4775 24.7375C18.6378 24.7642 18.8047 24.831 18.9782 24.9311C19.1518 25.0312 19.2653 25.1248 19.3121 25.218C19.3321 25.2516 19.3388 25.2783 19.3388 25.3051V25.5786C19.3388 25.5519 19.3321 25.5186 19.3121 25.4919C19.2653 25.3986 19.1518 25.3051 18.9782 25.205C18.8047 25.1046 18.6378 25.0381 18.4775 25.0113C18.3173 24.9778 18.1771 24.998 18.0635 25.0648C17.9834 25.1046 17.9434 25.158 17.9434 25.218Z" fill="#EFA143"/>
<path d="M19.8383 25.2648V25.5386C19.8383 25.6719 19.7382 25.7988 19.5379 25.9122C19.2975 26.0524 19.0371 26.1059 18.7567 26.086C18.4763 26.0592 18.1959 25.9657 17.9288 25.8121C17.6551 25.652 17.5015 25.4917 17.4548 25.3316C17.4481 25.3049 17.4414 25.2781 17.4414 25.2514V24.9775C17.4414 25.0043 17.4481 25.031 17.4548 25.0577C17.5015 25.2178 17.6551 25.3782 17.9288 25.5386C18.1959 25.6921 18.4763 25.7854 18.7567 25.8121C19.0438 25.8389 19.2975 25.7789 19.5379 25.6387C19.7382 25.5252 19.8383 25.3984 19.8383 25.2648Z" fill="#EFA143"/>
<path d="M19.8288 25.1903C19.8723 25.3528 19.7754 25.5029 19.5383 25.6407C19.3009 25.7786 19.0421 25.8352 18.7615 25.8106C18.4767 25.7835 18.2001 25.6924 17.9315 25.5374C17.6587 25.3799 17.5005 25.2199 17.4571 25.0575C17.4094 24.8926 17.5063 24.7425 17.7437 24.6046C17.9808 24.4668 18.2396 24.4102 18.5244 24.4372C18.8049 24.4619 19.0817 24.5529 19.3545 24.7105C19.623 24.8655 19.7811 25.0255 19.8288 25.1903ZM18.8067 25.5127C18.9682 25.5423 19.1084 25.5251 19.2228 25.4586C19.337 25.3922 19.3664 25.3109 19.315 25.2174C19.2633 25.1239 19.1524 25.0303 18.9777 24.9294C18.8029 24.8285 18.6367 24.7621 18.4795 24.735C18.3178 24.7055 18.1775 24.7228 18.0634 24.7891C17.9489 24.8556 17.9196 24.9369 17.9712 25.0304C18.0184 25.1215 18.1336 25.2175 18.3083 25.3184C18.4831 25.4193 18.645 25.4833 18.8067 25.5127Z" fill="#FEBB61"/>
<path d="M18.5353 26.2004L17.3198 26.9068L17.0342 26.7419L17.0182 26.1487C17.0132 26.0281 17.0044 25.9394 16.9868 25.8755C16.9697 25.8164 16.9311 25.7696 16.8714 25.7352C16.8118 25.7007 16.7479 25.6835 16.6714 25.6835C16.5949 25.6836 16.5228 25.7008 16.4635 25.7352C16.3576 25.7968 16.3284 25.9026 16.3887 26.0503L15.9005 26.1217C15.8532 26.001 15.8484 25.8951 15.8775 25.8041C15.911 25.7106 15.9998 25.6195 16.148 25.5334C16.2962 25.4472 16.4743 25.3981 16.6868 25.3882C16.8906 25.3784 17.0778 25.4177 17.244 25.5137C17.3335 25.5654 17.3935 25.6293 17.4278 25.7032C17.4666 25.7745 17.4883 25.8853 17.4933 26.0306L17.5082 26.3972L18.19 26.0011L18.5353 26.2004Z" fill="#FEBB61"/>
<path d="M15.2217 26.999L15.2194 27.7349C15.2194 27.2141 14.8775 26.6979 14.1937 26.3038C13.5121 25.9099 12.6222 25.7152 11.7323 25.7152C10.8425 25.7128 9.95255 25.9099 9.27551 26.3038C8.60301 26.6955 8.26562 27.2073 8.26562 27.719L8.26788 26.9809C8.26788 26.4669 8.60528 25.9574 9.27778 25.5657C9.95482 25.1716 10.8425 24.9746 11.7346 24.9746C12.6245 24.9769 13.5144 25.1716 14.1959 25.5657C14.882 25.9619 15.224 26.4805 15.2217 26.999Z" fill="#EFA143"/>
<path d="M14.195 25.8893C15.5568 26.6755 15.564 27.9509 14.211 28.7372C12.8565 29.5243 10.6547 29.5244 9.29281 28.7381C7.92951 27.951 7.92233 26.6756 9.27682 25.8884C10.6298 25.1022 12.8317 25.1022 14.195 25.8893Z" fill="#FFDD94"/>
<path d="M15.9136 27.0232L15.9113 27.5982C15.9096 28.2125 15.5061 28.8258 14.7001 29.2942C13.0759 30.238 10.4359 30.2371 8.80277 29.2942C7.97979 28.8191 7.56855 28.1956 7.57032 27.5731L7.57256 26.998C7.57079 27.6206 7.98203 28.2441 8.80501 28.7192C10.4382 29.6621 13.0782 29.663 14.7023 28.7192C15.5083 28.2508 15.9118 27.6374 15.9136 27.0232Z" fill="#EFA143"/>
<path d="M14.6808 25.3037C16.3139 26.2466 16.3225 27.7767 14.7001 28.7195C13.0759 29.6634 10.4359 29.6625 8.80277 28.7196C7.16808 27.7758 7.1579 26.2466 8.78203 25.3028C10.4045 24.3599 13.0461 24.3599 14.6808 25.3037ZM9.28987 28.4159C10.6517 29.2021 12.8536 29.2021 14.2081 28.415C15.5611 27.6287 15.5539 26.3533 14.192 25.567C12.8287 24.7799 10.6269 24.7799 9.27387 25.5662C7.91938 26.3534 7.92656 27.6288 9.28987 28.4159Z" fill="#FEBB61"/>
<path d="M11.7966 27.9397L12.1705 27.7258V27.9932L11.7966 28.2132L10.3945 27.3988L10.0674 27.5925L9.74023 27.3988V27.1318L10.0674 27.3186L10.3945 27.1318L11.7966 27.9397Z" fill="#EFA143"/>
<path d="M13.2586 27.3852C13.0249 27.5254 12.7578 27.5788 12.4774 27.5586C12.197 27.5319 11.9232 27.4386 11.6495 27.2848C11.3757 27.1247 11.2155 26.9646 11.1754 26.8042C11.1688 26.7775 11.1621 26.7508 11.1621 26.724V26.457C11.1621 26.4769 11.1688 26.5036 11.1754 26.5304C11.2155 26.6908 11.3757 26.8509 11.6495 27.0112C11.9232 27.1648 12.197 27.2584 12.4774 27.2848C12.7578 27.305 13.0249 27.2515 13.2586 27.1179C13.4655 26.9979 13.559 26.8711 13.559 26.7374V27.0112C13.559 27.1446 13.4655 27.2717 13.2586 27.3852Z" fill="#EFA143"/>
<path d="M11.6641 26.691V26.424C11.6641 26.3637 11.7108 26.3102 11.7842 26.2636C11.9044 26.1968 12.0446 26.1769 12.1982 26.2101C12.3584 26.2369 12.532 26.3037 12.6989 26.3973C12.8792 26.5039 12.986 26.5974 13.0395 26.691C13.0595 26.7243 13.0661 26.751 13.0661 26.7777V27.0447C13.0661 27.018 13.0528 26.9916 13.0395 26.9648C12.986 26.8713 12.8725 26.7712 12.6989 26.6708C12.532 26.5707 12.3584 26.5107 12.1982 26.4771C12.038 26.4504 11.9044 26.4706 11.7842 26.5375C11.7041 26.5841 11.6641 26.6375 11.6641 26.691Z" fill="#EFA143"/>
<path d="M13.5502 26.661C13.5934 26.8235 13.5008 26.9761 13.2596 27.1163C13.0222 27.2543 12.7591 27.3084 12.4786 27.2838C12.198 27.2591 11.9213 27.1681 11.6485 27.0106C11.3757 26.853 11.2176 26.6931 11.1741 26.5307C11.1307 26.3682 11.2276 26.2181 11.4649 26.0802C11.7062 25.94 11.965 25.8834 12.2458 25.9079C12.5263 25.9325 12.803 26.0236 13.0758 26.1811C13.3487 26.3386 13.5068 26.4986 13.5502 26.661ZM12.528 26.9884C12.6895 27.018 12.8254 26.9982 12.9398 26.9317C13.0584 26.8628 13.0918 26.7842 13.0363 26.693C12.9846 26.5996 12.8736 26.5011 12.6988 26.4002C12.5283 26.3018 12.358 26.2378 12.1965 26.2081C12.0389 26.1763 11.9032 26.1959 11.7846 26.2648C11.6702 26.3313 11.6366 26.4101 11.6882 26.5035C11.744 26.5946 11.8551 26.693 12.0255 26.7914C12.2003 26.8923 12.3707 26.9563 12.528 26.9884Z" fill="#FEBB61"/>
<path d="M12.1739 27.7224L11.8012 27.939L10.3945 27.1268L10.0685 27.3163L9.74023 27.1268L10.439 26.7207L12.1739 27.7224Z" fill="#FEBB61"/>
</svg>
