<svg width="25" height="24" viewBox="0 0 25 24" fill="none" xmlns="http://www.w3.org/2000/svg">
<g id="icon/menu tab/draw or matches">
<path id="Vector" d="M21.1991 5.86916C21.1539 5.80135 21.0774 5.7544 20.9696 5.7544H18.7753C18.6901 5.17887 18.5684 4.75983 18.5179 4.60161C18.5736 4.54075 18.6292 4.48163 18.6849 4.42252C18.7736 4.32862 18.7788 4.18083 18.6849 4.08694C18.6553 4.05738 18.6188 4.03825 18.5788 4.02608C18.5475 4.01043 18.511 4 18.4693 4H7.54815C7.50468 4 7.46817 4.00869 7.43861 4.02608C7.39861 4.03651 7.3621 4.05738 7.33254 4.08694C7.23865 4.18083 7.24387 4.32862 7.33254 4.42252C7.38818 4.48163 7.44382 4.54249 7.49946 4.60161C7.44904 4.75983 7.32906 5.17714 7.24213 5.7544H5.05478C4.95741 5.7544 4.88612 5.79265 4.83917 5.85003C4.78179 5.90393 4.74528 5.97696 4.75049 6.05694C4.86177 7.54706 5.43556 8.9624 6.37797 10.1204C7.36906 11.3375 8.74615 12.2225 10.2589 12.626C10.1876 12.8868 10.1563 13.2988 10.5805 13.471C10.8692 13.5892 11.1873 13.7283 11.3977 13.9665C11.622 14.2204 11.5403 14.5021 11.3108 14.7211C11.2239 14.8046 11.196 14.8794 11.2239 14.9976L11.8011 18.2473H11.25C11.1439 18.2473 10.9787 18.2891 10.8848 18.3412L9.86589 18.8994C9.77201 18.9515 9.69549 19.0802 9.69549 19.1862V19.8053C9.69549 19.9131 9.78243 20 9.89023 20H16.1324C16.2402 20 16.3271 19.9131 16.3271 19.8053L16.3253 19.1793C16.3253 19.0645 16.261 18.9585 16.1602 18.9028C15.9011 18.7603 15.3969 18.4855 15.1343 18.3412C15.0404 18.2891 14.877 18.2473 14.7692 18.2473H14.2214C14.2214 18.2473 14.797 15.0115 14.7987 14.9976C14.8144 14.9107 14.8196 14.8324 14.7587 14.7629C14.6961 14.6916 14.6231 14.636 14.5709 14.556C14.4962 14.4395 14.4597 14.3039 14.5031 14.17C14.5935 13.8866 14.9222 13.7127 15.1691 13.5927C15.2578 13.5493 15.3499 13.5093 15.4421 13.471C15.8646 13.2989 15.8333 12.8868 15.7637 12.626C17.2764 12.2208 18.6535 11.3376 19.6446 10.1204C20.587 8.96242 21.1608 7.54707 21.2721 6.05696C21.2739 5.98739 21.2443 5.92132 21.1991 5.86916ZM8.27496 10.9428C7.97068 10.7411 7.78464 10.5968 7.51513 10.3551C7.35169 10.2073 7.19346 10.0543 7.04219 9.89263C6.96394 9.80917 6.88744 9.72397 6.81441 9.63704C6.77964 9.59704 6.7466 9.55705 6.71356 9.51532C6.69618 9.49446 6.68053 9.47359 6.66488 9.45447C6.66314 9.45099 6.64227 9.42491 6.63532 9.41621C6.37277 9.07194 6.13978 8.70506 5.94503 8.31906C5.89287 8.21647 5.84419 8.11389 5.79724 8.00956C5.78681 7.98522 5.77638 7.96088 5.76594 7.93654C5.7642 7.93306 5.74856 7.89307 5.74508 7.88785C5.72769 7.84612 5.7103 7.80439 5.69465 7.76092C5.61467 7.55401 5.54338 7.34536 5.48427 7.13323C5.42515 6.91937 5.37299 6.70202 5.33473 6.48294C5.32604 6.43425 5.31908 6.38557 5.31039 6.33688H7.0874C7.00394 7.83743 7.29952 9.88742 9.09218 11.4088C8.80874 11.2715 8.53578 11.1167 8.27496 10.9428ZM15.7133 7.38883L14.1224 8.5451L14.731 10.416C14.7744 10.5481 14.717 10.5881 14.6058 10.5064L13.0148 9.35014L11.4221 10.5082C11.3108 10.5899 11.2534 10.5481 11.2969 10.4177L11.9055 8.54684L10.3145 7.39057C10.2032 7.30885 10.2241 7.24277 10.3632 7.24277H12.3315L12.94 5.37188C12.9835 5.23973 13.0513 5.23973 13.0948 5.37188L13.7034 7.24277H15.6716C15.8038 7.24103 15.8264 7.30711 15.7133 7.38883ZM20.5314 6.48294C20.4932 6.70202 20.4428 6.91937 20.3819 7.13323C20.3228 7.34536 20.2515 7.55575 20.1715 7.76092C20.1559 7.80265 20.1385 7.84612 20.1211 7.88785C20.1193 7.89307 20.1019 7.93306 20.1002 7.93654C20.0898 7.96088 20.0794 7.98522 20.0689 8.00956C20.022 8.11389 19.9733 8.21647 19.9211 8.31906C19.7264 8.70506 19.4934 9.07194 19.2308 9.41621C19.2239 9.42491 19.203 9.45273 19.2013 9.45447C19.1856 9.47533 19.1683 9.4962 19.1526 9.51532C19.1195 9.55705 19.0865 9.59704 19.0518 9.63704C18.9787 9.72397 18.9022 9.80917 18.8239 9.89263C18.6744 10.0543 18.5162 10.2073 18.351 10.3551C18.0815 10.5968 17.8937 10.7394 17.5912 10.9428C17.3304 11.1167 17.0574 11.2715 16.7757 11.4106C18.5666 9.8874 18.8622 7.83743 18.777 6.33688H20.554C20.5471 6.38557 20.5384 6.43425 20.5314 6.48294Z" fill="currentColor"/>
</g>
</svg>
