<svg width="20" height="20" viewBox="0 0 20 20" fill="none" xmlns="http://www.w3.org/2000/svg">
    <path d="M17.041 4.89064C17.0033 4.83413 16.9395 4.79501 16.8497 4.79501H15.0211C14.9501 4.3154 14.8487 3.9662 14.8067 3.83435C14.853 3.78363 14.8994 3.73437 14.9458 3.68511C15.0197 3.60686 15.024 3.4837 14.9458 3.40546C14.9211 3.38082 14.8907 3.36488 14.8574 3.35474C14.8313 3.3417 14.8009 3.33301 14.7661 3.33301H5.66516C5.62894 3.33301 5.59851 3.34025 5.57388 3.35474C5.54055 3.36344 5.51013 3.38082 5.48549 3.40546C5.40725 3.4837 5.4116 3.60686 5.48549 3.68511C5.53186 3.73437 5.57823 3.78508 5.62459 3.83435C5.58257 3.9662 5.48259 4.31395 5.41015 4.79501H3.58735C3.50621 4.79501 3.4468 4.82689 3.40768 4.8747C3.35987 4.91962 3.32944 4.98048 3.33379 5.04713C3.42652 6.28889 3.90468 7.46834 4.69001 8.43335C5.51592 9.44762 6.6635 10.1851 7.92409 10.5213C7.86467 10.7386 7.83861 11.082 8.19215 11.2255C8.43268 11.324 8.69782 11.44 8.87316 11.6385C9.06006 11.85 8.99198 12.0847 8.80071 12.2673C8.72827 12.3368 8.70507 12.3992 8.72827 12.4977L9.20932 15.2058H8.75C8.6616 15.2058 8.52395 15.2406 8.44572 15.284L7.59661 15.7491C7.51838 15.7926 7.45462 15.8998 7.45462 15.9882V16.5041C7.45462 16.5939 7.52706 16.6663 7.6169 16.6663H12.8187C12.9085 16.6663 12.981 16.5939 12.981 16.5041L12.9795 15.9824C12.9795 15.8868 12.9259 15.7984 12.8418 15.752C12.626 15.6332 12.2058 15.4043 11.987 15.284C11.9087 15.2406 11.7725 15.2058 11.6827 15.2058H11.2262C11.2262 15.2058 11.7059 12.5093 11.7073 12.4977C11.7203 12.4252 11.7247 12.36 11.674 12.3021C11.6218 12.2427 11.561 12.1963 11.5175 12.1297C11.4552 12.0326 11.4248 11.9196 11.461 11.808C11.5363 11.5718 11.8102 11.4269 12.0159 11.327C12.0898 11.2907 12.1666 11.2574 12.2434 11.2255C12.5955 11.0821 12.5694 10.7387 12.5115 10.5213C13.7721 10.1837 14.9196 9.44764 15.7456 8.43336C16.5309 7.46836 17.009 6.2889 17.1018 5.04714C17.1033 4.98917 17.0786 4.93411 17.041 4.89064ZM6.27084 9.11871C6.01728 8.95063 5.86224 8.83036 5.63765 8.62896C5.50145 8.5058 5.36959 8.37829 5.24353 8.24353C5.17833 8.17398 5.11457 8.10299 5.05372 8.03054C5.02474 7.99721 4.99721 7.96389 4.96968 7.92911C4.95519 7.91172 4.94215 7.89434 4.92911 7.8784C4.92766 7.8755 4.91027 7.85376 4.90447 7.84652C4.68568 7.55963 4.49152 7.25389 4.32924 6.93222C4.28577 6.84674 4.2452 6.76125 4.20607 6.67431C4.19738 6.65402 4.18869 6.63374 4.17999 6.61345C4.17854 6.61056 4.1655 6.57723 4.16261 6.57288C4.14812 6.53811 4.13363 6.50333 4.12059 6.46711C4.05393 6.29468 3.99453 6.12081 3.94526 5.94403C3.896 5.76581 3.85253 5.58469 3.82065 5.40212C3.81341 5.36155 3.80761 5.32098 3.80037 5.28041H5.2812C5.21165 6.53086 5.45798 8.23919 6.95186 9.50703C6.71566 9.39256 6.48819 9.2636 6.27084 9.11871ZM12.4695 6.15703L11.1437 7.12059L11.6508 8.67967C11.6871 8.78979 11.6392 8.8231 11.5465 8.75502L10.2207 7.79146L8.89345 8.75647C8.80073 8.82457 8.75291 8.78979 8.78914 8.68112L9.29627 7.12204L7.97047 6.15848C7.87774 6.09038 7.89513 6.03532 8.01105 6.03532H9.65127L10.1584 4.47624C10.1946 4.36612 10.2511 4.36612 10.2874 4.47624L10.7945 6.03532H12.4347C12.5448 6.03387 12.5637 6.08893 12.4695 6.15703ZM16.4846 5.40212C16.4527 5.58469 16.4107 5.76581 16.36 5.94403C16.3107 6.12081 16.2513 6.29613 16.1846 6.46711C16.1716 6.50188 16.1571 6.53811 16.1426 6.57288C16.1411 6.57723 16.1266 6.61056 16.1252 6.61345C16.1165 6.63374 16.1078 6.65402 16.0991 6.67431C16.06 6.76125 16.0195 6.84674 15.976 6.93222C15.8137 7.25389 15.6195 7.55963 15.4007 7.84652C15.3949 7.85376 15.3775 7.87695 15.3761 7.8784C15.3631 7.89578 15.3486 7.91317 15.3355 7.92911C15.308 7.96389 15.2805 7.99721 15.2515 8.03054C15.1906 8.10299 15.1269 8.17398 15.0617 8.24353C14.937 8.37829 14.8052 8.5058 14.6676 8.62896C14.443 8.83035 14.2865 8.94918 14.0344 9.11871C13.817 9.2636 13.5895 9.39256 13.3548 9.50848C14.8472 8.23917 15.0936 6.53086 15.0226 5.28041H16.5034C16.4976 5.32098 16.4904 5.36155 16.4846 5.40212Z"
          fill="url(#paint0_linear_464_28060)"/>
    <defs>
        <linearGradient id="paint0_linear_464_28060" x1="10.2176" y1="3.33301" x2="10.2176" y2="16.6663"
                        gradientUnits="userSpaceOnUse">
            <stop stop-color="white"/>
            <stop offset="1" stop-color="#70B3FF"/>
        </linearGradient>
    </defs>
</svg>
