<svg width="20" height="20" viewBox="0 0 20 20" fill="none" xmlns="http://www.w3.org/2000/svg">
    <path fill-rule="evenodd" clip-rule="evenodd"
          d="M3.17387 5C1.88125 5 0.833374 6.04787 0.833374 7.34049V13.1917C0.833374 14.4843 1.88125 15.5322 3.17387 15.5322H16.8262C18.1188 15.5322 19.1667 14.4843 19.1667 13.1917V7.34049C19.1667 6.04788 18.1188 5 16.8262 5H3.17387ZM2.82429 12.1148V13.0352H7.16347V11.875H4.82758L4.98228 11.7512C5.41027 11.4367 5.78153 11.1453 6.09608 10.8772C6.41578 10.6039 6.66071 10.3229 6.83088 10.0341C7.0062 9.74536 7.09386 9.42566 7.09386 9.07502C7.09386 8.70375 6.99846 8.38147 6.80767 8.10818C6.61688 7.82973 6.36164 7.61573 6.04193 7.4662C5.72223 7.3115 5.36644 7.23415 4.97454 7.23415C4.53624 7.23415 4.15208 7.32697 3.82207 7.5126C3.49721 7.69824 3.24454 7.94833 3.06407 8.26287C2.88359 8.57226 2.79335 8.91775 2.79335 9.29933H4.07732C4.07732 9.14979 4.10825 9.00541 4.17013 8.86618C4.23717 8.72696 4.33256 8.61351 4.45632 8.52585C4.58523 8.43819 4.74508 8.39436 4.93587 8.39436C5.06994 8.39436 5.19885 8.42272 5.32261 8.47944C5.44636 8.53617 5.54949 8.62383 5.63199 8.74243C5.7145 8.85587 5.75575 8.99767 5.75575 9.16784C5.75575 9.39988 5.67582 9.61903 5.51597 9.82529C5.35612 10.0264 5.12408 10.2481 4.81985 10.4905C4.52077 10.7328 4.15466 11.0293 3.72152 11.38L2.82429 12.1148ZM16.0374 7.3115V13.0352H14.6992V9.05181H13.5854V8.23967L13.7556 8.18553C14.0959 8.09787 14.3718 7.99216 14.5832 7.8684C14.7998 7.73949 15.0061 7.57448 15.202 7.37338L15.2561 7.3115H16.0374ZM10.0954 9.27334C10.2088 9.39194 10.3532 9.45124 10.5285 9.45124C10.7038 9.45124 10.8482 9.39194 10.9617 9.27334C11.0803 9.15475 11.1396 9.01294 11.1396 8.84793C11.1396 8.67777 11.0803 8.53339 10.9617 8.41479C10.8482 8.29619 10.7038 8.23689 10.5285 8.23689C10.3532 8.23689 10.2088 8.29619 10.0954 8.41479C9.98194 8.53339 9.92521 8.67777 9.92521 8.84793C9.92521 9.01294 9.98194 9.15475 10.0954 9.27334ZM10.0954 12.3131C10.2088 12.4317 10.3532 12.491 10.5285 12.491C10.7038 12.491 10.8482 12.4317 10.9617 12.3131C11.0803 12.1945 11.1396 12.0501 11.1396 11.8799C11.1396 11.7149 11.0803 11.5731 10.9617 11.4545C10.8482 11.3359 10.7038 11.2766 10.5285 11.2766C10.3532 11.2766 10.2088 11.3359 10.0954 11.4545C9.98194 11.5731 9.92521 11.7149 9.92521 11.8799C9.92521 12.045 9.98194 12.1893 10.0954 12.3131Z"
          fill="url(#paint0_linear_464_28054)"/>
    <defs>
        <linearGradient id="paint0_linear_464_28054" x1="10" y1="5" x2="10" y2="15.5322" gradientUnits="userSpaceOnUse">
            <stop stop-color="white"/>
            <stop offset="1" stop-color="#70B3FF"/>
        </linearGradient>
    </defs>
</svg>
