<svg width="20" height="20" viewBox="0 0 20 20" fill="none" xmlns="http://www.w3.org/2000/svg">
    <path d="M3.72959 13.9997H14.1C14.193 13.9997 14.2829 13.9633 14.3542 13.8969C14.4538 13.8034 16.726 11.6142 16.8645 6.88858H5.72691C5.58889 11.1782 3.49634 13.1945 3.47459 13.2146C3.34711 13.3352 3.3002 13.5323 3.35756 13.7076C3.41451 13.8825 3.56295 13.9997 3.72959 13.9997Z"
          fill="url(#paint0_linear_464_28056)"/>
    <path d="M16.481 4.2219H14.4968V3.77745C14.4968 3.52856 14.3222 3.33301 14.1 3.33301C13.8778 3.33301 13.7032 3.52856 13.7032 3.77745V4.2219H11.6926V3.77745C11.6926 3.52856 11.518 3.33301 11.2958 3.33301C11.0735 3.33301 10.8989 3.52856 10.8989 3.77745V4.2219H8.91479V3.77745C8.91479 3.52856 8.74018 3.33301 8.51796 3.33301C8.29573 3.33301 8.12113 3.52856 8.12113 3.77745V4.2219H6.13699C5.91477 4.2219 5.74017 4.41746 5.74017 4.66635V5.99969H16.8778V4.66635C16.8778 4.41746 16.7032 4.2219 16.481 4.2219Z"
          fill="url(#paint1_linear_464_28056)"/>
    <path d="M14.8638 14.5782C14.6483 14.7792 14.3779 14.8886 14.1 14.8886H5.74017V16.2219C5.74017 16.4676 5.91765 16.6663 6.13699 16.6663H16.481C16.7003 16.6663 16.8778 16.4676 16.8778 16.2219V11.2398C16.1127 13.342 15.0451 14.4083 14.8638 14.5782Z"
          fill="url(#paint2_linear_464_28056)"/>
    <defs>
        <linearGradient id="paint0_linear_464_28056" x1="10.1056" y1="3.33301" x2="10.1056" y2="16.6663"
                        gradientUnits="userSpaceOnUse">
            <stop stop-color="white"/>
            <stop offset="1" stop-color="#70B3FF"/>
        </linearGradient>
        <linearGradient id="paint1_linear_464_28056" x1="10.1056" y1="3.33301" x2="10.1056" y2="16.6663"
                        gradientUnits="userSpaceOnUse">
            <stop stop-color="white"/>
            <stop offset="1" stop-color="#70B3FF"/>
        </linearGradient>
        <linearGradient id="paint2_linear_464_28056" x1="10.1056" y1="3.33301" x2="10.1056" y2="16.6663"
                        gradientUnits="userSpaceOnUse">
            <stop stop-color="white"/>
            <stop offset="1" stop-color="#70B3FF"/>
        </linearGradient>
    </defs>
</svg>
