<svg width="20" height="20" viewBox="0 0 20 20" fill="none" xmlns="http://www.w3.org/2000/svg">
    <path d="M11.0235 6.87533C10.952 6.87533 10.8805 6.85442 10.8183 6.81213L9.89657 6.185L8.97483 6.81213C8.84989 6.89769 8.6846 6.89672 8.56063 6.80921C8.43666 6.72268 8.37881 6.56808 8.41625 6.42078L8.70648 5.27687L7.83675 4.53453C7.72348 4.4373 7.68021 4.28173 7.72834 4.14075C7.77598 3.99928 7.90433 3.90156 8.05309 3.89281L9.15422 3.83059L9.55481 2.73918C9.60683 2.59528 9.74392 2.5 9.89657 2.5C10.0492 2.5 10.1863 2.59528 10.2388 2.73918L10.6394 3.83059L11.7405 3.89281C11.8893 3.90156 12.0177 3.99928 12.0653 4.14075C12.1129 4.28173 12.0702 4.4373 11.9569 4.53453L11.0872 5.27736L11.3774 6.42126C11.4148 6.56857 11.357 6.72268 11.233 6.8097C11.1698 6.85345 11.0964 6.87533 11.0235 6.87533Z"
          fill="url(#paint0_linear_574_24842)"/>
    <path d="M16.0445 13.8976H13.414V16.2512C13.414 16.3952 13.3863 16.5392 13.342 16.6666H16.0445C16.2716 16.6666 16.4599 16.4783 16.4599 16.2512V14.3129C16.4599 14.0859 16.2716 13.8976 16.0445 13.8976Z"
          fill="url(#paint1_linear_574_24842)"/>
    <path d="M6.37926 12.7901H3.74872C3.52167 12.7901 3.33337 12.9784 3.33337 13.2054V16.2513C3.33337 16.4784 3.52167 16.6667 3.74872 16.6667H6.45125C6.40695 16.5393 6.37926 16.3953 6.37926 16.2513V12.7901Z"
          fill="url(#paint2_linear_574_24842)"/>
    <path d="M12.5002 7.75088H7.29327C7.03966 7.75088 6.83384 7.97707 6.83384 8.25576V15.9972C6.83384 16.2759 7.03966 16.502 7.29327 16.502H12.5002C12.7538 16.502 12.9596 16.2759 12.9596 15.9972V8.25576C12.9596 7.97707 12.7538 7.75088 12.5002 7.75088ZM10.3562 13.3045C10.3562 13.5832 10.1503 13.8094 9.89674 13.8094C9.64313 13.8094 9.43731 13.5832 9.43731 13.3045V11.3247C9.34358 11.2325 9.28416 11.0979 9.28416 10.9484C9.28416 10.6697 9.48999 10.4435 9.7436 10.4435H9.89674C10.1503 10.4435 10.3562 10.6697 10.3562 10.9484V13.3045Z"
          fill="url(#paint3_linear_574_24842)"/>
    <defs>
        <linearGradient id="paint0_linear_574_24842" x1="9.89663" y1="2.5" x2="9.89663" y2="16.6667"
                        gradientUnits="userSpaceOnUse">
            <stop stop-color="white"/>
            <stop offset="1" stop-color="#70B3FF"/>
        </linearGradient>
        <linearGradient id="paint1_linear_574_24842" x1="9.89663" y1="2.5" x2="9.89663" y2="16.6667"
                        gradientUnits="userSpaceOnUse">
            <stop stop-color="white"/>
            <stop offset="1" stop-color="#70B3FF"/>
        </linearGradient>
        <linearGradient id="paint2_linear_574_24842" x1="9.89663" y1="2.5" x2="9.89663" y2="16.6667"
                        gradientUnits="userSpaceOnUse">
            <stop stop-color="white"/>
            <stop offset="1" stop-color="#70B3FF"/>
        </linearGradient>
        <linearGradient id="paint3_linear_574_24842" x1="9.89663" y1="2.5" x2="9.89663" y2="16.6667"
                        gradientUnits="userSpaceOnUse">
            <stop stop-color="white"/>
            <stop offset="1" stop-color="#70B3FF"/>
        </linearGradient>
    </defs>
</svg>
