<svg width="39" height="33" viewBox="0 0 39 33" fill="none" xmlns="http://www.w3.org/2000/svg">
<path d="M35.7467 0.20293C37.0949 0.20293 38.2146 1.23125 38.3365 2.57188C38.3441 2.64805 38.3518 2.72422 38.3518 2.80801V23.6105C38.3518 25.0502 37.1863 26.208 35.7543 26.208H17.5492C17.5492 26.208 8.84277 32.4389 8.83516 32.4465C8.62188 32.5988 8.36289 32.6902 8.10391 32.6979C8.09629 32.7055 8.08105 32.7055 8.07344 32.6979C8.04297 32.7055 8.0125 32.7055 7.98203 32.7055C7.50215 32.6902 7.06035 32.4541 6.77852 32.0656C6.77852 32.0656 6.7709 32.058 6.7709 32.0504C6.5957 31.8143 6.5043 31.5248 6.5043 31.2277V26.2004H3.25176C1.81211 26.2004 0.654297 25.035 0.654297 23.6029V2.80039C0.654297 2.72422 0.661914 2.64805 0.669531 2.56426C0.791406 1.22363 1.91113 0.195312 3.25937 0.195312H35.7467V0.20293Z" fill="#FADC75"/>
</svg>
