<svg width="19" height="18" viewBox="0 0 19 18" fill="none" xmlns="http://www.w3.org/2000/svg">
<g id="Group">
<path id="Vector" d="M9.39495 0.773438C6.2855 0.773438 3.5612 2.42129 2.04688 4.89116L5.32552 16.9795C6.53747 17.6304 7.92298 18 9.39495 18C14.1519 18 18.0082 14.1437 18.0082 9.38672C18.0082 4.62974 14.1519 0.773438 9.39495 0.773438Z" fill="#0033CC"/>
<path id="Vector_2" d="M9.53843 4.0072C9.32194 3.01934 8.40629 1.69144 7.82168 0.917969C5.88389 1.27547 4.1735 2.28168 2.92383 3.70295C3.89196 4.06352 4.98589 4.84163 6.6702 5.64777C9.24734 6.88127 9.81075 5.24959 9.53843 4.0072Z" fill="#0033CC"/>
<path id="Vector_3" d="M16.0747 2.32399C15.8403 1.41221 15.1811 1.25327 14.8554 1.23211C14.7119 1.22276 14.5723 1.18373 14.4445 1.11764C13.8751 0.823133 12.3929 0.0677276 12.0494 0.0036375C11.5308 -0.0930426 9.71146 1.76146 9.88724 2.71068C9.88724 2.71068 10.0193 3.33864 10.4903 3.43627C10.5677 3.4523 10.6359 3.49741 10.6777 3.56449C10.7816 3.73099 11.0249 4.01108 11.4582 3.93964C11.5591 3.92305 11.6622 3.95631 11.7277 4.03474C11.8571 4.18974 12.1261 4.40156 12.5746 4.27496C12.6313 4.25897 12.6912 4.25949 12.7466 4.27964C12.9306 4.34661 13.3937 4.46558 13.8229 4.17589C13.823 4.17586 13.8231 4.17586 13.8232 4.17579C14.1016 4.08652 14.1767 4.31096 14.1767 4.31096C14.6085 6.64218 13.781 7.93249 13.5527 8.23498C13.5368 8.26001 13.5184 8.28367 13.4966 8.30487C13.2234 8.57069 12.6902 9.20044 12.5393 10.182C12.5087 10.3807 12.2486 10.4366 12.1372 10.2693C11.1885 8.37181 9.06163 8.12406 7.84121 8.15141C7.87049 8.23702 7.88698 8.32733 7.88927 8.41944C7.91971 9.63807 7.86511 13.5864 6.07713 16.5694C6.02664 16.6536 5.96326 16.7272 5.89062 16.7889C6.56717 16.8257 7.32683 16.7683 8.16099 16.5587C8.31824 16.5192 8.48432 16.5389 8.62906 16.6119C9.29063 16.9455 11.3742 17.7846 13.7654 16.5958C14.011 16.4737 14.2912 16.4413 14.5596 16.498C15.1932 16.6318 16.3777 16.71 16.7075 15.5428C16.7075 15.5428 18.2193 13.0467 18.2193 9.9529C18.2193 6.85913 16.3911 3.55447 16.0747 2.32399Z" fill="#F9BA8F"/>
<path id="Vector_4" d="M7.96454 11.3203C7.92428 11.3203 7.83745 11.3676 7.72055 11.4464C7.50807 13.0443 7.04843 14.9494 6.07713 16.5699C6.02665 16.6541 5.96326 16.7277 5.89062 16.7894C6.56717 16.8262 7.32683 16.7689 8.16099 16.5592C8.31824 16.5197 8.48432 16.5394 8.62906 16.6124C7.99069 14.3575 10.0277 13.6416 10.0277 13.6416L9.42571 11.3203C9.42578 11.3203 8.21277 11.3203 7.96454 11.3203Z" fill="#F9BA8F"/>
<path id="Vector_5" d="M15.5011 4.03194C14.88 3.41083 13.8225 4.17703 13.8225 4.17703C14.1009 4.08776 14.176 4.3122 14.176 4.3122C14.6078 6.64342 13.7803 7.93373 13.552 8.23622C13.5361 8.26125 13.5177 8.28491 13.4959 8.30611C13.2227 8.57193 12.6895 9.20168 12.5386 10.1833C12.508 10.3819 12.2478 10.4379 12.1365 10.2705C11.1878 8.37305 9.0609 8.1253 7.84048 8.15265C7.86976 8.23826 7.88625 8.32857 7.88854 8.42068C7.90766 9.18674 7.89307 11.0315 7.43555 13.037C9.66938 13.8922 11.8641 13.0136 11.8641 13.0136C13.2309 13.4639 13.8225 12.5614 13.8225 12.5614C16.9883 12.0877 16.1222 4.65301 15.5011 4.03194Z" fill="#F9BA8F"/>
<g id="Group_2">
<path id="Vector_6" d="M7.11151 13.0574C6.98382 12.9874 6.93713 12.8271 7.00716 12.6994C7.07719 12.5717 7.23751 12.525 7.36516 12.5951C8.50307 13.2194 9.90668 13.2996 11.5369 12.8336C11.6767 12.7936 11.8229 12.8747 11.8629 13.0147C11.9029 13.1547 11.8219 13.3007 11.6818 13.3407C10.1399 13.7814 8.5281 13.8346 7.11151 13.0574Z" fill="#FD995B"/>
</g>
<path id="Vector_7" d="M7.67087 7.78273C7.37882 7.51364 7.07739 7.26642 6.77086 7.03906C6.78848 7.11036 6.79874 7.1838 6.80064 7.25833C6.8352 8.64153 6.77325 13.1231 4.74378 16.509C4.72536 16.5398 4.7049 16.5688 4.68359 16.597C4.90388 16.7411 5.13113 16.8754 5.36478 16.9993C5.68313 17.0041 5.98157 16.8409 6.14554 16.5674C7.93352 13.5844 7.98812 9.63607 7.95767 8.41747C7.95163 8.17588 7.84858 7.94652 7.67087 7.78273Z" fill="#DAE2FE"/>
<path id="Vector_8" d="M7.3662 12.7877C6.83337 12.9537 6.58626 12.6599 6.4784 12.4331C6.44767 12.3685 6.39522 12.3204 6.33317 12.293C6.02935 13.7003 5.53673 15.1906 4.74378 16.5135C4.72536 16.5443 4.7049 16.5733 4.68359 16.6015C4.90385 16.7457 5.1311 16.8799 5.36478 17.0038C5.68313 17.0087 5.98157 16.8454 6.14554 16.5719C6.8558 15.3869 7.29237 14.0497 7.55889 12.7917C7.4985 12.7699 7.43096 12.7675 7.3662 12.7877Z" fill="#BEC8F7"/>
<path id="Vector_9" d="M6.83659 7.08902C5.18656 5.84705 3.37839 5.19145 2.071 4.85156C1.25368 6.1687 0.78125 7.72226 0.78125 9.38638C0.78125 12.424 2.35383 15.0941 4.7291 16.6276C4.75079 16.5988 4.77157 16.569 4.79034 16.5377C6.83567 13.1254 6.88753 8.57265 6.85476 7.25858C6.85332 7.20142 6.84706 7.14471 6.83659 7.08902Z" fill="#F6B500"/>
<path id="Vector_10" d="M6.14336 12.2737C2.5128 13.1344 0.890293 9.90558 0.787109 9.69141C0.888043 12.6027 2.4338 15.1467 4.72958 16.6289C4.75127 16.6 4.77205 16.5703 4.79082 16.539C5.58283 15.2176 6.07576 13.7254 6.38077 12.3164C6.3131 12.2709 6.22703 12.2539 6.14336 12.2737Z" fill="#F6B500"/>
</g>
</svg>
