<svg width="28" height="28" viewBox="0 0 28 28" fill="none" xmlns="http://www.w3.org/2000/svg">
<path d="M28 14C28 6.26801 21.732 0 14 0C6.26801 0 0 6.26801 0 14C0 21.732 6.26801 28 14 28C21.732 28 28 21.732 28 14Z" fill="#2187E5"/>
<path d="M21.9505 16.3598C21.8452 16.1027 21.5971 15.9473 21.3346 15.947L21.3306 15.9467C21.3263 15.9467 21.3226 15.9483 21.3183 15.9487C21.2669 15.95 21.2156 15.9583 21.1646 15.972C21.1456 15.977 21.1275 15.982 21.1092 15.9883C21.0999 15.9917 21.0902 15.993 21.0805 15.9967C20.2439 16.3405 19.3552 16.5149 18.4385 16.5149C14.6047 16.5149 11.4855 13.3957 11.4855 9.56187C11.4855 8.64518 11.6596 7.7565 12.0037 6.91985C12.0087 6.90818 12.0104 6.89584 12.0144 6.88383C12.0194 6.86916 12.0237 6.85449 12.0277 6.83915C12.0427 6.78413 12.052 6.72877 12.0527 6.67342C12.0527 6.67108 12.0537 6.66875 12.0537 6.66608L12.0534 6.66375C12.0534 6.62373 12.0487 6.58438 12.0414 6.5457C12.0397 6.53737 12.0384 6.52903 12.0367 6.52069C12.028 6.48234 12.017 6.44433 12.0017 6.40832C11.9957 6.39431 11.9874 6.38231 11.9807 6.36897C11.911 6.22991 11.7956 6.11287 11.6402 6.04918C11.4585 5.97481 11.2641 5.98815 11.1 6.06652L11.0947 6.06852C10.098 6.47834 9.19831 7.07991 8.42061 7.85754C5.19307 11.0891 5.19306 16.3472 8.421 19.5794C10.0369 21.1934 12.1591 22 14.2816 22C16.4041 22 18.5265 21.193 20.1428 19.5791C20.9178 18.8038 21.5184 17.9071 21.9282 16.9137C21.9302 16.91 21.9309 16.9057 21.9325 16.9017C21.9515 16.862 21.9669 16.8207 21.9779 16.7777C21.9785 16.7743 21.9799 16.7713 21.9809 16.768C22.0126 16.6366 22.0059 16.4945 21.9505 16.3598ZM19.2005 18.636C16.4884 21.3441 12.0761 21.3441 9.36471 18.636C6.65631 15.9243 6.65631 11.512 9.36431 8.80057C9.65381 8.51113 9.96661 8.25603 10.2944 8.02627C10.2003 8.52913 10.1516 9.04167 10.1516 9.5622C10.1516 14.1316 13.8691 17.8491 18.4385 17.8491C18.9587 17.8491 19.4716 17.8004 19.9744 17.7063C19.7443 18.0338 19.4899 18.3466 19.2005 18.636Z" fill="white"/>
</svg>
