<svg width="130" height="62" viewBox="0 0 130 62" fill="none" xmlns="http://www.w3.org/2000/svg">
    <circle cx="11" cy="5.5" r="5" fill="#48FF5A"/>
    <path d="M23.2863 9.09C22.7643 9.09 22.3143 8.991 21.9363 8.793C21.5583 8.589 21.2643 8.304 21.0543 7.938C20.8503 7.566 20.7483 7.128 20.7483 6.624V2.34H21.6303V6.624C21.6303 7.086 21.7653 7.473 22.0353 7.785C22.3113 8.097 22.7283 8.253 23.2863 8.253C23.8503 8.253 24.2673 8.097 24.5373 7.785C24.8133 7.473 24.9513 7.086 24.9513 6.624V2.34H25.8333V6.624C25.8333 7.128 25.7283 7.566 25.5183 7.938C25.3143 8.304 25.0233 8.589 24.6453 8.793C24.2673 8.991 23.8143 9.09 23.2863 9.09ZM27.2698 9V2.34H31.6618V3.114H28.1518V5.31H31.2478V6.084H28.1518V9H27.2698ZM32.9651 9V2.34H37.1951V3.114H33.8471V5.22H36.7811V5.994H33.8471V8.226H37.2401V9H32.9651ZM38.2312 9L40.5802 2.34H41.6872L44.0452 9H43.1092L42.5512 7.407H39.7252L39.1672 9H38.2312ZM39.9952 6.615H42.2812L41.1382 3.348L39.9952 6.615ZM50.8203 10.755V8.244H50.7663C50.7003 8.358 50.6043 8.481 50.4783 8.613C50.3523 8.745 50.1873 8.859 49.9833 8.955C49.7793 9.045 49.5273 9.09 49.2273 9.09C48.8673 9.09 48.5523 9.021 48.2823 8.883C48.0123 8.739 47.7873 8.55 47.6073 8.316C47.4273 8.076 47.2923 7.809 47.2023 7.515C47.1123 7.221 47.0673 6.921 47.0673 6.615C47.0673 6.309 47.1123 6.009 47.2023 5.715C47.2923 5.421 47.4273 5.157 47.6073 4.923C47.7873 4.683 48.0123 4.494 48.2823 4.356C48.5523 4.212 48.8673 4.14 49.2273 4.14C49.5273 4.14 49.7793 4.188 49.9833 4.284C50.1873 4.38 50.3523 4.494 50.4783 4.626C50.6043 4.752 50.7003 4.872 50.7663 4.986H50.8203V4.23H51.6753V10.755H50.8203ZM49.3713 8.361C49.6893 8.361 49.9533 8.277 50.1633 8.109C50.3793 7.935 50.5383 7.716 50.6403 7.452C50.7483 7.182 50.8023 6.903 50.8023 6.615C50.8023 6.321 50.7483 6.042 50.6403 5.778C50.5383 5.514 50.3793 5.298 50.1633 5.13C49.9533 4.956 49.6893 4.869 49.3713 4.869C49.0533 4.869 48.7863 4.956 48.5703 5.13C48.3543 5.298 48.1923 5.514 48.0843 5.778C47.9823 6.042 47.9313 6.321 47.9313 6.615C47.9313 6.903 47.9823 7.182 48.0843 7.452C48.1923 7.716 48.3543 7.935 48.5703 8.109C48.7863 8.277 49.0533 8.361 49.3713 8.361ZM54.5854 9.09C54.1114 9.09 53.7334 8.943 53.4514 8.649C53.1694 8.355 53.0284 7.947 53.0284 7.425V4.23H53.8834V7.38C53.8834 7.692 53.9674 7.932 54.1354 8.1C54.3094 8.268 54.5374 8.352 54.8194 8.352C55.1074 8.352 55.3384 8.277 55.5124 8.127C55.6864 7.977 55.8124 7.785 55.8904 7.551C55.9684 7.317 56.0074 7.077 56.0074 6.831V4.23H56.8624V9H56.0074V8.316H55.9534C55.9174 8.388 55.8484 8.487 55.7464 8.613C55.6444 8.733 55.5004 8.844 55.3144 8.946C55.1284 9.042 54.8854 9.09 54.5854 9.09ZM60.1961 4.14C60.4961 4.14 60.7481 4.188 60.9521 4.284C61.1561 4.38 61.3211 4.494 61.4471 4.626C61.5731 4.752 61.6691 4.872 61.7351 4.986H61.7891V4.23H62.6441V9H61.7891V8.244H61.7351C61.6691 8.358 61.5731 8.481 61.4471 8.613C61.3211 8.745 61.1561 8.859 60.9521 8.955C60.7481 9.045 60.4961 9.09 60.1961 9.09C59.8361 9.09 59.5211 9.021 59.2511 8.883C58.9811 8.739 58.7561 8.55 58.5761 8.316C58.3961 8.076 58.2611 7.809 58.1711 7.515C58.0811 7.221 58.0361 6.921 58.0361 6.615C58.0361 6.309 58.0811 6.009 58.1711 5.715C58.2611 5.421 58.3961 5.157 58.5761 4.923C58.7561 4.683 58.9811 4.494 59.2511 4.356C59.5211 4.212 59.8361 4.14 60.1961 4.14ZM60.3401 4.869C60.0221 4.869 59.7551 4.956 59.5391 5.13C59.3231 5.298 59.1611 5.514 59.0531 5.778C58.9511 6.042 58.9001 6.321 58.9001 6.615C58.9001 6.903 58.9511 7.182 59.0531 7.452C59.1611 7.716 59.3231 7.935 59.5391 8.109C59.7551 8.277 60.0221 8.361 60.3401 8.361C60.6581 8.361 60.9221 8.277 61.1321 8.109C61.3481 7.935 61.5071 7.716 61.6091 7.452C61.7171 7.182 61.7711 6.903 61.7711 6.615C61.7711 6.321 61.7171 6.042 61.6091 5.778C61.5071 5.514 61.3481 5.298 61.1321 5.13C60.9221 4.956 60.6581 4.869 60.3401 4.869ZM63.9905 9L63.9995 2.16H64.8455V9H63.9905ZM66.7525 3.321C66.5905 3.321 66.4555 3.267 66.3475 3.159C66.2455 3.051 66.1945 2.922 66.1945 2.772C66.1945 2.616 66.2455 2.484 66.3475 2.376C66.4555 2.268 66.5905 2.214 66.7525 2.214C66.9085 2.214 67.0405 2.268 67.1485 2.376C67.2565 2.484 67.3105 2.616 67.3105 2.772C67.3105 2.922 67.2565 3.051 67.1485 3.159C67.0405 3.267 66.9085 3.321 66.7525 3.321ZM66.3295 9V4.23H67.1845V9H66.3295ZM69.1255 9V4.932H68.3425V4.23H69.1255V3.645C69.1255 3.393 69.1705 3.147 69.2605 2.907C69.3505 2.661 69.5005 2.46 69.7105 2.304C69.9205 2.148 70.2055 2.07 70.5655 2.07C70.7395 2.07 70.8775 2.085 70.9795 2.115C71.0875 2.139 71.1415 2.151 71.1415 2.151V2.826C71.1415 2.826 71.0935 2.817 70.9975 2.799C70.9075 2.775 70.8025 2.763 70.6825 2.763C70.4065 2.763 70.2205 2.847 70.1245 3.015C70.0285 3.183 69.9805 3.393 69.9805 3.645V4.23H71.0875V4.932H69.9805V9H69.1255ZM72.2192 10.755C72.0812 10.755 71.9642 10.749 71.8682 10.737C71.7722 10.725 71.7242 10.719 71.7242 10.719V9.99C71.7242 9.99 71.7722 9.993 71.8682 9.999C71.9702 10.011 72.0782 10.017 72.1922 10.017C72.5462 10.017 72.8342 9.942 73.0562 9.792C73.2842 9.648 73.4762 9.408 73.6322 9.072L71.7872 4.23H72.6782L74.0552 7.956L75.4412 4.23H76.3412L74.4962 9.009C74.2622 9.609 73.9592 10.05 73.5872 10.332C73.2212 10.614 72.7652 10.755 72.2192 10.755ZM77.8442 3.321C77.6823 3.321 77.5473 3.267 77.4393 3.159C77.3373 3.051 77.2863 2.922 77.2863 2.772C77.2863 2.616 77.3373 2.484 77.4393 2.376C77.5473 2.268 77.6823 2.214 77.8442 2.214C78.0003 2.214 78.1323 2.268 78.2403 2.376C78.3483 2.484 78.4023 2.616 78.4023 2.772C78.4023 2.922 78.3483 3.051 78.2403 3.159C78.1323 3.267 78.0003 3.321 77.8442 3.321ZM77.4213 9V4.23H78.2763V9H77.4213ZM79.6593 9V4.23H80.5143V4.923H80.5683C80.6103 4.851 80.6793 4.752 80.7753 4.626C80.8773 4.5 81.0213 4.389 81.2073 4.293C81.3933 4.191 81.6273 4.14 81.9093 4.14C82.2573 4.14 82.5543 4.221 82.8003 4.383C83.0463 4.539 83.2323 4.752 83.3583 5.022C83.4903 5.292 83.5563 5.595 83.5563 5.931V9H82.7013V5.985C82.7013 5.667 82.6113 5.403 82.4313 5.193C82.2573 4.983 82.0023 4.878 81.6663 4.878C81.3963 4.878 81.1773 4.947 81.0093 5.085C80.8413 5.217 80.7153 5.394 80.6313 5.616C80.5533 5.832 80.5143 6.063 80.5143 6.309V9H79.6593ZM87.1135 10.89C86.7175 10.89 86.3875 10.836 86.1235 10.728C85.8595 10.626 85.6465 10.494 85.4845 10.332C85.3285 10.176 85.2115 10.02 85.1335 9.864C85.0555 9.708 85.0045 9.576 84.9805 9.468C84.9565 9.366 84.9445 9.315 84.9445 9.315H85.7995C85.7995 9.315 85.8145 9.357 85.8445 9.441C85.8745 9.525 85.9315 9.621 86.0155 9.729C86.1055 9.837 86.2375 9.933 86.4115 10.017C86.5855 10.101 86.8195 10.143 87.1135 10.143C87.4615 10.143 87.7345 10.074 87.9325 9.936C88.1305 9.804 88.2715 9.63 88.3555 9.414C88.4455 9.198 88.4905 8.97 88.4905 8.73V8.181H88.4455C88.3855 8.283 88.2895 8.4 88.1575 8.532C88.0315 8.658 87.8635 8.769 87.6535 8.865C87.4435 8.955 87.1855 9 86.8795 9C86.5195 9 86.2045 8.931 85.9345 8.793C85.6645 8.655 85.4395 8.469 85.2595 8.235C85.0855 8.001 84.9535 7.74 84.8635 7.452C84.7735 7.164 84.7285 6.87 84.7285 6.57C84.7285 6.27 84.7735 5.976 84.8635 5.688C84.9535 5.4 85.0855 5.139 85.2595 4.905C85.4395 4.671 85.6645 4.485 85.9345 4.347C86.2045 4.209 86.5195 4.14 86.8795 4.14C87.1855 4.14 87.4435 4.188 87.6535 4.284C87.8635 4.374 88.0315 4.482 88.1575 4.608C88.2895 4.734 88.3855 4.851 88.4455 4.959H88.4905V4.23H89.3455V8.721C89.3455 9.387 89.1505 9.915 88.7605 10.305C88.3765 10.695 87.8275 10.89 87.1135 10.89ZM87.0415 8.271C87.3595 8.271 87.6235 8.19 87.8335 8.028C88.0495 7.86 88.2085 7.647 88.3105 7.389C88.4185 7.131 88.4725 6.858 88.4725 6.57C88.4725 6.282 88.4185 6.009 88.3105 5.751C88.2085 5.487 88.0495 5.274 87.8335 5.112C87.6235 4.95 87.3595 4.869 87.0415 4.869C86.7235 4.869 86.4565 4.95 86.2405 5.112C86.0245 5.274 85.8625 5.487 85.7545 5.751C85.6525 6.009 85.6015 6.282 85.6015 6.57C85.6015 6.858 85.6525 7.131 85.7545 7.389C85.8625 7.647 86.0245 7.86 86.2405 8.028C86.4565 8.19 86.7235 8.271 87.0415 8.271Z"
          fill="#8D8E92"/>
    <circle cx="11" cy="22.5" r="5" fill="#A1DEC2"/>
    <path d="M23.3234 26.09C22.8014 26.09 22.3514 25.991 21.9734 25.793C21.5954 25.589 21.3014 25.304 21.0914 24.938C20.8874 24.566 20.7854 24.128 20.7854 23.624V19.34H21.6674V23.624C21.6674 24.086 21.8024 24.473 22.0724 24.785C22.3484 25.097 22.7654 25.253 23.3234 25.253C23.8874 25.253 24.3044 25.097 24.5744 24.785C24.8504 24.473 24.9884 24.086 24.9884 23.624V19.34H25.8704V23.624C25.8704 24.128 25.7654 24.566 25.5554 24.938C25.3514 25.304 25.0604 25.589 24.6824 25.793C24.3044 25.991 23.8514 26.09 23.3234 26.09ZM27.3069 26V19.34H31.6989V20.114H28.1889V22.31H31.2849V23.084H28.1889V26H27.3069ZM33.0022 26V19.34H37.2322V20.114H33.8842V22.22H36.8182V22.994H33.8842V25.226H37.2772V26H33.0022ZM38.2683 26L40.6173 19.34H41.7243L44.0823 26H43.1463L42.5883 24.407H39.7623L39.2043 26H38.2683ZM40.0323 23.615H42.3183L41.1753 20.348L40.0323 23.615ZM47.2845 26V19.34H51.5145V20.114H48.1665V22.22H51.1005V22.994H48.1665V25.226H51.5595V26H47.2845ZM55.7905 26.09C55.2685 26.09 54.8095 25.994 54.4135 25.802C54.0175 25.604 53.6875 25.343 53.4235 25.019C53.1655 24.689 52.9705 24.323 52.8385 23.921C52.7065 23.513 52.6405 23.096 52.6405 22.67C52.6405 22.244 52.7065 21.827 52.8385 21.419C52.9705 21.011 53.1655 20.645 53.4235 20.321C53.6875 19.991 54.0175 19.73 54.4135 19.538C54.8095 19.346 55.2685 19.25 55.7905 19.25C56.2225 19.25 56.5915 19.307 56.8975 19.421C57.2095 19.529 57.4675 19.67 57.6715 19.844C57.8815 20.018 58.0495 20.204 58.1755 20.402C58.3075 20.6 58.4035 20.786 58.4635 20.96C58.5295 21.134 58.5715 21.278 58.5895 21.392C58.6135 21.5 58.6255 21.554 58.6255 21.554H57.7435C57.7435 21.554 57.7315 21.506 57.7075 21.41C57.6835 21.308 57.6355 21.185 57.5635 21.041C57.4915 20.891 57.3835 20.741 57.2395 20.591C57.0955 20.441 56.9065 20.318 56.6725 20.222C56.4385 20.12 56.1475 20.069 55.7995 20.069C55.4215 20.069 55.0915 20.144 54.8095 20.294C54.5275 20.438 54.2905 20.636 54.0985 20.888C53.9125 21.134 53.7715 21.413 53.6755 21.725C53.5855 22.031 53.5405 22.346 53.5405 22.67C53.5405 22.994 53.5855 23.312 53.6755 23.624C53.7715 23.93 53.9125 24.209 54.0985 24.461C54.2905 24.707 54.5275 24.905 54.8095 25.055C55.0915 25.199 55.4215 25.271 55.7995 25.271C56.1475 25.271 56.4385 25.22 56.6725 25.118C56.9065 25.016 57.0955 24.893 57.2395 24.749C57.3835 24.599 57.4915 24.452 57.5635 24.308C57.6355 24.158 57.6835 24.032 57.7075 23.93C57.7315 23.828 57.7435 23.777 57.7435 23.777H58.6255C58.6255 23.777 58.6135 23.834 58.5895 23.948C58.5715 24.056 58.5295 24.2 58.4635 24.38C58.4035 24.554 58.3075 24.74 58.1755 24.938C58.0495 25.13 57.8815 25.316 57.6715 25.496C57.4675 25.67 57.2095 25.814 56.8975 25.928C56.5915 26.036 56.2225 26.09 55.7905 26.09ZM59.844 26V19.34H60.726V25.226H64.155V26H59.844ZM70.5315 26.09C70.0035 26.09 69.5385 25.994 69.1365 25.802C68.7345 25.604 68.3985 25.343 68.1285 25.019C67.8585 24.689 67.6545 24.32 67.5165 23.912C67.3785 23.504 67.3095 23.087 67.3095 22.661C67.3095 22.235 67.3785 21.821 67.5165 21.419C67.6545 21.011 67.8585 20.645 68.1285 20.321C68.3985 19.997 68.7345 19.739 69.1365 19.547C69.5385 19.349 70.0035 19.25 70.5315 19.25C71.0595 19.25 71.5245 19.349 71.9265 19.547C72.3285 19.739 72.6645 19.997 72.9345 20.321C73.2045 20.645 73.4085 21.011 73.5465 21.419C73.6845 21.821 73.7535 22.235 73.7535 22.661C73.7535 23.087 73.6845 23.504 73.5465 23.912C73.4145 24.32 73.2135 24.686 72.9435 25.01L73.9425 26H72.8265L72.3675 25.541C72.1215 25.715 71.8455 25.85 71.5395 25.946C71.2335 26.042 70.8975 26.09 70.5315 26.09ZM70.5315 25.271C70.7715 25.271 70.9905 25.241 71.1885 25.181C71.3925 25.121 71.5785 25.037 71.7465 24.929L70.6845 23.876L71.2605 23.336L72.3225 24.389C72.4965 24.149 72.6285 23.882 72.7185 23.588C72.8085 23.288 72.8535 22.979 72.8535 22.661C72.8535 22.331 72.8025 22.013 72.7005 21.707C72.5985 21.395 72.4485 21.116 72.2505 20.87C72.0585 20.624 71.8185 20.429 71.5305 20.285C71.2425 20.141 70.9095 20.069 70.5315 20.069C70.1535 20.069 69.8205 20.141 69.5325 20.285C69.2445 20.429 69.0015 20.624 68.8035 20.87C68.6115 21.116 68.4645 21.395 68.3625 21.707C68.2605 22.013 68.2095 22.331 68.2095 22.661C68.2095 22.997 68.2605 23.321 68.3625 23.633C68.4645 23.945 68.6115 24.224 68.8035 24.47C69.0015 24.716 69.2445 24.911 69.5325 25.055C69.8205 25.199 70.1535 25.271 70.5315 25.271ZM76.4018 26.09C75.9278 26.09 75.5498 25.943 75.2678 25.649C74.9858 25.355 74.8448 24.947 74.8448 24.425V21.23H75.6998V24.38C75.6998 24.692 75.7838 24.932 75.9518 25.1C76.1258 25.268 76.3538 25.352 76.6358 25.352C76.9238 25.352 77.1548 25.277 77.3288 25.127C77.5028 24.977 77.6288 24.785 77.7068 24.551C77.7848 24.317 77.8238 24.077 77.8238 23.831V21.23H78.6788V26H77.8238V25.316H77.7698C77.7338 25.388 77.6648 25.487 77.5628 25.613C77.4608 25.733 77.3168 25.844 77.1308 25.946C76.9448 26.042 76.7018 26.09 76.4018 26.09ZM82.0125 21.14C82.3125 21.14 82.5645 21.188 82.7685 21.284C82.9725 21.38 83.1375 21.494 83.2635 21.626C83.3895 21.752 83.4855 21.872 83.5515 21.986H83.6055V21.23H84.4605V26H83.6055V25.244H83.5515C83.4855 25.358 83.3895 25.481 83.2635 25.613C83.1375 25.745 82.9725 25.859 82.7685 25.955C82.5645 26.045 82.3125 26.09 82.0125 26.09C81.6525 26.09 81.3375 26.021 81.0675 25.883C80.7975 25.739 80.5725 25.55 80.3925 25.316C80.2125 25.076 80.0775 24.809 79.9875 24.515C79.8975 24.221 79.8525 23.921 79.8525 23.615C79.8525 23.309 79.8975 23.009 79.9875 22.715C80.0775 22.421 80.2125 22.157 80.3925 21.923C80.5725 21.683 80.7975 21.494 81.0675 21.356C81.3375 21.212 81.6525 21.14 82.0125 21.14ZM82.1565 21.869C81.8385 21.869 81.5715 21.956 81.3555 22.13C81.1395 22.298 80.9775 22.514 80.8695 22.778C80.7675 23.042 80.7165 23.321 80.7165 23.615C80.7165 23.903 80.7675 24.182 80.8695 24.452C80.9775 24.716 81.1395 24.935 81.3555 25.109C81.5715 25.277 81.8385 25.361 82.1565 25.361C82.4745 25.361 82.7385 25.277 82.9485 25.109C83.1645 24.935 83.3235 24.716 83.4255 24.452C83.5335 24.182 83.5875 23.903 83.5875 23.615C83.5875 23.321 83.5335 23.042 83.4255 22.778C83.3235 22.514 83.1645 22.298 82.9485 22.13C82.7385 21.956 82.4745 21.869 82.1565 21.869ZM85.8069 26L85.8159 19.16H86.6619V26H85.8069ZM88.5689 20.321C88.4069 20.321 88.2719 20.267 88.1639 20.159C88.0619 20.051 88.0109 19.922 88.0109 19.772C88.0109 19.616 88.0619 19.484 88.1639 19.376C88.2719 19.268 88.4069 19.214 88.5689 19.214C88.7249 19.214 88.8569 19.268 88.9649 19.376C89.0729 19.484 89.1269 19.616 89.1269 19.772C89.1269 19.922 89.0729 20.051 88.9649 20.159C88.8569 20.267 88.7249 20.321 88.5689 20.321ZM88.1459 26V21.23H89.0009V26H88.1459ZM90.9419 26V21.932H90.1589V21.23H90.9419V20.645C90.9419 20.393 90.9869 20.147 91.0769 19.907C91.1669 19.661 91.3169 19.46 91.5269 19.304C91.7369 19.148 92.0219 19.07 92.3819 19.07C92.5559 19.07 92.6939 19.085 92.7959 19.115C92.9039 19.139 92.9579 19.151 92.9579 19.151V19.826C92.9579 19.826 92.9099 19.817 92.8139 19.799C92.7239 19.775 92.6189 19.763 92.4989 19.763C92.2229 19.763 92.0369 19.847 91.9409 20.015C91.8449 20.183 91.7969 20.393 91.7969 20.645V21.23H94.9019V26H94.0469V21.932H91.7969V26H90.9419ZM94.4699 20.321C94.3079 20.321 94.1729 20.267 94.0649 20.159C93.9629 20.051 93.9119 19.922 93.9119 19.772C93.9119 19.616 93.9629 19.484 94.0649 19.376C94.1729 19.268 94.3079 19.214 94.4699 19.214C94.6259 19.214 94.7579 19.268 94.8659 19.376C94.9739 19.484 95.0279 19.616 95.0279 19.772C95.0279 19.922 94.9739 20.051 94.8659 20.159C94.7579 20.267 94.6259 20.321 94.4699 20.321ZM98.5492 26.09C98.1592 26.09 97.8172 26.021 97.5232 25.883C97.2292 25.739 96.9832 25.55 96.7852 25.316C96.5932 25.076 96.4462 24.809 96.3442 24.515C96.2482 24.221 96.2002 23.921 96.2002 23.615C96.2002 23.309 96.2482 23.012 96.3442 22.724C96.4402 22.43 96.5842 22.163 96.7762 21.923C96.9742 21.683 97.2202 21.494 97.5142 21.356C97.8082 21.212 98.1532 21.14 98.5492 21.14C98.9332 21.14 99.2512 21.197 99.5032 21.311C99.7552 21.425 99.9562 21.569 100.106 21.743C100.262 21.911 100.376 22.082 100.448 22.256C100.526 22.424 100.577 22.565 100.601 22.679C100.625 22.793 100.637 22.85 100.637 22.85H99.8092C99.8092 22.85 99.7942 22.802 99.7642 22.706C99.7342 22.604 99.6772 22.49 99.5932 22.364C99.5092 22.238 99.3832 22.127 99.2152 22.031C99.0472 21.929 98.8252 21.878 98.5492 21.878C98.2192 21.878 97.9402 21.962 97.7122 22.13C97.4902 22.292 97.3222 22.505 97.2082 22.769C97.1002 23.033 97.0462 23.315 97.0462 23.615C97.0462 23.915 97.1002 24.197 97.2082 24.461C97.3222 24.725 97.4902 24.941 97.7122 25.109C97.9402 25.271 98.2192 25.352 98.5492 25.352C98.8252 25.352 99.0472 25.304 99.2152 25.208C99.3832 25.106 99.5092 24.992 99.5932 24.866C99.6772 24.74 99.7342 24.629 99.7642 24.533C99.7942 24.431 99.8092 24.38 99.8092 24.38H100.637C100.637 24.38 100.625 24.437 100.601 24.551C100.577 24.665 100.526 24.809 100.448 24.983C100.376 25.151 100.262 25.322 100.106 25.496C99.9562 25.664 99.7552 25.805 99.5032 25.919C99.2512 26.033 98.9332 26.09 98.5492 26.09ZM103.88 21.14C104.18 21.14 104.432 21.188 104.636 21.284C104.84 21.38 105.005 21.494 105.131 21.626C105.257 21.752 105.353 21.872 105.419 21.986H105.473V21.23H106.328V26H105.473V25.244H105.419C105.353 25.358 105.257 25.481 105.131 25.613C105.005 25.745 104.84 25.859 104.636 25.955C104.432 26.045 104.18 26.09 103.88 26.09C103.52 26.09 103.205 26.021 102.935 25.883C102.665 25.739 102.44 25.55 102.26 25.316C102.08 25.076 101.945 24.809 101.855 24.515C101.765 24.221 101.72 23.921 101.72 23.615C101.72 23.309 101.765 23.009 101.855 22.715C101.945 22.421 102.08 22.157 102.26 21.923C102.44 21.683 102.665 21.494 102.935 21.356C103.205 21.212 103.52 21.14 103.88 21.14ZM104.024 21.869C103.706 21.869 103.439 21.956 103.223 22.13C103.007 22.298 102.845 22.514 102.737 22.778C102.635 23.042 102.584 23.321 102.584 23.615C102.584 23.903 102.635 24.182 102.737 24.452C102.845 24.716 103.007 24.935 103.223 25.109C103.439 25.277 103.706 25.361 104.024 25.361C104.342 25.361 104.606 25.277 104.816 25.109C105.032 24.935 105.191 24.716 105.293 24.452C105.401 24.182 105.455 23.903 105.455 23.615C105.455 23.321 105.401 23.042 105.293 22.778C105.191 22.514 105.032 22.298 104.816 22.13C104.606 21.956 104.342 21.869 104.024 21.869ZM109.433 26.09C108.941 26.09 108.569 25.964 108.317 25.712C108.071 25.46 107.948 25.106 107.948 24.65V21.932H107.093V21.23H107.948V20.033H108.803V21.23H109.964V21.932H108.803V24.65C108.803 24.89 108.869 25.067 109.001 25.181C109.133 25.289 109.325 25.343 109.577 25.343C109.709 25.343 109.835 25.334 109.955 25.316C110.075 25.298 110.135 25.289 110.135 25.289V26.018C110.135 26.018 110.066 26.03 109.928 26.054C109.79 26.078 109.625 26.09 109.433 26.09ZM111.816 20.321C111.654 20.321 111.519 20.267 111.411 20.159C111.309 20.051 111.258 19.922 111.258 19.772C111.258 19.616 111.309 19.484 111.411 19.376C111.519 19.268 111.654 19.214 111.816 19.214C111.972 19.214 112.104 19.268 112.212 19.376C112.32 19.484 112.374 19.616 112.374 19.772C112.374 19.922 112.32 20.051 112.212 20.159C112.104 20.267 111.972 20.321 111.816 20.321ZM111.393 26V21.23H112.248V26H111.393ZM115.89 26.09C115.38 26.09 114.951 25.973 114.603 25.739C114.255 25.499 113.991 25.19 113.811 24.812C113.631 24.434 113.541 24.035 113.541 23.615C113.541 23.189 113.631 22.79 113.811 22.418C113.991 22.04 114.255 21.734 114.603 21.5C114.951 21.26 115.38 21.14 115.89 21.14C116.4 21.14 116.829 21.26 117.177 21.5C117.525 21.734 117.789 22.04 117.969 22.418C118.149 22.79 118.239 23.189 118.239 23.615C118.239 24.035 118.149 24.434 117.969 24.812C117.789 25.19 117.525 25.499 117.177 25.739C116.829 25.973 116.4 26.09 115.89 26.09ZM115.89 25.343C116.214 25.343 116.484 25.262 116.7 25.1C116.922 24.932 117.087 24.716 117.195 24.452C117.309 24.188 117.366 23.909 117.366 23.615C117.366 23.315 117.309 23.036 117.195 22.778C117.087 22.514 116.922 22.301 116.7 22.139C116.484 21.971 116.214 21.887 115.89 21.887C115.572 21.887 115.302 21.971 115.08 22.139C114.858 22.301 114.69 22.514 114.576 22.778C114.468 23.036 114.414 23.315 114.414 23.615C114.414 23.909 114.468 24.188 114.576 24.452C114.69 24.716 114.858 24.932 115.08 25.1C115.302 25.262 115.572 25.343 115.89 25.343ZM119.405 26V21.23H120.26V21.923H120.314C120.356 21.851 120.425 21.752 120.521 21.626C120.623 21.5 120.767 21.389 120.953 21.293C121.139 21.191 121.373 21.14 121.655 21.14C122.003 21.14 122.3 21.221 122.546 21.383C122.792 21.539 122.978 21.752 123.104 22.022C123.236 22.292 123.302 22.595 123.302 22.931V26H122.447V22.985C122.447 22.667 122.357 22.403 122.177 22.193C122.003 21.983 121.748 21.878 121.412 21.878C121.142 21.878 120.923 21.947 120.755 22.085C120.587 22.217 120.461 22.394 120.377 22.616C120.299 22.832 120.26 23.063 120.26 23.309V26H119.405Z"
          fill="#8D8E92"/>
    <circle cx="11" cy="39.5" r="5" fill="#DE2400"/>
    <path d="M20.7444 43V36.34H23.1024C23.5764 36.34 23.9694 36.433 24.2814 36.619C24.5934 36.805 24.8274 37.045 24.9834 37.339C25.1394 37.633 25.2174 37.942 25.2174 38.266C25.2174 38.536 25.1634 38.797 25.0554 39.049C24.9474 39.301 24.7854 39.523 24.5694 39.715C24.3594 39.901 24.0924 40.036 23.7684 40.12L25.4514 43H24.4524L22.8414 40.201H21.6264V43H20.7444ZM23.0934 37.114H21.6264V39.445H23.0934C23.3694 39.445 23.5974 39.388 23.7774 39.274C23.9574 39.16 24.0924 39.016 24.1824 38.842C24.2724 38.662 24.3174 38.476 24.3174 38.284C24.3174 38.086 24.2724 37.9 24.1824 37.726C24.0924 37.546 23.9574 37.399 23.7774 37.285C23.5974 37.171 23.3694 37.114 23.0934 37.114ZM28.3869 43.09C27.9969 43.09 27.6579 43.021 27.3699 42.883C27.0879 42.739 26.8539 42.547 26.6679 42.307C26.4879 42.067 26.3529 41.803 26.2629 41.515C26.1729 41.221 26.1279 40.921 26.1279 40.615C26.1279 40.315 26.1699 40.018 26.2539 39.724C26.3439 39.43 26.4789 39.163 26.6589 38.923C26.8449 38.683 27.0759 38.494 27.3519 38.356C27.6339 38.212 27.9669 38.14 28.3509 38.14C28.7589 38.14 29.1189 38.233 29.4309 38.419C29.7429 38.605 29.9889 38.881 30.1689 39.247C30.3489 39.613 30.4389 40.072 30.4389 40.624V40.876H26.9919C27.0099 41.146 27.0729 41.395 27.1809 41.623C27.2949 41.845 27.4539 42.025 27.6579 42.163C27.8619 42.295 28.1049 42.361 28.3869 42.361C28.6329 42.361 28.8309 42.322 28.9809 42.244C29.1369 42.16 29.2599 42.064 29.3499 41.956C29.4399 41.848 29.4999 41.755 29.5299 41.677C29.5659 41.593 29.5839 41.551 29.5839 41.551H30.3849C30.3849 41.551 30.3699 41.605 30.3399 41.713C30.3099 41.815 30.2559 41.941 30.1779 42.091C30.0999 42.241 29.9859 42.394 29.8359 42.55C29.6859 42.7 29.4939 42.829 29.2599 42.937C29.0259 43.039 28.7349 43.09 28.3869 43.09ZM27.0009 40.21H29.6019C29.5899 39.898 29.5239 39.646 29.4039 39.454C29.2839 39.256 29.1309 39.109 28.9449 39.013C28.7589 38.917 28.5609 38.869 28.3509 38.869C27.9729 38.869 27.6639 38.992 27.4239 39.238C27.1839 39.478 27.0429 39.802 27.0009 40.21ZM31.6956 43L31.7046 36.16H32.5506V43H31.6956ZM36.0685 43.09C35.6785 43.09 35.3395 43.021 35.0515 42.883C34.7695 42.739 34.5355 42.547 34.3495 42.307C34.1695 42.067 34.0345 41.803 33.9445 41.515C33.8545 41.221 33.8095 40.921 33.8095 40.615C33.8095 40.315 33.8515 40.018 33.9355 39.724C34.0255 39.43 34.1605 39.163 34.3405 38.923C34.5265 38.683 34.7575 38.494 35.0335 38.356C35.3155 38.212 35.6485 38.14 36.0325 38.14C36.4405 38.14 36.8005 38.233 37.1125 38.419C37.4245 38.605 37.6705 38.881 37.8505 39.247C38.0305 39.613 38.1205 40.072 38.1205 40.624V40.876H34.6735C34.6915 41.146 34.7545 41.395 34.8625 41.623C34.9765 41.845 35.1355 42.025 35.3395 42.163C35.5435 42.295 35.7865 42.361 36.0685 42.361C36.3145 42.361 36.5125 42.322 36.6625 42.244C36.8185 42.16 36.9415 42.064 37.0315 41.956C37.1215 41.848 37.1815 41.755 37.2115 41.677C37.2475 41.593 37.2655 41.551 37.2655 41.551H38.0665C38.0665 41.551 38.0515 41.605 38.0215 41.713C37.9915 41.815 37.9375 41.941 37.8595 42.091C37.7815 42.241 37.6675 42.394 37.5175 42.55C37.3675 42.7 37.1755 42.829 36.9415 42.937C36.7075 43.039 36.4165 43.09 36.0685 43.09ZM34.6825 40.21H37.2835C37.2715 39.898 37.2055 39.646 37.0855 39.454C36.9655 39.256 36.8125 39.109 36.6265 39.013C36.4405 38.917 36.2425 38.869 36.0325 38.869C35.6545 38.869 35.3455 38.992 35.1055 39.238C34.8655 39.478 34.7245 39.802 34.6825 40.21ZM41.5383 44.89C41.1423 44.89 40.8123 44.836 40.5483 44.728C40.2843 44.626 40.0713 44.494 39.9093 44.332C39.7533 44.176 39.6363 44.02 39.5583 43.864C39.4803 43.708 39.4293 43.576 39.4053 43.468C39.3813 43.366 39.3693 43.315 39.3693 43.315H40.2243C40.2243 43.315 40.2393 43.357 40.2693 43.441C40.2993 43.525 40.3563 43.621 40.4403 43.729C40.5303 43.837 40.6623 43.933 40.8363 44.017C41.0103 44.101 41.2443 44.143 41.5383 44.143C41.8863 44.143 42.1593 44.074 42.3573 43.936C42.5553 43.804 42.6963 43.63 42.7803 43.414C42.8703 43.198 42.9153 42.97 42.9153 42.73V42.181H42.8703C42.8103 42.283 42.7143 42.4 42.5823 42.532C42.4563 42.658 42.2883 42.769 42.0783 42.865C41.8683 42.955 41.6103 43 41.3043 43C40.9443 43 40.6293 42.931 40.3593 42.793C40.0893 42.655 39.8643 42.469 39.6843 42.235C39.5103 42.001 39.3783 41.74 39.2883 41.452C39.1983 41.164 39.1533 40.87 39.1533 40.57C39.1533 40.27 39.1983 39.976 39.2883 39.688C39.3783 39.4 39.5103 39.139 39.6843 38.905C39.8643 38.671 40.0893 38.485 40.3593 38.347C40.6293 38.209 40.9443 38.14 41.3043 38.14C41.6103 38.14 41.8683 38.188 42.0783 38.284C42.2883 38.374 42.4563 38.482 42.5823 38.608C42.7143 38.734 42.8103 38.851 42.8703 38.959H42.9153V38.23H43.7703V42.721C43.7703 43.387 43.5753 43.915 43.1853 44.305C42.8013 44.695 42.2523 44.89 41.5383 44.89ZM41.4663 42.271C41.7843 42.271 42.0483 42.19 42.2583 42.028C42.4743 41.86 42.6333 41.647 42.7353 41.389C42.8433 41.131 42.8973 40.858 42.8973 40.57C42.8973 40.282 42.8433 40.009 42.7353 39.751C42.6333 39.487 42.4743 39.274 42.2583 39.112C42.0483 38.95 41.7843 38.869 41.4663 38.869C41.1483 38.869 40.8813 38.95 40.6653 39.112C40.4493 39.274 40.2873 39.487 40.1793 39.751C40.0773 40.009 40.0263 40.282 40.0263 40.57C40.0263 40.858 40.0773 41.131 40.1793 41.389C40.2873 41.647 40.4493 41.86 40.6653 42.028C40.8813 42.19 41.1483 42.271 41.4663 42.271ZM46.9207 38.14C47.2207 38.14 47.4727 38.188 47.6767 38.284C47.8807 38.38 48.0457 38.494 48.1717 38.626C48.2977 38.752 48.3937 38.872 48.4597 38.986H48.5137V38.23H49.3687V43H48.5137V42.244H48.4597C48.3937 42.358 48.2977 42.481 48.1717 42.613C48.0457 42.745 47.8807 42.859 47.6767 42.955C47.4727 43.045 47.2207 43.09 46.9207 43.09C46.5607 43.09 46.2457 43.021 45.9757 42.883C45.7057 42.739 45.4807 42.55 45.3007 42.316C45.1207 42.076 44.9857 41.809 44.8957 41.515C44.8057 41.221 44.7607 40.921 44.7607 40.615C44.7607 40.309 44.8057 40.009 44.8957 39.715C44.9857 39.421 45.1207 39.157 45.3007 38.923C45.4807 38.683 45.7057 38.494 45.9757 38.356C46.2457 38.212 46.5607 38.14 46.9207 38.14ZM47.0647 38.869C46.7467 38.869 46.4797 38.956 46.2637 39.13C46.0477 39.298 45.8857 39.514 45.7777 39.778C45.6757 40.042 45.6247 40.321 45.6247 40.615C45.6247 40.903 45.6757 41.182 45.7777 41.452C45.8857 41.716 46.0477 41.935 46.2637 42.109C46.4797 42.277 46.7467 42.361 47.0647 42.361C47.3827 42.361 47.6467 42.277 47.8567 42.109C48.0727 41.935 48.2317 41.716 48.3337 41.452C48.4417 41.182 48.4957 40.903 48.4957 40.615C48.4957 40.321 48.4417 40.042 48.3337 39.778C48.2317 39.514 48.0727 39.298 47.8567 39.13C47.6467 38.956 47.3827 38.869 47.0647 38.869ZM52.4743 43.09C51.9823 43.09 51.6103 42.964 51.3583 42.712C51.1123 42.46 50.9893 42.106 50.9893 41.65V38.932H50.1343V38.23H50.9893V37.033H51.8443V38.23H53.0053V38.932H51.8443V41.65C51.8443 41.89 51.9103 42.067 52.0423 42.181C52.1743 42.289 52.3663 42.343 52.6183 42.343C52.7503 42.343 52.8763 42.334 52.9963 42.316C53.1163 42.298 53.1763 42.289 53.1763 42.289V43.018C53.1763 43.018 53.1073 43.03 52.9693 43.054C52.8313 43.078 52.6663 43.09 52.4743 43.09ZM54.8569 37.321C54.6949 37.321 54.5599 37.267 54.4519 37.159C54.3499 37.051 54.2989 36.922 54.2989 36.772C54.2989 36.616 54.3499 36.484 54.4519 36.376C54.5599 36.268 54.6949 36.214 54.8569 36.214C55.0129 36.214 55.1449 36.268 55.2529 36.376C55.3609 36.484 55.4149 36.616 55.4149 36.772C55.4149 36.922 55.3609 37.051 55.2529 37.159C55.1449 37.267 55.0129 37.321 54.8569 37.321ZM54.4339 43V38.23H55.2889V43H54.4339ZM58.931 43.09C58.421 43.09 57.992 42.973 57.644 42.739C57.296 42.499 57.032 42.19 56.852 41.812C56.672 41.434 56.582 41.035 56.582 40.615C56.582 40.189 56.672 39.79 56.852 39.418C57.032 39.04 57.296 38.734 57.644 38.5C57.992 38.26 58.421 38.14 58.931 38.14C59.441 38.14 59.87 38.26 60.218 38.5C60.566 38.734 60.83 39.04 61.01 39.418C61.19 39.79 61.28 40.189 61.28 40.615C61.28 41.035 61.19 41.434 61.01 41.812C60.83 42.19 60.566 42.499 60.218 42.739C59.87 42.973 59.441 43.09 58.931 43.09ZM58.931 42.343C59.255 42.343 59.525 42.262 59.741 42.1C59.963 41.932 60.128 41.716 60.236 41.452C60.35 41.188 60.407 40.909 60.407 40.615C60.407 40.315 60.35 40.036 60.236 39.778C60.128 39.514 59.963 39.301 59.741 39.139C59.525 38.971 59.255 38.887 58.931 38.887C58.613 38.887 58.343 38.971 58.121 39.139C57.899 39.301 57.731 39.514 57.617 39.778C57.509 40.036 57.455 40.315 57.455 40.615C57.455 40.909 57.509 41.188 57.617 41.452C57.731 41.716 57.899 41.932 58.121 42.1C58.343 42.262 58.613 42.343 58.931 42.343ZM62.4464 43V38.23H63.3014V38.923H63.3554C63.3974 38.851 63.4664 38.752 63.5624 38.626C63.6644 38.5 63.8084 38.389 63.9944 38.293C64.1804 38.191 64.4144 38.14 64.6964 38.14C65.0444 38.14 65.3414 38.221 65.5874 38.383C65.8334 38.539 66.0194 38.752 66.1454 39.022C66.2774 39.292 66.3434 39.595 66.3434 39.931V43H65.4884V39.985C65.4884 39.667 65.3984 39.403 65.2184 39.193C65.0444 38.983 64.7894 38.878 64.4534 38.878C64.1834 38.878 63.9644 38.947 63.7964 39.085C63.6284 39.217 63.5024 39.394 63.4184 39.616C63.3404 39.832 63.3014 40.063 63.3014 40.309V43H62.4464Z"
          fill="#8D8E92"/>
    <circle cx="11" cy="56.5" r="5" fill="#E18733"/>
    <path d="M20.782 60V53.34H23.14C23.614 53.34 24.007 53.433 24.319 53.619C24.631 53.805 24.865 54.045 25.021 54.339C25.177 54.633 25.255 54.942 25.255 55.266C25.255 55.536 25.201 55.797 25.093 56.049C24.985 56.301 24.823 56.523 24.607 56.715C24.397 56.901 24.13 57.036 23.806 57.12L25.489 60H24.49L22.879 57.201H21.664V60H20.782ZM23.131 54.114H21.664V56.445H23.131C23.407 56.445 23.635 56.388 23.815 56.274C23.995 56.16 24.13 56.016 24.22 55.842C24.31 55.662 24.355 55.476 24.355 55.284C24.355 55.086 24.31 54.9 24.22 54.726C24.13 54.546 23.995 54.399 23.815 54.285C23.635 54.171 23.407 54.114 23.131 54.114ZM28.4245 60.09C28.0345 60.09 27.6955 60.021 27.4075 59.883C27.1255 59.739 26.8915 59.547 26.7055 59.307C26.5255 59.067 26.3905 58.803 26.3005 58.515C26.2105 58.221 26.1655 57.921 26.1655 57.615C26.1655 57.315 26.2075 57.018 26.2915 56.724C26.3815 56.43 26.5165 56.163 26.6965 55.923C26.8825 55.683 27.1135 55.494 27.3895 55.356C27.6715 55.212 28.0045 55.14 28.3885 55.14C28.7965 55.14 29.1565 55.233 29.4685 55.419C29.7805 55.605 30.0265 55.881 30.2065 56.247C30.3865 56.613 30.4765 57.072 30.4765 57.624V57.876H27.0295C27.0475 58.146 27.1105 58.395 27.2185 58.623C27.3325 58.845 27.4915 59.025 27.6955 59.163C27.8995 59.295 28.1425 59.361 28.4245 59.361C28.6705 59.361 28.8685 59.322 29.0185 59.244C29.1745 59.16 29.2975 59.064 29.3875 58.956C29.4775 58.848 29.5375 58.755 29.5675 58.677C29.6035 58.593 29.6215 58.551 29.6215 58.551H30.4225C30.4225 58.551 30.4075 58.605 30.3775 58.713C30.3475 58.815 30.2935 58.941 30.2155 59.091C30.1375 59.241 30.0235 59.394 29.8735 59.55C29.7235 59.7 29.5315 59.829 29.2975 59.937C29.0635 60.039 28.7725 60.09 28.4245 60.09ZM27.0385 57.21H29.6395C29.6275 56.898 29.5615 56.646 29.4415 56.454C29.3215 56.256 29.1685 56.109 28.9825 56.013C28.7965 55.917 28.5985 55.869 28.3885 55.869C28.0105 55.869 27.7015 55.992 27.4615 56.238C27.2215 56.478 27.0805 56.802 27.0385 57.21ZM31.7332 60L31.7422 53.16H32.5882V60H31.7332ZM36.1061 60.09C35.7161 60.09 35.3771 60.021 35.0891 59.883C34.8071 59.739 34.5731 59.547 34.3871 59.307C34.2071 59.067 34.0721 58.803 33.9821 58.515C33.8921 58.221 33.8471 57.921 33.8471 57.615C33.8471 57.315 33.8891 57.018 33.9731 56.724C34.0631 56.43 34.1981 56.163 34.3781 55.923C34.5641 55.683 34.7951 55.494 35.0711 55.356C35.3531 55.212 35.6861 55.14 36.0701 55.14C36.4781 55.14 36.8381 55.233 37.1501 55.419C37.4621 55.605 37.7081 55.881 37.8881 56.247C38.0681 56.613 38.1581 57.072 38.1581 57.624V57.876H34.7111C34.7291 58.146 34.7921 58.395 34.9001 58.623C35.0141 58.845 35.1731 59.025 35.3771 59.163C35.5811 59.295 35.8241 59.361 36.1061 59.361C36.3521 59.361 36.5501 59.322 36.7001 59.244C36.8561 59.16 36.9791 59.064 37.0691 58.956C37.1591 58.848 37.2191 58.755 37.2491 58.677C37.2851 58.593 37.3031 58.551 37.3031 58.551H38.1041C38.1041 58.551 38.0891 58.605 38.0591 58.713C38.0291 58.815 37.9751 58.941 37.8971 59.091C37.8191 59.241 37.7051 59.394 37.5551 59.55C37.4051 59.7 37.2131 59.829 36.9791 59.937C36.7451 60.039 36.4541 60.09 36.1061 60.09ZM34.7201 57.21H37.3211C37.3091 56.898 37.2431 56.646 37.1231 56.454C37.0031 56.256 36.8501 56.109 36.6641 56.013C36.4781 55.917 36.2801 55.869 36.0701 55.869C35.6921 55.869 35.3831 55.992 35.1431 56.238C34.9031 56.478 34.7621 56.802 34.7201 57.21ZM41.5759 61.89C41.1799 61.89 40.8499 61.836 40.5859 61.728C40.3219 61.626 40.1089 61.494 39.9469 61.332C39.7909 61.176 39.6739 61.02 39.5959 60.864C39.5179 60.708 39.4669 60.576 39.4429 60.468C39.4189 60.366 39.4069 60.315 39.4069 60.315H40.2619C40.2619 60.315 40.2769 60.357 40.3069 60.441C40.3369 60.525 40.3939 60.621 40.4779 60.729C40.5679 60.837 40.6999 60.933 40.8739 61.017C41.0479 61.101 41.2819 61.143 41.5759 61.143C41.9239 61.143 42.1969 61.074 42.3949 60.936C42.5929 60.804 42.7339 60.63 42.8179 60.414C42.9079 60.198 42.9529 59.97 42.9529 59.73V59.181H42.9079C42.8479 59.283 42.7519 59.4 42.6199 59.532C42.4939 59.658 42.3259 59.769 42.1159 59.865C41.9059 59.955 41.6479 60 41.3419 60C40.9819 60 40.6669 59.931 40.3969 59.793C40.1269 59.655 39.9019 59.469 39.7219 59.235C39.5479 59.001 39.4159 58.74 39.3259 58.452C39.2359 58.164 39.1909 57.87 39.1909 57.57C39.1909 57.27 39.2359 56.976 39.3259 56.688C39.4159 56.4 39.5479 56.139 39.7219 55.905C39.9019 55.671 40.1269 55.485 40.3969 55.347C40.6669 55.209 40.9819 55.14 41.3419 55.14C41.6479 55.14 41.9059 55.188 42.1159 55.284C42.3259 55.374 42.4939 55.482 42.6199 55.608C42.7519 55.734 42.8479 55.851 42.9079 55.959H42.9529V55.23H43.8079V59.721C43.8079 60.387 43.6129 60.915 43.2229 61.305C42.8389 61.695 42.2899 61.89 41.5759 61.89ZM41.5039 59.271C41.8219 59.271 42.0859 59.19 42.2959 59.028C42.5119 58.86 42.6709 58.647 42.7729 58.389C42.8809 58.131 42.9349 57.858 42.9349 57.57C42.9349 57.282 42.8809 57.009 42.7729 56.751C42.6709 56.487 42.5119 56.274 42.2959 56.112C42.0859 55.95 41.8219 55.869 41.5039 55.869C41.1859 55.869 40.9189 55.95 40.7029 56.112C40.4869 56.274 40.3249 56.487 40.2169 56.751C40.1149 57.009 40.0639 57.282 40.0639 57.57C40.0639 57.858 40.1149 58.131 40.2169 58.389C40.3249 58.647 40.4869 58.86 40.7029 59.028C40.9189 59.19 41.1859 59.271 41.5039 59.271ZM46.9583 55.14C47.2583 55.14 47.5103 55.188 47.7143 55.284C47.9183 55.38 48.0833 55.494 48.2093 55.626C48.3353 55.752 48.4313 55.872 48.4973 55.986H48.5513V55.23H49.4063V60H48.5513V59.244H48.4973C48.4313 59.358 48.3353 59.481 48.2093 59.613C48.0833 59.745 47.9183 59.859 47.7143 59.955C47.5103 60.045 47.2583 60.09 46.9583 60.09C46.5983 60.09 46.2833 60.021 46.0133 59.883C45.7433 59.739 45.5183 59.55 45.3383 59.316C45.1583 59.076 45.0233 58.809 44.9333 58.515C44.8433 58.221 44.7983 57.921 44.7983 57.615C44.7983 57.309 44.8433 57.009 44.9333 56.715C45.0233 56.421 45.1583 56.157 45.3383 55.923C45.5183 55.683 45.7433 55.494 46.0133 55.356C46.2833 55.212 46.5983 55.14 46.9583 55.14ZM47.1023 55.869C46.7843 55.869 46.5173 55.956 46.3013 56.13C46.0853 56.298 45.9233 56.514 45.8153 56.778C45.7133 57.042 45.6623 57.321 45.6623 57.615C45.6623 57.903 45.7133 58.182 45.8153 58.452C45.9233 58.716 46.0853 58.935 46.3013 59.109C46.5173 59.277 46.7843 59.361 47.1023 59.361C47.4203 59.361 47.6843 59.277 47.8943 59.109C48.1103 58.935 48.2693 58.716 48.3713 58.452C48.4793 58.182 48.5333 57.903 48.5333 57.615C48.5333 57.321 48.4793 57.042 48.3713 56.778C48.2693 56.514 48.1103 56.298 47.8943 56.13C47.6843 55.956 47.4203 55.869 47.1023 55.869ZM52.5119 60.09C52.0199 60.09 51.6479 59.964 51.3959 59.712C51.1499 59.46 51.0269 59.106 51.0269 58.65V55.932H50.1719V55.23H51.0269V54.033H51.8819V55.23H53.0429V55.932H51.8819V58.65C51.8819 58.89 51.9479 59.067 52.0799 59.181C52.2119 59.289 52.4039 59.343 52.6559 59.343C52.7879 59.343 52.9139 59.334 53.0339 59.316C53.1539 59.298 53.2139 59.289 53.2139 59.289V60.018C53.2139 60.018 53.1449 60.03 53.0069 60.054C52.8689 60.078 52.7039 60.09 52.5119 60.09ZM54.8945 54.321C54.7325 54.321 54.5975 54.267 54.4895 54.159C54.3875 54.051 54.3365 53.922 54.3365 53.772C54.3365 53.616 54.3875 53.484 54.4895 53.376C54.5975 53.268 54.7325 53.214 54.8945 53.214C55.0505 53.214 55.1825 53.268 55.2905 53.376C55.3985 53.484 55.4525 53.616 55.4525 53.772C55.4525 53.922 55.3985 54.051 55.2905 54.159C55.1825 54.267 55.0505 54.321 54.8945 54.321ZM54.4715 60V55.23H55.3265V60H54.4715ZM58.9686 60.09C58.4586 60.09 58.0296 59.973 57.6816 59.739C57.3336 59.499 57.0696 59.19 56.8896 58.812C56.7096 58.434 56.6196 58.035 56.6196 57.615C56.6196 57.189 56.7096 56.79 56.8896 56.418C57.0696 56.04 57.3336 55.734 57.6816 55.5C58.0296 55.26 58.4586 55.14 58.9686 55.14C59.4786 55.14 59.9076 55.26 60.2556 55.5C60.6036 55.734 60.8676 56.04 61.0476 56.418C61.2276 56.79 61.3176 57.189 61.3176 57.615C61.3176 58.035 61.2276 58.434 61.0476 58.812C60.8676 59.19 60.6036 59.499 60.2556 59.739C59.9076 59.973 59.4786 60.09 58.9686 60.09ZM58.9686 59.343C59.2926 59.343 59.5626 59.262 59.7786 59.1C60.0006 58.932 60.1656 58.716 60.2736 58.452C60.3876 58.188 60.4446 57.909 60.4446 57.615C60.4446 57.315 60.3876 57.036 60.2736 56.778C60.1656 56.514 60.0006 56.301 59.7786 56.139C59.5626 55.971 59.2926 55.887 58.9686 55.887C58.6506 55.887 58.3806 55.971 58.1586 56.139C57.9366 56.301 57.7686 56.514 57.6546 56.778C57.5466 57.036 57.4926 57.315 57.4926 57.615C57.4926 57.909 57.5466 58.188 57.6546 58.452C57.7686 58.716 57.9366 58.932 58.1586 59.1C58.3806 59.262 58.6506 59.343 58.9686 59.343ZM62.484 60V55.23H63.339V55.923H63.393C63.435 55.851 63.504 55.752 63.6 55.626C63.702 55.5 63.846 55.389 64.032 55.293C64.218 55.191 64.452 55.14 64.734 55.14C65.082 55.14 65.379 55.221 65.625 55.383C65.871 55.539 66.057 55.752 66.183 56.022C66.315 56.292 66.381 56.595 66.381 56.931V60H65.526V56.985C65.526 56.667 65.436 56.403 65.256 56.193C65.082 55.983 64.827 55.878 64.491 55.878C64.221 55.878 64.002 55.947 63.834 56.085C63.666 56.217 63.54 56.394 63.456 56.616C63.378 56.832 63.339 57.063 63.339 57.309V60H62.484ZM69.8074 61.764V55.23H70.6624V55.986H70.7164C70.7884 55.872 70.8844 55.749 71.0044 55.617C71.1304 55.485 71.2954 55.374 71.4994 55.284C71.7034 55.188 71.9554 55.14 72.2554 55.14C72.6154 55.14 72.9304 55.212 73.2004 55.356C73.4704 55.494 73.6954 55.683 73.8754 55.923C74.0554 56.157 74.1904 56.421 74.2804 56.715C74.3704 57.009 74.4154 57.309 74.4154 57.615C74.4154 57.921 74.3704 58.221 74.2804 58.515C74.1904 58.809 74.0554 59.076 73.8754 59.316C73.6954 59.55 73.4704 59.739 73.2004 59.883C72.9304 60.021 72.6154 60.09 72.2554 60.09C71.9554 60.09 71.7034 60.042 71.4994 59.946C71.2954 59.85 71.1304 59.736 71.0044 59.604C70.8844 59.472 70.7884 59.352 70.7164 59.244H70.6624V61.764H69.8074ZM70.6804 57.615C70.6804 57.903 70.7314 58.182 70.8334 58.452C70.9414 58.716 71.1004 58.935 71.3104 59.109C71.5264 59.277 71.7934 59.361 72.1114 59.361C72.4354 59.361 72.7024 59.277 72.9124 59.109C73.1284 58.935 73.2874 58.716 73.3894 58.452C73.4974 58.182 73.5514 57.903 73.5514 57.615C73.5514 57.321 73.4974 57.042 73.3894 56.778C73.2874 56.514 73.1284 56.298 72.9124 56.13C72.7024 55.956 72.4354 55.869 72.1114 55.869C71.7934 55.869 71.5264 55.956 71.3104 56.13C71.1004 56.298 70.9414 56.514 70.8334 56.778C70.7314 57.042 70.6804 57.321 70.6804 57.615ZM75.6785 60L75.6875 53.16H76.5335V60H75.6785ZM79.9524 55.14C80.2524 55.14 80.5044 55.188 80.7084 55.284C80.9124 55.38 81.0774 55.494 81.2034 55.626C81.3294 55.752 81.4254 55.872 81.4914 55.986H81.5454V55.23H82.4004V60H81.5454V59.244H81.4914C81.4254 59.358 81.3294 59.481 81.2034 59.613C81.0774 59.745 80.9124 59.859 80.7084 59.955C80.5044 60.045 80.2524 60.09 79.9524 60.09C79.5924 60.09 79.2774 60.021 79.0074 59.883C78.7374 59.739 78.5124 59.55 78.3324 59.316C78.1524 59.076 78.0174 58.809 77.9274 58.515C77.8374 58.221 77.7924 57.921 77.7924 57.615C77.7924 57.309 77.8374 57.009 77.9274 56.715C78.0174 56.421 78.1524 56.157 78.3324 55.923C78.5124 55.683 78.7374 55.494 79.0074 55.356C79.2774 55.212 79.5924 55.14 79.9524 55.14ZM80.0964 55.869C79.7784 55.869 79.5114 55.956 79.2954 56.13C79.0794 56.298 78.9174 56.514 78.8094 56.778C78.7074 57.042 78.6564 57.321 78.6564 57.615C78.6564 57.903 78.7074 58.182 78.8094 58.452C78.9174 58.716 79.0794 58.935 79.2954 59.109C79.5114 59.277 79.7784 59.361 80.0964 59.361C80.4144 59.361 80.6784 59.277 80.8884 59.109C81.1044 58.935 81.2634 58.716 81.3654 58.452C81.4734 58.182 81.5274 57.903 81.5274 57.615C81.5274 57.321 81.4734 57.042 81.3654 56.778C81.2634 56.514 81.1044 56.298 80.8884 56.13C80.6784 55.956 80.4144 55.869 80.0964 55.869ZM83.705 61.755C83.567 61.755 83.45 61.749 83.354 61.737C83.258 61.725 83.21 61.719 83.21 61.719V60.99C83.21 60.99 83.258 60.993 83.354 60.999C83.456 61.011 83.564 61.017 83.678 61.017C84.032 61.017 84.32 60.942 84.542 60.792C84.77 60.648 84.962 60.408 85.118 60.072L83.273 55.23H84.164L85.541 58.956L86.927 55.23H87.827L85.982 60.009C85.748 60.609 85.445 61.05 85.073 61.332C84.707 61.614 84.251 61.755 83.705 61.755ZM90.7147 60.09C90.2047 60.09 89.7757 59.973 89.4277 59.739C89.0797 59.499 88.8157 59.19 88.6357 58.812C88.4557 58.434 88.3657 58.035 88.3657 57.615C88.3657 57.189 88.4557 56.79 88.6357 56.418C88.8157 56.04 89.0797 55.734 89.4277 55.5C89.7757 55.26 90.2047 55.14 90.7147 55.14C91.2247 55.14 91.6537 55.26 92.0017 55.5C92.3497 55.734 92.6137 56.04 92.7937 56.418C92.9737 56.79 93.0637 57.189 93.0637 57.615C93.0637 58.035 92.9737 58.434 92.7937 58.812C92.6137 59.19 92.3497 59.499 92.0017 59.739C91.6537 59.973 91.2247 60.09 90.7147 60.09ZM90.7147 59.343C91.0387 59.343 91.3087 59.262 91.5247 59.1C91.7467 58.932 91.9117 58.716 92.0197 58.452C92.1337 58.188 92.1907 57.909 92.1907 57.615C92.1907 57.315 92.1337 57.036 92.0197 56.778C91.9117 56.514 91.7467 56.301 91.5247 56.139C91.3087 55.971 91.0387 55.887 90.7147 55.887C90.3967 55.887 90.1267 55.971 89.9047 56.139C89.6827 56.301 89.5147 56.514 89.4007 56.778C89.2927 57.036 89.2387 57.315 89.2387 57.615C89.2387 57.909 89.2927 58.188 89.4007 58.452C89.5147 58.716 89.6827 58.932 89.9047 59.1C90.1267 59.262 90.3967 59.343 90.7147 59.343ZM94.7881 60V55.932H94.0051V55.23H94.7881V54.645C94.7881 54.393 94.8331 54.147 94.9231 53.907C95.0131 53.661 95.1631 53.46 95.3731 53.304C95.5831 53.148 95.8681 53.07 96.2281 53.07C96.4021 53.07 96.5401 53.085 96.6421 53.115C96.7501 53.139 96.8041 53.151 96.8041 53.151V53.826C96.8041 53.826 96.7561 53.817 96.6601 53.799C96.5701 53.775 96.4651 53.763 96.3451 53.763C96.0691 53.763 95.8831 53.847 95.7871 54.015C95.6911 54.183 95.6431 54.393 95.6431 54.645V55.23H98.0821V54.645C98.0821 54.393 98.1271 54.147 98.2171 53.907C98.3071 53.661 98.4571 53.46 98.6671 53.304C98.8771 53.148 99.1621 53.07 99.5221 53.07C99.6961 53.07 99.8341 53.085 99.9361 53.115C100.044 53.139 100.098 53.151 100.098 53.151V53.826C100.098 53.826 100.05 53.817 99.9541 53.799C99.8641 53.775 99.7591 53.763 99.6391 53.763C99.3631 53.763 99.1771 53.847 99.0811 54.015C98.9851 54.183 98.9371 54.393 98.9371 54.645V55.23H100.044V55.932H98.9371V60H98.0821V55.932H95.6431V60H94.7881ZM102.744 60.09C102.378 60.09 102.075 60.039 101.835 59.937C101.601 59.835 101.415 59.709 101.277 59.559C101.139 59.403 101.037 59.25 100.971 59.1C100.905 58.944 100.863 58.815 100.845 58.713C100.827 58.611 100.818 58.56 100.818 58.56H101.682C101.682 58.56 101.691 58.602 101.709 58.686C101.733 58.764 101.778 58.857 101.844 58.965C101.916 59.067 102.024 59.16 102.168 59.244C102.318 59.322 102.516 59.361 102.762 59.361C103.044 59.361 103.263 59.295 103.419 59.163C103.575 59.025 103.653 58.857 103.653 58.659C103.653 58.485 103.59 58.347 103.464 58.245C103.344 58.143 103.17 58.065 102.942 58.011L102.294 57.858C102.054 57.798 101.829 57.717 101.619 57.615C101.409 57.513 101.238 57.375 101.106 57.201C100.98 57.021 100.917 56.799 100.917 56.535C100.917 56.127 101.07 55.794 101.376 55.536C101.682 55.272 102.081 55.14 102.573 55.14C102.903 55.14 103.176 55.188 103.392 55.284C103.608 55.374 103.779 55.488 103.905 55.626C104.037 55.764 104.133 55.902 104.193 56.04C104.259 56.178 104.301 56.295 104.319 56.391C104.337 56.481 104.346 56.526 104.346 56.526H103.518C103.518 56.526 103.509 56.493 103.491 56.427C103.473 56.355 103.431 56.277 103.365 56.193C103.305 56.103 103.212 56.025 103.086 55.959C102.96 55.887 102.792 55.851 102.582 55.851C102.294 55.851 102.084 55.917 101.952 56.049C101.82 56.181 101.754 56.325 101.754 56.481C101.754 56.631 101.814 56.754 101.934 56.85C102.06 56.94 102.222 57.009 102.42 57.057L103.077 57.21C103.485 57.306 103.821 57.465 104.085 57.687C104.355 57.903 104.49 58.215 104.49 58.623C104.49 58.887 104.421 59.133 104.283 59.361C104.145 59.583 103.947 59.76 103.689 59.892C103.431 60.024 103.116 60.09 102.744 60.09Z"
          fill="#8D8E92"/>
</svg>
