<svg width="32" height="32" viewBox="0 0 32 32" fill="none" xmlns="http://www.w3.org/2000/svg">
<g clip-path="url(#clip0_3702_6780)">
<path d="M26.4441 3.34375V28.6562C26.4441 30.5 24.946 32 23.1049 32H8.8763C7.03511 32 5.53711 30.5 5.53711 28.6562V3.34375C5.53705 1.5 7.03511 0 8.8763 0H23.1049C24.946 0 26.4441 1.5 26.4441 3.34375Z" fill="#56788B"/>
<path d="M26.4446 3.34375V28.6562C26.4446 30.5 24.9465 32 23.1054 32H21.8555C23.6966 32 25.1947 30.5 25.1947 28.6562V3.34375C25.1947 1.5 23.6966 0 21.8555 0H23.1054C24.9465 0 26.4446 1.5 26.4446 3.34375Z" fill="#415E6F"/>
<path d="M24.5724 3.26625V28.7337C24.5724 29.5525 23.9075 30.2188 23.0893 30.2188H8.89322C8.07516 30.2188 7.41016 29.5525 7.41016 28.7337V3.26625C7.41016 2.4475 8.07509 1.78125 8.89322 1.78125H10.375C10.5782 1.78125 10.7588 1.9125 10.8213 2.10625L11.1882 3.24563C11.2794 3.52875 11.5394 3.71875 11.8362 3.71875H20.1464C20.4427 3.71875 20.7033 3.52875 20.7945 3.24563L21.1614 2.10625C21.2239 1.9125 21.4039 1.78125 21.6077 1.78125H23.0895C23.9074 1.78125 24.5724 2.4475 24.5724 3.26625Z" fill="#D9F0F4"/>
<path d="M24.5728 3.26625V28.7337C24.5728 29.5525 23.9079 30.2188 23.0898 30.2188H21.8398C22.6579 30.2188 23.3229 29.5525 23.3229 28.7337V3.26625C23.3229 2.4475 22.658 1.78125 21.8398 1.78125H23.0898C23.9078 1.78125 24.5728 2.4475 24.5728 3.26625Z" fill="#BAE1E5"/>
<path d="M18.5298 1.37402H13.4531C13.1942 1.37402 12.9844 1.5839 12.9844 1.84277C12.9844 2.10165 13.1942 2.31152 13.4531 2.31152H18.5298C18.7887 2.31152 18.9986 2.10165 18.9986 1.84277C18.9986 1.5839 18.7887 1.37402 18.5298 1.37402Z" fill="#415E6F"/>
<path d="M18.5298 27.1699H13.4531C13.1942 27.1699 12.9844 27.3798 12.9844 27.6387C12.9844 27.8975 13.1942 28.1074 13.4531 28.1074H18.5298C18.7887 28.1074 18.9986 27.8975 18.9986 27.6387C18.9986 27.3798 18.7887 27.1699 18.5298 27.1699Z" fill="#56788B"/>
<path d="M10.7338 7.54396V12.2702C10.7338 13.0602 10.0914 13.7033 9.302 13.7033H3.22356L0.752437 15.5833C0.669312 15.6471 0.569313 15.679 0.468688 15.679C0.397438 15.679 0.326187 15.6633 0.260563 15.6302C0.10125 15.5515 0 15.3883 0 15.2102V7.54396C0 6.75396 0.6425 6.11084 1.43181 6.11084H9.30206C10.0914 6.11084 10.7338 6.75396 10.7338 7.54396Z" fill="#2187E5"/>
<path d="M10.7325 7.54348V12.2697C10.7325 13.0597 10.0901 13.7029 9.30072 13.7029H8.05078C8.84009 13.7029 9.48259 13.0597 9.48259 12.2697V7.54348C9.48259 6.75348 8.84016 6.11035 8.05078 6.11035H9.30072C10.0901 6.11035 10.7325 6.75348 10.7325 7.54348Z" fill="#1775CB"/>
<path d="M7.86341 8.34033H2.87109C2.61222 8.34033 2.40234 8.55021 2.40234 8.80908C2.40234 9.06796 2.61222 9.27783 2.87109 9.27783H7.86341C8.12228 9.27783 8.33216 9.06796 8.33216 8.80908C8.33216 8.55021 8.12228 8.34033 7.86341 8.34033Z" fill="#121212"/>
<path d="M7.23941 10.4653H2.87109C2.61222 10.4653 2.40234 10.6752 2.40234 10.9341C2.40234 11.193 2.61222 11.4028 2.87109 11.4028H7.23941C7.49828 11.4028 7.70816 11.193 7.70816 10.9341C7.70816 10.6752 7.49822 10.4653 7.23941 10.4653Z" fill="#121212"/>
<path d="M28.4745 11.4548C28.1839 11.164 27.7974 11.0039 27.3863 11.0039C26.9752 11.0039 26.5887 11.164 26.2981 11.4548L25.5904 12.1627C25.4074 12.3458 25.4074 12.6425 25.5904 12.8255L27.1039 14.3395C27.1918 14.4275 27.311 14.4768 27.4354 14.4768C27.5597 14.4768 27.6789 14.4274 27.7668 14.3395L28.4745 13.6316C29.0745 13.0315 29.0745 12.055 28.4745 11.4548Z" fill="#2187E5"/>
<path d="M20.8184 21.5546L18.3786 19.1139C18.2907 19.026 18.1715 18.9766 18.0472 18.9766C17.9229 18.9766 17.8036 19.026 17.7157 19.1139C16.8604 19.9696 16.8604 21.3618 17.7157 22.2174C18.1301 22.632 18.6811 22.8603 19.2671 22.8603C19.8531 22.8603 20.4041 22.632 20.8185 22.2174C21.0015 22.0343 21.0015 21.7376 20.8184 21.5546Z" fill="#2187E5"/>
<path d="M23.3042 24.595C23.2154 24.6157 23.1266 24.6259 23.0382 24.6259C22.736 24.6259 22.4439 24.507 22.2238 24.287L21.34 23.4031L15.648 17.7082C15.363 17.4232 15.2477 17.0188 15.3396 16.6263C15.4315 16.2348 15.7135 15.9237 16.0953 15.7946L18.2125 15.0773L20.4659 12.823C21.3528 11.936 22.5323 11.4468 23.7864 11.4468C24.8298 11.4472 25.8219 11.7853 26.6355 12.4098C26.8003 12.5357 26.9577 12.6736 27.107 12.823C27.9944 13.7104 28.4831 14.8903 28.4827 16.145C28.4831 17.4006 27.9944 18.5806 27.1074 19.4675L24.8536 21.7214L24.1377 23.8392C24.1373 23.8397 24.1373 23.8397 24.1373 23.8397C24.0078 24.2211 23.6962 24.5035 23.3042 24.595Z" fill="#FED82F"/>
<path d="M24.1365 23.8395C24.007 24.2209 23.6955 24.5034 23.3035 24.5948C23.2147 24.6155 23.1259 24.6257 23.0375 24.6257C22.7353 24.6257 22.4432 24.5069 22.2231 24.2868L21.3477 23.4113C21.5668 23.6261 21.855 23.7419 22.1537 23.7419C22.2421 23.7419 22.3309 23.7317 22.4197 23.7109C22.8117 23.6194 23.1233 23.337 23.2527 22.9557C23.2527 22.9557 23.2527 22.9557 23.2532 22.9552L23.9691 20.8374L26.2229 18.5835C27.1098 17.6965 27.5986 16.5166 27.5982 15.261C27.5986 14.2167 27.2601 13.2242 26.6348 12.4097C26.7996 12.5356 26.957 12.6735 27.1063 12.8229C27.9937 13.7103 28.4824 14.8902 28.482 16.1449C28.4824 17.4005 27.9937 18.5805 27.1067 19.4674L24.8529 21.7213L24.137 23.8391C24.1365 23.8395 24.1365 23.8395 24.1365 23.8395Z" fill="#FFA402"/>
<path d="M19.5778 9.89844C18.8025 9.89844 18.1719 10.5293 18.1719 11.3047C18.1719 11.5636 18.3817 11.7734 18.6406 11.7734C18.8996 11.7734 19.1094 11.5636 19.1094 11.3047C19.1094 11.0462 19.3195 10.8359 19.5778 10.8359C19.8367 10.8359 20.0466 10.6261 20.0466 10.3672C20.0466 10.1083 19.8367 9.89844 19.5778 9.89844Z" fill="#2187E5"/>
<path d="M19.578 7.92285C17.7138 7.92285 16.1973 9.43991 16.1973 11.3046C16.1973 11.5635 16.4071 11.7734 16.666 11.7734C16.925 11.7734 17.1348 11.5635 17.1348 11.3046C17.1348 9.95685 18.2308 8.86035 19.578 8.86035C19.8369 8.86035 20.0468 8.65048 20.0468 8.3916C20.0468 8.13273 19.8369 7.92285 19.578 7.92285Z" fill="#2187E5"/>
<path d="M28.6192 21.7549C29.3945 21.7549 30.0251 21.1241 30.0251 20.3486C30.0251 20.0898 29.8153 19.8799 29.5563 19.8799C29.2974 19.8799 29.0876 20.0898 29.0876 20.3486C29.0876 20.6071 28.8775 20.8174 28.6191 20.8174C28.3603 20.8174 28.1504 21.0273 28.1504 21.2861C28.1504 21.545 28.3603 21.7549 28.6192 21.7549Z" fill="#2187E5"/>
<path d="M31.5311 19.8799C31.2723 19.8799 31.0624 20.0898 31.0624 20.3486C31.0624 21.6964 29.9664 22.7929 28.6191 22.7929C28.3603 22.7929 28.1504 23.0028 28.1504 23.2616C28.1504 23.5205 28.3602 23.7304 28.6191 23.7304C30.4833 23.7304 31.9998 22.2133 31.9998 20.3486C31.9999 20.0898 31.7901 19.8799 31.5311 19.8799Z" fill="#2187E5"/>
<path d="M10.6699 23.0874H12.6789C12.9377 23.0874 13.1476 22.8775 13.1476 22.6187C13.1476 22.3598 12.9377 22.1499 12.6789 22.1499H10.6699C10.411 22.1499 10.2012 22.3598 10.2012 22.6187C10.2012 22.8775 10.411 23.0874 10.6699 23.0874Z" fill="#90ABBD"/>
<path d="M13.927 24.3374H10.6699C10.411 24.3374 10.2012 24.5473 10.2012 24.8062C10.2012 25.065 10.411 25.2749 10.6699 25.2749H13.927C14.1859 25.2749 14.3957 25.065 14.3957 24.8062C14.3957 24.5473 14.1859 24.3374 13.927 24.3374Z" fill="#90ABBD"/>
</g>
<defs>
<clipPath id="clip0_3702_6780">
<rect width="32" height="32" fill="white"/>
</clipPath>
</defs>
</svg>
