<svg width="8" height="4" viewBox="0 0 8 4" fill="currentColor" xmlns="http://www.w3.org/2000/svg">
<path d="M0.462109 0.520833C0.418359 0.479166 0.396484 0.416667 0.396484 0.333333C0.396484 0.236111 0.432942 0.15625 0.505859 0.09375C0.578776 0.0312497 0.666276 0 0.768359 0H7.02461C7.12669 0 7.21419 0.0312497 7.28711 0.09375C7.36003 0.15625 7.39648 0.236111 7.39648 0.333333C7.39648 0.402778 7.37461 0.458333 7.33086 0.5L7.28711 0.5625L4.31211 3.8125C4.18086 3.9375 4.04232 4 3.89648 4C3.75065 4 3.61211 3.9375 3.48086 3.8125L0.505859 0.5625L0.462109 0.520833Z" fill="currentColor"/>
</svg>
