<svg width="8" height="4" viewBox="0 0 8 4" fill="currentColor" xmlns="http://www.w3.org/2000/svg">
<path d="M0.930859 3.47917C0.887109 3.52083 0.865234 3.58333 0.865234 3.66667C0.865234 3.76389 0.901692 3.84375 0.974609 3.90625C1.04753 3.96875 1.13503 4 1.23711 4H7.49336C7.59544 4 7.68294 3.96875 7.75586 3.90625C7.82878 3.84375 7.86523 3.76389 7.86523 3.66667C7.86523 3.59722 7.84336 3.54167 7.79961 3.5L7.75586 3.4375L4.78086 0.1875C4.64961 0.062499 4.51107 0 4.36523 0C4.2194 0 4.08086 0.062499 3.94961 0.1875L0.974609 3.4375L0.930859 3.47917Z" fill="currentColor"/>
</svg>
