<svg width="21" height="20" viewBox="0 0 21 20" fill="none" xmlns="http://www.w3.org/2000/svg">
<g id="flaticon_7990193 2">
<path id="Vector" d="M10.3793 4.53064C11.1297 3.78021 11.1297 2.56354 10.3793 1.81311C9.62885 1.06268 8.41217 1.06268 7.66174 1.81311C6.91132 2.56353 6.91132 3.78021 7.66174 4.53064C8.41217 5.28107 9.62885 5.28107 10.3793 4.53064Z" fill="#F6B500"/>
<path id="Vector_2" d="M17.3777 1.11133H11.934C11.759 1.11133 11.6215 1.25196 11.6215 1.42383C11.6215 1.5957 11.759 1.73633 11.934 1.73633H13.8496V3.1832H14.9121C15.084 3.1832 15.2246 3.3207 15.2246 3.4957C15.2246 3.66758 15.084 3.8082 14.9121 3.8082H13.8496V5.00196H15.7715C15.9434 5.00196 16.084 5.14257 16.084 5.31446C16.084 5.48633 15.9434 5.62696 15.7715 5.62696H13.8496V6.82069H14.9121C15.084 6.82069 15.2246 6.96132 15.2246 7.13319C15.2246 7.30508 15.084 7.44569 14.9121 7.44569H13.8496V8.63944H15.7715C15.9434 8.63944 16.084 8.78007 16.084 8.95194C16.084 9.12383 15.9434 9.26444 15.7715 9.26444H13.8496V10.4582H14.9121C15.084 10.4582 15.2246 10.5988 15.2246 10.7707C15.2246 10.9426 15.084 11.0832 14.9121 11.0832H13.8496V12.2769H15.7715C15.9434 12.2769 16.084 12.4176 16.084 12.5894C16.084 12.7613 15.9434 12.9019 15.7715 12.9019H13.8496V14.0957H14.9121C15.084 14.0957 15.2246 14.2363 15.2246 14.4082C15.2246 14.5801 15.084 14.7207 14.9121 14.7207H13.8496V15.9145H15.7715C15.9434 15.9145 16.084 16.0551 16.084 16.227C16.084 16.402 15.9434 16.5395 15.7715 16.5395H13.8496V17.9863H11.0434C11.1402 17.8113 11.1965 17.6113 11.1965 17.3988V12.3082C11.3402 12.377 11.5027 12.4176 11.6715 12.4176C12.2777 12.4176 12.7684 11.9238 12.7684 11.3176V7.6457C12.7684 6.55195 11.8809 5.66446 10.7871 5.66446H7.37774C6.28399 5.66446 5.39335 6.55195 5.39335 7.6457V11.3176C5.39335 11.9238 5.88711 12.4176 6.49336 12.4176C6.66212 12.4176 6.82461 12.3801 6.96524 12.3082V17.3988C6.96524 17.6113 7.02148 17.8113 7.11836 17.9863H3.74023C3.56523 17.9863 3.42773 18.127 3.42773 18.2988C3.42773 18.4707 3.56523 18.6113 3.74023 18.6113H17.3777C17.5527 18.6113 17.6902 18.4707 17.6902 18.2988V1.42383C17.6902 1.25196 17.5527 1.11133 17.3777 1.11133Z" fill="#F6B500"/>
<path id="Subtract" fill-rule="evenodd" clip-rule="evenodd" d="M11.934 1.11133H17.3777C17.5527 1.11133 17.6902 1.25196 17.6902 1.42383V18.2988C17.6902 18.4707 17.5527 18.6113 17.3777 18.6113H3.74023C3.56523 18.6113 3.42773 18.4707 3.42773 18.2988C3.42773 18.127 3.56523 17.9863 3.74023 17.9863H7.11836C7.11786 17.9854 7.11736 17.9845 7.11686 17.9836H11.0449C11.0444 17.9845 11.0439 17.9854 11.0434 17.9863H13.8496V16.5395H15.7715C15.9434 16.5395 16.084 16.402 16.084 16.227C16.084 16.0551 15.9434 15.9145 15.7715 15.9145H13.8496V14.7207H14.9121C15.084 14.7207 15.2246 14.5801 15.2246 14.4082C15.2246 14.2363 15.084 14.0957 14.9121 14.0957H13.8496V12.9019H15.7715C15.9434 12.9019 16.084 12.7613 16.084 12.5894C16.084 12.4176 15.9434 12.2769 15.7715 12.2769H13.8496V11.0832H14.9121C15.084 11.0832 15.2246 10.9426 15.2246 10.7707C15.2246 10.5988 15.084 10.4582 14.9121 10.4582H13.8496V9.26444H15.7715C15.9434 9.26444 16.084 9.12383 16.084 8.95194C16.084 8.78007 15.9434 8.63944 15.7715 8.63944H13.8496V7.44569H14.9121C15.084 7.44569 15.2246 7.30508 15.2246 7.13319C15.2246 6.96132 15.084 6.82069 14.9121 6.82069H13.8496V5.62696H15.7715C15.9434 5.62696 16.084 5.48633 16.084 5.31446C16.084 5.14257 15.9434 5.00196 15.7715 5.00196H13.8496V3.8082H14.9121C15.084 3.8082 15.2246 3.66758 15.2246 3.4957C15.2246 3.3207 15.084 3.1832 14.9121 3.1832H13.8496V1.73633H11.934C11.759 1.73633 11.6215 1.5957 11.6215 1.42383C11.6215 1.25196 11.759 1.11133 11.934 1.11133Z" fill="#0038E0"/>
</g>
</svg>
