<svg width="16" height="16" viewBox="0 0 16 16" fill="none" xmlns="http://www.w3.org/2000/svg">
<g id="PaperPlaneTilt">
<path id="Vector" d="M14.2075 1.79267C14.0818 1.667 13.9248 1.57713 13.7528 1.5323C13.5807 1.48748 13.3998 1.48933 13.2288 1.53767H13.2194L1.22313 5.17767C1.02838 5.23379 0.855281 5.34777 0.726772 5.5045C0.598262 5.66123 0.520411 5.85331 0.503534 6.05529C0.486658 6.25727 0.531553 6.4596 0.63227 6.63549C0.732988 6.81137 0.884772 6.9525 1.06751 7.04017L6.37501 9.62517L8.95626 14.9295C9.03654 15.1009 9.16419 15.2456 9.32411 15.3468C9.48403 15.4479 9.66955 15.5011 9.85876 15.5002C9.88751 15.5002 9.91626 15.4989 9.94501 15.4964C10.1468 15.4801 10.3388 15.4024 10.4952 15.2738C10.6516 15.1452 10.765 14.9719 10.82 14.777L14.4575 2.78079C14.4575 2.77767 14.4575 2.77454 14.4575 2.77142C14.5065 2.60077 14.5091 2.42016 14.4652 2.24815C14.4212 2.07614 14.3323 1.91893 14.2075 1.79267ZM9.86438 14.4908L9.86126 14.4995V14.4952L7.35751 9.35142L10.3575 6.35142C10.4473 6.25689 10.4966 6.13101 10.495 6.00063C10.4933 5.87025 10.4408 5.74568 10.3486 5.65348C10.2564 5.56128 10.1318 5.50874 10.0014 5.50707C9.87104 5.5054 9.74517 5.55473 9.65063 5.64454L6.65064 8.64454L1.50501 6.14079H1.50063H1.50938L13.5 2.50017L9.86438 14.4908Z" fill="#8D8E92"/>
</g>
</svg>
