<svg xmlns="http://www.w3.org/2000/svg" width="18" height="19" viewBox="0 0 18 19" fill="none">
  <path d="M4.91837 11.3633C2.65616 11.3633 0.822266 13.1972 0.822266 15.4594V16.7573C0.822266 17.5801 1.41853 18.2816 2.23053 18.4142C6.90428 19.1772 11.6708 19.1772 16.3446 18.4142C17.1566 18.2816 17.7528 17.5801 17.7528 16.7573V15.4594C17.7528 13.1972 15.919 11.3633 13.6567 11.3633H13.2844C13.0829 11.3633 12.8826 11.3951 12.6911 11.4577L11.7457 11.7664C10.1484 12.288 8.42669 12.288 6.82944 11.7664L5.88404 11.4577C5.69248 11.3951 5.49222 11.3633 5.2907 11.3633H4.91837Z" fill="#0038E0"/>
  <path d="M9.28751 0.988281C7.0253 0.988281 5.19141 2.82217 5.19141 5.08439C5.19141 7.34661 7.0253 9.1805 9.28751 9.1805C11.5497 9.1805 13.3836 7.34661 13.3836 5.08439C13.3836 2.82217 11.5497 0.988281 9.28751 0.988281Z" fill="#F6B500"/>
</svg>
