<svg width="32" height="32" viewBox="0 0 32 32" fill="none" xmlns="http://www.w3.org/2000/svg">
<rect width="32" height="32" rx="16" fill="#01040D" fill-opacity="0.65"/>
<path d="M21.2073 15.8333C21.2076 15.9857 21.1686 16.1355 21.0939 16.2683C21.0192 16.4011 20.9114 16.5123 20.781 16.5911L12.7 21.5346C12.5637 21.618 12.4077 21.6636 12.248 21.6665C12.0882 21.6695 11.9306 21.6297 11.7914 21.5514C11.6535 21.4743 11.5386 21.3618 11.4585 21.2256C11.3785 21.0894 11.3362 20.9343 11.3359 20.7763V10.8904C11.3362 10.7324 11.3785 10.5773 11.4585 10.4411C11.5386 10.3048 11.6535 10.1924 11.7914 10.1153C11.9306 10.0369 12.0882 9.9972 12.248 10.0002C12.4077 10.0031 12.5637 10.0487 12.7 10.1321L20.781 15.0756C20.9114 15.1544 21.0192 15.2656 21.0939 15.3984C21.1686 15.5311 21.2076 15.681 21.2073 15.8333Z" fill="white"/>
</svg>
