<svg width="24" height="24" viewBox="0 0 24 24" fill="none" xmlns="http://www.w3.org/2000/svg">
<g clip-path="url(#clip0_3702_7019)">
<path d="M23.7924 4.98877L18.5177 2.92004C18.3593 2.85797 18.1952 2.81164 18.0277 2.78198L15.8629 2.39746H8.13691L5.97206 2.78198C5.80452 2.81164 5.64046 2.85797 5.48207 2.92004L0.20736 4.98877C0.0526357 5.04937 -0.0319589 5.21691 0.011254 5.3775L1.35689 10.3913C1.39992 10.5511 1.56875 10.6418 1.72548 10.589L4.78938 9.55999C5.03584 9.47722 5.29091 9.66051 5.29091 9.92052V22.5742C5.29091 22.7368 5.42256 22.8684 5.58516 22.8684H18.4148C18.5772 22.8684 18.709 22.7368 18.709 22.5742V9.92052C18.709 9.66051 18.9641 9.47722 19.2106 9.55999L22.2743 10.589C22.4312 10.6418 22.6 10.5511 22.6429 10.3913L23.9887 5.3775C24.0317 5.21691 23.9473 5.04937 23.7924 4.98877Z" fill="#4B98D4"/>
<path d="M1.37715 4.53027L0.207476 4.98895C0.0525691 5.04956 -0.0318424 5.2171 0.0111873 5.37768L1.35701 10.3915C1.39986 10.5513 1.56868 10.642 1.7256 10.5892L2.85188 10.2109L1.37715 4.53027Z" fill="#72BDF6"/>
<path d="M2.2986 10.3915L0.842735 4.73975L0.20736 4.98895C0.0526357 5.04956 -0.0319589 5.2171 0.011254 5.37768L1.35689 10.3915C1.39992 10.5513 1.56875 10.642 1.72548 10.5892L2.30025 10.3962C2.2997 10.3946 2.29915 10.3931 2.2986 10.3915Z" fill="#4B98D4"/>
<path d="M10.0684 1.17188L11.9998 5.14819L13.9313 1.17188H10.0684Z" fill="#4B98D4"/>
<path d="M11.0342 1.17188H10.0684L11.9998 5.14819L12.5685 3.97723L11.0342 1.17188Z" fill="#2472B2"/>
<path d="M12.363 8.39086V4.9657L12.0009 4.76172L11.6387 4.9657V8.39086C11.6387 8.59081 11.8007 8.75305 12.0009 8.75305C12.201 8.75305 12.363 8.59081 12.363 8.39086Z" fill="#2472B2"/>
<path d="M23.793 4.98895L22.5788 4.5127L21.1035 10.1957L22.2748 10.5892C22.4318 10.642 22.6006 10.5513 22.6434 10.3915L23.9893 5.37768C24.0323 5.2171 23.9479 5.04956 23.793 4.98895Z" fill="#72BDF6"/>
<path d="M10.0683 1.17188L8.13672 2.3974L9.78448 5.5296C9.89105 5.73229 10.1439 5.80682 10.3433 5.69457L11.9997 4.76184L10.0683 1.17188Z" fill="#72BDF6"/>
<path d="M13.9316 1.17188L15.863 2.3974L14.2152 5.5296C14.1086 5.73229 13.8558 5.80682 13.6564 5.69457L12 4.76184L13.9316 1.17188Z" fill="#72BDF6"/>
<path d="M6.23401 22.5743V9.92066C6.23401 9.66065 5.97894 9.47736 5.73248 9.56013L5.23828 9.7262C5.27197 9.78242 5.29211 9.84852 5.29211 9.92066V22.5743C5.29211 22.7369 5.42395 22.8686 5.58636 22.8686H6.52826C6.36566 22.8686 6.23401 22.7369 6.23401 22.5743Z" fill="#2472B2"/>
<path d="M5.29102 21.3242V22.5739C5.29102 22.7365 5.42267 22.8682 5.58527 22.8682H18.4147C18.5773 22.8682 18.709 22.7363 18.709 22.5739V21.3242H5.29102Z" fill="#72BDF6"/>
<path d="M5.29102 21.3242V22.5739C5.29102 22.7365 5.42267 22.8682 5.58527 22.8682H6.52679C6.36438 22.868 6.23273 22.7363 6.23273 22.5739V21.3242H5.29102Z" fill="#4B98D4"/>
</g>
<defs>
<clipPath id="clip0_3702_7019">
<rect width="24" height="24" fill="white"/>
</clipPath>
</defs>
</svg>
