<svg width="23" height="25" viewBox="0 0 23 25" fill="none" xmlns="http://www.w3.org/2000/svg">
<g opacity="0.55" clip-path="url(#clip0_413_84216)">
<path d="M9.34375 3.90625V0.78125L13.6562 0.78125V3.90625L9.34375 3.90625Z" fill="currentColor"/>
<path d="M12.9375 12.5C12.9375 11.6371 12.2939 10.9375 11.5 10.9375C10.7061 10.9375 10.0625 11.6371 10.0625 12.5C10.0625 13.3629 10.7061 14.0625 11.5 14.0625C12.2939 14.0625 12.9375 13.3629 12.9375 12.5Z" fill="currentColor"/>
<path d="M3.59375 3.125L3.59375 11.7188H8.72563C8.89114 11.0567 9.25247 10.4723 9.75387 10.0557C10.2553 9.63902 10.8689 9.41328 11.5 9.41328C12.1311 9.41328 12.7447 9.63902 13.2461 10.0557C13.7475 10.4723 14.1089 11.0567 14.2744 11.7188L19.4062 11.7188V3.125C19.4062 2.5034 19.1791 1.90726 18.7747 1.46772C18.3703 1.02818 17.8219 0.78125 17.25 0.78125H15.0938V4.6875C15.0938 4.8947 15.018 5.09341 14.8832 5.23993C14.7484 5.38644 14.5656 5.46875 14.375 5.46875L8.625 5.46875C8.43438 5.46875 8.25156 5.38644 8.11677 5.23993C7.98198 5.09341 7.90625 4.8947 7.90625 4.6875L7.90625 0.78125H5.75C5.17813 0.78125 4.62968 1.02818 4.2253 1.46772C3.82093 1.90726 3.59375 2.5034 3.59375 3.125Z" fill="currentColor"/>
<path d="M11.5 15.625C10.8642 15.6228 10.2471 15.3915 9.74507 14.9674C9.24308 14.5434 8.88457 13.9504 8.72563 13.2812H3.59375L3.59375 21.875C3.59375 22.4966 3.82093 23.0927 4.2253 23.5323C4.62968 23.9718 5.17813 24.2188 5.75 24.2188H7.90625V20.3125C7.90625 20.1053 7.98198 19.9066 8.11677 19.7601C8.25156 19.6136 8.43438 19.5312 8.625 19.5312H14.375C14.5656 19.5312 14.7484 19.6136 14.8832 19.7601C15.018 19.9066 15.0938 20.1053 15.0938 20.3125V24.2188H17.25C17.8219 24.2188 18.3703 23.9718 18.7747 23.5323C19.1791 23.0927 19.4062 22.4966 19.4062 21.875V13.2813L14.2744 13.2812C14.1154 13.9504 13.7569 14.5434 13.2549 14.9674C12.7529 15.3915 12.1358 15.6228 11.5 15.625Z" fill="currentColor"/>
<path d="M9.34375 24.2188V21.0938H13.6562V24.2188H9.34375Z" fill="currentColor"/>
</g>
<defs>
<clipPath id="clip0_413_84216">
<rect width="25" height="23" fill="white" transform="matrix(0 -1 1 0 0 25)"/>
</clipPath>
</defs>
</svg>
