<svg width="39" height="39" viewBox="0 0 39 39" fill="none" xmlns="http://www.w3.org/2000/svg">
<path d="M35.7467 5.20293C37.0949 5.20293 38.2146 6.23125 38.3365 7.57188C38.3441 7.64805 38.3518 7.72422 38.3518 7.80801V28.6105C38.3518 30.0502 37.1863 31.208 35.7543 31.208H17.5492C17.5492 31.208 8.84277 37.4389 8.83516 37.4465C8.62188 37.5988 8.36289 37.6902 8.10391 37.6979C8.09629 37.7055 8.08105 37.7055 8.07344 37.6979C8.04297 37.7055 8.0125 37.7055 7.98203 37.7055C7.50215 37.6902 7.06035 37.4541 6.77852 37.0656C6.77852 37.0656 6.7709 37.058 6.7709 37.0504C6.5957 36.8143 6.5043 36.5248 6.5043 36.2277V31.2004H3.25176C1.81211 31.2004 0.654297 30.035 0.654297 28.6029V7.80039C0.654297 7.72422 0.661914 7.64805 0.669531 7.56426C0.791406 6.22363 1.91113 5.19531 3.25937 5.19531H35.7467V5.20293Z" fill="#FFF7B1"/>
</svg>
