<svg width="6" height="8" viewBox="0 0 6 8" fill="none" xmlns="http://www.w3.org/2000/svg">
<path d="M0.13396 5.11699L2.88396 7.86699C2.95063 7.93366 3.05063 7.93366 3.11729 7.86699L5.86729 5.11699C5.91729 5.06699 5.93396 5.00033 5.90063 4.93366C5.88396 4.88366 5.81729 4.83366 5.75063 4.83366L4.23396 4.83366L4.23396 0.250325C4.23396 0.150325 4.16729 0.0836585 4.06729 0.0836585L1.95063 0.0836583C1.85063 0.0836583 1.78396 0.150325 1.78396 0.250325L1.78396 4.83366L0.267293 4.83366C0.200627 4.83366 0.133961 4.86699 0.117294 4.93366C0.0672939 5.00032 0.0839603 5.06699 0.13396 5.11699Z" fill="#E77C7C"/>
</svg>
