<svg width="232" height="158" viewBox="0 0 232 158" fill="none" xmlns="http://www.w3.org/2000/svg">
    <g clip-path="url(#clip0_4_31)">
        <g mask="url(#mask0_4_31)">
            <path d="M6 315H226C229.314 315 232 312.314 232 309L232 6C232 2.68628 229.314 0 226 0H6C2.68629 0 0 2.68628 0 6L0 309C0 312.314 2.68629 315 6 315Z" fill="#105B16"/>
            <path opacity="0.3" d="M220.071 0C226.699 0 232.072 5.37258 232.072 12V25L-0.0709991 25V12C-0.0709991 5.37258 5.301 0 11.929 0L220.071 0Z" fill="#044009"/>
            <path opacity="0.3" d="M232.072 85V55L-0.0714722 55V85L232.072 85Z" fill="#044009"/>
            <path opacity="0.3" d="M232.072 145V115L-0.0714722 115V145H232.072Z" fill="#044009"/>
            <path d="M5.92853 314H226.072C228.833 314 231.072 311.761 231.072 309L231.072 6C231.072 3.23859 228.833 1 226.072 1H5.92853C3.1671 1 0.928528 3.23859 0.928528 6L0.928528 309C0.928528 311.761 3.1671 314 5.92853 314Z" stroke="white" stroke-width="2"/>
            <path d="M115.913 70C131.791 70 144.787 56.115 144.787 38.8281C144.787 21.5413 131.791 7.65625 115.913 7.65625C100.035 7.65625 87.039 21.5413 87.039 38.8281C87.039 56.115 100.035 70 115.913 70Z" fill="#248257" stroke="white" stroke-width="2"/>
            <path d="M61.286 46.1484L61.286 1L170.54 0.99999L170.54 46.1484L61.286 46.1484Z" fill="#248257" stroke="white" stroke-width="2"/>
            <path d="M88.584 23.9609L88.584 1L143.241 0.999995L143.241 23.9609L88.584 23.9609Z" fill="#248257" stroke="white" stroke-width="2"/>
            <path d="M117 124C135.225 124 150 138.775 150 157C150 175.225 135.225 190 117 190C98.775 190 84 175.225 84 157C84 138.775 98.775 124 117 124Z" fill="#248257" stroke="white" stroke-width="2"/>
            <path d="M1.786 157H232.071" stroke="white" stroke-width="2"/>
            <path d="M119.143 157C119.143 155.895 118.248 155 117.143 155C116.038 155 115.143 155.895 115.143 157C115.143 158.105 116.038 159 117.143 159C118.248 159 119.143 158.105 119.143 157Z" fill="white" stroke="white" stroke-width="2"/>
        </g>
    </g>
    <defs>
        <clipPath id="clip0_4_31">
            <rect width="158" height="232" fill="white" transform="matrix(0 1 -1 0 232 0)"/>
        </clipPath>
    </defs>
</svg>
