<svg width="19" height="19" viewBox="0 0 19 19" xmlns="http://www.w3.org/2000/svg"
  stroke="currentColor"
  fill="currentColor">
  <g clip-path="url(#clip0_49_30639)">
    <path
      d="M10.3867 19H8.61333C8.01404 19 7.50817 18.5511 7.43692 17.955L7.24771 16.4698C6.87008 16.3471 6.50592 16.1959 6.15996 16.0194L4.97721 16.9385C4.49746 17.3098 3.82217 17.267 3.40575 16.8388L2.15887 15.5919C1.73375 15.1794 1.691 14.5041 2.06229 14.0252L2.98142 12.8416C2.80408 12.4957 2.65288 12.1315 2.53096 11.7539L1.04263 11.5647C0.448875 11.4918 0 10.986 0 10.3867V8.61333C0 8.01404 0.448875 7.50817 1.045 7.43692L2.53017 7.24771C2.65288 6.87008 2.80408 6.50592 2.98063 6.15996L2.06229 4.97721C1.69021 4.49746 1.73375 3.82138 2.16283 3.40496L3.40971 2.15808C3.82217 1.73296 4.49825 1.691 4.97642 2.0615L6.15917 2.98142C6.50513 2.80488 6.86929 2.65367 7.24771 2.53096L7.43692 1.04263C7.50817 0.448875 8.01404 0 8.61333 0H10.3867C10.986 0 11.4918 0.448875 11.5631 1.045L11.7523 2.53017C12.1307 2.65288 12.4949 2.80408 12.8408 2.98063L14.0236 2.0615C14.5041 1.69021 15.1786 1.73296 15.595 2.16204L16.8419 3.40892C17.267 3.82138 17.3098 4.49667 16.9385 4.97563L16.0194 6.15917C16.1967 6.50513 16.3479 6.86929 16.4698 7.24692L17.9582 7.43612C18.5511 7.50817 19 8.01404 19 8.61333V10.3867C19 10.986 18.5511 11.4918 17.955 11.5631L16.4698 11.7523C16.3471 12.1299 16.1959 12.4941 16.0194 12.84L16.9385 14.0228C17.3106 14.5025 17.267 15.1778 16.838 15.5943L15.5911 16.8411C15.1786 17.2663 14.5025 17.3098 14.0244 16.9377L12.8408 16.0186C12.4949 16.1959 12.1307 16.3471 11.7531 16.469L11.5639 17.9574C11.4918 18.5511 10.986 19 10.3867 19ZM6.11958 15.1525C6.18529 15.1525 6.25258 15.1691 6.31275 15.2024C6.74896 15.4462 7.22158 15.6425 7.71717 15.785C7.86917 15.8286 7.98079 15.9584 8.00058 16.1152L8.22225 17.8568C8.246 18.0555 8.41779 18.2083 8.61333 18.2083H10.3867C10.5822 18.2083 10.754 18.0555 10.777 17.8608L10.9994 16.116C11.0192 15.9592 11.1308 15.8294 11.2828 15.7858C11.7784 15.6433 12.251 15.447 12.6872 15.2032C12.8258 15.1256 12.9984 15.139 13.1227 15.2364L14.5081 16.3131C14.6672 16.4366 14.8905 16.4263 15.0266 16.2862L16.2814 15.0314C16.4247 14.892 16.4358 14.6688 16.3123 14.5089L15.2356 13.1235C15.1383 12.9984 15.1248 12.8266 15.2024 12.688C15.4462 12.2518 15.6425 11.7792 15.785 11.2836C15.8286 11.1316 15.9584 11.02 16.1152 11.0002L17.8568 10.7785C18.0555 10.754 18.2083 10.5822 18.2083 10.3867V8.61333C18.2083 8.41779 18.0555 8.246 17.8608 8.22304L16.116 8.00058C15.9592 7.98079 15.8294 7.86917 15.7858 7.71717C15.6433 7.22158 15.447 6.74896 15.2032 6.31275C15.1256 6.17421 15.1383 6.00242 15.2364 5.87733L16.3131 4.49192C16.4374 4.332 16.4263 4.10875 16.287 3.97417L15.0322 2.71938C14.8936 2.57529 14.6696 2.56421 14.5097 2.6885L13.1242 3.76517C12.9984 3.86254 12.8266 3.876 12.688 3.79842C12.2534 3.55458 11.7808 3.35904 11.2836 3.21575C11.1316 3.17221 11.02 3.04238 11.0002 2.88563L10.7785 1.14396C10.754 0.944458 10.5822 0.791667 10.3867 0.791667H8.61333C8.41779 0.791667 8.246 0.944458 8.22304 1.13921L8.00058 2.88404C7.98079 3.04079 7.86917 3.17062 7.71717 3.21496C7.22 3.35746 6.74738 3.55379 6.31275 3.79683C6.17421 3.87521 6.00242 3.86096 5.87654 3.76438L4.49113 2.68771C4.33121 2.56342 4.10875 2.5745 3.97338 2.71383L2.71858 3.96942C2.57529 4.10875 2.56421 4.332 2.68771 4.49192L3.76438 5.87733C3.86175 6.00242 3.87521 6.17421 3.79763 6.31275C3.553 6.74896 3.35746 7.22158 3.21496 7.71717C3.17142 7.86917 3.04158 7.98079 2.88483 8.00058L1.14317 8.22225C0.944458 8.246 0.791667 8.41779 0.791667 8.61333V10.3867C0.791667 10.5822 0.944458 10.754 1.13921 10.777L2.88404 10.9994C3.04079 11.0192 3.17062 11.1308 3.21417 11.2828C3.35667 11.7784 3.553 12.251 3.79683 12.6872C3.87442 12.8258 3.86175 12.9976 3.76358 13.1227L2.68692 14.5081C2.56263 14.668 2.57371 14.8912 2.71304 15.0258L3.96783 16.2806C4.10638 16.4239 4.32883 16.435 4.49033 16.3115L5.87575 15.2348C5.94779 15.181 6.03329 15.1525 6.11958 15.1525Z"
      fill="none" />
    <path
      d="M9.49996 13.4584C7.31733 13.4584 5.54163 11.6826 5.54163 9.50002C5.54163 7.3174 7.31733 5.54169 9.49996 5.54169C11.6826 5.54169 13.4583 7.3174 13.4583 9.50002C13.4583 11.6826 11.6826 13.4584 9.49996 13.4584ZM9.49996 6.33335C7.75354 6.33335 6.33329 7.7536 6.33329 9.50002C6.33329 11.2464 7.75354 12.6667 9.49996 12.6667C11.2464 12.6667 12.6666 11.2464 12.6666 9.50002C12.6666 7.7536 11.2464 6.33335 9.49996 6.33335Z"
      fill="none" />
  </g>
  <defs>
    <clipPath id="clip0_49_30639">
      <rect width="19" height="19" fill="white" />
    </clipPath>
  </defs>
</svg>