<svg width="11" height="12" viewBox="0 0 11 12" fill="none" xmlns="http://www.w3.org/2000/svg">
<path d="M4.19795 10.2488L3.68139 10.7654C2.86827 11.5785 1.54837 11.5785 0.733621 10.7654C-0.0795014 9.95223 -0.0795014 8.63233 0.733621 7.81758L1.25017 7.30103L4.19795 10.2488Z" fill="white"/>
<path d="M4.19785 10.2486L3.6813 10.7652C2.86655 11.5799 1.54828 11.5799 0.735155 10.7668L0.733526 10.7652C0.474435 10.5061 0.300078 10.1981 0.205566 9.87058C0.22675 9.89503 0.251193 9.91947 0.275635 9.94391C1.09039 10.7587 2.40866 10.7587 3.22178 9.94554L3.55746 9.60986L4.19785 10.2486Z" fill="#E5E8F9"/>
<path d="M2.20672 11.4987C1.61683 11.4987 1.0628 11.2689 0.647279 10.8518C0.230126 10.4346 0.000366211 9.88059 0.000366211 9.29234C0.000366211 8.70246 0.230126 8.14843 0.647279 7.7329L1.16383 7.21635C1.21109 7.16909 1.2893 7.16909 1.33656 7.21635L4.28433 10.1641C4.30715 10.1869 4.32018 10.2179 4.32018 10.2505C4.32018 10.2831 4.30715 10.314 4.28433 10.3369L3.76615 10.8534C3.35063 11.2689 2.7966 11.4987 2.20672 11.4987ZM1.2502 7.47381L0.820007 7.904C0.45011 8.2739 0.244792 8.76764 0.244792 9.29071C0.244792 9.81541 0.44848 10.3075 0.820007 10.6774C1.1899 11.0473 1.68364 11.2526 2.20672 11.2526C2.72979 11.2526 3.22353 11.0489 3.59342 10.6774L4.02524 10.2472L1.2502 7.47381Z" fill="#171B2E"/>
<path d="M1.03841 10.0728C1.01723 10.0728 0.997676 10.063 0.98627 10.0435C0.714143 9.6019 0.701107 9.04624 0.955309 8.59486C0.971605 8.56553 1.00908 8.55413 1.03841 8.57205C1.06775 8.58835 1.07915 8.62582 1.06286 8.65516C0.831467 9.06905 0.842874 9.57745 1.09219 9.97994C1.11011 10.0093 1.10034 10.0468 1.07263 10.0647C1.06123 10.0696 1.04982 10.0728 1.03841 10.0728Z" fill="white"/>
<path d="M5.65483 1.91383L2.53922 7.19179L1.94934 6.60191L4.12147 1.161C4.3496 0.58904 5.08777 0.437496 5.52284 0.872574C5.79986 1.14959 5.85363 1.57652 5.65483 1.91383Z" fill="#E5E8F9"/>
<path d="M2.53918 7.19025L1.95093 6.602L2.36319 5.56726L3.07692 6.27935L2.53918 7.19025Z" fill="#D6DBF2"/>
<path d="M6.87367 3.33147L3.12907 7.78002L2.53918 7.19014L5.42993 2.29185C5.71509 1.80952 6.37667 1.72641 6.77264 2.12238L6.82315 2.1729C7.13928 2.48902 7.16046 2.99091 6.87367 3.33147Z" fill="white"/>
<path d="M8.05502 4.7199L3.71891 8.36999L3.12903 7.78011L6.77912 3.444C7.10176 3.05944 7.68512 3.035 8.04035 3.39023L8.10879 3.45867C8.46403 3.8139 8.43958 4.39563 8.05502 4.7199Z" fill="#E5E8F9"/>
<path d="M4.62825 7.6039L3.71899 8.36977L3.13074 7.78151L3.79232 6.99609L3.89498 7.09875C4.11007 7.31385 4.35938 7.48169 4.62825 7.6039Z" fill="#D6DBF2"/>
<path d="M8.09404 4.68433C8.08101 4.69736 8.06797 4.7104 8.0533 4.7218L4.45862 7.7152L8.09404 4.68433Z" fill="#A9DCEA"/>
<path d="M9.20545 6.06905L4.30717 8.95979L3.71729 8.36991L8.16583 4.6253C8.5064 4.33851 9.00829 4.36132 9.32278 4.67419L9.37329 4.7247C9.77089 5.12067 9.68779 5.78388 9.20545 6.06905Z" fill="white"/>
<path d="M10.3379 7.37755L4.89701 9.54968L4.30713 8.9598L9.58509 5.84418C9.92077 5.64538 10.3493 5.69916 10.6263 5.97617C11.0614 6.41125 10.9099 7.14942 10.3379 7.37755Z" fill="#E5E8F9"/>
<path d="M10.8774 6.57899C10.8774 6.91141 10.6868 7.23731 10.338 7.37745L4.89713 9.54958L4.30725 8.9597L6.51197 7.65935C6.52501 7.65609 6.53967 7.6512 6.55271 7.64306L10.4847 6.07547C10.5401 6.05266 10.5906 6.02496 10.6395 5.994C10.6362 5.98748 10.6314 5.98259 10.6265 5.97607C10.7959 6.14717 10.8774 6.3639 10.8774 6.57899Z" fill="#D6DBF2"/>
<path d="M3.12894 7.77995L2.53906 7.19007L3.0768 6.27917L3.79052 6.99453L3.12894 7.77995Z" fill="#E5E8F9"/>
<path d="M6.51184 7.65786L4.30712 8.95983L3.71887 8.37158L4.62814 7.60571C5.21476 7.86643 5.891 7.89576 6.51184 7.65786Z" fill="#E5E8F9"/>
<path d="M2.53914 7.31385C2.50655 7.31385 2.47559 7.30081 2.45278 7.278L1.8629 6.68812C1.82868 6.6539 1.81727 6.60175 1.83519 6.55613L4.00732 1.11521C4.12954 0.808865 4.39514 0.585623 4.71942 0.518813C5.04369 0.452003 5.37448 0.551403 5.60913 0.786052C5.92525 1.10218 5.98717 1.59103 5.76067 1.97559L2.64506 7.25355C2.6255 7.28614 2.59291 7.30733 2.55543 7.31222C2.54892 7.31222 2.54403 7.31385 2.53914 7.31385ZM2.09266 6.57242L2.51307 6.99283L5.54883 1.85175C5.71993 1.56333 5.67268 1.19669 5.4364 0.958779C5.26204 0.784422 5.0111 0.709465 4.76993 0.75835C4.52714 0.808865 4.32834 0.975074 4.23545 1.20483L2.09266 6.57242Z" fill="#171B2E"/>
<path d="M3.64719 3.51088C3.63741 3.51088 3.62764 3.50925 3.61949 3.50436C3.59016 3.48807 3.57875 3.45222 3.59342 3.42126L4.2941 2.08507C4.3104 2.05573 4.34625 2.04433 4.37721 2.05899C4.40654 2.07529 4.41795 2.11114 4.40328 2.1421L3.70259 3.47829C3.68956 3.49948 3.66838 3.51088 3.64719 3.51088Z" fill="white"/>
<path d="M3.12889 7.9021C3.0963 7.9021 3.06534 7.88906 3.04253 7.86625L2.45265 7.27637C2.41354 7.23726 2.40539 7.17534 2.4331 7.12808L5.32384 2.22979C5.47864 1.96744 5.74099 1.79471 6.04408 1.75561C6.34717 1.7165 6.64373 1.81916 6.85883 2.03425L6.91097 2.08803C7.27272 2.44978 7.29717 3.01847 6.96801 3.40955L3.22341 7.8581C3.20059 7.88417 3.16963 7.90047 3.13541 7.9021C3.13215 7.9021 3.13052 7.9021 3.12889 7.9021ZM2.69219 7.17208L3.12075 7.60064L6.78061 3.25312C7.0283 2.95981 7.01037 2.53288 6.73825 2.26075L6.68773 2.21024C6.52641 2.04892 6.30317 1.97233 6.07667 2.00166C5.85017 2.03099 5.653 2.15972 5.5373 2.35689L2.69219 7.17208Z" fill="#171B2E"/>
<path d="M3.7188 8.49204C3.68784 8.49204 3.65688 8.48063 3.63243 8.45619L3.04255 7.86631C2.99693 7.82068 2.9953 7.74898 3.03604 7.70173L6.68613 3.36562C6.86211 3.15704 7.11957 3.02994 7.39333 3.01853C7.66872 3.0055 7.93433 3.11141 8.12661 3.3037L8.19505 3.37214C8.38896 3.56442 8.49325 3.83329 8.48021 4.10541C8.4688 4.37917 8.3417 4.63663 8.13313 4.81262L3.79701 8.46271C3.7742 8.48226 3.7465 8.49204 3.7188 8.49204ZM3.29513 7.77343L3.72532 8.20362L7.97669 4.62522C8.13638 4.4916 8.22927 4.30258 8.23741 4.09564C8.24556 3.88706 8.1706 3.69152 8.02232 3.54486L7.95388 3.47642C7.80722 3.32977 7.61005 3.25155 7.40311 3.26296C7.19453 3.27111 7.00714 3.36399 6.87352 3.52368L3.29513 7.77343Z" fill="#171B2E"/>
<path d="M4.30708 9.08208C4.27612 9.08208 4.24353 9.06904 4.22071 9.04623L3.63083 8.45635C3.60639 8.43191 3.59336 8.39931 3.59498 8.36509C3.59661 8.33087 3.61291 8.29829 3.63898 8.2771L8.08753 4.5325C8.47861 4.20334 9.04731 4.22778 9.40906 4.58953L9.45957 4.64005C9.67467 4.85514 9.77732 5.15334 9.73822 5.4548C9.69911 5.75789 9.52801 6.01861 9.26566 6.17504L4.37063 9.06415C4.35107 9.07556 4.32989 9.08208 4.30708 9.08208ZM3.89807 8.37813L4.32663 8.80669L9.14345 5.96321C9.34062 5.84751 9.46935 5.65034 9.49868 5.42384C9.52801 5.19734 9.45142 4.9741 9.2901 4.81278L9.23959 4.76226C8.96746 4.49013 8.54216 4.47221 8.24722 4.71989L3.89807 8.37813Z" fill="#171B2E"/>
<path d="M4.89702 9.67219C4.86443 9.67219 4.83347 9.65915 4.81066 9.63634L4.22078 9.04646C4.19471 9.02039 4.18167 8.98291 4.18656 8.9438C4.19145 8.90632 4.21263 8.87373 4.24522 8.85418L9.52319 5.73856C9.90775 5.51206 10.3966 5.57398 10.7127 5.88848C10.9457 6.1215 11.0451 6.45392 10.98 6.77819C10.9132 7.10083 10.6915 7.36807 10.3836 7.49028L4.94265 9.66241C4.92798 9.66893 4.91332 9.67219 4.89702 9.67219ZM4.50594 8.98454L4.92635 9.40495L10.2923 7.26215C10.5221 7.1709 10.6899 6.97047 10.7388 6.72767C10.7893 6.48488 10.7144 6.23556 10.5384 6.06121C10.3021 5.82493 9.93545 5.77767 9.6454 5.94877L4.50594 8.98454Z" fill="#171B2E"/>
<path d="M1.43042 7.11926L1.94769 6.60199L4.89466 9.54896L4.37739 10.0662L1.43042 7.11926Z" fill="#666666"/>
<path d="M3.73718 9.4259L4.25454 8.90855L4.89518 9.54919L4.37783 10.0665L3.73718 9.4259Z" fill="#595857"/>
<path d="M4.3789 10.1886C4.34794 10.1886 4.31698 10.1772 4.29254 10.1527L1.3464 7.20658C1.32358 7.18376 1.31055 7.1528 1.31055 7.12021C1.31055 7.08762 1.32358 7.05666 1.3464 7.03385L1.86458 6.51567C1.91183 6.46841 1.99005 6.46841 2.03731 6.51567L4.98508 9.46344C5.00789 9.48625 5.02093 9.51721 5.02093 9.5498C5.02093 9.58239 5.00789 9.61335 4.98508 9.63617L4.4669 10.1544C4.44245 10.1772 4.41149 10.1886 4.3789 10.1886ZM1.60549 7.12021L4.3789 9.89363L4.72436 9.54817L1.94931 6.77476L1.60549 7.12021Z" fill="#171B2E"/>
<path d="M0.91394 7.63672L1.43122 7.11944L4.37818 10.0664L3.86091 10.5837L0.91394 7.63672Z" fill="#FF4848"/>
<path d="M3.21948 9.94397L3.73684 9.42662L4.37748 10.0673L3.86012 10.5846L3.21948 9.94397Z" fill="#F91C1C"/>
<path d="M3.8623 10.7067C3.82971 10.7067 3.79875 10.6936 3.77594 10.6708L0.828166 7.72305C0.780911 7.6758 0.780911 7.59758 0.828166 7.55033L1.34635 7.03214C1.39197 6.98652 1.47345 6.98652 1.51908 7.03214L4.46685 9.97992C4.51411 10.0272 4.51411 10.1054 4.46685 10.1526L3.94867 10.6708C3.92585 10.6936 3.89489 10.7067 3.8623 10.7067ZM1.08726 7.63669L3.8623 10.4117L4.20776 10.0663L1.43271 7.29286L1.08726 7.63669Z" fill="#171B2E"/>
</svg>
