<svg width="17" height="17" viewBox="0 0 17 17" fill="none" xmlns="http://www.w3.org/2000/svg">
    <path d="M14.0175 4.30175H7.70173C7.32278 4.30175 7.07015 4.04912 7.07015 3.67017C7.07015 3.29123 7.32278 3.0386 7.70173 3.0386H14.0175C14.3964 3.0386 14.6491 3.29123 14.6491 3.67017C14.6491 4.04912 14.3333 4.30175 14.0175 4.30175Z"
          fill="#8D8E92"/>
    <path d="M4.85841 14.7227C4.66893 14.7227 4.54262 14.6595 4.4163 14.5332L1.89 12.0069C1.63737 11.7543 1.63737 11.3753 1.89 11.1227C2.14263 10.87 2.52158 10.87 2.77421 11.1227L5.30051 13.649C5.55314 13.9016 5.55314 14.2806 5.30051 14.5332C5.17419 14.6595 4.98472 14.7227 4.85841 14.7227Z"
          fill="#8D8E92"/>
    <path d="M4.85964 14.7226C4.48069 14.7226 4.22806 14.4699 4.22806 14.091V3.35423C4.22806 2.97529 4.48069 2.72266 4.85964 2.72266C5.23858 2.72266 5.49121 2.97529 5.49121 3.35423V14.091C5.49121 14.4699 5.17543 14.7226 4.85964 14.7226Z"
          fill="#8D8E92"/>
    <path d="M12.7543 7.45931H7.70173C7.32278 7.45931 7.07015 7.20668 7.07015 6.82774C7.07015 6.44879 7.32278 6.19616 7.70173 6.19616H12.7543C13.1333 6.19616 13.3859 6.44879 13.3859 6.82774C13.3859 7.20668 13.0701 7.45931 12.7543 7.45931Z"
          fill="#8D8E92"/>
    <path d="M11.4912 10.6173H7.70173C7.32278 10.6173 7.07015 10.3647 7.07015 9.98577C7.07015 9.60682 7.32278 9.35419 7.70173 9.35419H11.4912C11.8701 9.35419 12.1228 9.60682 12.1228 9.98577C12.1228 10.3647 11.807 10.6173 11.4912 10.6173Z"
          fill="#8D8E92"/>
    <path d="M10.228 13.7754H7.70173C7.32278 13.7754 7.07015 13.5227 7.07015 13.1438C7.07015 12.7649 7.32278 12.5122 7.70173 12.5122H10.228C10.607 12.5122 10.8596 12.7649 10.8596 13.1438C10.8596 13.5227 10.5438 13.7754 10.228 13.7754Z"
          fill="#8D8E92"/>
</svg>
