<svg width="16" height="16" viewBox="0 0 16 16" fill="none" xmlns="http://www.w3.org/2000/svg">
<path d="M14.2005 3.33333H7.53385C7.13385 3.33333 6.86719 3.06667 6.86719 2.66667C6.86719 2.26667 7.13385 2 7.53385 2H14.2005C14.6005 2 14.8672 2.26667 14.8672 2.66667C14.8672 3.06667 14.5339 3.33333 14.2005 3.33333Z" fill="#AAAAAA"/>
<path d="M4.53353 14.333C4.33353 14.333 4.2002 14.2663 4.06686 14.133L1.4002 11.4663C1.13353 11.1997 1.13353 10.7997 1.4002 10.533C1.66686 10.2663 2.06686 10.2663 2.33353 10.533L5.0002 13.1997C5.26686 13.4663 5.26686 13.8663 5.0002 14.133C4.86686 14.2663 4.66686 14.333 4.53353 14.333Z" fill="#AAAAAA"/>
<path d="M4.53385 14.3332C4.13385 14.3332 3.86719 14.0665 3.86719 13.6665V2.33317C3.86719 1.93317 4.13385 1.6665 4.53385 1.6665C4.93385 1.6665 5.20052 1.93317 5.20052 2.33317V13.6665C5.20052 14.0665 4.86719 14.3332 4.53385 14.3332Z" fill="#AAAAAA"/>
<path d="M12.8672 6.66634H7.53385C7.13385 6.66634 6.86719 6.39967 6.86719 5.99967C6.86719 5.59967 7.13385 5.33301 7.53385 5.33301H12.8672C13.2672 5.33301 13.5339 5.59967 13.5339 5.99967C13.5339 6.39967 13.2005 6.66634 12.8672 6.66634Z" fill="#AAAAAA"/>
<path d="M11.5339 9.99984H7.53385C7.13385 9.99984 6.86719 9.73317 6.86719 9.33317C6.86719 8.93317 7.13385 8.6665 7.53385 8.6665H11.5339C11.9339 8.6665 12.2005 8.93317 12.2005 9.33317C12.2005 9.73317 11.8672 9.99984 11.5339 9.99984Z" fill="#AAAAAA"/>
<path d="M10.2005 13.3333H7.53385C7.13385 13.3333 6.86719 13.0667 6.86719 12.6667C6.86719 12.2667 7.13385 12 7.53385 12H10.2005C10.6005 12 10.8672 12.2667 10.8672 12.6667C10.8672 13.0667 10.5339 13.3333 10.2005 13.3333Z" fill="#AAAAAA"/>
</svg>
