<svg width="16" height="16" viewBox="0 0 16 16" fill="currentColor"
  xmlns="http://www.w3.org/2000/svg">
  <path
    d="M7.74605 2.13834C7.77679 2.09223 7.8165 2.05764 7.86518 2.03459C7.91385 2.01153 7.96381 2 8.01505 2C8.06629 2 8.11624 2.01153 8.16492 2.03459C8.2136 2.05764 8.25331 2.09223 8.28405 2.13834L11.2354 6.40391C11.2712 6.45515 11.2904 6.51023 11.293 6.56916C11.2956 6.62808 11.284 6.68572 11.2584 6.74209C11.2277 6.79332 11.1867 6.83559 11.1354 6.8689C11.0842 6.9022 11.0278 6.91886 10.9664 6.91886H5.06373C5.00225 6.91886 4.94589 6.9022 4.89465 6.8689C4.84341 6.83559 4.80242 6.79332 4.77168 6.74209C4.74606 6.68572 4.73453 6.62808 4.73709 6.56916C4.73965 6.51023 4.75887 6.45515 4.79473 6.40391L7.74605 2.13834Z"
    fill="currentColor" />
  <path
    d="M8.2143 13.8617C8.18356 13.9078 8.14385 13.9424 8.09517 13.9654C8.04649 13.9885 7.99654 14 7.9453 14C7.89406 14 7.8441 13.9885 7.79543 13.9654C7.74675 13.9424 7.70704 13.9078 7.6763 13.8617L4.72498 9.59609C4.68912 9.54485 4.6699 9.48977 4.66734 9.43084C4.66478 9.37192 4.67631 9.31428 4.70193 9.25792C4.73267 9.20668 4.77366 9.16441 4.8249 9.1311C4.87614 9.0978 4.9325 9.08114 4.99398 9.08114H10.8966C10.9581 9.08114 11.0145 9.0978 11.0657 9.1311C11.1169 9.16441 11.1579 9.20668 11.1887 9.25792C11.2143 9.31428 11.2258 9.37192 11.2233 9.43084C11.2207 9.48977 11.2015 9.54485 11.1656 9.59609L8.2143 13.8617Z"
    fill="currentColor" />
</svg>