<svg width="22" height="22" viewBox="0 0 22 22" fill="none" xmlns="http://www.w3.org/2000/svg">
<circle cx="11" cy="11" r="11" fill="white"/>
<path d="M9.49722 9.13636C9.46269 8.81317 9.31713 8.56152 9.06055 8.38142C8.80644 8.20133 8.47584 8.11128 8.06877 8.11128C7.78259 8.11128 7.53711 8.15445 7.33234 8.2408C7.12757 8.32715 6.97091 8.44434 6.86236 8.59236C6.7538 8.74039 6.69829 8.90939 6.69583 9.09935C6.69583 9.25725 6.7316 9.39417 6.80315 9.51013C6.87716 9.62608 6.97708 9.72476 7.1029 9.80618C7.22872 9.88513 7.36811 9.95174 7.52107 10.006C7.67403 10.0603 7.82823 10.1059 7.98366 10.1429L8.69418 10.3206C8.98037 10.3872 9.25545 10.4772 9.51943 10.5907C9.78588 10.7042 10.024 10.8473 10.2337 11.02C10.4458 11.1927 10.6136 11.4012 10.7369 11.6454C10.8603 11.8896 10.922 12.1758 10.922 12.504C10.922 12.948 10.8085 13.3391 10.5815 13.6771C10.3545 14.0126 10.0264 14.2753 9.59714 14.4653C9.17033 14.6528 8.65347 14.7466 8.04657 14.7466C7.45693 14.7466 6.945 14.6553 6.51079 14.4727C6.07905 14.2901 5.74106 14.0237 5.49681 13.6734C5.25504 13.323 5.12428 12.8962 5.10454 12.3929H6.45528C6.47502 12.6569 6.55644 12.8765 6.69953 13.0517C6.84262 13.2268 7.02889 13.3576 7.25833 13.4439C7.49023 13.5303 7.74928 13.5734 8.03546 13.5734C8.33398 13.5734 8.5955 13.529 8.82 13.4402C9.04698 13.3489 9.22461 13.2231 9.3529 13.0628C9.48119 12.8999 9.54657 12.71 9.54903 12.4929C9.54657 12.2955 9.48859 12.1327 9.3751 12.0044C9.26162 11.8736 9.10249 11.7651 8.89772 11.6787C8.69542 11.5899 8.45857 11.5109 8.18719 11.4419L7.32494 11.2198C6.70076 11.0595 6.20734 10.8165 5.84468 10.4908C5.48448 10.1627 5.30438 9.72723 5.30438 9.18447C5.30438 8.73792 5.42527 8.34688 5.66704 8.01136C5.91129 7.67583 6.24311 7.41555 6.66252 7.23052C7.08193 7.04302 7.55685 6.94927 8.08727 6.94927C8.6251 6.94927 9.09632 7.04302 9.50093 7.23052C9.908 7.41555 10.2275 7.67337 10.4594 8.00396C10.6913 8.33208 10.811 8.70955 10.8184 9.13636H9.49722ZM11.8129 8.20379V7.05289H17.8598V8.20379H15.5173V14.6318H14.1554V8.20379H11.8129Z" fill="#D84E5F"/>
</svg>
