<svg viewBox="0 0 14 20" fill="currentColor" xmlns="http://www.w3.org/2000/svg">
<path d="M14 18L14 2C14 1.46957 13.7989 0.960859 13.4408 0.585786C13.0828 0.210714 12.5972 -6.1317e-08 12.0909 -8.3449e-08L1.90909 -5.2851e-07C1.40277 -5.50642e-07 0.917184 0.210713 0.55916 0.585786C0.201136 0.960859 -6.42368e-08 1.46957 -8.74228e-08 2L-7.86805e-07 18C-8.09991e-07 18.5304 0.201135 19.0391 0.559159 19.4142C0.917183 19.7893 1.40277 20 1.90909 20L12.0909 20C12.5972 20 13.0828 19.7893 13.4408 19.4142C13.7989 19.0391 14 18.5304 14 18ZM8.90909 1.33333L8.90909 2.66667L5.09091 2.66667L5.09091 1.33333L8.90909 1.33333ZM1.27273 9.33333L1.27273 2C1.27273 1.82319 1.33977 1.65362 1.45911 1.52859C1.57845 1.40357 1.74032 1.33333 1.90909 1.33333L3.81818 1.33333L3.81818 3.33333C3.81818 3.51014 3.88523 3.67971 4.00457 3.80474C4.12391 3.92976 4.28577 4 4.45455 4L9.54545 4C9.71423 4 9.87609 3.92976 9.99543 3.80474C10.1148 3.67971 10.1818 3.51014 10.1818 3.33333L10.1818 1.33333L12.0909 1.33333C12.2597 1.33333 12.4215 1.40357 12.5409 1.5286C12.6602 1.65362 12.7273 1.82319 12.7273 2L12.7273 9.33333L9.45636 9.33333C9.30982 8.76842 8.98991 8.26972 8.54598 7.91418C8.10206 7.55863 7.55879 7.366 7 7.366C6.44121 7.366 5.89794 7.55863 5.45402 7.91418C5.01009 8.26972 4.69018 8.76842 4.54364 9.33333L1.27273 9.33333ZM7 8.66667C7.25172 8.66667 7.49779 8.74487 7.70709 8.89137C7.91639 9.03788 8.07952 9.24612 8.17585 9.48976C8.27218 9.73339 8.29738 10.0015 8.24827 10.2601C8.19916 10.5188 8.07795 10.7563 7.89995 10.9428C7.72196 11.1293 7.49518 11.2563 7.2483 11.3077C7.00141 11.3592 6.74551 11.3328 6.51295 11.2318C6.28039 11.1309 6.08161 10.96 5.94177 10.7408C5.80192 10.5215 5.72727 10.2637 5.72727 10C5.72727 9.64638 5.86136 9.30724 6.10005 9.05719C6.33873 8.80714 6.66245 8.66667 7 8.66667ZM5.09091 18.6667L5.09091 17.3333L8.90909 17.3333L8.90909 18.6667L5.09091 18.6667ZM10.1818 18.6667L10.1818 16.6667C10.1818 16.4899 10.1148 16.3203 9.99543 16.1953C9.87609 16.0702 9.71423 16 9.54545 16L4.45455 16C4.28577 16 4.12391 16.0702 4.00457 16.1953C3.88523 16.3203 3.81818 16.4899 3.81818 16.6667L3.81818 18.6667L1.90909 18.6667C1.74032 18.6667 1.57845 18.5964 1.45911 18.4714C1.33977 18.3464 1.27273 18.1768 1.27273 18L1.27273 10.6667L4.54364 10.6667C4.69018 11.2316 5.01009 11.7303 5.45402 12.0858C5.89794 12.4414 6.44121 12.634 7 12.634C7.55879 12.634 8.10206 12.4414 8.54598 12.0858C8.98991 11.7303 9.30982 11.2316 9.45636 10.6667L12.7273 10.6667L12.7273 18C12.7273 18.1768 12.6602 18.3464 12.5409 18.4714C12.4215 18.5964 12.2597 18.6667 12.0909 18.6667L10.1818 18.6667Z" fill="currentColor"/>
</svg>
