<svg width="413" height="235" viewBox="0 0 413 235" fill="none" xmlns="http://www.w3.org/2000/svg">
    <path d="M413 231.872V4.12828C413 1.84829 410.455 0 407.317 0L5.6835 0C2.54459 0 0 1.84829 0 4.12828V231.872C0 234.152 2.54459 236 5.6835 236L407.317 236C410.455 236 413 234.152 413 231.872Z"
          fill="#105B16"/>
    <mask id="mask0_7_31" style="mask-type:alpha" maskUnits="userSpaceOnUse" x="-1" y="-1" width="415" height="238">
        <path d="M411.579 231.872V4.12828C411.579 2.41829 409.671 1.03207 407.317 1.03207L5.68347 1.03207C3.32928 1.03207 1.42087 2.41829 1.42087 4.12828V231.872C1.42087 233.582 3.32928 234.968 5.68347 234.968L407.317 234.968C409.671 234.968 411.579 233.582 411.579 231.872Z"
              fill="#488E45" stroke="#57AE6A" stroke-width="3"/>
    </mask>
    <g mask="url(#mask0_7_31)">
        <path opacity="0.3"
              d="M17.9565 20.8994C17.9565 16.3395 23.0457 12.6429 29.3235 12.6429H47.884V223.357H29.3236C23.0457 223.357 17.9565 219.66 17.9565 215.101V20.8994Z"
              fill="#044009"/>
        <path opacity="0.3" d="M119.71 12.6429H83.797V223.357H119.71V12.6429Z" fill="#044009"/>
        <path opacity="0.3" d="M191.536 12.6429H155.623V223.357H191.536V12.6429Z" fill="#044009"/>
        <path opacity="0.3" d="M263.362 12.6429H227.449V223.357H263.362V12.6429Z" fill="#044009"/>
        <path opacity="0.3" d="M335.188 12.6429H299.275V223.357H335.188V12.6429Z" fill="#044009"/>
        <path opacity="0.3"
              d="M371.101 12.6429H383.676C389.954 12.6429 395.043 16.3395 395.043 20.8994V215.101C395.043 219.66 389.954 223.357 383.676 223.357H371.101V12.6429Z"
              fill="#044009"/>
        <path d="M394.096 219.229V16.7711C394.096 14.8711 391.975 13.3309 389.36 13.3309L23.6395 13.3309C21.0237 13.3309 18.9033 14.8711 18.9033 16.7711V219.229C18.9033 221.129 21.0237 222.669 23.6395 222.669L389.36 222.669C391.975 222.669 394.096 221.129 394.096 219.229Z"
              stroke="white" stroke-width="2"/>
        <path d="M310.997 118.079C310.997 103.503 327.787 91.6506 348.563 91.6506C369.338 91.6506 386.128 103.503 386.128 118.079C386.128 132.655 369.338 144.507 348.563 144.507C327.787 144.507 310.997 132.655 310.997 118.079Z"
              fill="#248257" stroke="white" stroke-width="2"/>
        <path d="M339.549 167.883H394.096V68.2749H339.549V167.883Z" fill="#248257" stroke="white" stroke-width="2"/>
        <path d="M366.11 143.105H394.096V93.0534H366.11V143.105Z" fill="#248257" stroke="white" stroke-width="2"/>
        <path d="M102.003 118.079C102.003 103.503 85.2128 91.6506 64.4378 91.6506C43.6627 91.6506 26.872 103.503 26.872 118.079C26.872 132.655 43.6627 144.507 64.4378 144.507C85.2128 144.507 102.003 132.655 102.003 118.079Z"
              fill="#248257" stroke="white" stroke-width="2"/>
        <path d="M73.4507 167.883L18.9037 167.883L18.9037 68.2749L73.4507 68.2749L73.4507 167.883Z" fill="#248257"
              stroke="white" stroke-width="2"/>
        <path d="M46.89 143.105L18.9037 143.105L18.9037 93.0534L46.89 93.0534L46.89 143.105Z" fill="#248257"
              stroke="white" stroke-width="2"/>
        <path d="M166.147 117.157C166.147 101.73 183.918 89.188 205.901 89.188C227.885 89.188 245.655 101.73 245.655 117.157C245.655 132.584 227.885 145.126 205.901 145.126C183.918 145.126 166.147 132.584 166.147 117.157Z"
              fill="#248257" stroke="white" stroke-width="2"/>
        <path d="M206.151 221.671V12.6427" stroke="white" stroke-width="2"/>
        <path d="M202.72 116.969C202.72 115.868 203.996 114.939 205.633 114.939C207.269 114.939 208.545 115.868 208.545 116.969C208.545 118.069 207.269 118.998 205.633 118.998C203.996 118.998 202.72 118.069 202.72 116.969Z"
              fill="white" stroke="white" stroke-width="2"/>
    </g>
</svg>
