<svg width="865" height="402" viewBox="0 0 865 402" fill="none" xmlns="http://www.w3.org/2000/svg">
  <mask id="mask0_6608_10930" style="mask-type:alpha" maskUnits="userSpaceOnUse" x="0" y="0"
    width="865" height="402">
    <rect x="865" width="402" height="865" rx="2" transform="rotate(90 865 0)" fill="#105B16" />
  </mask>
  <g mask="url(#mask0_6608_10930)">
    <rect x="865" width="402" height="865" rx="2" transform="rotate(90 865 0)" fill="#105B16" />
    <circle cx="428.288" cy="201.287" r="61.7125" transform="rotate(-180 428.288 201.287)"
      fill="#84CE84" fill-opacity="0.01" stroke="#8D8E92" stroke-width="2" />
    <line x1="428" y1="402" x2="428" y2="1" stroke="#8D8E92" stroke-width="2" />
    <circle cx="429.053" cy="202.053" r="5.94704" transform="rotate(-180 429.053 202.053)"
      fill="#8D8E92" />
    <rect x="864" y="318" width="89.9062" height="231.55" transform="rotate(-180 864 318)"
      fill="#50B158" fill-opacity="0.01" stroke="#8D8E92" stroke-width="2" />
    <rect x="864" y="259.612" width="46.6562" height="115.856" transform="rotate(-180 864 259.612)"
      fill="#3D9F53" fill-opacity="0.01" stroke="#8D8E92" stroke-width="2" />
    <mask id="path-8-inside-1_6608_10930" fill="white">
      <path fill-rule="evenodd" clip-rule="evenodd"
        d="M775.257 141.674C748.483 148.822 728.763 173.243 728.763 202.269C728.763 231.296 748.483 255.716 775.257 262.864L775.257 141.674Z" />
    </mask>
    <path fill-rule="evenodd" clip-rule="evenodd"
      d="M775.257 141.674C748.483 148.822 728.763 173.243 728.763 202.269C728.763 231.296 748.483 255.716 775.257 262.864L775.257 141.674Z"
      fill="#E2F0D0" fill-opacity="0.01" />
    <path
      d="M775.257 141.674L777.257 141.674L777.257 139.07L774.741 139.742L775.257 141.674ZM775.257 262.864L774.741 264.797L777.257 265.468L777.257 262.864L775.257 262.864ZM730.763 202.269C730.763 174.171 749.852 150.527 775.773 143.607L774.741 139.742C747.114 147.118 726.763 172.314 726.763 202.269L730.763 202.269ZM775.773 260.932C749.852 254.012 730.763 230.367 730.763 202.269L726.763 202.269C726.763 232.224 747.114 257.421 774.741 264.797L775.773 260.932ZM777.257 262.864L777.257 141.674L773.257 141.674L773.257 262.864L777.257 262.864Z"
      fill="#8D8E92" mask="url(#path-8-inside-1_6608_10930)" />
    <rect x="1" y="86" width="89.9062" height="231.55" fill="#58B15A" fill-opacity="0.01"
      stroke="#8D8E92" stroke-width="2" />
    <mask id="path-11-inside-2_6608_10930" fill="white">
      <path fill-rule="evenodd" clip-rule="evenodd"
        d="M89.7436 262.417C116.517 255.269 136.237 230.848 136.237 201.822C136.237 172.795 116.517 148.375 89.7437 141.227L89.7436 262.417Z" />
    </mask>
    <path fill-rule="evenodd" clip-rule="evenodd"
      d="M89.7436 262.417C116.517 255.269 136.237 230.848 136.237 201.822C136.237 172.795 116.517 148.375 89.7437 141.227L89.7436 262.417Z"
      fill="#E2F0D0" fill-opacity="0.01" />
    <path
      d="M89.7436 262.417L87.7436 262.417L87.7436 265.021L90.2595 264.349L89.7436 262.417ZM89.7437 141.227L90.2595 139.294L87.7437 138.623L87.7437 141.227L89.7437 141.227ZM134.237 201.822C134.237 229.92 115.148 253.564 89.2278 260.484L90.2595 264.349C117.886 256.973 138.237 231.777 138.237 201.822L134.237 201.822ZM89.2278 143.159C115.148 150.079 134.237 173.724 134.237 201.822L138.237 201.822C138.237 171.867 117.886 146.67 90.2595 139.294L89.2278 143.159ZM87.7437 141.227L87.7436 262.417L91.7436 262.417L91.7437 141.227L87.7437 141.227Z"
      fill="#8D8E92" mask="url(#path-11-inside-2_6608_10930)" />
    <rect x="1" y="144.388" width="46.6562" height="115.856" fill="#3D9F53" fill-opacity="0.01"
      stroke="#8D8E92" stroke-width="2" />
  </g>
</svg>