<svg width="24" height="24" viewBox="0 0 24 24" fill="none" xmlns="http://www.w3.org/2000/svg">
<path d="M21.4849 8.07861C21.6825 7.01526 22.1286 4.89611 22.3338 3.83385C22.3439 3.78301 22.3439 3.73068 22.3338 3.67984C22.3236 3.62901 22.3036 3.58067 22.2747 3.5376C22.2459 3.49453 22.2088 3.45756 22.1657 3.42882C22.1226 3.40007 22.0742 3.38011 22.0233 3.37007L18.6315 2.69013C18.5595 2.67689 18.4852 2.68385 18.417 2.71024C18.3487 2.73663 18.2891 2.78141 18.2447 2.83962C18.2003 2.89783 18.173 2.96719 18.1656 3.04001C18.1583 3.11283 18.1712 3.18626 18.2031 3.25216L18.655 4.16007L17.8886 4.82036C17.8333 4.86882 17.7927 4.93174 17.7712 5.00205C17.7498 5.07235 17.7483 5.14726 17.7671 5.21832C17.7859 5.28939 17.8242 5.35381 17.8776 5.40432C17.931 5.45483 17.9974 5.48944 18.0694 5.50424L21.075 6.10536L20.7498 7.73662C16.5182 6.02052 8.35231 5.98523 3.90176 7.50182L3.62407 6.10587L6.63216 5.50424C6.70363 5.48865 6.76941 5.45364 6.82225 5.40306C6.87508 5.35248 6.91294 5.28829 6.93163 5.21758C6.95033 5.14686 6.94914 5.07235 6.9282 5.00227C6.90726 4.93218 6.86738 4.86924 6.81296 4.82036L6.04654 4.16007L6.49853 3.25216C6.53002 3.18624 6.54272 3.11291 6.53522 3.04024C6.52772 2.96756 6.50032 2.89837 6.45603 2.84026C6.41174 2.78216 6.35229 2.7374 6.2842 2.71091C6.21611 2.68442 6.14204 2.67723 6.07013 2.69013L2.67432 3.37007C2.62366 3.38024 2.57551 3.40033 2.53264 3.42918C2.48977 3.45803 2.45303 3.49507 2.42454 3.53818C2.39605 3.58128 2.37636 3.6296 2.36662 3.68034C2.35687 3.73109 2.35726 3.78326 2.36776 3.83385C2.57247 4.81884 2.95573 6.79709 3.15535 7.7793C1.83097 8.34066 0.99965 9.0689 1 9.95338V14.2296C2.96248 15.4453 5.06427 15.7831 8.95888 16.1713C9.78919 15.4055 10.8773 14.9803 12.0068 14.9803C13.1364 14.9803 14.2245 15.4054 15.0549 16.1712C18.3917 15.9157 20.8718 15.3143 22.2238 14.658C22.5049 14.5287 22.769 14.365 23.0099 14.1706V9.95338C23.0099 9.21841 22.436 8.59348 21.4849 8.07861ZM17.1301 7.83493C18.2838 8.00516 19.4125 8.31542 20.4911 8.75886L17.8504 10.5592C17.2954 10.2354 16.696 9.99468 16.0712 9.84471C16.0747 9.84471 17.1231 7.82876 17.1301 7.83493ZM12.6457 7.4419C13.8697 7.45844 15.0915 7.54769 16.3049 7.70918L15.2759 9.66861C14.4081 9.50472 13.5286 9.4101 12.6457 9.38563V7.4419ZM8.20037 7.64627C9.4153 7.50886 10.637 7.43931 11.8596 7.43797V9.37226C10.9222 9.37687 9.98668 9.45606 9.06183 9.60908L8.20037 7.64627ZM7.38848 7.75276L8.27293 9.76727C7.54125 9.91751 6.83765 10.1815 6.18775 10.5497L3.77167 8.65214C4.93807 8.21231 6.15193 7.91047 7.38848 7.75276ZM5.29378 11.692C2.86585 11.0317 1.11522 10.1168 2.98191 9.03159L5.5806 11.0723C5.43149 11.2497 5.33247 11.4636 5.29378 11.692ZM17.9624 11.8676C14.992 12.584 9.02978 12.5822 6.05834 11.8713C6.04876 11.6751 6.24477 11.4728 6.41379 11.3465C7.87553 10.1373 12.9738 9.86204 15.406 10.4922C16.1888 10.6261 16.9369 10.9154 17.6062 11.3428C17.7699 11.4733 17.9683 11.6698 17.9624 11.8676ZM18.7337 11.6906C18.6862 11.4748 18.5916 11.2722 18.4567 11.0972L21.2646 9.18293C22.7397 10.2042 21.0015 11.0673 18.7337 11.6906Z" fill="#004FFF"/>
<path d="M1.78607 15.5541C1.51697 15.4407 1.25452 15.3121 1 15.1689V17.1301C1 18.7809 3.90058 19.8853 7.5047 20.3845V19.5984C7.48135 18.6371 7.76647 17.6936 8.31828 16.9061C5.88147 16.686 3.43681 16.2458 1.78607 15.5541Z" fill="#F6B500"/>
<path d="M15.6994 16.9061C16.444 17.9094 16.5587 19.1581 16.5051 20.3845C20.1093 19.8853 23.0099 18.7809 23.0099 17.1302V15.1061C20.9999 16.2298 18.4813 16.6063 15.6994 16.9061Z" fill="#F6B500"/>
<path d="M12.0049 15.7663C11.4992 15.7682 10.9992 15.8728 10.5351 16.0738C10.0711 16.2748 9.65276 16.5679 9.30544 16.9355C8.95812 17.303 8.68909 17.7373 8.51466 18.2119C8.34022 18.6865 8.26403 19.1917 8.29069 19.6966V20.4788C10.7593 20.7519 13.2504 20.7519 15.719 20.4788V19.6966C15.7444 19.192 15.6673 18.6874 15.4924 18.2133C15.3175 17.7392 15.0484 17.3055 14.7014 16.9382C14.3543 16.571 13.9364 16.2778 13.473 16.0764C13.0096 15.875 12.5102 15.7695 12.0049 15.7663Z" fill="#F6B500"/>
</svg>
