<svg width="573" height="390" viewBox="0 0 573 390" fill="none" xmlns="http://www.w3.org/2000/svg">
    <mask id="mask0_24_227" style="mask-type:alpha" maskUnits="userSpaceOnUse" x="0" y="0" width="573" height="390">
        <rect x="571.5" y="1.50002" width="387" height="570" rx="4.5" transform="rotate(90 571.5 1.50002)" fill="#488E45" stroke="#57AE6A" stroke-width="3"/>
    </mask>
    <g mask="url(#mask0_24_227)">
        <rect x="573" y="1.52588e-05" width="390" height="573" rx="6" transform="rotate(90 573 1.52588e-05)" fill="#091557"/>
        <path opacity="0.3" d="M24.913 32.8928C24.913 26.2654 30.2856 20.8928 36.913 20.8928H66.4348V369.107H36.913C30.2856 369.107 24.913 363.734 24.913 357.107V32.8928Z" fill="#023191" fill-opacity="0.88"/>
        <rect opacity="0.3" x="116.261" y="20.8928" width="49.8261" height="348.214" fill="#023191" fill-opacity="0.88"/>
        <rect opacity="0.3" x="215.913" y="20.8928" width="49.8261" height="348.214" fill="#023191" fill-opacity="0.88"/>
        <rect opacity="0.3" x="315.565" y="20.8928" width="49.8261" height="348.214" fill="#023191" fill-opacity="0.88"/>
        <rect opacity="0.3" x="415.217" y="20.8928" width="49.8261" height="348.214" fill="#023191" fill-opacity="0.88"/>
        <path opacity="0.3" d="M514.87 20.8928H536.087C542.714 20.8928 548.087 26.2654 548.087 32.8928V357.107C548.087 363.734 542.714 369.107 536.087 369.107H514.87V20.8928Z" fill="#023191" fill-opacity="0.88"/>
        <rect x="547.087" y="21.8928" width="346.214" height="521.174" rx="5" transform="rotate(90 547.087 21.8928)" stroke="#023191" stroke-opacity="0.88" stroke-width="2"/>
        <rect x="547.088" y="278.13" width="77.6478" height="164.5" transform="rotate(180 547.088 278.13)" stroke="#023191" stroke-opacity="0.88" stroke-width="2"/>
        <rect x="547.088" y="236.505" width="40.1665" height="82.0208" transform="rotate(-180 547.088 236.505)" stroke="#023191" stroke-opacity="0.88" stroke-width="2"/>
        <mask id="path-12-inside-1_24_227" fill="white">
            <path fill-rule="evenodd" clip-rule="evenodd" d="M470.314 152.714C447.111 157.81 430.021 175.22 430.021 195.913C430.021 216.607 447.111 234.016 470.314 239.112V152.714Z"/>
        </mask>
        <path d="M470.314 152.714H472.488V150.011L469.848 150.591L470.314 152.714ZM470.314 239.112L469.848 241.235L472.488 241.815V239.112H470.314ZM432.195 195.913C432.195 176.526 448.267 159.782 470.78 154.838L469.848 150.591C445.956 155.838 427.847 173.914 427.847 195.913H432.195ZM470.78 236.989C448.267 232.045 432.195 215.301 432.195 195.913H427.847C427.847 217.913 445.956 235.988 469.848 241.235L470.78 236.989ZM472.488 239.112V152.714H468.14V239.112H472.488Z" fill="#023191" fill-opacity="0.88" mask="url(#path-12-inside-1_24_227)"/>
        <rect x="25.7687" y="113.63" width="77.6478" height="164.5" stroke="#023191" stroke-opacity="0.88" stroke-width="2"/>
        <rect x="25.7687" y="155.255" width="40.1665" height="82.0208" stroke="#023191" stroke-opacity="0.88" stroke-width="2"/>
        <mask id="path-16-inside-2_24_227" fill="white">
            <path fill-rule="evenodd" clip-rule="evenodd" d="M102.542 239.046C125.745 233.95 142.835 216.541 142.835 195.847C142.835 175.154 125.745 157.744 102.542 152.648V239.046Z"/>
        </mask>
        <path d="M102.542 239.046H100.368V241.749L103.009 241.169L102.542 239.046ZM102.542 152.648L103.009 150.525L100.368 149.945V152.648H102.542ZM140.661 195.847C140.661 215.235 124.589 231.979 102.076 236.923L103.009 241.169C126.901 235.922 145.009 217.847 145.009 195.847H140.661ZM102.076 154.772C124.589 159.716 140.661 176.46 140.661 195.847H145.009C145.009 173.848 126.901 155.772 103.009 150.525L102.076 154.772ZM100.368 152.648V239.046H104.716V152.648H100.368Z" fill="#023191" fill-opacity="0.88" mask="url(#path-16-inside-2_24_227)"/>
    </g>
    <ellipse cx="285.67" cy="189.964" rx="56.4696" ry="51" transform="rotate(-180 285.67 189.964)" fill="#0B3790" fill-opacity="0.08"/>
    <path d="M230.2 189.964C230.2 162.443 254.936 139.964 285.67 139.964C316.403 139.964 341.139 162.443 341.139 189.964C341.139 217.485 316.403 239.964 285.67 239.964C254.936 239.964 230.2 217.485 230.2 189.964Z" stroke="#023191" stroke-opacity="0.88" stroke-width="2"/>
    <line x1="286.33" y1="366.321" x2="286.33" y2="20.8928" stroke="#023191" stroke-opacity="0.88" stroke-width="2"/>
    <ellipse cx="285.67" cy="190.286" rx="4.98261" ry="4.5" transform="rotate(-180 285.67 190.286)" fill="#023191" fill-opacity="0.88"/>
    <path d="M281.687 190.286C281.687 188.446 283.372 186.786 285.67 186.786C287.967 186.786 289.652 188.446 289.652 190.286C289.652 192.125 287.967 193.786 285.67 193.786C283.372 193.786 281.687 192.125 281.687 190.286Z" stroke="#023191" stroke-opacity="0.88" stroke-width="2"/>
</svg>
