<svg width="25" height="24" viewBox="0 0 25 24" fill="none" xmlns="http://www.w3.org/2000/svg">
<g id="icon/field/basketball" clip-path="url(#clip0_6539_129691)">
<path id="Vector" d="M24.5 4.60298V19.3961C24.5 19.8533 24.1297 20.2237 23.6724 20.2237H1.32759C0.870345 20.2237 0.5 19.8533 0.5 19.3961V4.60298C0.5 4.14574 0.870345 3.77539 1.32759 3.77539H23.6724C24.1297 3.77539 24.5 4.14574 24.5 4.60298Z" fill="#F6B500"/>
<path id="Vector_2" d="M24.5 4.60298V19.3961C24.5 19.8532 24.1295 20.2237 23.6724 20.2237H1.32759C0.8705 20.2237 0.5 19.8532 0.5 19.3961V18.3718C0.5 17.6009 1.20934 17.0301 1.96436 17.1862C10.3974 18.9298 19.3006 15.0166 19.6673 4.95144C19.6912 4.29651 20.2236 3.77539 20.879 3.77539H23.6724C24.1295 3.77539 24.5 4.14589 24.5 4.60298Z" fill="#F6B500"/>
<g id="Group">
<path id="Vector_3" d="M12.9137 8.55936V3.77539H12.0861V8.55936C10.3699 8.7647 9.03442 10.2285 9.03442 11.9995C9.03442 13.7706 10.3699 15.2344 12.0861 15.4397V20.2237H12.9137V15.4397C14.6299 15.2344 15.9655 13.7706 15.9655 11.9995C15.9655 10.2285 14.6299 8.7647 12.9137 8.55936ZM12.4999 14.6375C11.0455 14.6375 9.86201 13.454 9.86201 11.9995C9.86201 10.545 11.0455 9.3616 12.4999 9.3616C13.9544 9.3616 15.1379 10.545 15.1379 11.9995C15.1379 13.454 13.9544 14.6375 12.4999 14.6375Z" fill="#3360E6"/>
<path id="Vector_4" d="M6.60345 11.9999C6.60345 15.3656 3.86569 18.1034 0.5 18.1034V17.2758C3.40897 17.2758 5.77586 14.9089 5.77586 11.9999C5.77586 9.09097 3.40897 6.72407 0.5 6.72407V5.89648C3.86569 5.89648 6.60345 8.63424 6.60345 11.9999Z" fill="#3360E6"/>
<path id="Vector_5" d="M3.5 10.24V13.7572C3.5 13.9858 3.31483 14.171 3.08621 14.171H0.5V13.3434H2.67241V10.6538H0.5V9.82617H3.08621C3.31483 9.82617 3.5 10.0113 3.5 10.24Z" fill="#3360E6"/>
<path id="Vector_6" d="M19.2241 11.9999C19.2241 14.9089 21.591 17.2758 24.4999 17.2758V18.1034C21.1342 18.1034 18.3965 15.3656 18.3965 11.9999C18.3965 8.63424 21.1342 5.89648 24.4999 5.89648V6.72407C21.591 6.72407 19.2241 9.09097 19.2241 11.9999Z" fill="#3360E6"/>
<path id="Vector_7" d="M22.3276 10.6538V13.3434H24.5V14.171H21.9138C21.6852 14.171 21.5 13.9858 21.5 13.7572V10.24C21.5 10.0113 21.6852 9.82617 21.9138 9.82617H24.5V10.6538H22.3276Z" fill="#3360E6"/>
</g>
</g>
<defs>
<clipPath id="clip0_6539_129691">
<rect width="24" height="24" fill="white" transform="translate(0.5)"/>
</clipPath>
</defs>
</svg>
