<svg width="25" height="24" viewBox="0 0 25 24" fill="currentColor"
  xmlns="http://www.w3.org/2000/svg">
  <path
    d="M13.7281 8.25039C13.6424 8.25039 13.5566 8.22531 13.4819 8.17455L12.3758 7.422L11.2698 8.17455C11.1198 8.27723 10.9215 8.27606 10.7727 8.17105C10.6239 8.06721 10.5545 7.8817 10.5994 7.70493L10.9477 6.33225L9.90406 5.44143C9.76813 5.32476 9.71621 5.13808 9.77396 4.9689C9.83113 4.79913 9.98515 4.68188 10.1637 4.67137L11.485 4.5967L11.9657 3.28702C12.0281 3.11434 12.1927 3 12.3758 3C12.559 3 12.7235 3.11434 12.7865 3.28702L13.2672 4.5967L14.5886 4.67137C14.7671 4.68188 14.9211 4.79913 14.9783 4.9689C15.0355 5.13808 14.9841 5.32476 14.8482 5.44143L13.8045 6.33283L14.1528 7.70552C14.1977 7.88228 14.1283 8.06721 13.9796 8.17164C13.9037 8.22414 13.8156 8.25039 13.7281 8.25039Z"
    fill="currentColor" />
  <path
    d="M19.7534 16.6771H16.5967V19.5015C16.5967 19.6743 16.5635 19.847 16.5103 19.9999H19.7534C20.0259 19.9999 20.2518 19.7739 20.2518 19.5015V17.1755C20.2518 16.9031 20.0259 16.6771 19.7534 16.6771Z"
    fill="currentColor" />
  <path
    d="M8.15506 15.3481H4.99842C4.72595 15.3481 4.5 15.5741 4.5 15.8465V19.5016C4.5 19.7741 4.72595 20 4.99842 20H8.24146C8.18829 19.8472 8.15506 19.6744 8.15506 19.5016V15.3481Z"
    fill="currentColor" />
  <path
    d="M15.5002 9.30106H9.25188C8.94755 9.30106 8.70056 9.57248 8.70056 9.90691V19.1966C8.70056 19.531 8.94755 19.8024 9.25188 19.8024H15.5002C15.8045 19.8024 16.0515 19.531 16.0515 19.1966V9.90691C16.0515 9.57248 15.8045 9.30106 15.5002 9.30106ZM12.9274 15.9654C12.9274 16.2998 12.6804 16.5713 12.376 16.5713C12.0717 16.5713 11.8247 16.2998 11.8247 15.9654V13.5897C11.7122 13.479 11.6409 13.3174 11.6409 13.1381C11.6409 12.8037 11.8879 12.5323 12.1923 12.5323H12.376C12.6804 12.5323 12.9274 12.8037 12.9274 13.1381V15.9654Z"
    fill="currentColor" />
</svg>