<svg width="16" height="16" viewBox="0 0 16 16" fill="none" xmlns="http://www.w3.org/2000/svg">
<path d="M10.1902 5.34628L10.3066 5.582L10.5667 5.6198L15.464 6.33146L11.92 9.7858L11.7318 9.96929L11.7762 10.2284L12.6129 15.106L8.23268 12.8031L8 12.6807L7.76732 12.8031L3.38697 15.106L4.22338 10.2284L4.26781 9.96929L4.07959 9.78582L0.535944 6.33147L5.43322 5.6198L5.69334 5.582L5.80968 5.34629L8.00001 0.908518L10.1902 5.34628ZM15.5094 6.28722L15.5094 6.28726L15.5094 6.28722ZM0.473164 6.34059L0.473242 6.34058L0.473164 6.34059ZM8.02805 0.851713C8.02803 0.85174 8.02802 0.851768 8.02801 0.851795L8.02805 0.851717L8.00003 0.837888L8.02805 0.851713ZM7.97199 0.851745C7.97198 0.851733 7.97198 0.851721 7.97197 0.851709L7.97199 0.851745Z" fill="#F6B500" stroke="#F6B500"/>
</svg>
