<svg width="16" height="16" viewBox="0 0 16 16" fill="none" xmlns="http://www.w3.org/2000/svg">
<path d="M10.1902 5.34531L10.3066 5.58102L10.5667 5.61882L15.464 6.33049L11.92 9.78482L11.7318 9.96831L11.7762 10.2274L12.6129 15.105L8.23268 12.8021L8 12.6798L7.76732 12.8021L3.38697 15.105L4.22338 10.2274L4.26781 9.96832L4.07959 9.78484L0.535944 6.33049L5.43322 5.61882L5.69334 5.58102L5.80968 5.34532L8.00001 0.907542L10.1902 5.34531ZM15.5094 6.28624L15.5094 6.28628L15.5094 6.28624ZM0.473164 6.33961L0.473242 6.3396L0.473164 6.33961ZM8.02805 0.850736C8.02803 0.850764 8.02802 0.850791 8.02801 0.850818L8.02805 0.85074L8.00003 0.836911L8.02805 0.850736ZM7.97199 0.850768C7.97198 0.850756 7.97198 0.850744 7.97197 0.850733L7.97199 0.850768Z" fill="" stroke="#AAAAAA"/>
</svg>
