<svg width="16" height="16" viewBox="0 0 16 16" fill="currentColor" xmlns="http://www.w3.org/2000/svg">
<g opacity="0.5" clip-path="url(#clip0_1185_16004)">
<path d="M15.6526 7.28315C15.9676 6.97623 16.0787 6.52576 15.9429 6.10702C15.8067 5.68828 15.4521 5.38936 15.0164 5.32593L11.1423 4.76301C10.9773 4.73898 10.8347 4.6355 10.761 4.48588L9.02901 0.975425C8.83453 0.581032 8.43982 0.335938 7.99993 0.335938C7.56037 0.335938 7.16565 0.581032 6.97118 0.975425L5.23886 4.48588C5.16517 4.6355 5.02228 4.73898 4.85728 4.76301L0.983194 5.32625C0.547791 5.38936 0.193125 5.68828 0.0569619 6.10702C-0.0788811 6.52576 0.0322923 6.97623 0.34723 7.28315L3.15027 10.0154C3.26978 10.132 3.32456 10.2999 3.29637 10.4639L2.63478 14.3223C2.56045 14.7558 2.73506 15.1854 3.091 15.4443C3.44663 15.7035 3.90959 15.7371 4.29949 15.5318L7.76413 13.7101C7.91183 13.6325 8.08804 13.6325 8.23574 13.7101L11.7007 15.5318C11.8699 15.6208 12.0531 15.6647 12.2354 15.6647C12.4722 15.6647 12.708 15.5907 12.9092 15.4443C13.2651 15.1854 13.4397 14.7558 13.3654 14.3223L12.7035 10.4643C12.6753 10.2999 12.7301 10.1323 12.8496 10.0157L15.6526 7.28315ZM12.0723 10.5725L12.7339 14.4306C12.7673 14.6248 12.692 14.8103 12.5324 14.9262C12.3725 15.0419 12.1736 15.056 11.999 14.965L8.53401 13.143C8.36709 13.0555 8.18319 13.0113 7.99993 13.0113C7.81667 13.0113 7.63309 13.0555 7.46585 13.1433L4.00154 14.965C3.82629 15.056 3.62733 15.0419 3.46778 14.9262C3.30822 14.8103 3.23325 14.6251 3.26625 14.4306L3.92785 10.5725C3.9916 10.2003 3.86826 9.82028 3.59785 9.55692L0.794487 6.82436C0.653197 6.6866 0.60514 6.49244 0.666333 6.30502C0.727206 6.11727 0.88003 5.98848 1.07514 5.95997L4.94891 5.39705C5.3228 5.34291 5.64607 5.10838 5.81299 4.76942L7.54531 1.25897C7.63245 1.08211 7.80258 0.976706 7.99961 0.976706C8.19697 0.976706 8.36677 1.08211 8.45424 1.25897L10.1866 4.76942C10.3535 5.10838 10.6764 5.34291 11.0503 5.39705L14.9244 5.95997C15.1195 5.98848 15.2723 6.11727 15.3332 6.30502C15.3941 6.49244 15.3463 6.6866 15.2051 6.82436L12.402 9.5566C12.1316 9.82028 12.0083 10.1999 12.0723 10.5725Z" fill="currentColor"/>
</g>
<defs>
<clipPath id="clip0_1185_16004">
<rect width="16" height="16" fill="currentColor"/>
</clipPath>
</defs>
</svg>
