<svg width="29" height="25" viewBox="0 0 29 25" fill="currentColor" xmlns="http://www.w3.org/2000/svg">
<g opacity="0.55">
<mask id="mask0_413_84201" style="mask-type:alpha" maskUnits="userSpaceOnUse" x="0" y="0" width="29" height="25">
<ellipse cx="14.5" cy="12.4286" rx="14.5" ry="12.4286" fill="currentColor"/>
</mask>
<g mask="url(#mask0_413_84201)">
<path d="M19.4346 11.8149C20.8753 11.8149 22.0431 10.4524 22.0431 8.77173C22.0431 7.09101 20.8753 5.72852 19.4346 5.72852C17.994 5.72852 16.8262 7.09101 16.8262 8.77173C16.8262 10.4524 17.994 11.8149 19.4346 11.8149Z" fill='currentColor'/>
<path d="M5.04052 18.4395C5.04052 18.4395 4.97333 18.4686 4.85864 18.5234L6.83805 20.5105L7.64106 19.8864L8.1342 16.6797L4.65625 16.1631L5.04052 18.4395Z" fill='currentColor'/>
<path d="M2.1778 20.1475C1.89947 20.5783 1.49106 21.2153 1.17578 21.708C1.17916 22.0365 1.18417 22.2988 1.19123 22.3908C1.2143 22.6127 1.24754 22.8331 1.29083 23.0513C1.32655 23.2478 1.40892 23.4301 1.52945 23.5796C1.54031 23.5916 1.55069 23.6041 1.56047 23.6172C1.66245 23.7442 1.77444 23.8609 1.89512 23.9659C1.90351 23.9734 1.91245 23.9809 1.92114 23.9884L5.52322 20.8875L3.62023 18.7715C3.11101 19.1207 2.53334 19.5972 2.1778 20.1475Z" fill='currentColor'/>
<path d="M3.78516 13.5537L4.03938 14.8061L7.97642 15.2927L8.1326 14.4477C7.80492 14.4175 7.46468 14.3807 7.11996 14.336C5.74035 14.1574 4.6331 13.898 3.78516 13.5537Z" fill='currentColor'/>
<path d="M1.72645 25.3619C1.50935 25.2301 1.30292 25.0979 1.12594 24.9731C0.893741 24.8106 0.678383 24.63 0.482449 24.4334C0.0254434 24.0179 -0.143968 23.4792 -0.195952 23.2646C-0.268611 22.971 -0.323367 22.6742 -0.359979 22.3753C-0.363007 22.3436 -0.365783 22.3005 -0.368391 22.249C-0.71941 22.2502 -1.11585 22.3242 -1.31891 22.6114C-1.8173 23.3163 -0.537129 25.8417 0.0646416 26.9431C0.178057 27.1511 0.374799 27.314 0.616291 27.3998C0.857784 27.4855 1.12661 27.488 1.37005 27.4067C1.61349 27.3254 1.814 27.1662 1.93224 26.9604C2.05049 26.7545 2.07796 26.5167 2.00925 26.2938L1.72645 25.3619Z" fill='currentColor'/>
<path d="M8.08359 0.510642C9.04377 0.53123 9.84446 -0.807776 9.86805 -2.24807C9.89163 -3.68837 9.12937 -4.68507 8.16914 -4.70573C7.2089 -4.72638 6.41444 -3.76351 6.39115 -2.32301C6.36786 -0.882508 7.12354 0.489918 8.08359 0.510642Z" fill='currentColor'/>
<path d="M3.49845 6.58687L8.85583 7.46895L9.27312 5.65269L7.2275 4.94444C6.49621 4.69129 6.06643 3.89875 6.31431 3.19608C6.43598 2.85172 6.69539 2.56702 7.03617 2.40386C7.37694 2.24069 7.77154 2.21224 8.13421 2.32469L9.31468 2.69077L12.4807 1.76749L11.9295 1.00446L10.5625 0.604487L10.3102 0.566103C9.72619 1.19241 8.97183 1.54512 8.19256 1.54512C8.17675 1.54512 8.16123 1.54512 8.14542 1.54471C7.23907 1.52845 6.3824 1.03833 5.79519 0.199948C5.71538 0.085453 5.64181 -0.0328791 5.57476 -0.154579L5.27947 -0.19955L3.30991 -0.356445L2.04688 0.14207V2.54121L3.27322 2.33954L3.49845 6.58687Z" fill='currentColor'/>
<path d="M3.11637 11.5861C3.72885 12.6869 5.58804 13.2578 7.38105 13.5538L9.87192 10.1192L8.48548 9.47458L8.53911 9.22335L3.53467 8.33691L3.54082 8.46156C3.54082 8.46156 2.48722 10.4554 3.11637 11.5861Z" fill='currentColor'/>
<path d="M1.17822 2.92235V0.677483L0.197151 1.06964L-3.74187 0.522314C-3.99423 0.484557 -4.25206 0.539951 -4.46397 0.677455C-4.67589 0.81496 -4.82632 1.02447 -4.88528 1.26423C-4.91387 1.39058 -4.91574 1.52119 -4.89077 1.64825C-4.86581 1.77531 -4.81453 1.89619 -4.74001 2.00368C-4.66548 2.11116 -4.56924 2.20302 -4.45705 2.27376C-4.34486 2.3445 -4.21903 2.39267 -4.08709 2.41538L0.000528322 3.11921L1.17822 2.92235Z" fill='currentColor'/>
<path d="M12.7656 10.9295L11.0573 10.0752L9.00195 13.1232C10.3429 13.2759 11.416 13.2685 11.416 13.2685C11.416 13.2685 11.4833 13.3772 11.6126 13.5531L13.3494 11.4494L12.7656 10.9295Z" fill='currentColor'/>
<path d="M11.4975 4.16181C11.4501 4.27565 11.3468 4.37011 11.2104 4.42441C11.074 4.47871 10.9155 4.48839 10.77 4.45134L7.68902 3.667C7.64542 3.65592 7.59933 3.65215 7.55375 3.65595C7.50817 3.65975 7.46412 3.67102 7.42449 3.68904C7.38486 3.70705 7.35053 3.73141 7.32376 3.7605C7.29698 3.7896 7.27835 3.82278 7.26908 3.85789C7.25476 3.91945 7.2691 3.98297 7.30951 4.03697C7.34992 4.09096 7.41373 4.13185 7.48937 4.15222L12.8755 5.68265C13.0664 5.73836 13.2755 5.74241 13.4697 5.69415C13.6638 5.6459 13.8316 5.54813 13.9462 5.41648L13.9507 5.41124C14.1298 5.19715 14.2233 4.94624 14.2195 4.69045C14.2156 4.43465 14.1145 4.18553 13.9291 3.97481L13.176 3.11914C13.1621 3.12343 13.1481 3.12766 13.1336 3.13116L11.1618 3.60318C11.2981 3.64549 11.4086 3.72679 11.471 3.83056C11.5333 3.93433 11.5428 4.05277 11.4975 4.16181Z" fill='currentColor'/>
<path d="M20.7719 13.6227C20.6527 13.5647 20.5211 13.5427 20.3912 13.5589C20.2613 13.5752 20.1379 13.6291 20.0342 13.715L18.6845 14.8019C18.6957 14.9014 18.7063 15.0023 18.7159 15.1022C18.7368 15.3212 18.7372 15.5418 18.7171 15.7608C18.6802 16.2163 18.5187 16.5764 18.1934 16.9284C18.1852 16.9374 18.1766 16.946 18.1677 16.9543C18.0191 17.0964 17.8612 17.2268 17.6953 17.3445C17.8472 17.6246 18.0361 17.8963 18.3527 17.9011C18.8959 17.9092 20.3005 15.8772 21.0466 14.7354C21.1051 14.6456 21.1447 14.5431 21.1625 14.435C21.1803 14.327 21.176 14.2161 21.1498 14.11C21.1236 14.004 21.0762 13.9054 21.011 13.8212C20.9457 13.737 20.8641 13.6693 20.7719 13.6227Z" fill='currentColor'/>
<path d="M17.6877 15.6437C17.6867 15.6371 17.6864 15.6344 17.6857 15.6279C17.6667 15.4526 17.6435 15.2725 17.6197 15.102L14.4729 12.6846L12.4805 14.7676C12.8963 15.1416 13.3529 15.4724 13.8424 15.7542C14.8086 16.3056 15.8788 16.7206 16.7464 17.032C16.851 16.9821 16.956 16.929 17.0553 16.8739C17.181 16.7907 17.3017 16.7007 17.4167 16.6044C17.5975 16.4285 17.6657 16.2962 17.6849 16.0875C17.7006 15.94 17.7015 15.7914 17.6877 15.6437Z" fill='currentColor'/>
</g>
</g>
</svg>
