<svg viewBox="0 0 13 16" fill="none" xmlns="http://www.w3.org/2000/svg">
<path d="M6.02792 12.5459C6.08009 12.4439 6.16414 12.3929 6.28007 12.3929L8.22765 12.3929L8.22765 5.12721C8.22765 5.05207 8.25373 4.99034 8.3059 4.94203C8.35807 4.89372 8.42473 4.86956 8.50588 4.86956L10.1752 4.86956C10.2564 4.86956 10.323 4.89372 10.3752 4.94203C10.4274 4.99034 10.4535 5.05207 10.4535 5.12721L10.4535 12.3929L12.401 12.3929C12.5228 12.3929 12.6068 12.4439 12.6532 12.5459C12.6996 12.6479 12.6851 12.7418 12.6097 12.8277L9.56661 15.9195C9.50865 15.9732 9.44199 16 9.36664 16C9.28549 16 9.21593 15.9732 9.15797 15.9195L6.0714 12.8277C5.99604 12.7418 5.98155 12.6479 6.02792 12.5459Z" fill="#E11D23"/>
<path d="M6.65176 3.45411C6.5996 3.55609 6.51555 3.60709 6.39962 3.60709H4.45204V10.8728C4.45204 10.9479 4.42595 11.0097 4.37379 11.058C4.32162 11.1063 4.25496 11.1304 4.17381 11.1304H2.50445C2.4233 11.1304 2.35664 11.1063 2.30448 11.058C2.25231 11.0097 2.22623 10.9479 2.22623 10.8728V3.60709H0.278641C0.156916 3.60709 0.0728693 3.55609 0.0264979 3.45411C-0.0198733 3.35212 -0.00538251 3.25819 0.0699709 3.1723L3.11307 0.0805154C3.17104 0.0268381 3.23769 0 3.31305 0C3.3942 0 3.46375 0.0268381 3.52172 0.0805154L6.60829 3.1723C6.68364 3.25819 6.69813 3.35212 6.65176 3.45411Z" fill="#013F6F"/>
</svg>
