<svg width="16" height="16" viewBox="0 0 16 16" fill="none" xmlns="http://www.w3.org/2000/svg">
<path d="M7.68996 11.7876C7.73343 11.7026 7.80347 11.6601 7.90008 11.6601L9.52306 11.6601L9.52306 5.60536C9.52306 5.54274 9.5448 5.4913 9.58827 5.45104C9.63175 5.41078 9.68729 5.39065 9.75492 5.39065L11.1461 5.39065C11.2137 5.39065 11.2692 5.41078 11.3127 5.45104C11.3562 5.4913 11.3779 5.54274 11.3779 5.60536L11.3779 11.6601L13.0009 11.6601C13.1023 11.6601 13.1724 11.7026 13.211 11.7876C13.2497 11.8726 13.2376 11.9509 13.1748 12.0224L10.6389 14.5989C10.5906 14.6437 10.535 14.666 10.4722 14.666C10.4046 14.666 10.3466 14.6437 10.2983 14.5989L7.72618 12.0224C7.66339 11.9509 7.65131 11.8726 7.68996 11.7876Z" fill="#DD2704"/>
<path d="M8.20982 4.21143C8.16635 4.29642 8.09631 4.33891 7.9997 4.33891H6.37672V10.3937C6.37672 10.4563 6.35498 10.5077 6.31151 10.548C6.26803 10.5882 6.21249 10.6084 6.14486 10.6084H4.75373C4.68611 10.6084 4.63056 10.5882 4.58708 10.548C4.54361 10.5077 4.52187 10.4563 4.52187 10.3937V4.33891H2.89889C2.79745 4.33891 2.72741 4.29642 2.68877 4.21143C2.65013 4.12644 2.6622 4.04816 2.725 3.97659L5.26091 1.4001C5.30922 1.35537 5.36476 1.33301 5.42756 1.33301C5.49518 1.33301 5.55315 1.35537 5.60145 1.4001L8.1736 3.97659C8.23639 4.04816 8.24847 4.12644 8.20982 4.21143Z" fill="#004FFF"/>
</svg>
