<svg width="24" height="25" viewBox="0 0 24 25" fill="none" xmlns="http://www.w3.org/2000/svg">
<path d="M11.7814 18.0707C11.8401 17.9559 11.9347 17.8986 12.0651 17.8986L14.2561 17.8986L14.2561 9.72466C14.2561 9.64012 14.2855 9.57068 14.3441 9.51633C14.4028 9.46198 14.4778 9.43481 14.5691 9.43481L16.4471 9.43481C16.5384 9.43481 16.6134 9.46198 16.6721 9.51633C16.7308 9.57068 16.7601 9.64012 16.7601 9.72466L16.7601 17.8986L18.9512 17.8986C19.0881 17.8986 19.1827 17.9559 19.2348 18.0707C19.287 18.1854 19.2707 18.2911 19.1859 18.3877L15.7624 21.866C15.6972 21.9263 15.6222 21.9565 15.5375 21.9565C15.4462 21.9565 15.3679 21.9263 15.3027 21.866L11.8303 18.3877C11.7456 18.2911 11.7292 18.1854 11.7814 18.0707Z" fill="#F6B500"/>
<path d="M12.4832 7.84241C12.4245 7.95715 12.33 8.01451 12.1996 8.01451H10.0085V16.1884C10.0085 16.273 9.97919 16.3424 9.92051 16.3968C9.86182 16.4511 9.78683 16.4783 9.69553 16.4783H7.81751C7.72621 16.4783 7.65122 16.4511 7.59253 16.3968C7.53385 16.3424 7.5045 16.273 7.5045 16.1884V8.01451H5.31347C5.17653 8.01451 5.08198 7.95715 5.02981 7.84241C4.97764 7.72768 4.99394 7.622 5.07872 7.52538L8.5022 4.04712C8.56741 3.98674 8.6424 3.95654 8.72718 3.95654C8.81847 3.95654 8.89672 3.98674 8.96193 4.04712L12.4343 7.52538C12.5191 7.622 12.5354 7.72768 12.4832 7.84241Z" fill="#0038E0"/>
</svg>
