<svg width="25" height="25" viewBox="0 0 25 25" fill="none" xmlns="http://www.w3.org/2000/svg">
<path d="M12.5 3.95654C7.53754 3.95654 3.5 7.99408 3.5 12.9565C3.5 17.919 7.53754 21.9565 12.5 21.9565C17.4625 21.9565 21.5 17.919 21.5 12.9565C21.5 7.99408 17.4625 3.95654 12.5 3.95654ZM12.5 6.03347C14.0342 6.03347 15.4395 6.55131 16.5888 7.40008L6.94215 17.0453C6.09477 15.8961 5.57692 14.4907 5.57692 12.9565C5.57692 9.13916 8.68262 6.03347 12.5 6.03347ZM12.5 19.8796C10.9658 19.8796 9.56046 19.3618 8.41123 18.513L18.0578 8.86777C18.9052 10.017 19.4231 11.4224 19.4231 12.9565C19.4231 16.7739 16.3174 19.8796 12.5 19.8796Z" fill="#0038E0"/>
<path d="M17 6.95654L6.5 17.4565L8 18.9565L18.5 8.45654L17 6.95654Z" fill="#F6B500"/>
</svg>
