<svg width="19" height="19" viewBox="0 0 19 19" fill="none" xmlns="http://www.w3.org/2000/svg">
<g id="Icon">
<path id="Vector" d="M17.8435 3.95086L13.9957 2.44176C13.8801 2.39648 13.7605 2.36269 13.6382 2.34105L12.059 2.06055H6.42306L4.84383 2.34105C4.72161 2.36269 4.60193 2.39648 4.48639 2.44176L0.63857 3.95086C0.525702 3.99508 0.463991 4.1173 0.495514 4.23444L1.47714 7.89192C1.50853 8.00853 1.63168 8.07465 1.74602 8.03618L3.98109 7.2855C4.16088 7.22512 4.34694 7.35883 4.34694 7.5485V16.7792C4.34694 16.8978 4.44298 16.9938 4.56159 16.9938H13.9206C14.0391 16.9938 14.1353 16.8978 14.1353 16.7792V7.5485C14.1353 7.35883 14.3213 7.22512 14.5011 7.2855L16.7361 8.03618C16.8505 8.07465 16.9737 8.00853 17.0049 7.89192L17.9867 4.23444C18.0181 4.1173 17.9565 3.99508 17.8435 3.95086Z" fill="#0038E0"/>
<path id="Vector_2" d="M1.25776 3.19531L0.287362 3.57584C0.158847 3.62613 0.0888171 3.76512 0.124516 3.89835L1.24105 8.05791C1.27659 8.19053 1.41665 8.26572 1.54684 8.22197L2.48123 7.90813L1.25776 3.19531Z" fill="#F6B500"/>
<path id="Vector_3" d="M7.63867 0.0195312L9.24101 3.31838L10.8435 0.0195312H7.63867Z" fill="#0038E0"/>
<path id="Vector_4" d="M9.54162 6.00888V3.16727L9.24115 2.99805L8.94067 3.16727V6.00888C8.94067 6.17476 9.07511 6.30935 9.24115 6.30935C9.40719 6.30935 9.54162 6.17476 9.54162 6.00888Z" fill="#023191" fill-opacity="0.88"/>
<path id="Vector_5" d="M18.1094 3.59043L17.1021 3.19531L15.8782 7.91011L16.8499 8.23656C16.9801 8.28031 17.1202 8.20511 17.1557 8.0725L18.2723 3.91293C18.308 3.77971 18.2379 3.64071 18.1094 3.59043Z" fill="#F6B500"/>
<path id="Vector_6" d="M7.63862 0.0195312L6.03613 1.03626L7.40316 3.63481C7.49157 3.80297 7.70136 3.8648 7.86679 3.77168L9.24095 2.99785L7.63862 0.0195312Z" fill="#F6B500"/>
<path id="Vector_7" d="M10.8437 0.0195312L12.446 1.03626L11.079 3.63481C10.9906 3.80297 10.7808 3.8648 10.6154 3.77168L9.24121 2.99785L10.8437 0.0195312Z" fill="#F6B500"/>
<path id="Vector_8" d="M3.67505 16.7383V17.7751C3.67505 17.91 3.78427 18.0192 3.91917 18.0192H14.5628C14.6977 18.0192 14.8069 17.9098 14.8069 17.7751V16.7383H3.67505Z" fill="#F6B500"/>
</g>
</svg>
