<svg width="24" height="24" viewBox="0 0 24 24" fill="none" xmlns="http://www.w3.org/2000/svg">
    <path fill-rule="evenodd" clip-rule="evenodd"
          d="M3.80859 6C2.25745 6 1 7.25745 1 8.80859V15.8301C1 17.3812 2.25745 18.6387 3.80859 18.6387H20.1914C21.7425 18.6387 23 17.3812 23 15.8301V8.80859C23 7.25745 21.7425 6 20.1914 6H3.80859ZM3.3891 14.5377V15.6422H8.59611V14.25H5.79305L5.97868 14.1015C6.49227 13.724 6.93779 13.3744 7.31524 13.0526C7.69889 12.7247 7.99281 12.3875 8.197 12.0409C8.40739 11.6944 8.51258 11.3108 8.51258 10.89C8.51258 10.4445 8.39811 10.0578 8.16916 9.72981C7.94021 9.39567 7.63391 9.13888 7.25027 8.95944C6.86663 8.7738 6.43967 8.68099 5.9694 8.68099C5.44344 8.68099 4.98245 8.79237 4.58643 9.01513C4.19661 9.23789 3.8934 9.53799 3.67683 9.91545C3.46026 10.2867 3.35197 10.7013 3.35197 11.1592H4.89273C4.89273 10.9797 4.92986 10.8065 5.00411 10.6394C5.08455 10.4723 5.19902 10.3362 5.34753 10.231C5.50223 10.1258 5.69405 10.0732 5.92299 10.0732C6.08388 10.0732 6.23857 10.1073 6.38708 10.1753C6.53558 10.2434 6.65934 10.3486 6.75834 10.4909C6.85735 10.627 6.90685 10.7972 6.90685 11.0014C6.90685 11.2799 6.81094 11.5428 6.61912 11.7903C6.4273 12.0317 6.14885 12.2977 5.78377 12.5886C5.42488 12.8794 4.98555 13.2352 4.46577 13.656L3.3891 14.5377ZM19.2448 8.7738V15.6422H17.639V10.8622H16.3025V9.8876L16.5067 9.82263C16.9151 9.71744 17.2461 9.59059 17.4998 9.44208C17.7597 9.28739 18.0072 9.08938 18.2424 8.84806L18.3073 8.7738H19.2448ZM12.1144 11.128C12.2505 11.2703 12.4238 11.3415 12.6342 11.3415C12.8446 11.3415 13.0178 11.2703 13.154 11.128C13.2963 10.9857 13.3674 10.8155 13.3674 10.6175C13.3674 10.4133 13.2963 10.2401 13.154 10.0977C13.0178 9.95543 12.8446 9.88427 12.6342 9.88427C12.4238 9.88427 12.2505 9.95543 12.1144 10.0977C11.9783 10.2401 11.9102 10.4133 11.9102 10.6175C11.9102 10.8155 11.9783 10.9857 12.1144 11.128ZM12.1144 14.7757C12.2505 14.918 12.4238 14.9892 12.6342 14.9892C12.8446 14.9892 13.0178 14.918 13.154 14.7757C13.2963 14.6334 13.3674 14.4601 13.3674 14.2559C13.3674 14.0579 13.2963 13.8878 13.154 13.7454C13.0178 13.6031 12.8446 13.532 12.6342 13.532C12.4238 13.532 12.2505 13.6031 12.1144 13.7454C11.9783 13.8878 11.9102 14.0579 11.9102 14.2559C11.9102 14.4539 11.9783 14.6272 12.1144 14.7757Z"
          fill="currentColor"/>
</svg>
