<svg width="24" height="24" viewBox="0 0 24 24" fill="currentColor" xmlns="http://www.w3.org/2000/svg">
    <path d="M13.2281 8.25039C13.1424 8.25039 13.0566 8.22531 12.9819 8.17455L11.8758 7.422L10.7698 8.17455C10.6198 8.27723 10.4215 8.27606 10.2727 8.17105C10.1239 8.06721 10.0545 7.8817 10.0994 7.70493L10.4477 6.33225L9.40406 5.44143C9.26813 5.32476 9.21621 5.13808 9.27396 4.9689C9.33113 4.79913 9.48515 4.68188 9.66366 4.67137L10.985 4.5967L11.4657 3.28702C11.5281 3.11434 11.6927 3 11.8758 3C12.059 3 12.2235 3.11434 12.2865 3.28702L12.7672 4.5967L14.0886 4.67137C14.2671 4.68188 14.4211 4.79913 14.4783 4.9689C14.5355 5.13808 14.4841 5.32476 14.3482 5.44143L13.3045 6.33283L13.6528 7.70552C13.6977 7.88228 13.6283 8.06721 13.4796 8.17164C13.4037 8.22414 13.3156 8.25039 13.2281 8.25039Z"
          fill="currentColor"/>
    <path d="M19.2534 16.6771H16.0967V19.5015C16.0967 19.6743 16.0635 19.847 16.0103 19.9999H19.2534C19.5259 19.9999 19.7518 19.7739 19.7518 19.5015V17.1755C19.7518 16.9031 19.5259 16.6771 19.2534 16.6771Z"
          fill="currentColor"/>
    <path d="M7.65506 15.3481H4.49842C4.22595 15.3481 4 15.5741 4 15.8465V19.5016C4 19.7741 4.22595 20 4.49842 20H7.74146C7.68829 19.8472 7.65506 19.6744 7.65506 19.5016V15.3481Z"
          fill="currentColor"/>
    <path d="M15.0002 9.30106H8.75188C8.44755 9.30106 8.20056 9.57248 8.20056 9.90691V19.1966C8.20056 19.531 8.44755 19.8024 8.75188 19.8024H15.0002C15.3045 19.8024 15.5515 19.531 15.5515 19.1966V9.90691C15.5515 9.57248 15.3045 9.30106 15.0002 9.30106ZM12.4274 15.9654C12.4274 16.2998 12.1804 16.5713 11.876 16.5713C11.5717 16.5713 11.3247 16.2998 11.3247 15.9654V13.5897C11.2122 13.479 11.1409 13.3174 11.1409 13.1381C11.1409 12.8037 11.3879 12.5323 11.6923 12.5323H11.876C12.1804 12.5323 12.4274 12.8037 12.4274 13.1381V15.9654Z"
          fill="currentColor"/>
</svg>
