<svg width="24" height="24" viewBox="0 0 24 24" fill="currentColor" xmlns="http://www.w3.org/2000/svg">
    <path d="M4.47546 16.8001H16.92C17.0316 16.8001 17.1395 16.7563 17.225 16.6766C17.3445 16.5645 20.0711 13.9375 20.2374 8.26669H6.87224C6.70662 13.4142 4.19556 15.8337 4.16946 15.8579C4.01648 16.0027 3.96019 16.2391 4.02902 16.4496C4.09737 16.6594 4.27549 16.8001 4.47546 16.8001Z"
          fill="currentColor"/>
    <path d="M19.7771 5.06667H17.3961V4.53334C17.3961 4.23467 17.1866 4 16.92 4C16.6533 4 16.4438 4.23467 16.4438 4.53334V5.06667H14.031V4.53334C14.031 4.23467 13.8215 4 13.5549 4C13.2882 4 13.0787 4.23467 13.0787 4.53334V5.06667H10.6977V4.53334C10.6977 4.23467 10.4882 4 10.2215 4C9.95483 4 9.74531 4.23467 9.74531 4.53334V5.06667H7.36434C7.09768 5.06667 6.88815 5.30134 6.88815 5.60001V7.20002H20.2533V5.60001C20.2533 5.30134 20.0438 5.06667 19.7771 5.06667Z"
          fill="currentColor"/>
    <path d="M17.8365 17.4942C17.578 17.7354 17.2534 17.8667 16.92 17.8667H6.88815V19.4667C6.88815 19.7615 7.10114 20 7.36434 20H19.7771C20.0403 20 20.2533 19.7615 20.2533 19.4667V13.4881C19.3352 16.0108 18.0541 17.2903 17.8365 17.4942Z"
          fill="currentColor"/>
</svg>
