<svg width="24" height="24" viewBox="0 0 24 24" fill="currentColor" xmlns="http://www.w3.org/2000/svg">
    <path d="M20.4491 5.86916C20.4039 5.80135 20.3274 5.7544 20.2196 5.7544H18.0253C17.9401 5.17887 17.8184 4.75983 17.7679 4.60161C17.8236 4.54075 17.8792 4.48163 17.9349 4.42252C18.0236 4.32862 18.0288 4.18083 17.9349 4.08694C17.9053 4.05738 17.8688 4.03825 17.8288 4.02608C17.7975 4.01043 17.761 4 17.7193 4H6.79815C6.75468 4 6.71817 4.00869 6.68861 4.02608C6.64861 4.03651 6.6121 4.05738 6.58254 4.08694C6.48865 4.18083 6.49387 4.32862 6.58254 4.42252C6.63818 4.48163 6.69382 4.54249 6.74946 4.60161C6.69904 4.75983 6.57906 5.17714 6.49213 5.7544H4.30478C4.20741 5.7544 4.13612 5.79265 4.08917 5.85003C4.03179 5.90393 3.99528 5.97696 4.00049 6.05694C4.11177 7.54705 4.68556 8.9624 5.62797 10.1204C6.61906 11.3375 7.99615 12.2225 9.50886 12.626C9.43756 12.8868 9.40628 13.2988 9.83053 13.471C10.1192 13.5892 10.4373 13.7283 10.6477 13.9665C10.872 14.2204 10.7903 14.5021 10.5608 14.7211C10.4739 14.8046 10.446 14.8794 10.4739 14.9976L11.0511 18.2473H10.5C10.3939 18.2473 10.2287 18.2891 10.1348 18.3412L9.11589 18.8994C9.02201 18.9515 8.94549 19.0802 8.94549 19.1862V19.8053C8.94549 19.9131 9.03243 20 9.14023 20H15.3824C15.4902 20 15.5771 19.9131 15.5771 19.8053L15.5753 19.1793C15.5753 19.0645 15.511 18.9585 15.4102 18.9028C15.1511 18.7603 14.6469 18.4855 14.3843 18.3412C14.2904 18.2891 14.127 18.2473 14.0192 18.2473H13.4714C13.4714 18.2473 14.047 15.0115 14.0487 14.9976C14.0644 14.9107 14.0696 14.8324 14.0087 14.7629C13.9461 14.6916 13.8731 14.636 13.8209 14.556C13.7462 14.4395 13.7097 14.3039 13.7531 14.17C13.8435 13.8866 14.1722 13.7127 14.4191 13.5927C14.5078 13.5493 14.5999 13.5093 14.6921 13.471C15.1146 13.2989 15.0833 12.8868 15.0137 12.626C16.5264 12.2208 17.9035 11.3376 18.8946 10.1204C19.837 8.96242 20.4108 7.54707 20.5221 6.05696C20.5239 5.98739 20.4943 5.92132 20.4491 5.86916ZM7.52496 10.9428C7.22068 10.7411 7.03464 10.5968 6.76513 10.3551C6.60169 10.2073 6.44346 10.0543 6.29219 9.89263C6.21394 9.80917 6.13744 9.72397 6.06441 9.63704C6.02964 9.59704 5.9966 9.55705 5.96356 9.51532C5.94618 9.49446 5.93053 9.47359 5.91488 9.45447C5.91314 9.45099 5.89227 9.42491 5.88532 9.41621C5.62277 9.07194 5.38978 8.70506 5.19503 8.31906C5.14287 8.21647 5.09419 8.11389 5.04724 8.00956C5.03681 7.98522 5.02638 7.96088 5.01594 7.93654C5.0142 7.93306 4.99856 7.89307 4.99508 7.88785C4.97769 7.84612 4.9603 7.80439 4.94465 7.76092C4.86467 7.55401 4.79338 7.34536 4.73427 7.13323C4.67515 6.91937 4.62299 6.70202 4.58473 6.48294C4.57604 6.43425 4.56908 6.38557 4.56039 6.33688H6.3374C6.25394 7.83743 6.54952 9.88742 8.34218 11.4088C8.05874 11.2715 7.78578 11.1167 7.52496 10.9428ZM14.9633 7.38883L13.3724 8.5451L13.981 10.416C14.0244 10.5481 13.967 10.5881 13.8558 10.5064L12.2648 9.35014L10.6721 10.5082C10.5608 10.5899 10.5034 10.5481 10.5469 10.4177L11.1555 8.54684L9.56452 7.39057C9.45324 7.30885 9.47411 7.24277 9.61321 7.24277H11.5815L12.19 5.37188C12.2335 5.23973 12.3013 5.23973 12.3448 5.37188L12.9534 7.24277H14.9216C15.0538 7.24103 15.0764 7.30711 14.9633 7.38883ZM19.7814 6.48294C19.7432 6.70202 19.6928 6.91937 19.6319 7.13323C19.5728 7.34536 19.5015 7.55575 19.4215 7.76092C19.4059 7.80265 19.3885 7.84612 19.3711 7.88785C19.3693 7.89307 19.3519 7.93306 19.3502 7.93654C19.3398 7.96088 19.3294 7.98522 19.3189 8.00956C19.272 8.11389 19.2233 8.21647 19.1711 8.31906C18.9764 8.70506 18.7434 9.07194 18.4808 9.41621C18.4739 9.42491 18.453 9.45273 18.4513 9.45447C18.4356 9.47533 18.4183 9.4962 18.4026 9.51532C18.3695 9.55705 18.3365 9.59704 18.3018 9.63704C18.2287 9.72397 18.1522 9.80917 18.0739 9.89263C17.9244 10.0543 17.7662 10.2073 17.601 10.3551C17.3315 10.5968 17.1437 10.7394 16.8412 10.9428C16.5804 11.1167 16.3074 11.2715 16.0257 11.4106C17.8166 9.8874 18.1122 7.83743 18.027 6.33688H19.804C19.7971 6.38557 19.7884 6.43425 19.7814 6.48294Z"
          fill="currentColor"/>
</svg>
