<svg width="12" height="12" viewBox="0 0 12 12" fill="none" xmlns="http://www.w3.org/2000/svg">
<g clip-path="url(#clip0_1856_85034)">
<path fill-rule="evenodd" clip-rule="evenodd" d="M2.5 7.90936V6.25011C2.5 6.19611 2.5175 6.14336 2.55 6.10011L2.5895 6.04761C2.63275 5.98961 2.69925 5.95336 2.77175 5.94811C2.844 5.94311 2.915 5.96961 2.96625 6.02086L5.9575 9.01211C6.0335 9.08811 6.05225 9.20436 6.00425 9.30061L5.9735 9.36186C5.93125 9.44661 5.84475 9.50011 5.75 9.50011H4.09125C3.80325 9.78961 2.806 10.7909 2.3165 11.2804C2.17575 11.4211 1.985 11.5001 1.78625 11.5001C1.58725 11.5001 1.3965 11.4211 1.25575 11.2804C1.0895 11.1141 0.89175 10.9164 0.7255 10.7501C0.5815 10.6061 0.5 10.4536 0.5 10.2501C0.5 10.0561 0.58825 9.82661 0.7255 9.68936C1.21525 9.19986 2.21275 8.19811 2.5 7.90936Z" fill="#FFCCBC"/>
<path fill-rule="evenodd" clip-rule="evenodd" d="M10.4217 7.24705C11.8752 5.7808 11.8702 3.4153 10.4102 1.9553C10.2942 1.8393 10.1779 1.72305 10.0619 1.60705C9.3574 0.902548 8.4014 0.507298 7.40515 0.508548C6.40865 0.510048 5.4539 0.907798 4.7514 1.6143C3.9769 2.39305 3.16315 3.21105 2.5419 3.83555C1.86165 4.51955 1.86315 5.62505 2.5454 6.30705C3.46815 7.23005 4.80065 8.5623 5.72565 9.4873C6.05465 9.81655 6.5014 10.001 6.9669 10C7.43215 9.99905 7.87816 9.81255 8.20591 9.48205C8.82966 8.8528 9.64615 8.0293 10.4217 7.24705Z" fill="#E53935"/>
<path d="M9.75 9.25C10.7165 9.25 11.5 8.4665 11.5 7.5C11.5 6.5335 10.7165 5.75 9.75 5.75C8.7835 5.75 8 6.5335 8 7.5C8 8.4665 8.7835 9.25 9.75 9.25Z" fill="#FFF176"/>
</g>
<defs>
<clipPath id="clip0_1856_85034">
<rect width="12" height="12" fill="white"/>
</clipPath>
</defs>
</svg>
