<svg width="20" height="20" viewBox="0 0 20 20" fill="currentColor" xmlns="http://www.w3.org/2000/svg">
    <path d="M16.9503 3.05005C14.8683 0.96802 11.1385 1.26597 8.66388 3.74058C5.63227 6.77192 6.65506 11.2755 3.91369 14.0168C3.32088 14.6096 3.46684 14.4632 3.44305 14.487L2.09507 15.8333C1.52381 16.4046 1.52381 17.3335 2.09507 17.9047C2.66632 18.476 3.59517 18.476 4.16645 17.9047C6.02283 16.0483 5.34578 16.728 5.51489 16.5589L5.98504 16.0882C7.90773 14.1655 10.5045 14.1945 13.423 13.0863C14.355 12.7324 15.2485 12.3477 16.2597 11.3364C18.7315 8.86463 19.0334 5.13312 16.9503 3.05005ZM16.2597 3.74058C16.4973 3.97817 16.692 4.24442 16.8525 4.52892L15.5692 5.81222L14.1881 4.43114L15.4714 3.14784C15.7559 3.30825 16.0221 3.50298 16.2597 3.74058ZM10.0449 8.57427L11.426 7.19321L12.8071 8.57427L11.426 9.95535L10.0449 8.57427ZM10.7355 10.6459L9.45366 11.9277C9.16642 11.7661 8.8991 11.5717 8.66391 11.3364C8.42866 11.1012 8.23423 10.8339 8.07257 10.5467L9.35441 9.26483L10.7355 10.6459ZM12.1165 6.50272L13.4976 5.12163L14.8787 6.50272L13.4976 7.88377L12.1165 6.50272ZM14.478 2.76024L13.4976 3.74054L12.4835 2.72642C13.1681 2.59435 13.8477 2.60741 14.478 2.76024ZM11.4237 3.04777L12.8071 4.43107L11.426 5.81216L9.71395 4.10008C10.2445 3.64289 10.8253 3.29227 11.4237 3.04777ZM9.03009 4.79735L10.7354 6.50268L9.35437 7.88374L7.97329 6.50268C8.22277 5.89165 8.58198 5.3174 9.03009 4.79735ZM7.6549 7.56528L8.66388 8.57427L7.68458 9.55356C7.53403 8.93426 7.52169 8.259 7.6549 7.56528ZM8.15564 13.6437C7.64936 13.607 7.21343 13.4236 6.89585 13.1061C6.57827 12.7885 6.39487 12.3526 6.35822 11.8463C6.56408 11.2307 6.25552 12.2855 6.86362 10.1469C6.91238 10.295 6.94861 10.4487 7.0105 10.5906C7.02153 10.629 7.03869 10.6638 7.05936 10.699C7.28745 11.1884 7.58664 11.6402 7.97332 12.027C8.35991 12.4135 8.81173 12.7126 9.30076 12.9406C9.33628 12.9614 9.37146 12.9789 9.41014 12.99C9.55307 13.0523 9.7077 13.0889 9.85695 13.1378C7.71629 13.7464 8.77062 13.438 8.15564 13.6437ZM10.4469 12.3156L11.4261 11.3364L12.4349 12.3453C11.7412 12.4784 11.0661 12.466 10.4469 12.3156ZM13.4976 12.027L12.1165 10.6459L13.4976 9.26483L15.2029 10.9702C14.6829 11.4183 14.1087 11.7775 13.4976 12.027ZM15.9002 10.2863L14.1882 8.57427L15.5692 7.19321L16.9526 8.57658C16.708 9.17495 16.3574 9.75581 15.9002 10.2863ZM16.2597 6.50268L17.2401 5.52238C17.3929 6.15259 17.4059 6.83214 17.2739 7.51681L16.2597 6.50268Z"
          fill="currentColor"/>
    <path d="M4.10803 1.66752C2.76191 1.66752 1.66663 2.7628 1.66663 4.10893C1.66663 5.45505 2.76194 6.55033 4.10803 6.55033C5.45416 6.55033 6.54944 5.45505 6.54944 4.10893C6.54944 2.7628 5.45416 1.66752 4.10803 1.66752Z"
          fill="currentColor"/>
</svg>
