<svg width="12" height="12" viewBox="0 0 12 12" fill="none" xmlns="http://www.w3.org/2000/svg">
<g id="Group">
<path id="Vector" fill-rule="evenodd" clip-rule="evenodd" d="M2.12244 2.28344C0.0555419 4.33586 0.0555419 7.66348 2.12244 9.7159C4.18933 11.7683 7.54044 11.7683 9.60734 9.7159C11.6742 7.66348 11.6742 4.33586 9.60734 2.28344C7.54044 0.231041 4.18933 0.231041 2.12244 2.28344Z" fill="#48FF5A"/>
<path id="Vector_2" opacity="0.3" fill-rule="evenodd" clip-rule="evenodd" d="M8.78514 1.67188C9.34026 2.50324 9.66436 3.49981 9.66436 4.57213C9.66436 7.47469 7.29474 9.82766 4.37172 9.82766C3.292 9.82766 2.28824 9.50584 1.45117 8.95445C2.39887 10.3736 4.02127 11.3099 5.86442 11.3099C8.78749 11.3099 11.157 8.95692 11.157 6.05437C11.157 4.22396 10.2143 2.61293 8.78514 1.67188Z" fill="#044009"/>
<g id="Group_2">
<g id="Mask group">
<mask id="mask0_5914_19949" style="mask-type:luminance" maskUnits="userSpaceOnUse" x="0" y="0" width="12" height="12">
<g id="Group_3">
<path id="Vector_3" d="M0.326172 11.5H11.4038V0.5H0.326172V11.5Z" fill="white"/>
</g>
</mask>
<g mask="url(#mask0_5914_19949)">
<path id="Vector_4" fill-rule="evenodd" clip-rule="evenodd" d="M5.86497 0.993957C4.57346 0.993957 3.28178 1.4821 2.29841 2.45857C0.331869 4.41135 0.331869 7.58861 2.29841 9.54154C4.26514 11.4943 7.46482 11.4943 9.43155 9.54154C11.3981 7.58861 11.3981 4.41135 9.43155 2.45857C8.44817 1.48212 7.1565 0.993957 5.86497 0.993957ZM5.86497 11.5001C4.44591 11.5001 3.02702 10.9637 1.94663 9.89086C-0.213981 7.74557 -0.213981 4.25456 1.94663 2.1091C4.10724 -0.0363656 7.62271 -0.0363656 9.78333 2.1091C11.9439 4.25456 11.9439 7.74557 9.78333 9.89086C8.70293 10.9637 7.28405 11.5001 5.86497 11.5001Z" fill="#044009"/>
</g>
</g>
</g>
<path id="Vector_5" fill-rule="evenodd" clip-rule="evenodd" d="M0.679688 4.94995C0.679861 4.94995 1.83305 4.79827 2.35485 6.07252L2.35667 6.07054C2.45801 6.69012 2.74608 7.28515 3.22708 7.76276C4.44562 8.97275 6.42112 8.97275 7.63968 7.76276C8.85822 6.55276 8.85822 4.59108 7.63968 3.3811C7.15868 2.90348 6.55927 2.6174 5.9355 2.51694L5.9375 2.51498C4.65411 1.99685 4.80701 0.851562 4.80701 0.851562C3.8235 1.05002 2.88542 1.52698 2.12264 2.2844C1.35986 3.042 0.879384 3.97333 0.679688 4.94995Z" fill="#48FF5A"/>
<path id="Vector_6" fill-rule="evenodd" clip-rule="evenodd" d="M2.57195 5.94509C2.5875 5.97118 2.59802 5.99995 2.60299 6.02991C2.70033 6.62511 2.97714 7.1635 3.40373 7.58709C4.52325 8.69845 6.34468 8.69876 7.46453 7.58709C8.58405 6.47542 8.58405 4.66641 7.46453 3.55457C7.03796 3.13113 6.49561 2.85627 5.89637 2.7596C5.86538 2.75463 5.83562 2.74384 5.80864 2.72781C4.91813 2.35346 4.6173 1.66042 4.56106 1.16158C3.70658 1.38771 2.92955 1.83222 2.29912 2.45805C1.66803 3.08486 1.22007 3.85762 0.992677 4.70758C1.13282 4.72323 1.29288 4.7565 1.45176 4.81612C1.80106 4.94674 2.27607 5.24862 2.57195 5.94509ZM5.43412 8.91452C4.57118 8.91469 3.70873 8.58859 3.05193 7.93641C2.56084 7.44875 2.23858 6.83165 2.11867 6.14915C1.67899 5.09775 0.761315 5.18832 0.712546 5.19375C0.647366 5.20235 0.581426 5.18484 0.529106 5.14502C0.49216 5.117 0.463875 5.07911 0.447503 5.03573C0.431132 4.99234 0.427339 4.94522 0.436561 4.89977C0.653165 3.84015 1.17562 2.87505 1.94736 2.10873C2.71924 1.34241 3.69098 0.823648 4.75809 0.608368C4.83705 0.592741 4.91848 0.615291 4.97736 0.669789C5.00628 0.696584 5.02836 0.729917 5.04175 0.766999C5.05514 0.804081 5.05945 0.843831 5.05432 0.882921C5.04968 0.920468 4.95199 1.83995 6.01678 2.27869C6.7036 2.39776 7.32504 2.71761 7.81631 3.20527C9.12988 4.5098 9.12988 6.63204 7.81631 7.93641C7.15953 8.58844 6.29658 8.91452 5.43412 8.91452Z" fill="#044009"/>
</g>
</svg>
