<svg width="12" height="16" viewBox="0 0 12 16" fill="none" xmlns="http://www.w3.org/2000/svg">
<path d="M11.8653 5.86653C11.8659 4.87811 11.6166 3.90556 11.1408 3.03923C10.6649 2.1729 9.97778 1.44089 9.14328 0.911178C8.30878 0.381468 7.35394 0.0712456 6.36745 0.00932448C5.38097 -0.0525966 4.39483 0.135792 3.50064 0.556993C2.60645 0.978194 1.83321 1.61855 1.25274 2.41857C0.672263 3.21859 0.303386 4.15234 0.18037 5.13308C0.0573529 6.11382 0.184186 7.10975 0.549087 8.02835C0.913989 8.94696 1.50512 9.75844 2.26758 10.3874V15.4642C2.26752 15.5552 2.29071 15.6446 2.33496 15.724C2.3792 15.8035 2.44303 15.8703 2.52038 15.9181C2.59772 15.9659 2.68601 15.9932 2.77685 15.9973C2.8677 16.0013 2.95808 15.9821 3.0394 15.9414L6.00002 14.4645L8.9613 15.9448C9.03554 15.9803 9.11695 15.9983 9.19924 15.9974C9.34066 15.9974 9.47628 15.9412 9.57628 15.8412C9.67627 15.7413 9.73245 15.6056 9.73245 15.4642V10.3874C10.3996 9.83799 10.9368 9.14767 11.3055 8.36603C11.6743 7.58438 11.8654 6.7308 11.8653 5.86653ZM1.20118 5.86653C1.20118 4.91741 1.48262 3.98961 2.00993 3.20044C2.53723 2.41128 3.28671 1.7962 4.16358 1.43298C5.04045 1.06977 6.00534 0.974739 6.93622 1.1599C7.86711 1.34507 8.72218 1.80211 9.39331 2.47324C10.0644 3.14437 10.5215 3.99944 10.7066 4.93033C10.8918 5.86121 10.7968 6.8261 10.4336 7.70297C10.0704 8.57985 9.45527 9.32932 8.66611 9.85663C7.87694 10.3839 6.94914 10.6654 6.00002 10.6654C4.72772 10.664 3.50793 10.1579 2.60828 9.25827C1.70863 8.35862 1.20259 7.13883 1.20118 5.86653ZM2.26758 5.86653C2.26758 5.12833 2.48649 4.4067 2.89661 3.79291C3.30674 3.17911 3.88966 2.70072 4.57168 2.41822C5.25369 2.13572 6.00416 2.0618 6.72818 2.20582C7.4522 2.34984 8.11725 2.70532 8.63924 3.22731C9.16123 3.7493 9.51672 4.41435 9.66073 5.13837C9.80475 5.86239 9.73083 6.61286 9.44833 7.29487C9.16584 7.97689 8.68744 8.55981 8.07364 8.96994C7.45985 9.38006 6.73822 9.59897 6.00002 9.59897C5.01044 9.59791 4.0617 9.20433 3.36196 8.50459C2.66222 7.80486 2.26864 6.85611 2.26758 5.86653Z" fill="currentColor"/>
</svg>
