<svg width="16" height="16" viewBox="0 0 16 16" fill="none" xmlns="http://www.w3.org/2000/svg">
    <path d="M14.6488 13.1249C13.7919 11.621 12.4538 10.4491 10.85 9.79805C11.6476 9.19988 12.2367 8.36594 12.534 7.41434C12.8312 6.46275 12.8215 5.44175 12.5063 4.49597C12.191 3.55018 11.5862 2.72757 10.7774 2.14465C9.96864 1.56172 8.99697 1.24805 8.00003 1.24805C7.00309 1.24805 6.03141 1.56172 5.22265 2.14465C4.41389 2.72757 3.80904 3.55018 3.49378 4.49597C3.17852 5.44175 3.16883 6.46275 3.46609 7.41434C3.76334 8.36594 4.35247 9.19988 5.15003 9.79805C3.54623 10.4491 2.20818 11.621 1.35128 13.1249C1.29818 13.2103 1.26279 13.3055 1.24722 13.4048C1.23164 13.5041 1.23619 13.6056 1.2606 13.7031C1.28502 13.8006 1.32879 13.8923 1.38932 13.9725C1.44985 14.0528 1.52591 14.1201 1.61296 14.1704C1.70002 14.2207 1.7963 14.253 1.89608 14.2653C1.99586 14.2777 2.0971 14.2698 2.19379 14.2423C2.29048 14.2147 2.38064 14.168 2.45891 14.1049C2.53718 14.0418 2.60196 13.9636 2.6494 13.8749C3.7819 11.9174 5.7819 10.7499 8.00003 10.7499C10.2182 10.7499 12.2182 11.918 13.3507 13.8749C13.4535 14.0403 13.6166 14.1591 13.8054 14.2064C13.9943 14.2537 14.1941 14.2256 14.3627 14.1282C14.5313 14.0308 14.6554 13.8717 14.7088 13.6845C14.7622 13.4972 14.7407 13.2966 14.6488 13.1249ZM4.75003 5.99992C4.75003 5.35713 4.94064 4.72878 5.29775 4.19432C5.65487 3.65986 6.16245 3.2433 6.75631 2.99731C7.35017 2.75133 8.00363 2.68697 8.63407 2.81237C9.26451 2.93777 9.8436 3.2473 10.2981 3.70182C10.7526 4.15635 11.0622 4.73544 11.1876 5.36588C11.313 5.99632 11.2486 6.64978 11.0026 7.24364C10.7567 7.8375 10.3401 8.34508 9.80563 8.7022C9.27117 9.05931 8.64282 9.24992 8.00003 9.24992C7.13838 9.24893 6.3123 8.9062 5.70303 8.29692C5.09375 7.68764 4.75102 6.86157 4.75003 5.99992Z"
          fill="white"/>
</svg>
