<svg width="16" height="16" viewBox="0 0 16 16" fill="currentColor" xmlns="http://www.w3.org/2000/svg">
<g clip-path="url(#clip0_328_15547)">
<path d="M10.3438 14.5625V13.625H5.65625V14.5625H2.84375V15.5H13.1562V14.5625H10.3438Z" fill="currentColor"/>
<path fill-rule="evenodd" clip-rule="evenodd" d="M0 12.6875V0.5H16V12.6875H0ZM2.02196 4.03125L3.41656 7.99648L4.79664 4.03125H5.84985L3.89596 9.1875H2.92991L0.96875 4.03125H2.02196ZM7.38365 4.03125H8.40055L10.2963 9.1875H9.26491L8.78551 7.90207H6.98415L6.51202 9.1875H5.4806L7.38365 4.03125ZM8.60392 7.19762L7.8921 5.06976L7.15122 7.19762H8.60392ZM10.862 4.03125V9.1875H11.8643V7.45907H12.8667L13.9272 9.1875H15.0312L13.8546 7.24846C14.1403 7.12742 14.3654 6.92892 14.5301 6.65295C14.6995 6.37698 14.7843 6.07438 14.7843 5.74516C14.7843 5.53213 14.7431 5.32394 14.6608 5.1206C14.5833 4.91725 14.4695 4.73327 14.3194 4.56866C14.1742 4.40405 13.9998 4.27333 13.7964 4.1765C13.5979 4.07967 13.38 4.03125 13.1427 4.03125H10.862ZM13.1209 6.58033H11.8643V4.90999H13.0774C13.1984 4.90999 13.3098 4.9463 13.4115 5.01893C13.518 5.09155 13.6052 5.1908 13.673 5.31668C13.7408 5.44256 13.7747 5.58539 13.7747 5.74516C13.7747 5.97755 13.7117 6.17606 13.5858 6.34067C13.4647 6.50044 13.3098 6.58033 13.1209 6.58033Z" fill="currentColor"/>
</g>
<defs>
<clipPath id="clip0_328_15547">
<rect width="16" height="16" fill="white"/>
</clipPath>
</defs>
</svg>
