<svg
  width="16"
  height="17"
  viewBox="0 0 16 17"
  fill="none"
  xmlns="http://www.w3.org/2000/svg"
>
  <defs>
    <linearGradient
      id="paint0_linear_229_2898"
      x1="7.8759"
      y1="0"
      x2="7.8759"
      y2="17"
      gradientUnits="userSpaceOnUse"
    >
      <stop stopColor="white" />
      <stop offset="1" stopColor="#70B3FF" />
    </linearGradient>
    <linearGradient
      id="paint1_linear_229_2898"
      x1="7.8759"
      y1="0"
      x2="7.8759"
      y2="17"
      gradientUnits="userSpaceOnUse"
    >
      <stop stopColor="white" />
      <stop offset="1" stopColor="#70B3FF" />
    </linearGradient>
    <linearGradient
      id="paint2_linear_229_2898"
      x1="7.8759"
      y1="0"
      x2="7.8759"
      y2="17"
      gradientUnits="userSpaceOnUse"
    >
      <stop stopColor="white" />
      <stop offset="1" stopColor="#70B3FF" />
    </linearGradient>
    <linearGradient
      id="paint3_linear_229_2898"
      x1="7.8759"
      y1="0"
      x2="7.8759"
      y2="17"
      gradientUnits="userSpaceOnUse"
    >
      <stop stopColor="white" />
      <stop offset="1" stopColor="#70B3FF" />
    </linearGradient>
  </defs>
  <path
    d="M9.22812 5.25039C9.14236 5.25039 9.0566 5.22531 8.98193 5.17455L7.87584 4.422L6.76975 5.17455C6.61982 5.27723 6.42147 5.27606 6.27271 5.17105C6.12395 5.06721 6.05453 4.8817 6.09945 4.70493L6.44772 3.33225L5.40406 2.44143C5.26813 2.32476 5.21621 2.13808 5.27396 1.9689C5.33113 1.79913 5.48515 1.68188 5.66366 1.67137L6.98502 1.5967L7.46572 0.287021C7.52815 0.114342 7.69266 0 7.87584 0C8.05902 0 8.22354 0.114342 8.28654 0.287021L8.76725 1.5967L10.0886 1.67137C10.2671 1.68188 10.4211 1.79913 10.4783 1.9689C10.5355 2.13808 10.4841 2.32476 10.3482 2.44143L9.30454 3.33283L9.65282 4.70552C9.69774 4.88228 9.62832 5.06721 9.47956 5.17164C9.40372 5.22414 9.31563 5.25039 9.22812 5.25039Z"
    fill="url(#paint0_linear_229_2898)"
  />
  <path
    d="M15.2534 13.6771H12.0967V16.5015C12.0967 16.6743 12.0635 16.847 12.0103 16.9999H15.2534C15.5259 16.9999 15.7518 16.7739 15.7518 16.5015V14.1755C15.7518 13.9031 15.5259 13.6771 15.2534 13.6771Z"
    fill="url(#paint1_linear_229_2898)"
  />
  <path
    d="M3.65506 12.3481H0.498418C0.225949 12.3481 0 12.5741 0 12.8465V16.5016C0 16.7741 0.225949 17 0.498418 17H3.74146C3.68829 16.8472 3.65506 16.6744 3.65506 16.5016V12.3481Z"
    fill="url(#paint2_linear_229_2898)"
  />
  <path
    d="M11.0002 6.30106H4.75188C4.44755 6.30106 4.20056 6.57248 4.20056 6.90691V16.1966C4.20056 16.531 4.44755 16.8024 4.75188 16.8024H11.0002C11.3045 16.8024 11.5515 16.531 11.5515 16.1966V6.90691C11.5515 6.57248 11.3045 6.30106 11.0002 6.30106ZM8.42736 12.9654C8.42736 13.2998 8.18037 13.5713 7.87604 13.5713C7.57171 13.5713 7.32472 13.2998 7.32472 12.9654V10.5897C7.21225 10.479 7.14094 10.3174 7.14094 10.1381C7.14094 9.80368 7.38794 9.53226 7.69227 9.53226H7.87604C8.18037 9.53226 8.42736 9.80368 8.42736 10.1381V12.9654Z"
    fill="url(#paint3_linear_229_2898)"
  />
</svg>