<svg width="21" height="20" viewBox="0 0 21 20" fill="currentColor" xmlns="http://www.w3.org/2000/svg">
    <path d="M3.58295 13.6285C3.4049 13.5813 3.21841 13.5623 3.02347 13.5715C2.82853 13.5808 2.63713 13.6234 2.44927 13.6993C1.98816 13.8857 1.66349 14.2007 1.47525 14.6443C1.28701 15.088 1.28609 15.5404 1.47247 16.0015C1.65885 16.4626 1.97386 16.7873 2.41751 16.9755C2.86116 17.1637 3.31353 17.1647 3.77464 16.9783C3.9625 16.9024 4.12974 16.8 4.27636 16.6712C4.42298 16.5424 4.54389 16.3991 4.6391 16.2414C5.35051 17.1659 6.27976 17.7936 7.42686 18.1247C8.57397 18.4557 9.71108 18.3935 10.8382 17.9379C12.2045 17.3856 13.1725 16.4381 13.7423 15.0951C14.3121 13.7522 14.3209 12.3976 13.7687 11.0313C13.6996 10.8606 13.6203 10.689 13.5308 10.5165C13.4412 10.3441 13.3483 10.188 13.252 10.0481L19.3326 5.92136L18.3386 3.46212L10.1411 6.77555L10.8038 8.41504L8.34455 9.40907L7.68187 7.76958L6.86212 8.10092C5.73497 8.55652 4.87397 9.3019 4.2791 10.3371C3.68424 11.3723 3.45219 12.4694 3.58295 13.6285ZM11.2922 7.26395L17.8502 4.61321L18.2436 5.58666L11.9532 9.8578C12.1592 10.0726 12.3473 10.3045 12.5175 10.5536C12.6878 10.8027 12.8316 11.0724 12.9489 11.3627C13.4045 12.4898 13.3932 13.617 12.915 14.7441C12.4367 15.8712 11.634 16.6625 10.5069 17.1181C9.37974 17.5737 8.25262 17.5624 7.1255 17.0842C5.99839 16.6059 5.20705 15.8033 4.75145 14.6761C4.35107 13.6856 4.3107 12.6886 4.63032 11.6852C4.94994 10.6818 5.54142 9.89639 6.40478 9.32886C6.5345 9.25656 6.66422 9.18426 6.79395 9.11196C6.92367 9.03965 7.05684 8.97589 7.19346 8.92067L7.85615 10.5602L11.9549 8.90345L11.2922 7.26395ZM2.78062 14.519C3.00263 14.4293 3.22755 14.4328 3.45537 14.5294C3.68319 14.6261 3.84196 14.7854 3.9317 15.0075C4.02144 15.2295 4.01798 15.4544 3.92132 15.6822C3.82465 15.91 3.66532 16.0688 3.4433 16.1585C3.22128 16.2483 2.99637 16.2448 2.76855 16.1482C2.54073 16.0515 2.38195 15.8922 2.29221 15.6701C2.20247 15.4481 2.20594 15.2232 2.3026 14.9954C2.39926 14.7676 2.5586 14.6088 2.78062 14.519ZM6.51356 2.51976L7.83893 5.79874L8.65867 5.4674L7.3333 2.18842L6.51356 2.51976ZM11.0565 1.66699L10.4328 5.13774L11.3005 5.29366L11.9241 1.82291L11.0565 1.66699ZM3.44819 4.74227L6.30843 6.80481L5.79279 7.51987L2.93255 5.45733L3.44819 4.74227Z"
          fill="currentColor"/>
</svg>
