<svg width="24" height="24" viewBox="0 0 24 24" fill="currentColor" xmlns="http://www.w3.org/2000/svg">
<g opacity="0.5" clip-path="url(#clip0_371_21498)">
<path d="M23.25 8.25H18.75C18.5505 8.25 18.36 8.3295 18.219 8.469L16.9395 9.75H15V9C15 8.586 14.664 8.25 14.25 8.25H7.5C3.3645 8.25 0 11.6145 0 15.75C0 19.8855 3.3645 23.25 7.5 23.25C11.214 23.25 14.322 20.5755 14.907 16.956L23.532 13.4445C23.8155 13.329 24 13.0545 24 12.75V9C24 8.586 23.664 8.25 23.25 8.25ZM7.5 19.5C5.4285 19.5 3.75 17.8215 3.75 15.75C3.75 13.6785 5.4285 12 7.5 12C9.5715 12 11.25 13.6785 11.25 15.75C11.25 17.8215 9.5715 19.5 7.5 19.5Z" fill='currentColor'/>
<path d="M16.5 0.75C16.086 0.75 15.75 1.086 15.75 1.5V6C15.75 6.414 16.086 6.75 16.5 6.75C16.914 6.75 17.25 6.414 17.25 6V1.5C17.25 1.086 16.914 0.75 16.5 0.75Z" fill='currentColor'/>
<path d="M14.1003 5.54975L11.8503 2.54975C11.6013 2.21675 11.1303 2.15075 10.8003 2.39975C10.4688 2.64875 10.4013 3.11825 10.6503 3.44975L12.9003 6.44975C13.0473 6.64625 13.2723 6.74975 13.5003 6.74975C13.6563 6.74975 13.8153 6.70025 13.9503 6.59975C14.2818 6.35075 14.3478 5.88125 14.1003 5.54975Z" fill='currentColor'/>
<path d="M22.1991 2.40042C21.8691 2.15442 21.3996 2.21742 21.1491 2.55042L18.8991 5.55042C18.6516 5.88192 18.7191 6.35142 19.0506 6.60042C19.1856 6.70092 19.3446 6.75042 19.5006 6.75042C19.7271 6.75042 19.9536 6.64692 20.1006 6.45042L22.3506 3.45042C22.5981 3.11892 22.5306 2.64942 22.1991 2.40042Z" fill='currentColor'/>
</g>
<defs>
<clipPath id="clip0_371_21498">
<rect width="24" height="24" fill="currentColor"/>
</clipPath>
</defs>
</svg>
