<svg width="20" height="20" viewBox="0 0 20 20" fill="none" xmlns="http://www.w3.org/2000/svg">
<g opacity="0.55" clip-path="url(#clip0_413_84197)">
<path d="M14.5089 4.19643C14.6875 4.58334 14.7321 4.80655 14.6429 4.86607C14.5833 4.9256 14.4866 4.94048 14.3527 4.91071C14.2188 4.88095 14.122 4.79167 14.0625 4.64286C14.0327 4.55357 14.0179 4.46429 14.0179 4.375L13.9732 4.24107H13.8393C13.6607 4.3006 13.5714 4.24107 13.5714 4.0625C13.6012 4.00298 13.6756 3.94345 13.7946 3.88393C13.7946 3.85417 13.7798 3.8244 13.75 3.79464C13.7202 3.61607 13.7649 3.54167 13.8839 3.57143C14.122 3.63095 14.3304 3.83928 14.5089 4.19643ZM2.90179 2.94643C4.86608 0.982133 7.23213 0 10 0C12.7679 0 15.1265 0.974693 17.0759 2.92411C19.0253 4.87352 20 7.23213 20 10C20 12.7679 19.0253 15.1265 17.0759 17.0759C15.1265 19.0253 12.7679 20 10 20C7.23213 20 4.87352 19.0253 2.92411 17.0759C0.974693 15.1265 0 12.7679 0 10C0 7.23213 0.967252 4.88096 2.90179 2.94643ZM6.29464 17.7232L6.65179 17.9018C6.83036 17.9613 6.97917 18.006 7.09821 18.0357C7.66369 18.244 8.30357 18.3929 9.01786 18.4821C10.3572 18.631 11.5923 18.5119 12.7232 18.125C13.5268 17.8571 14.1667 17.5595 14.6429 17.2321C14.7321 17.1726 14.8214 16.994 14.9107 16.6964C15 16.3988 15.0595 16.2202 15.0893 16.1607C15.1786 15.9821 15.2307 15.6473 15.2455 15.1563C15.2604 14.6652 15.3869 14.3006 15.625 14.0625C15.7738 13.8839 15.8631 13.7202 15.8929 13.5714C15.9226 13.4226 15.9152 13.2515 15.8705 13.058C15.8259 12.8646 15.8036 12.6935 15.8036 12.5446C15.8036 12.4554 15.8482 12.2619 15.9375 11.9643C16.0268 11.6667 16.0417 11.4286 15.9821 11.25C15.9821 11.1905 15.9226 11.183 15.8036 11.2277C15.6845 11.2723 15.6101 11.2649 15.5804 11.2054C15.5208 11.1161 15.4092 11.064 15.2455 11.0491C15.0818 11.0342 14.9033 11.0417 14.7098 11.0714C14.5164 11.1012 14.3899 11.1161 14.3304 11.1161C13.9732 11.0565 13.4821 10.7143 12.8571 10.0893C12.7679 10 12.7827 9.6131 12.9018 8.92857C12.9315 8.83929 12.9613 8.63095 12.9911 8.30357C13.0208 7.97619 13.0878 7.73066 13.192 7.56696C13.2961 7.40327 13.4821 7.29167 13.75 7.23214C13.8393 7.20238 13.9211 7.12054 13.9955 6.98661C14.0699 6.85268 14.1369 6.77083 14.1964 6.74107C14.2857 6.71131 14.3973 6.68155 14.5313 6.65179C14.6652 6.62202 14.7768 6.59226 14.8661 6.5625C15.0149 6.53274 15.2158 6.54018 15.4688 6.58482C15.7217 6.62947 15.9077 6.65179 16.0268 6.65179C16.2351 6.65179 16.5625 6.81547 17.0089 7.14286C17.0982 7.23214 17.1949 7.28423 17.2991 7.29911C17.4033 7.31399 17.5223 7.32143 17.6562 7.32143C17.7902 7.32143 17.9018 7.33631 17.9911 7.36607C18.1101 7.33631 18.0804 7.21726 17.9018 7.00893C17.8125 6.9494 17.6935 6.91964 17.5446 6.91964C17.2768 6.86012 16.9792 6.64435 16.6518 6.27232C16.3244 5.9003 16.0863 5.66964 15.9375 5.58036C15.7292 5.46131 15.5655 5.46131 15.4464 5.58036L15.4911 6.11607C15.4911 6.14583 15.2976 6.22024 14.9107 6.33929C14.6429 6.39881 14.3899 6.25 14.1518 5.89286C14.003 5.625 14.0327 5.44643 14.2411 5.35714H14.375C14.4345 5.32738 14.494 5.30506 14.5536 5.29018C14.6131 5.2753 14.6875 5.25298 14.7768 5.22321C14.8661 5.19345 14.9405 5.16369 15 5.13393C15.0595 5.10417 15.119 5.06696 15.1786 5.02232C15.2381 4.97768 15.2827 4.9256 15.3125 4.86607C15.3423 4.80655 15.3423 4.74702 15.3125 4.6875C15.2827 4.62798 15.2679 4.52381 15.2679 4.375C15.2381 4.19643 15.1786 4.09226 15.0893 4.0625C14.9702 4.03274 14.8586 3.97322 14.7545 3.88393C14.6503 3.79464 14.5387 3.73512 14.4196 3.70536C14.2708 3.6756 14.1964 3.46726 14.1964 3.08036C14.1964 2.87202 14.2708 2.76786 14.4196 2.76786C14.4792 2.76786 14.5387 2.76786 14.5982 2.76786C13.8542 2.29166 13.006 1.93452 12.0536 1.69643C11.9345 2.05357 11.8155 2.23214 11.6964 2.23214C11.4881 2.29167 11.3542 2.33631 11.2946 2.36607C11.2351 2.4256 11.1607 2.52232 11.0714 2.65625C10.9821 2.79018 10.9077 2.8869 10.8482 2.94643C10.7887 3.00595 10.7217 3.05804 10.6473 3.10268C10.5729 3.14732 10.4985 3.13244 10.4241 3.05804C10.3497 2.98363 10.2679 2.85714 10.1786 2.67857C10.119 2.5 10.1265 2.27679 10.2009 2.00893C10.2753 1.74107 10.2976 1.54762 10.2679 1.42857H10H9.86607C10.0744 1.84524 9.95536 2.12798 9.50893 2.27679C9.38988 2.27679 9.26339 2.23958 9.12947 2.16518C8.99554 2.09077 8.86905 2.06845 8.75 2.09821C8.69048 2.09821 8.60863 2.07589 8.50447 2.03125C8.4003 1.98661 8.31845 1.97917 8.25893 2.00893C7.87202 2.1875 7.66369 2.36607 7.63393 2.54464C7.5744 2.8125 7.61905 2.96875 7.76786 3.01339C7.91667 3.05804 8.08036 2.99107 8.25893 2.8125C8.6756 2.39583 9.04762 2.30655 9.375 2.54464C9.52381 2.66369 9.59822 2.87202 9.59822 3.16964C9.59822 3.28869 9.59077 3.39286 9.57589 3.48214C9.56101 3.57143 9.52381 3.66815 9.46429 3.77232C9.40476 3.87649 9.31548 3.91369 9.19643 3.88393C9.16667 3.88393 9.11458 3.86161 9.04018 3.81696C8.96577 3.77232 8.91369 3.74256 8.88393 3.72768C8.85417 3.7128 8.79464 3.72024 8.70536 3.75C8.64583 3.80952 8.21429 3.94345 7.41071 4.15179C7.23214 4.18155 7.01637 4.24851 6.76339 4.35268C6.51042 4.45685 6.35417 4.52381 6.29464 4.55357C5.96726 4.67262 5.78869 4.85119 5.75893 5.08929C5.75893 5.50595 5.71429 5.72917 5.625 5.75893C5.56548 5.78869 5.49851 5.72173 5.42411 5.55804C5.3497 5.39434 5.24554 5.23066 5.11161 5.06696C4.97768 4.90327 4.82143 4.83631 4.64286 4.86607C4.34524 4.89583 4.0625 5.0372 3.79464 5.29018C3.52678 5.54316 3.4375 5.81845 3.52679 6.11607C3.55655 6.1756 3.66815 6.22768 3.86161 6.27232C4.05506 6.31696 4.17411 6.36161 4.21875 6.40625C4.26339 6.45089 4.18155 6.5625 3.97321 6.74107C3.94345 6.8006 3.93601 6.875 3.95089 6.96429C3.96577 7.05357 3.9881 7.18006 4.01786 7.34375C4.04762 7.50744 4.0625 7.60417 4.0625 7.63393C4.09226 7.84226 4.21131 8.00595 4.41964 8.125C4.62798 8.24405 4.82143 8.22917 5 8.08036C5.14881 7.93155 5.35714 7.90179 5.625 7.99107C6.78572 8.61607 7.45536 9.01786 7.63393 9.19643C7.69345 9.25595 7.80506 9.46428 7.96875 9.82143C8.13244 10.1786 8.27381 10.3869 8.39286 10.4464C8.42262 10.4762 8.59375 10.5506 8.90625 10.6696C9.21875 10.7887 9.43452 10.9226 9.55357 11.0714C9.67262 11.25 9.68006 11.436 9.57589 11.6295C9.47173 11.8229 9.34524 11.9792 9.19643 12.0982C9.1369 12.128 9.01786 12.3363 8.83929 12.7232C8.66071 13.1101 8.54167 13.3333 8.48214 13.3929C8.42262 13.4821 8.18453 13.5863 7.76786 13.7054C7.7381 13.7054 7.69345 13.7426 7.63393 13.817C7.5744 13.8914 7.52232 13.9658 7.47768 14.0402C7.43304 14.1146 7.39583 14.1667 7.36607 14.1964C7.30655 14.256 7.20238 14.3899 7.05357 14.5982C6.90476 14.8065 6.75595 14.9554 6.60714 15.0446C5.92262 15.5208 5.65476 16.1756 5.80357 17.0089C5.89286 17.3661 6.05655 17.6042 6.29464 17.7232ZM4.46429 16.5179L4.55357 16.6071C4.76191 16.7857 5.10416 17.0238 5.58036 17.3214C4.83631 16.5774 4.52381 15.4167 4.64286 13.8393L4.77679 12.7679C4.80655 12.7083 4.78423 12.6265 4.70982 12.5223C4.63542 12.4182 4.59821 12.3363 4.59821 12.2768C4.59821 12.0685 4.53869 11.9345 4.41964 11.875C4.36012 11.8155 4.3006 11.756 4.24107 11.6964C3.97321 11.4286 3.79464 11.1756 3.70536 10.9375C3.46726 10.4315 3.61607 9.79167 4.15179 9.01786C4.3006 8.77976 4.27083 8.49703 4.0625 8.16964C3.85417 7.84226 3.73512 7.64881 3.70536 7.58929C3.70536 7.5 3.65327 7.41072 3.54911 7.32143C3.44494 7.23214 3.40774 7.14286 3.4375 7.05357C3.46726 6.90476 3.40774 6.81548 3.25893 6.78571C3.16964 6.72619 3.09524 6.68155 3.03571 6.65179C2.82738 6.53274 2.7381 6.33185 2.76786 6.04911C2.79762 5.76637 2.78274 5.58036 2.72321 5.49107C1.77083 7.06846 1.36161 8.77975 1.49554 10.625C1.62946 12.4702 2.27678 14.0923 3.4375 15.4911L3.48214 15.5357V15.5804H3.52679C3.70536 15.8185 3.83929 15.9821 3.92857 16.0714C3.9881 16.131 4.06994 16.2054 4.17411 16.2946C4.27827 16.3839 4.34524 16.4435 4.375 16.4732L4.46429 16.5179Z" fill="#AAAAAA"/>
</g>
<defs>
<clipPath id="clip0_413_84197">
<rect width="20" height="20" fill="white"/>
</clipPath>
</defs>
</svg>
