<svg width="16" height="16" viewBox="0 0 16 16" fill="none" xmlns="http://www.w3.org/2000/svg">
<path d="M13.5 3V6C13.5 6.13261 13.4473 6.25979 13.3536 6.35355C13.2598 6.44732 13.1326 6.5 13 6.5C12.8674 6.5 12.7402 6.44732 12.6464 6.35355C12.5527 6.25979 12.5 6.13261 12.5 6V4.20687L9.85375 6.85375C9.75993 6.94757 9.63268 7.00028 9.5 7.00028C9.36732 7.00028 9.24007 6.94757 9.14625 6.85375C9.05243 6.75993 8.99972 6.63268 8.99972 6.5C8.99972 6.36732 9.05243 6.24007 9.14625 6.14625L11.7931 3.5H10C9.86739 3.5 9.74021 3.44732 9.64645 3.35355C9.55268 3.25979 9.5 3.13261 9.5 3C9.5 2.86739 9.55268 2.74021 9.64645 2.64645C9.74021 2.55268 9.86739 2.5 10 2.5H13C13.1326 2.5 13.2598 2.55268 13.3536 2.64645C13.4473 2.74021 13.5 2.86739 13.5 3ZM6.14625 9.14625L3.5 11.7931V10C3.5 9.86739 3.44732 9.74021 3.35355 9.64645C3.25979 9.55268 3.13261 9.5 3 9.5C2.86739 9.5 2.74021 9.55268 2.64645 9.64645C2.55268 9.74021 2.5 9.86739 2.5 10V13C2.5 13.1326 2.55268 13.2598 2.64645 13.3536C2.74021 13.4473 2.86739 13.5 3 13.5H6C6.13261 13.5 6.25979 13.4473 6.35355 13.3536C6.44732 13.2598 6.5 13.1326 6.5 13C6.5 12.8674 6.44732 12.7402 6.35355 12.6464C6.25979 12.5527 6.13261 12.5 6 12.5H4.20687L6.85375 9.85375C6.94757 9.75993 7.00028 9.63268 7.00028 9.5C7.00028 9.36732 6.94757 9.24007 6.85375 9.14625C6.75993 9.05243 6.63268 8.99972 6.5 8.99972C6.36732 8.99972 6.24007 9.05243 6.14625 9.14625ZM13 9.5C12.8674 9.5 12.7402 9.55268 12.6464 9.64645C12.5527 9.74021 12.5 9.86739 12.5 10V11.7931L9.85375 9.14625C9.75993 9.05243 9.63268 8.99972 9.5 8.99972C9.36732 8.99972 9.24007 9.05243 9.14625 9.14625C9.05243 9.24007 8.99972 9.36732 8.99972 9.5C8.99972 9.63268 9.05243 9.75993 9.14625 9.85375L11.7931 12.5H10C9.86739 12.5 9.74021 12.5527 9.64645 12.6464C9.55268 12.7402 9.5 12.8674 9.5 13C9.5 13.1326 9.55268 13.2598 9.64645 13.3536C9.74021 13.4473 9.86739 13.5 10 13.5H13C13.1326 13.5 13.2598 13.4473 13.3536 13.3536C13.4473 13.2598 13.5 13.1326 13.5 13V10C13.5 9.86739 13.4473 9.74021 13.3536 9.64645C13.2598 9.55268 13.1326 9.5 13 9.5ZM4.20687 3.5H6C6.13261 3.5 6.25979 3.44732 6.35355 3.35355C6.44732 3.25979 6.5 3.13261 6.5 3C6.5 2.86739 6.44732 2.74021 6.35355 2.64645C6.25979 2.55268 6.13261 2.5 6 2.5H3C2.86739 2.5 2.74021 2.55268 2.64645 2.64645C2.55268 2.74021 2.5 2.86739 2.5 3V6C2.5 6.13261 2.55268 6.25979 2.64645 6.35355C2.74021 6.44732 2.86739 6.5 3 6.5C3.13261 6.5 3.25979 6.44732 3.35355 6.35355C3.44732 6.25979 3.5 6.13261 3.5 6V4.20687L6.14625 6.85375C6.24007 6.94757 6.36732 7.00028 6.5 7.00028C6.63268 7.00028 6.75993 6.94757 6.85375 6.85375C6.94757 6.75993 7.00028 6.63268 7.00028 6.5C7.00028 6.36732 6.94757 6.24007 6.85375 6.14625L4.20687 3.5Z" fill="currentColor"/>
</svg>
