<svg width="16" height="13" viewBox="0 0 16 13" fill="none" xmlns="http://www.w3.org/2000/svg">
<g id="freethrow">
<g id="Group">
<path id="Vector" d="M7.95892 0.813477L8.44187 0.683992L8.78766 1.97369L8.30471 2.10318L7.95892 0.813477Z" fill="currentColor"/>
<path id="Vector_2" d="M6.58496 1.75635L6.93851 1.40279L7.88268 2.34696L7.52913 2.70051L6.58496 1.75635Z" fill="currentColor"/>
<path id="Vector_3" d="M5.8703 3.25781L5.99978 2.77487L7.28948 3.12066L7.16 3.6036L5.8703 3.25781Z" fill="currentColor"/>
<path id="Vector_4" d="M10.1725 2.34766L11.1166 1.40349L11.4702 1.75705L10.526 2.70121L10.1725 2.34766Z" fill="currentColor"/>
<path id="Vector_5" d="M9.27313 1.9751L9.61892 0.685399L10.1019 0.814884L9.75608 2.10458L9.27313 1.9751Z" fill="currentColor"/>
<path id="Vector_6" d="M15.1018 3.87712L14.6179 2.0716C14.6095 2.03987 14.5948 2.01011 14.5748 1.98404C14.5549 1.95797 14.53 1.9361 14.5015 1.91968C14.4731 1.90326 14.4417 1.89261 14.4091 1.88834C14.3766 1.88408 14.3435 1.88628 14.3118 1.89482L9.46248 3.19415C9.41423 3.20709 9.37096 3.23418 9.33824 3.27193C9.30552 3.30968 9.28485 3.35635 9.27888 3.40595L9.19686 4.09477L8.56998 4.2628L8.42723 3.7303C8.41007 3.66627 8.36817 3.61168 8.31076 3.57853C8.25335 3.54538 8.18512 3.5364 8.12108 3.55355L5.02573 4.383C4.00265 4.65696 3.11855 5.3027 2.54631 6.19392C1.97408 7.08515 1.75485 8.15779 1.93151 9.20208C1.77008 9.16193 1.60078 9.16644 1.44172 9.21513C1.28266 9.26381 1.13983 9.35483 1.02852 9.47844C0.917212 9.60206 0.841615 9.75362 0.80982 9.91689C0.778025 10.0802 0.791229 10.249 0.848019 10.4054C0.904808 10.5617 1.00305 10.6997 1.13222 10.8045C1.26139 10.9093 1.41663 10.977 1.58132 11.0004C1.74602 11.0237 1.91396 11.0019 2.06719 10.9371C2.22041 10.8724 2.35315 10.7672 2.45118 10.6328C2.86729 11.3498 3.48402 11.9295 4.22542 12.3004C4.96682 12.6713 5.80051 12.8173 6.62384 12.7204C7.44717 12.6235 8.22418 12.2879 8.85919 11.755C9.4942 11.2221 9.95948 10.515 10.1977 9.721C10.2092 9.69906 10.2174 9.67553 10.2219 9.65118C10.8231 6.4444 11.8379 5.2678 14.9431 4.1778C15.0026 4.15692 15.052 4.11434 15.0814 4.05859C15.1108 4.00283 15.1181 3.93802 15.1018 3.87712ZM1.82498 10.4935C1.74523 10.5148 1.66093 10.5121 1.58275 10.4855C1.50457 10.459 1.43601 10.4098 1.38576 10.3443C1.3355 10.2788 1.30579 10.1999 1.30039 10.1175C1.29499 10.0351 1.31413 9.95297 1.35541 9.88146C1.39669 9.80995 1.45824 9.75229 1.53229 9.71576C1.60633 9.67924 1.68955 9.66548 1.77141 9.67624C1.85327 9.68701 1.9301 9.7218 1.99219 9.77622C2.05428 9.83064 2.09884 9.90226 2.12023 9.982C2.14882 10.089 2.13378 10.2029 2.07842 10.2988C2.02306 10.3947 1.93191 10.4647 1.82498 10.4935ZM6.67568 10.5407C6.27081 10.6492 5.84288 10.6351 5.44599 10.5004C5.0491 10.3656 4.70108 10.1162 4.44594 9.78366C4.1908 9.45112 4.04 9.05039 4.0126 8.63214C3.9852 8.21389 4.08245 7.79692 4.29203 7.43394C4.50161 7.07096 4.81413 6.77827 5.19005 6.5929C5.56597 6.40753 5.98842 6.33779 6.40397 6.39251C6.81953 6.44723 7.20953 6.62394 7.52465 6.9003C7.83978 7.17666 8.06588 7.54027 8.17436 7.94513C8.24654 8.21396 8.26502 8.49439 8.22875 8.77038C8.19248 9.04636 8.10216 9.31249 7.96297 9.55355C7.82378 9.79461 7.63844 10.0059 7.41755 10.1753C7.19666 10.3446 6.9446 10.4688 6.67568 10.5407Z" fill="currentColor"/>
</g>
</g>
</svg>
