<svg width="16" height="16" viewBox="0 0 16 16" fill="none" xmlns="http://www.w3.org/2000/svg">
<g id="HouseSimple">
<path id="Vector" d="M14 7.50016V13.5002C14 13.6328 13.9473 13.7599 13.8536 13.8537C13.7598 13.9475 13.6326 14.0002 13.5 14.0002H2.50001C2.3674 14.0002 2.24022 13.9475 2.14645 13.8537C2.05268 13.7599 2.00001 13.6328 2.00001 13.5002V7.50016C1.99954 7.36869 2.02521 7.23844 2.07553 7.11698C2.12586 6.99552 2.19982 6.88528 2.29313 6.79266L7.29313 1.79266C7.48065 1.60527 7.7349 1.5 8.00001 1.5C8.26511 1.5 8.51936 1.60527 8.70688 1.79266L13.7069 6.79266C13.8002 6.88528 13.8742 6.99552 13.9245 7.11698C13.9748 7.23844 14.0005 7.36869 14 7.50016Z" fill="currentColor"/>
</g>
</svg>
