<svg width="16" height="16" viewBox="0 0 16 16" fill="none" xmlns="http://www.w3.org/2000/svg">
<g id="icon/menu tab/draw or matches">
<path id="Vector" d="M13.6328 3.91261C13.6026 3.8674 13.5516 3.8361 13.4797 3.8361H12.0169C11.9601 3.45242 11.8789 3.17306 11.8453 3.06758C11.8824 3.02701 11.9195 2.98759 11.9566 2.94818C12.0157 2.88559 12.0192 2.78706 11.9566 2.72446C11.9369 2.70476 11.9126 2.69201 11.8859 2.68389C11.865 2.67346 11.8407 2.6665 11.8129 2.6665H4.53212C4.50314 2.6665 4.4788 2.6723 4.45909 2.68389C4.43243 2.69085 4.40809 2.70476 4.38838 2.72446C4.32579 2.78706 4.32926 2.88559 4.38838 2.94818C4.42548 2.98759 4.46257 3.02816 4.49966 3.06758C4.46605 3.17306 4.38606 3.45126 4.32811 3.8361H2.86987C2.80496 3.8361 2.75743 3.86161 2.72613 3.89986C2.68788 3.93579 2.66354 3.98448 2.66702 4.0378C2.7412 5.03121 3.12373 5.97477 3.752 6.74678C4.41272 7.55819 5.33079 8.1482 6.33926 8.41714C6.29172 8.59101 6.27087 8.86574 6.55371 8.98051C6.74613 9.05933 6.95825 9.15206 7.09852 9.31087C7.24804 9.48011 7.19357 9.66789 7.04056 9.81394C6.9826 9.86958 6.96404 9.91943 6.9826 9.99824L7.36744 12.1647H6.99999C6.92927 12.1647 6.81915 12.1925 6.75656 12.2273L6.07728 12.5994C6.01469 12.6342 5.96368 12.72 5.96368 12.7907V13.2033C5.96368 13.2752 6.02164 13.3332 6.09351 13.3332H10.2549C10.3268 13.3332 10.3847 13.2752 10.3847 13.2033L10.3836 12.786C10.3836 12.7095 10.3407 12.6388 10.2735 12.6017C10.1008 12.5067 9.76459 12.3235 9.58955 12.2273C9.52696 12.1925 9.41799 12.1647 9.34612 12.1647H8.98098C8.98098 12.1647 9.36468 10.0075 9.36583 9.99825C9.37626 9.9403 9.37974 9.88813 9.33917 9.84177C9.29744 9.79423 9.24875 9.75715 9.21398 9.70383C9.16413 9.62616 9.13979 9.53575 9.16877 9.44649C9.22905 9.25755 9.44814 9.14163 9.61273 9.06166C9.67186 9.03268 9.73328 9.00601 9.79472 8.98052C10.0764 8.86576 10.0555 8.59102 10.0092 8.41715C11.0176 8.14706 11.9357 7.55821 12.5964 6.74679C13.2247 5.97478 13.6072 5.03122 13.6814 4.03781C13.6826 3.99143 13.6629 3.94738 13.6328 3.91261ZM5.01666 7.29506C4.81381 7.1606 4.68978 7.06439 4.51011 6.90326C4.40114 6.80473 4.29566 6.70273 4.19481 6.59492C4.14265 6.53928 4.09165 6.48249 4.04296 6.42453C4.01978 6.39787 3.99775 6.37121 3.97573 6.34339C3.96414 6.32948 3.95371 6.31557 3.94327 6.30281C3.94211 6.3005 3.9282 6.28311 3.92357 6.27731C3.74853 6.0478 3.5932 5.80321 3.46338 5.54588C3.4286 5.47749 3.39614 5.4091 3.36485 5.33955C3.35789 5.32332 3.35094 5.30709 3.34398 5.29086C3.34282 5.28854 3.33239 5.26188 3.33007 5.2584C3.31848 5.23058 3.30689 5.20276 3.29646 5.17378C3.24313 5.03584 3.19561 4.89674 3.1562 4.75533C3.11679 4.61275 3.08201 4.46785 3.05651 4.3218C3.05071 4.28934 3.04608 4.25688 3.04028 4.22443H4.22495C4.16931 5.22479 4.36637 6.59145 5.56147 7.60572C5.37252 7.51415 5.19054 7.41098 5.01666 7.29506ZM9.97559 4.92572L8.91495 5.69657L9.32066 6.94383C9.34963 7.03193 9.31137 7.05858 9.2372 7.00411L8.17656 6.23326L7.11475 7.00527C7.04057 7.05975 7.00232 7.03193 7.0313 6.94499L7.43701 5.69773L6.37637 4.92688C6.30218 4.8724 6.31609 4.82835 6.40882 4.82835H7.721L8.12671 3.58109C8.15569 3.49299 8.2009 3.49299 8.22988 3.58109L8.63559 4.82835H9.94777C10.0359 4.82719 10.0509 4.87124 9.97559 4.92572ZM13.1876 4.3218C13.1621 4.46785 13.1285 4.61275 13.088 4.75533C13.0485 4.89674 13.001 5.037 12.9477 5.17378C12.9373 5.2016 12.9257 5.23058 12.9141 5.2584C12.9129 5.26188 12.9013 5.28854 12.9002 5.29086C12.8932 5.30709 12.8863 5.32332 12.8793 5.33955C12.848 5.4091 12.8155 5.47749 12.7808 5.54588C12.6509 5.80321 12.4956 6.0478 12.3206 6.27731C12.3159 6.28311 12.302 6.30166 12.3009 6.30281C12.2904 6.31673 12.2789 6.33063 12.2684 6.34339C12.2464 6.37121 12.2244 6.39787 12.2012 6.42453C12.1525 6.48249 12.1015 6.53928 12.0493 6.59492C11.9496 6.70273 11.8442 6.80473 11.734 6.90326C11.5544 7.06438 11.4292 7.15944 11.2275 7.29506C11.0536 7.41098 10.8716 7.51415 10.6838 7.60688C11.8778 6.59144 12.0748 5.22479 12.018 4.22443H13.2027C13.1981 4.25688 13.1923 4.28934 13.1876 4.3218Z" fill="#8D8E92"/>
</g>
</svg>
