<svg width="16" height="16" viewBox="0 0 16 16" fill="none" xmlns="http://www.w3.org/2000/svg">
<g id="icon/menu tab/standings">
<g id="Vector">
<path d="M8.81877 5.50026C8.76159 5.50026 8.70442 5.48354 8.65464 5.4497L7.91725 4.948L7.17985 5.4497C7.0799 5.51815 6.94767 5.51737 6.84849 5.44737C6.74932 5.37814 6.70304 5.25446 6.73298 5.13662L6.96517 4.2215L6.26939 3.62762C6.17877 3.54984 6.14416 3.42538 6.18266 3.3126C6.22078 3.19942 6.32345 3.12125 6.44246 3.11425L7.32337 3.06447L7.64384 2.19135C7.68545 2.07623 7.79513 2 7.91725 2C8.03937 2 8.14904 2.07623 8.19105 2.19135L8.51152 3.06447L9.39242 3.11425C9.51143 3.12125 9.61411 3.19942 9.65222 3.3126C9.69034 3.42538 9.65611 3.54984 9.56549 3.62762L8.86971 4.22189L9.1019 5.13701C9.13185 5.25485 9.08556 5.37814 8.98639 5.44776C8.93583 5.48276 8.8771 5.50026 8.81877 5.50026Z" fill="#8D8E92"/>
<path d="M12.8356 11.1181H10.7312V13.001C10.7312 13.1162 10.709 13.2314 10.6736 13.3333H12.8356C13.0173 13.3333 13.1679 13.1826 13.1679 13.001V11.4503C13.1679 11.2687 13.0173 11.1181 12.8356 11.1181Z" fill="#8D8E92"/>
<path d="M5.1034 10.2321H2.99897C2.81732 10.2321 2.66669 10.3827 2.66669 10.5643V13.0011C2.66669 13.1827 2.81732 13.3333 2.99897 13.3333H5.16099C5.12555 13.2314 5.1034 13.1162 5.1034 13.0011V10.2321Z" fill="#8D8E92"/>
<path d="M10.0002 6.20071H5.83461C5.63172 6.20071 5.46706 6.38165 5.46706 6.60461V12.7977C5.46706 13.0207 5.63172 13.2016 5.83461 13.2016H10.0002C10.203 13.2016 10.3677 13.0207 10.3677 12.7977V6.60461C10.3677 6.38165 10.203 6.20071 10.0002 6.20071ZM8.28493 10.6436C8.28493 10.8666 8.12027 11.0475 7.91738 11.0475C7.71449 11.0475 7.54983 10.8666 7.54983 10.6436V9.05978C7.47485 8.986 7.42732 8.87829 7.42732 8.75874C7.42732 8.53578 7.59198 8.35484 7.79486 8.35484H7.91738C8.12027 8.35484 8.28493 8.53578 8.28493 8.75874V10.6436Z" fill="#8D8E92"/>
</g>
</g>
</svg>
