<svg width="16" height="16" viewBox="0 0 16 16" fill="none" xmlns="http://www.w3.org/2000/svg">
<g id="icon/general/star">
<path id="Vector" d="M9.71401 5.5017L9.83034 5.73742L10.0905 5.77522L13.9843 6.34105L11.1665 9.08755L10.9782 9.27104L11.0227 9.53013L11.6879 13.4083L8.20525 11.5772L7.97257 11.4549L7.73989 11.5772L4.25713 13.4082L4.92215 9.53011L4.96658 9.27104L4.77836 9.08756L1.96085 6.34105L5.85461 5.77522L6.11473 5.73742L6.23107 5.50171L7.97258 1.97329L9.71401 5.5017ZM14.1454 6.18402L14.1453 6.18405L14.1454 6.18402ZM4.21913 13.6299C4.21912 13.6299 4.21912 13.6299 4.21912 13.6299L4.21913 13.6299ZM1.73821 6.37341L1.73829 6.3734L1.73821 6.37341ZM7.87305 1.77162L7.87308 1.77168L7.87305 1.77162Z" fill="#8D8E92" stroke="#8D8E92"/>
</g>
</svg>
