<svg width="18" height="18" viewBox="0 0 18 18" fill="none" xmlns="http://www.w3.org/2000/svg">
<path d="M12.7291 6.38097C12.7291 4.20252 11.059 2.43575 8.99975 2.43575C6.94049 2.43575 5.27039 4.20252 5.27039 6.38097C5.27039 8.55942 6.94049 10.3262 8.99975 10.3262C11.059 10.3262 12.7291 8.55942 12.7291 6.38097ZM6.24326 6.38097C6.24326 4.76857 7.47557 3.46493 8.99975 3.46493C10.5239 3.46493 11.7562 4.76857 11.7562 6.38097C11.7562 7.99337 10.5239 9.29701 8.99975 9.29701C7.47557 9.29701 6.24326 7.99337 6.24326 6.38097Z" fill="#5A637E"/>
<path d="M2.75687 16.3641C2.83795 16.4156 2.91902 16.4327 3.00009 16.4327C3.16224 16.4327 3.3406 16.347 3.42167 16.1754C4.5567 14.0484 6.69703 12.7276 8.9995 12.7276C11.302 12.7276 13.4423 14.0484 14.5935 16.1754C14.7233 16.4156 15.0313 16.5013 15.2583 16.3641C15.4854 16.2269 15.5664 15.901 15.4367 15.6608C14.1233 13.2251 11.6587 11.6985 8.9995 11.6985C6.34031 11.6985 3.87568 13.2251 2.5623 15.6608C2.43258 15.901 2.51365 16.2269 2.75687 16.3641Z" fill="#5A637E"/>
</svg>
