<svg width="12" height="12" viewBox="0 0 12 12" fill="none" xmlns="http://www.w3.org/2000/svg">
<g clip-path="url(#clip0_75_28723)">
<path d="M8.08315 0.835938C7.49526 0.617578 6.85698 0.5 6.2019 0.5C5.6644 0.5 5.1437 0.583984 4.65659 0.718359H4.6398C2.4394 1.39023 0.826904 3.45625 0.826904 5.875C0.826904 8.83125 3.24565 11.25 6.2019 11.25C6.7562 11.25 7.2769 11.166 7.78081 11.0148H7.79761C8.58706 10.7629 9.30933 10.343 9.89722 9.77188C9.91401 9.77188 9.91401 9.75508 9.91401 9.75508C10.4683 9.23438 10.905 8.5793 11.1906 7.87383C11.1906 7.85703 11.1906 7.85703 11.2074 7.84023C11.4425 7.21875 11.5769 6.56367 11.5769 5.875C11.5769 3.57383 10.1156 1.60859 8.08315 0.835938ZM6.2019 0.819141C6.80659 0.819141 7.37769 0.919922 7.91519 1.12148C8.18394 1.45742 10.4011 4.31289 9.91401 7.25234C8.77183 6.73164 7.68003 5.8582 7.42808 5.65664C7.39448 3.77539 6.52105 2.43164 5.79878 1.62539C5.78198 1.5918 5.76519 1.575 5.74839 1.575C5.49644 1.30625 5.26128 1.10469 5.07651 0.953516C5.42925 0.869531 5.81558 0.819141 6.2019 0.819141ZM1.14604 5.875C1.14604 3.62422 2.62417 1.70938 4.65659 1.07109C4.77417 1.15508 5.04292 1.35664 5.36206 1.67578C4.6062 2.0957 2.473 3.48984 1.16284 5.99258C1.16284 5.95898 1.14604 5.92539 1.14604 5.875ZM1.21323 6.63086C2.48979 3.80898 4.89175 2.29727 5.61401 1.91094C5.94995 2.28047 6.30269 2.76758 6.58823 3.37227C5.94995 3.7082 3.22886 5.3207 1.86831 8.44492C1.53237 7.90742 1.31401 7.28594 1.21323 6.63086ZM2.06987 8.78086C3.34644 5.63984 6.05073 4.02734 6.70581 3.67461C6.92417 4.2457 7.07534 4.90078 7.09214 5.63984C6.62183 5.92539 4.43823 7.33633 3.41362 10.091C2.89292 9.73828 2.4394 9.30156 2.06987 8.78086ZM6.2019 10.9309C5.29487 10.9309 4.43823 10.6957 3.71597 10.2758C3.90073 9.78867 4.11909 9.33516 4.35425 8.91523C5.00933 9.46953 6.11792 10.2926 7.24331 10.8301C6.90737 10.8805 6.55464 10.9309 6.2019 10.9309ZM7.74722 10.6789C6.50425 10.1918 5.24448 9.21758 4.52222 8.62969C4.84136 8.12578 5.19409 7.70586 5.53003 7.35313C6.43706 8.10898 7.99917 9.30156 9.4605 9.73828C8.97339 10.1414 8.3855 10.4773 7.74722 10.6789ZM9.76284 9.45273C8.26792 9.1 6.57144 7.77305 5.78198 7.10117C6.45386 6.44609 7.04175 6.05977 7.26011 5.92539C7.66323 6.26133 9.37651 7.60508 10.8378 7.90742C10.5691 8.49531 10.1996 9.01602 9.76284 9.45273ZM10.9554 7.60508C10.7203 7.55469 10.4683 7.4875 10.2332 7.38672C10.6867 4.85039 9.25894 2.43164 8.53667 1.39023C10.1492 2.23008 11.2746 3.92656 11.2746 5.875C11.2578 6.47969 11.1402 7.05078 10.9554 7.60508Z" fill="#0038E0"/>
<path d="M9.91401 7.25234C8.77183 6.73164 7.68003 5.8582 7.42808 5.65664C7.39448 3.77539 6.52105 2.43164 5.79878 1.62539C5.78198 1.5918 5.76519 1.575 5.74839 1.575C5.49644 1.30625 5.26128 1.10469 5.07651 0.953516C5.44604 0.869531 5.81558 0.819141 6.2019 0.819141C6.80659 0.819141 7.37769 0.919922 7.91519 1.12148C8.18394 1.45742 10.4011 4.31289 9.91401 7.25234Z" fill="#F8C433"/>
<path d="M6.57144 3.37227C5.93315 3.7082 3.21206 5.3207 1.85151 8.44492C1.53237 7.89063 1.29722 7.28594 1.19644 6.63086C2.48979 3.80898 4.89175 2.29727 5.61401 1.91094C5.93315 2.28047 6.28589 2.76758 6.57144 3.37227ZM9.4605 9.72148C8.95659 10.1414 8.3855 10.4773 7.74722 10.6789C6.50425 10.1918 5.24448 9.21758 4.52222 8.62969C4.84136 8.12578 5.19409 7.70586 5.53003 7.35313C6.43706 8.10898 7.99917 9.30156 9.4605 9.72148Z" fill="#FBDD8A"/>
<path d="M10.821 7.90742C10.5691 8.49531 10.1996 9.01602 9.74605 9.46953C8.25112 9.1168 6.55464 7.78984 5.76519 7.11797C6.43706 6.46289 7.02495 6.07656 7.24331 5.94219C7.66323 6.26133 9.35972 7.60508 10.821 7.90742ZM7.24331 10.8133C6.90737 10.8805 6.57144 10.9141 6.2019 10.9141C5.29487 10.9141 4.43823 10.6789 3.71597 10.259C3.90073 9.77187 4.11909 9.31836 4.35425 8.89844C5.00933 9.45273 6.11792 10.2926 7.24331 10.8133Z" fill="#F8C433"/>
<path d="M11.2578 5.875C11.2578 6.47969 11.157 7.05078 10.9554 7.60508C10.7203 7.55469 10.4683 7.4875 10.2332 7.38672C10.6867 4.85039 9.25894 2.43164 8.53667 1.39023C10.1324 2.23008 11.2578 3.92656 11.2578 5.875Z" fill="#FBDD8A"/>
<path d="M7.09214 5.63984C6.62183 5.92539 4.43823 7.33633 3.41362 10.091C2.89292 9.73828 2.42261 9.30156 2.06987 8.78086C3.34644 5.63984 6.05073 4.02734 6.70581 3.67461C6.92417 4.22891 7.07534 4.88398 7.09214 5.63984ZM5.37886 1.65898C4.6062 2.0957 2.473 3.48984 1.16284 5.99258V5.875C1.16284 3.62422 2.64097 1.70938 4.67339 1.07109C4.79097 1.13828 5.05972 1.33984 5.37886 1.65898Z" fill="#F8C433"/>
<path d="M8.30151 1.65898C7.66323 1.33984 6.95776 1.15508 6.2019 1.15508C5.93315 1.15508 5.64761 1.17188 5.39565 1.22227C5.27808 1.10469 5.1605 1.0207 5.07651 0.936719C5.44604 0.852734 5.81558 0.802344 6.2019 0.802344C6.80659 0.802344 7.37769 0.903125 7.91519 1.10469C7.96558 1.18867 8.11675 1.39023 8.30151 1.65898Z" fill="#E0A500"/>
<path d="M2.03628 8.07539C1.96909 8.19297 1.9187 8.32734 1.86831 8.44492C1.54917 7.89062 1.31401 7.28594 1.21323 6.63086C1.29722 6.4293 1.398 6.24453 1.49878 6.05977C1.51558 6.78203 1.71714 7.4707 2.03628 8.07539ZM9.4605 9.72148C8.95659 10.1414 8.3855 10.4773 7.74722 10.6789C7.57925 10.6117 7.42808 10.5445 7.26011 10.4605C7.93198 10.3094 8.55347 10.007 9.09097 9.58711C9.20854 9.6375 9.34292 9.68789 9.4605 9.72148Z" fill="#F8C433"/>
<path d="M10.821 7.90742C10.5691 8.49531 10.1996 9.01602 9.74605 9.46953C9.62847 9.43594 9.49409 9.40234 9.37651 9.36875C9.84683 8.94883 10.2332 8.41133 10.4851 7.84023C10.6027 7.85703 10.7203 7.89062 10.821 7.90742ZM7.24331 10.8133C6.90737 10.8805 6.57144 10.9141 6.2019 10.9141C5.29487 10.9141 4.43823 10.6789 3.71597 10.259C3.74956 10.1582 3.79995 10.0406 3.83354 9.93984C4.52222 10.343 5.34526 10.5781 6.2019 10.5781C6.38667 10.5781 6.55464 10.5613 6.72261 10.5445C6.89058 10.6453 7.05855 10.7461 7.24331 10.8133Z" fill="#E0A500"/>
<path d="M11.2578 5.875C11.2578 6.47969 11.157 7.05078 10.9554 7.60508C10.8546 7.58828 10.7371 7.55469 10.6195 7.52109C10.8042 7.01719 10.9218 6.46289 10.9218 5.875C10.9218 4.29609 10.1492 2.90195 8.95659 2.04531C8.80542 1.79336 8.65425 1.5582 8.51987 1.39023C10.1324 2.23008 11.2578 3.92656 11.2578 5.875Z" fill="#F8C433"/>
<path d="M3.548 9.77188C3.49761 9.87266 3.46401 9.99023 3.41362 10.091C2.89292 9.73828 2.42261 9.30156 2.06987 8.78086C2.12026 8.66328 2.17065 8.52891 2.22104 8.41133C2.57378 8.94883 3.0273 9.41914 3.548 9.77188ZM5.00933 1.32305C3.14487 1.81016 1.71714 3.40586 1.51558 5.37109C1.3812 5.57266 1.26362 5.79102 1.14604 6.00938V5.8918C1.14604 3.64102 2.62417 1.72617 4.65659 1.08789C4.74058 1.10469 4.85815 1.18867 5.00933 1.32305Z" fill="#E0A500"/>
</g>
<defs>
<clipPath id="clip0_75_28723">
<rect width="12" height="12" fill="white"/>
</clipPath>
</defs>
</svg>
