<svg width="20" height="20" viewBox="0 0 20 20" fill="currentColor" xmlns="http://www.w3.org/2000/svg">
<g id="icon/m&#195;&#180;n/mono/rugby">
<path id="Vector" d="M7.17127 18.6057C4.62315 18.9776 2.55252 18.5439 2.00377 17.9957C1.45377 17.4457 1.02002 15.3651 1.39752 12.8076C3.03002 15.1132 4.96377 17.0532 7.17127 18.6057Z" fill="currentColor"/>
<path id="Vector_2" d="M12.8076 1.39792C15.3651 1.02042 17.4464 1.45479 17.9964 2.00417C18.5445 2.55229 18.9782 4.62354 18.6064 7.17167C17.0532 4.96417 15.1132 3.03042 12.8076 1.39792Z" fill="currentColor"/>
<path id="Vector_3" d="M11.0986 1.75781C9.1342 2.30969 7.03732 3.36781 5.20232 5.20281C3.36732 7.03781 2.3092 9.13469 1.75732 11.0991C3.66732 14.0822 6.06357 16.4816 8.8917 18.2453C10.8586 17.6941 12.9592 16.6353 14.7967 14.7978C16.6342 12.9603 17.6936 10.8591 18.2442 8.89281C16.4811 6.06406 14.0817 3.66781 11.0986 1.75781ZM11.5773 5.69156C11.3486 5.82719 11.1236 5.97531 10.8998 6.12406L11.3598 6.58406C11.5429 6.76719 11.5429 7.06406 11.3598 7.24719C11.1767 7.43031 10.8798 7.43031 10.6967 7.24719L10.1242 6.67469C9.79357 6.92344 9.46795 7.18344 9.15107 7.46031L9.81732 8.12656C10.0004 8.30969 10.0004 8.60656 9.81732 8.78969C9.6342 8.97281 9.33732 8.97281 9.1542 8.78969L8.46295 8.09844C8.3317 8.22594 8.26045 8.26281 7.60295 8.99719L8.27545 9.66969C8.45857 9.85281 8.45857 10.1497 8.27545 10.3328C8.09232 10.5159 7.79545 10.5159 7.61232 10.3328L6.99732 9.71781C6.73232 10.0478 6.48295 10.3847 6.24857 10.7278L6.73295 11.2122C6.91607 11.3953 6.91607 11.6922 6.73295 11.8753C6.54982 12.0584 6.25295 12.0584 6.06982 11.8753L5.72982 11.5353C5.59045 11.7684 5.44795 12.0009 5.32232 12.2391C5.2017 12.4678 4.91795 12.5559 4.6892 12.4353C4.46045 12.3147 4.37232 12.0316 4.49295 11.8022C4.66295 11.4797 4.85045 11.1634 5.0442 10.8497L4.52732 10.3316C4.3442 10.1484 4.3442 9.85156 4.52732 9.66844C4.71045 9.48531 5.00732 9.48531 5.19045 9.66844L5.5742 10.0522C5.81232 9.71156 6.0642 9.37719 6.33045 9.04969L6.06982 8.78906C5.8867 8.60594 5.8867 8.30906 6.06982 8.12594C6.25295 7.94281 6.54982 7.94281 6.73295 8.12594L6.94045 8.33344C7.63982 7.55719 7.65045 7.58094 7.80107 7.43469L7.61295 7.24656C7.42982 7.06344 7.42982 6.76656 7.61295 6.58344C7.79607 6.40031 8.09295 6.40031 8.27607 6.58344L8.4867 6.79406C8.80232 6.51656 9.12607 6.25469 9.45482 6.00344L9.15545 5.70406C8.97232 5.52094 8.97232 5.22406 9.15545 5.04094C9.33857 4.85781 9.63545 4.85781 9.81857 5.04094L10.2223 5.44469C10.5111 5.24781 10.8036 5.06031 11.1004 4.88469C11.3236 4.75281 11.6111 4.82594 11.7423 5.04906C11.8736 5.27281 11.7998 5.56031 11.5773 5.69156Z" fill="currentColor"/>
</g>
</svg>
