<svg width="20" height="20" viewBox="0 0 20 20" fill="currentColor" xmlns="http://www.w3.org/2000/svg">
    <path d="M5.69928 12.0179L4.36453 10.6832L7.23282 3.29944C7.34642 2.95866 7.54521 2.64627 7.8008 2.39068C8.76637 1.42511 10.3567 1.42511 11.3223 2.39068C11.8903 2.95866 12.1458 3.75383 12.0322 4.5206L5.69928 12.0179ZM7.57361 13.8639L15.1845 7.41729C15.2697 6.05414 14.219 4.86139 12.8558 4.77619C12.7422 4.77619 12.657 4.77619 12.5434 4.77619L6.12526 12.4155L7.57361 13.8639ZM17.5984 8.63845C17.0305 8.07047 16.2637 7.81488 15.4685 7.92847L7.97119 14.2898L9.30595 15.6246L16.6613 12.7563C17.0021 12.6427 17.3145 12.4439 17.57 12.1883C18.564 11.1944 18.564 9.63241 17.5984 8.63845ZM4.36453 11.4499C4.30773 11.3931 4.19413 11.3647 4.10894 11.3647C4.05214 11.3647 4.02374 11.3931 3.96694 11.4499L3.45576 11.9611L7.99959 16.5618L8.51077 16.0506C8.53917 16.0222 8.56757 15.9654 8.59597 15.9086C8.62437 15.8234 8.59597 15.7098 8.51077 15.653L4.36453 11.4499ZM2.60379 12.8131C1.35424 14.0626 1.35424 16.1074 2.60379 17.3853C3.85335 18.6633 5.89807 18.6349 7.17602 17.3853L7.60201 16.9593L3.02978 12.3871L2.60379 12.8131Z"
          fill="currentColor"/>
</svg>
