<svg width="24" height="24" viewBox="0 0 24 24" fill="none" xmlns="http://www.w3.org/2000/svg">
<g clip-path="url(#clip0_7564_279605)">
<path d="M22.0361 19.4103C21.9684 19.4955 21.9685 19.6158 22.0361 19.7009C22.0931 19.6127 22.0932 19.4986 22.0361 19.4103Z" fill="currentColor"/>
<path d="M22.4024 19.4103C22.3454 19.4985 22.3453 19.6126 22.4024 19.7009C22.4701 19.6157 22.4701 19.4954 22.4024 19.4103Z" fill="currentColor"/>
<path d="M22.3706 19.3774C22.2833 19.3031 22.1553 19.3031 22.068 19.3774C22.1421 19.4841 22.1427 19.6263 22.068 19.7338C22.1553 19.8081 22.2832 19.8081 22.3706 19.7338C22.2965 19.6271 22.2959 19.4849 22.3706 19.3774Z" fill="currentColor"/>
</g>
<g clip-path="url(#clip1_7564_279605)">
<path d="M13.774 3.45181C13.7451 3.45178 13.7163 3.44834 13.6882 3.44155L13.275 3.34291C13.1357 3.64798 12.9847 3.95256 12.8222 4.25665L13.2581 4.46711C13.3422 4.51138 13.4059 4.58658 13.4356 4.67684C13.4653 4.76711 13.4588 4.8654 13.4175 4.95098C13.3762 5.03657 13.3033 5.10277 13.2141 5.13562C13.1249 5.16848 13.0265 5.16543 12.9395 5.12711L12.4628 4.89758C12.2844 5.20167 12.0949 5.50417 11.8945 5.80508L12.1878 5.98108C12.2712 6.03116 12.3313 6.11232 12.3549 6.2067C12.3784 6.30107 12.3635 6.40094 12.3134 6.48433C12.2633 6.56772 12.1822 6.6278 12.0878 6.65135C11.9934 6.6749 11.8936 6.66 11.8102 6.60991L11.478 6.41045C11.258 6.71625 11.0277 7.01899 10.7872 7.31868L11.1509 7.53685C11.1922 7.56164 11.2282 7.59433 11.2568 7.63304C11.2855 7.67175 11.3063 7.71573 11.3179 7.76246C11.3296 7.80919 11.3319 7.85776 11.3248 7.9054C11.3177 7.95304 11.3013 7.99881 11.2765 8.0401C11.2517 8.08139 11.219 8.11739 11.1803 8.14604C11.1416 8.1747 11.0976 8.19545 11.0509 8.20711C11.0041 8.21878 10.9556 8.22112 10.9079 8.21401C10.8603 8.2069 10.8145 8.19048 10.7732 8.16568L10.3134 7.88958C10.0228 8.22765 9.71943 8.55948 9.40337 8.88508L9.66627 9.14798C9.70129 9.1818 9.72922 9.22226 9.74844 9.267C9.76765 9.31173 9.77777 9.35985 9.77819 9.40853C9.77861 9.45722 9.76934 9.5055 9.7509 9.55056C9.73246 9.59563 9.70524 9.63656 9.67081 9.67099C9.63638 9.70542 9.59544 9.73265 9.55038 9.75108C9.50532 9.76952 9.45704 9.77879 9.40835 9.77837C9.35967 9.77795 9.31155 9.76783 9.26682 9.74862C9.22208 9.7294 9.18162 9.70147 9.1478 9.66645L8.8849 9.40355C8.55954 9.71888 8.22771 10.0222 7.8894 10.3136L8.16586 10.7741C8.21595 10.8575 8.23085 10.9574 8.2073 11.0518C8.18375 11.1462 8.12367 11.2273 8.04028 11.2774C7.95689 11.3275 7.85703 11.3424 7.76265 11.3188C7.66827 11.2953 7.58711 11.2352 7.53703 11.1518L7.31886 10.7881C7.01966 11.0284 6.71692 11.2586 6.41063 11.4789L6.6101 11.8111C6.66018 11.8945 6.67508 11.9943 6.65153 12.0887C6.62798 12.1831 6.5679 12.2642 6.48452 12.3143C6.40113 12.3644 6.30126 12.3793 6.20688 12.3558C6.1125 12.3322 6.03135 12.2721 5.98127 12.1887L5.80526 11.8954C5.5046 12.0954 5.2021 12.2848 4.89776 12.4637L5.1273 12.9404C5.16562 13.0274 5.16867 13.1258 5.13581 13.215C5.10295 13.3042 5.03675 13.3771 4.95117 13.4184C4.86558 13.4598 4.7673 13.4662 4.67703 13.4365C4.58676 13.4068 4.51157 13.3431 4.4673 13.259L4.25683 12.8231C3.95299 12.9851 3.64841 13.1361 3.3431 13.2759L3.44173 13.6866C3.45298 13.7334 3.45488 13.782 3.44732 13.8296C3.43977 13.8772 3.42291 13.9228 3.39771 13.9639C3.37251 14.005 3.33947 14.0407 3.30046 14.069C3.26146 14.0973 3.21726 14.1176 3.1704 14.1288C3.14239 14.1353 3.11373 14.1386 3.08496 14.1387C3.00256 14.1386 2.92257 14.1108 2.85791 14.0597C2.79325 14.0086 2.74768 13.9372 2.72856 13.8571L2.65926 13.5678C2.40651 13.669 2.15449 13.7615 1.9032 13.8453C2.28153 15.894 3.2728 17.7795 4.7459 19.2526C6.219 20.7258 8.10456 21.717 10.1532 22.0953C10.2375 21.8442 10.3296 21.5919 10.4311 21.3389L10.1411 21.2696C10.0921 21.2605 10.0455 21.2415 10.0041 21.2138C9.96271 21.1861 9.9274 21.1503 9.90031 21.1085C9.87323 21.0666 9.85495 21.0198 9.84659 20.9706C9.83823 20.9215 9.83997 20.8712 9.85169 20.8228C9.86341 20.7744 9.88488 20.7289 9.91478 20.689C9.94468 20.6492 9.98238 20.6159 10.0256 20.5911C10.0688 20.5663 10.1166 20.5506 10.1661 20.5449C10.2156 20.5392 10.2657 20.5436 10.3134 20.5579L10.727 20.6565C10.8664 20.3517 11.0173 20.0471 11.1799 19.7428L10.7435 19.5323C10.6588 19.4884 10.5945 19.4132 10.5643 19.3226C10.5342 19.232 10.5405 19.1332 10.5821 19.0472C10.6236 18.9613 10.6971 18.8949 10.7868 18.8622C10.8765 18.8296 10.9754 18.8332 11.0625 18.8723L11.5392 19.1022C11.7176 18.7979 11.9071 18.4954 12.1075 18.1947L11.8142 18.0184C11.7729 17.9936 11.7369 17.9609 11.7083 17.9222C11.6796 17.8835 11.6588 17.8395 11.6472 17.7928C11.6355 17.746 11.6332 17.6975 11.6403 17.6498C11.6474 17.6022 11.6638 17.5564 11.6886 17.5151C11.7387 17.4317 11.8199 17.3717 11.9142 17.3481C11.961 17.3365 12.0095 17.3341 12.0572 17.3412C12.1048 17.3483 12.1506 17.3648 12.1919 17.3895L12.5248 17.5894C12.7448 17.2836 12.9749 16.9808 13.2152 16.6811L12.8515 16.463C12.7681 16.4129 12.708 16.3317 12.6845 16.2374C12.6609 16.143 12.6758 16.0431 12.7259 15.9597C12.776 15.8763 12.8572 15.8163 12.9515 15.7927C13.0459 15.7692 13.1458 15.7841 13.2292 15.8341L13.6897 16.1106C13.9806 15.7725 14.2839 15.4407 14.5998 15.1151L14.3369 14.8522C14.2701 14.7831 14.2331 14.6904 14.234 14.5943C14.2348 14.4982 14.2733 14.4062 14.3413 14.3382C14.4093 14.2702 14.5013 14.2317 14.5974 14.2308C14.6936 14.23 14.7862 14.267 14.8553 14.3337L15.1182 14.5966C15.4436 14.2813 15.7754 13.978 16.1137 13.6866L15.8373 13.226C15.8125 13.1848 15.796 13.139 15.7889 13.0914C15.7818 13.0437 15.7842 12.9951 15.7958 12.9484C15.8194 12.854 15.8795 12.7729 15.9628 12.7228C16.0462 12.6727 16.1461 12.6578 16.2405 12.6814C16.3349 12.7049 16.416 12.765 16.4661 12.8484L16.6843 13.2121C16.9835 12.9718 17.2862 12.7417 17.5925 12.5217L17.3927 12.1887C17.3426 12.1054 17.3277 12.0055 17.3512 11.9111C17.3748 11.8167 17.4349 11.7356 17.5182 11.6855C17.6016 11.6354 17.7015 11.6205 17.7959 11.6441C17.8903 11.6676 17.9714 11.7277 18.0215 11.8111L18.1979 12.1044C18.4985 11.9045 18.801 11.715 19.1054 11.5361L18.8755 11.0594C18.8363 10.9723 18.8327 10.8734 18.8654 10.7837C18.898 10.694 18.9644 10.6205 19.0503 10.579C19.1363 10.5374 19.2351 10.531 19.3257 10.5612C19.4163 10.5913 19.4915 10.6556 19.5355 10.7404L19.7459 11.1767C20.0503 11.0147 20.3548 10.8637 20.6597 10.7239L20.5581 10.3132C20.5462 10.2662 20.5437 10.2172 20.5508 10.1691C20.558 10.1211 20.5746 10.0749 20.5998 10.0334C20.6249 9.99181 20.658 9.95566 20.6973 9.92701C20.7365 9.89836 20.781 9.87779 20.8283 9.8665C20.8755 9.8552 20.9245 9.85341 20.9725 9.86122C21.0204 9.86902 21.0663 9.88628 21.1075 9.91198C21.1487 9.93768 21.1844 9.97132 21.2126 10.0109C21.2407 10.0505 21.2606 10.0954 21.2713 10.1427L21.3406 10.4328C21.5936 10.3312 21.8458 10.2392 22.097 10.1548C21.7187 8.1062 20.7274 6.22065 19.2543 4.74755C17.7812 3.27444 15.8956 2.28318 13.847 1.90485C13.7627 2.15589 13.6701 2.40791 13.5694 2.66091L13.8587 2.73021C13.9462 2.75096 14.023 2.8031 14.0745 2.87673C14.126 2.95036 14.1487 3.04035 14.1383 3.12962C14.1278 3.21888 14.085 3.3012 14.0178 3.36094C13.9507 3.42067 13.8639 3.45366 13.774 3.45365V3.45181Z" fill="currentColor"/>
<path d="M1.7334 11.9999C1.73384 12.368 1.75379 12.7358 1.79317 13.1017C2.0238 13.0218 2.25443 12.9386 2.48617 12.8451L2.4033 12.4978C2.39101 12.4506 2.38826 12.4014 2.39522 12.3532C2.40218 12.3049 2.41871 12.2585 2.44383 12.2167C2.46895 12.1748 2.50216 12.1384 2.54153 12.1096C2.58089 12.0808 2.6256 12.0601 2.67305 12.0488C2.72051 12.0375 2.76974 12.0358 2.81787 12.0437C2.866 12.0517 2.91207 12.0691 2.95336 12.0951C2.99465 12.1211 3.03035 12.155 3.05836 12.195C3.08636 12.2349 3.10612 12.28 3.11647 12.3277L3.16927 12.5477C3.42593 12.4278 3.68077 12.2947 3.93633 12.1579L3.79223 11.8591C3.75391 11.7721 3.75086 11.6737 3.78372 11.5845C3.81658 11.4953 3.88278 11.4224 3.96836 11.3811C4.05395 11.3398 4.15223 11.3333 4.2425 11.363C4.33277 11.3928 4.40796 11.4564 4.45223 11.5405L4.57543 11.7971C4.85997 11.6285 5.14315 11.4505 5.425 11.2633L5.205 10.894C5.15472 10.8108 5.13957 10.711 5.16288 10.6166C5.1862 10.5222 5.24606 10.4409 5.3293 10.3906C5.41254 10.3403 5.51235 10.3252 5.60676 10.3485C5.70117 10.3718 5.78246 10.4317 5.83273 10.5149L6.0322 10.8475C6.33727 10.6275 6.63928 10.396 6.93823 10.153L6.75967 9.85491C6.70963 9.77152 6.69477 9.67168 6.71836 9.57733C6.74195 9.48299 6.80204 9.40188 6.88543 9.35185C6.96882 9.30181 7.06867 9.28696 7.16301 9.31054C7.25736 9.33413 7.33847 9.39422 7.3885 9.47761L7.504 9.67048C7.79562 9.41723 8.08211 9.15434 8.36347 8.88178L8.1112 8.62951C8.04441 8.56036 8.00745 8.46774 8.00829 8.3716C8.00912 8.27546 8.04768 8.1835 8.11567 8.11551C8.18365 8.04753 8.27561 8.00897 8.37175 8.00813C8.46789 8.0073 8.56051 8.04425 8.62967 8.11105L8.88193 8.36331C9.15449 8.08171 9.41739 7.79522 9.67063 7.50385L9.47777 7.38835C9.39438 7.33831 9.33428 7.2572 9.31069 7.16286C9.28711 7.06852 9.30197 6.96867 9.352 6.88528C9.40203 6.80189 9.48314 6.74179 9.57749 6.71821C9.67183 6.69462 9.77168 6.70948 9.85507 6.75951L10.1532 6.93808C10.3952 6.63961 10.6267 6.3376 10.8476 6.03205L10.5151 5.83258C10.4317 5.78255 10.3716 5.70144 10.348 5.60709C10.3244 5.51275 10.3393 5.4129 10.3893 5.32951C10.4393 5.24612 10.5204 5.18603 10.6148 5.16244C10.7091 5.13885 10.809 5.15371 10.8924 5.20375L11.2616 5.42375C11.4493 5.1419 11.6273 4.85871 11.7955 4.57418L11.5388 4.45098C11.4938 4.43113 11.4532 4.40242 11.4195 4.36655C11.3857 4.33068 11.3596 4.28839 11.3426 4.2422C11.3256 4.19601 11.318 4.14687 11.3204 4.0977C11.3228 4.04854 11.335 4.00035 11.3564 3.95602C11.3778 3.91169 11.4079 3.87213 11.445 3.83968C11.482 3.80724 11.5252 3.78258 11.5719 3.76718C11.6187 3.75178 11.668 3.74595 11.7171 3.75004C11.7661 3.75412 11.8139 3.76805 11.8574 3.79098L12.1563 3.93508C12.293 3.67841 12.4261 3.42395 12.546 3.16801L12.326 3.11521C12.2784 3.10487 12.2332 3.08511 12.1933 3.0571C12.1533 3.0291 12.1194 2.9934 12.0934 2.95211C12.0674 2.91081 12.05 2.86475 12.042 2.81662C12.0341 2.76849 12.0358 2.71925 12.0471 2.6718C12.0585 2.62435 12.0791 2.57963 12.1079 2.54027C12.1368 2.50091 12.1732 2.4677 12.215 2.44258C12.2568 2.41745 12.3032 2.40093 12.3515 2.39397C12.3998 2.38701 12.449 2.38976 12.4962 2.40205L12.8434 2.48491C12.9384 2.25318 13.0216 2.02255 13.1001 1.79191C12.7347 1.75297 12.3675 1.73339 12.0001 1.73325C9.27813 1.73635 6.66857 2.81901 4.74387 4.74371C2.81916 6.66841 1.7365 9.27798 1.7334 11.9999Z" fill="currentColor"/>
<path d="M22.2069 10.8999C21.9763 10.9798 21.7457 11.0631 21.5136 11.1566L21.5964 11.5034C21.619 11.598 21.6031 11.6977 21.5523 11.7805C21.5014 11.8634 21.4197 11.9227 21.3251 11.9453C21.297 11.9518 21.2682 11.9551 21.2393 11.9552C21.1569 11.955 21.077 11.9272 21.0125 11.8761C20.9479 11.825 20.9024 11.7537 20.8833 11.6736L20.8305 11.4536C20.5738 11.5735 20.319 11.7066 20.0638 11.8433L20.2079 12.1422C20.2462 12.2291 20.2492 12.3276 20.2164 12.4168C20.1835 12.5059 20.1173 12.5789 20.0317 12.6202C19.9461 12.6615 19.8479 12.668 19.7576 12.6383C19.6673 12.6085 19.5921 12.5449 19.5479 12.4608L19.4247 12.2041C19.1401 12.3728 18.8569 12.5509 18.5751 12.7384L18.7951 13.1072C18.8451 13.1906 18.86 13.2905 18.8364 13.3848C18.8128 13.4792 18.7527 13.5603 18.6693 13.6103C18.5859 13.6603 18.4861 13.6752 18.3917 13.6516C18.2974 13.628 18.2163 13.5679 18.1663 13.4845L17.9672 13.152C17.6616 13.372 17.3596 13.6035 17.0611 13.8464L17.2397 14.1442C17.2897 14.2276 17.3046 14.3274 17.281 14.4217C17.2574 14.5161 17.1973 14.5972 17.1139 14.6472C17.0305 14.6973 16.9307 14.7121 16.8363 14.6885C16.742 14.665 16.6609 14.6049 16.6109 14.5215L16.4954 14.329C16.2047 14.5827 15.9185 14.8452 15.6366 15.1166L15.8885 15.3685C15.9243 15.4021 15.953 15.4426 15.9729 15.4875C15.9928 15.5325 16.0034 15.5809 16.0041 15.6301C16.0049 15.6792 15.9958 15.728 15.9773 15.7735C15.9589 15.819 15.9315 15.8604 15.8967 15.8951C15.862 15.9298 15.8206 15.9572 15.775 15.9757C15.7295 15.9941 15.6807 16.0032 15.6316 16.0024C15.5824 16.0016 15.534 15.9909 15.4891 15.971C15.4441 15.9511 15.4037 15.9224 15.3701 15.8866L15.1182 15.6347C14.8458 15.9163 14.5829 16.2028 14.3295 16.4941L14.522 16.6096C14.5632 16.6344 14.5993 16.6671 14.6279 16.7058C14.6566 16.7445 14.6774 16.7884 14.689 16.8351C14.7007 16.8818 14.7031 16.9304 14.696 16.978C14.6889 17.0256 14.6725 17.0714 14.6477 17.1127C14.623 17.154 14.5903 17.19 14.5516 17.2187C14.5129 17.2473 14.469 17.2681 14.4222 17.2798C14.3755 17.2915 14.327 17.2938 14.2793 17.2867C14.2317 17.2796 14.1859 17.2632 14.1447 17.2385L13.8469 17.0599C13.6049 17.3584 13.3734 17.6604 13.1525 17.9659L13.485 18.165C13.5539 18.2063 13.6074 18.269 13.6372 18.3436C13.667 18.4181 13.6715 18.5004 13.65 18.5778C13.6285 18.6551 13.5822 18.7233 13.5182 18.7718C13.4543 18.8203 13.3761 18.8465 13.2958 18.8463C13.2295 18.8463 13.1645 18.8282 13.1077 18.7939L12.7389 18.5739C12.5506 18.856 12.3726 19.1391 12.2046 19.4234L12.4613 19.5466C12.5454 19.5909 12.609 19.6661 12.6387 19.7564C12.6685 19.8466 12.662 19.9449 12.6207 20.0305C12.5794 20.1161 12.5064 20.1823 12.4173 20.2151C12.3281 20.248 12.2296 20.245 12.1427 20.2066L11.8438 20.0625C11.7071 20.3192 11.5743 20.5733 11.4541 20.8292L11.6741 20.882C11.7612 20.9031 11.8375 20.9553 11.8888 21.0288C11.94 21.1024 11.9625 21.1921 11.9521 21.2811C11.9417 21.3701 11.899 21.4522 11.8322 21.5119C11.7653 21.5716 11.679 21.6047 11.5894 21.6051C11.5606 21.605 11.5319 21.6017 11.5039 21.5952L11.1571 21.5123C11.0621 21.7444 10.9789 21.9751 10.9004 22.2057C11.2656 22.2454 11.6327 22.2657 12 22.2666C14.722 22.2635 17.3315 21.1808 19.2562 19.2561C21.1809 17.3314 22.2636 14.7218 22.2667 11.9999C22.2662 11.6324 22.2462 11.2653 22.2069 10.8999Z" fill="currentColor"/>
</g>
<defs>
<clipPath id="clip0_7564_279605">
<rect width="0.561404" height="0.561404" fill="currentColor" transform="translate(21.9386 19.2749)"/>
</clipPath>
<clipPath id="clip1_7564_279605">
<rect width="22" height="22" fill="currentColor" transform="translate(1 1)"/>
</clipPath>
</defs>
</svg>
