<svg width="20" height="20" viewBox="0 0 20 20" fill="none" xmlns="http://www.w3.org/2000/svg">
<g clip-path="url(#clip0_5612_1083)">
<path d="M16.2683 2.21574C14.3488 0.667018 11.9243 -0.117125 9.46142 0.0141814C6.99852 0.145487 4.67117 1.18296 2.92718 2.927C1.1832 4.67103 0.145778 6.9984 0.0145341 9.46131C-0.116709 11.9242 0.667495 14.3487 2.21626 16.2682L16.2683 2.21574ZM14.0404 2.42324L14.5458 1.91823C14.5787 1.88412 14.6181 1.85691 14.6617 1.83819C14.7053 1.81947 14.7522 1.80962 14.7996 1.80921C14.847 1.8088 14.894 1.81783 14.9379 1.83579C14.9818 1.85375 15.0217 1.88027 15.0552 1.9138C15.0888 1.94734 15.1153 1.98721 15.1332 2.03111C15.1512 2.075 15.1602 2.12203 15.1598 2.16945C15.1594 2.21687 15.1496 2.26374 15.1308 2.30731C15.1121 2.35088 15.0849 2.39029 15.0508 2.42324L14.5458 2.92789C14.5126 2.96107 14.4733 2.9874 14.4299 3.00537C14.3866 3.02334 14.3401 3.03259 14.2932 3.03261C14.2463 3.03263 14.1999 3.0234 14.1565 3.00547C14.1132 2.98753 14.0738 2.96123 14.0406 2.92807C14.0074 2.89491 13.9811 2.85554 13.9631 2.81221C13.9452 2.76887 13.9359 2.72242 13.9359 2.67551C13.9359 2.6286 13.9451 2.58215 13.963 2.5388C13.981 2.49545 14.0073 2.45642 14.0404 2.42324ZM12.5254 3.93827L13.0304 3.43326C13.0636 3.40008 13.1029 3.37375 13.1463 3.35578C13.1896 3.33781 13.236 3.32856 13.283 3.32854C13.3299 3.32853 13.3763 3.33775 13.4197 3.35568C13.463 3.37362 13.5024 3.39992 13.5356 3.43308C13.5688 3.46624 13.5951 3.50561 13.6131 3.54894C13.631 3.59228 13.6403 3.63873 13.6403 3.68564C13.6403 3.73255 13.6311 3.779 13.6132 3.82235C13.5952 3.8657 13.5689 3.90509 13.5358 3.93827L13.0308 4.44328C12.9978 4.47739 12.9584 4.5046 12.9148 4.52332C12.8713 4.54203 12.8244 4.55189 12.777 4.5523C12.7295 4.55271 12.6825 4.54367 12.6386 4.52572C12.5947 4.50776 12.5549 4.48124 12.5213 4.44771C12.4878 4.41417 12.4613 4.3743 12.4433 4.3304C12.4254 4.28651 12.4163 4.23948 12.4167 4.19206C12.4171 4.14464 12.427 4.09777 12.4457 4.0542C12.4644 4.01062 12.4913 3.97121 12.5254 3.93827ZM11.01 5.4533L11.5154 4.94829C11.5824 4.88132 11.6733 4.84372 11.768 4.84375C11.8627 4.84378 11.9536 4.88145 12.0206 4.94847C12.0875 5.01548 12.1251 5.10636 12.1251 5.2011C12.1251 5.29584 12.0874 5.38669 12.0204 5.45366L11.515 5.95902C11.448 6.02599 11.357 6.06358 11.2623 6.06351C11.1675 6.06344 11.0766 6.02573 11.0096 5.95867C10.9427 5.8916 10.9051 5.80068 10.9052 5.70591C10.9052 5.61113 10.9429 5.52027 11.01 5.4533ZM9.49498 6.96904L9.99999 6.46368C10.0673 6.39862 10.1576 6.36262 10.2512 6.36343C10.3448 6.36425 10.4344 6.40181 10.5006 6.46803C10.5669 6.53425 10.6044 6.62382 10.6052 6.71747C10.6061 6.81111 10.5701 6.90133 10.505 6.96869L9.99999 7.47405C9.96704 7.50816 9.92763 7.53537 9.88406 7.55409C9.84048 7.57281 9.79362 7.58266 9.7462 7.58307C9.69877 7.58349 9.65174 7.57445 9.60785 7.55649C9.56396 7.53853 9.52408 7.51201 9.49055 7.47848C9.45702 7.44495 9.4305 7.40507 9.41254 7.36118C9.39458 7.31728 9.38554 7.27026 9.38596 7.22283C9.38637 7.17541 9.39622 7.12855 9.41494 7.08497C9.43366 7.0414 9.46087 7.00199 9.49498 6.96904ZM7.97959 8.48407L8.48496 7.97906C8.51814 7.9459 8.55753 7.91961 8.60087 7.90167C8.64422 7.88373 8.69068 7.87451 8.73759 7.87452C8.7845 7.87454 8.83095 7.8838 8.87428 7.90176C8.91761 7.91973 8.95699 7.94606 8.99015 7.97924C9.0233 8.01242 9.0496 8.05181 9.06754 8.09516C9.08548 8.13851 9.0947 8.18496 9.09468 8.23187C9.09467 8.27878 9.08541 8.32523 9.06744 8.36857C9.04948 8.4119 9.02315 8.45127 8.98997 8.48443L8.4846 8.98944C8.41758 9.05641 8.32671 9.09401 8.23197 9.09398C8.13723 9.09395 8.04638 9.05628 7.97941 8.98926C7.91244 8.92225 7.87484 8.83137 7.87487 8.73663C7.87491 8.64189 7.91257 8.55104 7.97959 8.48407ZM6.4642 9.99946L6.96921 9.49445C7.00237 9.46127 7.04174 9.43494 7.08508 9.41697C7.12841 9.39901 7.17486 9.38975 7.22177 9.38973C7.26868 9.38972 7.31514 9.39894 7.35848 9.41688C7.40183 9.43481 7.44122 9.46111 7.4744 9.49427C7.50758 9.52743 7.53391 9.5668 7.55188 9.61014C7.56985 9.65347 7.5791 9.69992 7.57912 9.74683C7.57913 9.79374 7.56991 9.84019 7.55197 9.88354C7.53404 9.92689 7.50774 9.96628 7.47458 9.99946L6.96957 10.5045C6.9026 10.5715 6.81175 10.6092 6.71701 10.6092C6.62227 10.6092 6.5314 10.5716 6.46438 10.5046C6.39737 10.4377 6.3597 10.3468 6.35966 10.2521C6.35963 10.1574 6.39723 10.0665 6.4642 9.99946ZM4.94882 11.5148L5.45382 11.0095C5.48698 10.9763 5.52636 10.95 5.56969 10.932C5.61302 10.914 5.65947 10.9048 5.70638 10.9048C5.75329 10.9047 5.79975 10.914 5.8431 10.9319C5.88644 10.9498 5.92583 10.9761 5.95901 11.0093C5.9922 11.0425 6.01852 11.0818 6.03649 11.1252C6.05446 11.1685 6.06371 11.2149 6.06373 11.2619C6.06375 11.3088 6.05452 11.3552 6.03659 11.3986C6.01865 11.4419 5.99235 11.4813 5.95919 11.5145L5.45382 12.0199C5.42088 12.054 5.38147 12.0812 5.3379 12.0999C5.29432 12.1186 5.24746 12.1285 5.20004 12.1289C5.15261 12.1293 5.10558 12.1203 5.06169 12.1023C5.0178 12.0843 4.97792 12.0578 4.94439 12.0243C4.91085 11.9908 4.88434 11.9509 4.86638 11.907C4.84842 11.8631 4.83938 11.8161 4.83979 11.7686C4.84021 11.7212 4.85006 11.6744 4.86878 11.6308C4.8875 11.5872 4.9147 11.5478 4.94882 11.5148ZM3.43343 13.0299L3.93844 12.5249C3.97138 12.4908 4.01079 12.4635 4.05437 12.4448C4.09794 12.4261 4.14481 12.4163 4.19223 12.4158C4.23965 12.4154 4.28668 12.4245 4.33057 12.4424C4.37446 12.4604 4.41434 12.4869 4.44788 12.5204C4.48141 12.554 4.50793 12.5939 4.52589 12.6377C4.54384 12.6816 4.55288 12.7287 4.55247 12.7761C4.55206 12.8235 4.5422 12.8704 4.52349 12.9139C4.50477 12.9575 4.47756 12.9969 4.44345 13.0299L3.9388 13.5352C3.90585 13.5694 3.86644 13.5966 3.82287 13.6153C3.77929 13.634 3.73243 13.6439 3.685 13.6443C3.63758 13.6447 3.59055 13.6356 3.54666 13.6177C3.50277 13.5997 3.46289 13.5732 3.42936 13.5397C3.39582 13.5061 3.3693 13.4663 3.35135 13.4224C3.33339 13.3785 3.32435 13.3314 3.32476 13.284C3.32518 13.2366 3.33503 13.1897 3.35375 13.1462C3.37247 13.1026 3.39967 13.0632 3.43378 13.0302L3.43343 13.0299ZM1.91876 15.0503C1.8518 14.9833 1.81419 14.8925 1.81419 14.7978C1.81419 14.7031 1.8518 14.6122 1.91876 14.5453L2.42376 14.0399C2.45674 14.0058 2.49616 13.9786 2.53975 13.9599C2.58334 13.9413 2.63021 13.9314 2.67763 13.9311C2.72505 13.9307 2.77208 13.9398 2.81595 13.9577C2.85983 13.9757 2.89969 14.0023 2.9332 14.0358C2.96671 14.0694 2.9932 14.1093 3.01113 14.1532C3.02906 14.1971 3.03806 14.2441 3.03761 14.2916C3.03717 14.339 3.02728 14.3858 3.00854 14.4294C2.98979 14.473 2.96255 14.5123 2.92842 14.5453L2.42376 15.0503C2.35679 15.1172 2.26596 15.1548 2.17126 15.1548C2.07656 15.1548 1.98573 15.1172 1.91876 15.0503Z" fill="currentColor"/>
<path d="M3.19056 17.3142L17.3144 3.19031C17.1525 3.01555 16.9842 2.84721 16.8094 2.6853L2.68555 16.8092C2.84745 16.9839 3.01579 17.1523 3.19056 17.3142Z" fill="currentColor"/>
<path d="M3.73132 17.7834C5.65081 19.3325 8.07541 20.1169 10.5385 19.9858C13.0016 19.8547 15.3292 18.8172 17.0734 17.073C18.8176 15.3289 19.855 13.0013 19.9862 10.5382C20.1173 8.07504 19.3328 5.65045 17.7837 3.73096L3.73132 17.7834ZM5.95958 17.5759L5.45421 18.0809C5.42127 18.115 5.38186 18.1422 5.33829 18.1609C5.29471 18.1796 5.24785 18.1895 5.20042 18.1899C5.153 18.1903 5.10597 18.1813 5.06208 18.1633C5.01819 18.1454 4.97831 18.1188 4.94478 18.0853C4.91124 18.0518 4.88472 18.0119 4.86677 17.968C4.84881 17.9241 4.83977 17.8771 4.84018 17.8297C4.8406 17.7822 4.85045 17.7354 4.86917 17.6918C4.88788 17.6482 4.91509 17.6088 4.9492 17.5759L5.45421 17.0712C5.48737 17.038 5.52674 17.0117 5.57008 16.9937C5.61341 16.9758 5.65986 16.9665 5.70677 16.9665C5.75368 16.9665 5.80014 16.9757 5.84348 16.9936C5.88683 17.0116 5.92622 17.0379 5.9594 17.071C5.99259 17.1042 6.01891 17.1436 6.03688 17.1869C6.05485 17.2302 6.0641 17.2767 6.06412 17.3236C6.06414 17.3705 6.05491 17.417 6.03698 17.4603C6.01904 17.5037 5.99274 17.5427 5.95958 17.5759ZM7.47461 16.0608L6.9696 16.5659C6.90263 16.6329 6.81179 16.6705 6.71704 16.6706C6.6223 16.6706 6.53143 16.633 6.46441 16.566C6.3974 16.4991 6.35973 16.4082 6.3597 16.3135C6.35966 16.2187 6.39727 16.1279 6.46423 16.0608L6.96924 15.5558C7.00219 15.5217 7.0416 15.4945 7.08517 15.4758C7.12875 15.4571 7.17561 15.4472 7.22303 15.4468C7.27046 15.4464 7.31749 15.4554 7.36138 15.4734C7.40527 15.4914 7.44515 15.5179 7.47868 15.5514C7.51222 15.5849 7.53873 15.6248 7.55669 15.6687C7.57465 15.7126 7.58369 15.7596 7.58327 15.8071C7.58286 15.8545 7.57301 15.9013 7.55429 15.9449C7.53557 15.9885 7.50837 16.0279 7.47425 16.0608H7.47461ZM8.99 14.5455L8.48463 15.0505C8.41727 15.1155 8.32706 15.1515 8.23341 15.1507C8.13977 15.1499 8.05019 15.1123 7.98397 15.0461C7.91775 14.9799 7.88019 14.8903 7.87938 14.7967C7.87857 14.703 7.91456 14.6128 7.97962 14.5455L8.48499 14.0401C8.51817 14.0069 8.55756 13.9806 8.60091 13.9627C8.64425 13.9448 8.69071 13.9355 8.73762 13.9356C8.78453 13.9356 8.83098 13.9448 8.87431 13.9628C8.91765 13.9808 8.95702 14.0071 8.99018 14.0403C9.02334 14.0735 9.04964 14.1128 9.06757 14.1562C9.08551 14.1995 9.09473 14.246 9.09472 14.2929C9.0947 14.3398 9.08544 14.3863 9.06748 14.4296C9.04951 14.4729 9.02318 14.5123 8.99 14.5455ZM10.505 13.0301L10 13.5354C9.93266 13.6005 9.84244 13.6365 9.7488 13.6357C9.65516 13.6349 9.56558 13.5973 9.49936 13.5311C9.43314 13.4649 9.39558 13.3753 9.39477 13.2816C9.39395 13.188 9.42995 13.0978 9.49501 13.0304L10 12.5251C10.0674 12.46 10.1576 12.424 10.2512 12.4248C10.3449 12.4256 10.4345 12.4632 10.5007 12.5294C10.5669 12.5956 10.6045 12.6852 10.6053 12.7788C10.6061 12.8725 10.5701 12.9627 10.505 13.0301ZM12.0204 11.5147L11.515 12.0201C11.4821 12.0542 11.4427 12.0814 11.3991 12.1001C11.3555 12.1188 11.3087 12.1287 11.2613 12.1291C11.2138 12.1295 11.1668 12.1204 11.1229 12.1025C11.079 12.0845 11.0391 12.058 11.0056 12.0245C10.9721 11.9909 10.9456 11.9511 10.9276 11.9072C10.9096 11.8633 10.9006 11.8163 10.901 11.7688C10.9014 11.7214 10.9113 11.6745 10.93 11.631C10.9487 11.5874 10.9759 11.548 11.01 11.515L11.5154 11.0097C11.5484 10.9756 11.5878 10.9484 11.6313 10.9296C11.6749 10.9109 11.7218 10.9011 11.7692 10.9007C11.8166 10.9002 11.8636 10.9093 11.9075 10.9272C11.9514 10.9452 11.9913 10.9717 12.0248 11.0052C12.0584 11.0388 12.0849 11.0787 12.1029 11.1225C12.1208 11.1664 12.1298 11.2135 12.1294 11.2609C12.129 11.3083 12.1192 11.3552 12.1005 11.3988C12.0817 11.4423 12.0545 11.4817 12.0204 11.5147ZM13.5358 9.99965L13.0308 10.5047C12.9638 10.5717 12.873 10.6093 12.7782 10.6094C12.6835 10.6094 12.5926 10.5718 12.5256 10.5048C12.4586 10.4379 12.4209 10.347 12.4209 10.2523C12.4209 10.1575 12.4585 10.0667 12.5254 9.99965L13.0304 9.49464C13.0974 9.42763 13.1883 9.38996 13.283 9.38993C13.3777 9.38989 13.4686 9.4275 13.5356 9.49446C13.6026 9.56143 13.6403 9.65228 13.6403 9.74702C13.6404 9.84176 13.6028 9.93264 13.5358 9.99965ZM15.0512 8.48427L14.5462 8.98928C14.513 9.02246 14.4736 9.04879 14.4303 9.06675C14.387 9.08472 14.3405 9.09398 14.2936 9.09399C14.2467 9.09401 14.2003 9.08479 14.1569 9.06685C14.1136 9.04891 14.0742 9.02261 14.041 8.98945C14.0078 8.95629 13.9815 8.91692 13.9635 8.87359C13.9455 8.83026 13.9363 8.78381 13.9363 8.7369C13.9363 8.68999 13.9455 8.64353 13.9634 8.60018C13.9814 8.55684 14.0077 8.51745 14.0408 8.48427L14.5462 7.97926C14.6135 7.9142 14.7038 7.8782 14.7974 7.87901C14.891 7.87983 14.9806 7.91739 15.0468 7.98361C15.1131 8.04982 15.1506 8.1394 15.1514 8.23305C15.1522 8.32669 15.1162 8.41691 15.0512 8.48427ZM16.5666 6.96924L16.0616 7.47425C16.0286 7.50836 15.9892 7.53557 15.9456 7.55428C15.9021 7.573 15.8552 7.58285 15.8078 7.58327C15.7604 7.58368 15.7133 7.57464 15.6694 7.55668C15.6255 7.53873 15.5857 7.51221 15.5521 7.47867C15.5186 7.44514 15.4921 7.40526 15.4741 7.36137C15.4562 7.31748 15.4471 7.27045 15.4475 7.22303C15.4479 7.1756 15.4578 7.12874 15.4765 7.08516C15.4952 7.04159 15.5224 7.00218 15.5566 6.96924L16.0612 6.46387C16.1286 6.39881 16.2188 6.36281 16.3124 6.36363C16.4061 6.36444 16.4957 6.402 16.5619 6.46822C16.6281 6.53444 16.6656 6.62401 16.6665 6.71766C16.6673 6.8113 16.6313 6.90152 16.5662 6.96888L16.5666 6.96924ZM18.0816 4.94884C18.1486 5.01581 18.1862 5.10664 18.1862 5.20134C18.1862 5.29605 18.1486 5.38687 18.0816 5.45385L17.5766 5.95886C17.5092 6.02392 17.419 6.05992 17.3254 6.0591C17.2317 6.05829 17.1422 6.02073 17.0759 5.95451C17.0097 5.88829 16.9722 5.79871 16.9713 5.70507C16.9705 5.61142 17.0065 5.52121 17.0716 5.45385L17.5766 4.94884C17.6436 4.88199 17.7343 4.84445 17.8289 4.84445C17.9235 4.84445 18.0146 4.88199 18.0816 4.94884Z" fill="currentColor"/>
</g>
<defs>
<clipPath id="clip0_5612_1083">
<rect width="20" height="20" fill="currentColor"/>
</clipPath>
</defs>
</svg>
