<svg width="24" height="25" viewBox="0 0 24 25" fill="none" xmlns="http://www.w3.org/2000/svg">
<path d="M4.94512 10.5844L2.01886 13.1757C2.12861 14.8237 2.6477 16.4183 3.52913 17.8151L7.41712 18.1922L9.01024 15.9995L7.79103 11.508L4.94512 10.5844Z" fill="currentColor"/>
<path d="M19.921 18.5844L16.644 18.9022L15.3277 21.9253C17.1484 21.277 18.7434 20.1169 19.921 18.5844Z" fill="currentColor"/>
<path d="M14.3133 15.7124L15.4889 11.3819L11.9927 9.00241L8.49649 11.3819L9.67178 15.7124H14.3133Z" fill="currentColor"/>
<path d="M15.9923 18.6116L14.4028 16.4278H9.58162L7.99386 18.6127L9.55555 22.1985C11.1546 22.6004 12.8283 22.6004 14.4274 22.1985L15.9923 18.6116Z" fill="currentColor"/>
<path d="M8.65911 21.9253L7.3424 18.9022L4.06473 18.5844C5.24263 20.1171 6.83796 21.2772 8.65911 21.9253Z" fill="currentColor"/>
<path d="M3.75681 6.83752C2.65836 8.42844 2.04786 10.3052 2.00012 12.2379L4.46677 10.0534L3.75681 6.83752Z" fill="currentColor"/>
<path d="M8.03131 10.8351L11.6357 8.38206V5.20367L8.26773 3.22272C6.7373 3.84056 5.38269 4.82598 4.32367 6.09184L5.16576 9.90519L8.03131 10.8351Z" fill="currentColor"/>
<path d="M21.9854 12.2383C21.9376 10.3055 21.3271 8.42859 20.2287 6.83752L19.5184 10.0538L21.9854 12.2383Z" fill="currentColor"/>
<path d="M14.8338 2.91348C12.9798 2.36209 11.0053 2.36209 9.15128 2.91348L11.9925 4.58553L14.8338 2.91348Z" fill="currentColor"/>
<path d="M12.3498 8.38206L15.9546 10.8351L18.8198 9.90662L19.6615 6.09291C18.6027 4.82658 17.248 3.84077 15.7174 3.22272L12.3498 5.20439V8.38206Z" fill="currentColor"/>
<path d="M21.9668 13.1757L19.0406 10.5844L16.1947 11.508L14.9754 15.9995L16.5682 18.1915L20.4566 17.8151C21.3379 16.4183 21.857 14.8237 21.9668 13.1757Z" fill="currentColor"/>
</svg>
