<svg width="24" height="24" viewBox="0 0 24 24" fill="currenColor" xmlns="http://www.w3.org/2000/svg">
<g clip-path="url(#clip0_88_39829)">
<path d="M23.1488 16.8712C22.9984 16.72 22.8196 16.6001 22.6227 16.5183C22.4257 16.4366 22.2145 16.3947 22.0013 16.395H16.47C16.4623 16.3951 16.4547 16.3931 16.448 16.3891C16.4414 16.3851 16.436 16.3794 16.4325 16.3725L13.7213 11.6775L12.4313 13.9087L15.465 19.155C15.5718 19.3483 15.7355 19.504 15.9338 19.6012C15.9851 19.6265 16.0416 19.6393 16.0988 19.6387H22.0013C22.4319 19.6385 22.8447 19.4674 23.1492 19.1629C23.4537 18.8585 23.6248 18.4456 23.625 18.015C23.6261 17.8022 23.5844 17.5914 23.5026 17.3949C23.4208 17.1985 23.3005 17.0204 23.1488 16.8712Z" fill="currentColor"/>
<path d="M8.81995 20.1112C8.81995 20.3287 8.91745 20.7412 9.5587 21.0487C10.3248 21.4243 11.1655 21.6229 12.0187 21.6299C12.8789 21.6214 13.7266 21.4229 14.5012 21.0487C14.6859 20.9608 14.8463 20.8291 14.9685 20.665C15.0908 20.501 15.1711 20.3096 15.2024 20.1074V20.0999C15.1708 19.9038 15.0949 19.7175 14.9806 19.5551C14.8662 19.3926 14.7164 19.2584 14.5424 19.1624C13.7843 18.7452 12.9239 18.5502 12.0599 18.5999C11.1723 18.5476 10.2874 18.7409 9.50245 19.1587C9.31262 19.2401 9.14868 19.3719 9.02838 19.5398C8.90808 19.7077 8.836 19.9053 8.81995 20.1112Z" fill="currentColor"/>
<path d="M15.2025 21.4801C15.0868 21.5748 14.961 21.6566 14.8275 21.7238C13.9511 22.1472 12.9919 22.3714 12.0187 22.3801C11.0543 22.3718 10.1038 22.1489 9.2362 21.7276C9.08975 21.6573 8.95037 21.5732 8.81995 21.4763V21.8626C8.78678 22.132 8.83647 22.4052 8.96242 22.6457C9.08836 22.8862 9.28458 23.0826 9.52495 23.2088C10.2355 23.5697 11.0231 23.7525 11.82 23.7413C11.9025 23.7451 11.9925 23.7451 12.0825 23.7451C12.5078 23.7506 12.9327 23.7116 13.3499 23.6288C13.817 23.5395 14.2641 23.3667 14.67 23.1188C15.2662 22.7438 15.2362 22.3051 15.2025 21.8701V21.4801Z" fill="currentColor"/>
<path d="M18.2626 2.3137C18.3676 2.14366 18.4222 1.9473 18.4201 1.74745C18.4198 1.55138 18.368 1.35882 18.27 1.18904C18.1719 1.01925 18.031 0.878182 17.8613 0.779951C17.6046 0.632434 17.2998 0.592621 17.0138 0.669224C16.7278 0.745827 16.4837 0.932609 16.3351 1.1887L15.8311 2.06245L17.7721 3.16383L18.2626 2.3137Z" fill="currentColor"/>
<path d="M15.456 2.71118L7.56753 16.3724C7.56401 16.3793 7.55864 16.3851 7.552 16.3891C7.54537 16.393 7.53776 16.3951 7.53003 16.3949H1.99878C1.56797 16.3957 1.15463 16.5653 0.847528 16.8674C0.621398 17.0951 0.467697 17.3846 0.405788 17.6994C0.34388 18.0143 0.376532 18.3404 0.499633 18.6367C0.622733 18.933 0.830775 19.1863 1.09755 19.3646C1.36433 19.5429 1.6779 19.6383 1.99878 19.6387H7.90128C7.95845 19.6392 8.01496 19.6264 8.06628 19.6012C8.26324 19.5052 8.42567 19.3506 8.53128 19.1587L17.3967 3.81256L15.456 2.71118Z" fill="currentColor"/>
<path d="M6.31571 3.32051L8.25933 2.21763L7.66496 1.18863C7.54189 0.97573 7.35204 0.809365 7.12483 0.715321C6.89761 0.621276 6.64572 0.604805 6.40819 0.668459C6.17066 0.732113 5.96076 0.872338 5.81102 1.0674C5.66128 1.26246 5.58006 1.50147 5.57996 1.74738C5.58039 1.94352 5.6321 2.13614 5.72996 2.30613L6.31571 3.32051Z" fill="currentColor"/>
<path d="M10.2787 10.1812L11.5687 7.94615L8.63619 2.86865L6.68994 3.97115L10.2787 10.1812Z" fill="currentColor"/>
</g>
<defs>
<clipPath id="clip0_88_39829">
<rect width="24" height="24" fill="white"/>
</clipPath>
</defs>
</svg>
