<svg width="24" height="24" viewBox="0 0 24 24" fill="none" xmlns="http://www.w3.org/2000/svg">
<g clip-path="url(#clip0_6162_322)">
<path d="M12 8.28125C13.0312 8.28125 13.8125 7.46875 13.8125 6.46875C13.8125 6.1875 13.75 5.90625 13.625 5.65625C13.5938 5.625 13.2188 4.625 12 4.625C10.8125 4.625 10.4063 5.59375 10.3438 5.65625C10.2188 5.90625 10.1562 6.15625 10.1562 6.4375C10.1562 7.4375 11 8.28125 12 8.28125Z" fill="currentColor"/>
<path d="M21.5625 16.1562L14.875 4.5625C14.2813 3.53125 13.1875 2.90625 12 2.90625C10.8125 2.90625 9.71875 3.53125 9.125 4.5625L2.4375 16.1562C1.84375 17.1875 1.84375 18.4375 2.4375 19.4688C3.03125 20.5 4.09375 21.125 5.3125 21.125H18.6875C19.875 21.125 20.9688 20.5 21.5625 19.4688C22.1562 18.4062 22.1562 17.1875 21.5625 16.1562ZM20.7188 18.9688C20.2813 19.7188 19.5313 20.1562 18.6875 20.1562H5.3125C4.46875 20.1562 3.71875 19.7188 3.28125 18.9688C2.84375 18.25 2.84375 17.3437 3.28125 16.625L9.96875 5.03125C10.4062 4.28125 11.1562 3.84375 12 3.84375C12.8438 3.84375 13.5938 4.28125 14.0312 5.03125L20.7188 16.625C21.125 17.3437 21.125 18.2187 20.7188 18.9688Z" fill="currentColor"/>
<path d="M9.84373 12C10.875 12 11.6562 11.1875 11.6562 10.1875C11.6562 9.1875 10.8437 8.375 9.84373 8.375C9.15623 8.375 8.56248 8.75 8.24998 9.3125V9.34375C7.59373 10.6875 8.56248 12 9.84373 12Z" fill="currentColor"/>
<path d="M12.3125 10.1876C12.3125 11.1876 13.125 12.0001 14.125 12.0001C15.1562 12.0001 15.9375 11.1876 15.9375 10.1876C15.9375 9.18761 15.125 8.37511 14.125 8.37511C13.1562 8.34386 12.3125 9.18761 12.3125 10.1876Z" fill="currentColor"/>
<path d="M16.3125 15.75C17.3135 15.75 18.125 14.9385 18.125 13.9375C18.125 12.9365 17.3135 12.125 16.3125 12.125C15.3115 12.125 14.5 12.9365 14.5 13.9375C14.5 14.9385 15.3115 15.75 16.3125 15.75Z" fill="currentColor"/>
<path d="M12 15.75C13.001 15.75 13.8125 14.9385 13.8125 13.9375C13.8125 12.9365 13.001 12.125 12 12.125C10.999 12.125 10.1875 12.9365 10.1875 13.9375C10.1875 14.9385 10.999 15.75 12 15.75Z" fill="currentColor"/>
<path d="M9.53125 13.9375C9.53125 12.9375 8.71875 12.125 7.71875 12.125C6.71875 12.125 5.90625 12.9375 5.90625 13.9375C5.90625 14.9375 6.71875 15.75 7.71875 15.75C8.71875 15.75 9.53125 14.9375 9.53125 13.9375Z" fill="currentColor"/>
<path d="M18.4375 19.4688C19.4385 19.4688 20.25 18.6573 20.25 17.6562C20.25 16.6552 19.4385 15.8438 18.4375 15.8438C17.4365 15.8438 16.625 16.6552 16.625 17.6562C16.625 18.6573 17.4365 19.4688 18.4375 19.4688Z" fill="currentColor"/>
<path d="M14.1563 19.4688C15.1573 19.4688 15.9688 18.6573 15.9688 17.6562C15.9688 16.6552 15.1573 15.8438 14.1563 15.8438C13.1552 15.8438 12.3438 16.6552 12.3438 17.6562C12.3438 18.6573 13.1552 19.4688 14.1563 19.4688Z" fill="currentColor"/>
<path d="M9.84375 15.8438C8.84375 15.8438 8.03125 16.6562 8.03125 17.6562C8.03125 18.6562 8.84375 19.4688 9.84375 19.4688C10.875 19.4688 11.6562 18.6562 11.6562 17.6562C11.6875 16.6562 10.8438 15.8438 9.84375 15.8438Z" fill="currentColor"/>
<path d="M5.5625 19.4688C6.56352 19.4688 7.375 18.6573 7.375 17.6562C7.375 16.6552 6.56352 15.8438 5.5625 15.8438C4.56148 15.8438 3.75 16.6552 3.75 17.6562C3.75 18.6573 4.56148 19.4688 5.5625 19.4688Z" fill="currentColor"/>
</g>
<defs>
<clipPath id="clip0_6162_322">
<rect width="20" height="20" fill="currentColor" transform="translate(2 2)"/>
</clipPath>
</defs>
</svg>
