<svg width="24" height="24" viewBox="0 0 24 24" fill="none" xmlns="http://www.w3.org/2000/svg">
<g clip-path="url(#clip0_5692_1107)">
<path d="M10.9873 4.41319C10.9873 3.09014 9.91476 2.01758 8.5917 2.01758C5.41395 2.14375 5.41487 6.68316 8.59174 6.80881C9.91472 6.80881 10.9873 5.73629 10.9873 4.41319Z" fill="currentColor"/>
<path d="M19.6707 4.24135C17.4735 2.08394 14.3329 1.4796 11.6003 2.44735C11.9805 3.02669 12.1851 3.70413 12.1851 4.41324C12.1851 6.39461 10.5731 8.00662 8.59172 8.0067C7.9366 8.0067 7.30835 7.83226 6.75964 7.5059C6.62676 7.94122 6.53321 8.38593 6.47827 8.83443L7.62374 9.97989L14.0112 16.3674L15.1694 17.5255C21.5235 16.7901 24.3488 8.81123 19.6707 4.24135Z" fill="currentColor"/>
<path d="M8.03096 12.0811L6.45325 10.5034C6.52076 11.2379 6.69193 11.9647 6.96755 12.6598C7.32757 13.5677 7.14107 14.5813 6.53298 15.3058L8.69774 17.4705C9.42221 16.8625 10.4358 16.676 11.3437 17.036C12.0389 17.3117 12.7659 17.4832 13.5006 17.5508L11.9101 15.9604L8.03096 12.0811Z" fill="currentColor"/>
<path d="M7.91679 18.3835L5.61992 16.0867L2.71264 18.3283C1.85401 18.9603 1.7597 20.2084 2.51356 20.9623L2.51895 20.9677L3.0358 21.4846L3.04119 21.49C3.79505 22.2438 5.04321 22.1495 5.67517 21.2909L7.91679 18.3835Z" fill="currentColor"/>
</g>
<defs>
<clipPath id="clip0_5692_1107">
<rect width="20" height="20" fill="white" transform="translate(2 2)"/>
</clipPath>
</defs>
</svg>
