<svg width="20" height="20" viewBox="0 0 20 20" fill="currentColor" xmlns="http://www.w3.org/2000/svg">
    <path d="M17.5901 14.1951C18.7499 12.1556 19.0636 9.74265 18.4638 7.47445C18.1188 6.1871 17.4909 4.99293 16.6259 3.97894C15.761 2.96494 14.6807 2.15666 13.4639 1.61297C12.247 1.06929 10.9242 0.80389 9.59181 0.836116C8.25941 0.868343 6.95098 1.19738 5.76183 1.79926L5.67969 1.8366C4.48621 2.45981 3.44767 3.34271 2.64047 4.4203L2.58073 4.49498C1.55279 5.88255 0.951041 7.53938 0.848937 9.26321C0.746833 10.987 1.14879 12.7033 2.00575 14.2025C2.02326 14.2527 2.05126 14.2985 2.08789 14.337C2.87078 15.6656 3.98149 16.7712 5.31379 17.5479C6.4934 18.2411 7.81715 18.6525 9.18188 18.7502H9.23415C9.42083 18.7502 9.60752 18.7502 9.7942 18.7502C11.3515 18.7476 12.8812 18.3392 14.2325 17.5653C15.5839 16.7915 16.7102 15.6788 17.5005 14.337C17.5408 14.2971 17.5714 14.2486 17.5901 14.1951ZM9.12961 18.0034C8.18449 17.9153 7.26206 17.6626 6.40402 17.2567C9.63739 15.6811 12.3779 12.8136 13.2665 10.7377C13.9164 11.08 14.523 11.4986 15.0736 11.9847C14.3866 13.9188 11.8552 16.51 9.12961 18.0034ZM9.87634 9.4085C9.19341 8.56529 8.83335 7.50629 8.86078 6.42155C12.6841 6.98161 16.4476 9.12474 17.9038 10.902C17.7819 11.7399 17.53 12.5537 17.157 13.3139C15.3574 10.439 11.8851 8.82604 9.89874 9.37863L9.87634 9.4085ZM9.70459 3.81545L10.1676 3.91252L10.414 3.97226L10.8322 4.0768L11.101 4.15148L11.4968 4.26349L11.7805 4.3531L12.1539 4.47257L12.46 4.58458L12.7961 4.70406L13.1022 4.82354L13.4308 4.95795L13.722 5.0849L14.0431 5.22678L14.3344 5.36866L14.633 5.51054L14.9093 5.65988L15.1931 5.80923L15.4545 5.95858L15.7233 6.11539L15.9697 6.27221L16.2236 6.43649L16.4551 6.60077L16.6866 6.76505L16.8957 6.92934L17.1047 7.10108L17.2914 7.26537L17.4781 7.43712L17.6349 7.60886L17.7768 7.75821C17.9382 8.42297 18.016 9.10529 18.0083 9.78933C18.0083 9.78933 18.0083 9.84907 18.0083 9.87147C15.4484 7.59276 12.2702 6.12449 8.87572 5.65242C8.90166 4.99706 8.99678 4.34628 9.15948 3.7109L9.49551 3.77064L9.70459 3.81545ZM17.172 6.23487L17.1197 6.19753C16.9181 6.04072 16.709 5.89137 16.485 5.74202L16.358 5.65988C16.1191 5.50556 15.8701 5.35372 15.6113 5.20438L15.4545 5.11477C15.2006 4.97289 14.9317 4.83101 14.6629 4.69659H14.6181C14.3344 4.56218 14.0431 4.42777 13.7444 4.30082L13.5503 4.21868C13.2516 4.09921 12.9529 3.97973 12.6467 3.86772L12.5347 3.81545L11.6685 3.53915L11.5042 3.48688C11.1906 3.39727 10.8745 3.31513 10.5559 3.24046L10.3543 3.19566C10.0257 3.12098 9.69713 3.05378 9.36856 2.99404C9.45726 2.73985 9.55945 2.49059 9.67472 2.2473C9.71206 2.16516 9.75686 2.09049 9.7942 2.00835C9.83154 1.9262 9.93608 1.73952 10.0108 1.61258C11.5182 1.64879 12.9865 2.09923 14.255 2.91455C15.5234 3.72987 16.5429 4.8786 17.2018 6.23487H17.172ZM8.95786 1.91874L8.83838 2.18756C8.70036 2.5108 8.58313 2.84253 8.48741 3.18072C7.74068 5.80923 8.09164 8.69163 9.33869 9.90134C9.03753 10.7322 8.47731 11.4442 7.74068 11.9325C6.06052 8.61696 5.65728 4.56218 6.20987 2.40412C7.1249 1.94647 8.11795 1.66528 9.13707 1.57524C9.0848 1.70218 9.04747 1.80673 9.00266 1.91127L8.95786 1.91874ZM5.35112 2.88949C5.03436 6.15843 5.66151 9.44966 7.15822 12.373C6.4875 12.7836 5.76736 13.1072 5.01509 13.3363C3.52162 10.3494 2.77488 6.84719 3.2528 4.83101C3.83429 4.06699 4.54433 3.41001 5.35112 2.88949ZM2.36418 6.24234C2.49539 8.77554 3.14876 11.2543 4.28329 13.523C3.72149 13.6447 3.14809 13.7048 2.57327 13.7022C1.95182 12.5615 1.61139 11.2889 1.58023 9.99023C1.54906 8.69154 1.82805 7.40415 2.39405 6.23487L2.36418 6.24234ZM3.00637 14.4564C6.41896 14.2921 9.55525 12.0967 10.078 10.103C10.9183 9.94698 11.7864 10.062 12.5571 10.4315C11.7282 12.4701 8.82345 15.3899 5.53781 16.8311C4.54489 16.2197 3.6924 15.4054 3.03624 14.4415L3.00637 14.4564ZM10.5633 17.9736C12.8782 16.4801 14.8571 14.3444 15.6187 12.5597C16.0569 13.0109 16.4404 13.5122 16.7612 14.0532C16.1046 15.137 15.2061 16.0542 14.1361 16.733C13.0661 17.4118 11.8535 17.8338 10.5932 17.9661L10.5633 17.9736Z"
          fill="currentColor"/>
</svg>
